# OBJ file
o __dotobj_group__##0#1#0#-1.0
g __dotobj_group__##0#1#0#-1.0
o elevator_DOOR_SLIDE.COLLIDER.VISIBLE.003_Cube.002##0#0#0#12824998.0
g elevator_DOOR_SLIDE.COLLIDER.VISIBLE.003_Cube.002##0#0#0#12824998.0
v 3.145159959793091 -3.6332969665527344 -0.02070000022649765
vt 0.375 0.0
vn 1.0 0.0 0.0
v 3.145159959793091 -3.551408052444458 -0.02070000022649765
vt 0.375 0.25
v 3.145159959793091 -3.551408052444458 0.8630769848823547
vt 0.625 0.25
f 1/1/1 2/2/1 3/3/1
v 3.145159959793091 -3.6332969665527344 0.8630759716033936
vt 0.625 0.0
f 1/1/1 3/3/1 4/4/1
vn -0.0 1.0 -0.0
v 2.5016140937805176 -3.551408052444458 -0.02070000022649765
vt 0.375 0.5
v 2.5016140937805176 -3.551408052444458 0.8630769848823547
vt 0.625 0.5
f 2/2/2 5/5/2 6/6/2
f 2/2/2 6/6/2 3/3/2
vn -1.0 0.0 0.0
v 2.5016140937805176 -3.6332969665527344 -0.02070000022649765
vt 0.375 0.75
v 2.5016140937805176 -3.6332969665527344 0.8630759716033936
vt 0.625 0.75
f 5/5/3 7/7/3 8/8/3
f 5/5/3 8/8/3 6/6/3
vn -0.0 -1.0 0.0
vt 0.375 1.0
vt 0.625 1.0
f 7/7/4 1/9/4 4/10/4
f 7/7/4 4/10/4 8/8/4
vt 0.125 0.5
vn -0.0 -0.0 -1.0
vt 0.125 0.75
f 2/11/5 1/12/5 7/7/5
f 2/11/5 7/7/5 5/5/5
vn -0.0 -0.0 1.0
vt 0.875 0.75
f 6/6/6 8/8/6 4/13/6
vt 0.875 0.5
f 6/6/6 4/13/6 3/14/6
