# OBJ file
o __dotobj_group__##0#1#0#-1.0
g __dotobj_group__##0#1#0#-1.0
o academy_gate.COLLIDER.SLIP_Cube.427##0#0#0#-1.0
g academy_gate.COLLIDER.SLIP_Cube.427##0#0#0#-1.0
v -2.7896029949188232 0.8330010175704956 1.9940060377120972
vt 0.5728870034217834 0.0
vn 0.9510999917984009 -0.3089999854564667 0.0
v -2.7706589698791504 0.8913030028343201 1.9940060377120972
vt 0.5728870034217834 0.25
v -2.7896029949188232 0.8330010175704956 2.3491930961608887
vt 0.625 0.25
f 1/1/1 2/2/1 3/3/1
vn 0.304500013589859 0.9372000098228455 0.17010000348091125
v -3.8721609115600586 1.2492029666900635 1.9940060377120972
vt 0.5728870034217834 0.5
v -3.891103982925415 1.1908999681472778 2.3491930961608887
vt 0.625 0.5
f 2/2/2 4/4/2 5/5/2
f 2/2/2 5/5/2 3/3/2
vn -0.9510999917984009 0.3089999854564667 0.0
v -3.891103982925415 1.1908999681472778 1.9940060377120972
vt 0.5728870034217834 0.75
vt 0.625 0.75
f 4/4/3 6/6/3 5/7/3
vn -0.3089999854564667 -0.9510999917984009 0.0
vt 0.5728870034217834 1.0
vt 0.625 1.0
f 6/6/4 1/8/4 3/9/4
f 6/6/4 3/9/4 5/7/4
v -2.7706589698791504 0.8913030028343201 0.6452620029449463
vt 0.125 0.5
vn -0.0 0.0 -1.0
v -2.7896029949188232 0.8330010175704956 0.6452620029449463
vt 0.125 0.75
v -3.891103982925415 1.1908999681472778 0.6452620029449463
vt 0.375 0.75
f 7/10/5 8/11/5 9/12/5
v -3.8721609115600586 1.2492029666900635 0.6452620029449463
vt 0.375 0.5
f 7/10/5 9/12/5 10/13/5
vt 0.375 1.0
f 9/12/4 8/14/4 1/8/4
f 9/12/4 1/8/4 6/6/4
f 10/13/3 9/12/3 6/6/3
f 10/13/3 6/6/3 4/4/3
vt 0.375 0.25
vn 0.3089999854564667 0.9510999917984009 0.0
f 7/15/6 10/13/6 4/4/6
f 7/15/6 4/4/6 2/2/6
vt 0.375 0.0
f 8/16/1 7/15/1 2/2/1
f 8/16/1 2/2/1 1/1/1
o Cube.196_Cube.428##0#0#0#1644052.0
g Cube.196_Cube.428##0#0#0#1644052.0
v -2.870836019515991 0.9286109805107117 0.2768299877643585
vn 0.890999972820282 0.45399999618530273 0.0
v -2.870836019515991 0.9286109805107117 1.3319430351257324
vt 0.625 0.0
v -2.8450140953063965 0.8779309988021851 1.3319430351257324
f 11/16/7 12/17/7 13/3/7
v -2.8450140953063965 0.8779309988021851 0.2768299877643585
f 11/16/7 13/3/7 14/15/7
vn 0.45399999618530273 -0.890999972820282 0.0
v -2.895693063735962 0.8521090149879456 1.3319430351257324
f 14/15/8 13/3/8 15/5/8
v -2.895693063735962 0.8521090149879456 0.2768299877643585
f 14/15/8 15/5/8 16/13/8
vn -0.890999972820282 -0.45399999618530273 0.0
v -2.9215149879455566 0.902787983417511 1.3319430351257324
f 16/13/9 15/5/9 17/7/9
v -2.9215149879455566 0.902787983417511 0.2768299877643585
f 16/13/9 17/7/9 18/12/9
vn -0.45399999618530273 0.890999972820282 0.0
f 18/12/10 17/7/10 12/9/10
f 18/12/10 12/9/10 11/14/10
f 14/10/5 16/13/5 18/12/5
f 14/10/5 18/12/5 11/11/5
vn 0.40380001068115234 -0.7925999760627747 -0.45680001378059387
v -2.821455955505371 0.8702769875526428 1.36604905128479
f 15/5/11 13/3/11 19/3/11
v -2.9033470153808594 0.8285509943962097 1.36604905128479
f 15/5/11 19/3/11 20/5/11
v -2.945072889328003 0.9104430079460144 1.36604905128479
vn -0.8496000170707703 -0.43290001153945923 0.30140000581741333
v -2.8832650184631348 0.8903599977493286 1.5114519596099854
f 21/7/12 20/5/12 22/7/12
vn -0.7925999760627747 -0.40380001068115234 -0.45680001378059387
f 17/7/13 15/5/13 20/5/13
f 17/7/13 20/5/13 21/7/13
vn 0.7925999760627747 0.40380001068115234 -0.45680001378059387
v -2.8631820678710938 0.9521690011024475 1.36604905128479
f 13/3/14 12/17/14 23/17/14
f 13/3/14 23/17/14 19/3/14
vn -0.40380001068115234 0.7925999760627747 -0.45680001378059387
f 12/9/15 17/7/15 21/7/15
f 12/9/15 21/7/15 23/9/15
vn 0.8496000170707703 0.43290001153945923 0.30140000581741333
f 19/3/16 23/17/16 22/3/16
vn -0.43290001153945923 0.8496000170707703 0.30140000581741333
f 23/9/17 21/7/17 22/9/17
vn 0.43290001153945923 -0.8496000170707703 0.30140000581741333
f 20/5/18 19/3/18 22/5/18
v -3.766803026199341 1.2197279930114746 0.2768299877643585
v -3.766803026199341 1.2197279930114746 1.3319430351257324
v -3.740981101989746 1.1690490245819092 1.3319430351257324
f 24/16/7 25/17/7 26/3/7
v -3.740981101989746 1.1690490245819092 0.2768299877643585
f 24/16/7 26/3/7 27/15/7
v -3.7916600704193115 1.1432260274887085 1.3319430351257324
f 27/15/8 26/3/8 28/5/8
v -3.7916600704193115 1.1432260274887085 0.2768299877643585
f 27/15/8 28/5/8 29/13/8
v -3.8174819946289062 1.1939059495925903 1.3319430351257324
f 29/13/9 28/5/9 30/7/9
v -3.8174819946289062 1.1939059495925903 0.2768299877643585
f 29/13/9 30/7/9 31/12/9
f 31/12/10 30/7/10 25/9/10
f 31/12/10 25/9/10 24/14/10
f 27/10/5 29/13/5 31/12/5
f 27/10/5 31/12/5 24/11/5
v -3.7174229621887207 1.1613940000534058 1.36604905128479
f 28/5/11 26/3/11 32/3/11
v -3.799314022064209 1.1196680068969727 1.36604905128479
f 28/5/11 32/3/11 33/5/11
v -3.8410398960113525 1.2015600204467773 1.36604905128479
v -3.7792320251464844 1.1814769506454468 1.5114519596099854
f 34/7/12 33/5/12 35/7/12
vn -0.7925999760627747 -0.40389999747276306 -0.45680001378059387
f 30/7/19 28/5/19 33/5/19
f 30/7/19 33/5/19 34/7/19
v -3.7591490745544434 1.2432860136032104 1.36604905128479
f 26/3/14 25/17/14 36/17/14
f 26/3/14 36/17/14 32/3/14
f 25/9/15 30/7/15 34/7/15
f 25/9/15 34/7/15 36/9/15
f 32/3/16 36/17/16 35/3/16
f 36/9/17 34/7/17 35/9/17
f 33/5/18 32/3/18 35/5/18
v -3.6296119689941406 1.1751519441604614 0.2774069905281067
v -3.6296119689941406 1.1751519441604614 1.4458249807357788
v -3.603790044784546 1.124472975730896 1.4458249807357788
f 37/16/7 38/17/7 39/3/7
v -3.603790044784546 1.124472975730896 0.2774069905281067
f 37/16/7 39/3/7 40/15/7
v -3.6544690132141113 1.0986499786376953 1.4458249807357788
f 40/15/8 39/3/8 41/5/8
v -3.6544690132141113 1.0986499786376953 0.2774069905281067
f 40/15/8 41/5/8 42/13/8
v -3.6802918910980225 1.1493300199508667 1.4458249807357788
f 42/13/9 41/5/9 43/7/9
v -3.6802918910980225 1.1493300199508667 0.2774069905281067
f 42/13/9 43/7/9 44/12/9
f 44/12/10 43/7/10 38/9/10
f 44/12/10 38/9/10 37/14/10
f 40/10/5 42/13/5 44/12/5
f 40/10/5 44/12/5 37/11/5
v -3.5802319049835205 1.1168179512023926 1.4799309968948364
f 41/5/11 39/3/11 45/3/11
v -3.662123918533325 1.0750919580459595 1.4799309968948364
f 41/5/11 45/3/11 46/5/11
v -3.703850030899048 1.1569839715957642 1.4799309968948364
v -3.642040967941284 1.1369010210037231 1.6253340244293213
f 47/7/12 46/5/12 48/7/12
f 43/7/13 41/5/13 46/5/13
f 43/7/13 46/5/13 47/7/13
v -3.621958017349243 1.1987099647521973 1.4799309968948364
f 39/3/14 38/17/14 49/17/14
f 39/3/14 49/17/14 45/3/14
f 38/9/15 43/7/15 47/7/15
f 38/9/15 47/7/15 49/9/15
f 45/3/16 49/17/16 48/3/16
f 49/9/17 47/7/17 48/9/17
f 46/5/18 45/3/18 48/5/18
v -3.0086450576782227 0.9733870029449463 0.2774069905281067
v -3.0086450576782227 0.9733870029449463 1.4458249807357788
v -2.9828219413757324 0.9227079749107361 1.4458249807357788
f 50/16/7 51/17/7 52/3/7
v -2.9828219413757324 0.9227079749107361 0.2774069905281067
f 50/16/7 52/3/7 53/15/7
v -3.0335021018981934 0.8968859910964966 1.4458249807357788
f 53/15/8 52/3/8 54/5/8
v -3.0335021018981934 0.8968859910964966 0.2774069905281067
f 53/15/8 54/5/8 55/13/8
v -3.059324026107788 0.9475650191307068 1.4458249807357788
f 55/13/9 54/5/9 56/7/9
v -3.059324026107788 0.9475650191307068 0.2774069905281067
f 55/13/9 56/7/9 57/12/9
f 57/12/10 56/7/10 51/9/10
f 57/12/10 51/9/10 50/14/10
f 53/10/5 55/13/5 57/12/5
f 53/10/5 57/12/5 50/11/5
v -2.9592649936676025 0.9150540232658386 1.4799309968948364
f 54/5/11 52/3/11 58/3/11
v -3.041156053543091 0.8733279705047607 1.4799309968948364
f 54/5/11 58/3/11 59/5/11
v -3.0828819274902344 0.9552189707756042 1.4799309968948364
v -3.02107310295105 0.9351369738578796 1.6253340244293213
f 60/7/12 59/5/12 61/7/12
f 56/7/13 54/5/13 59/5/13
f 56/7/13 59/5/13 60/7/13
v -3.0009899139404297 0.9969450235366821 1.4799309968948364
f 52/3/14 51/17/14 62/17/14
f 52/3/14 62/17/14 58/3/14
f 51/9/15 56/7/15 60/7/15
f 51/9/15 60/7/15 62/9/15
f 58/3/16 62/17/16 61/3/16
f 62/9/17 60/7/17 61/9/17
f 59/5/18 58/3/18 61/5/18
v -3.1530559062957764 1.0203089714050293 0.30285999178886414
v -3.1530559062957764 1.0203089714050293 1.6330980062484741
v -3.1272339820861816 0.9696300029754639 1.6330980062484741
f 63/16/7 64/17/7 65/3/7
v -3.1272339820861816 0.9696300029754639 0.30285999178886414
f 63/16/7 65/3/7 66/15/7
v -3.177912950515747 0.9438080191612244 1.6330980062484741
f 66/15/8 65/3/8 67/5/8
v -3.177912950515747 0.9438080191612244 0.30285999178886414
f 66/15/8 67/5/8 68/13/8
v -3.203735113143921 0.9944869875907898 1.6330980062484741
f 68/13/9 67/5/9 69/7/9
v -3.203735113143921 0.9944869875907898 0.30285999178886414
f 68/13/9 69/7/9 70/12/9
f 70/12/10 69/7/10 64/9/10
f 70/12/10 64/9/10 63/14/10
f 66/10/5 68/13/5 70/12/5
f 66/10/5 70/12/5 63/11/5
v -3.1036760807037354 0.9619759917259216 1.6672040224075317
f 67/5/11 65/3/11 71/3/11
v -3.1855669021606445 0.9202499985694885 1.6672040224075317
f 67/5/11 71/3/11 72/5/11
v -3.227293014526367 1.002140998840332 1.6672040224075317
v -3.1654839515686035 0.9820590019226074 1.8126070499420166
f 73/7/12 72/5/12 74/7/12
f 69/7/13 67/5/13 72/5/13
f 69/7/13 72/5/13 73/7/13
v -3.1454010009765625 1.0438669919967651 1.6672040224075317
f 65/3/14 64/17/14 75/17/14
f 65/3/14 75/17/14 71/3/14
f 64/9/15 69/7/15 73/7/15
f 64/9/15 73/7/15 75/9/15
f 71/3/16 75/17/16 74/3/16
f 75/9/17 73/7/17 74/9/17
f 72/5/18 71/3/18 74/5/18
v -3.492422103881836 1.1305760145187378 0.30285999178886414
v -3.492422103881836 1.1305760145187378 1.6330980062484741
v -3.466599941253662 1.0798970460891724 1.6330980062484741
f 76/16/7 77/17/7 78/3/7
v -3.466599941253662 1.0798970460891724 0.30285999178886414
f 76/16/7 78/3/7 79/15/7
v -3.5172789096832275 1.054075002670288 1.6330980062484741
f 79/15/8 78/3/8 80/5/8
v -3.5172789096832275 1.054075002670288 0.30285999178886414
f 79/15/8 80/5/8 81/13/8
v -3.5431010723114014 1.1047539710998535 1.6330980062484741
f 81/13/9 80/5/9 82/7/9
v -3.5431010723114014 1.1047539710998535 0.30285999178886414
f 81/13/9 82/7/9 83/12/9
f 83/12/10 82/7/10 77/9/10
f 83/12/10 77/9/10 76/14/10
f 79/10/5 81/13/5 83/12/5
f 79/10/5 83/12/5 76/11/5
v -3.443042039871216 1.072242021560669 1.6672040224075317
f 80/5/11 78/3/11 84/3/11
v -3.524933099746704 1.0305169820785522 1.6672040224075317
f 80/5/11 84/3/11 85/5/11
v -3.5666589736938477 1.1124080419540405 1.6672040224075317
v -3.504849910736084 1.09232497215271 1.8126070499420166
f 86/7/12 85/5/12 87/7/12
f 82/7/13 80/5/13 85/5/13
f 82/7/13 85/5/13 86/7/13
v -3.484766960144043 1.1541340351104736 1.6672040224075317
f 78/3/14 77/17/14 88/17/14
f 78/3/14 88/17/14 84/3/14
f 77/9/15 82/7/15 86/7/15
f 77/9/15 86/7/15 88/9/15
f 84/3/16 88/17/16 87/3/16
f 88/9/17 86/7/17 87/9/17
f 85/5/18 84/3/18 87/5/18
v -3.321536064147949 1.07505202293396 0.3085019886493683
v -3.321536064147949 1.07505202293396 1.7393879890441895
v -3.295712947845459 1.0243719816207886 1.7393879890441895
f 89/16/7 90/17/7 91/3/7
v -3.295712947845459 1.0243719816207886 0.3085019886493683
f 89/16/7 91/3/7 92/15/7
v -3.3463919162750244 0.9985499978065491 1.7393879890441895
f 92/15/8 91/3/8 93/5/8
v -3.3463919162750244 0.9985499978065491 0.3085019886493683
f 92/15/8 93/5/8 94/13/8
v -3.3722150325775146 1.0492290258407593 1.7393879890441895
f 94/13/9 93/5/9 95/7/9
v -3.3722150325775146 1.0492290258407593 0.3085019886493683
f 94/13/9 95/7/9 96/12/9
f 96/12/10 95/7/10 90/9/10
f 96/12/10 90/9/10 89/14/10
f 92/10/5 94/13/5 96/12/5
f 92/10/5 96/12/5 89/11/5
v -3.2721550464630127 1.0167180299758911 1.773494005203247
f 93/5/11 91/3/11 97/3/11
v -3.3540470600128174 0.9749919772148132 1.773494005203247
f 93/5/11 97/3/11 98/5/11
v -3.395772933959961 1.0568840503692627 1.773494005203247
v -3.3339641094207764 1.0368009805679321 1.918897032737732
f 99/7/12 98/5/12 100/7/12
f 95/7/13 93/5/13 98/5/13
f 95/7/13 98/5/13 99/7/13
v -3.3138809204101562 1.0986100435256958 1.773494005203247
f 91/3/14 90/17/14 101/17/14
f 91/3/14 101/17/14 97/3/14
vn -0.40389999747276306 0.7925999760627747 -0.45680001378059387
f 90/9/20 95/7/20 99/7/20
f 90/9/20 99/7/20 101/9/20
f 97/3/16 101/17/16 100/3/16
f 101/9/17 99/7/17 100/9/17
f 98/5/18 97/3/18 100/5/18
