# OBJ file
o __dotobj_group__##0#1#0#-1.0
g __dotobj_group__##0#1#0#-1.0
o barrel##0#0#0#6316142.0
g barrel##0#0#0#6316142.0
v 0.069022998213768 0.697484016418457 0.022007999941706657
vt 0.375 0.33037900924682617
vn 0.0 -1.0 -0.0
v -0.07536099851131439 0.697484016418457 0.022007999941706657
vt 0.375 0.41962099075317383
v -0.07536099851131439 0.697484016418457 0.008630000054836273
f 1/1/1 2/2/1 3/2/1
v 0.069022998213768 0.697484016418457 0.008630000054836273
f 1/1/1 3/2/1 4/1/1
v 0.069022998213768 0.697484016418457 0.5680739879608154
vt 0.625 0.33037900924682617
vn 0.707099974155426 -0.707099974155426 -0.0
v 0.19906599819660187 0.8275269865989685 0.5680739879608154
vt 0.625 0.16962099075317383
v 0.19906599819660187 0.8275269865989685 0.58713299036026
f 5/3/2 6/4/2 7/4/2
v 0.069022998213768 0.697484016418457 0.58713299036026
f 5/3/2 7/4/2 8/3/2
v 0.08250600099563599 0.6597110033035278 0.3229210078716278
vt 0.53125 0.33037900924682617
vn 0.7063999772071838 -0.7063999772071838 -0.04309999942779541
v 0.08164499700069427 0.66212397813797 0.26927000284194946
vt 0.46875 0.33037900924682617
v 0.23442600667476654 0.8149049878120422 0.26927000284194946
vt 0.46875 0.16962099075317383
f 9/5/3 10/6/3 11/7/3
v 0.23683899641036987 0.8140439987182617 0.3229210078716278
vt 0.53125 0.16962099075317383
f 9/5/3 11/7/3 12/8/3
v -0.08884400129318237 1.139726996421814 0.3229210078716278
vt 0.53125 0.830378994345665
vn -0.7063999772071838 0.7063999772071838 -0.04309999942779541
v -0.08798299729824066 1.137313961982727 0.26927000284194946
vt 0.46875 0.830378994345665
v -0.24076400697231293 0.9845330119132996 0.26927000284194946
vt 0.46875 0.6696209907531738
f 13/9/4 14/10/4 15/11/4
v -0.24317699670791626 0.9853940010070801 0.3229210078716278
vt 0.53125 0.6696209907531738
f 13/9/4 15/11/4 16/12/4
v 0.08164499700069427 1.137313961982727 0.26927000284194946
vt 0.46875 0.0
vn 0.7063999772071838 0.7063999772071838 -0.04309999942779541
v 0.08250600099563599 1.139726996421814 0.3229210078716278
vt 0.53125 0.0
v 0.23683899641036987 0.9853940010070801 0.3229210078716278
vt 0.53125 0.08037900924682617
f 17/13/5 18/14/5 19/15/5
v 0.23442600667476654 0.9845330119132996 0.26927000284194946
vt 0.46875 0.08037900924682617
f 17/13/5 19/15/5 20/16/5
v -0.24317699670791626 0.8140439987182617 0.3229210078716278
vt 0.53125 0.5803790092468262
vn -0.7063999772071838 -0.7063999772071838 -0.04309999942779541
v -0.24076400697231293 0.8149049878120422 0.26927000284194946
vt 0.46875 0.5803790092468262
v -0.08798299729824066 0.66212397813797 0.26927000284194946
vt 0.46875 0.41962099075317383
f 21/17/6 22/18/6 23/19/6
v -0.08884400129318237 0.6597110033035278 0.3229210078716278
vt 0.53125 0.41962099075317383
f 21/17/6 23/19/6 24/20/6
vn -0.9990000128746033 -0.0 -0.04490000009536743
f 21/17/7 16/12/7 15/11/7
f 21/17/7 15/11/7 22/18/7
vn 0.0 0.9990000128746033 -0.04490000009536743
vt 0.53125 0.9196209982037544
vt 0.46875 0.9196209982037544
f 13/9/8 18/21/8 17/22/8
f 13/9/8 17/22/8 14/10/8
vn 0.9990000128746033 -0.0 -0.04490000009536743
f 19/15/9 12/8/9 11/7/9
f 19/15/9 11/7/9 20/16/9
v 0.069022998213768 1.1019539833068848 0.5680739879608154
vt 0.625 0.9196209982037544
vn 0.0 1.0 -0.0
v -0.07536099851131439 1.1019539833068848 0.5680739879608154
vt 0.625 0.830378994345665
v -0.07536099851131439 1.1019539833068848 0.58713299036026
f 25/23/10 26/24/10 27/24/10
v 0.069022998213768 1.1019539833068848 0.58713299036026
f 25/23/10 27/24/10 28/23/10
v -0.20540399849414825 0.9719110131263733 0.5680739879608154
vt 0.625 0.6696209907531738
vn -1.0 -0.0 -0.0
v -0.20540399849414825 0.8275269865989685 0.5680739879608154
vt 0.625 0.5803790092468262
v -0.20540399849414825 0.8275269865989685 0.58713299036026
f 29/25/11 30/26/11 31/26/11
v -0.20540399849414825 0.9719110131263733 0.58713299036026
f 29/25/11 31/26/11 32/25/11
vn -0.707099974155426 0.707099974155426 -0.0
f 26/24/12 29/25/12 32/25/12
f 26/24/12 32/25/12 27/24/12
v -0.07536099851131439 0.697484016418457 0.5680739879608154
vt 0.625 0.41962099075317383
f 33/27/1 5/3/1 8/3/1
v -0.07536099851131439 0.697484016418457 0.58713299036026
f 33/27/1 8/3/1 34/27/1
v 0.19906599819660187 0.9719110131263733 0.5680739879608154
vt 0.625 0.08037900924682617
vn 0.707099974155426 0.707099974155426 -0.0
vt 0.625 0.0
f 35/28/13 25/29/13 28/29/13
v 0.19906599819660187 0.9719110131263733 0.58713299036026
f 35/28/13 28/29/13 36/28/13
vn -0.707099974155426 -0.707099974155426 -0.0
f 30/26/14 33/27/14 34/27/14
f 30/26/14 34/27/14 31/26/14
vn 1.0 -0.0 -0.0
f 6/4/15 35/28/15 36/28/15
f 6/4/15 36/28/15 7/4/15
v 0.19906599819660187 0.8275269865989685 0.022007999941706657
vt 0.375 0.16962099075317383
f 37/30/2 1/1/2 4/1/2
v 0.19906599819660187 0.8275269865989685 0.008630000054836273
f 37/30/2 4/1/2 38/30/2
v -0.07536099851131439 1.1019539833068848 0.022007999941706657
vt 0.375 0.830378994345665
v 0.069022998213768 1.1019539833068848 0.022007999941706657
vt 0.375 0.9196209982037544
v 0.069022998213768 1.1019539833068848 0.008630000054836273
f 39/31/10 40/32/10 41/32/10
v -0.07536099851131439 1.1019539833068848 0.008630000054836273
f 39/31/10 41/32/10 42/31/10
v -0.20540399849414825 0.9719110131263733 0.022007999941706657
vt 0.375 0.6696209907531738
f 43/33/12 39/31/12 42/31/12
v -0.20540399849414825 0.9719110131263733 0.008630000054836273
f 43/33/12 42/31/12 44/33/12
vt 0.375 0.0
v 0.19906599819660187 0.9719110131263733 0.022007999941706657
vt 0.375 0.08037900924682617
v 0.19906599819660187 0.9719110131263733 0.008630000054836273
f 40/34/13 45/35/13 46/35/13
f 40/34/13 46/35/13 41/34/13
v -0.20540399849414825 0.8275269865989685 0.022007999941706657
vt 0.375 0.5803790092468262
v -0.20540399849414825 0.8275269865989685 0.008630000054836273
f 2/2/14 47/36/14 48/36/14
f 2/2/14 48/36/14 3/2/14
f 45/35/15 37/30/15 38/30/15
f 45/35/15 38/30/15 46/35/15
f 47/36/11 43/33/11 44/33/11
f 47/36/11 44/33/11 48/36/11
v -0.216729998588562 0.8234840035438538 0.5026509761810303
vt 0.59375 0.5803790092468262
vn -0.6974999904632568 -0.6974999904632568 0.1639000028371811
v -0.22805599868297577 0.819441020488739 0.4372290074825287
vt 0.5625 0.5803790092468262
v -0.08344700187444687 0.6748319864273071 0.4372290074825287
vt 0.5625 0.41962099075317383
f 49/37/16 50/38/16 51/39/16
v -0.07940399646759033 0.6861580014228821 0.5026509761810303
vt 0.59375 0.41962099075317383
f 49/37/16 51/39/16 52/40/16
v -0.07940399646759033 1.1132800579071045 0.5026509761810303
vt 0.59375 0.830378994345665
vn -0.6974999904632568 0.6974999904632568 0.1639000028371811
v -0.08344700187444687 1.1246060132980347 0.4372290074825287
vt 0.5625 0.830378994345665
v -0.22805599868297577 0.9799969792366028 0.4372290074825287
vt 0.5625 0.6696209907531738
f 53/41/17 54/42/17 55/43/17
v -0.216729998588562 0.975953996181488 0.5026509761810303
vt 0.59375 0.6696209907531738
f 53/41/17 55/43/17 56/44/17
v 0.07306600362062454 0.6861580014228821 0.5026509761810303
vt 0.59375 0.33037900924682617
vn 0.6974999904632568 -0.6974999904632568 0.1639000028371811
v 0.07710900157690048 0.6748319864273071 0.4372290074825287
vt 0.5625 0.33037900924682617
v 0.22171799838542938 0.819441020488739 0.4372290074825287
vt 0.5625 0.16962099075317383
f 57/45/18 58/46/18 59/47/18
v 0.21039199829101562 0.8234840035438538 0.5026509761810303
vt 0.59375 0.16962099075317383
f 57/45/18 59/47/18 60/48/18
v 0.21039199829101562 0.975953996181488 0.08743099868297577
vt 0.40625 0.08037900924682617
vn 0.9853000044822693 -0.0 -0.17059999704360962
v 0.22171799838542938 0.9799969792366028 0.15285399556159973
vt 0.4375 0.08037900924682617
v 0.22171799838542938 0.819441020488739 0.15285399556159973
vt 0.4375 0.16962099075317383
f 61/49/19 62/50/19 63/51/19
v 0.21039199829101562 0.8234840035438538 0.08743099868297577
vt 0.40625 0.16962099075317383
f 61/49/19 63/51/19 64/52/19
v -0.07940399646759033 1.1132800579071045 0.08743099868297577
vt 0.40625 0.830378994345665
vn 0.0 0.9853000044822693 -0.17059999704360962
v -0.08344700187444687 1.1246060132980347 0.15285399556159973
vt 0.4375 0.830378994345665
v 0.07710900157690048 1.1246060132980347 0.15285399556159973
vt 0.4375 0.9196209982037544
f 65/53/20 66/54/20 67/55/20
v 0.07306600362062454 1.1132800579071045 0.08743099868297577
vt 0.40625 0.9196209982037544
f 65/53/20 67/55/20 68/56/20
v -0.216729998588562 0.8234840035438538 0.08743099868297577
vt 0.40625 0.5803790092468262
vn -0.9853000044822693 -0.0 -0.17059999704360962
v -0.22805599868297577 0.819441020488739 0.15285399556159973
vt 0.4375 0.5803790092468262
v -0.22805599868297577 0.9799969792366028 0.15285399556159973
vt 0.4375 0.6696209907531738
f 69/57/21 70/58/21 71/59/21
v -0.216729998588562 0.975953996181488 0.08743099868297577
vt 0.40625 0.6696209907531738
f 69/57/21 71/59/21 72/60/21
vt 0.40625 0.0
vn 0.6974999904632568 0.6974999904632568 -0.1639000028371811
vt 0.4375 0.0
f 68/61/22 67/62/22 62/50/22
f 68/61/22 62/50/22 61/49/22
v 0.07306600362062454 0.6861580014228821 0.08743099868297577
vt 0.40625 0.33037900924682617
vn 0.0 -0.9853000044822693 -0.17059999704360962
v 0.07710900157690048 0.6748319864273071 0.15285399556159973
vt 0.4375 0.33037900924682617
v -0.08344700187444687 0.6748319864273071 0.15285399556159973
vt 0.4375 0.41962099075317383
f 73/63/23 74/64/23 75/65/23
v -0.07940399646759033 0.6861580014228821 0.08743099868297577
vt 0.40625 0.41962099075317383
f 73/63/23 75/65/23 76/66/23
vn 0.0 -0.9853000044822693 0.17059999704360962
f 58/46/24 57/45/24 52/40/24
f 58/46/24 52/40/24 51/39/24
v 0.07710900157690048 1.1246060132980347 0.4372290074825287
vt 0.5625 0.0
vn 0.6974999904632568 0.6974999904632568 0.1639000028371811
v 0.07306600362062454 1.1132800579071045 0.5026509761810303
vt 0.59375 0.0
v 0.21039199829101562 0.975953996181488 0.5026509761810303
vt 0.59375 0.08037900924682617
f 77/67/25 78/68/25 79/69/25
v 0.22171799838542938 0.9799969792366028 0.4372290074825287
vt 0.5625 0.08037900924682617
f 77/67/25 79/69/25 80/70/25
vn -0.9853000044822693 -0.0 0.17059999704360962
f 50/38/26 49/37/26 56/44/26
f 50/38/26 56/44/26 55/43/26
vn 0.0 0.9853000044822693 0.17059999704360962
vt 0.59375 0.9196209982037544
f 54/42/27 53/41/27 78/71/27
vt 0.5625 0.9196209982037544
f 54/42/27 78/71/27 77/72/27
vn 0.9853000044822693 -0.0 0.17059999704360962
f 80/70/28 79/69/28 60/48/28
f 80/70/28 60/48/28 59/47/28
vn 0.6974999904632568 -0.6974999904632568 -0.1639000028371811
f 74/64/29 73/63/29 64/52/29
f 74/64/29 64/52/29 63/51/29
vn -0.6974999904632568 0.6974999904632568 -0.1639000028371811
f 66/54/30 65/53/30 72/60/30
f 66/54/30 72/60/30 71/59/30
vn -0.6974999904632568 -0.6974999904632568 -0.1639000028371811
f 70/58/31 69/57/31 76/66/31
f 70/58/31 76/66/31 75/65/31
vn 0.0 -0.9990000128746033 -0.04490000009536743
f 9/5/32 24/20/32 23/19/32
f 9/5/32 23/19/32 10/6/32
v -0.06528700143098831 0.7218040227890015 0.5719199776649475
vt 0.7116050124168396 0.5150319933891296
vn 0.375 0.375 0.8478000164031982
v -0.18108400702476501 0.8376010060310364 0.5719199776649475
vt 0.6400319933891296 0.5866059958934784
f 81/73/33 82/74/33 31/26/33
vt 0.7053790092468262 0.5
f 81/73/33 31/26/33 34/75/33
v 0.058949001133441925 1.0776339769363403 0.5719199776649475
vt 0.7883949875831604 0.7349680066108704
vn -0.375 -0.375 0.8478000164031982
v 0.17474600672721863 0.9618369936943054 0.5719199776649475
vt 0.8599680066108704 0.6633949875831604
vt 0.875 0.6696209907531738
f 83/76/34 84/77/34 36/78/34
vt 0.7946209907531738 0.75
f 83/76/34 36/78/34 28/79/34
v -0.18108400702476501 0.9618369936943054 0.5719199776649475
vt 0.6400319933891296 0.6633949875831604
vn 0.375 -0.375 0.8478000164031982
v -0.06528700143098831 1.0776339769363403 0.5719199776649475
vt 0.7116050124168396 0.7349680066108704
vt 0.7053790092468262 0.75
f 85/80/35 86/81/35 27/82/35
f 85/80/35 27/82/35 32/25/35
v 0.17474600672721863 0.8376010060310364 0.5719199776649475
vt 0.8599680066108704 0.5866059958934784
vn -0.375 0.375 0.8478000164031982
v 0.058949001133441925 0.7218040227890015 0.5719199776649475
vt 0.7883949875831604 0.5150319933891296
vt 0.7946209907531738 0.5
f 87/83/36 88/84/36 8/85/36
vt 0.875 0.5803790092468262
f 87/83/36 8/85/36 7/86/36
vn 0.0 0.5303000211715698 0.8478000164031982
f 88/84/37 81/73/37 34/75/37
f 88/84/37 34/75/37 8/85/37
vn 0.5303000211715698 -0.0 0.8478000164031982
f 82/74/38 85/80/38 32/25/38
f 82/74/38 32/25/38 31/26/38
vn -0.5303000211715698 -0.0 0.8478000164031982
f 84/77/39 87/83/39 7/86/39
f 84/77/39 7/86/39 36/78/39
vn 0.0 -0.5303000211715698 0.8478000164031982
f 86/81/40 83/76/40 28/79/40
f 86/81/40 28/79/40 27/82/40
o barrel##0#1#1#-1.0
g barrel##0#1#1#-1.0
f 69/57/31 47/36/31 2/2/31
f 69/57/31 2/2/31 76/66/31
f 78/68/25 25/29/25 35/28/25
f 78/68/25 35/28/25 79/69/25
f 65/53/30 39/31/30 43/33/30
f 65/53/30 43/33/30 72/60/30
f 73/63/29 1/1/29 37/30/29
f 73/63/29 37/30/29 64/52/29
vn 0.0 -0.0 1.0
f 82/74/41 81/73/41 88/84/41
f 82/74/41 88/84/41 87/83/41
f 82/74/41 87/83/41 84/77/41
f 82/74/41 84/77/41 83/76/41
f 82/74/41 83/76/41 86/81/41
f 82/74/41 86/81/41 85/80/41
vn 0.7014999985694885 0.7014999985694885 0.125900000333786
f 18/14/42 77/67/42 80/70/42
f 18/14/42 80/70/42 19/15/42
vn 0.7032999992370605 -0.7032999992370605 -0.10419999808073044
f 10/6/43 74/64/43 63/51/43
f 10/6/43 63/51/43 11/7/43
vn -0.7032999992370605 0.7032999992370605 -0.10419999808073044
f 14/10/44 66/54/44 71/59/44
f 14/10/44 71/59/44 15/11/44
vn -0.7032999992370605 -0.7032999992370605 -0.10419999808073044
f 22/18/45 70/58/45 75/65/45
f 22/18/45 75/65/45 23/19/45
f 5/3/18 57/45/18 60/48/18
f 5/3/18 60/48/18 6/4/18
f 26/24/17 53/41/17 56/44/17
f 26/24/17 56/44/17 29/25/17
f 30/26/16 49/37/16 52/40/16
f 30/26/16 52/40/16 33/27/16
f 40/34/22 68/61/22 61/49/22
f 40/34/22 61/49/22 45/35/22
vn -0.7014999985694885 -0.7014999985694885 0.125900000333786
f 50/38/46 21/17/46 24/20/46
f 50/38/46 24/20/46 51/39/46
vn -0.7014999985694885 0.7014999985694885 0.125900000333786
f 54/42/47 13/9/47 16/12/47
f 54/42/47 16/12/47 55/43/47
vn 0.7014999985694885 -0.7014999985694885 0.125900000333786
f 58/46/48 9/5/48 12/8/48
f 58/46/48 12/8/48 59/47/48
vn 0.7032999992370605 0.7032999992370605 -0.10419999808073044
f 67/62/49 17/13/49 20/16/49
f 67/62/49 20/16/49 62/50/49
o barrel##0#2#2#-1.0
g barrel##0#2#2#-1.0
f 79/69/28 35/28/28 6/4/28
f 79/69/28 6/4/28 60/48/28
f 53/41/27 26/24/27 25/23/27
f 53/41/27 25/23/27 78/71/27
f 49/37/26 30/26/26 29/25/26
f 49/37/26 29/25/26 56/44/26
f 57/45/24 5/3/24 33/27/24
f 57/45/24 33/27/24 52/40/24
vn 0.0 -0.9914000034332275 0.13109999895095825
f 9/5/50 58/46/50 51/39/50
f 9/5/50 51/39/50 24/20/50
vn -0.9914000034332275 -0.0 0.13109999895095825
f 21/17/51 50/38/51 55/43/51
f 21/17/51 55/43/51 16/12/51
vn 0.0 0.9914000034332275 0.13109999895095825
f 13/9/52 54/42/52 77/72/52
f 13/9/52 77/72/52 18/21/52
vn 0.9914000034332275 -0.0 0.13109999895095825
f 19/15/53 80/70/53 59/47/53
f 19/15/53 59/47/53 12/8/53
f 1/1/23 73/63/23 76/66/23
f 1/1/23 76/66/23 2/2/23
f 47/36/21 69/57/21 72/60/21
f 47/36/21 72/60/21 43/33/21
f 39/31/20 65/53/20 68/56/20
f 39/31/20 68/56/20 40/32/20
f 45/35/19 61/49/19 64/52/19
f 45/35/19 64/52/19 37/30/19
vn 0.9940999746322632 -0.0 -0.10849999636411667
f 62/50/54 20/16/54 11/7/54
f 62/50/54 11/7/54 63/51/54
vn 0.0 0.9940999746322632 -0.10849999636411667
f 66/54/55 14/10/55 17/22/55
f 66/54/55 17/22/55 67/55/55
vn -0.9940999746322632 -0.0 -0.10849999636411667
f 70/58/56 22/18/56 15/11/56
f 70/58/56 15/11/56 71/59/56
vn 0.0 -0.9940999746322632 -0.10849999636411667
f 74/64/57 10/6/57 23/19/57
f 74/64/57 23/19/57 75/65/57
o barrel.COLLIDER##0#1#0#-1.0
g barrel.COLLIDER##0#1#0#-1.0
v -0.09538000077009201 1.1308629512786865 0.009043999947607517
vt 0.375 0.8251329958438873
v -0.09538000077009201 1.1308629512786865 0.5819510221481323
vt 0.625 0.8251329958438873
v 0.08904200047254562 1.1308629512786865 0.5819510221481323
vt 0.625 0.9248669967055321
f 89/87/10 90/88/10 91/89/10
v 0.08904200047254562 1.1308629512786865 0.009043999947607517
vt 0.375 0.9248669967055321
f 89/87/10 91/89/10 92/90/10
v -0.2343129962682724 0.8075079917907715 0.009043999947607517
vt 0.375 0.5751329958438873
v -0.2343129962682724 0.8075079917907715 0.5819510221481323
vt 0.625 0.5751329958438873
v -0.2343129962682724 0.9919300079345703 0.5819510221481323
vt 0.625 0.6748670041561127
f 93/91/11 94/92/11 95/93/11
v -0.2343129962682724 0.9919300079345703 0.009043999947607517
vt 0.375 0.6748670041561127
f 93/91/11 95/93/11 96/94/11
v -0.09538000077009201 0.6685749888420105 0.5819510221481323
vt 0.7001330256462097 0.5
v 0.08904200047254562 0.6685749888420105 0.5819510221481323
vt 0.7998669743537903 0.5
f 94/92/41 97/95/41 98/96/41
v 0.227974995970726 0.8075079917907715 0.5819510221481323
vt 0.875 0.5751329958438873
f 94/92/41 98/96/41 99/97/41
v 0.227974995970726 0.9919300079345703 0.5819510221481323
vt 0.875 0.6748670041561127
f 94/92/41 99/97/41 100/98/41
vt 0.7998669743537903 0.75
f 94/92/41 100/98/41 91/99/41
vt 0.7001330256462097 0.75
f 94/92/41 91/99/41 90/100/41
f 94/92/41 90/100/41 95/93/41
v 0.227974995970726 0.9919300079345703 0.009043999947607517
vt 0.375 0.07513302564620972
vt 0.625 0.07513302564620972
vt 0.625 0.17486697435379028
f 101/101/15 100/102/15 99/103/15
v 0.227974995970726 0.8075079917907715 0.009043999947607517
vt 0.375 0.17486697435379028
f 101/101/15 99/103/15 102/104/15
v 0.08904200047254562 0.6685749888420105 0.009043999947607517
vt 0.375 0.3251330256462097
vt 0.625 0.3251330256462097
vt 0.625 0.4248669743537903
f 103/105/1 98/106/1 97/107/1
v -0.09538000077009201 0.6685749888420105 0.009043999947607517
vt 0.375 0.4248669743537903
f 103/105/1 97/107/1 104/108/1
f 92/34/13 91/29/13 100/102/13
f 92/34/13 100/102/13 101/101/13
f 98/106/2 103/105/2 102/104/2
f 98/106/2 102/104/2 99/103/2
f 94/92/14 93/91/14 104/108/14
f 94/92/14 104/108/14 97/107/14
f 90/88/12 89/87/12 96/94/12
f 90/88/12 96/94/12 95/93/12
vt 0.125 0.5751329958438873
vn 0.0 -0.0 -1.0
vt 0.20013299584388733 0.5
vt 0.29986700415611267 0.5
f 102/109/58 103/110/58 104/111/58
f 102/109/58 104/111/58 93/91/58
f 102/109/58 93/91/58 96/94/58
vt 0.29986700415611267 0.75
f 102/109/58 96/94/58 89/112/58
vt 0.20013299584388733 0.75
f 102/109/58 89/112/58 92/113/58
vt 0.125 0.6748670041561127
f 102/109/58 92/113/58 101/114/58
