# OBJ file
o __dotobj_group__##0#1#0#-1.0
g __dotobj_group__##0#1#0#-1.0
o Cube##0#1#0#-1.0
g Cube##0#1#0#-1.0
v 0.02881699986755848 0.09395900368690491 0.6392170190811157
vt 0.45357999205589294 0.16429001092910767
vn 0.9470000267028809 0.03880000114440918 0.3190000057220459
v 0.0028689999599009752 0.053507000207901 0.6436640024185181
vt 0.45357999205589294 0.25
vn 0.6657000184059143 -0.6446999907493591 0.3758000135421753
v 0.03983499854803085 -0.0029070000164210796 0.42932000756263733
vt 0.375 0.25
vn 0.6829000115394592 -0.6693999767303467 0.29260000586509705
f 1/1/1 2/2/2 3/3/3
v 0.0811619982123375 0.06152300164103508 0.42223700881004333
vt 0.375 0.125
vn 0.9674999713897705 0.028599999845027924 0.25119999051094055
f 1/1/1 3/3/3 4/4/4
v -0.03816999867558479 0.02814299985766411 0.6449859738349915
vt 0.45357999205589294 0.41429001092910767
vn -0.023800000548362732 -0.9150999784469604 0.4025999903678894
v -0.07876800000667572 0.053507000207901 0.6388329863548279
vt 0.45357999205589294 0.5
vn -0.7053999900817871 -0.6446999907493591 0.2946000099182129
v -0.09019400179386139 -0.0029070000164210796 0.4216249883174896
vt 0.375 0.5
vn -0.7125999927520752 -0.6693999767303467 0.20999999344348907
f 5/5/5 6/6/6 7/7/7
v -0.02553199976682663 -0.04330600053071976 0.431427001953125
vt 0.375 0.375
vn -0.019899999722838402 -0.9416000247001648 0.33629998564720154
f 5/5/5 7/7/7 8/8/8
v -0.10401000082492828 0.09395900368690491 0.6313560009002686
vt 0.45357999205589294 0.6642900109291077
vn -0.9779999852180481 0.03880000114440918 0.20509999990463257
v -0.07806199789047241 0.13440999388694763 0.6269090175628662
vt 0.45357999205589294 0.75
vn -0.6935999989509583 0.7142000198364258 0.09440000355243683
v -0.08906999975442886 0.12595200538635254 0.40263301134109497
vt 0.375 0.75
vn -0.7006000280380249 0.7135999798774719 0.006200000178068876
f 9/9/9 10/10/10 11/11/11
v -0.1303970068693161 0.06152300164103508 0.40971699357032776
vt 0.375 0.625
vn -0.9904000163078308 0.028599999845027924 0.13529999554157257
f 9/9/9 11/11/11 12/12/12
v -0.02370299957692623 0.16635100543498993 0.4005270004272461
vt 0.375 0.875
vn -0.003000000026077032 0.9987000226974487 0.0502999983727932
v 0.04095799848437309 0.12595200538635254 0.4103280007839203
vt 0.375 1.0
vn 0.6948999762535095 0.7135999798774719 0.08879999816417694
v 0.04448600113391876 0.10797499865293503 0.30648401379585266
vn 0.6951000094413757 0.7135000228881836 0.08749999850988388
f 13/13/13 14/14/14 15/14/15
v -0.01593399979174137 0.204026997089386 0.2692430019378662
vn -0.00419999985024333 0.9973999857902527 0.07180000096559525
f 13/13/13 15/14/15 16/13/16
v -0.0871950015425682 0.10119199752807617 0.681427001953125
vt 0.501891016960144 0.6884450018405914
vn -0.9057999849319458 0.06949999928474426 0.4180000126361847
v -0.04403800144791603 0.1100580021739006 0.7441350221633911
vt 0.625 0.75
vn -0.058400001376867294 0.1460999995470047 0.987500011920929
v -0.06894800066947937 0.12963899970054626 0.6782990097999573
vt 0.501891016960144 0.75
vn -0.6545000076293945 0.6927000284194946 0.3028999865055084
f 17/15/17 18/16/18 19/17/19
v -0.037021998316049576 0.1597750037908554 0.6255859732627869
vt 0.45357999205589294 0.9142900034785271
vn -0.007199999876320362 0.9926000237464905 0.12139999866485596
v 0.0035749999806284904 0.13440999388694763 0.6317399740219116
vt 0.45357999205589294 1.0
vn 0.6776000261306763 0.7142000198364258 0.17550000548362732
f 20/18/20 21/19/21 14/14/14
f 20/18/20 14/14/14 13/13/13
v -0.08140400052070618 -0.015713000670075417 0.31732800602912903
vn -0.7127000093460083 -0.669700026512146 0.20880000293254852
f 8/8/8 7/7/7 22/7/22
v -0.018736999481916428 -0.11737900227308273 0.31661298871040344
vn -0.0210999995470047 -0.9340999722480774 0.3564000129699707
f 8/8/8 22/7/22 23/8/23
v -0.08032499998807907 0.10797499865293503 0.29909801483154297
vn -0.7006000280380249 0.7135000228881836 0.004900000058114529
f 12/12/12 11/11/11 24/11/24
v -0.17949700355529785 0.043324001133441925 0.2833310067653656
vn -0.9872000217437744 0.031700000166893005 0.15639999508857727
f 12/12/12 24/11/24 25/12/25
v 0.043407000601291656 -0.015713000670075417 0.3247140049934387
vn 0.6830999851226807 -0.669700026512146 0.2913999855518341
f 4/4/4 3/3/3 26/3/26
v 0.1448259949684143 0.043324001133441925 0.30252501368522644
vn 0.9617999792098999 0.031700000166893005 0.2718000113964081
f 4/4/4 26/3/26 27/4/27
v -0.040894001722335815 0.05490700155496597 0.691012978553772
vt 0.501891016960144 0.43844497203826904
vn -0.03539999946951866 -0.800599992275238 0.5982000231742859
vt 0.625 0.5
v -0.06944400072097778 0.07274399697780609 0.6866850256919861
vt 0.501891016960144 0.5
vn -0.6654999852180481 -0.5645999908447266 0.48820000886917114
f 28/20/28 18/21/18 29/22/29
v 0.006213999819010496 0.10119199752807617 0.6869549751281738
vt 0.501891016960144 0.18844497203826904
vn 0.8501999974250793 0.06949999928474426 0.5218999981880188
vt 0.625 0.25
v -0.012032999657094479 0.07274399697780609 0.6900820136070251
vt 0.501891016960144 0.25
vn 0.6032999753952026 -0.5645999908447266 0.5633000135421753
f 30/23/30 18/24/18 31/25/31
v -0.04008699953556061 0.14747600257396698 0.6773689985275269
vt 0.501891016960144 0.9384450018405914
vn -0.02019999921321869 0.9395999908447266 0.3416999876499176
vt 0.625 1.0
v -0.011536999605596066 0.12963899970054626 0.6816970109939575
vt 0.501891016960144 1.0
vn 0.6141999959945679 0.6927000284194946 0.3779999911785126
f 32/26/32 18/27/18 33/28/33
f 28/20/28 29/22/29 6/6/6
f 28/20/28 6/6/6 5/5/5
f 32/26/32 33/28/33 21/19/21
f 32/26/32 21/19/21 20/18/20
f 30/23/30 31/25/31 2/2/2
f 30/23/30 2/2/2 1/1/1
f 17/15/17 19/17/19 10/10/10
f 17/15/17 10/10/10 9/9/9
o Cube##0#2#1#-1.0
g Cube##0#2#1#-1.0
v -0.0118429996073246 0.013100000098347664 0.01193500030785799
vn -0.4796999990940094 0.42080000042915344 -0.7699000239372253
v -0.05151199921965599 0.11224000155925751 0.6822569966316223
vn -0.5896999835968018 0.6430000066757202 0.4885999858379364
v -0.040362000465393066 0.11768899857997894 0.682021975517273
vt 0.25 0.75
vn -0.027899999171495438 0.8816999793052673 0.4708999991416931
f 34/11/34 35/11/35 36/29/36
v -0.000691999972332269 0.01854800060391426 0.011699999682605267
vn 0.04410000145435333 0.6650000214576721 -0.7455999851226807
f 34/11/34 36/29/36 37/29/37
v -0.0009800000116229057 -0.01436999998986721 0.016550999134778976
vt 0.25 0.5
vn 0.030899999663233757 -0.852400004863739 -0.5218999981880188
v -0.04064900055527687 0.08477000147104263 0.6868730187416077
vn -0.04170000180602074 -0.7077999711036682 0.7052000164985657
v -0.05170400068163872 0.09024500101804733 0.6854990124702454
vn -0.599399983882904 -0.46459999680519104 0.6517999768257141
f 38/30/38 39/30/39 40/7/40
v -0.012033999897539616 -0.008895999751985073 0.015177000313997269
vn -0.4887999892234802 -0.6166999936103821 -0.6169999837875366
f 38/30/38 40/7/40 41/7/41
v -0.057114001363515854 0.10123000293970108 0.6834650039672852
vn -0.8367999792098999 0.08699999749660492 0.5406000018119812
f 41/7/41 40/7/40 42/12/42
v -0.017444999888539314 0.0020890000741928816 0.013143000192940235
vn -0.7281000018119812 -0.09369999915361404 -0.6790000200271606
f 41/7/41 42/12/42 43/12/43
v -0.02950900048017502 0.09024500101804733 0.6868129968643188
vt 0.125 0.5
vn 0.5182999968528748 -0.46459999680519104 0.7179999947547913
v -0.023896999657154083 0.10123000293970108 0.6854299902915955
vt 0.125 0.625
vn 0.7671999931335449 0.08699999749660492 0.6355000138282776
v -0.04060399904847145 0.10147400200366974 0.6860989928245544
vt 0.25 0.625
f 44/31/44 45/32/45 46/33/18
f 44/31/44 46/33/18 39/30/39
v 0.010351999662816525 0.013100000098347664 0.01324899960309267
vt 0.125 0.75
vn 0.5672000050544739 0.42080000042915344 -0.7080000042915344
v -0.02931799925863743 0.11224000155925751 0.6835709810256958
vn 0.527999997138977 0.6430000066757202 0.5547000169754028
f 47/34/46 48/34/47 45/32/45
v 0.015773000195622444 0.0020890000741928816 0.01510899979621172
vn 0.8030999898910522 -0.09369999915361404 -0.5884000062942505
f 47/34/46 45/32/45 49/32/48
v 0.010160000063478947 -0.008895999751985073 0.01649099960923195
vn 0.5580999851226807 -0.6166999936103821 -0.5551000237464905
f 50/31/49 44/31/44 39/30/39
f 50/31/49 39/30/39 38/30/38
f 37/29/37 36/29/36 48/34/47
f 37/29/37 48/34/47 47/34/46
f 49/32/48 45/32/45 44/31/44
f 49/32/48 44/31/44 50/31/49
v -0.0009340000106021762 0.0023330000694841146 0.015776999294757843
vn 0.058400001376867294 -0.1460999995470047 -0.987500011920929
f 51/33/50 43/12/43 34/11/34
f 51/33/50 34/11/34 37/29/37
f 49/32/48 51/33/50 37/29/37
f 49/32/48 37/29/37 47/34/46
f 50/31/49 38/30/38 51/33/50
f 50/31/49 51/33/50 49/32/48
f 38/30/38 41/7/41 43/12/43
f 38/30/38 43/12/43 51/33/50
f 39/30/39 46/33/18 42/12/42
f 39/30/39 42/12/42 40/7/40
f 46/33/18 36/29/36 35/11/35
f 46/33/18 35/11/35 42/12/42
f 43/12/43 42/12/42 35/11/35
f 43/12/43 35/11/35 34/11/34
f 45/32/45 48/34/47 36/29/36
f 45/32/45 36/29/36 46/33/18
o Cube##0#0#2#16448250.0
g Cube##0#0#2#16448250.0
vt 0.501891016960144 0.37689101696014404
f 31/35/31 18/21/18 28/20/28
vt 0.501891016960144 0.8768910020589828
f 19/36/19 18/27/18 32/26/32
f 3/3/3 8/8/8 23/8/23
f 3/3/3 23/8/23 26/3/26
vt 0.45357999205589294 0.8285800069570541
f 10/37/10 20/18/20 13/13/13
f 10/37/10 13/13/13 11/11/11
f 11/11/11 13/13/13 16/13/16
f 11/11/11 16/13/16 24/11/24
vt 0.45357999205589294 0.5785799920558929
f 6/38/6 9/9/9 12/12/12
f 6/38/6 12/12/12 7/7/7
vt 0.375 0.0
f 14/39/14 4/4/4 27/4/27
f 14/39/14 27/4/27 15/39/15
f 7/7/7 12/12/12 25/12/25
f 7/7/7 25/12/25 22/7/22
vt 0.45357999205589294 0.32858002185821533
f 2/40/2 5/5/5 8/8/8
f 2/40/2 8/8/8 3/3/3
vt 0.501891016960144 0.6268909871578217
f 29/41/29 18/16/18 17/15/17
vt 0.501891016960144 0.12689101696014404
f 33/42/33 18/24/18 30/23/30
f 33/42/33 30/23/30 1/1/1
vt 0.45357999205589294 0.07858002185821533
f 33/42/33 1/1/1 21/43/21
f 31/35/31 28/20/28 5/5/5
f 31/35/31 5/5/5 2/40/2
f 29/41/29 17/15/17 9/9/9
f 29/41/29 9/9/9 6/38/6
f 19/36/19 32/26/32 20/18/20
f 19/36/19 20/18/20 10/37/10
f 1/1/1 4/4/4 14/39/14
f 1/1/1 14/39/14 21/43/21
o Cube##0#3#3#-1.0
g Cube##0#3#3#-1.0
v 0.031206000596284866 -0.08888199925422668 0.02160700038075447
vt 0.5 0.25
vn 0.10970000177621841 -0.4758000075817108 0.8726999759674072
v 0.0 0.0 0.05427300184965134
vn -0.07800000160932541 -0.07370000332593918 0.9941999912261963
v -0.10139100253582001 -0.004263000097125769 0.02253600023686886
vt 0.5 0.5
vn -0.4056999981403351 -0.0925000011920929 0.9093000292778015
f 52/44/51 53/21/52 54/45/53
v -0.02725199982523918 0.1143219992518425 0.020552000030875206
vt 0.5 0.75
vn -0.14229999482631683 0.39750000834465027 0.906499981880188
f 54/45/53 53/16/52 55/46/54
v 0.10227899998426437 9.600000339560211e-05 0.03215799853205681
vt 0.5 0.0651329755783081
vn 0.47769999504089355 -0.18389999866485596 0.8590999841690063
f 56/47/55 53/24/52 52/44/51
v -0.03763899952173233 0.19806300103664398 -0.016398999840021133
vn -0.2021999955177307 0.9745000004768372 -0.09719999879598618
v 0.09360499680042267 0.06133100017905235 0.03215799853205681
vt 0.5 0.9454709999263287
vn 0.34610000252723694 0.2831999957561493 0.8945000171661377
f 57/11/56 55/46/54 58/48/57
v 0.14722900092601776 0.08311200141906738 -0.016398999840021133
vt 0.375 0.9614400006830692
vn 0.8503000140190125 0.5200999975204468 -0.08049999922513962
f 57/11/56 58/48/57 59/49/58
vt 0.5317190289497375 1.0
f 55/46/54 53/50/52 58/48/57
v -0.173553004860878 -0.02051899954676628 -0.016398999840021133
vn -0.9704999923706055 -0.22920000553131104 -0.07419999688863754
f 60/7/59 54/45/53 55/46/54
f 60/7/59 55/46/54 57/11/56
v 0.04502800107002258 -0.15643300116062164 -0.016398999840021133
vn 0.23160000145435333 -0.9643999934196472 -0.12790000438690186
f 61/3/60 52/44/51 54/45/53
f 61/3/60 54/45/53 60/7/59
vt 0.5235030055046082 0.04700601100921631
vt 0.531719982624054 0.0634390115737915
f 56/47/55 58/51/57 53/52/52
vt 0.4116230010986328 0.0
vt 0.5 0.0
f 59/53/58 58/54/57 56/47/55
v 0.15590299665927887 0.02187800034880638 -0.016398999840021133
vt 0.375 0.0460590124130249
vn 0.9819999933242798 -0.14970000088214874 -0.1151999980211258
f 59/53/58 56/47/55 62/55/61
f 62/55/61 56/47/55 52/44/51
f 62/55/61 52/44/51 61/3/60
v 0.027393000200390816 0.025219999253749847 -0.07367900013923645
vn 0.06340000033378601 0.011900000274181366 -0.9979000091552734
f 57/11/56 59/49/58 63/11/62
f 60/7/59 57/11/56 63/7/62
f 62/55/61 61/3/60 63/55/62
f 61/3/60 60/7/59 63/3/62
f 59/53/58 62/55/61 63/53/62
o umbrella.COLLIDER.SLIP##0#0#0#-1.0
g umbrella.COLLIDER.SLIP##0#0#0#-1.0
v 0.0632070004940033 0.10926800221204758 0.006643000058829784
vn 1.0 -0.0 -0.0
v 0.0632070004940033 0.10926800221204758 0.5302619934082031
vt 0.625 0.0
v 0.0632070004940033 0.0113129997625947 0.5302619934082031
f 64/39/63 65/56/63 66/24/63
v 0.0632070004940033 0.0113129997625947 0.006643000058829784
f 64/39/63 66/24/63 67/3/63
v -0.024044999852776527 -0.04089999943971634 0.006643000058829784
vn -0.5134999752044678 -0.8580999970436096 -0.0
v -0.024044999852776527 -0.04089999943971634 0.7126010060310364
vt 0.625 0.375
v -0.11129699647426605 0.0113129997625947 0.5302619934082031
f 68/8/64 69/57/64 70/21/64
v -0.11129699647426605 0.0113129997625947 0.006643000058829784
f 68/8/64 70/21/64 71/7/64
vn -1.0 -0.0 -0.0
v -0.11129699647426605 0.10926800221204758 0.5302619934082031
f 71/7/65 70/21/65 72/16/65
v -0.11129699647426605 0.10926800221204758 0.006643000058829784
f 71/7/65 72/16/65 73/11/65
v -0.024044999852776527 0.16148099303245544 0.006643000058829784
vn 0.5134999752044678 0.8580999970436096 -0.0
v -0.024044999852776527 0.16148099303245544 0.7126010060310364
vt 0.625 0.875
f 74/13/66 75/58/66 65/27/66
f 74/13/66 65/27/66 64/14/66
vn 0.0 -0.0 -1.0
f 68/30/67 71/7/67 73/11/67
f 68/30/67 73/11/67 74/29/67
vt 0.75 0.5
vn 0.9020000100135803 -0.0 0.43160000443458557
vt 0.875 0.5
vt 0.875 0.75
f 69/59/68 66/60/68 65/61/68
vt 0.75 0.75
f 69/59/68 65/61/68 75/62/68
vn -0.9020000100135803 -0.0 0.43160000443458557
f 70/21/69 69/59/69 75/62/69
f 70/21/69 75/62/69 72/16/69
f 67/31/67 68/30/67 74/29/67
f 67/31/67 74/29/67 64/34/67
vn -0.5134999752044678 0.8580999970436096 -0.0
f 73/11/70 72/16/70 75/58/70
f 73/11/70 75/58/70 74/13/70
vn 0.5134999752044678 -0.8580999970436096 -0.0
f 67/3/71 66/24/71 69/57/71
f 67/3/71 69/57/71 68/8/71
