# OBJ file
o __dotobj_group__##0#1#0#-1.0
g __dotobj_group__##0#1#0#-1.0
o beam##0#0#0#5467373.0
g beam##0#0#0#5467373.0
v 1.4949779510498047 -0.02214300073683262 -0.027170000597834587
vt 0.5416669845581055 0.16666698455810547
vn 1.0 -0.0 -0.0
v 1.4949779510498047 -0.02214300073683262 0.016753999516367912
vt 0.625 0.16666698455810547
v 1.4949779510498047 -0.19359099864959717 0.016753999516367912
vt 0.625 0.25
f 1/1/1 2/2/1 3/3/1
v 1.4949779510498047 -0.19359099864959717 -0.027170000597834587
vt 0.5416669845581055 0.25
f 1/1/1 3/3/1 4/4/1
v -0.49832600355148315 -0.19359099864959717 -0.027170000597834587
vt 0.5416669845581055 0.41666698455810547
vn 0.0 -1.0 -0.0
v -0.49832600355148315 -0.19359099864959717 0.016753999516367912
vt 0.625 0.41666698455810547
v -1.4949779510498047 -0.19359099864959717 0.016753999516367912
vt 0.625 0.5
f 5/5/2 6/6/2 7/7/2
v -1.4949779510498047 -0.19359099864959717 -0.027170000597834587
vt 0.5416669845581055 0.5
f 5/5/2 7/7/2 8/8/2
v -1.4949779510498047 0.02214300073683262 -0.027170000597834587
vt 0.5416669845581055 0.6666670143604279
vn -1.0 -0.0 -0.0
v -1.4949779510498047 0.02214300073683262 0.016753999516367912
vt 0.625 0.6666670143604279
v -1.4949779510498047 0.19359099864959717 0.016753999516367912
vt 0.625 0.75
f 9/9/3 10/10/3 11/11/3
v -1.4949779510498047 0.19359099864959717 -0.027170000597834587
vt 0.5416669845581055 0.75
f 9/9/3 11/11/3 12/12/3
v 0.49832600355148315 0.19359099864959717 -0.027170000597834587
vt 0.5416669845581055 0.9166669994592667
vn 0.0 1.0 -0.0
v 0.49832600355148315 0.19359099864959717 0.016753999516367912
vt 0.625 0.9166669994592667
v 1.4949779510498047 0.19359099864959717 0.016753999516367912
vt 0.625 1.0
f 13/13/4 14/14/4 15/15/4
v 1.4949779510498047 0.19359099864959717 -0.027170000597834587
vt 0.5416669845581055 1.0
f 13/13/4 15/15/4 16/16/4
v -0.49832600355148315 0.02214300073683262 -0.344309002161026
vt 0.29166701436042786 0.6666670143604279
vn 0.0 -0.0 -1.0
v -1.4949779510498047 0.02214300073683262 -0.344309002161026
vt 0.375 0.6666670143604279
v -1.4949779510498047 0.19359099864959717 -0.344309002161026
vt 0.375 0.75
f 17/17/5 18/18/5 19/19/5
v -0.49832600355148315 0.19359099864959717 -0.344309002161026
vt 0.29166701436042786 0.75
f 17/17/5 19/19/5 20/20/5
v 0.49832600355148315 0.02214300073683262 0.016753999516367912
vt 0.7916669845581055 0.6666670143604279
vn 0.0 -0.0 1.0
v 1.4949779510498047 0.02214300073683262 0.016753999516367912
vt 0.875 0.6666670143604279
vt 0.875 0.75
f 21/21/6 22/22/6 15/23/6
vt 0.7916669845581055 0.75
f 21/21/6 15/23/6 14/24/6
v 0.49832600355148315 0.19359099864959717 -0.344309002161026
vt 0.375 0.9166669994592667
v 0.49832600355148315 0.19359099864959717 -0.3003840148448944
vt 0.45833298563957214 0.9166669994592667
v 1.4949779510498047 0.19359099864959717 -0.3003840148448944
vt 0.45833298563957214 1.0
f 23/25/4 24/26/4 25/27/4
v 1.4949779510498047 0.19359099864959717 -0.344309002161026
vt 0.375 1.0
f 23/25/4 25/27/4 26/28/4
v -1.4949779510498047 0.02214300073683262 -0.3003840148448944
vt 0.45833298563957214 0.6666670143604279
v -1.4949779510498047 0.19359099864959717 -0.3003840148448944
vt 0.45833298563957214 0.75
f 18/18/3 27/29/3 28/30/3
f 18/18/3 28/30/3 19/19/3
v -0.49832600355148315 -0.19359099864959717 -0.344309002161026
vt 0.375 0.41666698455810547
v -0.49832600355148315 -0.19359099864959717 -0.3003840148448944
vt 0.45833298563957214 0.41666698455810547
v -1.4949779510498047 -0.19359099864959717 -0.3003840148448944
vt 0.45833298563957214 0.5
f 29/31/2 30/32/2 31/33/2
v -1.4949779510498047 -0.19359099864959717 -0.344309002161026
vt 0.375 0.5
f 29/31/2 31/33/2 32/34/2
v 1.4949779510498047 -0.02214300073683262 -0.344309002161026
vt 0.375 0.16666698455810547
v 1.4949779510498047 -0.02214300073683262 -0.3003840148448944
vt 0.45833298563957214 0.16666698455810547
v 1.4949779510498047 -0.19359099864959717 -0.3003840148448944
vt 0.45833298563957214 0.25
f 33/35/1 34/36/1 35/37/1
v 1.4949779510498047 -0.19359099864959717 -0.344309002161026
vt 0.375 0.25
f 33/35/1 35/37/1 36/38/1
v 1.4949779510498047 0.02214300073683262 -0.3003840148448944
vt 0.45833298563957214 0.08333301544189453
v 1.4949779510498047 0.02214300073683262 -0.027170000597834587
vt 0.5416669845581055 0.08333301544189453
f 37/39/1 38/40/1 1/1/1
f 37/39/1 1/1/1 34/36/1
vt 0.375 0.0
vt 0.45833298563957214 0.0
f 26/41/1 25/42/1 37/39/1
v 1.4949779510498047 0.02214300073683262 -0.344309002161026
vt 0.375 0.08333301544189453
f 26/41/1 37/39/1 39/43/1
f 39/43/1 37/39/1 34/36/1
f 39/43/1 34/36/1 33/35/1
v 0.49832600355148315 -0.02214300073683262 -0.3003840148448944
vt 0.45833298563957214 0.3055559992790222
v 0.49832600355148315 -0.19359099864959717 -0.3003840148448944
vt 0.45833298563957214 0.33333301544189453
f 40/44/6 41/45/6 35/37/6
f 40/44/6 35/37/6 34/36/6
v -1.4949779510498047 -0.02214300073683262 -0.3003840148448944
vt 0.45833298563957214 0.5833329856395721
v -1.4949779510498047 -0.02214300073683262 -0.027170000597834587
vt 0.5416669845581055 0.5833329856395721
f 42/46/3 43/47/3 9/9/3
f 42/46/3 9/9/3 27/29/3
f 32/34/3 31/33/3 42/46/3
v -1.4949779510498047 -0.02214300073683262 -0.344309002161026
vt 0.375 0.5833329856395721
f 32/34/3 42/46/3 44/48/3
f 44/48/3 42/46/3 27/29/3
f 44/48/3 27/29/3 18/18/3
v 0.49832600355148315 -0.19359099864959717 0.016753999516367912
vt 0.7916669845581055 0.5
vt 0.875 0.5
vt 0.875 0.5833329856395721
f 45/49/6 3/50/6 2/51/6
v 0.49832600355148315 -0.02214300073683262 0.016753999516367912
vt 0.7916669845581055 0.5833329856395721
f 45/49/6 2/51/6 46/52/6
f 46/52/6 2/51/6 22/22/6
f 46/52/6 22/22/6 21/21/6
vt 0.29166701436042786 0.5
f 29/53/5 32/34/5 44/48/5
v -0.49832600355148315 -0.02214300073683262 -0.344309002161026
vt 0.29166701436042786 0.5833329856395721
f 29/53/5 44/48/5 47/54/5
f 47/54/5 44/48/5 18/18/5
f 47/54/5 18/18/5 17/17/5
v -1.4949779510498047 -0.02214300073683262 0.016753999516367912
vt 0.625 0.5833329856395721
f 8/8/3 7/7/3 48/55/3
f 8/8/3 48/55/3 43/47/3
f 43/47/3 48/55/3 10/10/3
f 43/47/3 10/10/3 9/9/3
vt 0.5416669845581055 0.0
vt 0.625 0.0
vt 0.625 0.08333301544189453
f 16/56/1 15/57/1 22/58/1
f 16/56/1 22/58/1 38/40/1
f 38/40/1 22/58/1 2/2/1
f 38/40/1 2/2/1 1/1/1
v 0.49832600355148315 -0.19359099864959717 -0.027170000597834587
vt 0.5416669845581055 0.33333301544189453
v 0.49832600355148315 -0.02214300073683262 -0.027170000597834587
vt 0.5416669845581055 0.3055559992790222
f 49/59/5 50/60/5 1/1/5
f 49/59/5 1/1/5 4/4/5
f 40/44/2 34/36/2 1/1/2
f 40/44/2 1/1/2 50/60/2
v -0.49832600355148315 0.19359099864959717 -0.027170000597834587
v -0.49832600355148315 0.02214300073683262 -0.027170000597834587
vt 0.5416669845581055 0.4722219705581665
f 51/8/5 52/61/5 9/9/5
f 51/8/5 9/9/5 12/12/5
v -0.49832600355148315 0.19359099864959717 -0.3003840148448944
f 53/33/6 28/30/6 27/29/6
v -0.49832600355148315 0.02214300073683262 -0.3003840148448944
vt 0.45833298563957214 0.4722219705581665
f 53/33/6 27/29/6 54/62/6
f 54/62/4 27/29/4 9/9/4
f 54/62/4 9/9/4 52/61/4
v 0.49832600355148315 0.02214300073683262 -0.3003840148448944
vt 0.45833298563957214 0.2777780294418335
v 0.49832600355148315 0.02214300073683262 -0.027170000597834587
vt 0.5416669845581055 0.2777780294418335
f 37/39/4 55/63/4 56/64/4
f 37/39/4 56/64/4 38/40/4
f 55/63/4 54/62/4 52/61/4
f 55/63/4 52/61/4 56/64/4
f 25/42/6 24/37/6 55/63/6
f 25/42/6 55/63/6 37/39/6
f 24/37/6 53/33/6 54/62/6
f 24/37/6 54/62/6 55/63/6
f 16/56/5 38/40/5 56/64/5
f 16/56/5 56/64/5 13/4/5
f 13/4/5 56/64/5 52/61/5
f 13/4/5 52/61/5 51/8/5
v -0.49832600355148315 -0.02214300073683262 -0.3003840148448944
vt 0.45833298563957214 0.4444440007209778
v -0.49832600355148315 -0.02214300073683262 -0.027170000597834587
vt 0.5416669845581055 0.4444440007209778
f 42/46/2 57/65/2 58/66/2
f 42/46/2 58/66/2 43/47/2
f 57/65/2 40/44/2 50/60/2
f 57/65/2 50/60/2 58/66/2
f 8/8/5 43/47/5 58/66/5
f 8/8/5 58/66/5 5/5/5
f 5/5/5 58/66/5 50/60/5
f 5/5/5 50/60/5 49/59/5
vt 0.125 0.5833329856395721
v 0.49832600355148315 -0.02214300073683262 -0.344309002161026
vt 0.20833300054073334 0.5833329856395721
v 0.49832600355148315 0.02214300073683262 -0.344309002161026
vt 0.20833300054073334 0.6666670143604279
f 33/67/5 59/68/5 60/69/5
vt 0.125 0.6666670143604279
f 33/67/5 60/69/5 39/70/5
f 59/68/5 47/54/5 17/17/5
f 59/68/5 17/17/5 60/69/5
vt 0.125 0.5
v 0.49832600355148315 -0.19359099864959717 -0.344309002161026
vt 0.20833300054073334 0.5
f 36/71/5 61/72/5 59/68/5
f 36/71/5 59/68/5 33/67/5
f 61/72/5 29/53/5 47/54/5
f 61/72/5 47/54/5 59/68/5
v -0.49832600355148315 -0.02214300073683262 0.016753999516367912
vt 0.7083330154418945 0.5833329856395721
v -0.49832600355148315 0.02214300073683262 0.016753999516367912
vt 0.7083330154418945 0.6666670143604279
f 48/55/6 62/73/6 63/74/6
f 48/55/6 63/74/6 10/10/6
f 62/73/6 46/52/6 21/21/6
f 62/73/6 21/21/6 63/74/6
vt 0.7083330154418945 0.5
f 7/7/6 6/75/6 62/73/6
f 7/7/6 62/73/6 48/55/6
f 6/75/6 45/49/6 46/52/6
f 6/75/6 46/52/6 62/73/6
f 42/46/6 31/33/6 30/32/6
f 42/46/6 30/32/6 57/65/6
f 57/65/6 30/32/6 41/45/6
f 57/65/6 41/45/6 40/44/6
f 36/38/2 35/37/2 41/45/2
vt 0.375 0.33333301544189453
f 36/38/2 41/45/2 61/76/2
f 61/76/2 41/45/2 30/32/2
f 61/76/2 30/32/2 29/31/2
vt 0.45833298563957214 0.8333330005407333
f 19/19/4 28/30/4 53/77/4
vt 0.375 0.8333330005407333
f 19/19/4 53/77/4 20/78/4
f 20/78/4 53/77/4 24/26/4
f 20/78/4 24/26/4 23/25/4
v -0.49832600355148315 0.19359099864959717 0.016753999516367912
vt 0.7083330154418945 0.75
f 10/10/6 63/74/6 64/79/6
f 10/10/6 64/79/6 11/11/6
f 63/74/6 21/21/6 14/24/6
f 63/74/6 14/24/6 64/79/6
vt 0.20833300054073334 0.75
f 39/70/5 60/69/5 23/80/5
vt 0.125 0.75
f 39/70/5 23/80/5 26/81/5
f 60/69/5 17/17/5 20/20/5
f 60/69/5 20/20/5 23/80/5
vt 0.625 0.8333330005407333
f 12/12/4 11/11/4 64/82/4
vt 0.5416669845581055 0.8333330005407333
f 12/12/4 64/82/4 51/83/4
f 51/83/4 64/82/4 14/14/4
f 51/83/4 14/14/4 13/13/4
vt 0.625 0.33333301544189453
f 4/4/2 3/3/2 45/84/2
f 4/4/2 45/84/2 49/59/2
f 49/59/2 45/84/2 6/6/2
f 49/59/2 6/6/2 5/5/2
o beam.COLLIDER##0#1#0#-1.0
g beam.COLLIDER##0#1#0#-1.0
v 1.5663559436798096 -0.0 -0.3663659989833832
v 1.5663559436798096 0.0 0.016753999516367912
v 1.5663559436798096 -0.19359099864959717 0.016753999516367912
f 65/1/1 66/2/1 67/3/1
v 1.5663559436798096 -0.19359099864959717 -0.3663659989833832
f 65/1/1 67/3/1 68/4/1
v -1.5663559436798096 -0.19359099864959717 0.016753999516367912
f 68/4/2 67/3/2 69/7/2
v -1.5663559436798096 -0.19359099864959717 -0.3663659989833832
f 68/4/2 69/7/2 70/8/2
v -1.5663559436798096 0.0 -0.3663659989833832
v -1.5663559436798096 0.0 0.016753999516367912
v -1.5663559436798096 0.19359099864959717 0.016753999516367912
f 71/9/3 72/10/3 73/11/3
v -1.5663559436798096 0.19359099864959717 -0.3663659989833832
f 71/9/3 73/11/3 74/12/3
v 1.5663559436798096 0.19359099864959717 0.016753999516367912
f 74/12/4 73/11/4 75/15/4
v 1.5663559436798096 0.19359099864959717 -0.3663659989833832
f 74/12/4 75/15/4 76/16/4
f 72/10/6 66/22/6 75/23/6
f 72/10/6 75/23/6 73/11/6
f 69/7/6 67/50/6 66/51/6
f 69/7/6 66/51/6 72/55/6
f 70/8/3 69/7/3 72/55/3
f 70/8/3 72/55/3 71/47/3
f 76/56/1 75/57/1 66/58/1
f 76/56/1 66/58/1 65/40/1
f 70/8/5 71/47/5 65/1/5
f 70/8/5 65/1/5 68/4/5
f 76/56/5 65/40/5 71/9/5
f 76/56/5 71/9/5 74/12/5
