# OBJ file
o __dotobj_group__##0#1#0#-1.0
g __dotobj_group__##0#1#0#-1.0
o beam##0#0#0#5467373.0
g beam##0#0#0#5467373.0
v 1.4949779510498047 -0.02214300073683262 -0.027170000597834587
vt 0.5416669845581055 0.16666698455810547
vn 1.0 -0.0 -0.0
v 1.4949779510498047 -0.02214300073683262 0.016753999516367912
vt 0.625 0.16666698455810547
v 1.4949779510498047 -0.19359099864959717 0.016753999516367912
vt 0.625 0.25
f 1/1/1 2/2/1 3/3/1
v 1.4949779510498047 -0.19359099864959717 -0.027170000597834587
vt 0.5416669845581055 0.25
f 1/1/1 3/3/1 4/4/1
v -0.49832600355148315 -0.19359099864959717 -0.027170000597834587
vt 0.5416669845581055 0.41666698455810547
vn 0.0 -1.0 -0.0
v -0.49832600355148315 -0.19359099864959717 0.016753999516367912
vt 0.625 0.41666698455810547
v -1.4949779510498047 -0.19359099864959717 0.016753999516367912
vt 0.625 0.5
f 5/5/2 6/6/2 7/7/2
v -1.4949779510498047 -0.19359099864959717 -0.027170000597834587
vt 0.5416669845581055 0.5
f 5/5/2 7/7/2 8/8/2
v -1.4949779510498047 0.02214300073683262 -0.027170000597834587
vt 0.5416669845581055 0.6666670143604279
vn -1.0 -0.0 -0.0
v -1.4949779510498047 0.02214300073683262 0.016753999516367912
vt 0.625 0.6666670143604279
v -1.4949779510498047 0.19359099864959717 0.016753999516367912
vt 0.625 0.75
f 9/9/3 10/10/3 11/11/3
v -1.4949779510498047 0.19359099864959717 -0.027170000597834587
vt 0.5416669845581055 0.75
f 9/9/3 11/11/3 12/12/3
v 0.49832600355148315 0.19359099864959717 -0.027170000597834587
vt 0.5416669845581055 0.9166669994592667
vn 0.0 1.0 -0.0
v 0.49832600355148315 0.19359099864959717 0.016753999516367912
vt 0.625 0.9166669994592667
v 1.4949779510498047 0.19359099864959717 0.016753999516367912
vt 0.625 1.0
f 13/13/4 14/14/4 15/15/4
v 1.4949779510498047 0.19359099864959717 -0.027170000597834587
vt 0.5416669845581055 1.0
f 13/13/4 15/15/4 16/16/4
v -0.49832600355148315 0.02214300073683262 -0.344309002161026
vt 0.29166701436042786 0.6666670143604279
vn 0.0 -0.0 -1.0
v -1.4949779510498047 0.02214300073683262 -0.344309002161026
vt 0.375 0.6666670143604279
v -1.4949779510498047 0.19359099864959717 -0.344309002161026
vt 0.375 0.75
f 17/17/5 18/18/5 19/19/5
v -0.49832600355148315 0.19359099864959717 -0.344309002161026
vt 0.29166701436042786 0.75
f 17/17/5 19/19/5 20/20/5
v 0.49832600355148315 0.02214300073683262 0.016753999516367912
vt 0.7916669845581055 0.6666670143604279
vn 0.0 -0.0 1.0
v 1.4949779510498047 0.02214300073683262 0.016753999516367912
vt 0.875 0.6666670143604279
vt 0.875 0.75
f 21/21/6 22/22/6 15/23/6
vt 0.7916669845581055 0.75
f 21/21/6 15/23/6 14/24/6
v 0.49832600355148315 0.19359099864959717 -0.344309002161026
vt 0.375 0.9166669994592667
v 0.49832600355148315 0.19359099864959717 -0.3003840148448944
vt 0.45833298563957214 0.9166669994592667
v 1.4949779510498047 0.19359099864959717 -0.3003840148448944
vt 0.45833298563957214 1.0
f 23/25/4 24/26/4 25/27/4
v 1.4949779510498047 0.19359099864959717 -0.344309002161026
vt 0.375 1.0
f 23/25/4 25/27/4 26/28/4
v -1.4949779510498047 0.02214300073683262 -0.3003840148448944
vt 0.45833298563957214 0.6666670143604279
v -1.4949779510498047 0.19359099864959717 -0.3003840148448944
vt 0.45833298563957214 0.75
f 18/18/3 27/29/3 28/30/3
f 18/18/3 28/30/3 19/19/3
v -0.49832600355148315 -0.19359099864959717 -0.344309002161026
vt 0.375 0.41666698455810547
v -0.49832600355148315 -0.19359099864959717 -0.3003840148448944
vt 0.45833298563957214 0.41666698455810547
v -1.4949779510498047 -0.19359099864959717 -0.3003840148448944
vt 0.45833298563957214 0.5
f 29/31/2 30/32/2 31/33/2
v -1.4949779510498047 -0.19359099864959717 -0.344309002161026
vt 0.375 0.5
f 29/31/2 31/33/2 32/34/2
v 1.4949779510498047 -0.02214300073683262 -0.344309002161026
vt 0.375 0.16666698455810547
v 1.4949779510498047 -0.02214300073683262 -0.3003840148448944
vt 0.45833298563957214 0.16666698455810547
v 1.4949779510498047 -0.19359099864959717 -0.3003840148448944
vt 0.45833298563957214 0.25
f 33/35/1 34/36/1 35/37/1
v 1.4949779510498047 -0.19359099864959717 -0.344309002161026
vt 0.375 0.25
f 33/35/1 35/37/1 36/38/1
v 1.4949779510498047 0.02214300073683262 -0.3003840148448944
vt 0.45833298563957214 0.08333301544189453
v 1.4949779510498047 0.02214300073683262 -0.027170000597834587
vt 0.5416669845581055 0.08333301544189453
f 37/39/1 38/40/1 1/1/1
f 37/39/1 1/1/1 34/36/1
vt 0.375 0.0
vt 0.45833298563957214 0.0
f 26/41/1 25/42/1 37/39/1
v 1.4949779510498047 0.02214300073683262 -0.344309002161026
vt 0.375 0.08333301544189453
f 26/41/1 37/39/1 39/43/1
f 39/43/1 37/39/1 34/36/1
f 39/43/1 34/36/1 33/35/1
v 0.49832600355148315 -0.02214300073683262 -0.3003840148448944
vt 0.45833298563957214 0.3055559992790222
v 0.49832600355148315 -0.19359099864959717 -0.3003840148448944
vt 0.45833298563957214 0.33333301544189453
f 40/44/6 41/45/6 35/37/6
f 40/44/6 35/37/6 34/36/6
v -1.4949779510498047 -0.02214300073683262 -0.3003840148448944
vt 0.45833298563957214 0.5833329856395721
v -1.4949779510498047 -0.02214300073683262 -0.027170000597834587
vt 0.5416669845581055 0.5833329856395721
f 42/46/3 43/47/3 9/9/3
f 42/46/3 9/9/3 27/29/3
f 32/34/3 31/33/3 42/46/3
v -1.4949779510498047 -0.02214300073683262 -0.344309002161026
vt 0.375 0.5833329856395721
f 32/34/3 42/46/3 44/48/3
f 44/48/3 42/46/3 27/29/3
f 44/48/3 27/29/3 18/18/3
v 0.49832600355148315 -0.19359099864959717 0.016753999516367912
vt 0.7916669845581055 0.5
vt 0.875 0.5
vt 0.875 0.5833329856395721
f 45/49/6 3/50/6 2/51/6
v 0.49832600355148315 -0.02214300073683262 0.016753999516367912
vt 0.7916669845581055 0.5833329856395721
f 45/49/6 2/51/6 46/52/6
f 46/52/6 2/51/6 22/22/6
f 46/52/6 22/22/6 21/21/6
vt 0.29166701436042786 0.5
f 29/53/5 32/34/5 44/48/5
v -0.49832600355148315 -0.02214300073683262 -0.344309002161026
vt 0.29166701436042786 0.5833329856395721
f 29/53/5 44/48/5 47/54/5
f 47/54/5 44/48/5 18/18/5
f 47/54/5 18/18/5 17/17/5
v -1.4949779510498047 -0.02214300073683262 0.016753999516367912
vt 0.625 0.5833329856395721
f 8/8/3 7/7/3 48/55/3
f 8/8/3 48/55/3 43/47/3
f 43/47/3 48/55/3 10/10/3
f 43/47/3 10/10/3 9/9/3
vt 0.5416669845581055 0.0
vt 0.625 0.0
vt 0.625 0.08333301544189453
f 16/56/1 15/57/1 22/58/1
f 16/56/1 22/58/1 38/40/1
f 38/40/1 22/58/1 2/2/1
f 38/40/1 2/2/1 1/1/1
v 0.49832600355148315 -0.19359099864959717 -0.027170000597834587
vt 0.5416669845581055 0.33333301544189453
v 0.49832600355148315 -0.02214300073683262 -0.027170000597834587
vt 0.5416669845581055 0.3055559992790222
f 49/59/5 50/60/5 1/1/5
f 49/59/5 1/1/5 4/4/5
f 40/44/2 34/36/2 1/1/2
f 40/44/2 1/1/2 50/60/2
v -0.49832600355148315 0.19359099864959717 -0.027170000597834587
v -0.49832600355148315 0.02214300073683262 -0.027170000597834587
vt 0.5416669845581055 0.4722219705581665
f 51/8/5 52/61/5 9/9/5
f 51/8/5 9/9/5 12/12/5
v -0.49832600355148315 0.19359099864959717 -0.3003840148448944
f 53/33/6 28/30/6 27/29/6
v -0.49832600355148315 0.02214300073683262 -0.3003840148448944
vt 0.45833298563957214 0.4722219705581665
f 53/33/6 27/29/6 54/62/6
f 54/62/4 27/29/4 9/9/4
f 54/62/4 9/9/4 52/61/4
v 0.49832600355148315 0.02214300073683262 -0.3003840148448944
vt 0.45833298563957214 0.2777780294418335
v 0.49832600355148315 0.02214300073683262 -0.027170000597834587
vt 0.5416669845581055 0.2777780294418335
f 37/39/4 55/63/4 56/64/4
f 37/39/4 56/64/4 38/40/4
f 55/63/4 54/62/4 52/61/4
f 55/63/4 52/61/4 56/64/4
f 25/42/6 24/37/6 55/63/6
f 25/42/6 55/63/6 37/39/6
f 24/37/6 53/33/6 54/62/6
f 24/37/6 54/62/6 55/63/6
f 16/56/5 38/40/5 56/64/5
f 16/56/5 56/64/5 13/4/5
f 13/4/5 56/64/5 52/61/5
f 13/4/5 52/61/5 51/8/5
v -0.49832600355148315 -0.02214300073683262 -0.3003840148448944
vt 0.45833298563957214 0.4444440007209778
v -0.49832600355148315 -0.02214300073683262 -0.027170000597834587
vt 0.5416669845581055 0.4444440007209778
f 42/46/2 57/65/2 58/66/2
f 42/46/2 58/66/2 43/47/2
f 57/65/2 40/44/2 50/60/2
f 57/65/2 50/60/2 58/66/2
f 8/8/5 43/47/5 58/66/5
f 8/8/5 58/66/5 5/5/5
f 5/5/5 58/66/5 50/60/5
f 5/5/5 50/60/5 49/59/5
vt 0.125 0.5833329856395721
v 0.49832600355148315 -0.02214300073683262 -0.344309002161026
vt 0.20833300054073334 0.5833329856395721
v 0.49832600355148315 0.02214300073683262 -0.344309002161026
vt 0.20833300054073334 0.6666670143604279
f 33/67/5 59/68/5 60/69/5
vt 0.125 0.6666670143604279
f 33/67/5 60/69/5 39/70/5
f 59/68/5 47/54/5 17/17/5
f 59/68/5 17/17/5 60/69/5
vt 0.125 0.5
v 0.49832600355148315 -0.19359099864959717 -0.344309002161026
vt 0.20833300054073334 0.5
f 36/71/5 61/72/5 59/68/5
f 36/71/5 59/68/5 33/67/5
f 61/72/5 29/53/5 47/54/5
f 61/72/5 47/54/5 59/68/5
v -0.49832600355148315 -0.02214300073683262 0.016753999516367912
vt 0.7083330154418945 0.5833329856395721
v -0.49832600355148315 0.02214300073683262 0.016753999516367912
vt 0.7083330154418945 0.6666670143604279
f 48/55/6 62/73/6 63/74/6
f 48/55/6 63/74/6 10/10/6
f 62/73/6 46/52/6 21/21/6
f 62/73/6 21/21/6 63/74/6
vt 0.7083330154418945 0.5
f 7/7/6 6/75/6 62/73/6
f 7/7/6 62/73/6 48/55/6
f 6/75/6 45/49/6 46/52/6
f 6/75/6 46/52/6 62/73/6
f 42/46/6 31/33/6 30/32/6
f 42/46/6 30/32/6 57/65/6
f 57/65/6 30/32/6 41/45/6
f 57/65/6 41/45/6 40/44/6
f 36/38/2 35/37/2 41/45/2
vt 0.375 0.33333301544189453
f 36/38/2 41/45/2 61/76/2
f 61/76/2 41/45/2 30/32/2
f 61/76/2 30/32/2 29/31/2
vt 0.45833298563957214 0.8333330005407333
f 19/19/4 28/30/4 53/77/4
vt 0.375 0.8333330005407333
f 19/19/4 53/77/4 20/78/4
f 20/78/4 53/77/4 24/26/4
f 20/78/4 24/26/4 23/25/4
v -0.49832600355148315 0.19359099864959717 0.016753999516367912
vt 0.7083330154418945 0.75
f 10/10/6 63/74/6 64/79/6
f 10/10/6 64/79/6 11/11/6
f 63/74/6 21/21/6 14/24/6
f 63/74/6 14/24/6 64/79/6
vt 0.20833300054073334 0.75
f 39/70/5 60/69/5 23/80/5
vt 0.125 0.75
f 39/70/5 23/80/5 26/81/5
f 60/69/5 17/17/5 20/20/5
f 60/69/5 20/20/5 23/80/5
vt 0.625 0.8333330005407333
f 12/12/4 11/11/4 64/82/4
vt 0.5416669845581055 0.8333330005407333
f 12/12/4 64/82/4 51/83/4
f 51/83/4 64/82/4 14/14/4
f 51/83/4 14/14/4 13/13/4
vt 0.625 0.33333301544189453
f 4/4/2 3/3/2 45/84/2
f 4/4/2 45/84/2 49/59/2
f 49/59/2 45/84/2 6/6/2
f 49/59/2 6/6/2 5/5/2
o beam.COLLIDER##0#1#0#-1.0
g beam.COLLIDER##0#1#0#-1.0
v 1.5663559436798096 -0.0 -0.3663659989833832
v 1.5663559436798096 0.0 0.016753999516367912
v 1.5663559436798096 -0.19359099864959717 0.016753999516367912
f 65/1/1 66/2/1 67/3/1
v 1.5663559436798096 -0.19359099864959717 -0.3663659989833832
f 65/1/1 67/3/1 68/4/1
v -1.5663559436798096 -0.19359099864959717 0.016753999516367912
f 68/4/2 67/3/2 69/7/2
v -1.5663559436798096 -0.19359099864959717 -0.3663659989833832
f 68/4/2 69/7/2 70/8/2
v -1.5663559436798096 0.0 -0.3663659989833832
v -1.5663559436798096 0.0 0.016753999516367912
v -1.5663559436798096 0.19359099864959717 0.016753999516367912
f 71/9/3 72/10/3 73/11/3
v -1.5663559436798096 0.19359099864959717 -0.3663659989833832
f 71/9/3 73/11/3 74/12/3
v 1.5663559436798096 0.19359099864959717 0.016753999516367912
f 74/12/4 73/11/4 75/15/4
v 1.5663559436798096 0.19359099864959717 -0.3663659989833832
f 74/12/4 75/15/4 76/16/4
f 72/10/6 66/22/6 75/23/6
f 72/10/6 75/23/6 73/11/6
f 69/7/6 67/50/6 66/51/6
f 69/7/6 66/51/6 72/55/6
f 70/8/3 69/7/3 72/55/3
f 70/8/3 72/55/3 71/47/3
f 76/56/1 75/57/1 66/58/1
f 76/56/1 66/58/1 65/40/1
f 70/8/5 71/47/5 65/1/5
f 70/8/5 65/1/5 68/4/5
f 76/56/5 65/40/5 71/9/5
f 76/56/5 71/9/5 74/12/5
o strap##0#0#0#2149869.0
g strap##0#0#0#2149869.0
v 0.7710379958152771 -0.1888740062713623 -0.011952999979257584
vt 0.6102989912033081 0.2352989912033081
vn 0.9025999903678894 0.1256999969482422 0.41179999709129333
v 0.3641990125179291 0.0 0.8395929932594299
vt 0.6102989912033081 0.125
v 0.33193299174308777 0.0 0.8928260207176208
vt 0.625 0.125
f 77/85/7 78/86/7 79/87/7
v 0.7710379958152771 -0.21404799818992615 0.01322100032120943
f 77/85/7 79/87/7 80/3/7
v 0.8151670098304749 -0.21404799818992615 -0.3626349866390228
v 0.7423449754714966 -0.21404799818992615 0.01322100032120943
f 81/38/2 80/3/2 82/7/2
v 0.7848330140113831 -0.21404799818992615 -0.3626349866390228
f 81/38/2 82/7/2 83/34/2
v 0.7423449754714966 0.1888740062713623 -0.011952999979257584
vt 0.6102989912033081 0.7352989912033081
vn -0.9013000130653381 -0.02070000022649765 -0.4325999915599823
v 0.3506459891796112 0.0 0.8395929932594299
vt 0.6102989912033081 0.625
v 0.319581001996994 0.0 0.877938985824585
vt 0.625 0.625
f 84/88/8 85/89/8 86/90/8
v 0.7423449754714966 0.21404799818992615 0.01322100032120943
f 84/88/8 86/90/8 87/11/8
v 0.7848330140113831 0.21404799818992615 -0.3626349866390228
v 0.7710379958152771 0.21404799818992615 0.01322100032120943
f 88/19/4 87/11/4 89/15/4
v 0.8151670098304749 0.21404799818992615 -0.3626349866390228
f 88/19/4 89/15/4 90/28/4
f 81/71/5 83/34/5 88/19/5
f 81/71/5 88/19/5 90/81/5
vn -0.07370000332593918 0.9764000177383423 0.20319999754428864
vt 0.875 0.625
f 86/90/9 79/91/9 89/23/9
f 86/90/9 89/23/9 87/11/9
v 0.8151670098304749 0.1888740062713623 -0.337460994720459
vt 0.3897010087966919 0.014701008796691895
v 0.8151670098304749 -0.1888740062713623 -0.337460994720459
vt 0.3897010087966919 0.2352989912033081
f 91/92/1 92/93/1 81/38/1
f 91/92/1 81/38/1 90/41/1
v 0.7710379958152771 0.1888740062713623 -0.011952999979257584
vt 0.6102989912033081 0.014701008796691895
vn 0.9922000169754028 -0.0 0.12489999830722809
f 93/94/10 91/92/10 90/41/10
f 93/94/10 90/41/10 89/57/10
vn 0.9025999903678894 -0.1256999969482422 0.41179999709129333
f 78/86/11 93/94/11 89/57/11
f 78/86/11 89/57/11 79/87/11
f 92/93/10 77/85/10 80/3/10
f 92/93/10 80/3/10 81/38/10
v 0.7423449754714966 -0.1888740062713623 -0.011952999979257584
vt 0.6102989912033081 0.5147010087966919
vn -0.9926999807357788 -0.0 -0.12030000239610672
v 0.7848330140113831 -0.1888740062713623 -0.337460994720459
vt 0.3897010087966919 0.5147010087966919
f 94/95/12 95/96/12 83/34/12
f 94/95/12 83/34/12 82/7/12
v 0.7848330140113831 0.1888740062713623 -0.337460994720459
vt 0.3897010087966919 0.7352989912033081
f 95/96/3 96/97/3 88/19/3
f 95/96/3 88/19/3 83/34/3
vn -0.9013000130653381 0.02070000022649765 -0.4325999915599823
f 85/89/13 94/95/13 82/7/13
f 85/89/13 82/7/13 86/90/13
f 96/97/12 84/88/12 87/11/12
f 96/97/12 87/11/12 88/19/12
vn -0.07370000332593918 -0.9764000177383423 0.20319999754428864
f 82/7/14 80/50/14 79/91/14
f 82/7/14 79/91/14 86/90/14
vn 0.0 0.9763000011444092 -0.21649999916553497
f 78/86/15 77/85/15 94/95/15
f 78/86/15 94/95/15 85/89/15
vn 0.0 -0.9763000011444092 -0.21649999916553497
f 85/89/16 84/88/16 93/94/16
f 85/89/16 93/94/16 78/86/16
v -0.7423459887504578 -0.1888740062713623 -0.011952999979257584
vn 0.9013000130653381 0.02070000022649765 -0.4325999915599823
v -0.3506459891796112 0.0 0.8395929932594299
v -0.319581001996994 0.0 0.877938985824585
f 97/85/17 98/86/17 99/87/17
v -0.7423459887504578 -0.21404799818992615 0.01322100032120943
f 97/85/17 99/87/17 100/3/17
v -0.7848330140113831 -0.21404799818992615 -0.3626349866390228
v -0.7710379958152771 -0.21404799818992615 0.01322100032120943
f 101/38/2 100/3/2 102/7/2
v -0.8151670098304749 -0.21404799818992615 -0.3626349866390228
f 101/38/2 102/7/2 103/34/2
v -0.7710379958152771 0.1888740062713623 -0.011952999979257584
vn -0.9025999903678894 -0.1256999969482422 0.41179999709129333
v -0.3641990125179291 0.0 0.8395929932594299
v -0.33193400502204895 0.0 0.8928260207176208
f 104/88/18 105/89/18 106/90/18
v -0.7710379958152771 0.21404799818992615 0.01322100032120943
f 104/88/18 106/90/18 107/11/18
v -0.8151670098304749 0.21404799818992615 -0.3626349866390228
v -0.7423459887504578 0.21404799818992615 0.01322100032120943
f 108/19/4 107/11/4 109/15/4
v -0.7848330140113831 0.21404799818992615 -0.3626349866390228
f 108/19/4 109/15/4 110/28/4
f 101/71/5 103/34/5 108/19/5
f 101/71/5 108/19/5 110/81/5
vn 0.07370000332593918 0.9764000177383423 0.20319999754428864
f 106/90/19 99/91/19 109/23/19
f 106/90/19 109/23/19 107/11/19
v -0.7848330140113831 0.1888740062713623 -0.337460994720459
v -0.7848330140113831 -0.1888740062713623 -0.337460994720459
f 111/92/1 112/93/1 101/38/1
f 111/92/1 101/38/1 110/41/1
v -0.7423459887504578 0.1888740062713623 -0.011952999979257584
vn 0.9926999807357788 -0.0 -0.12030000239610672
f 113/94/20 111/92/20 110/41/20
f 113/94/20 110/41/20 109/57/20
vn 0.9013000130653381 -0.02070000022649765 -0.4325999915599823
f 98/86/21 113/94/21 109/57/21
f 98/86/21 109/57/21 99/87/21
f 112/93/20 97/85/20 100/3/20
f 112/93/20 100/3/20 101/38/20
v -0.7710379958152771 -0.1888740062713623 -0.011952999979257584
vn -0.9922000169754028 -0.0 0.12489999830722809
v -0.8151670098304749 -0.1888740062713623 -0.337460994720459
f 114/95/22 115/96/22 103/34/22
f 114/95/22 103/34/22 102/7/22
v -0.8151670098304749 0.1888740062713623 -0.337460994720459
f 115/96/3 116/97/3 108/19/3
f 115/96/3 108/19/3 103/34/3
vn -0.9025999903678894 0.1256999969482422 0.41179999709129333
f 105/89/23 114/95/23 102/7/23
f 105/89/23 102/7/23 106/90/23
f 116/97/22 104/88/22 107/11/22
f 116/97/22 107/11/22 108/19/22
vn 0.07370000332593918 -0.9764000177383423 0.20319999754428864
f 102/7/24 100/50/24 99/91/24
f 102/7/24 99/91/24 106/90/24
f 98/86/15 97/85/15 114/95/15
f 98/86/15 114/95/15 105/89/15
f 105/89/16 104/88/16 113/94/16
f 105/89/16 113/94/16 98/86/16
v -0.035062000155448914 0.0 1.4729130268096924
f 106/90/2 99/91/2 117/91/2
v -0.036416999995708466 0.0 1.5029089450836182
f 106/90/2 117/91/2 118/90/2
v 0.036416999995708466 0.0 1.5029089450836182
f 86/90/2 79/91/2 119/91/2
v 0.035061001777648926 0.0 1.4729130268096924
f 86/90/2 119/91/2 120/90/2
f 119/91/2 118/90/2 117/91/2
f 119/91/2 117/91/2 120/90/2
o wrist##0#0#0#2149869.0
g wrist##0#0#0#2149869.0
v 0.07144200056791306 0.22692100703716278 2.011523962020874
vt 0.5362499952316284 0.0
v 0.07144200056791306 0.13677099347114563 2.172637939453125
v 0.07144200056791306 -0.13677099347114563 2.172637939453125
f 121/98/1 122/57/1 123/3/1
v 0.07144200056791306 -0.22692100703716278 2.011523962020874
vt 0.5362499952316284 0.25
f 121/98/1 123/3/1 124/99/1
vn 0.0 -0.8726999759674072 0.48829999566078186
v -0.07144200056791306 -0.13677099347114563 2.172637939453125
f 124/99/25 123/3/25 125/7/25
v -0.07144200056791306 -0.22692100703716278 2.011523962020874
vt 0.5362499952316284 0.5
f 124/99/25 125/7/25 126/100/25
v -0.07144200056791306 0.13677099347114563 2.172637939453125
f 126/100/3 125/7/3 127/11/3
v -0.07144200056791306 0.22692100703716278 2.011523962020874
vt 0.5362499952316284 0.75
f 126/100/3 127/11/3 128/101/3
vn 0.0 0.8726999759674072 0.48829999566078186
f 128/101/26 127/11/26 122/15/26
vt 0.5362499952316284 1.0
f 128/101/26 122/15/26 121/102/26
v 0.07144200056791306 -0.12702800333499908 1.7187960147857666
v -0.07144200056791306 -0.12702800333499908 1.7187960147857666
v -0.07144200056791306 0.12702800333499908 1.7187960147857666
f 129/71/5 130/34/5 131/19/5
v 0.07144200056791306 0.12702800333499908 1.7187960147857666
f 129/71/5 131/19/5 132/81/5
f 125/7/6 123/50/6 122/23/6
f 125/7/6 122/23/6 127/11/6
vn 0.0 0.946399986743927 -0.3230000138282776
f 131/19/27 128/101/27 121/102/27
f 131/19/27 121/102/27 132/28/27
f 130/34/3 126/100/3 128/101/3
f 130/34/3 128/101/3 131/19/3
vn 0.0 -0.946399986743927 -0.3230000138282776
f 129/38/28 124/99/28 126/100/28
f 129/38/28 126/100/28 130/34/28
f 132/41/1 121/98/1 124/99/1
f 132/41/1 124/99/1 129/38/1
o hook##0#0#0#12632256.0
g hook##0#0#0#12632256.0
v 0.037181999534368515 -0.06796400249004364 1.6961679458618164
vt 0.5970749855041504 0.21052199602127075
v 0.037181999534368515 -0.08636099845170975 1.749127984046936
vt 0.625 0.21052199602127075
v 0.037181999534368515 -0.126227006316185 1.7243119478225708
f 133/103/1 134/104/1 135/3/1
v 0.037181999534368515 -0.126227006316185 1.6768959760665894
vt 0.5970749855041504 0.25
f 133/103/1 135/3/1 136/105/1
v -0.037181999534368515 -0.126227006316185 1.7243119478225708
f 136/105/2 135/3/2 137/7/2
v -0.037181999534368515 -0.126227006316185 1.6768959760665894
vt 0.5970749855041504 0.5
f 136/105/2 137/7/2 138/106/2
v -0.037181999534368515 0.0 1.7379169464111328
vt 0.5970749855041504 0.625
v -0.037181999534368515 0.0 1.802886962890625
v -0.037181999534368515 0.126227006316185 1.7243119478225708
f 139/107/3 140/90/3 141/11/3
v -0.037181999534368515 0.126227006316185 1.6768959760665894
vt 0.5970739722251892 0.75
f 139/107/3 141/11/3 142/108/3
v 0.037181999534368515 0.126227006316185 1.7243119478225708
f 142/108/4 141/11/4 143/15/4
v 0.037181999534368515 0.126227006316185 1.6768959760665894
vt 0.5970739722251892 1.0
f 142/108/4 143/15/4 144/109/4
v 0.037181999534368515 0.0 1.3932839632034302
vt 0.125 0.625
vn 0.0 0.5285000205039978 -0.8489999771118164
v -0.037181999534368515 0.0 1.3932839632034302
vt 0.375 0.625
v -0.037181999534368515 0.126227006316185 1.4718589782714844
f 145/110/29 146/111/29 147/19/29
v 0.037181999534368515 0.126227006316185 1.4718589782714844
f 145/110/29 147/19/29 148/81/29
vn 0.0 0.5285000205039978 0.8489999771118164
v 0.037181999534368515 0.0 1.802886962890625
f 140/90/30 149/91/30 143/23/30
f 140/90/30 143/23/30 141/11/30
v -0.037181999534368515 -0.08636099845170975 1.749127984046936
vt 0.625 0.5394780039787292
vn 0.0 -0.5285000205039978 0.8489999771118164
vt 0.875 0.5394780039787292
f 150/112/31 134/113/31 149/91/31
f 150/112/31 149/91/31 140/90/31
v 0.037181999534368515 -0.08636099845170975 1.4470429420471191
vt 0.125 0.5394780039787292
vn 0.0 -0.5285000205039978 -0.8489999771118164
v -0.037181999534368515 -0.08636099845170975 1.4470429420471191
vt 0.375 0.5394780039787292
f 151/114/32 152/115/32 146/111/32
f 151/114/32 146/111/32 145/110/32
v -0.037181999534368515 -0.06796400249004364 1.6961679458618164
vt 0.5970739722251892 0.5394780039787292
f 153/116/3 150/112/3 140/90/3
f 153/116/3 140/90/3 139/107/3
vt 0.5970739722251892 0.0
f 144/117/1 143/57/1 149/87/1
v 0.037181999534368515 0.0 1.7379169464111328
vt 0.5970749855041504 0.125
f 144/117/1 149/87/1 154/118/1
v 0.037181999534368515 0.126227006316185 1.5437049865722656
vt 0.5 0.0
v 0.037181999534368515 0.0 1.476140022277832
vt 0.5 0.125
f 148/41/1 155/119/1 156/120/1
vt 0.375 0.125
f 148/41/1 156/120/1 145/121/1
v -0.037181999534368515 -0.06796400249004364 1.5437049865722656
vt 0.5 0.5394780039787292
v -0.037181999534368515 0.0 1.476140022277832
vt 0.5 0.625
f 152/115/3 157/122/3 158/123/3
f 152/115/3 158/123/3 146/111/3
v -0.037181999534368515 0.126227006316185 1.5437049865722656
vt 0.5 0.75
vt 0.5 1.0
f 147/19/4 159/124/4 155/125/4
f 147/19/4 155/125/4 148/28/4
f 146/111/3 158/123/3 159/124/3
f 146/111/3 159/124/3 147/19/3
v 0.037181999534368515 -0.126227006316185 1.4718589782714844
v 0.037181999534368515 -0.126227006316185 1.5120680332183838
vt 0.5 0.25
v -0.037181999534368515 -0.126227006316185 1.5120680332183838
vt 0.5 0.5
f 160/38/2 161/126/2 162/127/2
v -0.037181999534368515 -0.126227006316185 1.4718589782714844
f 160/38/2 162/127/2 163/34/2
vt 0.375 0.21052199602127075
v 0.037181999534368515 -0.06796400249004364 1.5437049865722656
vt 0.5 0.21052199602127075
f 151/128/1 164/129/1 161/126/1
f 151/128/1 161/126/1 160/38/1
f 145/121/1 156/120/1 164/129/1
f 145/121/1 164/129/1 151/128/1
f 163/34/3 162/127/3 157/122/3
f 163/34/3 157/122/3 152/115/3
f 138/106/3 137/7/3 150/112/3
f 138/106/3 150/112/3 153/116/3
f 160/71/32 163/34/32 152/115/32
f 160/71/32 152/115/32 151/114/32
f 137/7/31 135/50/31 134/113/31
f 137/7/31 134/113/31 150/112/31
f 154/118/1 149/87/1 134/104/1
f 154/118/1 134/104/1 133/103/1
vn 0.0 -0.4352000057697296 -0.9003000259399414
f 154/118/33 139/107/33 142/108/33
f 154/118/33 142/108/33 144/117/33
f 162/127/3 138/106/3 153/116/3
f 162/127/3 153/116/3 157/122/3
vn 0.0 0.5234000086784363 -0.8521000146865845
f 154/118/34 133/103/34 153/116/34
f 154/118/34 153/116/34 139/107/34
vn 0.0 -0.47189998626708984 0.881600022315979
f 156/120/35 155/119/35 159/124/35
f 156/120/35 159/124/35 158/123/35
vn 0.0 0.7049999833106995 0.7092000246047974
f 156/120/36 158/123/36 157/122/36
f 156/120/36 157/122/36 164/129/36
f 164/129/4 157/122/4 153/116/4
f 164/129/4 153/116/4 133/103/4
f 161/126/2 136/105/2 138/106/2
f 161/126/2 138/106/2 162/127/2
f 164/129/1 133/103/1 136/105/1
f 164/129/1 136/105/1 161/126/1
o cable##0#0#0#12632256.0
g cable##0#0#0#12632256.0
v 0.03650299832224846 0.03650299832224846 2.1472959518432617
v 0.03650299832224846 0.03650299832224846 7.180650234222412
v 0.03650299832224846 -0.03650299832224846 7.180650234222412
f 165/41/1 166/57/1 167/3/1
v 0.03650299832224846 -0.03650299832224846 2.1472959518432617
f 165/41/1 167/3/1 168/38/1
v -0.03650299832224846 -0.03650299832224846 7.180650234222412
f 168/38/2 167/3/2 169/7/2
v -0.03650299832224846 -0.03650299832224846 2.1472959518432617
f 168/38/2 169/7/2 170/34/2
v -0.03650299832224846 0.03650299832224846 7.180650234222412
f 170/34/3 169/7/3 171/11/3
v -0.03650299832224846 0.03650299832224846 2.1472959518432617
f 170/34/3 171/11/3 172/19/3
f 172/19/4 171/11/4 166/15/4
f 172/19/4 166/15/4 165/28/4
f 168/71/5 170/34/5 172/19/5
f 168/71/5 172/19/5 165/81/5
f 169/7/6 167/50/6 166/23/6
f 169/7/6 166/23/6 171/11/6
