# OBJ file
o __dotobj_group__##0#1#0#-1.0
g __dotobj_group__##0#1#0#-1.0
o billboard_pirate##0#1#0#-1.0
g billboard_pirate##0#1#0#-1.0
v 0.2766669988632202 0.036671001464128494 0.23381200432777405
vt 0.375 0.0
vn 1.0 -0.0 -0.008799999952316284
v 0.2799380123615265 0.040171001106500626 0.605472981929779
vt 0.625 0.0
v 0.2799380123615265 -0.02558699995279312 0.605472981929779
vt 0.625 0.25
f 1/1/1 2/2/1 3/3/1
v 0.2766669988632202 -0.02558699995279312 0.23381200432777405
vt 0.375 0.25
f 1/1/1 3/3/1 4/4/1
vn 0.0 -1.0 -0.0
v -0.2766669988632202 -0.02558699995279312 0.6023780107498169
vt 0.625 0.5
f 4/4/2 3/3/2 5/5/2
v -0.2799380123615265 -0.02558699995279312 0.23071600496768951
vt 0.375 0.5
f 4/4/2 5/5/2 6/6/2
vn -1.0 -0.0 0.008799999952316284
v -0.2766669988632202 0.036671001464128494 0.6023780107498169
vt 0.625 0.75
f 6/6/3 5/5/3 7/7/3
v -0.2799380123615265 0.040171001106500626 0.23071600496768951
vt 0.375 0.75
f 6/6/3 7/7/3 8/8/3
vt 0.125 0.75
vn 0.006399999838322401 0.9994000196456909 0.0333000011742115
v -0.23710399866104126 0.039041001349687576 0.26211899518966675
f 1/9/4 8/8/4 9/8/4
v 0.24025900661945343 0.03587299957871437 0.25900501012802124
f 1/9/4 9/8/4 10/9/4
vt 0.125 0.5
vn 0.00559999980032444 -0.0 -1.0
f 4/10/5 6/6/5 8/8/5
f 4/10/5 8/8/5 1/9/5
vn -0.00559999980032444 -0.0 1.0
vt 0.875 0.5
vt 0.875 0.75
f 5/5/6 3/11/6 2/12/6
f 5/5/6 2/12/6 7/7/6
v -0.24025900661945343 0.03587299957871437 0.5771840214729309
vn -0.006500000134110451 -0.0 -1.0
v 0.23710399866104126 0.039041001349687576 0.5740709900856018
v 0.23710399866104126 0.01644200086593628 0.5740709900856018
f 11/7/7 12/12/7 13/12/7
v -0.24025900661945343 0.016529999673366547 0.5771840214729309
f 11/7/7 13/12/7 14/7/7
vn -0.006399999838322401 0.9994000196456909 -0.0333000011742115
f 7/7/8 2/12/8 12/12/8
f 7/7/8 12/12/8 11/7/8
vn 0.023600000888109207 0.9997000098228455 0.009700000286102295
f 8/8/9 7/7/9 11/7/9
f 8/8/9 11/7/9 9/8/9
vn -0.023600000888109207 0.9997000098228455 -0.009700000286102295
f 2/2/10 1/1/10 10/1/10
f 2/2/10 10/1/10 12/2/10
vn 0.9998999834060669 -0.0 0.009999999776482582
f 9/8/11 11/7/11 14/7/11
v -0.23710399866104126 0.01644200086593628 0.26211899518966675
f 9/8/11 14/7/11 15/8/11
vn 0.006500000134110451 -0.0 1.0
f 10/9/12 9/8/12 15/8/12
v 0.24025900661945343 0.016529999673366547 0.25900501012802124
f 10/9/12 15/8/12 16/9/12
vn -0.9998999834060669 -0.0 -0.009999999776482582
f 12/2/13 10/1/13 16/1/13
f 12/2/13 16/1/13 13/2/13
v 0.3246209919452667 0.02061700075864792 0.0
vn 0.9891999959945679 -0.14669999480247498 -0.003800000064074993
v 0.3273490071296692 0.02263999916613102 0.6282179951667786
v 0.3194670081138611 -0.030522000044584274 0.6282179951667786
f 17/1/14 18/2/14 19/3/14
v 0.31744399666786194 -0.027793999761343002 -0.0
f 17/1/14 19/3/14 20/4/14
vn -0.14669999480247498 -0.9891999959945679 -0.003800000064074993
v 0.26630499958992004 -0.02263999916613102 0.6282179951667786
f 20/4/15 19/3/15 21/5/15
v 0.2690330147743225 -0.02061700075864792 -0.0
f 20/4/15 21/5/15 22/6/15
vn -0.9891999959945679 0.14669999480247498 -0.003800000064074993
v 0.27418699860572815 0.030522000044584274 0.6282179951667786
f 22/6/16 21/5/16 23/7/16
v 0.2762100100517273 0.027793999761343002 0.0
f 22/6/16 23/7/16 24/8/16
vn 0.14669999480247498 0.9891999959945679 -0.003800000064074993
vt 0.625 1.0
f 24/8/17 23/7/17 18/13/17
vt 0.375 1.0
f 24/8/17 18/13/17 17/14/17
vn 0.0 -0.0 -1.0
f 20/10/18 22/6/18 24/8/18
f 20/10/18 24/8/18 17/9/18
vn 0.0 -0.0 1.0
f 21/5/19 19/11/19 18/12/19
f 21/5/19 18/12/19 23/7/19
v -0.3246209919452667 0.02061700075864792 0.0
vn -0.9891999959945679 -0.14669999480247498 -0.003800000064074993
v -0.31744399666786194 -0.027793999761343002 -0.0
v -0.3194670081138611 -0.030522000044584274 0.6282179951667786
f 25/1/20 26/4/20 27/3/20
v -0.3273490071296692 0.02263999916613102 0.6282179951667786
f 25/1/20 27/3/20 28/2/20
vn 0.14669999480247498 -0.9891999959945679 -0.003800000064074993
v -0.2690330147743225 -0.02061700075864792 -0.0
v -0.26630499958992004 -0.02263999916613102 0.6282179951667786
f 26/4/21 29/6/21 30/5/21
f 26/4/21 30/5/21 27/3/21
vn 0.9891999959945679 0.14669999480247498 -0.003800000064074993
v -0.2762100100517273 0.027793999761343002 0.0
v -0.27418699860572815 0.030522000044584274 0.6282179951667786
f 29/6/22 31/8/22 32/7/22
f 29/6/22 32/7/22 30/5/22
vn -0.14669999480247498 0.9891999959945679 -0.003800000064074993
f 31/8/23 25/14/23 28/13/23
f 31/8/23 28/13/23 32/7/23
f 26/10/18 25/9/18 31/8/18
f 26/10/18 31/8/18 29/6/18
f 30/5/19 32/7/19 28/12/19
f 30/5/19 28/12/19 27/11/19
o billboard_pirate##0#2#1#-1.0
g billboard_pirate##0#2#1#-1.0
vn 0.0 1.0 -0.0
f 15/8/24 14/7/24 13/13/24
f 15/8/24 13/13/24 16/14/24
o billboard_pirate#billboard_pirate#100#0#2#-1.0
g billboard_pirate#billboard_pirate#100#0#2#-1.0
v 0.21144899725914001 0.022825000807642937 0.2813589870929718
vt 0.0 0.0
v 0.010487000457942486 0.022825000807642937 0.2813589870929718
vt 0.5 0.0
v 0.010487000457942486 0.022825000807642937 0.549714982509613
vt 0.5 1.0
f 33/15/24 34/16/24 35/17/24
v 0.21144899725914001 0.022825000807642937 0.549714982509613
vt 0.0 1.0
f 33/15/24 35/17/24 36/18/24
v -0.031776998192071915 0.022825000807642937 0.43014100193977356
vt 0.5 0.36974799633026123
v -0.15623800456523895 0.022825000807642937 0.43944400548934937
vt 1.0 0.36974799633026123
v -0.14840799570083618 0.022825000807642937 0.5441920161247253
vt 1.0 1.0
f 37/19/24 38/20/24 39/21/24
v -0.02394700050354004 0.022825000807642937 0.5348880290985107
f 37/19/24 39/21/24 40/17/24
v -0.03398900106549263 0.031115999445319176 0.4005480110645294
vt 0.5 0.18487399816513062
vn 0.020099999383091927 0.963100016117096 0.26829999685287476
v -0.15845000743865967 0.031115999445319176 0.4098510146141052
vt 1.0 0.18487399816513062
f 41/22/25 42/23/25 38/20/25
f 41/22/25 38/20/25 37/19/25
v -0.035732001066207886 0.05416100099682808 0.3772270083427429
vn 0.052299998700618744 0.7123000025749207 0.6998999714851379
v -0.16019299626350403 0.05416100099682808 0.3865300118923187
vt 1.0 0.0
f 43/16/26 44/24/26 42/23/26
f 43/16/26 42/23/26 41/22/26
o billboard_pirate##0#0#3#15789270.0
g billboard_pirate##0#0#3#15789270.0
v -0.01911100000143051 0.02396100014448166 0.3254050016403198
v -0.09667199850082397 0.02396100014448166 0.3254050016403198
v -0.09667199850082397 0.02396100014448166 0.41077399253845215
f 45/15/24 46/16/24 47/17/24
v -0.01911100000143051 0.02396100014448166 0.41077399253845215
f 45/15/24 47/17/24 48/18/24
v -0.028800999745726585 0.02396100014448166 0.3254050016403198
vt 0.06246599927544594 0.0
vn 0.0 0.8816999793052673 0.4717999994754791
v -0.01911100000143051 0.03289400041103363 0.3087100088596344
f 49/25/27 45/15/27 50/15/27
v -0.028800999745726585 0.03289400041103363 0.3087100088596344
f 49/25/27 50/15/27 51/25/27
v -0.08696000277996063 0.02396100014448166 0.3254050016403198
vt 0.43739598989486694 0.0
vn 0.0 0.9444000124931335 0.328900009393692
v -0.07728099822998047 0.02396100014448166 0.3254050016403198
v -0.07728099822998047 0.030189000070095062 0.3075239956378937
f 52/26/28 53/1/28 54/1/28
v -0.08696000277996063 0.030189000070095062 0.3075239956378937
f 52/26/28 54/1/28 55/26/28
v -0.048190999776124954 0.02396100014448166 0.3254050016403198
vt 0.18746599555015564 0.0
v -0.03849000111222267 0.02396100014448166 0.3254050016403198
vt 0.12493199855089188 0.0
v -0.03849000111222267 0.03289400041103363 0.3087100088596344
f 56/27/27 57/28/27 58/28/27
v -0.048190999776124954 0.03289400041103363 0.3087100088596344
f 56/27/27 58/28/27 59/27/27
v -0.09667199850082397 0.029245000332593918 0.3175489902496338
vn 0.0 0.5077999830245972 0.8615000247955322
v -0.08696000277996063 0.029245000332593918 0.3175489902496338
v -0.08696000277996063 0.03781399875879288 0.3124980032444
f 60/16/29 61/26/29 62/26/29
v -0.09667199850082397 0.03781399875879288 0.3124980032444
f 60/16/29 62/26/29 63/16/29
vn 0.0 0.829800009727478 0.5580999851226807
f 46/16/30 52/26/30 61/26/30
f 46/16/30 61/26/30 60/16/30
o billboard_pirate##0#0#4#8716232.0
g billboard_pirate##0#0#4#8716232.0
v -0.11323399841785431 0.02396100014448166 0.27692198753356934
v -0.20717400312423706 0.02396100014448166 0.27692198753356934
v -0.20717400312423706 0.02396100014448166 0.4053789973258972
f 64/15/24 65/16/24 66/17/24
v -0.11323399841785431 0.02396100014448166 0.4053789973258972
f 64/15/24 66/17/24 67/18/24
v 0.20769500732421875 0.03167499974370003 0.5340049862861633
vn 0.8773000240325928 0.30169999599456787 0.3732999861240387
v 0.20105299353599548 0.03167499974370003 0.5496129989624023
v 0.20269300043582916 0.02186799980700016 0.5536839962005615
f 68/1/31 69/2/31 70/3/31
v 0.21176500618457794 0.02186799980700016 0.5323650240898132
f 68/1/31 70/3/31 71/4/31
v 0.18137499690055847 0.02186799980700016 0.5446119904518127
f 71/4/2 70/3/2 72/5/2
v 0.19044700264930725 0.02186799980700016 0.5232930183410645
f 71/4/2 72/5/2 73/6/2
vn -0.8773000240325928 0.30160000920295715 -0.3732999861240387
v 0.18544499576091766 0.03167499974370003 0.5429710149765015
f 73/6/32 72/5/32 74/7/32
v 0.19208699464797974 0.03167499974370003 0.5273630023002625
f 73/6/32 74/7/32 75/8/32
f 75/8/24 74/7/24 69/13/24
f 75/8/24 69/13/24 68/14/24
vn 0.3732999861240387 0.30160000920295715 -0.8773000240325928
f 71/10/33 73/6/33 75/8/33
f 71/10/33 75/8/33 68/9/33
vn -0.3732999861240387 0.30169999599456787 0.8773000240325928
f 72/5/34 70/11/34 69/12/34
f 72/5/34 69/12/34 74/7/34
v -0.1786710023880005 0.03389599919319153 0.46734198927879333
vn 0.9330000281333923 0.30169999599456787 -0.19629999995231628
v -0.1735980063676834 0.03389599919319153 0.4914569854736328
v -0.16825799643993378 0.01964700035750866 0.49494001269340515
f 76/1/35 77/2/35 78/3/35
v -0.17518700659275055 0.01964700035750866 0.4620020091533661
f 76/1/35 78/3/35 79/4/35
v -0.20119699835777283 0.01964700035750866 0.5018690228462219
f 79/4/2 78/3/2 80/5/2
v -0.20812499523162842 0.01964700035750866 0.4689309895038605
f 79/4/2 80/5/2 81/6/2
vn -0.9330000281333923 0.30160000920295715 0.19629999995231628
v -0.1977130025625229 0.03389599919319153 0.4965290129184723
f 81/6/36 80/5/36 82/7/36
v -0.20278599858283997 0.03389599919319153 0.4724139869213104
f 81/6/36 82/7/36 83/8/36
f 83/8/24 82/7/24 77/13/24
f 83/8/24 77/13/24 76/14/24
vn -0.19629999995231628 0.30160000920295715 -0.9330000281333923
f 79/10/37 81/6/37 83/8/37
f 79/10/37 83/8/37 76/9/37
vn 0.19629999995231628 0.30160000920295715 0.9330000281333923
f 80/5/38 78/11/38 77/12/38
f 80/5/38 77/12/38 82/7/38
o billboard_pirate##0#3#5#-1.0
g billboard_pirate##0#3#5#-1.0
v 0.027354000136256218 0.04503700137138367 0.5338810086250305
vn 0.8867999911308289 0.26669999957084656 0.3774000108242035
v 0.023302000015974045 0.04503700137138367 0.5434030294418335
v 0.026691000908613205 0.02186799980700016 0.5518109798431396
f 84/1/39 85/2/39 86/3/39
v 0.03576299920678139 0.02186799980700016 0.5304930210113525
f 84/1/39 86/3/39 87/4/39
v 0.005371999926865101 0.02186799980700016 0.5427389740943909
f 87/4/2 86/3/2 88/5/2
v 0.014444000087678432 0.02186799980700016 0.5214210152626038
f 87/4/2 88/5/2 89/6/2
vn -0.8867999911308289 0.26669999957084656 -0.3774000108242035
v 0.013780999928712845 0.04503700137138367 0.5393509864807129
f 89/6/40 88/5/40 90/7/40
v 0.01783199980854988 0.04503700137138367 0.5298290252685547
f 89/6/40 90/7/40 91/8/40
f 91/8/24 90/7/24 85/13/24
f 91/8/24 85/13/24 84/14/24
vn 0.3774000108242035 0.26669999957084656 -0.8867999911308289
f 87/10/41 89/6/41 91/8/41
f 87/10/41 91/8/41 84/9/41
vn -0.3774000108242035 0.26660001277923584 0.8867999911308289
f 88/5/42 86/11/42 85/12/42
f 88/5/42 85/12/42 90/7/42
v 0.20460499823093414 0.04503599926829338 0.2892250120639801
v 0.20055299997329712 0.04503599926829338 0.2987459897994995
v 0.2039410024881363 0.02186799980700016 0.3071550130844116
f 92/1/39 93/2/39 94/3/39
v 0.21301400661468506 0.02186799980700016 0.28583699464797974
f 92/1/39 94/3/39 95/4/39
v 0.1826229989528656 0.02186799980700016 0.29808300733566284
f 95/4/2 94/3/2 96/5/2
v 0.19169500470161438 0.02186799980700016 0.27676400542259216
f 95/4/2 96/5/2 97/6/2
v 0.19103099405765533 0.04503599926829338 0.2946949899196625
f 97/6/40 96/5/40 98/7/40
v 0.19508300721645355 0.04503599926829338 0.2851729989051819
f 97/6/40 98/7/40 99/8/40
f 99/8/24 98/7/24 93/13/24
f 99/8/24 93/13/24 92/14/24
f 95/10/41 97/6/41 99/8/41
f 95/10/41 99/8/41 92/9/41
vn -0.3774000108242035 0.26669999957084656 0.8867999911308289
f 96/5/43 94/11/43 93/12/43
f 96/5/43 93/12/43 98/7/43
o billboard_pirate##0#0#6#3290183.0
g billboard_pirate##0#0#6#3290183.0
v -0.1006689965724945 0.02012600004673004 0.5338119864463806
v -0.1006689965724945 0.02012600004673004 0.5374709963798523
v -0.07837499678134918 0.02012600004673004 0.5374709963798523
f 100/15/24 101/15/24 102/15/24
v -0.07837499678134918 0.02012600004673004 0.5338119864463806
f 100/15/24 102/15/24 103/15/24
v -0.1006689965724945 0.03150000050663948 0.5338119864463806
v -0.07837499678134918 0.03150000050663948 0.5338119864463806
v -0.07837499678134918 0.03150000050663948 0.5374709963798523
f 104/15/2 105/15/2 106/15/2
v -0.1006689965724945 0.03150000050663948 0.5374709963798523
f 104/15/2 106/15/2 107/15/2
f 100/15/19 103/15/19 105/15/19
f 100/15/19 105/15/19 104/15/19
vn -1.0 -0.0 -0.0
f 103/15/44 102/15/44 106/15/44
f 103/15/44 106/15/44 105/15/44
f 102/15/18 101/15/18 107/15/18
f 102/15/18 107/15/18 106/15/18
vn 1.0 -0.0 -0.0
f 101/15/45 100/15/45 104/15/45
f 101/15/45 104/15/45 107/15/45
o billboard_pirate.COLLIDER##0#0#0#3290183.0
g billboard_pirate.COLLIDER##0#0#0#3290183.0
v 0.33121800422668457 -0.18662500381469727 -0.0
v 0.33121800422668457 0.04415399953722954 0.0
v 0.33121800422668457 0.04415399953722954 0.6328279972076416
f 108/1/45 109/4/45 110/3/45
v 0.33121800422668457 -0.18662500381469727 0.6328279972076416
f 108/1/45 110/3/45 111/2/45
v -0.33121800422668457 0.04415399953722954 0.0
v -0.33121800422668457 0.04415399953722954 0.6328279972076416
f 109/4/24 112/6/24 113/5/24
f 109/4/24 113/5/24 110/3/24
v -0.33121800422668457 -0.18662500381469727 -0.0
v -0.33121800422668457 -0.18662500381469727 0.6328279972076416
f 112/6/44 114/8/44 115/7/44
f 112/6/44 115/7/44 113/5/44
f 114/8/2 108/14/2 111/13/2
f 114/8/2 111/13/2 115/7/2
f 109/10/18 108/9/18 114/8/18
f 109/10/18 114/8/18 112/6/18
f 113/5/19 115/7/19 111/12/19
f 113/5/19 111/12/19 110/11/19
