# OBJ file
o __dotobj_group__##0#1#0#-1.0
g __dotobj_group__##0#1#0#-1.0
o bleacher.003_Cube.110##0#0#0#3289650.0
g bleacher.003_Cube.110##0#0#0#3289650.0
v 1.4376970529556274 -0.6330580115318298 -0.6052970290184021
vt 0.375 0.0
vn 1.0 0.0 0.0
v 1.4376970529556274 -0.6330580115318298 0.7402049899101257
vt 0.625 0.0
v 1.4376970529556274 -0.6879870295524597 0.7402049899101257
vt 0.625 0.25
f 1/1/1 2/2/1 3/3/1
v 1.4376970529556274 -0.6879870295524597 -0.6052970290184021
vt 0.375 0.25
f 1/1/1 3/3/1 4/4/1
vn -0.0 -1.0 0.0
v 1.382768988609314 -0.6879870295524597 0.7402049899101257
vt 0.625 0.5
f 4/4/2 3/3/2 5/5/2
v 1.382768988609314 -0.6879870295524597 -0.6052970290184021
vt 0.375 0.5
f 4/4/2 5/5/2 6/6/2
vn -1.0 0.0 0.0
v 1.382768988609314 -0.6330580115318298 0.7402049899101257
vt 0.625 0.75
f 6/6/3 5/5/3 7/7/3
v 1.382768988609314 -0.6330580115318298 -0.6052970290184021
vt 0.375 0.75
f 6/6/3 7/7/3 8/8/3
vn -0.0 1.0 0.0
vt 0.625 1.0
f 8/8/4 7/7/4 2/9/4
vt 0.375 1.0
f 8/8/4 2/9/4 1/10/4
v -1.3499059677124023 -0.43013298511505127 -0.6052970290184021
v -1.3499059677124023 -0.43013298511505127 0.7402049899101257
v -1.3499059677124023 -0.48506200313568115 0.7402049899101257
f 9/1/1 10/2/1 11/3/1
v -1.3499059677124023 -0.48506200313568115 -0.6052970290184021
f 9/1/1 11/3/1 12/4/1
v -1.4048349857330322 -0.48506200313568115 0.7402049899101257
f 12/4/2 11/3/2 13/5/2
v -1.4048349857330322 -0.48506200313568115 -0.6052970290184021
f 12/4/2 13/5/2 14/6/2
v -1.4048349857330322 -0.43013298511505127 0.7402049899101257
f 14/6/3 13/5/3 15/7/3
v -1.4048349857330322 -0.43013298511505127 -0.6052970290184021
f 14/6/3 15/7/3 16/8/3
f 16/8/4 15/7/4 10/9/4
f 16/8/4 10/9/4 9/10/4
v -1.3499059677124023 -0.6330580115318298 -0.6052970290184021
v -1.3499059677124023 -0.6330580115318298 0.7402049899101257
v -1.3499059677124023 -0.6879870295524597 0.7402049899101257
f 17/1/1 18/2/1 19/3/1
v -1.3499059677124023 -0.6879870295524597 -0.6052970290184021
f 17/1/1 19/3/1 20/4/1
v -1.4048349857330322 -0.6879870295524597 0.7402049899101257
f 20/4/2 19/3/2 21/5/2
v -1.4048349857330322 -0.6879870295524597 -0.6052970290184021
f 20/4/2 21/5/2 22/6/2
v -1.4048349857330322 -0.6330580115318298 0.7402049899101257
f 22/6/3 21/5/3 23/7/3
v -1.4048349857330322 -0.6330580115318298 -0.6052970290184021
f 22/6/3 23/7/3 24/8/3
f 24/8/4 23/7/4 18/9/4
f 24/8/4 18/9/4 17/10/4
v 1.4376970529556274 -0.43013298511505127 -0.6052970290184021
v 1.4376970529556274 -0.43013298511505127 0.7402049899101257
v 1.4376970529556274 -0.48506200313568115 0.7402049899101257
f 25/1/1 26/2/1 27/3/1
v 1.4376970529556274 -0.48506200313568115 -0.6052970290184021
f 25/1/1 27/3/1 28/4/1
v 1.382768988609314 -0.48506200313568115 0.7402049899101257
f 28/4/2 27/3/2 29/5/2
v 1.382768988609314 -0.48506200313568115 -0.6052970290184021
f 28/4/2 29/5/2 30/6/2
v 1.382768988609314 -0.43013298511505127 0.7402049899101257
f 30/6/3 29/5/3 31/7/3
v 1.382768988609314 -0.43013298511505127 -0.6052970290184021
f 30/6/3 31/7/3 32/8/3
f 32/8/4 31/7/4 26/9/4
f 32/8/4 26/9/4 25/10/4
v 0.02678699977695942 -0.43013298511505127 -0.6052970290184021
v 0.02678699977695942 -0.43013298511505127 0.7402049899101257
v 0.02678699977695942 -0.48506200313568115 0.7402049899101257
f 33/1/1 34/2/1 35/3/1
v 0.02678699977695942 -0.48506200313568115 -0.6052970290184021
f 33/1/1 35/3/1 36/4/1
v -0.02814199961721897 -0.48506200313568115 0.7402049899101257
f 36/4/2 35/3/2 37/5/2
v -0.02814199961721897 -0.48506200313568115 -0.6052970290184021
f 36/4/2 37/5/2 38/6/2
v -0.02814199961721897 -0.43013298511505127 0.7402049899101257
f 38/6/3 37/5/3 39/7/3
v -0.02814199961721897 -0.43013298511505127 -0.6052970290184021
f 38/6/3 39/7/3 40/8/3
f 40/8/4 39/7/4 34/9/4
f 40/8/4 34/9/4 33/10/4
v 0.02678699977695942 -0.6330580115318298 -0.6052970290184021
v 0.02678699977695942 -0.6330580115318298 0.7402049899101257
v 0.02678699977695942 -0.6879870295524597 0.7402049899101257
f 41/1/1 42/2/1 43/3/1
v 0.02678699977695942 -0.6879870295524597 -0.6052970290184021
f 41/1/1 43/3/1 44/4/1
v -0.02814199961721897 -0.6879870295524597 0.7402049899101257
f 44/4/2 43/3/2 45/5/2
v -0.02814199961721897 -0.6879870295524597 -0.6052970290184021
f 44/4/2 45/5/2 46/6/2
v -0.02814199961721897 -0.6330580115318298 0.7402049899101257
f 46/6/3 45/5/3 47/7/3
v -0.02814199961721897 -0.6330580115318298 -0.6052970290184021
f 46/6/3 47/7/3 48/8/3
f 48/8/4 47/7/4 42/9/4
f 48/8/4 42/9/4 41/10/4
v 1.4376970529556274 0.4769420027732849 -0.7857890129089355
v 1.4376970529556274 0.4769420027732849 0.200204998254776
v 1.4376970529556274 0.4220130145549774 0.200204998254776
f 49/1/1 50/2/1 51/3/1
v 1.4376970529556274 0.4220130145549774 -0.7857890129089355
f 49/1/1 51/3/1 52/4/1
v 1.382768988609314 0.4220130145549774 0.200204998254776
f 52/4/2 51/3/2 53/5/2
v 1.382768988609314 0.4220130145549774 -0.7857890129089355
f 52/4/2 53/5/2 54/6/2
v 1.382768988609314 0.4769420027732849 0.200204998254776
f 54/6/3 53/5/3 55/7/3
v 1.382768988609314 0.4769420027732849 -0.7857890129089355
f 54/6/3 55/7/3 56/8/3
f 56/8/4 55/7/4 50/9/4
f 56/8/4 50/9/4 49/10/4
v -1.3499059677124023 0.6798670291900635 -0.7857890129089355
v -1.3499059677124023 0.6798670291900635 0.200204998254776
v -1.3499059677124023 0.6249380111694336 0.200204998254776
f 57/1/1 58/2/1 59/3/1
v -1.3499059677124023 0.6249380111694336 -0.7857890129089355
f 57/1/1 59/3/1 60/4/1
v -1.4048349857330322 0.6249380111694336 0.200204998254776
f 60/4/2 59/3/2 61/5/2
v -1.4048349857330322 0.6249380111694336 -0.7857890129089355
f 60/4/2 61/5/2 62/6/2
v -1.4048349857330322 0.6798670291900635 0.200204998254776
f 62/6/3 61/5/3 63/7/3
v -1.4048349857330322 0.6798670291900635 -0.7857890129089355
f 62/6/3 63/7/3 64/8/3
f 64/8/4 63/7/4 58/9/4
f 64/8/4 58/9/4 57/10/4
v -1.3499059677124023 0.4769420027732849 -0.7857890129089355
v -1.3499059677124023 0.4769420027732849 0.200204998254776
v -1.3499059677124023 0.4220130145549774 0.200204998254776
f 65/1/1 66/2/1 67/3/1
v -1.3499059677124023 0.4220130145549774 -0.7857890129089355
f 65/1/1 67/3/1 68/4/1
v -1.4048349857330322 0.4220130145549774 0.200204998254776
f 68/4/2 67/3/2 69/5/2
v -1.4048349857330322 0.4220130145549774 -0.7857890129089355
f 68/4/2 69/5/2 70/6/2
v -1.4048349857330322 0.4769420027732849 0.200204998254776
f 70/6/3 69/5/3 71/7/3
v -1.4048349857330322 0.4769420027732849 -0.7857890129089355
f 70/6/3 71/7/3 72/8/3
f 72/8/4 71/7/4 66/9/4
f 72/8/4 66/9/4 65/10/4
v 1.4376970529556274 0.6798670291900635 -0.7857890129089355
v 1.4376970529556274 0.6798670291900635 0.200204998254776
v 1.4376970529556274 0.6249380111694336 0.200204998254776
f 73/1/1 74/2/1 75/3/1
v 1.4376970529556274 0.6249380111694336 -0.7857890129089355
f 73/1/1 75/3/1 76/4/1
v 1.382768988609314 0.6249380111694336 0.200204998254776
f 76/4/2 75/3/2 77/5/2
v 1.382768988609314 0.6249380111694336 -0.7857890129089355
f 76/4/2 77/5/2 78/6/2
v 1.382768988609314 0.6798670291900635 0.200204998254776
f 78/6/3 77/5/3 79/7/3
v 1.382768988609314 0.6798670291900635 -0.7857890129089355
f 78/6/3 79/7/3 80/8/3
f 80/8/4 79/7/4 74/9/4
f 80/8/4 74/9/4 73/10/4
v 0.02678699977695942 0.6798670291900635 -0.7857890129089355
v 0.02678699977695942 0.6798670291900635 0.200204998254776
v 0.02678699977695942 0.6249380111694336 0.200204998254776
f 81/1/1 82/2/1 83/3/1
v 0.02678699977695942 0.6249380111694336 -0.7857890129089355
f 81/1/1 83/3/1 84/4/1
v -0.02814199961721897 0.6249380111694336 0.200204998254776
f 84/4/2 83/3/2 85/5/2
v -0.02814199961721897 0.6249380111694336 -0.7857890129089355
f 84/4/2 85/5/2 86/6/2
v -0.02814199961721897 0.6798670291900635 0.200204998254776
f 86/6/3 85/5/3 87/7/3
v -0.02814199961721897 0.6798670291900635 -0.7857890129089355
f 86/6/3 87/7/3 88/8/3
f 88/8/4 87/7/4 82/9/4
f 88/8/4 82/9/4 81/10/4
v 0.02678699977695942 0.4769420027732849 -0.7857890129089355
v 0.02678699977695942 0.4769420027732849 0.200204998254776
v 0.02678699977695942 0.4220130145549774 0.200204998254776
f 89/1/1 90/2/1 91/3/1
v 0.02678699977695942 0.4220130145549774 -0.7857890129089355
f 89/1/1 91/3/1 92/4/1
v -0.02814199961721897 0.4220130145549774 0.200204998254776
f 92/4/2 91/3/2 93/5/2
v -0.02814199961721897 0.4220130145549774 -0.7857890129089355
f 92/4/2 93/5/2 94/6/2
v -0.02814199961721897 0.4769420027732849 0.200204998254776
f 94/6/3 93/5/3 95/7/3
v -0.02814199961721897 0.4769420027732849 -0.7857890129089355
f 94/6/3 95/7/3 96/8/3
f 96/8/4 95/7/4 90/9/4
f 96/8/4 90/9/4 89/10/4
v 1.4376970529556274 0.10694199800491333 -0.6057890057563782
v 1.4376970529556274 0.10694199800491333 0.3802050054073334
v 1.4376970529556274 0.05201299861073494 0.3802050054073334
f 97/1/1 98/2/1 99/3/1
v 1.4376970529556274 0.05201299861073494 -0.6057890057563782
f 97/1/1 99/3/1 100/4/1
v 1.382768988609314 0.05201299861073494 0.3802050054073334
f 100/4/2 99/3/2 101/5/2
v 1.382768988609314 0.05201299861073494 -0.6057890057563782
f 100/4/2 101/5/2 102/6/2
v 1.382768988609314 0.10694199800491333 0.3802050054073334
f 102/6/3 101/5/3 103/7/3
v 1.382768988609314 0.10694199800491333 -0.6057890057563782
f 102/6/3 103/7/3 104/8/3
f 104/8/4 103/7/4 98/9/4
f 104/8/4 98/9/4 97/10/4
v -1.3499059677124023 0.3098669946193695 -0.6057890057563782
v -1.3499059677124023 0.3098669946193695 0.3802050054073334
v -1.3499059677124023 0.254938006401062 0.3802050054073334
f 105/1/1 106/2/1 107/3/1
v -1.3499059677124023 0.254938006401062 -0.6057890057563782
f 105/1/1 107/3/1 108/4/1
v -1.4048349857330322 0.254938006401062 0.3802050054073334
f 108/4/2 107/3/2 109/5/2
v -1.4048349857330322 0.254938006401062 -0.6057890057563782
f 108/4/2 109/5/2 110/6/2
v -1.4048349857330322 0.3098669946193695 0.3802050054073334
f 110/6/3 109/5/3 111/7/3
v -1.4048349857330322 0.3098669946193695 -0.6057890057563782
f 110/6/3 111/7/3 112/8/3
f 112/8/4 111/7/4 106/9/4
f 112/8/4 106/9/4 105/10/4
v -1.3499059677124023 0.10694199800491333 -0.6057890057563782
v -1.3499059677124023 0.10694199800491333 0.3802050054073334
v -1.3499059677124023 0.05201299861073494 0.3802050054073334
f 113/1/1 114/2/1 115/3/1
v -1.3499059677124023 0.05201299861073494 -0.6057890057563782
f 113/1/1 115/3/1 116/4/1
v -1.4048349857330322 0.05201299861073494 0.3802050054073334
f 116/4/2 115/3/2 117/5/2
v -1.4048349857330322 0.05201299861073494 -0.6057890057563782
f 116/4/2 117/5/2 118/6/2
v -1.4048349857330322 0.10694199800491333 0.3802050054073334
f 118/6/3 117/5/3 119/7/3
v -1.4048349857330322 0.10694199800491333 -0.6057890057563782
f 118/6/3 119/7/3 120/8/3
f 120/8/4 119/7/4 114/9/4
f 120/8/4 114/9/4 113/10/4
v 1.4376970529556274 0.3098669946193695 -0.6057890057563782
v 1.4376970529556274 0.3098669946193695 0.3802050054073334
v 1.4376970529556274 0.254938006401062 0.3802050054073334
f 121/1/1 122/2/1 123/3/1
v 1.4376970529556274 0.254938006401062 -0.6057890057563782
f 121/1/1 123/3/1 124/4/1
v 1.382768988609314 0.254938006401062 0.3802050054073334
f 124/4/2 123/3/2 125/5/2
v 1.382768988609314 0.254938006401062 -0.6057890057563782
f 124/4/2 125/5/2 126/6/2
v 1.382768988609314 0.3098669946193695 0.3802050054073334
f 126/6/3 125/5/3 127/7/3
v 1.382768988609314 0.3098669946193695 -0.6057890057563782
f 126/6/3 127/7/3 128/8/3
f 128/8/4 127/7/4 122/9/4
f 128/8/4 122/9/4 121/10/4
v 0.02678699977695942 0.3098669946193695 -0.6057890057563782
v 0.02678699977695942 0.3098669946193695 0.3802050054073334
v 0.02678699977695942 0.254938006401062 0.3802050054073334
f 129/1/1 130/2/1 131/3/1
v 0.02678699977695942 0.254938006401062 -0.6057890057563782
f 129/1/1 131/3/1 132/4/1
v -0.02814199961721897 0.254938006401062 0.3802050054073334
f 132/4/2 131/3/2 133/5/2
v -0.02814199961721897 0.254938006401062 -0.6057890057563782
f 132/4/2 133/5/2 134/6/2
v -0.02814199961721897 0.3098669946193695 0.3802050054073334
f 134/6/3 133/5/3 135/7/3
v -0.02814199961721897 0.3098669946193695 -0.6057890057563782
f 134/6/3 135/7/3 136/8/3
f 136/8/4 135/7/4 130/9/4
f 136/8/4 130/9/4 129/10/4
v 0.02678699977695942 0.10694199800491333 -0.6057890057563782
v 0.02678699977695942 0.10694199800491333 0.3802050054073334
v 0.02678699977695942 0.05201299861073494 0.3802050054073334
f 137/1/1 138/2/1 139/3/1
v 0.02678699977695942 0.05201299861073494 -0.6057890057563782
f 137/1/1 139/3/1 140/4/1
v -0.02814199961721897 0.05201299861073494 0.3802050054073334
f 140/4/2 139/3/2 141/5/2
v -0.02814199961721897 0.05201299861073494 -0.6057890057563782
f 140/4/2 141/5/2 142/6/2
v -0.02814199961721897 0.10694199800491333 0.3802050054073334
f 142/6/3 141/5/3 143/7/3
v -0.02814199961721897 0.10694199800491333 -0.6057890057563782
f 142/6/3 143/7/3 144/8/3
f 144/8/4 143/7/4 138/9/4
f 144/8/4 138/9/4 137/10/4
v 1.4376970529556274 -0.26305800676345825 -0.5882760286331177
v 1.4376970529556274 -0.26305800676345825 0.5602049827575684
v 1.4376970529556274 -0.31798699498176575 0.5602049827575684
f 145/1/1 146/2/1 147/3/1
v 1.4376970529556274 -0.31798699498176575 -0.5882760286331177
f 145/1/1 147/3/1 148/4/1
v 1.382768988609314 -0.31798699498176575 0.5602049827575684
f 148/4/2 147/3/2 149/5/2
v 1.382768988609314 -0.31798699498176575 -0.5882760286331177
f 148/4/2 149/5/2 150/6/2
v 1.382768988609314 -0.26305800676345825 0.5602049827575684
f 150/6/3 149/5/3 151/7/3
v 1.382768988609314 -0.26305800676345825 -0.5882760286331177
f 150/6/3 151/7/3 152/8/3
f 152/8/4 151/7/4 146/9/4
f 152/8/4 146/9/4 145/10/4
v -1.3499059677124023 -0.06013299897313118 -0.5882760286331177
v -1.3499059677124023 -0.06013299897313118 0.5602049827575684
v -1.3499059677124023 -0.11506199836730957 0.5602049827575684
f 153/1/1 154/2/1 155/3/1
v -1.3499059677124023 -0.11506199836730957 -0.5882760286331177
f 153/1/1 155/3/1 156/4/1
v -1.4048349857330322 -0.11506199836730957 0.5602049827575684
f 156/4/2 155/3/2 157/5/2
v -1.4048349857330322 -0.11506199836730957 -0.5882760286331177
f 156/4/2 157/5/2 158/6/2
v -1.4048349857330322 -0.06013299897313118 0.5602049827575684
f 158/6/3 157/5/3 159/7/3
v -1.4048349857330322 -0.06013299897313118 -0.5882760286331177
f 158/6/3 159/7/3 160/8/3
f 160/8/4 159/7/4 154/9/4
f 160/8/4 154/9/4 153/10/4
v -1.3499059677124023 -0.26305800676345825 -0.5882760286331177
v -1.3499059677124023 -0.26305800676345825 0.5602049827575684
v -1.3499059677124023 -0.31798699498176575 0.5602049827575684
f 161/1/1 162/2/1 163/3/1
v -1.3499059677124023 -0.31798699498176575 -0.5882760286331177
f 161/1/1 163/3/1 164/4/1
v -1.4048349857330322 -0.31798699498176575 0.5602049827575684
f 164/4/2 163/3/2 165/5/2
v -1.4048349857330322 -0.31798699498176575 -0.5882760286331177
f 164/4/2 165/5/2 166/6/2
v -1.4048349857330322 -0.26305800676345825 0.5602049827575684
f 166/6/3 165/5/3 167/7/3
v -1.4048349857330322 -0.26305800676345825 -0.5882760286331177
f 166/6/3 167/7/3 168/8/3
f 168/8/4 167/7/4 162/9/4
f 168/8/4 162/9/4 161/10/4
v 1.4376970529556274 -0.06013299897313118 -0.5882760286331177
v 1.4376970529556274 -0.06013299897313118 0.5602049827575684
v 1.4376970529556274 -0.11506199836730957 0.5602049827575684
f 169/1/1 170/2/1 171/3/1
v 1.4376970529556274 -0.11506199836730957 -0.5882760286331177
f 169/1/1 171/3/1 172/4/1
v 1.382768988609314 -0.11506199836730957 0.5602049827575684
f 172/4/2 171/3/2 173/5/2
v 1.382768988609314 -0.11506199836730957 -0.5882760286331177
f 172/4/2 173/5/2 174/6/2
v 1.382768988609314 -0.06013299897313118 0.5602049827575684
f 174/6/3 173/5/3 175/7/3
v 1.382768988609314 -0.06013299897313118 -0.5882760286331177
f 174/6/3 175/7/3 176/8/3
f 176/8/4 175/7/4 170/9/4
f 176/8/4 170/9/4 169/10/4
v 0.02678699977695942 -0.06013299897313118 -0.5882760286331177
v 0.02678699977695942 -0.06013299897313118 0.5602049827575684
v 0.02678699977695942 -0.11506199836730957 0.5602049827575684
f 177/1/1 178/2/1 179/3/1
v 0.02678699977695942 -0.11506199836730957 -0.5882760286331177
f 177/1/1 179/3/1 180/4/1
v -0.02814199961721897 -0.11506199836730957 0.5602049827575684
f 180/4/2 179/3/2 181/5/2
v -0.02814199961721897 -0.11506199836730957 -0.5882760286331177
f 180/4/2 181/5/2 182/6/2
v -0.02814199961721897 -0.06013299897313118 0.5602049827575684
f 182/6/3 181/5/3 183/7/3
v -0.02814199961721897 -0.06013299897313118 -0.5882760286331177
f 182/6/3 183/7/3 184/8/3
f 184/8/4 183/7/4 178/9/4
f 184/8/4 178/9/4 177/10/4
v 0.02678699977695942 -0.26305800676345825 -0.5882760286331177
v 0.02678699977695942 -0.26305800676345825 0.5602049827575684
v 0.02678699977695942 -0.31798699498176575 0.5602049827575684
f 185/1/1 186/2/1 187/3/1
v 0.02678699977695942 -0.31798699498176575 -0.5882760286331177
f 185/1/1 187/3/1 188/4/1
v -0.02814199961721897 -0.31798699498176575 0.5602049827575684
f 188/4/2 187/3/2 189/5/2
v -0.02814199961721897 -0.31798699498176575 -0.5882760286331177
f 188/4/2 189/5/2 190/6/2
v -0.02814199961721897 -0.26305800676345825 0.5602049827575684
f 190/6/3 189/5/3 191/7/3
v -0.02814199961721897 -0.26305800676345825 -0.5882760286331177
f 190/6/3 191/7/3 192/8/3
f 192/8/4 191/7/4 186/9/4
f 192/8/4 186/9/4 185/10/4
o bleacher.003_Cube.110##0#1#1#-1.0
g bleacher.003_Cube.110##0#1#1#-1.0
v 1.4672009944915771 -0.41199201345443726 0.7219160199165344
v 1.4672009944915771 -0.41199201345443726 0.7832000255584717
v 1.4672009944915771 -0.6982529759407043 0.7832000255584717
f 193/1/1 194/2/1 195/3/1
v 1.4672009944915771 -0.6982529759407043 0.7219160199165344
f 193/1/1 195/3/1 196/4/1
v -1.435194969177246 -0.6982529759407043 0.7832000255584717
f 196/4/2 195/3/2 197/5/2
v -1.435194969177246 -0.6982529759407043 0.7219160199165344
f 196/4/2 197/5/2 198/6/2
v -1.435194969177246 -0.41199201345443726 0.7832000255584717
f 198/6/3 197/5/3 199/7/3
v -1.435194969177246 -0.41199201345443726 0.7219160199165344
f 198/6/3 199/7/3 200/8/3
f 200/8/4 199/7/4 194/9/4
f 200/8/4 194/9/4 193/10/4
vt 0.125 0.5
vn -0.0 0.0 -1.0
f 196/11/5 198/6/5 200/8/5
vt 0.125 0.75
f 196/11/5 200/8/5 193/12/5
vn -0.0 0.0 1.0
vt 0.875 0.5
vt 0.875 0.75
f 197/5/6 195/13/6 194/14/6
f 197/5/6 194/14/6 199/7/6
v 1.4647749662399292 0.6980080008506775 0.1819159984588623
v 1.4647749662399292 0.6980080008506775 0.24320000410079956
v 1.4647749662399292 0.411747008562088 0.24320000410079956
f 201/1/1 202/2/1 203/3/1
v 1.4647749662399292 0.411747008562088 0.1819159984588623
f 201/1/1 203/3/1 204/4/1
v -1.435194969177246 0.411747008562088 0.24320000410079956
f 204/4/2 203/3/2 205/5/2
v -1.435194969177246 0.411747008562088 0.1819159984588623
f 204/4/2 205/5/2 206/6/2
v -1.435194969177246 0.6980080008506775 0.24320000410079956
f 206/6/3 205/5/3 207/7/3
v -1.435194969177246 0.6980080008506775 0.1819159984588623
f 206/6/3 207/7/3 208/8/3
f 208/8/4 207/7/4 202/9/4
f 208/8/4 202/9/4 201/10/4
f 204/11/5 206/6/5 208/8/5
f 204/11/5 208/8/5 201/12/5
f 205/5/6 203/13/6 202/14/6
f 205/5/6 202/14/6 207/7/6
v 1.4667049646377563 0.3280070126056671 0.3619160056114197
v 1.4667049646377563 0.3280070126056671 0.42320001125335693
v 1.4667049646377563 0.04174700006842613 0.42320001125335693
f 209/1/1 210/2/1 211/3/1
v 1.4667049646377563 0.04174700006842613 0.3619160056114197
f 209/1/1 211/3/1 212/4/1
v -1.435194969177246 0.04174700006842613 0.42320001125335693
f 212/4/2 211/3/2 213/5/2
v -1.435194969177246 0.04174700006842613 0.3619160056114197
f 212/4/2 213/5/2 214/6/2
v -1.435194969177246 0.3280070126056671 0.42320001125335693
f 214/6/3 213/5/3 215/7/3
v -1.435194969177246 0.3280070126056671 0.3619160056114197
f 214/6/3 215/7/3 216/8/3
f 216/8/4 215/7/4 210/9/4
f 216/8/4 210/9/4 209/10/4
f 212/11/5 214/6/5 216/8/5
f 212/11/5 216/8/5 209/12/5
f 213/5/6 211/13/6 210/14/6
f 213/5/6 210/14/6 215/7/6
v 1.4653949737548828 -0.04199200123548508 0.541916012763977
v 1.4653949737548828 -0.04199200123548508 0.6032000184059143
v 1.4653949737548828 -0.32825300097465515 0.6032000184059143
f 217/1/1 218/2/1 219/3/1
v 1.4653949737548828 -0.32825300097465515 0.541916012763977
f 217/1/1 219/3/1 220/4/1
v -1.435194969177246 -0.32825300097465515 0.6032000184059143
f 220/4/2 219/3/2 221/5/2
v -1.435194969177246 -0.32825300097465515 0.541916012763977
f 220/4/2 221/5/2 222/6/2
v -1.435194969177246 -0.04199200123548508 0.6032000184059143
f 222/6/3 221/5/3 223/7/3
v -1.435194969177246 -0.04199200123548508 0.541916012763977
f 222/6/3 223/7/3 224/8/3
f 224/8/4 223/7/4 218/9/4
f 224/8/4 218/9/4 217/10/4
f 220/11/5 222/6/5 224/8/5
f 220/11/5 224/8/5 217/12/5
f 221/5/6 219/13/6 218/14/6
f 221/5/6 218/14/6 223/7/6
o bleacher.COLLIDER_Cube.458##0#0#0#-1.0
g bleacher.COLLIDER_Cube.458##0#0#0#-1.0
v 1.43368399143219 -0.3433310091495514 0.6007300019264221
vt 0.5625 0.1875
v 1.43368399143219 -0.3433310091495514 0.7844030261039734
vt 0.625 0.1875
v 1.43368399143219 -0.6866610050201416 0.7844030261039734
f 225/15/1 226/16/1 227/3/1
v 1.43368399143219 -0.6866610050201416 0.6007300019264221
vt 0.5625 0.25
f 225/15/1 227/3/1 228/17/1
v -1.43368399143219 -0.6866610050201416 0.7844030261039734
f 228/17/2 227/3/2 229/5/2
v -1.43368399143219 -0.6866610050201416 0.6007300019264221
vt 0.5625 0.5
f 228/17/2 229/5/2 230/18/2
v 1.43368399143219 0.3433310091495514 -1.2155970335006714
vt 0.125 0.6875
v -1.43368399143219 0.3433310091495514 -1.2155970335006714
vt 0.375 0.6875
v -1.43368399143219 0.6866610050201416 -1.2155970335006714
f 231/19/5 232/20/5 233/8/5
v 1.43368399143219 0.6866610050201416 -1.2155970335006714
f 231/19/5 233/8/5 234/12/5
vt 0.875 0.5625
f 229/5/6 227/13/6 226/21/6
v -1.43368399143219 -0.3433310091495514 0.7844030261039734
vt 0.625 0.5625
f 229/5/6 226/21/6 235/22/6
v 1.43368399143219 -0.6866610050201416 -1.2155970335006714
v -1.43368399143219 -0.6866610050201416 -1.2155970335006714
v -1.43368399143219 -0.3433310091495514 -1.2155970335006714
vt 0.375 0.5625
f 236/11/5 237/6/5 238/23/5
v 1.43368399143219 -0.3433310091495514 -1.2155970335006714
vt 0.125 0.5625
f 236/11/5 238/23/5 239/24/5
v -1.43368399143219 0.0 -1.2155970335006714
vt 0.375 0.625
f 239/24/5 238/23/5 240/25/5
v 1.43368399143219 0.0 -1.2155970335006714
vt 0.125 0.625
f 239/24/5 240/25/5 241/26/5
f 241/26/5 240/25/5 232/20/5
f 241/26/5 232/20/5 231/19/5
f 230/18/3 229/5/3 235/22/3
v -1.43368399143219 -0.3433310091495514 0.6007300019264221
vt 0.5625 0.5625
f 230/18/3 235/22/3 242/27/3
vt 0.375 0.125
v 1.43368399143219 0.0 0.24428799748420715
vt 0.4375 0.125
v 1.43368399143219 -0.3433310091495514 0.24428799748420715
vt 0.4375 0.1875
f 241/28/1 243/29/1 244/30/1
vt 0.375 0.1875
f 241/28/1 244/30/1 239/31/1
v 1.43368399143219 0.0 0.42250901460647583
vt 0.5 0.125
v 1.43368399143219 -0.3433310091495514 0.42250901460647583
vt 0.5 0.1875
f 243/29/1 245/32/1 246/33/1
f 243/29/1 246/33/1 244/30/1
v 1.43368399143219 0.0 0.6007300019264221
vt 0.5625 0.125
f 245/32/1 247/34/1 225/15/1
f 245/32/1 225/15/1 246/33/1
vt 0.375 0.0625
v 1.43368399143219 0.3433310091495514 0.24428799748420715
vt 0.4375 0.0625
f 231/35/1 248/36/1 243/29/1
f 231/35/1 243/29/1 241/28/1
v 1.43368399143219 0.3433310091495514 0.42250901460647583
vt 0.5 0.0625
f 248/36/1 249/37/1 245/32/1
f 248/36/1 245/32/1 243/29/1
v 1.43368399143219 0.6866610050201416 0.24428799748420715
vt 0.4375 0.0
f 234/1/1 250/38/1 248/36/1
f 234/1/1 248/36/1 231/35/1
f 235/22/4 226/16/4 225/15/4
f 235/22/4 225/15/4 242/27/4
v -1.43368399143219 0.0 0.24428799748420715
vt 0.4375 0.625
v -1.43368399143219 0.3433310091495514 0.24428799748420715
vt 0.4375 0.6875
f 240/25/3 251/39/3 252/40/3
f 240/25/3 252/40/3 232/20/3
v -1.43368399143219 0.0 0.42250901460647583
vt 0.5 0.625
v -1.43368399143219 0.3433310091495514 0.42250901460647583
vt 0.5 0.6875
f 251/39/3 253/41/3 254/42/3
f 251/39/3 254/42/3 252/40/3
v -1.43368399143219 0.0 0.6007300019264221
vt 0.5625 0.625
f 247/34/6 255/43/6 242/27/6
f 247/34/6 242/27/6 225/15/6
v -1.43368399143219 -0.3433310091495514 0.24428799748420715
vt 0.4375 0.5625
f 238/23/3 256/44/3 251/39/3
f 238/23/3 251/39/3 240/25/3
v -1.43368399143219 -0.3433310091495514 0.42250901460647583
vt 0.5 0.5625
f 256/44/3 257/45/3 253/41/3
f 256/44/3 253/41/3 251/39/3
f 257/45/3 242/27/3 255/43/3
f 257/45/3 255/43/3 253/41/3
v -1.43368399143219 -0.6866610050201416 0.24428799748420715
vt 0.4375 0.5
f 237/6/3 258/46/3 256/44/3
f 237/6/3 256/44/3 238/23/3
v -1.43368399143219 -0.6866610050201416 0.42250901460647583
vt 0.5 0.5
f 258/46/3 259/47/3 257/45/3
f 258/46/3 257/45/3 256/44/3
f 259/47/3 230/18/3 242/27/3
f 259/47/3 242/27/3 257/45/3
v -1.43368399143219 0.6866610050201416 0.24428799748420715
vt 0.4375 0.75
vt 0.4375 1.0
f 233/8/4 260/48/4 250/49/4
f 233/8/4 250/49/4 234/10/4
f 253/41/4 255/43/4 247/34/4
f 253/41/4 247/34/4 245/32/4
f 249/37/6 254/42/6 253/41/6
f 249/37/6 253/41/6 245/32/6
f 232/20/3 252/40/3 260/48/3
f 232/20/3 260/48/3 233/8/3
f 252/40/4 254/42/4 249/37/4
f 252/40/4 249/37/4 248/36/4
f 250/49/6 260/48/6 252/40/6
f 250/49/6 252/40/6 248/36/6
v 1.43368399143219 -0.6866610050201416 0.24428799748420715
vt 0.4375 0.25
f 236/4/2 261/50/2 258/46/2
f 236/4/2 258/46/2 237/6/2
v 1.43368399143219 -0.6866610050201416 0.42250901460647583
vt 0.5 0.25
f 261/50/2 262/51/2 259/47/2
f 261/50/2 259/47/2 258/46/2
f 262/51/2 228/17/2 230/18/2
f 262/51/2 230/18/2 259/47/2
f 239/31/1 244/30/1 261/50/1
f 239/31/1 261/50/1 236/4/1
f 244/30/1 246/33/1 262/51/1
f 244/30/1 262/51/1 261/50/1
f 246/33/1 225/15/1 228/17/1
f 246/33/1 228/17/1 262/51/1
