# OBJ file
o __dotobj_group__##0#1#0#-1.0
g __dotobj_group__##0#1#0#-1.0
o Cube_Cube.002##0#1#0#-1.0
g Cube_Cube.002##0#1#0#-1.0
v 0.23645900189876556 0.23645900189876556 -0.006672999821603298
vt 0.375 0.0
vn 1.0 0.0 0.0
v 0.23645900189876556 0.23645900189876556 0.15181900560855865
vt 0.625 0.0
v 0.23645900189876556 -0.23645900189876556 0.15181900560855865
vt 0.625 0.25
f 1/1/1 2/2/1 3/3/1
v 0.23645900189876556 -0.23645900189876556 -0.006672999821603298
vt 0.375 0.25
f 1/1/1 3/3/1 4/4/1
vn -0.0 -1.0 0.0
v -0.23645900189876556 -0.23645900189876556 -0.006672999821603298
vt 0.375 0.5
f 4/4/2 3/3/2 5/5/2
v -0.23645900189876556 0.23645900189876556 -0.006672999821603298
vt 0.625 0.75
vn -0.0 1.0 -0.0
vt 0.625 1.0
vt 0.375 1.0
f 6/6/3 2/7/3 1/8/3
v -0.23645900189876556 -0.23645900189876556 -0.10574900358915329
f 4/4/2 5/5/2 7/5/2
v 0.23645900189876556 -0.23645900189876556 -0.10574900358915329
f 4/4/2 7/5/2 8/4/2
vt 0.625 0.5
vn -0.31779998540878296 0.0 0.948199987411499
vt 0.875 0.5
vt 0.875 0.75
f 5/9/4 3/10/4 2/11/4
f 5/9/4 2/11/4 6/6/4
vt 0.125 0.5
vn -0.0 -0.0 -1.0
v -0.23645900189876556 0.23645900189876556 -0.10574900358915329
vt 0.375 0.75
f 8/12/5 7/5/5 9/13/5
v 0.23645900189876556 0.23645900189876556 -0.10574900358915329
vt 0.125 0.75
f 8/12/5 9/13/5 10/14/5
f 1/1/1 4/4/1 8/4/1
f 1/1/1 8/4/1 10/1/1
f 6/6/3 1/8/3 10/8/3
f 6/6/3 10/8/3 9/6/3
vn -1.0 0.0 0.0
f 5/9/6 6/6/6 9/6/6
f 5/9/6 9/6/6 7/9/6
o Cube.002_Cube.004##0#3#0#-1.0
g Cube.002_Cube.004##0#3#0#-1.0
v 0.06920699775218964 0.0 0.05761000141501427
vt 0.375 0.125
vn 0.958899974822998 -0.28369998931884766 0.0
v 0.06920699775218964 0.0 0.11295299977064133
vt 0.625 0.125
v 0.0007019999902695417 -0.2315780073404312 0.08736000210046768
f 11/15/7 12/16/7 13/3/7
v 0.0007019999902695417 -0.2315780073404312 0.032016001641750336
f 11/15/7 13/3/7 14/4/7
v -0.07296399772167206 -0.2315780073404312 0.058889999985694885
f 14/4/2 13/3/2 15/9/2
v -0.07296399772167206 -0.2315780073404312 0.0035470000002533197
f 14/4/2 15/9/2 16/5/2
v -0.004459999967366457 0.0 0.02913999930024147
vt 0.375 0.625
vn -0.958899974822998 -0.28369998931884766 0.0
v -0.004459999967366457 0.0 0.08448299765586853
vt 0.625 0.625
v -0.07296399772167206 0.2315780073404312 0.058889999985694885
f 17/17/8 18/18/8 19/6/8
v -0.07296399772167206 0.2315780073404312 0.0035470000002533197
f 17/17/8 19/6/8 20/13/8
v 0.0007019999902695417 0.2315780073404312 0.08736000210046768
f 20/13/3 19/6/3 21/7/3
v 0.0007019999902695417 0.2315780073404312 0.032016001641750336
f 20/13/3 21/7/3 22/8/3
vn -0.3605000078678131 0.0 0.9327999949455261
vt 0.875 0.625
vn -0.3605000078678131 -0.003599999938160181 0.9327999949455261
f 18/18/9 12/19/9 21/11/10
f 18/18/9 21/11/10 19/6/10
vn -0.3605000078678131 0.003599999938160181 0.9327999949455261
f 15/9/11 13/10/11 12/19/9
f 15/9/11 12/19/9 18/18/9
vn -0.958899974822998 0.28369998931884766 -0.0
f 16/5/12 15/9/12 18/18/12
f 16/5/12 18/18/12 17/17/12
vn 0.958899974822998 0.28369998931884766 -0.0
f 22/1/13 21/2/13 12/16/13
f 22/1/13 12/16/13 11/15/13
o Cube.001_Cube.006##0#2#0#-1.0
g Cube.001_Cube.006##0#2#0#-1.0
v -0.07704400271177292 0.0 0.005830000154674053
v -0.07704400271177292 0.0 0.05731400102376938
v -0.1455489993095398 -0.2315780073404312 0.031720999628305435
f 23/15/7 24/16/7 25/3/7
v -0.1455489993095398 -0.2315780073404312 -0.019763000309467316
f 23/15/7 25/3/7 26/4/7
v -0.2192150056362152 -0.2315780073404312 0.0032510000746697187
f 26/4/2 25/3/2 27/9/2
v -0.2192150056362152 -0.2315780073404312 -0.048232998698949814
f 26/4/2 27/9/2 28/5/2
v -0.15071099996566772 -0.0 -0.022639000788331032
v -0.15071099996566772 0.0 0.02884400077164173
v -0.2192150056362152 0.2315780073404312 0.0032510000746697187
f 29/17/8 30/18/8 31/6/8
v -0.2192150056362152 0.2315780073404312 -0.048232998698949814
f 29/17/8 31/6/8 32/13/8
v -0.1455489993095398 0.2315780073404312 0.031720999628305435
f 32/13/3 31/6/3 33/7/3
v -0.1455489993095398 0.2315780073404312 -0.019763000309467316
f 32/13/3 33/7/3 34/8/3
f 30/18/9 24/19/9 33/11/10
f 30/18/9 33/11/10 31/6/10
f 27/9/11 25/10/11 24/19/9
f 27/9/11 24/19/9 30/18/9
f 28/5/12 27/9/12 30/18/12
f 28/5/12 30/18/12 29/17/12
f 34/1/13 33/2/13 24/16/13
f 34/1/13 24/16/13 23/15/13
o Cube.003_Cube.007##0#4#0#-1.0
g Cube.003_Cube.007##0#4#0#-1.0
v 0.21625299751758575 0.0 0.11559399962425232
v 0.21625299751758575 0.0 0.16804799437522888
v 0.14774900674819946 -0.2315780073404312 0.14245399832725525
f 35/15/7 36/16/7 37/3/7
v 0.14774900674819946 -0.2315780073404312 0.09000100195407867
f 35/15/7 37/3/7 38/4/7
v 0.07408200204372406 -0.2315780073404312 0.11398500204086304
f 38/4/2 37/3/2 39/9/2
v 0.07408200204372406 -0.2315780073404312 0.06153099983930588
f 38/4/2 39/9/2 40/5/2
v 0.14258599281311035 0.0 0.08712500333786011
v 0.14258599281311035 0.0 0.13957799971103668
v 0.07408200204372406 0.2315780073404312 0.11398500204086304
f 41/17/8 42/18/8 43/6/8
v 0.07408200204372406 0.2315780073404312 0.06153099983930588
f 41/17/8 43/6/8 44/13/8
v 0.14774900674819946 0.2315780073404312 0.14245399832725525
f 44/13/3 43/6/3 45/7/3
v 0.14774900674819946 0.2315780073404312 0.09000100195407867
f 44/13/3 45/7/3 46/8/3
vn -0.3605000078678131 -0.0035000001080334187 0.9327999949455261
f 42/18/9 36/19/9 45/11/14
f 42/18/9 45/11/14 43/6/14
vn -0.3605000078678131 0.0035000001080334187 0.9327999949455261
f 39/9/15 37/10/15 36/19/9
f 39/9/15 36/19/9 42/18/9
f 40/5/12 39/9/12 42/18/12
f 40/5/12 42/18/12 41/17/12
f 46/1/13 45/2/13 36/16/13
f 46/1/13 36/16/13 35/15/13
o COLLIDER_Plane.001##0#0#0#-1.0
g COLLIDER_Plane.001##0#0#0#-1.0
v 0.20404599606990814 -0.0007450000266544521 0.1786620020866394
vt 0.0 0.5
vn -0.1655000001192093 0.0 0.9861999750137329
v -0.20508000254631042 -0.0007450000266544521 0.10959599912166595
vt 1.0 0.5
v -0.20161500573158264 -0.23150700330734253 0.11139299720525742
vt 1.0 1.0
vn -0.1655000001192093 0.0034000000450760126 0.9861999750137329
f 47/20/16 48/21/16 49/22/17
v 0.20173999667167664 -0.23150700330734253 0.1786620020866394
vt 0.0 1.0
f 47/20/16 49/22/17 50/23/17
v 0.20173999667167664 0.23001700639724731 0.1786620020866394
vt 0.0 0.0
vn -0.1655000001192093 -0.0034000000450760126 0.9861999750137329
v -0.20161500573158264 0.23001700639724731 0.11139299720525742
vt 1.0 0.0
f 51/24/18 52/25/18 48/21/16
f 51/24/18 48/21/16 47/20/16
vn -0.7107999920845032 0.11919999867677689 0.6933000087738037
v -0.2767690122127533 0.2995220124721527 -0.015536000020802021
f 48/21/19 52/25/19 53/25/19
v -0.3641259968280792 -0.0007450000266544521 -0.015536000020802021
f 48/21/19 53/25/19 54/21/19
vn -0.027799999341368675 -0.9174000024795532 0.3968999981880188
v -0.2767690122127533 -0.3010120093822479 -0.015536000020802021
f 50/23/20 49/22/20 55/22/20
v 0.27926400303840637 -0.3010120093822479 -0.015536000020802021
f 50/23/20 55/22/20 56/23/20
vn -0.027400000020861626 0.917900025844574 0.3959999978542328
v 0.29277798533439636 0.2995220124721527 -0.015536000020802021
f 52/25/21 51/24/21 57/24/21
f 52/25/21 57/24/21 53/25/21
vn 0.8352000117301941 -0.1354999989271164 0.5329999923706055
f 47/20/22 50/23/22 56/23/22
v 0.36309200525283813 -0.0007450000266544521 -0.015536000020802021
f 47/20/22 56/23/22 58/20/22
vn -0.7107999920845032 -0.11919999867677689 0.6933000087738037
f 49/22/23 48/21/23 54/21/23
f 49/22/23 54/21/23 55/22/23
vn 0.8260999917984009 0.11299999803304672 0.5521000027656555
f 51/24/24 47/20/24 58/20/24
f 51/24/24 58/20/24 57/24/24
o COLLIDER.side_Cube.001##0#0#0#-1.0
g COLLIDER.side_Cube.001##0#0#0#-1.0
v 0.10044500231742859 0.004755999892950058 -0.08500999957323074
v 0.10044500231742859 0.004755999892950058 0.380621999502182
v 0.10044500231742859 -0.004755999892950058 0.380621999502182
f 59/1/1 60/2/1 61/3/1
v 0.10044500231742859 -0.004755999892950058 -0.08500999957323074
f 59/1/1 61/3/1 62/4/1
v -0.20536400377750397 -0.004755999892950058 0.380621999502182
f 62/4/2 61/3/2 63/9/2
v -0.20536400377750397 -0.004755999892950058 -0.08500999957323074
f 62/4/2 63/9/2 64/5/2
v -0.20536400377750397 0.004755999892950058 0.380621999502182
f 64/5/6 63/9/6 65/6/6
v -0.20536400377750397 0.004755999892950058 -0.08500999957323074
f 64/5/6 65/6/6 66/13/6
f 66/13/3 65/6/3 60/7/3
f 66/13/3 60/7/3 59/8/3
f 62/12/5 64/5/5 66/13/5
f 62/12/5 66/13/5 59/14/5
vn -0.0 0.0 1.0
f 63/9/25 61/10/25 60/11/25
f 63/9/25 60/11/25 65/6/25
