# OBJ file
o __dotobj_group__##0#1#0#-1.0
g __dotobj_group__##0#1#0#-1.0
o bushes_spear_bushes_spear.RAND.RSCALE[.6,1.5].RUSTLE.WINDY[0.75]#bush_shrub_grass#99#1#0#-1.0
g bushes_spear_bushes_spear.RAND.RSCALE[.6,1.5].RUSTLE.WINDY[0.75]#bush_shrub_grass#99#1#0#-1.0
v 0.21454699337482452 0.2539460062980652 0.2122039943933487
vt 0.0 0.18097901344299316
vn -0.09600000083446503 0.0015999999595806003 0.9954000115394592
v 0.2954320013523102 0.06503599882125854 0.22030000388622284
vt 0.10205599665641785 0.18097901344299316
v 0.4839459955692291 0.14492100477218628 0.20091399550437927
vt 0.10205599665641785 0.24130499362945557
vn 0.07129999995231628 0.07320000231266022 0.9947999715805054
f 1/1/1 2/2/1 3/3/2
v 0.4030599892139435 0.3338310122489929 0.19281700253486633
vt 0.0 0.24130499362945557
f 1/1/1 3/3/2 4/4/2
v -0.034676000475883484 0.13681699335575104 -0.03091300092637539
vt 0.0 0.0
vn -0.8464000225067139 -0.3449999988079071 0.40560001134872437
v 0.04621100053191185 -0.052094001322984695 -0.02281700074672699
vt 0.10205599665641785 0.0
v 0.09202399849891663 -0.027482999488711357 0.09370999783277512
vt 0.10205599665641785 0.0603259801864624
vn -0.742900013923645 -0.2922999858856201 0.6022999882698059
f 5/5/3 6/6/3 7/7/4
v 0.011137999594211578 0.16142700612545013 0.08561299741268158
vt 0.0 0.0603259801864624
f 5/5/3 7/7/4 8/8/4
v 0.1783369928598404 0.012814000248908997 0.1716649979352951
vt 0.10205599665641785 0.12065201997756958
vn -0.4668999910354614 -0.16269999742507935 0.8691999912261963
f 8/8/4 7/7/4 9/9/5
v 0.09745100140571594 0.20172399282455444 0.16356800496578217
vt 0.0 0.12065201997756958
f 8/8/4 9/9/5 10/10/5
f 10/10/5 9/9/5 2/2/1
f 10/10/5 2/2/1 1/1/1
v -0.24582600593566895 -0.10348600149154663 0.20564599335193634
vn -0.07440000027418137 0.3093000054359436 0.9480999708175659
v -0.28969499468803406 0.08649200201034546 0.14023099839687347
v -0.4839470088481903 0.02927899919450283 0.10434100031852722
vn -0.24969999492168427 0.2632000148296356 0.9319000244140625
f 11/1/6 12/2/6 13/3/7
v -0.4400779902935028 -0.1606989949941635 0.1697559952735901
f 11/1/6 13/3/7 14/4/7
v 0.05824200063943863 -0.10424000024795532 -0.0004560000088531524
vn 0.816100001335144 0.3474000096321106 0.4616999924182892
v 0.014374000020325184 0.08573800325393677 -0.06587199866771698
v -0.05415499955415726 0.10629600286483765 0.039788998663425446
vn 0.6729999780654907 0.3749000132083893 0.6376000046730042
f 15/5/8 16/6/8 17/7/9
v -0.010286999866366386 -0.08368200063705444 0.10520400106906891
f 15/5/8 17/7/9 18/8/9
v -0.15836499631404877 0.10478200018405914 0.10527700185775757
vn 0.3366999924182892 0.3750999867916107 0.8636000156402588
f 18/8/9 17/7/9 19/9/10
v -0.11449600011110306 -0.08519499748945236 0.17069299519062042
f 18/8/9 19/9/10 20/10/10
f 20/10/10 19/9/10 12/2/6
f 20/10/10 12/2/6 11/1/6
v 0.1378609985113144 0.4447450041770935 0.18954099714756012
vt 0.16700099408626556 0.18698900938034058
vn -0.03700000047683716 0.09309999644756317 0.9950000047683716
v 0.010250000283122063 0.47283801436424255 0.18216800689697266
vt 0.10205599665641785 0.18698900938034058
v -0.031495001167058945 0.2873699963092804 0.19796699285507202
vt 0.10205599665641785 0.14024198055267334
vn -0.0737999975681305 -0.07400000095367432 0.9944999814033508
f 21/11/11 22/12/11 23/13/12
v 0.09611500054597855 0.25927498936653137 0.20533999800682068
vt 0.16700099408626556 0.14024198055267334
vn -0.07370000332593918 -0.07400000095367432 0.9944999814033508
f 21/11/11 23/13/12 24/14/13
v 0.06455899775028229 0.08742199838161469 0.09664999693632126
vt 0.16700099408626556 0.046747028827667236
vn -0.21529999375343323 -0.8529999852180481 0.4754999876022339
v -0.0630510002374649 0.11551599949598312 0.0892769992351532
vt 0.10205599665641785 0.046747028827667236
v -0.06210999935865402 0.09367699921131134 -0.010226000100374222
vn -0.22169999778270721 -0.9528999924659729 0.2070000022649765
f 25/15/14 26/16/14 27/6/15
v 0.06549999862909317 0.06558199971914291 -0.002853000070899725
vt 0.16700099408626556 0.0
f 25/15/14 27/6/15 28/17/15
v 0.0757329985499382 0.1556989997625351 0.16343200206756592
vt 0.16700099408626556 0.0934939980506897
vn -0.16040000319480896 -0.5063999891281128 0.8472999930381775
v -0.05187699943780899 0.18379400670528412 0.15605899691581726
vt 0.10205599665641785 0.0934939980506897
f 29/18/16 30/19/16 26/16/14
f 29/18/16 26/16/14 25/15/14
f 24/14/13 23/13/12 30/19/16
f 24/14/13 30/19/16 29/18/16
v -0.2825489938259125 0.2387930005788803 0.17977499961853027
vt 0.47696399688720703 0.21897602081298828
vn 0.05310000106692314 0.03310000151395798 0.9980000257492065
v -0.31970998644828796 0.15294599533081055 0.18459899723529816
vt 0.42350199818611145 0.21897602081298828
v -0.16098299622535706 0.08388900011777878 0.1784459948539734
vt 0.42350199818611145 0.1642320156097412
vn 0.21559999883174896 -0.03849999979138374 0.9757000207901001
f 31/20/17 32/21/17 33/22/18
v -0.12382099777460098 0.16973599791526794 0.17362099885940552
vt 0.47696399688720703 0.1642320156097412
f 31/20/17 33/22/18 34/23/18
v 0.02205600030720234 0.09953100234270096 0.04805799946188927
vt 0.47696399688720703 0.05474400520324707
vn 0.8302000164985657 -0.3343000113964081 0.44620001316070557
v -0.015106000006198883 0.013685000129044056 0.052882999181747437
vt 0.42350199818611145 0.05474400520324707
v 0.0026000000070780516 0.00044299999717622995 -0.04635699838399887
vt 0.42350199818611145 0.0
vn 0.9013000130653381 -0.3783000111579895 0.21130000054836273
f 35/24/19 36/25/19 37/26/20
v 0.03976200148463249 0.08628900349140167 -0.05118099972605705
vt 0.47696399688720703 0.0
f 35/24/19 37/26/20 38/27/20
v -0.03567099943757057 0.12861299514770508 0.12088000029325485
vt 0.47696301341056824 0.10948801040649414
vn 0.5792999863624573 -0.20649999380111694 0.7885000109672546
v -0.07283399999141693 0.0427669994533062 0.12570400536060333
vt 0.42350199818611145 0.10948801040649414
vn 0.5794000029563904 -0.20649999380111694 0.7885000109672546
f 39/28/21 40/29/22 36/25/19
f 39/28/21 36/25/19 35/24/19
f 34/23/18 33/22/18 40/29/22
f 34/23/18 40/29/22 39/28/21
v -0.25092801451683044 0.19189800322055817 0.1134210005402565
vn -0.09740000218153 0.24459999799728394 0.9646999835968018
v -0.09047099947929382 0.3195199966430664 0.09725400060415268
v -0.21181300282478333 0.46108898520469666 0.010484999977052212
vn -0.2076999992132187 0.37560001015663147 0.9031999707221985
f 41/1/23 42/2/23 43/3/24
v -0.37226998805999756 0.3334679901599884 0.026652000844478607
f 41/1/23 43/3/24 44/4/24
v -0.04711399972438812 -0.08162300288677216 -0.02289699949324131
vn 0.4934000074863434 -0.53329998254776 0.6872000098228455
v 0.1133430004119873 0.04599799960851669 -0.03906400129199028
v 0.06427700072526932 0.11936300247907639 0.05309399962425232
vn 0.39329999685287476 -0.3889000117778778 0.8331000208854675
f 45/5/25 46/6/25 47/7/26
v -0.09617999941110611 -0.008258000016212463 0.06926099956035614
f 45/5/25 47/7/26 48/8/26
v -0.0053010000847280025 0.21208499372005463 0.09447299689054489
vn 0.1679999977350235 -0.0868000015616417 0.9819999933242798
f 48/8/26 47/7/26 49/9/27
v -0.16575799882411957 0.08446300029754639 0.1106410026550293
f 48/8/26 49/9/27 50/10/27
f 50/10/27 49/9/27 42/2/23
f 50/10/27 42/2/23 41/1/23
v 0.219541996717453 -0.006345000118017197 0.227975994348526
vt 0.40152600407600403 0.18852299451828003
vn -0.2198999971151352 0.09239999949932098 0.9710999727249146
v 0.23129600286483765 0.03766399994492531 0.22644899785518646
vt 0.36947500705718994 0.18852299451828003
v 0.10439500212669373 0.0704519972205162 0.1945970058441162
vt 0.36947399377822876 0.14139199256896973
vn -0.3774000108242035 0.13259999454021454 0.9164999723434448
f 51/30/28 52/31/28 53/32/29
v 0.0926399976015091 0.02644200064241886 0.19612500071525574
vt 0.40152600407600403 0.14139199256896973
f 51/30/28 53/32/29 54/33/29
v 0.0015069999499246478 0.04687900096178055 0.08364100009202957
vt 0.40152600407600403 0.0471310019493103
vn -0.9491000175476074 0.2597000002861023 0.17810000479221344
v 0.013260999694466591 0.09088800102472305 0.08211299777030945
vt 0.36947500705718994 0.0471310019493103
v 0.020059000700712204 0.08657500147819519 0.010168000124394894
vt 0.36947500705718994 0.0
vn -0.9616000056266785 0.2531999945640564 -0.10599999874830246
f 55/34/30 56/35/30 57/36/31
v 0.008305000141263008 0.042566001415252686 0.011695999652147293
vt 0.40152600407600403 0.0
f 55/34/30 57/36/31 58/37/31
v 0.032653000205755234 0.04066300019621849 0.14420799911022186
vt 0.40152600407600403 0.09426099061965942
vn -0.7382000088691711 0.21930000185966492 0.6378999948501587
v 0.04440699890255928 0.0846719965338707 0.14268000423908234
vt 0.36947399377822876 0.09426099061965942
f 59/38/32 60/39/32 56/35/30
f 59/38/32 56/35/30 55/34/30
f 54/33/29 53/32/29 60/39/32
f 54/33/29 60/39/32 59/38/32
v 0.20746000111103058 0.308118999004364 0.2047169953584671
vn -0.03720000013709068 -0.06650000065565109 0.9970999956130981
v 0.12204699963331223 0.34656599164009094 0.20409800112247467
v 0.05123399943113327 0.18904200196266174 0.1909479945898056
vn -0.10939999669790268 -0.22759999334812164 0.9675999879837036
f 61/20/33 62/21/33 63/22/34
v 0.13664600253105164 0.15059399604797363 0.19156600534915924
f 61/20/33 63/22/34 64/23/34
v 0.07318300008773804 0.007482999935746193 0.05940600112080574
vn -0.376800000667572 -0.8305000066757202 0.41019999980926514
v -0.012229000218212605 0.045931000262498856 0.05878699943423271
v -0.018799999728798866 0.029722999781370163 -0.041370000690221786
vn -0.40540000796318054 -0.8978000283241272 0.17190000414848328
f 65/24/35 66/25/35 67/26/36
v 0.06661300361156464 -0.008724999614059925 -0.04075099900364876
f 65/24/35 67/26/36 68/27/36
v 0.09798499941825867 0.06379599869251251 0.1348710060119629
vn -0.2694000005722046 -0.5861999988555908 0.7641000151634216
v 0.012574000284075737 0.10224399715662003 0.13425199687480927
f 69/28/37 70/29/37 66/25/35
f 69/28/37 66/25/35 65/24/35
f 64/23/34 63/22/34 70/29/37
f 64/23/34 70/29/37 69/28/37
v 0.06803400069475174 0.06919799745082855 0.07583799958229065
vt 0.3490230143070221 0.05852198600769043
vn 0.04010000079870224 -0.9351999759674072 0.35179999470710754
v -0.0729369968175888 0.05968799814581871 0.06662099808454514
vt 0.26420798897743225 0.05852198600769043
v -0.06544599682092667 0.04734399914741516 -0.03520900011062622
vt 0.26420798897743225 0.0
vn 0.05869999900460243 -0.9904999732971191 0.12439999729394913
f 71/40/38 72/41/38 73/42/39
v 0.07552500069141388 0.056853998452425 -0.02599100023508072
vt 0.3490230143070221 0.0
f 71/40/38 73/42/39 74/43/39
v 0.058956000953912735 0.12501400709152222 0.15709500014781952
vt 0.3490230143070221 0.11704397201538086
vn 0.002199999988079071 -0.7123000025749207 0.7019000053405762
v -0.08201500028371811 0.11550399661064148 0.14787699282169342
vt 0.26420798897743225 0.11704397201538086
f 75/44/40 76/45/40 72/41/38
f 75/44/40 72/41/38 71/40/38
v 0.04867099970579147 0.2138739973306656 0.22271400690078735
vt 0.3490230143070221 0.17556697130203247
vn -0.03739999979734421 -0.35249999165534973 0.9351000189781189
v -0.09229999780654907 0.20436400175094604 0.21349599957466125
vt 0.26420798897743225 0.17556697130203247
vn -0.037300001829862595 -0.35249999165534973 0.9351000189781189
f 77/46/41 78/47/42 76/45/40
f 77/46/41 76/45/40 75/44/40
v 0.035585999488830566 0.379397988319397 0.25205299258232117
vt 0.3490230143070221 0.23408901691436768
vn -0.05220000073313713 -0.17829999327659607 0.9825999736785889
v -0.10538499802350998 0.36988699436187744 0.24283500015735626
vt 0.26420798897743225 0.23408901691436768
f 79/48/43 80/49/43 78/47/42
f 79/48/43 78/47/42 77/46/41
v -0.33435800671577454 -0.2548930048942566 0.18947699666023254
vn -0.19130000472068787 0.13169999420642853 0.9726999998092651
v -0.2313770055770874 -0.3297249972820282 0.21986199915409088
v -0.11945000290870667 -0.1752520054578781 0.22095400094985962
vn -0.0885000005364418 0.2678000032901764 0.9593999981880188
f 81/11/44 82/12/44 83/13/45
v -0.2224300056695938 -0.10041999816894531 0.19056899845600128
f 81/11/44 83/13/45 84/14/45
v -0.10210400074720383 0.016982000321149826 0.07190500199794769
vn 0.46050000190734863 0.7944999933242798 0.3959999978542328
v 0.0008750000270083547 -0.05784999951720238 0.10228999704122543
v 0.02771100029349327 -0.06080799922347069 0.004056000150740147
vn 0.5580999851226807 0.8198999762535095 0.12780000269412994
f 85/15/46 86/16/46 87/6/47
v -0.07526899874210358 0.014023000374436378 -0.026329999789595604
f 85/15/46 87/6/47 88/17/47
v -0.1530890017747879 -0.02473899908363819 0.14194999635219574
vn 0.1973000019788742 0.5895000100135803 0.78329998254776
v -0.05010899901390076 -0.09956999868154526 0.17233599722385406
f 89/18/48 90/19/48 86/16/46
f 89/18/48 86/16/46 85/15/46
f 84/14/45 83/13/45 90/19/48
f 84/14/45 90/19/48 89/18/48
v -0.04946500062942505 -0.013856000266969204 0.07181999832391739
vn -0.3140999972820282 0.8382999897003174 0.4456999897956848
v 0.08176200091838837 0.03889400139451027 0.06509300321340561
v 0.06870300322771072 0.05861499905586243 -0.03499799966812134
vn -0.35350000858306885 0.9079999923706055 0.22499999403953552
f 91/40/49 92/41/49 93/42/50
v -0.0625229999423027 0.0058650001883506775 -0.02827100083231926
f 91/40/49 93/42/50 94/43/50
v -0.022159000858664513 -0.07219900190830231 0.1469929963350296
vn -0.2029000073671341 0.6032000184059143 0.771399974822998
v 0.10906700044870377 -0.01944899931550026 0.14026500284671783
vn -0.2029000073671341 0.6031000018119812 0.771399974822998
f 95/44/51 96/45/52 92/41/49
f 95/44/51 92/41/49 91/40/49
v 0.01597600057721138 -0.15989899635314941 0.20322400331497192
vn -0.05119999870657921 0.2506999969482422 0.96670001745224
v 0.14720399677753448 -0.10715000331401825 0.19649699330329895
f 97/46/53 98/47/53 96/45/52
f 97/46/53 96/45/52 95/44/51
v 0.07923799753189087 -0.31571000814437866 0.2155119925737381
vn 0.01679999940097332 0.08540000021457672 0.9962000250816345
v 0.21046499907970428 -0.2629610002040863 0.20878399908542633
f 99/48/54 100/49/54 98/47/53
f 99/48/54 98/47/53 97/46/53
v -0.22779999673366547 -0.010459999553859234 0.2404630035161972
vn 0.2540999948978424 0.1421000063419342 0.9567000269889832
v -0.20711299777030945 -0.051068998873233795 0.24100099503993988
v -0.09191499650478363 0.007096999790519476 0.2017589956521988
vn 0.39640000462532043 0.21369999647140503 0.8928999900817871
f 101/30/55 102/31/55 103/32/56
v -0.11260300129652023 0.0477060005068779 0.2012220025062561
f 101/30/55 103/32/56 104/33/56
v -0.034637000411748886 0.0858680009841919 0.08357600122690201
vn 0.8837000131607056 0.45179998874664307 0.12219999730587006
v -0.013949000276625156 0.04525800049304962 0.08411300182342529
v -0.024034999310970306 0.03917599841952324 0.012683000415563583
vn 0.8801000118255615 0.44620001316070557 -0.1623000055551529
f 105/34/57 106/35/57 107/36/58
v -0.04472099989652634 0.07978499680757523 0.012145999819040298
f 105/34/57 107/36/58 108/37/58
v -0.060107000172138214 0.07371699810028076 0.14587000012397766
vn 0.7139000296592712 0.3714999854564667 0.5935999751091003
v -0.03941899910569191 0.033107999712228775 0.14640800654888153
f 109/38/59 110/39/59 106/35/57
f 109/38/59 106/35/57 105/34/57
f 104/33/56 103/32/56 110/39/59
f 104/33/56 110/39/59 109/38/59
v -0.1782819926738739 -0.24066999554634094 0.21255800127983093
vn 0.11720000207424164 0.09510000050067902 0.9884999990463257
v -0.0907370001077652 -0.27318501472473145 0.20530100166797638
v -0.03257500007748604 -0.11158400028944016 0.1828629970550537
vn 0.17520000040531158 0.259799987077713 0.9495999813079834
f 111/20/60 112/21/60 113/22/61
v -0.12011899799108505 -0.07906799763441086 0.19011999666690826
f 111/20/60 113/22/61 114/23/61
v -0.07839199900627136 0.06453300267457962 0.05007600039243698
vn 0.35100001096725464 0.864799976348877 0.35910001397132874
v 0.009151999838650227 0.032017000019550323 0.042819999158382416
v 0.006002999842166901 0.04600299894809723 -0.057836998254060745
vn 0.35429999232292175 0.9276999831199646 0.11779999732971191
f 115/24/62 116/25/62 117/26/63
v -0.08154100179672241 0.07851900160312653 -0.05058100074529648
f 115/24/62 117/26/63 118/27/63
v -0.09264300018548965 0.008654000237584114 0.12853500247001648
vn 0.29159998893737793 0.6230999827384949 0.7257999777793884
v -0.005098000168800354 -0.023861000314354897 0.12127900123596191
f 119/28/64 120/29/64 116/25/62
f 119/28/64 116/25/62 115/24/62
f 114/23/61 113/22/61 120/29/64
f 114/23/61 120/29/64 119/28/64
v -0.058740999549627304 -0.16473600268363953 0.2193470001220703
vt 0.580249011516571 0.23441201448440552
vn -0.0 0.34940001368522644 0.9369999766349792
v 0.037087999284267426 -0.16473600268363953 0.2193470001220703
vt 0.4983440041542053 0.23441201448440552
v 0.037087999284267426 -0.05395999923348427 0.17804500460624695
vt 0.4983440041542053 0.17580902576446533
vn -0.0 0.5127000212669373 0.8586000204086304
f 121/50/65 122/51/65 123/52/66
v -0.058740999549627304 -0.05395999923348427 0.17804500460624695
vt 0.580249011516571 0.17580902576446533
f 121/50/65 123/52/66 124/53/66
v -0.058740999549627304 0.027935000136494637 0.05801999941468239
vt 0.580249011516571 0.058602988719940186
vn 0.0 0.9839000105857849 0.1784999966621399
v 0.03708700090646744 0.027935000136494637 0.05801999941468239
vt 0.4983440041542053 0.058602988719940186
v 0.03708700090646744 0.02392599917948246 -0.014038999564945698
vt 0.4983440041542053 0.0
vn -0.0 0.9984999895095825 -0.05550000071525574
f 125/54/67 126/55/67 127/56/68
v -0.058740999549627304 0.02392599917948246 -0.014038999564945698
vt 0.580249011516571 0.0
f 125/54/67 127/56/68 128/57/68
v -0.058740999549627304 -0.0006319999811239541 0.12134999781847
vt 0.580249011516571 0.11720597743988037
vn -0.0 0.8259999752044678 0.5636000037193298
v 0.03708700090646744 -0.0006319999811239541 0.12134999781847
vt 0.4983440041542053 0.11720597743988037
f 129/58/69 130/59/69 126/55/67
f 129/58/69 126/55/67 125/54/67
f 124/53/66 123/52/66 130/59/69
f 124/53/66 130/59/69 129/58/69
v 0.12138599902391434 -0.26958200335502625 0.18982799351215363
vn 0.0 0.029200000688433647 0.9995999932289124
v -0.08427099883556366 -0.26958200335502625 0.18982799351215363
v -0.08427099883556366 -0.47283801436424255 0.15849199891090393
vn -0.0 -0.15240000188350677 0.9883000254631042
f 131/1/70 132/2/70 133/3/71
v 0.12138599902391434 -0.47283801436424255 0.15849199891090393
f 131/1/70 133/3/71 134/4/71
v 0.12138599902391434 0.019377000629901886 -0.03697500005364418
vn -0.0 0.8885999917984009 0.4587000012397766
v -0.08427099883556366 0.019377000629901886 -0.03697500005364418
v -0.08427099883556366 -0.03915400058031082 0.07641500234603882
vn -0.0 0.7613999843597412 0.6482999920845032
f 135/5/72 136/6/72 137/7/73
v 0.12138599902391434 -0.03915400058031082 0.07641500234603882
f 135/5/72 137/7/73 138/8/73
v -0.08427099883556366 -0.13875700533390045 0.1487320065498352
vn -0.0 0.4415999948978424 0.8971999883651733
f 138/8/73 137/7/73 139/9/74
v 0.12138599902391434 -0.13875700533390045 0.1487320065498352
f 138/8/73 139/9/74 140/10/74
f 140/10/74 139/9/74 132/2/70
f 140/10/74 132/2/70 131/1/70
v 0.3111630082130432 -0.3184239864349365 0.1997079998254776
vt 0.23708300292491913 0.21586698293685913
vn -0.12489999830722809 -0.09960000216960907 0.9872000217437744
v 0.39264199137687683 -0.20513999462127686 0.22143900394439697
vt 0.16700099408626556 0.21586698293685913
v 0.2325350046157837 -0.08835899829864502 0.2129639983177185
vt 0.16700099408626556 0.16189998388290405
vn -0.2662999927997589 0.0066999997943639755 0.9639000296592712
f 141/60/75 142/61/75 143/62/76
v 0.15105700492858887 -0.20164400339126587 0.19123399257659912
vt 0.23708300292491913 0.16189998388290405
vn -0.2662999927997589 0.006599999964237213 0.9639000296592712
f 141/60/75 143/62/76 144/63/77
v 0.0159939993172884 -0.07710199803113937 0.048402998596429825
vt 0.23708300292491913 0.05396699905395508
vn -0.7706999778747559 0.4722999930381775 0.427700012922287
v 0.09747199714183807 0.03618200123310089 0.07013300061225891
vt 0.16700099408626556 0.05396699905395508
v 0.08954200148582458 0.06335800141096115 -0.0418040007352829
vn -0.8138999938964844 0.548799991607666 0.19089999794960022
f 145/64/78 146/65/78 147/17/79
v 0.008062999695539474 -0.0499269999563694 -0.06353399902582169
vt 0.23708300292491913 0.0
f 145/64/78 147/17/79 148/66/79
v 0.06711100041866302 -0.12970800697803497 0.13097800314426422
vt 0.23708300292491913 0.10793298482894897
vn -0.5746999979019165 0.2648000121116638 0.7742999792098999
v 0.14858999848365784 -0.01642400026321411 0.1527090072631836
vt 0.16700099408626556 0.10793298482894897
f 149/67/80 150/68/80 146/65/78
f 149/67/80 146/65/78 145/64/78
f 144/63/77 143/62/76 150/68/80
f 144/63/77 150/68/80 149/67/80
v 0.08883500099182129 -0.039393000304698944 0.24173100292682648
vt 0.6331250071525574 0.19380497932434082
vn -0.1932000070810318 0.4781999886035919 0.8567000031471252
v 0.11693699657917023 -0.021275000646710396 0.2379540055990219
vt 0.6043649911880493 0.19380497932434082
v 0.0593860000371933 0.056262001395225525 0.18169300258159637
vt 0.6043649911880493 0.14535397291183472
vn -0.2791000008583069 0.5906999707221985 0.7570000290870667
f 151/69/81 152/70/81 153/71/82
v 0.03128400072455406 0.03814300149679184 0.18546900153160095
vt 0.6331250071525574 0.14535397291183472
f 151/69/81 153/71/82 154/72/82
v -0.005481999833136797 0.0716949999332428 0.072843998670578
vt 0.6331250071525574 0.048451006412506104
vn -0.5485000014305115 0.8303999900817871 -0.09799999743700027
v 0.022619999945163727 0.0898130014538765 0.06906700134277344
vt 0.6043649911880493 0.048451006412506104
v 0.02945300005376339 0.0674699991941452 0.012721000239253044
vt 0.6043649911880493 0.0
vn -0.5385000109672546 0.758899986743927 -0.3662000000476837
f 155/73/83 156/74/83 157/75/84
v 0.0013520000502467155 0.049352001398801804 0.01649799942970276
vt 0.6331250071525574 0.0
f 155/73/83 157/75/84 158/76/84
v 0.005956000182777643 0.06569299846887589 0.12916499376296997
vt 0.6331250071525574 0.09690201282501221
vn -0.461899995803833 0.7973999977111816 0.38839998841285706
v 0.03405800089240074 0.08381099998950958 0.1253889948129654
vt 0.6043649911880493 0.09690201282501221
f 159/77/85 160/78/85 156/74/83
f 159/77/85 156/74/83 155/73/83
f 154/72/82 153/71/82 160/78/85
f 154/72/82 160/78/85 159/77/85
v -0.15819799900054932 0.1637050062417984 0.2222069948911667
vt 0.7108060121536255 0.22647398710250854
vn 0.5558000206947327 0.2904999852180481 0.7789000272750854
v -0.1612669974565506 0.10331399738788605 0.24692200124263763
vt 0.6549739837646484 0.22647398710250854
v -0.06424199789762497 0.07445800304412842 0.18845899403095245
vt 0.6549739837646484 0.169854998588562
vn 0.6956999897956848 0.24150000512599945 0.6765000224113464
f 161/79/86 162/80/86 163/81/87
v -0.06117299944162369 0.1348479986190796 0.1637440025806427
vt 0.7108060121536255 0.169854998588562
f 161/79/86 163/81/87 164/82/87
v -0.011536999605596066 0.08273900300264359 0.042576998472213745
vt 0.7108060121536255 0.05661898851394653
vn 0.9962999820709229 -0.07090000063180923 -0.0494999997317791
v -0.014605999924242496 0.02234799973666668 0.0672919973731041
vt 0.6549739837646484 0.05661898851394653
v -0.036274999380111694 -0.0019039999460801482 0.005342999938875437
vt 0.6549739837646484 0.0
vn 0.9496999979019165 -0.15880000591278076 -0.27000001072883606
f 165/83/88 166/84/88 167/85/89
v -0.0332069993019104 0.05848599970340729 -0.019372999668121338
vt 0.7108060121536255 0.0
f 165/83/88 167/85/89 168/86/89
v -0.023553000763058662 0.10829699784517288 0.10353700071573257
vt 0.7108060121536255 0.11323702335357666
vn 0.9347000122070312 0.09290000051259995 0.34299999475479126
v -0.026621999219059944 0.047906000167131424 0.12825199961662292
vt 0.6549739837646484 0.11323702335357666
f 169/87/90 170/88/90 166/84/88
f 169/87/90 166/84/88 165/83/88
f 164/82/87 163/81/87 170/88/90
f 164/82/87 170/88/90 169/87/90
