# OBJ file
o __dotobj_group__##0#1#0#-1.0
g __dotobj_group__##0#1#0#-1.0
o Cube.104_Cube.007##0#1#0#-1.0
g Cube.104_Cube.007##0#1#0#-1.0
v 0.7146360278129578 -0.09375199675559998 0.03185800090432167
vt 0.3946880102157593 0.9803129993379116
vn 0.7856000065803528 0.065700002014637 -0.6151999831199646
v 0.7372480034828186 -0.31945300102233887 -0.07177499681711197
vt 0.3946880102157593 0.7928130030632019
v 0.6096360087394714 -0.29514798521995544 -0.12371999770402908
vt 0.40453100204467773 0.8767189979553223
f 1/1/1 2/2/1 3/3/1
v 0.6889879703521729 -0.0287650004029274 -0.10238000005483627
vt 0.40453100204467773 0.9704689998179674
f 1/1/1 3/3/1 4/4/1
vn 0.46959999203681946 -0.2971999943256378 -0.8313999772071838
v 0.7608669996261597 -0.5343440175056458 0.047221001237630844
vt 0.3946880102157593 0.6053130030632019
v 0.5766699910163879 -0.5607380270957947 -0.07621099799871445
vt 0.40453100204467773 0.7829689979553223
f 2/2/2 5/5/2 6/6/2
f 2/2/2 6/6/2 3/3/2
vn -0.3190999925136566 -0.12710000574588776 -0.9391000270843506
v 0.4193210005760193 -0.531682014465332 -0.02702699974179268
vt 0.4143750071525574 0.9606250002980232
f 3/3/3 6/6/3 7/7/3
v 0.4156489968299866 -0.27021700143814087 -0.06082199886441231
f 3/3/3 7/7/3 8/7/3
vn -0.3488999903202057 0.23899999260902405 -0.9061999917030334
f 4/4/4 3/3/4 8/7/4
v 0.49787598848342896 -0.013900999911129475 -0.006498000118881464
f 4/4/4 8/7/4 9/7/4
vn 0.5911999940872192 0.8065000176429749 -0.004000000189989805
v 0.7112820148468018 -0.0943010002374649 0.6108459830284119
vt 0.5 0.9803129993379116
v 1.0281310081481934 -0.32050201296806335 0.6470839977264404
vt 0.5 0.9901559995487332
f 1/1/5 10/8/5 11/9/5
v 1.0158350467681885 -0.32100799679756165 -0.09499400109052658
vt 0.38484400510787964 0.9901559995487332
f 1/1/5 11/9/5 12/10/5
vn 0.5756000280380249 0.8177000284194946 0.004600000102072954
v 0.7061600089073181 -0.09698300063610077 1.1973979473114014
vt 0.6053130030632019 0.9803129993379116
v 1.0254600048065186 -0.3197759985923767 1.3789180517196655
vt 0.6151559948921204 0.9901559995487332
f 10/8/6 13/11/6 14/12/6
f 10/8/6 14/12/6 11/9/6
vn 0.7847999930381775 0.6189000010490417 0.032600000500679016
v 1.17336905002594 -0.5467510223388672 1.444290041923523
vt 0.625 1.0
f 11/9/7 14/12/7 15/13/7
v 1.2462329864501953 -0.5630599856376648 0.6833230257034302
vt 0.5 1.0
f 11/9/7 15/13/7 16/14/7
vn 0.7138000130653381 0.7002999782562256 0.006500000134110451
f 12/10/8 11/9/8 16/14/8
v 1.28301203250885 -0.5726699829101562 -0.17167499661445618
vt 0.375 1.0
f 12/10/8 16/14/8 17/15/8
v -0.8003330230712891 -0.0735040009021759 1.2591350078582764
vt 0.6053119897842407 0.7696879953145981
vn -0.6139000058174133 0.7890999913215637 0.020400000736117363
v -0.7609829902648926 -0.0839499980211258 0.6108459830284119
vt 0.5 0.7696879953145981
v -1.1250059604644775 -0.31023699045181274 0.6470839977264404
vt 0.5 0.7598440051078796
f 18/16/9 19/17/9 20/18/9
v -1.0363949537277222 -0.31828200817108154 1.386381983757019
vt 0.6151559948921204 0.7598440051078796
f 18/16/9 20/18/9 21/19/9
vn -0.6450999975204468 0.7577999830245972 -0.09790000319480896
v -0.7589460015296936 -0.08430899679660797 -0.016019999980926514
vt 0.3946880102157593 0.7696879953145981
v -0.9552379846572876 -0.3294979929924011 -0.010018999688327312
vt 0.38484400510787964 0.7598440051078796
f 19/17/10 22/20/10 23/21/10
f 19/17/10 23/21/10 20/18/10
vn -0.8105000257492065 0.579800009727478 -0.08309999853372574
v -1.2246479988098145 -0.5575649738311768 -0.10643400251865387
vt 0.375 0.75
f 20/18/11 23/21/11 24/22/11
v -1.1821789741516113 -0.5473459959030151 0.6833230257034302
vt 0.5 0.75
f 20/18/11 24/22/11 25/23/11
vn -0.8120999932289124 0.5831000208854675 -0.02160000056028366
f 21/19/12 20/18/12 25/23/12
v -1.3467520475387573 -0.5851749777793884 1.563215970993042
vt 0.625 0.75
f 21/19/12 25/23/12 26/24/12
v 0.5096979737281799 -0.03379800170660019 1.026837944984436
vt 0.5856249928474426 0.9606250002980232
vn -0.9585000276565552 0.28439998626708984 -0.020600000396370888
v 0.5204799771308899 -0.030872000381350517 0.510932981967926
vt 0.5 0.9606250002980232
v 0.4512229859828949 -0.27058398723602295 0.4779820144176483
f 27/25/13 28/26/13 29/26/13
v 0.44033798575401306 -0.2700920104980469 0.9382680058479309
f 27/25/13 29/26/13 30/25/13
vn -0.9575999975204468 0.2822999954223633 0.05739999935030937
f 28/26/14 9/7/14 8/7/14
f 28/26/14 8/7/14 29/26/14
vn -0.9879999756813049 -0.10249999910593033 0.11540000140666962
f 29/26/15 8/7/15 7/7/15
v 0.4999130070209503 -0.5129950046539307 0.44503000378608704
f 29/26/15 7/7/15 31/26/15
vn -0.9941999912261963 -0.05009999871253967 -0.09539999812841415
f 30/25/16 29/26/16 31/26/16
v 0.4259690046310425 -0.5334290266036987 0.8791069984436035
f 30/25/16 31/26/16 32/25/16
v -0.0 -0.07984399795532227 1.6954679489135742
vt 0.6053130030632019 0.875
vn -0.38909998536109924 0.5070000290870667 0.76910001039505
v -0.41508498787879944 -0.0707319974899292 1.5184489488601685
vt 0.6053119897842407 0.8223440051078796
v -0.5036699771881104 -0.3228740096092224 1.6008540391921997
vt 0.6151559948921204 0.8174220025539398
f 33/27/17 34/28/17 35/29/17
v -0.0 -0.3183790147304535 1.8917039632797241
vt 0.6151559948921204 0.875
f 33/27/17 35/29/17 36/30/17
vn -0.37940001487731934 0.5590000152587891 0.7372999787330627
f 34/28/18 18/16/18 21/19/18
f 34/28/18 21/19/18 35/29/18
vn -0.19939999282360077 0.5217999815940857 0.8294000029563904
f 35/29/19 21/19/19 26/24/19
v -0.5805649757385254 -0.5302559733390808 1.629323959350586
vt 0.625 0.8125
f 35/29/19 26/24/19 37/31/19
vn -0.45239999890327454 0.15119999647140503 0.8788999915122986
f 36/30/20 35/29/20 37/31/20
v -0.0 -0.5442339777946472 1.8981809616088867
vt 0.625 0.875
f 36/30/20 37/31/20 38/32/20
v -0.0 -0.0030139998998492956 1.4500069618225098
vt 0.5856249928474426 0.875
vn -0.6086000204086304 0.2442999929189682 -0.7548999786376953
v 0.24469000101089478 -0.010228999890387058 1.2289750576019287
vt 0.5856249928474426 0.9178130030632019
v 0.23940399289131165 -0.27089399099349976 1.1702959537506104
f 39/33/21 40/34/21 41/34/21
v -0.0 -0.26976901292800903 1.3422520160675049
f 39/33/21 41/34/21 42/33/21
vn -0.6412000060081482 0.3050000071525574 -0.704200029373169
f 40/34/22 27/25/22 30/25/22
f 40/34/22 30/25/22 41/34/22
vn -0.7533000111579895 0.16949999332427979 -0.6353999972343445
f 41/34/23 30/25/23 32/25/23
v 0.23508700728416443 -0.5206680297851562 1.1147619485855103
f 41/34/23 32/25/23 43/34/23
vn -0.6406000256538391 0.09099999815225601 -0.7623999714851379
f 42/33/24 41/34/24 43/34/24
v -0.0 -0.5133169889450073 1.3425099849700928
f 42/33/24 43/34/24 44/33/24
v -0.48413100838661194 -0.0035979999229311943 -0.030260000377893448
vt 0.4143750071525574 0.7893750071525574
vn 0.9969000220298767 -0.07649999856948853 -0.01860000006854534
v -0.46970298886299133 0.007261999882757664 0.510932981967926
vt 0.5 0.7893750071525574
v -0.49517399072647095 -0.2710449993610382 0.4779820144176483
f 45/35/25 46/36/25 47/36/25
v -0.5000870227813721 -0.27109500765800476 0.025810999795794487
f 45/35/25 47/36/25 48/35/25
vn 0.9972000122070312 0.07419999688863754 -0.013100000098347664
v -0.506197988986969 -0.026127999648451805 1.0242379903793335
vt 0.5856249928474426 0.7893750071525574
v -0.4434249997138977 -0.27015799283981323 0.9397220015525818
f 46/36/26 49/37/26 50/37/26
f 46/36/26 50/37/26 47/36/26
vn 0.9868999719619751 0.1080000028014183 -0.11980000138282776
v -0.41784000396728516 -0.5364350080490112 0.8757650256156921
f 47/36/27 50/37/27 51/37/27
v -0.47629600763320923 -0.5184789896011353 0.44503000378608704
f 47/36/27 51/37/27 52/36/27
vn 0.9824000000953674 0.17990000545978546 0.05040000006556511
f 48/35/28 47/36/28 52/36/28
v -0.421781986951828 -0.531112015247345 -0.024738000705838203
f 48/35/28 52/36/28 53/35/28
v -0.7668589949607849 -0.5275570154190063 0.06623700261116028
vt 0.3946880102157593 0.6446880102157593
vn -0.12770000100135803 -0.2840999960899353 -0.9502000212669373
v -0.737309992313385 -0.31945300102233887 -0.0712520033121109
vt 0.3946880102157593 0.7071880102157593
v -0.6104840040206909 -0.29514798521995544 -0.024264000356197357
vt 0.40453100204467773 0.7482810020446777
f 54/38/29 55/39/29 56/40/29
v -0.5911960005760193 -0.5450929999351501 -0.023419000208377838
vt 0.40453100204467773 0.7170310020446777
f 54/38/29 56/40/29 57/41/29
vn 0.05400000140070915 0.07689999788999557 -0.9955999851226807
v -0.6524289846420288 -0.041847001761198044 -0.04520300030708313
vt 0.40453100204467773 0.7795310020446777
f 55/39/30 22/20/30 58/42/30
f 55/39/30 58/42/30 56/40/30
vn 0.2526000142097473 -0.12919999659061432 -0.958899974822998
f 56/40/31 58/42/31 45/35/31
f 56/40/31 45/35/31 48/35/31
vn 0.15379999577999115 0.125 -0.9801999926567078
f 57/41/32 56/40/32 48/35/32
f 57/41/32 48/35/32 53/35/32
vn 0.12319999933242798 0.027000000700354576 -0.9919999837875366
v -0.905443012714386 -0.4000990092754364 -0.062483999878168106
vt 0.3881250023841858 0.7214579880237579
f 24/22/33 23/21/33 59/43/33
v -1.0041749477386475 -0.543819010257721 -0.021940000355243683
vt 0.38484400510787964 0.6973440051078796
f 24/22/33 59/43/33 60/44/33
vn -0.27219998836517334 0.26249998807907104 -0.9257000088691711
f 22/20/34 55/39/34 59/43/34
f 22/20/34 59/43/34 23/21/34
vn 0.28139999508857727 -0.5130000114440918 -0.8109999895095825
f 54/38/35 60/44/35 59/43/35
f 54/38/35 59/43/35 55/39/35
vn -0.20239999890327454 0.8985000252723694 0.38960000872612
v -0.22877199947834015 0.006858999840915203 1.2146049737930298
vt 0.5856249928474426 0.8321879953145981
v -0.33090201020240784 -0.04079100117087364 1.3652310371398926
vt 0.5954689979553223 0.8272659927606583
f 39/33/36 61/45/36 62/46/36
v -0.0 -0.06704799830913544 1.503864049911499
vt 0.5954689979553223 0.875
f 39/33/36 62/46/36 63/47/36
vn -0.1670999974012375 0.9775999784469604 0.12800000607967377
v -0.6287130117416382 -0.04977399855852127 1.124851942062378
vt 0.5954689979553223 0.7795310020446777
f 61/45/37 49/37/37 64/48/37
f 61/45/37 64/48/37 62/46/37
vn -0.09229999780654907 0.9904000163078308 0.10279999673366547
f 62/46/38 64/48/38 18/16/38
f 62/46/38 18/16/38 34/28/38
vn -0.0044999998062849045 0.9925000071525574 0.12189999967813492
f 63/47/39 62/46/39 34/28/39
f 63/47/39 34/28/39 33/27/39
vn -0.14249999821186066 0.9883000254631042 0.05490000173449516
v -0.6936799883842468 -0.027414999902248383 0.5608890056610107
vt 0.5 0.7795310020446777
f 49/37/40 46/36/40 65/49/40
f 49/37/40 65/49/40 64/48/40
vn -0.1850000023841858 0.9824000000953674 -0.026000000536441803
f 46/36/41 45/35/41 58/42/41
f 46/36/41 58/42/41 65/49/41
vn -0.5042999982833862 0.863099992275238 -0.02810000069439411
f 65/49/42 58/42/42 22/20/42
f 65/49/42 22/20/42 19/17/42
vn -0.3073999881744385 0.9513999819755554 0.015799999237060547
f 64/48/43 65/49/43 19/17/43
f 64/48/43 19/17/43 18/16/43
vn 0.22110000252723694 0.9731000065803528 0.0640999972820282
v 0.5759180188179016 -0.06900099664926529 0.5608890056610107
vt 0.5 0.9704689998179674
f 9/7/44 28/26/44 66/50/44
f 9/7/44 66/50/44 4/4/44
vn 0.33169999718666077 0.9430999755859375 -0.02410000003874302
v 0.6244149804115295 -0.05180000141263008 1.1225199699401855
vt 0.5954689979553223 0.9704689998179674
f 28/26/45 27/25/45 67/51/45
f 28/26/45 67/51/45 66/50/45
vn 0.32120001316070557 0.9466999769210815 -0.02410000003874302
f 66/50/46 67/51/46 13/11/46
f 66/50/46 13/11/46 10/8/46
vn 0.4262000024318695 0.9020000100135803 0.06960000097751617
f 4/4/47 66/50/47 10/8/47
f 4/4/47 10/8/47 1/1/47
vt 0.375 0.25
vn -0.3059000074863434 -0.20970000326633453 -0.9286999702453613
v 0.9994699954986572 -0.5489410161972046 -0.038134001195430756
vt 0.38484400510787964 0.42765599489212036
v 0.9003580212593079 -0.4000990092754364 -0.0846169963479042
vt 0.3881250023841858 0.6118749976158142
f 17/52/48 68/53/48 69/54/48
vt 0.38484400510787964 0.6151559948921204
f 17/52/48 69/54/48 12/55/48
vn -0.3138999938964844 -0.4788999855518341 -0.8198000192642212
f 5/5/49 2/2/49 69/54/49
f 5/5/49 69/54/49 68/53/49
vn -0.0771000012755394 0.31310001015663147 -0.9466000199317932
f 1/1/50 12/55/50 69/54/50
f 1/1/50 69/54/50 2/2/50
vn 0.14550000429153442 0.9799000024795532 0.13650000095367432
v 0.31674298644065857 -0.049212999641895294 1.3432480096817017
vt 0.5954689979553223 0.9227339997887611
f 27/25/51 40/34/51 70/56/51
f 27/25/51 70/56/51 67/51/51
vn 0.26739999651908875 0.868399977684021 0.41749998927116394
f 40/34/52 39/33/52 63/47/52
f 40/34/52 63/47/52 70/56/52
vn 0.08320000022649765 0.9835000038146973 0.16040000319480896
f 70/56/53 63/47/53 33/27/53
v 0.3721579909324646 -0.08740399777889252 1.4355789422988892
vt 0.6053130030632019 0.927656002342701
f 70/56/53 33/27/53 71/57/53
vn 0.2207999974489212 0.9330000281333923 0.2840999960899353
f 67/51/54 70/56/54 71/57/54
f 67/51/54 71/57/54 13/11/54
vn 0.5889999866485596 0.2915000021457672 -0.7537000179290771
v -0.2231760025024414 -0.270330011844635 1.1509530544281006
vt 0.5856249928474426 0.8321869969367981
f 49/37/55 61/45/55 72/58/55
f 49/37/55 72/58/55 50/37/55
vn 0.6707000136375427 0.22920000553131104 -0.7053999900817871
f 61/45/56 39/33/56 42/33/56
f 61/45/56 42/33/56 72/58/56
vn 0.6362000107765198 -0.023600000888109207 -0.7710999846458435
f 72/58/57 42/33/57 44/33/57
v -0.25523799657821655 -0.5128210186958313 1.1390899419784546
f 72/58/57 44/33/57 73/45/57
vn 0.7735000252723694 0.08380000293254852 -0.6281999945640564
f 50/37/58 72/58/58 73/45/58
f 50/37/58 73/45/58 51/37/58
vn 0.3203999996185303 0.7645000219345093 0.5593000054359436
v 0.5104429721832275 -0.3215929865837097 1.6165200471878052
vt 0.6151559948921204 0.9325779974460602
f 13/11/59 71/57/59 74/59/59
f 13/11/59 74/59/59 14/12/59
vn 0.4041000008583069 0.6398000121116638 0.6536999940872192
f 71/57/60 33/27/60 36/30/60
f 71/57/60 36/30/60 74/59/60
vn 0.3779999911785126 0.2581000030040741 0.8891000151634216
f 74/59/61 36/30/61 38/32/61
v 0.6082720160484314 -0.5522909760475159 1.7009819746017456
vt 0.625 0.9375
f 74/59/61 38/32/61 75/60/61
vn 0.36660000681877136 0.46129998564720154 0.8079000115394592
f 14/12/62 74/59/62 75/60/62
f 14/12/62 75/60/62 15/13/62
vt 0.375 0.5
vn 0.06610000133514404 -0.9976999759674072 0.011699999682605267
vt 0.38484400510787964 0.5723440051078796
v -1.0780359506607056 -0.541271984577179 0.45504701137542725
vt 0.46489599347114563 0.5482290089130402
f 24/61/63 60/62/63 76/63/63
vt 0.5 0.5
f 24/61/63 76/63/63 25/64/63
vn 0.020600000396370888 -0.9995999932289124 -0.018799999728798866
v -0.9919559955596924 -0.5579599738121033 0.7441350221633911
vt 0.5098440051078796 0.5723440051078796
f 54/38/64 77/65/64 76/63/64
f 54/38/64 76/63/64 60/62/64
vt 0.625 0.5
vn -0.039900001138448715 -0.9980000257492065 -0.04919999837875366
f 26/66/65 25/64/65 76/63/65
f 26/66/65 76/63/65 77/65/65
vn 0.08969999849796295 -0.9954000115394592 0.03449999913573265
v -0.5502070188522339 -0.5315560102462769 0.2961849868297577
vt 0.46489599347114563 0.7411459982395172
f 53/35/66 52/36/66 78/67/66
f 53/35/66 78/67/66 57/41/66
vn 0.04340000078082085 -0.9988999962806702 -0.018300000578165054
v -0.6077250242233276 -0.5241479873657227 0.442782998085022
vt 0.49015599489212036 0.7170310020446777
f 51/37/67 79/68/67 78/67/67
f 51/37/67 78/67/67 52/36/67
vn -0.06360000371932983 -0.9970999956130981 0.042500000447034836
f 54/38/68 57/41/68 78/67/68
f 54/38/68 78/67/68 79/68/68
vn 0.09359999746084213 -0.9955999851226807 0.007600000128149986
v -0.8217809796333313 -0.5271890163421631 0.7899640202522278
vt 0.535103976726532 0.6446880102157593
f 54/38/69 79/68/69 80/69/69
f 54/38/69 80/69/69 77/65/69
vn -0.02019999921321869 -0.9997000098228455 -0.01269999984651804
v -0.849888026714325 -0.5288059711456299 1.1913139820098877
vt 0.6053119897842407 0.6446869969367981
f 51/37/70 81/70/70 80/69/70
f 51/37/70 80/69/70 79/68/70
vn 0.13930000364780426 -0.9900000095367432 0.0203000009059906
f 26/66/71 77/65/71 80/69/71
f 26/66/71 80/69/71 81/70/71
vt 0.75 0.5
vn -0.030799999833106995 -0.9940999746322632 0.10369999706745148
vt 0.6875 0.5
v -0.41250699758529663 -0.5836570262908936 1.3977669477462769
vt 0.6365630030632019 0.6660940051078796
f 38/71/72 37/72/72 82/73/72
v -0.0 -0.5469340085983276 1.6417139768600464
vt 0.6678130030632019 0.6875
f 38/71/72 82/73/72 83/74/72
vn 0.0008999999845400453 -1.0 -0.0038999998942017555
f 37/72/73 26/66/73 81/70/73
f 37/72/73 81/70/73 82/73/73
vn 0.018799999728798866 -0.9957000017166138 -0.09030000120401382
f 82/73/74 81/70/74 51/37/74
f 82/73/74 51/37/74 73/45/74
vn 0.14790000021457672 -0.9787999987602234 -0.14159999787807465
f 83/74/75 82/73/75 73/45/75
f 83/74/75 73/45/75 44/33/75
vn -0.188400000333786 -0.9800999760627747 0.06199999898672104
v 0.5464980006217957 -0.5356789827346802 0.2961849868297577
vt 0.46489599347114563 0.8421880006790161
f 7/7/76 6/6/76 84/75/76
f 7/7/76 84/75/76 31/26/76
vn 0.08780000358819962 -0.9937000274658203 0.07029999792575836
v 0.6099249720573425 -0.5210959911346436 0.44258999824523926
vt 0.49015599489212036 0.7829689979553223
f 5/5/77 85/76/77 84/75/77
f 5/5/77 84/75/77 6/6/77
vn -0.07370000332593918 -0.9972000122070312 -0.01140000019222498
f 32/25/78 31/26/78 84/75/78
f 32/25/78 84/75/78 85/76/78
vn -0.08709999918937683 -0.9962000250816345 0.010300000198185444
vt 0.5 0.25
v 1.0767110586166382 -0.5481719970703125 0.45504701137542725
vt 0.46489599347114563 0.3684380054473877
f 17/52/79 16/77/79 86/78/79
f 17/52/79 86/78/79 68/53/79
vt 0.625 0.25
vn -0.14309999346733093 -0.9896000027656555 0.015399999916553497
v 1.0033409595489502 -0.5270230174064636 0.7422080039978027
vt 0.5098440051078796 0.42765599489212036
f 15/79/80 87/80/80 86/78/80
f 15/79/80 86/78/80 16/77/80
vn -0.08030000329017639 -0.996399998664856 0.0284000001847744
f 5/5/81 68/53/81 86/78/81
f 5/5/81 86/78/81 87/80/81
vn 0.009999999776482582 -0.9994000196456909 -0.03290000185370445
v 0.8046889901161194 -0.5584669709205627 0.7938920259475708
vt 0.535103976726532 0.6053130030632019
f 5/5/82 87/80/82 88/81/82
f 5/5/82 88/81/82 85/76/82
vn 0.12139999866485596 -0.9912999868392944 -0.050999999046325684
v 0.8342419862747192 -0.5705230236053467 1.185194969177246
vt 0.6053130030632019 0.6053119897842407
f 15/79/83 89/82/83 88/81/83
f 15/79/83 88/81/83 87/80/83
vn -0.07559999823570251 -0.9962000250816345 -0.04349999874830246
f 32/25/84 85/76/84 88/81/84
f 32/25/84 88/81/84 89/82/84
vn -0.12150000035762787 -0.9872000217437744 -0.10339999943971634
v 0.4155769944190979 -0.5708889961242676 1.403648018836975
vt 0.6990630030632019 0.7089059948921204
f 44/33/85 43/34/85 90/83/85
f 44/33/85 90/83/85 83/74/85
vn -0.07419999688863754 -0.9945999979972839 -0.07249999791383743
vt 0.7303130030632019 0.7303130030632019
f 43/34/86 32/25/86 89/84/86
f 43/34/86 89/84/86 90/83/86
vn 0.029200000688433647 -0.9983999729156494 0.04809999838471413
vt 0.875 0.5
f 90/83/87 89/84/87 15/85/87
vt 0.8125 0.5
f 90/83/87 15/85/87 75/86/87
vn -0.013000000268220901 -0.9990000128746033 0.042899999767541885
f 83/74/88 90/83/88 75/86/88
f 83/74/88 75/86/88 38/71/88
o Plane.NOTSHADOWED_Plane.013_Plane.039##0#0#0#1644052.0
g Plane.NOTSHADOWED_Plane.013_Plane.039##0#0#0#1644052.0
v 0.6187710165977478 -0.29551100730895996 -0.08479399979114532
vt 0.0 0.0
vn -0.0 1.0 -0.0
v -0.6187710165977478 -0.29551100730895996 -0.08479399979114532
vt 1.0 0.0
v -0.6187710165977478 -0.29551100730895996 1.4616130590438843
vt 1.0 1.0
f 91/87/89 92/88/89 93/89/89
v 0.6187710165977478 -0.29551100730895996 1.4616130590438843
vt 0.0 1.0
f 91/87/89 93/89/89 94/90/89
o Cube.106.COLLIDER_Cube.130##0#1#0#-1.0
g Cube.106.COLLIDER_Cube.130##0#1#0#-1.0
v 0.7455130219459534 -0.0871720016002655 -0.001505000051110983
vt 0.3946869969367981 0.9803119990974665
vn -0.009100000374019146 -0.0 -1.0
v 0.7455130219459534 -0.551734983921051 -0.001505000051110983
v 0.4496830105781555 -0.5246580243110657 0.0012049999786540866
f 95/91/90 96/5/90 97/7/90
v 0.5020459890365601 -0.017026999965310097 0.0007120000082068145
f 95/91/90 97/7/90 98/7/90
vn 0.6926000118255615 0.7213000059127808 0.0
v 0.7455130219459534 -0.0871720016002655 1.2231969833374023
vt 0.6053130030632019 0.9803119990974665
v 1.2394280433654785 -0.5613899827003479 1.4896010160446167
f 95/91/91 99/92/91 100/13/91
v 1.2394280433654785 -0.5613899827003479 -0.12295500189065933
f 95/91/91 100/13/91 101/15/91
v -0.7455130219459534 -0.0871720016002655 1.2231969833374023
vt 0.6053119897842407 0.7696869969367981
vn -0.6926000118255615 0.7213000059127808 0.0
v -0.7455130219459534 -0.0871720016002655 -0.001505000051110983
v -1.2394280433654785 -0.5613899827003479 -0.12295500189065933
f 102/93/92 103/20/92 104/22/92
v -1.2394280433654785 -0.5613899827003479 1.4896010160446167
f 102/93/92 104/22/92 105/24/92
v 0.5020459890365601 -0.017026999965310097 1.0211540460586548
vn -0.994700014591217 0.10260000079870224 0.0
f 106/25/93 98/7/93 97/7/93
v 0.4496830105781555 -0.5246580243110657 0.8888559937477112
f 106/25/93 97/7/93 107/25/93
v -0.0 -0.0871720016002655 1.6502710580825806
vt 0.6053119897842407 0.875
vn -0.32829999923706055 0.6151000261306763 0.7167999744415283
f 108/94/94 102/93/94 105/24/94
v -0.0 -0.5613899827003479 1.97154700756073
f 108/94/94 105/24/94 109/32/94
v -0.0 -0.017026999965310097 1.4482289552688599
vn -0.651199996471405 0.22269999980926514 -0.7254999876022339
f 110/33/95 106/25/95 107/25/95
v -0.0 -0.5246580243110657 1.315930962562561
f 110/33/95 107/25/95 111/33/95
v -0.5020459890365601 -0.017026999965310097 0.0007120000082068145
vn 0.994700014591217 0.10260000079870224 0.0
v -0.5020459890365601 -0.017026999965310097 1.0211540460586548
v -0.4496830105781555 -0.5246580243110657 0.8888559937477112
f 112/35/96 113/37/96 114/37/96
v -0.4496830105781555 -0.5246580243110657 0.0012049999786540866
f 112/35/96 114/37/96 115/35/96
v -0.7455130219459534 -0.551734983921051 -0.001505000051110983
vn 0.009100000374019146 -0.0 -1.0
f 116/38/97 103/20/97 112/35/97
f 116/38/97 112/35/97 115/35/97
vn 0.23880000412464142 0.0 -0.9710999727249146
f 104/22/98 103/20/98 116/38/98
vn -0.16130000352859497 0.9584000110626221 0.23559999465942383
f 110/33/99 113/37/99 102/93/99
f 110/33/99 102/93/99 108/94/99
vn -0.2768000066280365 0.9609000086784363 0.0
f 113/37/100 112/35/100 103/20/100
f 113/37/100 103/20/100 102/93/100
vn 0.2768000066280365 0.9609000086784363 0.0
f 98/7/101 106/25/101 99/92/101
f 98/7/101 99/92/101 95/91/101
vn -0.23880000412464142 0.0 -0.9710999727249146
f 101/52/102 96/5/102 95/91/102
vn 0.16130000352859497 0.9584000110626221 0.23559999465942383
f 106/25/103 110/33/103 108/94/103
f 106/25/103 108/94/103 99/92/103
vn 0.651199996471405 0.22269999980926514 -0.7254999876022339
f 113/37/104 110/33/104 111/33/104
f 113/37/104 111/33/104 114/37/104
vn 0.32829999923706055 0.6151000261306763 0.7167999744415283
f 99/92/105 108/94/105 109/32/105
f 99/92/105 109/32/105 100/13/105
vn 0.019500000402331352 -0.9998000264167786 0.0
f 104/61/106 116/38/106 105/66/106
vn 0.09109999984502792 -0.9958000183105469 0.0
f 115/35/107 114/37/107 116/38/107
vn 0.05550000071525574 -0.9983999729156494 0.011900000274181366
f 116/38/108 114/37/108 105/66/108
vn 0.023499999195337296 -0.9987999796867371 -0.04360000044107437
f 109/71/109 105/66/109 114/37/109
f 109/71/109 114/37/109 111/33/109
vn -0.09109999984502792 -0.9958000183105469 0.0
f 97/7/110 96/5/110 107/25/110
vn -0.019500000402331352 -0.9998000264167786 0.0
f 101/52/111 100/79/111 96/5/111
vn -0.05550000071525574 -0.9983999729156494 0.011900000274181366
f 96/5/112 100/79/112 107/25/112
vn -0.023499999195337296 -0.9987999796867371 -0.04360000044107437
f 111/33/113 107/25/113 100/85/113
f 111/33/113 100/85/113 109/71/113
