# OBJ file
o __dotobj_group__##0#1#0#-1.0
g __dotobj_group__##0#1#0#-1.0
o garden_bed.COLLIDER.VISIBLE_Cube.001##0#2#0#-1.0
g garden_bed.COLLIDER.VISIBLE_Cube.001##0#2#0#-1.0
v 0.6934069991111755 0.0 -0.032030001282691956
vt 0.375 0.0
vn 0.707099974155426 -0.707099974155426 0.0
v 0.6934069991111755 0.0 0.1304589956998825
vt 0.625 0.0
v -0.0 -0.6934069991111755 0.1304589956998825
vt 0.625 0.25
f 1/1/1 2/2/1 3/3/1
v -0.0 -0.6934069991111755 -0.032030001282691956
vt 0.375 0.25
f 1/1/1 3/3/1 4/4/1
vn -0.707099974155426 -0.707099974155426 0.0
v -0.6934069991111755 0.0 0.1304589956998825
vt 0.625 0.5
f 4/4/2 3/3/2 5/5/2
v -0.6934069991111755 0.0 -0.032030001282691956
vt 0.375 0.5
f 4/4/2 5/5/2 6/6/2
vn -0.707099974155426 0.707099974155426 0.0
v -0.0 0.6934069991111755 0.1304589956998825
vt 0.625 0.75
f 6/6/3 5/5/3 7/7/3
v -0.0 0.6934069991111755 -0.032030001282691956
vt 0.375 0.75
f 6/6/3 7/7/3 8/8/3
vn 0.707099974155426 0.707099974155426 0.0
vt 0.625 1.0
f 8/8/4 7/7/4 2/9/4
vt 0.375 1.0
f 8/8/4 2/9/4 1/10/4
vt 0.125 0.5
vn -0.0 0.0 -1.0
f 4/11/5 6/6/5 8/8/5
vt 0.125 0.75
f 4/11/5 8/8/5 1/12/5
v 0.5725820064544678 0.0 0.1304589956998825
vt 0.8532189726829529 0.7282190024852753
v -0.0 0.5725820064544678 0.1304589956998825
vt 0.6467810273170471 0.7282190024852753
v -0.0 0.5725820064544678 0.08367100358009338
f 9/13/2 10/14/2 11/14/2
v 0.5725820064544678 0.0 0.08367100358009338
f 9/13/2 11/14/2 12/13/2
vn -0.0 -0.0 1.0
v -0.0 -0.5725820064544678 0.1304589956998825
vt 0.8532189726829529 0.5217809975147247
vt 0.875 0.5
f 9/13/6 13/15/6 3/16/6
vt 0.875 0.75
f 9/13/6 3/16/6 2/17/6
v -0.5725820064544678 0.0 0.1304589956998825
vt 0.6467810273170471 0.5217809975147247
f 13/15/6 14/18/6 5/5/6
f 13/15/6 5/5/6 3/16/6
f 14/18/6 10/14/6 7/7/6
f 14/18/6 7/7/6 5/5/6
f 10/14/6 9/13/6 2/17/6
f 10/14/6 2/17/6 7/7/6
v -0.0 -0.5725820064544678 0.08367100358009338
f 14/18/4 13/15/4 15/15/4
v -0.5725820064544678 0.0 0.08367100358009338
f 14/18/4 15/15/4 16/18/4
f 10/14/1 14/18/1 16/18/1
f 10/14/1 16/18/1 11/14/1
f 13/15/3 9/13/3 12/13/3
f 13/15/3 12/13/3 15/15/3
o garden_bed.COLLIDER.VISIBLE_Cube.001##0#1#1#-1.0
g garden_bed.COLLIDER.VISIBLE_Cube.001##0#1#1#-1.0
f 16/18/6 15/15/6 12/13/6
f 16/18/6 12/13/6 11/14/6
