# OBJ file
o __dotobj_group__##0#1#0#-1.0
g __dotobj_group__##0#1#0#-1.0
o fence.COLLIDER##0#1#0#-1.0
g fence.COLLIDER##0#1#0#-1.0
v -1.239967942237854 -0.07428800314664841 0.0039809998124837875
vt 0.375 0.0
vn -1.0 -0.0 -0.0
v -1.239967942237854 -0.07428800314664841 2.003981113433838
vt 0.625 0.0
v -1.239967942237854 0.0004309999931138009 2.003981113433838
vt 0.625 0.25
f 1/1/1 2/2/1 3/3/1
v -1.239967942237854 0.0004309999931138009 0.0039809998124837875
vt 0.375 0.25
f 1/1/1 3/3/1 4/4/1
vn 0.0 1.0 -0.0
v 1.2290500402450562 0.00043200000072829425 2.003981113433838
vt 0.625 0.5
f 4/4/2 3/3/2 5/5/2
v 1.2290500402450562 0.00043200000072829425 0.0039809998124837875
vt 0.375 0.5
f 4/4/2 5/5/2 6/6/2
vn 1.0 -0.0 -0.0
v 1.2290500402450562 -0.07428800314664841 2.003981113433838
vt 0.625 0.75
f 6/6/3 5/5/3 7/7/3
v 1.2290500402450562 -0.07428800314664841 0.0039809998124837875
vt 0.375 0.75
f 6/6/3 7/7/3 8/8/3
vn 0.0 -1.0 -0.0
vt 0.625 1.0
f 8/8/4 7/7/4 2/9/4
vt 0.375 1.0
f 8/8/4 2/9/4 1/10/4
vt 0.125 0.5
vn 0.0 -0.0 -1.0
f 4/11/5 6/6/5 8/8/5
vt 0.125 0.75
f 4/11/5 8/8/5 1/12/5
vn 0.0 -0.0 1.0
vt 0.875 0.5
vt 0.875 0.75
f 5/5/6 3/13/6 2/14/6
f 5/5/6 2/14/6 7/7/6
o fence_bar.010##0#0#0#12632256.0
g fence_bar.010##0#0#0#12632256.0
v -1.2414300441741943 -0.07428800314664841 0.18561699986457825
v 1.230512022972107 -0.07428800314664841 0.18561600148677826
v 1.230512022972107 0.00043200000072829425 0.18561600148677826
f 9/1/6 10/2/6 11/3/6
v -1.2414300441741943 0.0004309999931138009 0.18561699986457825
f 9/1/6 11/3/6 12/4/6
v 1.230512022972107 0.00043200000072829425 0.11871299892663956
f 12/4/2 11/3/2 13/5/2
v -1.2414300441741943 0.0004309999931138009 0.11871299892663956
f 12/4/2 13/5/2 14/6/2
v 1.230512022972107 -0.07428800314664841 0.11871299892663956
f 14/6/5 13/5/5 15/7/5
v -1.2414300441741943 -0.07428800314664841 0.11871299892663956
f 14/6/5 15/7/5 16/8/5
f 16/8/4 15/7/4 10/9/4
f 16/8/4 10/9/4 9/10/4
f 12/11/1 14/6/1 16/8/1
f 12/11/1 16/8/1 9/12/1
f 13/5/3 11/13/3 10/14/3
f 13/5/3 10/14/3 15/7/3
v -0.03891099989414215 -0.07428800314664841 0.13387200236320496
v -0.03891099989414215 -0.07428800314664841 2.003981113433838
v -0.03891099989414215 0.0004309999931138009 2.003981113433838
f 17/1/1 18/2/1 19/3/1
v -0.03891099989414215 0.0004309999931138009 0.13387200236320496
f 17/1/1 19/3/1 20/4/1
v -0.005458999890834093 0.0004309999931138009 0.13387200236320496
vt 0.375 0.375
v -0.005458999890834093 0.0004309999931138009 2.003981113433838
vt 0.625 0.375
v 0.02799299918115139 0.0004309999931138009 2.003981113433838
f 21/15/2 22/16/2 23/5/2
v 0.02799299918115139 0.0004309999931138009 0.13387200236320496
f 21/15/2 23/5/2 24/6/2
v 0.02799299918115139 -0.07428800314664841 2.003981113433838
f 24/6/3 23/5/3 25/7/3
v 0.02799299918115139 -0.07428800314664841 0.13387200236320496
f 24/6/3 25/7/3 26/8/3
v -0.005458999890834093 -0.07428800314664841 0.13387200236320496
vt 0.375 0.875
v -0.005458999890834093 -0.07428800314664841 2.003981113433838
vt 0.625 0.875
f 27/17/4 28/18/4 18/9/4
f 27/17/4 18/9/4 17/10/4
vt 0.25 0.5
f 21/19/5 24/6/5 26/8/5
vt 0.25 0.75
f 21/19/5 26/8/5 27/20/5
vt 0.75 0.5
f 22/21/6 19/13/6 18/14/6
vt 0.75 0.75
f 22/21/6 18/14/6 28/22/6
v -1.2403160333633423 -0.07428800314664841 0.0039809998124837875
v -1.2403149604797363 -0.07428800314664841 2.003981113433838
v -1.2403149604797363 0.0004309999931138009 2.003981113433838
f 29/1/1 30/2/1 31/3/1
v -1.2403160333633423 0.0004309999931138009 0.0039809998124837875
f 29/1/1 31/3/1 32/4/1
v -1.1734110116958618 0.0004309999931138009 2.003981113433838
f 32/4/2 31/3/2 33/5/2
v -1.1734119653701782 0.0004309999931138009 0.0039809998124837875
f 32/4/2 33/5/2 34/6/2
v -1.1734110116958618 -0.07428800314664841 2.003981113433838
f 34/6/3 33/5/3 35/7/3
v -1.1734119653701782 -0.07428800314664841 0.0039809998124837875
f 34/6/3 35/7/3 36/8/3
f 36/8/4 35/7/4 30/9/4
f 36/8/4 30/9/4 29/10/4
f 32/11/5 34/6/5 36/8/5
f 32/11/5 36/8/5 29/12/5
f 33/5/6 31/13/6 30/14/6
f 33/5/6 30/14/6 35/7/6
v 1.1575700044631958 -0.07428800314664841 0.0039809998124837875
v 1.1575700044631958 -0.07428800314664841 2.003981113433838
v 1.1575700044631958 0.00043200000072829425 2.003981113433838
f 37/1/1 38/2/1 39/3/1
v 1.1575700044631958 0.00043200000072829425 0.0039809998124837875
f 37/1/1 39/3/1 40/4/1
v 1.2244739532470703 0.00043200000072829425 2.0039799213409424
f 40/4/2 39/3/2 41/5/2
v 1.224472999572754 0.00043200000072829425 0.0039809998124837875
f 40/4/2 41/5/2 42/6/2
v 1.2244739532470703 -0.07428800314664841 2.0039799213409424
f 42/6/3 41/5/3 43/7/3
v 1.224472999572754 -0.07428800314664841 0.0039809998124837875
f 42/6/3 43/7/3 44/8/3
f 44/8/4 43/7/4 38/9/4
f 44/8/4 38/9/4 37/10/4
f 40/11/5 42/6/5 44/8/5
f 40/11/5 44/8/5 37/12/5
f 41/5/6 39/13/6 38/14/6
f 41/5/6 38/14/6 43/7/6
v 0.8799359798431396 -0.07428800314664841 0.14694100618362427
v 0.8799359798431396 -0.07428800314664841 2.038275957107544
v 0.8799359798431396 0.00043200000072829425 2.038275957107544
f 45/1/1 46/2/1 47/3/1
v 0.8799359798431396 0.00043200000072829425 0.14694100618362427
f 45/1/1 47/3/1 48/4/1
v 0.9211009740829468 0.00043200000072829425 2.038275957107544
f 48/4/2 47/3/2 49/5/2
v 0.9211009740829468 0.00043200000072829425 0.14694100618362427
f 48/4/2 49/5/2 50/6/2
v 0.9211009740829468 -0.07428800314664841 2.038275957107544
f 50/6/3 49/5/3 51/7/3
v 0.9211009740829468 -0.07428800314664841 0.14694100618362427
f 50/6/3 51/7/3 52/8/3
f 52/8/4 51/7/4 46/9/4
f 52/8/4 46/9/4 45/10/4
f 48/11/5 50/6/5 52/8/5
f 48/11/5 52/8/5 45/12/5
f 49/5/6 47/13/6 46/14/6
f 49/5/6 46/14/6 51/7/6
v 0.5894320011138916 -0.07428800314664841 0.14694100618362427
v 0.5894320011138916 -0.07428800314664841 2.038275957107544
v 0.5894320011138916 0.0004309999931138009 2.038275957107544
f 53/1/1 54/2/1 55/3/1
v 0.5894320011138916 0.0004309999931138009 0.14694100618362427
f 53/1/1 55/3/1 56/4/1
v 0.6305969953536987 0.0004309999931138009 2.038275957107544
f 56/4/2 55/3/2 57/5/2
v 0.6305969953536987 0.0004309999931138009 0.14694100618362427
f 56/4/2 57/5/2 58/6/2
v 0.6305969953536987 -0.07428800314664841 2.038275957107544
f 58/6/3 57/5/3 59/7/3
v 0.6305969953536987 -0.07428800314664841 0.14694100618362427
f 58/6/3 59/7/3 60/8/3
f 60/8/4 59/7/4 54/9/4
f 60/8/4 54/9/4 53/10/4
f 56/11/5 58/6/5 60/8/5
f 56/11/5 60/8/5 53/12/5
f 57/5/6 55/13/6 54/14/6
f 57/5/6 54/14/6 59/7/6
v 0.29892799258232117 -0.07428800314664841 0.14694200456142426
v 0.29892900586128235 -0.07428800314664841 2.038275957107544
v 0.29892900586128235 0.0004309999931138009 2.038275957107544
f 61/1/1 62/2/1 63/3/1
v 0.29892799258232117 0.0004309999931138009 0.14694200456142426
f 61/1/1 63/3/1 64/4/1
v 0.3400940001010895 0.0004309999931138009 2.038275957107544
f 64/4/2 63/3/2 65/5/2
v 0.3400940001010895 0.0004309999931138009 0.14694200456142426
f 64/4/2 65/5/2 66/6/2
v 0.3400940001010895 -0.07428800314664841 2.038275957107544
f 66/6/3 65/5/3 67/7/3
v 0.3400940001010895 -0.07428800314664841 0.14694200456142426
f 66/6/3 67/7/3 68/8/3
f 68/8/4 67/7/4 62/9/4
f 68/8/4 62/9/4 61/10/4
f 64/11/5 66/6/5 68/8/5
f 64/11/5 68/8/5 61/12/5
f 65/5/6 63/13/6 62/14/6
f 65/5/6 62/14/6 67/7/6
v -0.3263930082321167 -0.07428800314664841 0.14694200456142426
v -0.3263930082321167 -0.07428800314664841 2.038275957107544
v -0.3263930082321167 0.0004309999931138009 2.038275957107544
f 69/1/1 70/2/1 71/3/1
v -0.3263930082321167 0.0004309999931138009 0.14694200456142426
f 69/1/1 71/3/1 72/4/1
v -0.2852270007133484 0.0004309999931138009 2.038275957107544
f 72/4/2 71/3/2 73/5/2
v -0.28522801399230957 0.0004309999931138009 0.14694200456142426
f 72/4/2 73/5/2 74/6/2
v -0.2852270007133484 -0.07428800314664841 2.038275957107544
f 74/6/3 73/5/3 75/7/3
v -0.28522801399230957 -0.07428800314664841 0.14694200456142426
f 74/6/3 75/7/3 76/8/3
f 76/8/4 75/7/4 70/9/4
f 76/8/4 70/9/4 69/10/4
f 72/11/5 74/6/5 76/8/5
f 72/11/5 76/8/5 69/12/5
f 73/5/6 71/13/6 70/14/6
f 73/5/6 70/14/6 75/7/6
v -0.6168969869613647 -0.07428800314664841 0.14694200456142426
v -0.6168959736824036 -0.07428800314664841 2.038275957107544
v -0.6168959736824036 0.0004309999931138009 2.038275957107544
f 77/1/1 78/2/1 79/3/1
v -0.6168969869613647 0.0004309999931138009 0.14694200456142426
f 77/1/1 79/3/1 80/4/1
v -0.5757309794425964 0.0004309999931138009 2.038275957107544
f 80/4/2 79/3/2 81/5/2
v -0.5757309794425964 0.0004309999931138009 0.14694200456142426
f 80/4/2 81/5/2 82/6/2
v -0.5757309794425964 -0.07428800314664841 2.038275957107544
f 82/6/3 81/5/3 83/7/3
v -0.5757309794425964 -0.07428800314664841 0.14694200456142426
f 82/6/3 83/7/3 84/8/3
f 84/8/4 83/7/4 78/9/4
f 84/8/4 78/9/4 77/10/4
f 80/11/5 82/6/5 84/8/5
f 80/11/5 84/8/5 77/12/5
f 81/5/6 79/13/6 78/14/6
f 81/5/6 78/14/6 83/7/6
v -0.9074000120162964 -0.07428800314664841 0.14694200456142426
v -0.9074000120162964 -0.07428800314664841 2.038275957107544
v -0.9074000120162964 0.0004309999931138009 2.038275957107544
f 85/1/1 86/2/1 87/3/1
v -0.9074000120162964 0.0004309999931138009 0.14694200456142426
f 85/1/1 87/3/1 88/4/1
v -0.8662350177764893 0.0004309999931138009 2.038275957107544
f 88/4/2 87/3/2 89/5/2
v -0.8662350177764893 0.0004309999931138009 0.14694200456142426
f 88/4/2 89/5/2 90/6/2
v -0.8662350177764893 -0.07428800314664841 2.038275957107544
f 90/6/3 89/5/3 91/7/3
v -0.8662350177764893 -0.07428800314664841 0.14694200456142426
f 90/6/3 91/7/3 92/8/3
f 92/8/4 91/7/4 86/9/4
f 92/8/4 86/9/4 85/10/4
f 88/11/5 90/6/5 92/8/5
f 88/11/5 92/8/5 85/12/5
f 89/5/6 87/13/6 86/14/6
f 89/5/6 86/14/6 91/7/6
v -1.2414289712905884 -0.07428800314664841 2.0418860912323
v 1.230512022972107 -0.07428800314664841 2.0418848991394043
v 1.230512022972107 0.00043200000072829425 2.0418848991394043
f 93/1/6 94/2/6 95/3/6
v -1.2414289712905884 0.0004309999931138009 2.0418860912323
f 93/1/6 95/3/6 96/4/6
v 1.230512022972107 0.00043200000072829425 1.9749820232391357
f 96/4/2 95/3/2 97/5/2
v -1.2414289712905884 0.0004309999931138009 1.9749820232391357
f 96/4/2 97/5/2 98/6/2
v 1.230512022972107 -0.07428800314664841 1.9749820232391357
f 98/6/5 97/5/5 99/7/5
v -1.2414289712905884 -0.07428800314664841 1.9749820232391357
f 98/6/5 99/7/5 100/8/5
f 100/8/4 99/7/4 94/9/4
f 100/8/4 94/9/4 93/10/4
f 96/11/1 98/6/1 100/8/1
f 96/11/1 100/8/1 93/12/1
f 97/5/3 95/13/3 94/14/3
f 97/5/3 94/14/3 99/7/3
f 23/5/6 22/21/6 28/22/6
f 23/5/6 28/22/6 25/7/6
f 20/11/5 21/19/5 27/20/5
f 20/11/5 27/20/5 17/12/5
f 26/8/4 25/7/4 28/18/4
f 26/8/4 28/18/4 27/17/4
f 20/4/2 19/3/2 22/16/2
f 20/4/2 22/16/2 21/15/2
o feet##0#0#0#1089015.0
g feet##0#0#0#1089015.0
v 1.0789389610290527 -0.22369399666786194 -0.07711900025606155
v 1.0789389610290527 -0.22369399666786194 0.07711900025606155
v 1.0789389610290527 0.14983800053596497 0.07711900025606155
f 101/1/1 102/2/1 103/3/1
v 1.0789389610290527 0.14983800053596497 -0.07711900025606155
f 101/1/1 103/3/1 104/4/1
v 1.3228000402450562 0.14983800053596497 0.07711900025606155
f 104/4/2 103/3/2 105/5/2
v 1.3228000402450562 0.14983800053596497 -0.07711900025606155
f 104/4/2 105/5/2 106/6/2
v 1.3228000402450562 -0.22369399666786194 0.07711900025606155
f 106/6/3 105/5/3 107/7/3
v 1.3228000402450562 -0.22369399666786194 -0.07711900025606155
f 106/6/3 107/7/3 108/8/3
f 108/8/4 107/7/4 102/9/4
f 108/8/4 102/9/4 101/10/4
f 104/11/5 106/6/5 108/8/5
f 104/11/5 108/8/5 101/12/5
f 105/5/6 103/13/6 102/14/6
f 105/5/6 102/14/6 107/7/6
v -1.3238699436187744 -0.22369399666786194 -0.07711900025606155
v -1.3238699436187744 -0.22369399666786194 0.07711900025606155
v -1.3238699436187744 0.14983700215816498 0.07711900025606155
f 109/1/1 110/2/1 111/3/1
v -1.3238699436187744 0.14983700215816498 -0.07711900025606155
f 109/1/1 111/3/1 112/4/1
v -1.0800089836120605 0.14983700215816498 0.07711900025606155
f 112/4/2 111/3/2 113/5/2
v -1.0800089836120605 0.14983700215816498 -0.07711900025606155
f 112/4/2 113/5/2 114/6/2
v -1.0800089836120605 -0.22369399666786194 0.07711900025606155
f 114/6/3 113/5/3 115/7/3
v -1.0800089836120605 -0.22369399666786194 -0.07711900025606155
f 114/6/3 115/7/3 116/8/3
f 116/8/4 115/7/4 110/9/4
f 116/8/4 110/9/4 109/10/4
f 112/11/5 114/6/5 116/8/5
f 112/11/5 116/8/5 109/12/5
f 113/5/6 111/13/6 110/14/6
f 113/5/6 110/14/6 115/7/6
o Cube##0#0#0#2149869.0
g Cube##0#0#0#2149869.0
v -1.2849409580230713 0.0009699999936856329 1.2434990406036377
vn -0.9991999864578247 -0.0 0.03999999910593033
v -1.2739720344543457 0.0009699999936856329 1.5173929929733276
v -1.2739720344543457 0.07288599759340286 1.5173929929733276
f 117/1/7 118/2/7 119/3/7
v -1.2849409580230713 0.07288599759340286 1.2434990406036377
f 117/1/7 119/3/7 120/4/7
v 1.2740230560302734 0.07288599759340286 1.4153480529785156
f 120/4/2 119/3/2 121/5/2
v 1.2630540132522583 0.07288599759340286 1.1414539813995361
f 120/4/2 121/5/2 122/6/2
vn 0.9991999864578247 -0.0 -0.03999999910593033
v 1.2740230560302734 0.0009710000013001263 1.4153480529785156
f 122/6/8 121/5/8 123/7/8
v 1.2630540132522583 0.0009710000013001263 1.1414539813995361
f 122/6/8 123/7/8 124/8/8
f 124/8/4 123/7/4 118/9/4
f 124/8/4 118/9/4 117/10/4
vn -0.03999999910593033 -0.0 -0.9991999864578247
f 120/11/9 122/6/9 124/8/9
f 120/11/9 124/8/9 117/12/9
vn 0.03999999910593033 -0.0 0.9991999864578247
f 121/5/10 119/13/10 118/14/10
f 121/5/10 118/14/10 123/7/10
