# OBJ file
o __dotobj_group__##0#1#0#-1.0
g __dotobj_group__##0#1#0#-1.0
o construction_light_cord_2##0#4#0#-1.0
g construction_light_cord_2##0#4#0#-1.0
v 0.025570999830961227 -0.0022140000946819782 0.0005419999943114817
vt 0.38636401295661926 0.625
vn 0.060100000351667404 -0.022099999710917473 -0.9979000091552734
v 0.025072000920772552 0.0017800000496208668 0.004406999796628952
vt 0.38636401295661926 0.375
vn -0.10939999669790268 0.9926000237464905 -0.05350000038743019
v 0.050140999257564545 0.0046640001237392426 0.007304000202566385
vt 0.3712120056152344 0.375
vn 0.12030000239610672 0.9901999831199646 0.07119999825954437
f 1/1/1 2/2/2 3/3/3
v 0.05113900080323219 0.0006649999995715916 0.0034360000863671303
vt 0.3712120056152344 0.625
vn 0.10419999808073044 0.11840000003576279 -0.987500011920929
f 1/1/1 3/3/3 4/4/4
v 0.02512199990451336 -0.0020459999796003103 0.008514000102877617
vt 0.38636401295661926 0.125
vn -0.06379999965429306 0.023399999365210533 0.9976999759674072
v 3.000000106112566e-06 -0.0048329997807741165 0.008390000090003014
vt 0.40151500701904297 0.125
vn -0.004699999932199717 -0.018200000748038292 0.9998000264167786
v 3.000000106112566e-06 -0.008821000345051289 0.004542000126093626
vt 0.40151500701904297 0.875
vn 0.10949999839067459 -0.9936000108718872 0.02850000001490116
f 5/5/5 6/6/6 7/7/7
v 0.025621000677347183 -0.006039999891072512 0.004650000017136335
vt 0.38636401295661926 0.875
vn 0.10939999669790268 -0.9940000176429749 0.005799999926239252
f 5/5/5 7/7/7 8/8/8
v 0.05023999884724617 0.0007409999961964786 0.011378999799489975
vt 0.3712120056152344 0.125
vn 0.010099999606609344 0.16680000722408295 0.9858999848365784
f 2/2/2 5/5/5 9/9/9
f 2/2/2 9/9/9 3/3/3
f 8/8/8 1/1/1 4/4/4
v 0.051238998770713806 -0.0032579998951405287 0.007511000148952007
vt 0.3712120056152344 0.875
vn -0.3278999924659729 -0.944100022315979 0.034299999475479126
f 8/8/8 4/4/4 10/10/10
v 3.000000106112566e-06 -0.0050929998978972435 0.00040099999750964344
vt 0.40151500701904297 0.625
vn 0.012900000438094139 -0.08219999819993973 -0.9965000152587891
f 7/7/7 11/11/11 1/1/1
f 7/7/7 1/1/1 8/8/8
v 3.000000106112566e-06 -0.0011050000321120024 0.0042489999905228615
vt 0.40151500701904297 0.375
vn -0.11230000108480453 0.9929999709129333 -0.03669999912381172
f 12/12/12 6/6/6 5/5/5
f 12/12/12 5/5/5 2/2/2
f 9/9/9 5/5/5 8/8/8
f 9/9/9 8/8/8 10/10/10
f 11/11/11 12/12/12 2/2/2
f 11/11/11 2/2/2 1/1/1
v 0.06743299961090088 -0.004528000019490719 0.007304000202566385
vn 0.7724000215530396 0.6128000020980835 0.16699999570846558
f 4/4/4 3/3/3 13/3/13
v 0.06456200033426285 -0.007486000191420317 0.0034360000863671303
vn -0.10679999738931656 0.3424000144004822 -0.9334999918937683
f 4/4/4 13/3/13 14/4/14
v 0.0612809993326664 -0.009638999588787556 0.007511000148952007
vn -0.6151999831199646 -0.744700014591217 0.258899986743927
f 9/9/9 10/10/10 15/10/15
v 0.06415200233459473 -0.006682000122964382 0.011378999799489975
vn 0.22910000383853912 -0.0714000016450882 0.97079998254776
f 9/9/9 15/10/15 16/9/16
f 10/10/10 4/4/4 14/4/14
f 10/10/10 14/4/14 15/10/15
f 3/3/3 9/9/9 16/9/16
f 3/3/3 16/9/16 13/3/13
v 0.06871700286865234 -0.01797799952328205 0.0028299998957663774
vn 0.6657000184059143 -0.5975000262260437 0.44699999690055847
f 13/3/13 16/9/16 17/9/17
v 0.07110200077295303 -0.011238000355660915 0.0028299998957663774
vn 0.8238000273704529 0.5078999996185303 0.25189998745918274
f 13/3/13 17/9/17 18/3/18
v 0.06494999676942825 -0.010809999890625477 0.0028299998957663774
vn -0.6956999897956848 0.35910001397132874 -0.6220999956130981
f 15/10/15 14/4/14 19/4/19
v 0.06256400048732758 -0.017549000680446625 0.0028299998957663774
vn -0.7745000123977661 -0.5424000024795532 0.3255000114440918
f 15/10/15 19/4/19 20/10/20
f 16/9/16 15/10/15 20/10/20
f 16/9/16 20/10/20 17/9/17
f 14/4/14 13/3/13 18/3/18
f 14/4/14 18/3/18 19/4/19
v 0.06871700286865234 -0.016892999410629272 -0.011667000129818916
vn 0.708899974822998 -0.6592000126838684 -0.2508000135421753
f 18/3/18 17/9/17 21/9/21
v 0.07110200077295303 -0.011474000290036201 -0.007325999904423952
vn 0.8769000172615051 0.30309998989105225 0.37310001254081726
f 18/3/18 21/9/21 22/3/22
f 19/4/19 18/3/18 22/3/22
v 0.06494999676942825 -0.011118000373244286 -0.007087999954819679
vn -0.5304999947547913 0.579800009727478 0.618399977684021
f 19/4/19 22/3/22 23/4/23
f 20/10/20 19/4/19 23/4/23
v 0.06256400048732758 -0.016536999493837357 -0.011428999714553356
vn -0.762499988079071 -0.6194999814033508 -0.1867000013589859
f 20/10/20 23/4/23 24/10/24
f 17/9/17 20/10/20 24/10/24
f 17/9/17 24/10/24 21/9/21
v 0.06871700286865234 -0.006147000007331371 -0.02137400023639202
vn 0.722000002861023 -0.19419999420642853 -0.6640999913215637
f 22/3/22 21/9/21 25/9/25
v 0.07110200077295303 -0.0032369999680668116 -0.014138000085949898
vn 0.8654999732971191 -0.03799999877810478 0.49939998984336853
f 22/3/22 25/9/25 26/3/26
f 23/4/23 22/3/22 26/3/26
v 0.06494999676942825 -0.0030769999139010906 -0.01374099962413311
vn -0.5349000096321106 -0.09740000218153 0.8392999768257141
f 23/4/23 26/3/26 27/4/27
v 0.06256400048732758 -0.005987000185996294 -0.020975999534130096
vn -0.6693999767303467 -0.22390000522136688 -0.7084000110626221
f 21/9/21 24/10/24 28/10/28
f 21/9/21 28/10/28 25/9/25
f 24/10/24 23/4/23 27/4/27
f 24/10/24 27/4/27 28/10/28
v 0.06851799786090851 0.011924000456929207 -0.019592000171542168
vn 0.7257000207901001 0.3587000072002411 -0.5871000289916992
f 26/3/26 25/9/25 29/9/29
v 0.07065100222826004 0.009266999550163746 -0.013144999742507935
vn 0.8604000210762024 -0.2913999855518341 0.4180999994277954
f 26/3/26 29/9/29 30/3/30
f 27/4/27 26/3/26 30/3/30
v 0.06514900177717209 0.009120999835431576 -0.012791000306606293
vn -0.5382999777793884 -0.5782999992370605 0.613099992275238
f 27/4/27 30/3/30 31/4/31
f 28/10/28 27/4/27 31/4/31
v 0.06301599740982056 0.011777999810874462 -0.019238000735640526
vn -0.7720999717712402 0.25029999017715454 -0.5842000246047974
f 28/10/28 31/4/31 32/10/32
f 25/9/25 28/10/28 32/10/32
f 25/9/25 32/10/32 29/9/29
v 0.06683299690485 0.021516000851988792 -0.00595200015231967
vn 0.7257000207901001 0.6607999801635742 -0.1914999932050705
f 32/10/32 31/4/31 33/10/33
f 29/9/29 32/10/32 33/9/33
f 30/3/30 29/9/29 33/3/33
f 31/4/31 30/3/30 33/4/33
