# OBJ file
o __dotobj_group__##0#1#0#-1.0
g __dotobj_group__##0#1#0#-1.0
o construction_planks##0#1#0#-1.0
g construction_planks##0#1#0#-1.0
v 0.05575599893927574 0.6492540240287781 0.0
vt 0.375 0.0
vn 1.0 0.0017999999690800905 -0.0
v 0.05575599893927574 0.6492540240287781 0.024075999855995178
vt 0.625 0.0
v 0.05805100128054619 -0.6494439840316772 0.024075999855995178
vt 0.625 0.25
f 1/1/1 2/2/1 3/3/1
v 0.05805100128054619 -0.6494439840316772 0.0
vt 0.375 0.25
f 1/1/1 3/3/1 4/4/1
vn -0.0007999999797903001 -1.0 -0.0
v -0.054391998797655106 -0.6493499875068665 0.024075999855995178
vt 0.625 0.5
f 4/4/2 3/3/2 5/5/2
v -0.054391998797655106 -0.6493499875068665 0.0
vt 0.375 0.5
f 4/4/2 5/5/2 6/6/2
vn -1.0 -0.0 -0.0
v -0.054391998797655106 0.6493499875068665 0.024075999855995178
vt 0.625 0.75
f 6/6/3 5/5/3 7/7/3
v -0.054391998797655106 0.6493499875068665 0.0
vt 0.375 0.75
f 6/6/3 7/7/3 8/8/3
vn 0.0008999999845400453 1.0 -0.0
vt 0.625 1.0
f 8/8/4 7/7/4 2/9/4
vt 0.375 1.0
f 8/8/4 2/9/4 1/10/4
vt 0.125 0.5
vn 0.0 -0.0 -1.0
f 4/11/5 6/6/5 8/8/5
vt 0.125 0.75
f 4/11/5 8/8/5 1/12/5
vn 0.0 -0.0 1.0
vt 0.875 0.5
vt 0.875 0.75
f 5/5/6 3/13/6 2/14/6
f 5/5/6 2/14/6 7/7/6
v -0.06481900066137314 0.6493499875068665 0.0
vn 1.0 -0.0 -0.0
v -0.06481900066137314 0.6493499875068665 0.024075999855995178
v -0.06481900066137314 -0.6493499875068665 0.024075999855995178
f 9/1/7 10/2/7 11/3/7
v -0.06481900066137314 -0.6493499875068665 0.0
f 9/1/7 11/3/7 12/4/7
vn 0.0 -1.0 -0.0
v -0.17360199987888336 -0.6493499875068665 0.024075999855995178
f 12/4/8 11/3/8 13/5/8
v -0.17360199987888336 -0.6493499875068665 0.0
f 12/4/8 13/5/8 14/6/8
v -0.17360199987888336 0.6493499875068665 0.024075999855995178
f 14/6/3 13/5/3 15/7/3
v -0.17360199987888336 0.6493499875068665 0.0
f 14/6/3 15/7/3 16/8/3
vn 0.0 1.0 -0.0
f 16/8/9 15/7/9 10/9/9
f 16/8/9 10/9/9 9/10/9
f 12/11/5 14/6/5 16/8/5
f 12/11/5 16/8/5 9/12/5
f 13/5/6 11/13/6 10/14/6
f 13/5/6 10/14/6 15/7/6
v 0.17660999298095703 0.6247599720954895 0.0
vt 0.375 0.004575014114379883
vn 1.0 -0.004900000058114529 -0.0
v 0.17660999298095703 0.6247599720954895 0.024075999855995178
vt 0.625 0.004575014114379883
v 0.17040100693702698 -0.6501569747924805 0.024075999855995178
f 17/15/10 18/16/10 19/3/10
v 0.17040100693702698 -0.6501569747924805 0.0
f 17/15/10 19/3/10 20/4/10
vn -0.004900000058114529 -1.0 -0.0
v 0.061618998646736145 -0.6496269702911377 0.024075999855995178
f 20/4/11 19/3/11 21/5/11
v 0.061618998646736145 -0.6496269702911377 0.0
f 20/4/11 21/5/11 22/6/11
vn -1.0 0.004900000058114529 -0.0
v 0.06782799959182739 0.6252899765968323 0.024075999855995178
vt 0.625 0.7454249858856201
f 22/6/12 21/5/12 23/17/12
v 0.06782799959182739 0.6252899765968323 0.0
vt 0.375 0.7454249858856201
f 22/6/12 23/17/12 24/18/12
vn 0.004900000058114529 1.0 -0.0
vt 0.625 0.999735999997938
f 24/18/13 23/17/13 18/19/13
vt 0.375 0.999735999997938
f 24/18/13 18/19/13 17/20/13
f 20/11/5 22/6/5 24/18/5
vt 0.125 0.7454249858856201
f 20/11/5 24/18/5 17/21/5
vt 0.875 0.7454249858856201
f 21/5/6 19/13/6 18/22/6
f 21/5/6 18/22/6 23/17/6
v 0.12554100155830383 0.6102920174598694 0.024630000814795494
vt 0.375 0.007499992847442627
v 0.12554100155830383 0.6102920174598694 0.04870599880814552
vt 0.625 0.007499992847442627
v 0.12776699662208557 -0.6494439840316772 0.04870599880814552
f 25/23/1 26/24/1 27/3/1
v 0.12776699662208557 -0.6494439840316772 0.024630000814795494
f 25/23/1 27/3/1 28/4/1
v 0.015324000269174576 -0.6493499875068665 0.04870599880814552
f 28/4/2 27/3/2 29/5/2
v 0.015324000269174576 -0.6493499875068665 0.024630000814795494
f 28/4/2 29/5/2 30/6/2
v 0.015324000269174576 0.6103879809379578 0.04870599880814552
vt 0.625 0.7425000071525574
f 30/6/3 29/5/3 31/25/3
v 0.015324000269174576 0.6103879809379578 0.024630000814795494
vt 0.375 0.7425000071525574
f 30/6/3 31/25/3 32/26/3
vt 0.625 1.0001570000022184
f 32/26/4 31/25/4 26/27/4
vt 0.375 1.0001570000022184
f 32/26/4 26/27/4 25/28/4
f 28/11/5 30/6/5 32/26/5
vt 0.125 0.7425000071525574
f 28/11/5 32/26/5 25/29/5
vt 0.875 0.7425000071525574
f 29/5/6 27/13/6 26/30/6
f 29/5/6 26/30/6 31/25/6
v 0.002328000031411648 0.6492509841918945 0.024630000814795494
vn 1.0 0.0005000000237487257 -0.0
v 0.002328000031411648 0.6492509841918945 0.04870599880814552
v 0.0029929999727755785 -0.6494479775428772 0.04870599880814552
f 33/1/14 34/2/14 35/3/14
v 0.0029929999727755785 -0.6494479775428772 0.024630000814795494
f 33/1/14 35/3/14 36/4/14
v -0.10944999754428864 -0.6492130160331726 0.05335799977183342
vn 0.18230000138282776 -0.00019999999494757503 0.9832000136375427
v -0.08402899652719498 -0.6492660045623779 0.04870599880814552
vt 0.6815189719200134 0.5
v -0.08306299895048141 0.64935702085495 0.04870599880814552
vt 0.6812049746513367 0.75
f 37/5/15 38/31/15 39/32/15
v -0.10781899839639664 0.6494849920272827 0.05335799977183342
f 37/5/15 39/32/15 40/7/15
v -0.10944999754428864 -0.6492130160331726 0.024630000814795494
vn -1.0 0.0013000000035390258 -0.0
f 41/6/16 37/5/16 40/7/16
v -0.10781899839639664 0.6494849920272827 0.024630000814795494
f 41/6/16 40/7/16 42/8/16
v -0.07046200335025787 -0.6492940187454224 0.024630000814795494
vt 0.2883169949054718 0.5
v -0.06949599832296371 0.6493290066719055 0.024630000814795494
vt 0.28800299763679504 0.75
f 36/11/5 43/33/5 44/34/5
f 36/11/5 44/34/5 33/12/5
vn 0.005200000014156103 1.0 -0.0
vt 0.625 0.8062050044536591
f 42/8/17 40/7/17 39/35/17
v -0.08306299895048141 0.64935702085495 0.024630000814795494
vt 0.375 0.8062050044536591
f 42/8/17 39/35/17 45/36/17
v 0.05842199921607971 0.6495450139045715 0.048854000866413116
vn 1.0 0.006599999964237213 -0.0
v 0.05842199921607971 0.6495450139045715 0.079025998711586
v 0.06701599806547165 -0.6491259932518005 0.079025998711586
f 46/1/18 47/2/18 48/3/18
v 0.06701599806547165 -0.6491259932518005 0.048854000866413116
f 46/1/18 48/3/18 49/4/18
vn 0.004000000189989805 -1.0 -0.0
v -0.04542599990963936 -0.6495770215988159 0.07293099910020828
f 49/4/19 48/3/19 50/5/19
v -0.04542599990963936 -0.6495770215988159 0.048854000866413116
f 49/4/19 50/5/19 51/6/19
vn -1.0 -0.004900000058114529 -0.0
v -0.05172500014305115 0.6491060256958008 0.07293099910020828
f 51/6/20 50/5/20 52/7/20
v -0.05172500014305115 0.6491060256958008 0.048854000866413116
f 51/6/20 52/7/20 53/8/20
vn -0.004000000189989805 1.0 -0.0
f 53/8/21 52/7/21 47/9/21
f 53/8/21 47/9/21 46/10/21
f 49/11/5 51/6/5 53/8/5
f 49/11/5 53/8/5 46/12/5
vn -0.05469999834895134 -0.0003000000142492354 0.9984999895095825
f 50/5/22 48/13/22 47/14/22
f 50/5/22 47/14/22 52/7/22
v -0.07046200335025787 -0.6492940187454224 0.04870599880814552
vt 0.7116829752922058 0.5
f 54/37/6 35/13/6 34/14/6
v -0.06949599832296371 0.6493290066719055 0.04870599880814552
vt 0.7119969725608826 0.75
f 54/37/6 34/14/6 55/38/6
v -0.08402899652719498 -0.6492660045623779 0.024630000814795494
vt 0.375 0.4434810280799866
vn -0.002099999925121665 -1.0 -0.0
vt 0.625 0.4434810280799866
f 56/39/23 38/40/23 37/5/23
f 56/39/23 37/5/23 41/6/23
vt 0.375 0.836997002363205
vn 0.0010999999940395355 1.0 -0.0
vt 0.625 0.836997002363205
f 44/41/24 55/42/24 34/9/24
f 44/41/24 34/9/24 33/10/24
vt 0.3184809982776642 0.5
f 56/43/5 41/6/5 42/8/5
vt 0.31879499554634094 0.75
f 56/43/5 42/8/5 45/44/5
v -0.0780009999871254 0.6300839781761169 0.04870599880814552
vt 0.6966009736061096 0.75
f 54/37/6 55/38/6 57/45/6
v -0.07724600285291672 -0.6492800116539001 0.04870599880814552
vt 0.6966009736061096 0.5
f 54/37/6 57/45/6 58/46/6
f 58/46/6 57/45/6 39/32/6
f 58/46/6 39/32/6 38/31/6
v -0.0780009999871254 0.6300839781761169 0.024630000814795494
vt 0.303398996591568 0.75
f 56/43/5 45/44/5 59/47/5
v -0.07724600285291672 -0.6492800116539001 0.024630000814795494
vt 0.303398996591568 0.5
f 56/43/5 59/47/5 60/48/5
f 60/48/5 59/47/5 44/34/5
f 60/48/5 44/34/5 43/33/5
vn -0.9146999716758728 0.4041999876499176 -0.0
vt 0.375 0.821601003408432
f 55/42/25 44/41/25 59/49/25
vt 0.625 0.821601003408432
f 55/42/25 59/49/25 57/50/25
vn 0.967199981212616 0.2540000081062317 -0.0
f 57/50/26 59/49/26 45/36/26
f 57/50/26 45/36/26 39/35/26
vt 0.375 0.4283990263938904
f 38/40/23 56/39/23 60/51/23
vt 0.625 0.4283990263938904
f 38/40/23 60/51/23 58/52/23
vt 0.375 0.4133170247077942
f 58/52/23 60/51/23 43/53/23
vt 0.625 0.4133170247077942
f 58/52/23 43/53/23 54/54/23
f 36/4/23 35/3/23 54/54/23
f 36/4/23 54/54/23 43/53/23
v 0.06790199875831604 0.6254839897155762 0.079755999147892
vn 0.9984999895095825 0.0019000000320374966 0.055399999022483826
v 0.0665690004825592 0.6254839897155762 0.10379599779844284
v 0.06886100023984909 -0.6015239953994751 0.103923000395298
f 61/1/27 62/2/27 63/3/27
v 0.07019399851560593 -0.6015239953994751 0.07988300174474716
f 61/1/27 63/3/27 64/4/27
v -0.04340999945998192 -0.6014299988746643 0.09769699722528458
f 64/4/2 63/3/2 65/5/2
v -0.04207700118422508 -0.6014299988746643 0.07365799695253372
f 64/4/2 65/5/2 66/6/2
vn -0.9984999895095825 -0.0 -0.055399999022483826
v -0.04340999945998192 0.6255800127983093 0.09769699722528458
f 66/6/28 65/5/28 67/7/28
v -0.04207700118422508 0.6255800127983093 0.07365799695253372
f 66/6/28 67/7/28 68/8/28
f 68/8/4 67/7/4 62/9/4
f 68/8/4 62/9/4 61/10/4
vn -0.055399999022483826 -0.0 0.9984999895095825
f 65/5/29 63/13/29 62/14/29
f 65/5/29 62/14/29 67/7/29
v -0.15174099802970886 0.2800210118293762 0.038047000765800476
vt 0.375 0.08883202075958252
vn -0.09700000286102295 0.9940999746322632 -0.04800000041723251
v -0.16345100104808807 0.2799130082130432 0.05908399820327759
vt 0.625 0.08883202075958252
v -0.030711999163031578 0.29642000794410706 0.13295400142669678
vt 0.625 0.11806899309158325
f 69/55/30 70/56/30 71/57/30
v -0.019001999869942665 0.2965660095214844 0.11191699653863907
vt 0.375 0.11806899309158325
f 69/55/30 71/57/30 72/58/30
v -0.019009999930858612 0.24998299777507782 0.11177899688482285
vt 0.375 0.2619600296020508
vn 0.8737999796867371 -0.0015999999595806003 0.4864000082015991
v -0.030719999223947525 0.24986599385738373 0.13281600177288055
vt 0.625 0.2619600296020508
v -0.030703000724315643 0.15025700628757477 0.13246099650859833
vt 0.625 0.6319310069084167
f 73/59/31 74/60/31 75/61/31
v -0.01899299956858158 0.1504029929637909 0.11142399907112122
vt 0.375 0.6319310069084167
f 73/59/31 75/61/31 76/62/31
v -0.15167200565338135 0.16739000380039215 0.03755500167608261
vt 0.375 0.6611680090427399
vn -0.02199999988079071 -0.9995999932289124 -0.01720000058412552
v -0.16338199377059937 0.16728299856185913 0.05859199911355972
vt 0.625 0.6611680090427399
v -0.22806699573993683 0.16932600736618042 0.022585000842809677
vt 0.625 0.6754199862480164
f 77/63/32 78/64/32 79/65/32
v -0.21635699272155762 0.1694290041923523 0.0015480000292882323
vt 0.375 0.6754199862480164
f 77/63/32 79/65/32 80/66/32
v -0.21642200648784637 0.2615149915218353 0.001964000053703785
vt 0.375 0.9501809999346733
vn -0.8737999796867371 0.0015999999595806003 -0.4864000082015991
v -0.2281319946050644 0.26141199469566345 0.023000000044703484
vt 0.625 0.9501809999346733
v -0.22814400494098663 0.27810800075531006 0.023075999692082405
f 81/67/33 82/68/33 83/9/33
v -0.21643400192260742 0.2782120108604431 0.0020389999262988567
f 81/67/33 83/9/33 84/10/33
v -0.1517219990491867 0.24848200380802155 0.03790900111198425
vt 0.19500499963760376 0.6611680090427399
vn 0.4864000082015991 0.00419999985024333 -0.8737000226974487
f 85/69/34 77/63/34 80/66/34
v -0.2164130061864853 0.24774999916553497 0.00190100003965199
vt 0.19500499963760376 0.6754199862480164
f 85/69/34 80/66/34 86/70/34
v -0.163441002368927 0.2626259922981262 0.059007998555898666
vt 0.8366280198097229 0.6611680090427399
vn -0.486299991607666 -0.00419999985024333 0.8737999796867371
vt 0.875 0.6611680090427399
vt 0.875 0.6754199862480164
f 87/71/35 70/72/35 83/73/35
vt 0.8366280198097229 0.6754199862480164
f 87/71/35 83/73/35 82/74/35
v -0.030727000907063484 0.26511698961257935 0.13287800550460815
vt 0.8366280198097229 0.6319310069084167
vn -0.4862000048160553 -0.0027000000700354576 0.8738999962806702
vt 0.875 0.6319310069084167
f 88/75/36 71/76/36 70/72/36
f 88/75/36 70/72/36 87/71/36
vt 0.19500499963760376 0.6319310069084167
vn 0.48660001158714294 0.003599999938160181 -0.8736000061035156
f 73/77/37 76/62/37 77/63/37
f 73/77/37 77/63/37 85/69/37
vn -0.09470000118017197 -0.9937999844551086 -0.05869999900460243
f 76/62/38 75/61/38 78/64/38
f 76/62/38 78/64/38 77/63/38
vt 0.375 0.07458001375198364
vn -0.023399999365210533 0.9997000098228455 -0.00800000037997961
vt 0.625 0.07458001375198364
f 84/78/39 83/79/39 70/56/39
f 84/78/39 70/56/39 69/55/39
v -0.019016999751329422 0.26523301005363464 0.11184100061655045
vt 0.1633719950914383 0.6319310069084167
vn 0.486299991607666 0.004100000020116568 -0.8737999796867371
v -0.04023800045251846 0.2561489939689636 0.09998899698257446
vt 0.18229499459266663 0.6319310069084167
v -0.15172499418258667 0.2542079985141754 0.03793400153517723
vt 0.18229499459266663 0.6611680090427399
f 89/80/40 90/81/40 91/82/40
v -0.1517309993505478 0.26273301243782043 0.037971001118421555
vt 0.1633719950914383 0.6611680090427399
f 89/80/40 91/82/40 92/83/40
vt 0.8049950003623962 0.6319310069084167
vn -0.486299991607666 -0.003800000064074993 0.8737999796867371
v -0.051947999745607376 0.25603199005126953 0.12102600187063217
vt 0.817704975605011 0.6319310069084167
v -0.16343499720096588 0.2540999948978424 0.05897099897265434
vt 0.817704975605011 0.6611680090427399
f 74/84/41 93/85/41 94/86/41
v -0.16343200206756592 0.24837400019168854 0.058945998549461365
vt 0.8049950003623962 0.6611680090427399
f 74/84/41 94/86/41 95/87/41
v -0.22812600433826447 0.2531780004501343 0.02296300046145916
vt 0.817704975605011 0.6754199862480164
f 95/87/35 94/86/35 96/88/35
v -0.22812199592590332 0.2476470023393631 0.022938000038266182
vt 0.8049950003623962 0.6754199862480164
f 95/87/35 96/88/35 97/89/35
vn 0.486299991607666 0.00419999985024333 -0.8737999796867371
v -0.21641600131988525 0.25328099727630615 0.0019259999971836805
vt 0.18229499459266663 0.6754199862480164
f 92/83/42 91/82/42 98/90/42
vt 0.1633719950914383 0.6754199862480164
f 92/83/42 98/90/42 81/91/42
vt 0.375 0.909111000597477
vt 0.625 0.909111000597477
vt 0.625 0.9256130009889603
f 86/92/33 97/93/33 96/94/33
vt 0.375 0.9256130009889603
f 86/92/33 96/94/33 98/95/33
vt 0.375 0.19694000482559204
vn 0.30809998512268066 -0.9366999864578247 0.1662999987602234
vt 0.625 0.19694101810455322
vt 0.625 0.23583602905273438
f 89/96/43 88/97/43 93/98/43
vt 0.375 0.23583602905273438
f 89/96/43 93/98/43 90/99/43
f 80/66/33 79/65/33 97/93/33
f 80/66/33 97/93/33 86/92/33
vn -0.4864000082015991 -0.00419999985024333 0.8737000226974487
f 78/64/44 95/87/44 97/89/44
f 78/64/44 97/89/44 79/65/44
vn -0.48660001158714294 -0.003599999938160181 0.8736000061035156
f 75/61/45 74/84/45 95/87/45
f 75/61/45 95/87/45 78/64/45
vn 0.486299991607666 0.003800000064074993 -0.8737999796867371
f 90/81/46 73/77/46 85/69/46
f 90/81/46 85/69/46 91/82/46
f 91/82/42 85/69/42 86/70/42
f 91/82/42 86/70/42 98/90/42
vn 0.21279999613761902 0.9692000150680542 0.12380000203847885
f 90/99/47 93/98/47 74/60/47
f 90/99/47 74/60/47 73/59/47
f 72/58/31 71/57/31 88/97/31
f 72/58/31 88/97/31 89/96/31
vt 0.125 0.6611680090427399
f 69/100/42 92/83/42 81/91/42
vt 0.125 0.6754199862480164
f 69/100/42 81/91/42 84/101/42
vt 0.125 0.6319310069084167
vn 0.4862000048160553 0.0027000000700354576 -0.8738999962806702
f 72/102/48 89/80/48 92/83/48
f 72/102/48 92/83/48 69/100/48
vn -0.486299991607666 -0.004100000020116568 0.8737999796867371
f 93/85/49 88/75/49 87/71/49
f 93/85/49 87/71/49 94/86/49
f 94/86/35 87/71/35 82/74/35
f 94/86/35 82/74/35 96/88/35
f 98/95/33 96/94/33 82/68/33
f 98/95/33 82/68/33 81/67/33
o construction_planks.COLLIDER##0#1#0#-1.0
g construction_planks.COLLIDER##0#1#0#-1.0
v 0.17959600687026978 0.6540700197219849 -0.0
v 0.17959600687026978 0.6540700197219849 0.028219999745488167
v 0.17959600687026978 -0.6540700197219849 0.028219999745488167
f 99/1/7 100/2/7 101/3/7
v 0.17959600687026978 -0.6540700197219849 -0.0
f 99/1/7 101/3/7 102/4/7
v -0.11329299956560135 -0.6540700197219849 -0.0
vt 0.375 0.4538530111312866
v -0.11329299956560135 -0.6540700197219849 0.028219999745488167
vt 0.625 0.4538530111312866
v -0.17959600687026978 -0.6540700197219849 0.028219999745488167
f 103/103/8 104/104/8 105/5/8
v -0.17959600687026978 -0.6540700197219849 -0.0
f 103/103/8 105/5/8 106/6/8
v -0.17959600687026978 0.6540700197219849 0.028219999745488167
f 106/6/3 105/5/3 107/7/3
v -0.17959600687026978 0.6540700197219849 -0.0
f 106/6/3 107/7/3 108/8/3
v 0.13022400438785553 0.6540700197219849 -0.0
vt 0.375 0.9656369984149933
v 0.13022400438785553 0.6540700197219849 0.028219999745488167
vt 0.625 0.9656369984149933
f 109/105/9 110/106/9 100/9/9
f 109/105/9 100/9/9 99/10/9
vt 0.3288530111312866 0.5
f 103/107/5 106/6/5 108/8/5
v -0.11329299956560135 0.6540700197219849 -0.0
vt 0.3288530111312866 0.75
f 103/107/5 108/8/5 111/108/5
v 0.13022400438785553 -0.6540700197219849 0.028219999745488167
vt 0.8406370282173157 0.5
f 112/109/6 101/13/6 100/14/6
vt 0.8406370282173157 0.75
f 112/109/6 100/14/6 110/110/6
vt 0.6711469888687134 0.5
v -0.11329299956560135 0.6540700197219849 0.028219999745488167
vt 0.6711469888687134 0.75
f 105/5/6 104/111/6 113/112/6
f 105/5/6 113/112/6 107/7/6
v 0.13022400438785553 -0.6540700197219849 -0.0
vt 0.1593630015850067 0.5
f 114/113/5 103/107/5 111/108/5
vt 0.1593630015850067 0.75
f 114/113/5 111/108/5 109/114/5
vt 0.625 0.7961470037698746
f 108/8/9 107/7/9 113/115/9
vt 0.375 0.7961470037698746
f 108/8/9 113/115/9 111/116/9
vt 0.375 0.2843629717826843
vt 0.625 0.2843629717826843
f 114/117/8 112/118/8 104/104/8
f 114/117/8 104/104/8 103/103/8
f 102/4/8 101/3/8 112/118/8
f 102/4/8 112/118/8 114/117/8
f 102/11/5 114/113/5 109/114/5
f 102/11/5 109/114/5 99/12/5
vn -0.8241000175476074 -0.0 0.5663999915122986
v -0.07106799632310867 -0.6540700197219849 0.08965300023555756
f 113/112/50 104/111/50 115/111/50
v -0.07106799632310867 0.6540700197219849 0.08965300023555756
f 113/112/50 115/111/50 116/112/50
f 111/116/9 113/115/9 110/106/9
f 111/116/9 110/106/9 109/105/9
v 0.08168800175189972 -0.6540700197219849 0.08965300023555756
v 0.08168800175189972 0.6540700197219849 0.08965300023555756
f 115/111/6 117/109/6 118/110/6
f 115/111/6 118/110/6 116/112/6
f 110/106/9 113/115/9 116/115/9
f 110/106/9 116/115/9 118/106/9
vn 0.7846999764442444 -0.0 0.6198999881744385
f 112/109/51 110/110/51 118/110/51
f 112/109/51 118/110/51 117/109/51
f 104/104/8 112/118/8 117/118/8
f 104/104/8 117/118/8 115/104/8
