# OBJ file
o __dotobj_group__##0#1#0#-1.0
g __dotobj_group__##0#1#0#-1.0
o Cube.109_Cube.274##0#0#0#2149869.0
g Cube.109_Cube.274##0#0#0#2149869.0
v -0.04977300018072128 0.03139699995517731 0.45626300573349
vt 0.375 0.0
vn -1.0 -0.0 0.0008999999845400453
v -0.05011900141835213 0.03139699995517731 0.05910699814558029
vt 0.625 0.0
v -0.05011900141835213 -0.03139699995517731 0.05910699814558029
vt 0.625 0.25
f 1/1/1 2/2/1 3/3/1
v -0.04977300018072128 -0.03139699995517731 0.45626300573349
vt 0.375 0.25
f 1/1/1 3/3/1 4/4/1
vn 0.0 -1.0 -0.0
v 0.03924199938774109 -0.03139699995517731 0.05902799963951111
vt 0.625 0.5
f 4/4/2 3/3/2 5/5/2
v 0.03958699852228165 -0.03139699995517731 0.4561850130558014
vt 0.375 0.5
f 4/4/2 5/5/2 6/6/2
vn 1.0 -0.0 -0.0008999999845400453
v 0.03924199938774109 0.03139699995517731 0.059029001742601395
vt 0.625 0.75
f 6/6/3 5/5/3 7/7/3
v 0.03958699852228165 0.03139699995517731 0.4561850130558014
vt 0.375 0.75
f 6/6/3 7/7/3 8/8/3
vn 0.0 1.0 -0.0
vt 0.625 1.0
f 8/8/4 7/7/4 2/9/4
vt 0.375 1.0
f 8/8/4 2/9/4 1/10/4
vn -0.0008999999845400453 -0.0 -1.0
vt 0.875 0.5
vt 0.875 0.75
f 5/5/5 3/11/5 2/12/5
f 5/5/5 2/12/5 7/7/5
o Cube.109_Cube.274##0#0#1#4593895.0
g Cube.109_Cube.274##0#0#1#4593895.0
v 0.0927169993519783 -0.022512000054121017 0.5123370289802551
vt 0.375 0.5353749990463257
v 0.0927169993519783 0.022512000054121017 0.5123370289802551
vt 0.375 0.7146250009536743
v 0.09277600049972534 0.022512000054121017 0.5799790024757385
f 9/13/3 10/14/3 11/14/3
v 0.09277600049972534 -0.022512000054121017 0.5799790024757385
f 9/13/3 11/14/3 12/13/3
v -0.04961699992418289 -0.03139699995517731 0.6363009810447693
vt 0.125 0.5
vn 0.0008999999845400453 -0.0 1.0
v 0.039744000881910324 -0.03139699995517731 0.6362230181694031
v 0.039744000881910324 0.03139699995517731 0.6362230181694031
f 13/15/6 14/6/6 15/8/6
v -0.04961699992418289 0.03139699995517731 0.6363009810447693
vt 0.125 0.75
f 13/15/6 15/8/6 16/16/6
f 8/8/4 1/10/4 16/10/4
f 8/8/4 16/10/4 15/8/4
f 4/4/2 6/6/2 14/6/2
f 4/4/2 14/6/2 13/4/2
v -0.1028050035238266 0.022512000054121017 0.5125070214271545
vt 0.375 0.035374999046325684
v -0.1028050035238266 -0.022512000054121017 0.5125070214271545
vt 0.375 0.21462500095367432
v -0.10274700075387955 -0.022512000054121017 0.5801489949226379
f 17/17/1 18/18/1 19/18/1
v -0.10274700075387955 0.022512000054121017 0.5801489949226379
f 17/17/1 19/18/1 20/17/1
vn -0.7275999784469604 -0.0 -0.6859999895095825
f 18/18/7 17/17/7 1/1/7
f 18/18/7 1/1/7 4/4/7
vn 0.7264000177383423 -0.0 -0.6873000264167786
f 10/14/8 9/13/8 6/6/8
f 10/14/8 6/6/8 8/8/8
vn -0.7264000177383423 -0.0 0.6873000264167786
f 20/17/9 19/18/9 13/4/9
f 20/17/9 13/4/9 16/1/9
vn 0.7275999784469604 -0.0 0.6859999895095825
f 12/13/10 11/14/10 15/8/10
f 12/13/10 15/8/10 14/6/10
vn 0.16509999334812164 0.986299991607666 -9.999999747378752e-05
f 11/14/11 10/14/11 8/8/11
f 11/14/11 8/8/11 15/8/11
vn 0.16509999334812164 -0.986299991607666 -9.999999747378752e-05
f 9/13/12 12/13/12 14/6/12
f 9/13/12 14/6/12 6/6/12
vn -0.16509999334812164 0.986299991607666 9.999999747378752e-05
f 17/17/13 20/17/13 16/1/13
f 17/17/13 16/1/13 1/1/13
vn -0.16509999334812164 -0.986299991607666 9.999999747378752e-05
f 19/18/14 18/18/14 4/4/14
f 19/18/14 4/4/14 13/4/14
