# OBJ file
o __dotobj_group__##0#1#0#-1.0
g __dotobj_group__##0#1#0#-1.0
o Cube.037_Cube.008##0#0#0#1644052.0
g Cube.037_Cube.008##0#0#0#1644052.0
v 0.2526240050792694 0.3124130070209503 0.8981289863586426
vt 0.375 0.0
vn 0.7050999999046326 0.0 0.7091000080108643
v 0.1448269933462143 0.3124130070209503 1.005316972732544
vt 0.625 0.0
v 0.1448269933462143 0.0968170017004013 1.005316972732544
vt 0.625 0.25
f 1/1/1 2/2/1 3/3/1
v 0.2526240050792694 0.0968170017004013 0.8981289863586426
vt 0.375 0.25
f 1/1/1 3/3/1 4/4/1
v 0.0370279997587204 0.0968170017004013 0.8981289863586426
vt 0.375 0.5
vn -0.7050999999046326 0.0 0.7091000080108643
vt 0.625 0.5
vt 0.625 0.75
f 5/5/2 3/6/2 2/7/2
v 0.0370279997587204 0.3124130070209503 0.8981289863586426
vt 0.375 0.75
f 5/5/2 2/7/2 6/8/2
vn -0.0 1.0 0.0
vt 0.625 1.0
vt 0.375 1.0
f 6/8/3 2/9/3 1/10/3
vt 0.125 0.5
vn -0.0 -0.0 -1.0
f 4/11/4 5/5/4 6/8/4
vt 0.125 0.75
f 4/11/4 6/8/4 1/12/4
o Cube.040_Cube.008##0#0#0#1351935.0
g Cube.040_Cube.008##0#0#0#1351935.0
v -0.22466300427913666 0.3124130070209503 1.0055999755859375
vn -0.7050999999046326 0.0 -0.7091000080108643
v -0.11686599999666214 0.3124130070209503 0.8984119892120361
v -0.11686599999666214 0.0968170017004013 0.8984119892120361
f 7/1/5 8/2/5 9/3/5
v -0.22466300427913666 0.0968170017004013 1.0055999755859375
f 7/1/5 9/3/5 10/4/5
v -0.009069000370800495 0.0968170017004013 1.0055999755859375
vn 0.7050999999046326 0.0 -0.7091000080108643
f 11/5/6 9/6/6 8/7/6
v -0.009069000370800495 0.3124130070209503 1.0055999755859375
f 11/5/6 8/7/6 12/8/6
f 12/8/3 8/9/3 7/10/3
vn -0.0 0.0 1.0
f 10/11/7 11/5/7 12/8/7
f 10/11/7 12/8/7 7/12/7
o elevator_DOOR_SLIDE.COLLIDER.VISIBLE.001_Cube.002##0#0#0#12824998.0
g elevator_DOOR_SLIDE.COLLIDER.VISIBLE.001_Cube.002##0#0#0#12824998.0
v 0.32567301392555237 0.07421699911355972 -0.03854300081729889
vn 1.0 0.0 0.0
v 0.32567301392555237 0.15610699355602264 -0.03854300081729889
v 0.32567301392555237 0.15610699355602264 0.8452339768409729
f 13/1/8 14/4/8 15/3/8
v 0.32567301392555237 0.07421699911355972 0.8452339768409729
f 13/1/8 15/3/8 16/2/8
v -0.3178730010986328 0.15610699355602264 -0.03854300081729889
v -0.3178730010986328 0.15610699355602264 0.8452339768409729
f 14/4/3 17/5/3 18/6/3
f 14/4/3 18/6/3 15/3/3
vn -1.0 0.0 0.0
v -0.3178730010986328 0.07421699911355972 -0.03854300081729889
v -0.3178730010986328 0.07421699911355972 0.8452339768409729
f 17/5/9 19/8/9 20/7/9
f 17/5/9 20/7/9 18/6/9
vn -0.0 -1.0 0.0
f 19/8/10 13/10/10 16/9/10
f 19/8/10 16/9/10 20/7/10
f 14/11/4 13/12/4 19/8/4
f 14/11/4 19/8/4 17/5/4
vt 0.875 0.75
f 18/6/7 20/7/7 16/13/7
vt 0.875 0.5
f 18/6/7 16/13/7 15/14/7
o elevator_frame.COLLIDER.VISIBLE.001_Cube.008##0#0#0#12824998.0
g elevator_frame.COLLIDER.VISIBLE.001_Cube.008##0#0#0#12824998.0
v 0.4934470057487488 0.13317500054836273 -0.009146000258624554
v 0.4934470057487488 0.2577260136604309 -0.009146000258624554
v 0.4934470057487488 0.2577260136604309 1.0637120008468628
f 21/1/8 22/4/8 23/3/8
v 0.4934470057487488 0.13317500054836273 1.0637120008468628
f 21/1/8 23/3/8 24/2/8
v -0.48771899938583374 0.2577260136604309 -0.009146000258624554
v -0.48771899938583374 0.13317500054836273 -0.009146000258624554
v -0.48771899938583374 0.13317500054836273 1.0637120008468628
f 25/5/9 26/8/9 27/7/9
v -0.48771899938583374 0.2577260136604309 1.0637120008468628
f 25/5/9 27/7/9 28/6/9
v -0.30280598998069763 0.13317500054836273 -0.00861200038343668
vt 0.4261209964752197 0.7971159964799881
v -0.30280598998069763 0.2577260136604309 -0.00861200038343668
vt 0.4261209964752197 0.4528840184211731
v -0.30280598998069763 0.2577260136604309 0.8339160084724426
vt 0.5738790035247803 0.4528840184211731
f 29/15/8 30/16/8 31/17/8
v -0.30280598998069763 0.13317500054836273 0.8339160084724426
vt 0.5738790035247803 0.7971159964799881
f 29/15/8 31/17/8 32/18/8
f 28/6/7 27/7/7 24/13/7
f 28/6/7 24/13/7 23/14/7
v 0.30853399634361267 0.13317500054836273 -0.00861200038343668
vt 0.4261209964752197 0.9528839997947216
f 33/19/10 21/10/10 24/9/10
v 0.30853399634361267 0.13317500054836273 0.8339160084724426
vt 0.5738790035247803 0.9528839997947216
f 33/19/10 24/9/10 34/20/10
v 0.30853399634361267 0.2577260136604309 0.8339160084724426
vt 0.5738790035247803 0.2971159815788269
f 35/21/3 23/3/3 22/4/3
v 0.30853399634361267 0.2577260136604309 -0.00861200038343668
vt 0.4261209964752197 0.2971159815788269
f 35/21/3 22/4/3 36/22/3
f 33/19/9 34/20/9 35/21/9
f 33/19/9 35/21/9 36/22/9
f 31/17/3 28/6/3 23/3/3
f 31/17/3 23/3/3 35/21/3
f 30/16/3 25/5/3 28/6/3
f 30/16/3 28/6/3 31/17/3
f 32/18/10 27/7/10 26/8/10
f 32/18/10 26/8/10 29/15/10
f 32/18/4 31/17/4 35/21/4
f 32/18/4 35/21/4 34/20/4
f 34/20/10 24/9/10 27/7/10
f 34/20/10 27/7/10 32/18/10
o elevator_inner.COLLIDER.VISIBLE.001_Cube.002##0#1#0#-1.0
g elevator_inner.COLLIDER.VISIBLE.001_Cube.002##0#1#0#-1.0
v -0.47683799266815186 0.17893999814987183 0.0052919997833669186
vt 0.375 0.9166669994592667
v -0.47683799266815186 0.17893999814987183 1.0512230396270752
vt 0.625 0.9166669994592667
v -0.47683799266815186 -0.7108209729194641 1.0512230396270752
f 37/23/8 38/24/8 39/24/8
v -0.47683799266815186 -0.7108209729194641 0.0052919997833669186
f 37/23/8 39/24/8 40/23/8
v 0.48345500230789185 0.17893999814987183 1.0512230396270752
v 0.48345500230789185 -0.7108209729194641 1.0512230396270752
f 38/24/4 41/9/4 42/9/4
f 38/24/4 42/9/4 39/24/4
v 0.48345500230789185 0.17893999814987183 0.0052919997833669186
v 0.48345500230789185 -0.7108209729194641 0.0052919997833669186
f 41/9/9 43/10/9 44/10/9
f 41/9/9 44/10/9 42/9/9
f 44/10/3 40/23/3 39/24/3
f 44/10/3 39/24/3 42/9/3
o elevator_inner.COLLIDER.VISIBLE.001_Cube.002##0#2#1#-1.0
g elevator_inner.COLLIDER.VISIBLE.001_Cube.002##0#2#1#-1.0
f 40/23/7 44/10/7 43/10/7
f 40/23/7 43/10/7 37/23/7
