# OBJ file
o __dotobj_group__##0#1#0#-1.0
g __dotobj_group__##0#1#0#-1.0
o extra_tall_semicircle##0#2#0#-1.0
g extra_tall_semicircle##0#2#0#-1.0
v 2.2024099826812744 -0.39477500319480896 4.922823905944824
vt 0.48750001192092896 0.6884399950504303
vn 0.005200000014156103 -1.0 0.0017999999690800905
v 1.9421650171279907 -0.3907949924468994 6.910365104675293
vt 0.4749999940395355 0.6884399950504303
v -1.4030239582061768 -0.41008099913597107 6.82350492477417
vt 1.0 1.0
f 1/1/1 2/2/1 3/3/1
v -1.403022050857544 -0.4116620123386383 4.922823905944824
vt 0.0 1.0
f 1/1/1 3/3/1 4/4/1
v 1.9421650171279907 -0.3907960057258606 2.935283899307251
vt 0.5 0.6884399950504303
vn 0.005200000014156103 -1.0 -0.0017999999690800905
f 5/5/2 1/1/2 4/3/2
v -1.4030239582061768 -0.41008201241493225 3.022144079208374
f 5/5/2 4/3/2 6/4/2
v 2.2024099826812744 0.39477699995040894 4.922823905944824
vn 0.005200000014156103 1.0 0.0017999999690800905
v -1.403022050857544 0.4116640090942383 4.922823905944824
v -1.4030239582061768 0.41008299589157104 6.82350492477417
f 7/1/3 8/3/3 9/4/3
v 1.9421650171279907 0.3907969892024994 6.910365104675293
f 7/1/3 9/4/3 10/2/3
v 1.9421650171279907 0.3907960057258606 2.935283899307251
vn 0.005200000014156103 1.0 -0.0017999999690800905
v -1.4030239582061768 0.41008299589157104 3.022144079208374
f 11/5/4 12/3/4 8/4/4
f 11/5/4 8/4/4 7/1/4
v 2.164669990539551 9.999999974752427e-07 6.851343154907227
vt 0.4749999940395355 0.5004700124263763
vn 0.9916999936103821 0.0 0.12870000302791595
vn 0.8748000264167786 -0.47099998593330383 0.11349999904632568
vn 0.8805000185966492 -0.4740999937057495 0.0
f 13/6/5 2/2/6 1/1/7
v 2.410546064376831 9.999999974752427e-07 4.922823905944824
vt 0.48750001192092896 0.5004700124263763
vn 1.0 0.0 -0.0
f 13/6/5 1/1/7 14/7/8
vn 0.8748000264167786 -0.47099998593330383 -0.11349999904632568
f 14/7/8 1/1/7 5/5/9
v 2.164669990539551 0.0 2.9943060874938965
vt 0.5 0.5004700124263763
vn 0.9916999936103821 -0.0 -0.12870000302791595
f 14/7/8 5/5/9 15/8/10
vn 0.8805000185966492 0.4740999937057495 -0.0
f 13/6/5 14/7/8 7/1/11
vn 0.8748000264167786 0.47099998593330383 0.11349999904632568
f 13/6/5 7/1/11 10/2/12
vn 0.8748000264167786 0.47099998593330383 -0.11349999904632568
f 14/7/8 15/8/10 11/5/13
f 14/7/8 11/5/13 7/1/11
o extra_tall_semicircle##0#1#1#-1.0
g extra_tall_semicircle##0#1#1#-1.0
v -1.6103960275650024 0.7522990107536316 9.535417556762695
vn 0.004100000020116568 0.7448999881744385 0.6672000288963318
v -1.3158819675445557 0.5471649765968323 9.775924682617188
vt 0.863660991191864 0.8515779972076416
v 0.2535240054130554 0.5266320109367371 9.775924682617188
vt 0.8500149846076965 0.10345399379730225
f 16/3/14 17/9/14 18/10/14
v 0.5572310090065002 0.7522990107536316 9.535419464111328
vt 0.964739978313446 0.0
f 16/3/14 18/10/14 19/11/14
v 0.2535240054130554 -0.5266280174255371 9.775924682617188
vn 0.004100000020116568 -0.7448999881744385 0.6672000288963318
v -1.3158819675445557 -0.5471609830856323 9.775924682617188
v -1.6103960275650024 -0.7522950172424316 9.535417556762695
f 20/10/15 21/9/15 22/3/15
v 0.5572310090065002 -0.7522950172424316 9.535419464111328
f 20/10/15 22/3/15 23/11/15
v 0.2535240054130554 0.5266299843788147 0.06972599774599075
vt 0.14998500049114227 0.10345399379730225
vn 0.004100000020116568 0.7448999881744385 -0.6672000288963318
v -1.3158819675445557 0.5471630096435547 0.06972599774599075
vt 0.1363389939069748 0.8515779972076416
v -1.6103960275650024 0.7522969841957092 0.310232013463974
f 24/12/16 25/13/16 26/4/16
v 0.5572310090065002 0.7522969841957092 0.310232013463974
vt 0.035259999334812164 0.0
f 24/12/16 26/4/16 27/14/16
v -1.6103960275650024 -0.7522969841957092 0.310232013463974
vn 0.004100000020116568 -0.7448999881744385 -0.6672000288963318
v -1.3158819675445557 -0.5471630096435547 0.06972599774599075
v 0.2535240054130554 -0.5266299843788147 0.06972599774599075
f 28/4/17 29/13/17 30/12/17
v 0.5572310090065002 -0.7522969841957092 0.310232013463974
f 28/4/17 30/12/17 31/14/17
v -1.6103960275650024 1.9999999949504854e-06 9.535417556762695
vt 0.5 1.0
vn -0.6324999928474426 0.0 0.7745000123977661
v -1.3158819675445557 1.9999999949504854e-06 9.775924682617188
vt 0.5 0.8781159967184067
f 32/15/18 33/16/18 17/9/18
f 32/15/18 17/9/18 16/3/18
v 0.9562140107154846 1.9999999949504854e-06 9.535419464111328
vt 0.45175701379776 0.5004700124263763
vn 0.5020999908447266 -0.0 0.864799976348877
vt 0.45214301347732544 0.6884399950504303
vn 0.48410001397132874 0.2651999890804291 0.8338000178337097
vt 0.44999998807907104 0.6452929973602295
f 34/17/19 19/18/20 18/19/20
v 0.5551040172576904 1.9999999949504854e-06 9.775924682617188
vt 0.44999998807907104 0.5239669978618622
f 34/17/19 18/19/20 35/20/19
f 22/3/18 21/9/18 33/16/18
f 22/3/18 33/16/18 32/15/18
vn -0.0 0.0 1.0
vt 0.5 0.10381299257278442
f 33/16/21 35/21/21 18/10/21
f 33/16/21 18/10/21 17/9/21
v 1.091346025466919 0.40279000997543335 9.124750137329102
vn 0.7243000268936157 0.3637999892234802 0.5856999754905701
vn 0.7175999879837036 0.3806000053882599 0.583299994468689
vn 0.7789000272750854 -0.0 0.6270999908447266
f 36/18/22 19/18/23 34/17/24
v 1.2721819877624512 9.999999974752427e-07 9.100910186767578
vn 0.7840999960899353 0.0 0.6207000017166138
f 36/18/22 34/17/24 37/17/25
v 1.4431560039520264 0.7522979974746704 8.448807716369629
vt 0.4625000059604645 0.6884399950504303
vn 0.7858999967575073 0.4390999972820282 0.43549999594688416
f 38/22/26 19/18/23 36/18/22
v 1.5856289863586426 0.40438300371170044 8.530743598937988
vn 0.8281999826431274 0.3391000032424927 0.44609999656677246
f 38/22/26 36/18/22 39/22/27
vn 0.48410001397132874 -0.2651999890804291 0.8338000178337097
f 34/17/19 35/20/19 20/19/28
f 34/17/19 20/19/28 23/18/28
vn -0.0 1.0 -0.0
v -1.6103960275650024 0.7522979974746704 7.349374771118164
f 38/22/29 40/3/29 16/3/29
f 38/22/29 16/3/29 19/18/29
f 33/16/21 21/9/21 20/10/21
f 33/16/21 20/10/21 35/21/21
vn 0.7175999879837036 -0.3806000053882599 0.583299994468689
v 1.0913469791412354 -0.402785986661911 9.124749183654785
vn 0.7243000268936157 -0.3637999892234802 0.5856999754905701
f 34/17/24 23/18/30 41/18/31
f 34/17/24 41/18/31 37/17/25
v 2.1296639442443848 0.7522979974746704 6.776544094085693
f 38/22/29 42/2/29 40/3/29
vn 0.8377000093460083 0.45820000767707825 0.2971000075340271
f 42/2/32 38/22/26 39/22/27
v 2.3103981018066406 0.41008299589157104 6.82350492477417
vn 0.886900007724762 0.33550000190734863 0.3176000118255615
f 42/2/32 39/22/27 43/2/33
v 1.4431560039520264 -0.752295970916748 8.448807716369629
vn 0.7858999967575073 -0.4390999972820282 0.43549999594688416
f 41/18/31 23/18/30 44/22/34
v 1.5856289863586426 -0.40438100695610046 8.530743598937988
vn 0.8281999826431274 -0.3391000032424927 0.44609999656677246
f 41/18/31 44/22/34 45/22/35
vn 0.0 -1.0 0.0
v -1.6103960275650024 -0.752295970916748 7.349374771118164
v 2.1296639442443848 -0.752295970916748 6.776544094085693
f 44/22/36 46/3/36 47/2/36
v 2.1885170936584473 0.7522979974746704 6.31534481048584
vt 0.4781099855899811 0.6884399950504303
vn 0.8712000250816345 0.47769999504089355 0.1128000020980835
f 48/23/37 42/2/32 43/2/33
v 2.37678599357605 0.4105049967765808 6.31534481048584
vt 0.4783419966697693 0.6884399950504303
vn 0.9289000034332275 0.3499000072479248 0.120899997651577
f 48/23/37 43/2/33 49/24/38
vn 0.8377000093460083 -0.45820000767707825 0.2971000075340271
f 45/22/35 44/22/34 47/2/39
v 2.3103981018066406 -0.41008099913597107 6.82350492477417
vn 0.886900007724762 -0.33550000190734863 0.3176000118255615
f 45/22/35 47/2/39 50/2/40
f 44/22/36 23/18/36 22/3/36
f 44/22/36 22/3/36 46/3/36
v 2.37678599357605 -0.41050300002098083 6.31534481048584
vn 0.9289000034332275 -0.3499999940395355 0.120899997651577
f 51/24/41 50/2/40 47/2/39
v 2.1885170936584473 -0.752295970916748 6.31534481048584
vn 0.8712000250816345 -0.47769999504089355 0.1128000020980835
f 51/24/41 47/2/39 52/23/42
v -1.6103960275650024 0.7522969841957092 2.496274948120117
vt 0.5 0.5
v 2.1296639442443848 0.7522969841957092 3.069106101989746
v 1.4431560039520264 0.7522969841957092 1.3968420028686523
vt 0.512499988079071 0.6884399950504303
f 53/25/29 54/5/29 55/26/29
v 2.37678599357605 0.4105049967765808 3.530303955078125
vt 0.49665799736976624 0.6884399950504303
vn 0.9271000027656555 0.35499998927116394 -0.12070000171661377
v 2.3103981018066406 0.41008299589157104 3.022144079208374
vn 0.8852999806404114 0.3402000069618225 -0.31709998846054077
vn 0.8377000093460083 0.45820000767707825 -0.2971000075340271
f 56/27/43 57/5/44 54/5/45
v 2.1885180473327637 0.7522979974746704 3.530303955078125
vt 0.49689000844955444 0.6884399950504303
vn 0.8712000250816345 0.47769999504089355 -0.1128000020980835
f 56/27/43 54/5/45 58/28/46
v 0.06557899713516235 -0.752295970916748 6.128781795501709
vt 0.39583298563957214 0.35467398166656494
vn 0.5 0.0 -0.8659999966621399
v -0.44411900639533997 -0.752295970916748 5.619083881378174
vt 0.375 0.35467398166656494
vn 0.8659999966621399 0.0 -0.5
v -0.44411900639533997 0.7522979974746704 5.619083881378174
vt 0.375 0.6462660133838654
f 59/29/47 60/30/48 61/31/48
v 0.06557899713516235 0.7522979974746704 6.128781795501709
vt 0.39583298563957214 0.6462660133838654
f 59/29/47 61/31/48 62/32/47
v 1.5856289863586426 0.40438199043273926 1.3149060010910034
vn 0.8267999887466431 0.3427000045776367 -0.44600000977516174
f 54/5/45 57/5/44 63/26/49
vn 0.7858999967575073 0.4390999972820282 -0.43549999594688416
f 54/5/45 63/26/49 55/26/50
v 0.761838972568512 -0.752295970916748 6.31534481048584
vt 0.41666701436042786 0.35467398166656494
vn 0.08760000020265579 0.0 -0.9962000250816345
f 64/33/51 59/29/47 62/32/47
v 0.761838972568512 0.7522979974746704 6.31534481048584
vt 0.41666701436042786 0.6462660133838654
f 64/33/51 62/32/47 65/34/51
v 1.0913469791412354 0.4027869999408722 0.7209010124206543
vt 0.5228570103645325 0.6884399950504303
vn 0.7239000201225281 0.36419999599456787 -0.5859000086784363
vn 0.7175999879837036 0.3806000053882599 -0.583299994468689
f 66/35/52 27/35/53 55/26/50
f 66/35/52 55/26/50 63/26/49
v -1.6103960275650024 -0.7522969841957092 2.496274948120117
v 1.4431560039520264 -0.7522969841957092 1.3968420028686523
v 2.1296639442443848 -0.7522969841957092 3.069106101989746
f 67/25/36 68/26/36 69/5/36
vt 0.5249999761581421 0.6452929973602295
vn 0.48410001397132874 0.2651999890804291 -0.8338000178337097
v 0.9562140107154846 0.0 0.3102310001850128
vt 0.5232430100440979 0.5004700124263763
vn 0.5020999908447266 -0.0 -0.864799976348877
f 24/36/54 27/35/54 70/37/55
v 0.5551040172576904 0.0 0.06972599774599075
vt 0.5249999761581421 0.5239669978618622
f 24/36/54 70/37/55 71/38/55
v 2.1885180473327637 -0.752295970916748 3.530303955078125
vn 0.8712000250816345 -0.47769999504089355 -0.1128000020980835
vn 0.8377000093460083 -0.45820000767707825 -0.2971000075340271
v 2.3103981018066406 -0.41008201241493225 3.022144079208374
vn 0.8852999806404114 -0.3402000069618225 -0.31709998846054077
f 72/28/56 69/5/57 73/5/58
v 2.37678599357605 -0.41050300002098083 3.530303955078125
vn 0.9271000027656555 -0.35499998927116394 -0.12070000171661377
f 72/28/56 73/5/58 74/27/59
vn 0.7789000272750854 -0.0 -0.6270999908447266
f 70/37/60 27/35/53 66/35/52
v 1.2721819877624512 0.0 0.7447400093078613
vn 0.7833999991416931 -0.0 -0.6215000152587891
f 70/37/60 66/35/52 75/37/61
v 1.5856289863586426 -0.40438199043273926 1.3149060010910034
vn 0.8267999887466431 -0.3427000045776367 -0.44600000977516174
f 76/26/62 73/5/58 69/5/57
vn 0.7858999967575073 -0.4390999972820282 -0.43549999594688416
f 76/26/62 69/5/57 68/26/63
v -0.6306809782981873 -0.752295970916748 4.922823905944824
vt 0.6041669845581055 0.35467398166656494
v -0.44411900639533997 -0.752295970916748 4.226563930511475
vt 0.5833330154418945 0.35467398166656494
vn 0.8659999966621399 0.0 0.5
v -0.44411900639533997 0.7522979974746704 4.226563930511475
vt 0.5833330154418945 0.6462660133838654
f 77/39/8 78/40/64 79/41/64
v -0.6306809782981873 0.7522979974746704 4.922823905944824
vt 0.6041669845581055 0.6462660133838654
f 77/39/8 79/41/64 80/42/8
vn 0.48410001397132874 -0.2651999890804291 -0.8338000178337097
f 30/36/65 71/38/55 70/37/55
f 30/36/65 70/37/55 31/35/65
v 1.0913469791412354 -0.4027869999408722 0.7209010124206543
vn 0.7239000201225281 -0.36419999599456787 -0.5859000086784363
f 70/37/60 75/37/61 81/35/66
vn 0.7175999879837036 -0.3806000053882599 -0.583299994468689
f 70/37/60 81/35/66 31/35/67
f 81/35/66 76/26/62 68/26/63
f 81/35/66 68/26/63 31/35/67
v 0.06557899713516235 -0.752295970916748 3.716866970062256
vt 0.5625 0.35467398166656494
vn 0.5 0.0 0.8659999966621399
v 0.06557899713516235 0.7522979974746704 3.716866970062256
vt 0.5625 0.6462660133838654
f 78/40/64 82/43/68 83/44/68
f 78/40/64 83/44/68 79/41/64
v 0.761838972568512 -0.752295970916748 3.530303955078125
vt 0.5416669845581055 0.35467398166656494
vn 0.08760000020265579 -0.0 0.9962000250816345
v 0.761838972568512 0.7522979974746704 3.530303955078125
vt 0.5416669845581055 0.6462660133838654
f 82/43/68 84/45/69 85/46/69
f 82/43/68 85/46/69 83/44/68
vt 0.08787000179290771 0.11803597211837769
f 53/25/29 55/26/29 27/47/29
vt 0.06068599969148636 0.06068599224090576
f 53/25/29 27/47/29 26/48/29
v -1.3158819675445557 0.0 0.06972599774599075
vn -0.6324999928474426 -0.0 -0.7745000123977661
v -1.6103960275650024 0.0 0.310232013463974
f 86/16/70 87/15/70 26/4/70
f 86/16/70 26/4/70 25/13/70
vn -0.6324999928474426 -0.0 -0.7746000289916992
f 29/13/71 28/4/71 87/15/70
f 29/13/71 87/15/70 86/16/70
vn -0.0 -0.0 -1.0
f 24/12/72 71/21/72 86/16/72
f 24/12/72 86/16/72 25/13/72
f 67/25/36 28/48/36 31/47/36
f 67/25/36 31/47/36 68/26/36
f 30/12/72 29/13/72 86/16/72
f 30/12/72 86/16/72 71/21/72
vt 0.625 0.35467398166656494
f 60/49/48 77/39/8 80/42/8
vt 0.625 0.6462660133838654
f 60/49/48 80/42/8 61/50/48
f 40/3/29 42/2/29 48/23/29
vt 0.6754469871520996 0.8060240000486374
f 40/3/29 48/23/29 65/51/29
vt 0.7730000019073486 0.8639470040798187
f 40/3/29 65/51/29 62/52/29
vt 0.8450319766998291 0.9066149964928627
f 40/3/29 62/52/29 61/53/29
vt 0.8737360239028931 0.9232409968972206
f 40/3/29 61/53/29 80/54/29
v -1.6103960275650024 0.7522979974746704 4.922824859619141
f 40/3/29 80/54/29 88/3/29
f 46/3/36 64/51/36 52/23/36
f 46/3/36 52/23/36 47/2/36
vt 0.7456830143928528 0.8045569956302643
f 88/3/29 80/54/29 79/55/29
vt 0.6286759972572327 0.71322301030159
f 88/3/29 79/55/29 83/56/29
vt 0.5667150020599365 0.6863459944725037
f 88/3/29 83/56/29 85/57/29
f 88/3/29 85/57/29 58/28/29
f 88/3/29 58/28/29 54/5/29
f 88/3/29 54/5/29 53/25/29
v -1.6103960275650024 -0.752295970916748 4.922824859619141
f 89/3/36 67/25/36 78/55/36
f 89/3/36 78/55/36 77/54/36
vt 0.11218400299549103 0.0
vt 0.11218400299549103 0.4828829765319824
vt 0.8878160119056702 0.4828829765319824
f 84/58/69 72/59/21 58/60/21
vt 0.8878160119056702 0.0
f 84/58/69 58/60/21 85/61/69
vt 0.7116190195083618 0.5466060042381287
vt 0.28838101029396057 0.5466060042381287
v 2.4785919189453125 9.999999974752427e-07 6.31534481048584
vt 0.5 0.5466060042381287
f 51/62/72 49/63/72 90/64/72
f 65/58/51 48/59/72 52/60/72
f 65/58/51 52/60/72 64/61/51
f 58/60/21 72/59/21 74/63/21
f 58/60/21 74/63/21 56/62/21
vt 0.5667160153388977 0.6863459944725037
f 78/55/36 67/25/36 84/65/36
f 78/55/36 84/65/36 82/56/36
f 84/65/36 67/25/36 69/5/36
f 84/65/36 69/5/36 72/28/36
f 46/3/36 89/3/36 77/54/36
f 46/3/36 77/54/36 60/53/36
f 46/3/36 60/53/36 59/52/36
f 46/3/36 59/52/36 64/51/36
vn -1.0 0.0 0.0
v -1.6103960275650024 9.999999974752427e-07 7.349374771118164
f 32/15/73 91/3/73 46/3/73
f 32/15/73 46/3/73 22/3/73
v -1.6103960275650024 0.0 2.496274948120117
f 67/25/73 92/25/73 87/15/73
f 67/25/73 87/15/73 28/48/73
v -1.6103960275650024 9.999999974752427e-07 4.922824859619141
f 46/3/73 91/3/73 93/3/73
f 46/3/73 93/3/73 89/3/73
f 89/3/73 93/3/73 92/25/73
f 89/3/73 92/25/73 67/25/73
f 32/15/73 16/3/73 40/3/73
f 32/15/73 40/3/73 91/3/73
f 93/3/73 91/3/73 40/3/73
f 93/3/73 40/3/73 88/3/73
f 92/25/73 93/3/73 88/3/73
f 92/25/73 88/3/73 53/25/73
f 87/15/73 92/25/73 53/25/73
f 87/15/73 53/25/73 26/4/73
v 1.6874350309371948 9.999999974752427e-07 8.530743598937988
vn 0.8925999999046326 -0.0 0.45080000162124634
f 36/18/22 37/17/25 94/22/74
f 36/18/22 94/22/74 39/22/27
v 2.416649103164673 0.0 3.022144079208374
vn 0.9430999755859375 0.0 -0.33250001072883606
v 2.4830379486083984 9.999999974752427e-07 3.530303955078125
vt 0.6041380167007446 0.6175230145454407
vn 0.991599977016449 0.0 -0.12960000336170197
f 95/5/75 96/66/76 74/27/59
f 95/5/75 74/27/59 73/5/58
v 2.4122040271759033 9.999999974752427e-07 6.82350492477417
vn 0.9430999755859375 -0.0 0.3325999975204468
vt 0.594980001449585 0.6175230145454407
vn 0.991599977016449 -0.0 0.12960000336170197
f 43/2/33 97/2/77 90/67/78
f 43/2/33 90/67/78 49/24/38
f 39/22/27 94/22/74 97/2/77
f 39/22/27 97/2/77 43/2/33
f 94/22/74 37/17/25 41/18/31
f 94/22/74 41/18/31 45/22/35
f 97/2/77 94/22/74 45/22/35
f 97/2/77 45/22/35 50/2/40
f 90/67/78 97/2/77 50/2/40
f 90/67/78 50/2/40 51/62/41
f 52/60/72 48/59/72 49/63/72
f 52/60/72 49/63/72 51/62/72
v 1.6918809413909912 0.0 1.3149060010910034
vn 0.8924999833106995 0.0 -0.4510999917984009
f 75/37/61 98/26/79 76/26/62
f 75/37/61 76/26/62 81/35/66
f 98/26/79 95/5/75 73/5/58
f 98/26/79 73/5/58 76/26/62
f 63/26/49 98/26/79 75/37/61
f 63/26/49 75/37/61 66/35/52
f 57/5/44 95/5/75 98/26/79
f 57/5/44 98/26/79 63/26/49
f 57/5/44 56/62/43 96/66/76
f 57/5/44 96/66/76 95/5/75
f 56/62/21 74/63/21 96/64/21
o extra_tall_semicircle,COLLIDER##0#0#0#-1.0
g extra_tall_semicircle,COLLIDER##0#0#0#-1.0
v -9.999999974752427e-07 -0.621254026889801 9.792009353637695
vt 0.0 0.0
v -9.999999974752427e-07 0.621258020401001 9.792009353637695
vt 1.0 0.0
v -1.556615948677063 0.621258020401001 9.792009353637695
f 99/68/21 100/69/21 101/3/21
v -1.556615948677063 -0.621254026889801 9.792009353637695
f 99/68/21 101/3/21 102/4/21
v -0.0 0.6212559938430786 0.01812100037932396
v -0.0 -0.6212559938430786 0.01812100037932396
v -1.5566140413284302 -0.6212559938430786 0.01812100037932396
f 103/68/72 104/69/72 105/3/72
v -1.5566140413284302 0.6212559938430786 0.01812100037932396
f 103/68/72 105/3/72 106/4/72
v -0.0 -0.6212549805641174 4.905066013336182
f 107/68/36 99/69/36 102/3/36
v -1.5566149950027466 -0.6212549805641174 4.905066013336182
f 107/68/36 102/3/36 108/4/36
f 104/68/36 107/69/36 108/3/36
f 104/68/36 108/3/36 105/4/36
v -0.0 0.6212570071220398 4.905066013336182
v -1.5566149950027466 0.6212570071220398 4.905066013336182
f 100/68/29 109/69/29 110/3/29
f 100/68/29 110/3/29 101/4/29
f 109/68/29 103/69/29 106/3/29
f 109/68/29 106/3/29 110/4/29
vt 0.421875 0.3125
vn 0.35269999504089355 0.0 0.935699999332428
v 0.9870240092277527 -0.621254026889801 9.420013427734375
vt 0.4375 0.3125
vn 0.6173999905586243 -0.0 0.7865999937057495
v 0.9870240092277527 0.621258020401001 9.420013427734375
vt 0.4375 0.6884399950504303
f 99/70/80 111/71/81 112/72/81
vt 0.421875 0.6884399950504303
f 99/70/80 112/72/81 100/73/80
v 1.8237839937210083 -0.6212549805641174 8.360658645629883
vt 0.453125 0.3125
vn 0.8844000101089478 -0.0 0.4668000042438507
v 1.8237839937210083 0.6212570071220398 8.360658645629883
vt 0.453125 0.6884399950504303
f 111/71/81 113/74/82 114/75/82
f 111/71/81 114/75/82 112/72/81
v 2.3828890323638916 -0.6212549805641174 6.775219917297363
vt 0.46875 0.3125
vn 0.9768999814987183 -0.0 0.21359999477863312
v 2.3828890323638916 0.6212570071220398 6.775219917297363
vt 0.46875 0.6884399950504303
f 113/74/82 115/76/83 116/77/83
f 113/74/82 116/77/83 114/75/82
v 2.57922101020813 -0.6212549805641174 4.905066967010498
vt 0.484375 0.3125
v 2.57922101020813 0.6212570071220398 4.905066967010498
vt 0.484375 0.6884399950504303
f 115/76/83 117/78/8 118/79/8
f 115/76/83 118/79/8 116/77/83
v 2.3828890323638916 -0.6212559938430786 3.034914016723633
vt 0.5 0.3125
vn 0.9768999814987183 -0.0 -0.21359999477863312
v 2.3828890323638916 0.6212559938430786 3.034914970397949
f 117/78/8 119/80/84 120/5/84
f 117/78/8 120/5/84 118/79/8
v 1.8237849473953247 -0.6212559938430786 1.4494750499725342
vt 0.515625 0.3125
vn 0.8844000101089478 -0.0 -0.4668000042438507
v 1.8237849473953247 0.6212559938430786 1.4494750499725342
vt 0.515625 0.6884399950504303
f 119/80/84 121/81/85 122/82/85
f 119/80/84 122/82/85 120/5/84
v 0.9870250225067139 -0.6212559938430786 0.3901180028915405
vt 0.53125 0.3125
vn 0.6173999905586243 0.0 -0.7865999937057495
v 0.9870250225067139 0.6212559938430786 0.3901180028915405
vt 0.53125 0.6884399950504303
f 121/81/85 123/83/86 124/84/86
f 121/81/85 124/84/86 122/82/85
vt 0.546875 0.3125
vn 0.35269999504089355 -0.0 -0.935699999332428
vt 0.546875 0.6884399950504303
f 123/83/86 104/85/87 103/86/87
f 123/83/86 103/86/87 124/84/86
vt 0.44020599126815796 0.011893987655639648
vt 0.5 0.0
vt 0.5 0.1499999761581421
f 111/87/36 99/88/36 107/89/36
vt 0.3895150125026703 0.0457649827003479
f 113/90/36 111/87/36 107/89/36
vt 0.35564398765563965 0.09645599126815796
f 115/91/36 113/90/36 107/89/36
vt 0.34375 0.15625
f 117/92/36 115/91/36 107/89/36
vt 0.35564398765563965 0.21604400873184204
f 119/93/36 117/92/36 107/89/36
vt 0.3895150125026703 0.2667350172996521
f 121/94/36 119/93/36 107/89/36
vt 0.44020599126815796 0.30060601234436035
f 123/95/36 121/94/36 107/89/36
f 104/80/36 123/95/36 107/89/36
vt 0.44020599126815796 0.9881060002371669
vt 0.5 0.8375000059604645
f 100/15/29 112/96/29 109/97/29
vt 0.3895150125026703 0.9542349986732006
f 112/96/29 114/98/29 109/97/29
vt 0.35564398765563965 0.9035440012812614
f 114/98/29 116/99/29 109/97/29
vt 0.34375 0.84375
f 116/99/29 118/100/29 109/97/29
vt 0.35564398765563965 0.7839560061693192
f 118/100/29 120/101/29 109/97/29
vt 0.3895150125026703 0.7332650125026703
f 120/101/29 122/102/29 109/97/29
vt 0.44020599126815796 0.6993939876556396
f 122/102/29 124/103/29 109/97/29
vt 0.5 0.6875
f 124/103/29 103/104/29 109/97/29
f 101/4/73 110/4/73 108/4/73
f 101/4/73 108/4/73 102/4/73
f 108/4/73 110/4/73 106/4/73
f 108/4/73 106/4/73 105/4/73
