# OBJ file
o __dotobj_group__##0#1#0#-1.0
g __dotobj_group__##0#1#0#-1.0
o beastie_fountain##0#0#0#7241856.0
g beastie_fountain##0#0#0#7241856.0
v 0.13523200154304504 0.014933000318706036 -0.0015040000434964895
vt 0.375 0.0
vn -0.0 0.9751999974250793 -0.22120000422000885
v -0.13523200154304504 0.014933000318706036 -0.0015040000434964895
vt 0.625 0.0
v -0.13523200154304504 0.05476899817585945 0.17412500083446503
vt 0.625 0.25
f 1/1/1 2/2/1 3/3/1
v 0.13523200154304504 0.05476899817585945 0.17412500083446503
vt 0.375 0.25
f 1/1/1 3/3/1 4/4/1
v 0.13523200154304504 -0.05476899817585945 -0.0015040000434964895
vt 0.375 0.75
vn -0.0 -0.0 -1.0
v -0.13523200154304504 -0.05476899817585945 -0.0015040000434964895
vt 0.625 0.75
vt 0.625 1.0
f 5/5/2 6/6/2 2/7/2
vt 0.375 1.0
f 5/5/2 2/7/2 1/8/2
v -0.12887099385261536 -0.04840900003910065 0.240774005651474
vt 0.6242690086364746 0.5
vn -0.0 -0.707099974155426 0.707099974155426
v -0.13523200154304504 -0.05476899817585945 0.2344139963388443
vt 0.625 0.5
v 0.13523200154304504 -0.05476899817585945 0.2344139963388443
vt 0.375 0.5
f 7/9/3 8/10/3 9/11/3
v 0.12887099385261536 -0.04840900003910065 0.240774005651474
vt 0.37591099739074707 0.5
f 7/9/3 9/11/3 10/12/3
v 0.09279900044202805 0.047926999628543854 0.20101100206375122
vn -0.0 0.0 1.0
v -0.09279900044202805 0.047926999628543854 0.20101100206375122
v -0.09279900044202805 0.013907999731600285 0.20101100206375122
f 11/4/4 12/3/4 13/10/4
v 0.09279900044202805 0.013907999731600285 0.20101100206375122
f 11/4/4 13/10/4 14/11/4
v 0.13523200154304504 -0.05476899817585945 0.17412500083446503
vn -0.0 -1.0 0.0
v -0.13523200154304504 -0.05476899817585945 0.17412500083446503
f 15/11/5 16/10/5 6/6/5
f 15/11/5 6/6/5 5/5/5
vn -1.0 0.0 0.0
vt 0.875 0.0
vt 0.875 0.25
f 2/2/6 6/13/6 16/14/6
f 2/2/6 16/14/6 3/3/6
vt 0.125 0.0
vn 1.0 0.0 0.0
f 5/15/7 1/1/7 4/4/7
vt 0.125 0.25
f 5/15/7 4/4/7 15/16/7
v 0.11542899906635284 0.182887002825737 0.17412500083446503
v -0.11542899906635284 0.182887002825737 0.17412500083446503
v -0.06762299686670303 0.2026890069246292 0.17412500083446503
vt 0.5625060200691223 0.25
f 17/4/2 18/3/2 19/17/2
v 0.06762299686670303 0.2026890069246292 0.17412500083446503
vt 0.4374940097332001 0.25
f 17/4/2 19/17/2 20/18/2
v 0.09279900044202805 0.13884100317955017 0.20101100206375122
v -0.09279900044202805 0.13884100317955017 0.20101100206375122
f 21/4/4 22/3/4 12/3/4
f 21/4/4 12/3/4 11/4/4
v 0.08720599859952927 0.15234500169754028 0.20101100206375122
v -0.08720599859952927 0.15234500169754028 0.20101100206375122
f 23/4/4 24/3/4 22/3/4
f 23/4/4 22/3/4 21/4/4
v 0.07370200008153915 0.15793800354003906 0.20101100206375122
v -0.07370200008153915 0.15793800354003906 0.20101100206375122
f 23/4/4 25/18/4 26/17/4
f 23/4/4 26/17/4 24/3/4
v -0.13523200154304504 0.1350799947977066 0.17412500083446503
v 0.13523200154304504 0.1350799947977066 0.17412500083446503
f 27/3/2 28/4/2 4/4/2
f 27/3/2 4/4/2 3/3/2
f 17/4/2 28/4/2 27/3/2
f 17/4/2 27/3/2 18/3/2
v -0.13523200154304504 0.05476899817585945 0.23416200280189514
vn -0.7211999893188477 0.0 0.6927000284194946
v -0.12913300096988678 0.05221499875187874 0.240774005651474
v -0.12887099385261536 0.1338150054216385 0.240774005651474
vn -0.7017999887466431 0.10409999638795853 0.7046999931335449
f 29/3/8 30/3/8 31/3/9
v -0.13523200154304504 0.1350799947977066 0.2344139963388443
vn -0.7017999887466431 0.10400000214576721 0.7046999931335449
f 29/3/8 31/3/9 32/3/10
vn -0.7211999893188477 -9.999999747378752e-05 0.6927000284194946
f 30/3/8 29/3/8 8/10/11
f 30/3/8 8/10/11 7/9/11
vn 0.7211999893188477 -9.999999747378752e-05 0.6927000284194946
v 0.13523200154304504 0.05476899817585945 0.23416200280189514
vn 0.7211999893188477 0.0 0.6927000284194946
f 10/12/12 9/11/12 33/4/13
v 0.12913300096988678 0.05221499875187874 0.240774005651474
f 10/12/12 33/4/13 34/4/13
v 0.13523200154304504 0.1350799947977066 0.2344139963388443
vn 0.7017999887466431 0.10400000214576721 0.7046999931335449
f 34/4/13 33/4/13 35/4/14
v 0.12887099385261536 0.1338150054216385 0.240774005651474
vn 0.7017999887466431 0.10409999638795853 0.7046999931335449
f 34/4/13 35/4/14 36/4/15
v -0.11056099832057953 0.1780180037021637 0.240774005651474
vt 0.6218039989471436 0.25
vn -0.6531999707221985 0.27059999108314514 0.7071999907493591
f 32/3/10 31/3/9 37/19/16
v -0.11542899906635284 0.182887002825737 0.2344139963388443
f 32/3/10 37/19/16 38/3/16
v 0.11542899906635284 0.182887002825737 0.2344139963388443
vn 0.6531999707221985 0.27059999108314514 0.7071999907493591
f 36/4/15 35/4/14 39/4/17
v 0.11056099832057953 0.1780180037021637 0.240774005651474
vt 0.37819600105285645 0.25
f 36/4/15 39/4/17 40/20/17
v -0.06762299686670303 0.2026890069246292 0.2344139963388443
vn -0.0738999992609024 0.6977999806404114 0.7124999761581421
v -0.06635700166225433 0.19632799923419952 0.240774005651474
vt 0.5587990283966064 0.25
v 0.06635700166225433 0.19632799923419952 0.240774005651474
vt 0.4422149956226349 0.25
vn 0.0738999992609024 0.6977999806404114 0.7124999761581421
f 41/17/18 42/21/18 43/22/19
v 0.06762299686670303 0.2026890069246292 0.2344139963388443
f 41/17/18 43/22/19 44/18/19
vn -0.27059999108314514 0.6531999707221985 0.7071999907493591
f 42/21/18 41/17/18 38/3/20
f 42/21/18 38/3/20 37/19/20
vn 0.27059999108314514 0.6531999707221985 0.7071999907493591
f 44/18/19 43/22/19 40/20/21
f 44/18/19 40/20/21 39/4/21
v -0.11366099864244461 0.04573599994182587 0.240774005651474
vn 0.5562999844551086 0.000699999975040555 0.8309999704360962
v -0.10636000335216522 0.044123001396656036 0.23551900684833527
vn 0.5514000058174133 0.0010999999940395355 0.8342999815940857
v -0.10649500042200089 0.14841599762439728 0.23586200177669525
vn 0.5636000037193298 -0.029200000688433647 0.8255000114440918
f 45/3/22 46/3/23 47/3/24
v -0.113755002617836 0.15082600712776184 0.240774005651474
vn 0.5612999796867371 -0.03660000115633011 0.8267999887466431
f 45/3/22 47/3/24 48/3/25
v -0.11440300196409225 -0.028946999460458755 0.240774005651474
vt 0.625 0.4953479766845703
vn 0.5246999859809875 0.0035000001080334187 0.8513000011444092
f 46/3/23 45/3/22 49/23/26
v -0.1068900004029274 -0.020419999957084656 0.23686900734901428
f 46/3/23 49/23/26 50/10/26
vn 9.999999747378752e-05 0.6489999890327454 0.7608000040054321
vn 0.0 0.05079999938607216 0.9987000226974487
v 0.11455699801445007 -0.029069999232888222 0.240774005651474
vt 0.375 0.49522799253463745
f 50/10/27 49/23/28 51/24/28
v 0.10684999823570251 -0.020323000848293304 0.2367669939994812
vn 9.999999747378752e-05 0.6491000056266785 0.760699987411499
f 50/10/27 51/24/28 52/11/29
vn -0.5242999792098999 0.002400000113993883 0.8514999747276306
v 0.11366099864244461 0.04573599994182587 0.240774005651474
vn -0.5529000163078308 0.000699999975040555 0.8331999778747559
f 52/11/30 51/24/30 53/4/31
v 0.10636000335216522 0.044123001396656036 0.23551900684833527
vn -0.5483999848365784 0.0010000000474974513 0.8361999988555908
f 52/11/30 53/4/31 54/4/32
v 0.11394199728965759 0.15086300671100616 0.240774005651474
vn -0.5561000108718872 -0.035999998450279236 0.830299973487854
f 54/4/32 53/4/31 55/4/33
v 0.10649500042200089 0.14841599762439728 0.23586200177669525
vn -0.5587999820709229 -0.028999999165534973 0.8288000226020813
f 54/4/32 55/4/33 56/4/34
v -0.10009899735450745 0.16393400728702545 0.23592500388622284
vn 0.35989999771118164 -0.36010000109672546 0.8607000112533569
f 48/3/25 47/3/24 57/3/35
v -0.10600700229406357 0.1696610003709793 0.240774005651474
vn 0.3619000017642975 -0.3580000102519989 0.8607000112533569
f 48/3/25 57/3/35 58/3/36
v 0.10596899688243866 0.169623002409935 0.240774005651474
vn -0.36230000853538513 -0.3603000044822693 0.8596000075340271
f 56/4/34 55/4/33 59/4/37
v 0.10009899735450745 0.16393400728702545 0.23592500388622284
vn -0.35929998755455017 -0.36340001225471497 0.8596000075340271
f 56/4/34 59/4/37 60/4/38
v -0.08455199748277664 0.17030200362205505 0.23577700555324554
vn 0.018300000578165054 -0.5622000098228455 0.8267999887466431
f 58/3/36 57/3/35 61/17/39
v -0.08722399920225143 0.17767100036144257 0.240774005651474
vt 0.5703349709510803 0.25
vn 0.02459999918937683 -0.5602999925613403 0.8278999924659729
f 58/3/36 61/17/39 62/25/40
v 0.08717700093984604 0.17743800580501556 0.240774005651474
vt 0.4299919903278351 0.25
vn -0.025200000032782555 -0.5612999796867371 0.8271999955177307
f 60/4/38 59/4/37 63/26/41
v 0.08455199748277664 0.17030200362205505 0.23577700555324554
vn -0.018699999898672104 -0.5629000067710876 0.8263000249862671
f 60/4/38 63/26/41 64/18/42
f 64/18/42 63/26/41 62/25/40
f 64/18/42 62/25/40 61/17/39
vn 0.10750000178813934 0.9941999912261963 0.0
vn -0.10750000178813934 0.9941999912261963 -0.0
f 44/18/43 20/18/43 19/17/44
f 44/18/43 19/17/44 41/17/44
f 3/3/6 16/10/6 8/10/6
f 3/3/6 8/10/6 29/3/6
f 16/10/5 15/11/5 9/11/5
f 16/10/5 9/11/5 8/10/5
f 15/11/7 4/4/7 33/4/7
f 15/11/7 33/4/7 9/11/7
vn -0.9882000088691711 0.15309999883174896 -0.0
f 3/3/6 29/3/6 32/3/45
vn -0.9882000088691711 0.15299999713897705 0.0
f 3/3/6 32/3/45 27/3/46
vn 0.9882000088691711 0.15299999713897705 0.0
f 33/4/7 4/4/7 28/4/47
vn 0.9882000088691711 0.15309999883174896 -9.999999747378752e-05
f 33/4/7 28/4/47 35/4/48
vn -0.38269999623298645 0.9239000082015991 -0.0
f 19/17/44 18/3/49 38/3/49
f 19/17/44 38/3/49 41/17/44
vn -0.9239000082015991 0.38269999623298645 0.0
f 18/3/50 27/3/46 32/3/45
f 18/3/50 32/3/45 38/3/50
vn 0.9239000082015991 0.38269999623298645 0.0
f 28/4/47 17/4/51 39/4/51
f 28/4/47 39/4/51 35/4/48
vn 0.38269999623298645 0.9239000082015991 -0.0
f 17/4/52 20/18/43 44/18/43
f 17/4/52 44/18/43 39/4/52
f 30/3/4 7/9/4 49/23/28
f 30/3/4 49/23/28 45/3/4
f 7/9/4 10/12/4 51/24/28
f 7/9/4 51/24/28 49/23/28
f 10/12/4 34/4/4 53/4/4
f 10/12/4 53/4/4 51/24/28
f 31/3/4 30/3/4 45/3/4
f 31/3/4 45/3/4 48/3/4
f 34/4/4 36/4/4 55/4/4
f 34/4/4 55/4/4 53/4/4
f 37/19/4 31/3/4 48/3/4
f 37/19/4 48/3/4 58/3/4
f 36/4/4 40/20/4 59/4/4
f 36/4/4 59/4/4 55/4/4
f 40/20/4 43/22/4 63/26/4
f 40/20/4 63/26/4 59/4/4
f 43/22/4 42/21/4 62/25/4
f 43/22/4 62/25/4 63/26/4
f 42/21/4 37/19/4 58/3/4
f 42/21/4 58/3/4 62/25/4
vn 0.9307000041007996 0.0 0.36579999327659607
vn 0.9307000041007996 0.0 0.36570000648498535
f 46/3/53 50/10/54 13/10/54
f 46/3/53 13/10/54 12/3/53
vn 0.0 0.7222999930381775 0.6915000081062317
f 50/10/27 52/11/29 14/11/55
f 50/10/27 14/11/55 13/10/55
vn -0.9307000041007996 0.0 0.36570000648498535
vn -0.9307000041007996 0.0 0.36579999327659607
f 52/11/56 54/4/57 11/4/57
f 52/11/56 11/4/57 14/11/56
vn 0.9232000112533569 -0.0608999989926815 0.37950000166893005
f 47/3/58 46/3/53 12/3/53
vn 0.9259999990463257 -0.04149999842047691 0.37529999017715454
f 47/3/58 12/3/53 22/3/59
vn -0.9232000112533569 -0.0608999989926815 0.37950000166893005
vn -0.9259999990463257 -0.04149999842047691 0.37529999017715454
f 54/4/57 56/4/60 21/4/61
f 54/4/57 21/4/61 11/4/57
vn 0.8367000222206116 -0.3465999960899353 0.42399999499320984
f 57/3/62 47/3/58 22/3/59
f 57/3/62 22/3/59 24/3/62
vn -0.8367000222206116 -0.3465999960899353 0.42399999499320984
f 56/4/60 60/4/63 23/4/63
f 56/4/60 23/4/63 21/4/61
vn -0.3492000102996826 -0.8431000113487244 0.40880000591278076
vn -0.042500000447034836 -0.9370999932289124 0.3465000092983246
vn -0.025800000876188278 -0.939300000667572 0.34209999442100525
f 60/4/64 64/18/65 25/18/66
f 60/4/64 25/18/66 23/4/64
vn 0.042500000447034836 -0.9370999932289124 0.3465000092983246
vn 0.025800000876188278 -0.939300000667572 0.34209999442100525
f 64/18/65 61/17/67 26/17/68
f 64/18/65 26/17/68 25/18/66
vn 0.3492000102996826 -0.8431000113487244 0.40880000591278076
f 61/17/67 57/3/69 24/3/69
f 61/17/67 24/3/69 26/17/68
o beastie_fountain##0#0#1#1976360.0
g beastie_fountain##0#0#1#1976360.0
v 0.030402999371290207 0.0572579987347126 0.19533899426460266
vn -0.0 1.0 0.0
v -0.030402999371290207 0.0572579987347126 0.19533899426460266
v -0.030402999371290207 0.0572579987347126 0.20358499884605408
f 65/1/70 66/2/70 67/3/70
v 0.030402999371290207 0.0572579987347126 0.20358499884605408
f 65/1/70 67/3/70 68/4/70
v -0.030402999371290207 0.04473700001835823 0.20358499884605408
f 68/4/4 67/3/4 69/10/4
v 0.030402999371290207 0.04473700001835823 0.20358499884605408
f 68/4/4 69/10/4 70/11/4
v -0.030402999371290207 0.04473700001835823 0.19533899426460266
f 70/11/5 69/10/5 71/6/5
v 0.030402999371290207 0.04473700001835823 0.19533899426460266
f 70/11/5 71/6/5 72/5/5
f 66/2/6 71/13/6 69/14/6
f 66/2/6 69/14/6 67/3/6
f 72/15/7 65/1/7 68/4/7
f 72/15/7 68/4/7 70/16/7
v 0.030402999371290207 0.04064200073480606 0.19533899426460266
v -0.030402999371290207 0.04064200073480606 0.19533899426460266
v -0.030402999371290207 0.04064200073480606 0.20358499884605408
f 73/1/70 74/2/70 75/3/70
v 0.030402999371290207 0.04064200073480606 0.20358499884605408
f 73/1/70 75/3/70 76/4/70
v -0.030402999371290207 0.02812100015580654 0.20358499884605408
f 76/4/4 75/3/4 77/10/4
v 0.030402999371290207 0.02812100015580654 0.20358499884605408
f 76/4/4 77/10/4 78/11/4
v -0.030402999371290207 0.02812100015580654 0.19533899426460266
f 78/11/5 77/10/5 79/6/5
v 0.030402999371290207 0.02812100015580654 0.19533899426460266
f 78/11/5 79/6/5 80/5/5
f 74/2/6 79/13/6 77/14/6
f 74/2/6 77/14/6 75/3/6
f 80/15/7 73/1/7 76/4/7
f 80/15/7 76/4/7 78/16/7
v 0.030402999371290207 0.0247150007635355 0.19533899426460266
v -0.030402999371290207 0.0247150007635355 0.19533899426460266
v -0.030402999371290207 0.0247150007635355 0.20358499884605408
f 81/1/70 82/2/70 83/3/70
v 0.030402999371290207 0.0247150007635355 0.20358499884605408
f 81/1/70 83/3/70 84/4/70
v -0.030402999371290207 0.01219400018453598 0.20358499884605408
f 84/4/4 83/3/4 85/10/4
v 0.030402999371290207 0.01219400018453598 0.20358499884605408
f 84/4/4 85/10/4 86/11/4
v -0.030402999371290207 0.01219400018453598 0.19533899426460266
f 86/11/5 85/10/5 87/6/5
v 0.030402999371290207 0.01219400018453598 0.19533899426460266
f 86/11/5 87/6/5 88/5/5
f 82/2/6 87/13/6 85/14/6
f 82/2/6 85/14/6 83/3/6
f 88/15/7 81/1/7 84/4/7
f 88/15/7 84/4/7 86/16/7
v -0.14224599301815033 -0.06168700009584427 0.19051599502563477
v 0.14224599301815033 -0.06168700009584427 0.19051599502563477
v 0.14224599301815033 -0.06168700009584427 0.22438399493694305
f 89/10/5 90/11/5 91/11/5
v -0.14224599301815033 -0.06168700009584427 0.22438399493694305
f 89/10/5 91/11/5 92/10/5
v -0.10326699912548065 0.13788700103759766 0.27876898646354675
v -0.1128930002450943 0.13788700103759766 0.27876898646354675
v -0.1128930002450943 0.1279360055923462 0.27876898646354675
vt 0.6249989867210388 0.5
f 93/4/4 94/3/4 95/27/4
v -0.10326699912548065 0.1279360055923462 0.27876898646354675
f 93/4/4 95/27/4 96/11/4
v -0.10886900126934052 0.12152300029993057 0.2334890067577362
v -0.13090099394321442 0.12152300029993057 0.2334890067577362
v -0.13090099394321442 0.14429999887943268 0.2334890067577362
f 97/5/2 98/6/2 99/7/2
v -0.10886900126934052 0.14429999887943268 0.2334890067577362
f 97/5/2 99/7/2 100/8/2
v 0.14685800671577454 0.13790400326251984 0.22438399493694305
vn 0.9854000210762024 0.17000000178813934 0.0
v 0.14723800122737885 0.054482001811265945 0.22438399493694305
vn 0.9997000098228455 -0.023099999874830246 0.0
v 0.14723800122737885 0.054482001811265945 0.19051599502563477
f 101/4/71 102/4/72 103/4/72
v 0.14685800671577454 0.13790400326251984 0.19051599502563477
f 101/4/71 103/4/72 104/4/71
v 0.12367799878120422 0.19103799760341644 0.19051599502563477
vn 0.707099974155426 0.707099974155426 0.0
v 0.12367799878120422 0.19103799760341644 0.22438399493694305
f 104/4/71 105/4/73 106/4/73
f 104/4/71 106/4/73 101/4/71
v 0.07054399698972702 0.21421800553798676 0.19051599502563477
vn 0.1185000017285347 0.9929999709129333 0.0
v 0.07054399698972702 0.21421800553798676 0.22438399493694305
f 105/4/73 107/18/74 108/18/74
f 105/4/73 108/18/74 106/4/73
v -0.07054399698972702 0.21421800553798676 0.22438399493694305
vn -0.1185000017285347 0.9929999709129333 0.0
f 109/17/75 108/18/74 107/18/74
v -0.07054399698972702 0.21421800553798676 0.19051599502563477
f 109/17/75 107/18/74 110/17/75
v -0.12367799878120422 0.19103799760341644 0.19051599502563477
vn -0.707099974155426 0.707099974155426 0.0
v -0.12367799878120422 0.19103799760341644 0.22438399493694305
f 110/17/75 111/3/76 112/3/76
f 110/17/75 112/3/76 109/17/75
v -0.14685800671577454 0.13790400326251984 0.19051599502563477
vn -0.9854000210762024 0.17000000178813934 0.0
v -0.14685800671577454 0.13790400326251984 0.22438399493694305
f 111/3/76 113/3/77 114/3/77
f 111/3/76 114/3/77 112/3/76
v -0.14723800122737885 0.054482001811265945 0.19051599502563477
vn -0.9997000098228455 -0.023099999874830246 0.0
v -0.14723800122737885 0.054482001811265945 0.22438399493694305
f 113/3/77 115/3/78 116/3/78
f 113/3/77 116/3/78 114/3/77
vn -0.9991000294685364 -0.042899999767541885 0.0
f 115/3/78 89/10/79 92/10/79
f 115/3/78 92/10/79 116/3/78
vn 0.9991000294685364 -0.042899999767541885 0.0
f 90/11/80 103/4/72 102/4/72
f 90/11/80 102/4/72 91/11/80
v 0.1316870003938675 0.13347800076007843 0.2236970067024231
vn -0.04349999874830246 -0.0066999997943639755 0.9990000128746033
v 0.1316870003938675 0.05527200177311897 0.2236970067024231
vn -0.04820000007748604 0.0005000000237487257 0.9987999796867371
vn -0.048900000751018524 0.0006000000284984708 0.9987999796867371
f 117/4/81 118/4/82 102/4/83
vn -0.043299999088048935 -0.007600000128149986 0.9990000128746033
f 117/4/81 102/4/83 101/4/84
v 0.1316870003938675 0.05527200177311897 0.19120199978351593
vn -0.048500001430511475 0.0006000000284984708 -0.9987999796867371
v 0.1316870003938675 0.13347800076007843 0.19120199978351593
vn -0.04349999874830246 -0.0066999997943639755 -0.9990000128746033
vn -0.043299999088048935 -0.007600000128149986 -0.9990000128746033
f 119/4/85 120/4/86 104/4/87
vn -0.04879999905824661 0.0006000000284984708 -0.9987999796867371
f 119/4/85 104/4/87 103/4/88
v 0.1124039962887764 0.18003100156784058 0.19120199978351593
vn -0.029600000008940697 -0.029899999499320984 -0.9991000294685364
vn -0.02979999966919422 -0.02969999983906746 -0.9991000294685364
f 120/4/86 121/4/89 105/4/90
f 120/4/86 105/4/90 104/4/87
v 0.1124039962887764 0.18003100156784058 0.2236970067024231
vn -0.02969999983906746 -0.029899999499320984 0.9991000294685364
f 122/4/91 117/4/81 101/4/84
vn -0.02979999966919422 -0.02969999983906746 0.9991000294685364
f 122/4/91 101/4/84 106/4/92
v 0.06584999710321426 0.19931499660015106 0.19120199978351593
vn -0.004699999932199717 -0.04500000178813934 -0.9990000128746033
vn -0.00570000009611249 -0.04470000043511391 -0.9990000128746033
f 121/4/89 123/18/93 107/18/94
f 121/4/89 107/18/94 105/4/90
v 0.06584999710321426 0.19931499660015106 0.2236970067024231
vn -0.004699999932199717 -0.04500000178813934 0.9990000128746033
f 124/18/95 122/4/91 106/4/92
vn -0.00570000009611249 -0.04470000043511391 0.9990000128746033
f 124/18/95 106/4/92 108/18/96
v -0.06584999710321426 0.19931499660015106 0.2236970067024231
vn 0.004699999932199717 -0.04500000178813934 0.9990000128746033
f 125/17/97 124/18/95 108/18/96
vn 0.00570000009611249 -0.04470000043511391 0.9990000128746033
f 125/17/97 108/18/96 109/17/98
v -0.06584999710321426 0.19931499660015106 0.19120199978351593
vn 0.004699999932199717 -0.04500000178813934 -0.9990000128746033
vn 0.00570000009611249 -0.04470000043511391 -0.9990000128746033
f 123/18/93 126/17/99 110/17/100
f 123/18/93 110/17/100 107/18/94
v -0.1124039962887764 0.18003100156784058 0.19120199978351593
vn 0.029600000008940697 -0.029899999499320984 -0.9991000294685364
vn 0.02979999966919422 -0.02969999983906746 -0.9991000294685364
f 126/17/99 127/3/101 111/3/102
f 126/17/99 111/3/102 110/17/100
v -0.1124039962887764 0.18003100156784058 0.2236970067024231
vn 0.02969999983906746 -0.029899999499320984 0.9991000294685364
f 128/3/103 125/17/97 109/17/98
vn 0.02979999966919422 -0.02969999983906746 0.9991000294685364
f 128/3/103 109/17/98 112/3/104
v -0.1316870003938675 0.13347800076007843 0.19120199978351593
vn 0.04349999874830246 -0.006800000090152025 -0.9990000128746033
vn 0.043299999088048935 -0.007600000128149986 -0.9990000128746033
f 127/3/101 129/3/105 113/3/106
f 127/3/101 113/3/106 111/3/102
v -0.1316870003938675 0.13347800076007843 0.2236970067024231
vn 0.04349999874830246 -0.0066999997943639755 0.9990000128746033
f 130/3/107 128/3/103 112/3/104
vn 0.043299999088048935 -0.007600000128149986 0.9990000128746033
f 130/3/107 112/3/104 114/3/108
v -0.1316870003938675 0.05527200177311897 0.19120199978351593
vn 0.048500001430511475 0.0006000000284984708 -0.9987999796867371
vn 0.04879999905824661 0.0006000000284984708 -0.9987999796867371
f 129/3/105 131/3/109 115/3/110
f 129/3/105 115/3/110 113/3/106
v -0.1316870003938675 0.05527200177311897 0.2236970067024231
vn 0.04820000007748604 0.0005000000237487257 0.9987999796867371
f 132/3/111 130/3/107 114/3/108
vn 0.048900000751018524 0.0006000000284984708 0.9987999796867371
f 132/3/111 114/3/108 116/3/112
v -0.1316870003938675 -0.0513949990272522 0.19120199978351593
vn 0.01769999973475933 0.04439999908208847 -0.9988999962806702
vn 0.018799999728798866 0.0430000014603138 -0.9988999962806702
f 131/3/109 133/10/113 89/10/114
f 131/3/109 89/10/114 115/3/110
v -0.1316870003938675 -0.0513949990272522 0.2236970067024231
vn 0.01769999973475933 0.04439999908208847 0.9988999962806702
f 134/10/115 132/3/111 116/3/112
vn 0.018799999728798866 0.0430000014603138 0.9988999962806702
f 134/10/115 116/3/112 92/10/116
v 0.1316870003938675 -0.0513949990272522 0.19120199978351593
vn -0.01769999973475933 0.04439999908208847 -0.9988999962806702
vn -0.018799999728798866 0.0430000014603138 -0.9988999962806702
f 133/10/113 135/11/117 90/11/118
f 133/10/113 90/11/118 89/10/114
v 0.1316870003938675 -0.0513949990272522 0.2236970067024231
vn -0.01769999973475933 0.04439999908208847 0.9988999962806702
f 136/11/119 134/10/115 92/10/116
vn -0.018799999728798866 0.0430000014603138 0.9988999962806702
f 136/11/119 92/10/116 91/11/120
f 135/11/117 119/4/85 103/4/88
f 135/11/117 103/4/88 90/11/118
f 118/4/82 136/11/119 91/11/120
f 118/4/82 91/11/120 102/4/83
v -0.10879400372505188 0.13927699625492096 0.2689549922943115
vt 0.375 0.1958169937133789
vn -0.0 0.9901000261306763 0.14030000567436218
v -0.11228899657726288 0.1407109946012497 0.25883299112319946
vt 0.375 0.14164501428604126
v -0.12761099636554718 0.14076000452041626 0.2584860026836395
vt 0.625 0.14164501428604126
vn -0.0 0.9901000261306763 0.14020000398159027
f 137/28/121 138/29/121 139/30/122
v -0.12194400280714035 0.13941800594329834 0.26795700192451477
vt 0.625 0.19030600786209106
f 137/28/121 139/30/122 140/31/121
v -0.11197999864816666 0.14222699403762817 0.2481289952993393
vt 0.375 0.08082997798919678
v -0.13002300262451172 0.14227800071239471 0.247762992978096
vt 0.625 0.07880902290344238
f 138/29/121 141/32/122 142/33/122
f 138/29/121 142/33/122 139/30/122
f 137/28/121 140/31/121 94/3/122
f 137/28/121 94/3/122 93/4/122
vn 0.0 -0.9901000261306763 0.14020000398159027
v -0.12194400280714035 0.1264050006866455 0.26795700192451477
vt 0.625 0.5596939921379089
f 96/11/123 95/27/123 143/34/123
v -0.10879400372505188 0.12654699385166168 0.2689549922943115
vt 0.375 0.5541830062866211
f 96/11/123 143/34/123 144/35/123
vn -0.817799985408783 0.0 0.5755000114440918
vt 0.875 0.19030600786209106
vn -0.7667999863624573 0.0 0.6419000029563904
f 140/31/124 143/36/124 95/14/125
f 140/31/124 95/14/125 94/3/125
vt 0.125 0.1958169937133789
vn 0.9179999828338623 0.0 -0.39649999141693115
vn 0.8712999820709229 0.0 -0.49070000648498535
f 144/37/126 137/28/126 93/4/127
f 144/37/126 93/4/127 96/16/127
f 100/1/122 99/2/122 142/33/122
f 100/1/122 142/33/122 141/32/122
vn -0.9980999827384949 0.0 0.061400000005960464
v -0.13002300262451172 0.12354499846696854 0.247762992978096
vt 0.875 0.07880902290344238
vn -0.9932000041007996 -0.0 0.11680000275373459
f 99/2/128 98/13/128 145/38/129
f 99/2/128 145/38/129 142/33/129
v -0.11197999864816666 0.12359700351953506 0.2481289952993393
vt 0.375 0.6691699922084808
vn 0.0 -0.9901000261306763 0.14030000567436218
vt 0.625 0.67119100689888
f 146/39/130 145/40/130 98/6/130
f 146/39/130 98/6/130 97/5/130
vn 0.9782000184059143 0.0 0.2079000025987625
vn 0.9887999892234802 -0.0 0.14910000562667847
f 97/15/131 100/1/131 141/32/132
vt 0.125 0.08082997798919678
f 97/15/131 141/32/132 146/41/132
vn -0.9383000135421753 0.0 0.3458000123500824
v -0.12761099636554718 0.12506400048732758 0.2584860026836395
vt 0.875 0.14164501428604126
f 140/31/124 139/30/133 147/42/133
f 140/31/124 147/42/133 143/36/124
f 139/30/133 142/33/129 145/38/129
f 139/30/133 145/38/129 147/42/133
vt 0.625 0.6083549857139587
v -0.11228899657726288 0.12511299550533295 0.25883299112319946
vt 0.375 0.6083549857139587
f 143/34/123 147/43/123 148/44/123
f 143/34/123 148/44/123 144/35/123
f 147/43/123 145/40/130 146/39/130
f 147/43/123 146/39/130 148/44/123
vn 0.992900013923645 -0.0 -0.11869999766349792
vt 0.125 0.14164501428604126
f 141/32/132 138/29/134 148/45/134
f 141/32/132 148/45/134 146/41/132
f 138/29/134 137/28/126 144/37/126
f 138/29/134 144/37/126 148/45/134
