# OBJ file
o __dotobj_group__##0#1#0#-1.0
g __dotobj_group__##0#1#0#-1.0
o Cube.075_Cube.106##0#1#0#-1.0
g Cube.075_Cube.106##0#1#0#-1.0
v 0.1035970002412796 -0.03453199937939644 -0.007985999807715416
vt 0.375 0.16666698455810547
vn 1.0 0.0 0.0
v 0.1035970002412796 -0.03453199937939644 0.15892499685287476
vt 0.625 0.16666698455810547
v 0.1035970002412796 -0.1035970002412796 0.15892499685287476
vt 0.625 0.25
f 1/1/1 2/2/1 3/3/1
v 0.1035970002412796 -0.1035970002412796 -0.007985999807715416
vt 0.375 0.25
f 1/1/1 3/3/1 4/4/1
v -0.03453199937939644 -0.1035970002412796 -0.007985999807715416
vt 0.375 0.41666698455810547
vn -0.0 -1.0 0.0
v -0.03453199937939644 -0.1035970002412796 0.15892499685287476
vt 0.625 0.41666698455810547
v -0.1035970002412796 -0.1035970002412796 0.15892499685287476
vt 0.625 0.5
f 5/5/2 6/6/2 7/7/2
v -0.1035970002412796 -0.1035970002412796 -0.007985999807715416
vt 0.375 0.5
f 5/5/2 7/7/2 8/8/2
v -0.1035970002412796 0.03453199937939644 -0.007985999807715416
vt 0.375 0.6666670143604279
vn -1.0 0.0 -0.0
v -0.1035970002412796 0.03453199937939644 0.15892499685287476
vt 0.625 0.6666670143604279
v -0.1035970002412796 0.1035970002412796 0.15892499685287476
vt 0.625 0.75
f 9/9/3 10/10/3 11/11/3
v -0.1035970002412796 0.1035970002412796 -0.007985999807715416
vt 0.375 0.75
f 9/9/3 11/11/3 12/12/3
v 0.03453199937939644 0.1035970002412796 -0.007985999807715416
vt 0.375 0.9166669994592667
vn -0.0 1.0 -0.0
v 0.03453199937939644 0.1035970002412796 0.15892499685287476
vt 0.625 0.9166669994592667
v 0.1035970002412796 0.1035970002412796 0.15892499685287476
vt 0.625 1.0
f 13/13/4 14/14/4 15/15/4
v 0.1035970002412796 0.1035970002412796 -0.007985999807715416
vt 0.375 1.0
f 13/13/4 15/15/4 16/16/4
v -0.03453199937939644 0.03453199937939644 -0.007985999807715416
vt 0.29166701436042786 0.6666670143604279
vn -0.0 -0.0 -1.0
f 17/17/5 9/9/5 12/12/5
v -0.03453199937939644 0.1035970002412796 -0.007985999807715416
vt 0.29166701436042786 0.75
f 17/17/5 12/12/5 18/18/5
v -0.08640000224113464 -0.02879999950528145 0.15892499685287476
vt 0.6457499861717224 0.5902499854564667
v -0.08640000224113464 -0.08640000224113464 0.15892499685287476
vt 0.6457499861717224 0.5207499861717224
v -0.08640000224113464 -0.08640000224113464 0.009793000295758247
f 19/19/1 20/20/1 21/20/1
v -0.08640000224113464 -0.02879999950528145 0.009793000295758247
f 19/19/1 21/20/1 22/19/1
v 0.08640000224113464 -0.02879999950528145 0.15892499685287476
vt 0.8542500138282776 0.5902499854564667
vn 0.0 0.0 1.0
v 0.08640000224113464 -0.08640000224113464 0.15892499685287476
vt 0.8542500138282776 0.5207499861717224
vt 0.875 0.5
f 23/21/6 24/22/6 3/23/6
vt 0.875 0.5833329856395721
f 23/21/6 3/23/6 2/24/6
v -0.02879999950528145 -0.08640000224113464 0.15892499685287476
vt 0.7152500152587891 0.5207499861717224
f 25/25/6 20/20/6 7/7/6
vt 0.7083330154418945 0.5
f 25/25/6 7/7/6 6/26/6
v -0.08640000224113464 0.02879999950528145 0.15892499685287476
vt 0.6457499861717224 0.6597500145435333
v -0.08640000224113464 0.08640000224113464 0.15892499685287476
vt 0.6457499861717224 0.7292500138282776
f 26/27/6 27/28/6 11/11/6
f 26/27/6 11/11/6 10/10/6
v 0.02879999950528145 0.08640000224113464 0.15892499685287476
vt 0.7847499847412109 0.7292500138282776
v 0.08640000224113464 0.08640000224113464 0.15892499685287476
vt 0.8542500138282776 0.7292500138282776
vt 0.875 0.75
f 28/29/6 29/30/6 15/31/6
vt 0.7916669845581055 0.75
f 28/29/6 15/31/6 14/32/6
v 0.02879999950528145 0.02879999950528145 0.009793000295758247
vt 0.7847499847412109 0.6597500145435333
v 0.08640000224113464 0.02879999950528145 0.009793000295758247
vt 0.8542500138282776 0.6597500145435333
v 0.08640000224113464 0.08640000224113464 0.009793000295758247
f 30/33/6 31/34/6 32/30/6
v 0.02879999950528145 0.08640000224113464 0.009793000295758247
f 30/33/6 32/30/6 33/29/6
v 0.08640000224113464 0.02879999950528145 0.15892499685287476
f 34/34/3 29/30/3 32/30/3
f 34/34/3 32/30/3 31/34/3
v -0.02879999950528145 0.08640000224113464 0.15892499685287476
vt 0.7152500152587891 0.7292500138282776
v -0.08640000224113464 0.08640000224113464 0.009793000295758247
f 35/35/2 27/28/2 36/28/2
v -0.02879999950528145 0.08640000224113464 0.009793000295758247
f 35/35/2 36/28/2 37/35/2
v 0.02879999950528145 -0.08640000224113464 0.15892499685287476
vt 0.7847499847412109 0.5207499861717224
v 0.08640000224113464 -0.08640000224113464 0.009793000295758247
f 38/36/4 24/22/4 39/22/4
v 0.02879999950528145 -0.08640000224113464 0.009793000295758247
f 38/36/4 39/22/4 40/36/4
v 0.08640000224113464 -0.02879999950528145 0.009793000295758247
f 24/22/3 23/21/3 41/21/3
f 24/22/3 41/21/3 39/22/3
f 23/21/3 34/34/3 31/34/3
f 23/21/3 31/34/3 41/21/3
f 40/36/6 39/22/6 41/21/6
v 0.02879999950528145 -0.02879999950528145 0.009793000295758247
vt 0.7847499847412109 0.5902499854564667
f 40/36/6 41/21/6 42/37/6
f 42/37/6 41/21/6 31/34/6
f 42/37/6 31/34/6 30/33/6
v -0.1035970002412796 -0.03453199937939644 0.15892499685287476
vt 0.625 0.5833329856395721
f 20/20/6 19/19/6 43/38/6
f 20/20/6 43/38/6 7/7/6
v 0.1035970002412796 0.03453199937939644 0.15892499685287476
vt 0.875 0.6666670143604279
f 29/30/6 34/34/6 44/39/6
f 29/30/6 44/39/6 15/31/6
v -0.08640000224113464 0.02879999950528145 0.009793000295758247
f 27/28/1 26/27/1 45/27/1
f 27/28/1 45/27/1 36/28/1
f 26/27/1 19/19/1 22/19/1
f 26/27/1 22/19/1 45/27/1
vt 0.29166701436042786 0.5
v -0.1035970002412796 -0.03453199937939644 -0.007985999807715416
vt 0.375 0.5833329856395721
f 5/40/5 8/8/5 46/41/5
v -0.03453199937939644 -0.03453199937939644 -0.007985999807715416
vt 0.29166701436042786 0.5833329856395721
f 5/40/5 46/41/5 47/42/5
f 8/8/3 7/7/3 43/38/3
f 8/8/3 43/38/3 46/41/3
vt 0.375 0.0
vt 0.625 0.0
vt 0.625 0.08333301544189453
f 16/43/1 15/44/1 44/45/1
v 0.1035970002412796 0.03453199937939644 -0.007985999807715416
vt 0.375 0.08333301544189453
f 16/43/1 44/45/1 48/46/1
vt 0.125 0.5
v 0.03453199937939644 -0.1035970002412796 -0.007985999807715416
vt 0.20833300054073334 0.5
v 0.03453199937939644 -0.03453199937939644 -0.007985999807715416
vt 0.20833300054073334 0.5833329856395721
f 4/47/5 49/48/5 50/49/5
vt 0.125 0.5833329856395721
f 4/47/5 50/49/5 1/50/5
v -0.02879999950528145 -0.02879999950528145 0.009793000295758247
vt 0.7152500152587891 0.5902499854564667
v -0.02879999950528145 0.02879999950528145 0.009793000295758247
vt 0.7152500152587891 0.6597500145435333
f 22/19/6 51/51/6 52/52/6
f 22/19/6 52/52/6 45/27/6
f 51/51/6 42/37/6 30/33/6
f 51/51/6 30/33/6 52/52/6
v -0.02879999950528145 -0.08640000224113464 0.009793000295758247
f 21/20/6 53/25/6 51/51/6
f 21/20/6 51/51/6 22/19/6
f 53/25/6 40/36/6 42/37/6
f 53/25/6 42/37/6 51/51/6
f 20/20/4 25/25/4 53/25/4
f 20/20/4 53/25/4 21/20/4
f 25/25/4 38/36/4 40/36/4
f 25/25/4 40/36/4 53/25/4
f 29/30/2 28/29/2 33/29/2
f 29/30/2 33/29/2 32/30/2
f 28/29/2 35/35/2 37/35/2
f 28/29/2 37/35/2 33/29/2
f 45/27/6 52/52/6 37/35/6
f 45/27/6 37/35/6 36/28/6
f 52/52/6 30/33/6 33/29/6
f 52/52/6 33/29/6 37/35/6
v -0.03453199937939644 0.1035970002412796 0.15892499685287476
vt 0.7083330154418945 0.75
f 27/28/6 35/35/6 54/53/6
f 27/28/6 54/53/6 11/11/6
v 0.03453199937939644 -0.1035970002412796 0.15892499685287476
vt 0.7916669845581055 0.5
f 24/22/6 38/36/6 55/54/6
f 24/22/6 55/54/6 3/23/6
vt 0.125 0.6666670143604279
v 0.03453199937939644 0.03453199937939644 -0.007985999807715416
vt 0.20833300054073334 0.6666670143604279
vt 0.20833300054073334 0.75
f 48/55/5 56/56/5 13/57/5
vt 0.125 0.75
f 48/55/5 13/57/5 16/58/5
vt 0.625 0.8333330005407333
f 12/12/4 11/11/4 54/59/4
vt 0.375 0.8333330005407333
f 12/12/4 54/59/4 18/60/4
vt 0.625 0.33333301544189453
f 4/4/2 3/3/2 55/61/2
vt 0.375 0.33333301544189453
f 4/4/2 55/61/2 49/62/2
o Cube.075_Cube.106##0#2#1#-1.0
g Cube.075_Cube.106##0#2#1#-1.0
f 19/19/6 26/27/6 10/10/6
f 19/19/6 10/10/6 43/38/6
f 34/34/6 23/21/6 2/24/6
f 34/34/6 2/24/6 44/39/6
f 47/42/5 46/41/5 9/9/5
f 47/42/5 9/9/5 17/17/5
f 46/41/3 43/38/3 10/10/3
f 46/41/3 10/10/3 9/9/3
f 48/46/1 44/45/1 2/2/1
f 48/46/1 2/2/1 1/1/1
f 1/50/5 50/49/5 56/56/5
f 1/50/5 56/56/5 48/55/5
f 50/49/5 47/42/5 17/17/5
f 50/49/5 17/17/5 56/56/5
f 49/48/5 5/40/5 47/42/5
f 49/48/5 47/42/5 50/49/5
f 35/35/6 28/29/6 14/32/6
f 35/35/6 14/32/6 54/53/6
f 38/36/6 25/25/6 6/26/6
f 38/36/6 6/26/6 55/54/6
f 56/56/5 17/17/5 18/18/5
f 56/56/5 18/18/5 13/57/5
f 18/60/4 54/59/4 14/14/4
f 18/60/4 14/14/4 13/13/4
f 49/62/2 55/61/2 6/6/2
f 49/62/2 6/6/2 5/5/2
o lid_up_Plane.033##0#2#0#-1.0
g lid_up_Plane.033##0#2#0#-1.0
v -0.0 -0.0766260027885437 0.2365269958972931
vt 1.0 1.0
vn -0.46209999918937683 -0.46209999918937683 -0.7569000124931335
v -0.0766260027885437 0.0 0.2365269958972931
vt 1.0 0.0
v -0.0 0.0 0.18974800407886505
f 57/63/7 58/64/7 59/63/7
v -0.0 0.0766260027885437 0.2365269958972931
vt 0.0 0.0
vn 0.46209999918937683 0.46209999918937683 -0.7569000124931335
v 0.0766260027885437 0.0 0.2365269958972931
vt 0.0 1.0
f 60/65/8 61/66/8 59/65/8
vn -0.5338000059127808 -0.5338000059127808 0.6557999849319458
v -0.0 0.0 0.2989000082015991
f 58/64/9 57/63/9 62/64/9
vn 0.5338000059127808 0.5338000059127808 0.6557999849319458
f 61/66/10 60/65/10 62/66/10
vn 0.5338000059127808 -0.5338000059127808 0.6557999849319458
f 57/63/11 61/66/11 62/63/11
vn -0.5338000059127808 0.5338000059127808 0.6557999849319458
f 60/65/12 58/64/12 62/65/12
vn 0.46209999918937683 -0.46209999918937683 -0.7569000124931335
f 61/66/13 57/63/13 59/66/13
vn -0.46209999918937683 0.46209999918937683 -0.7569000124931335
f 58/64/14 60/65/14 59/64/14
v 0.03743699938058853 -0.03743699938058853 0.20792199671268463
vt 0.7916669845581055 0.5833329856395721
v 0.1123109981417656 -0.03743699938058853 0.20792199671268463
v 0.1123109981417656 0.03743699938058853 0.20792199671268463
f 63/67/6 64/24/6 65/39/6
v 0.03743699938058853 0.03743699938058853 0.20792199671268463
vt 0.7916669845581055 0.6666670143604279
f 63/67/6 65/39/6 66/68/6
v -0.03743699938058853 -0.03743699938058853 0.14467200636863708
v -0.1123109981417656 -0.03743699938058853 0.14467200636863708
v -0.1123109981417656 0.03743699938058853 0.14467200636863708
f 67/42/5 68/41/5 69/9/5
v -0.03743699938058853 0.03743699938058853 0.14467200636863708
f 67/42/5 69/9/5 70/17/5
v -0.1123109981417656 -0.03743699938058853 0.20792199671268463
v -0.1123109981417656 0.03743699938058853 0.20792199671268463
f 68/41/3 71/38/3 72/10/3
f 68/41/3 72/10/3 69/9/3
v 0.1123109981417656 0.03743699938058853 0.14467200636863708
f 73/46/1 65/45/1 64/2/1
v 0.1123109981417656 -0.03743699938058853 0.14467200636863708
f 73/46/1 64/2/1 74/1/1
v 0.03743699938058853 -0.03743699938058853 0.14467200636863708
v 0.03743699938058853 0.03743699938058853 0.14467200636863708
f 74/50/5 75/49/5 76/56/5
f 74/50/5 76/56/5 73/55/5
f 75/49/5 67/42/5 70/17/5
f 75/49/5 70/17/5 76/56/5
v 0.03743699938058853 -0.1123109981417656 0.14467200636863708
v -0.03743699938058853 -0.1123109981417656 0.14467200636863708
f 77/48/5 78/40/5 67/42/5
f 77/48/5 67/42/5 75/49/5
v -0.03743699938058853 -0.03743699938058853 0.20792199671268463
vt 0.7083330154418945 0.5833329856395721
v -0.03743699938058853 0.03743699938058853 0.20792199671268463
vt 0.7083330154418945 0.6666670143604279
f 71/38/6 79/69/6 80/70/6
f 71/38/6 80/70/6 72/10/6
f 79/69/6 63/67/6 66/68/6
f 79/69/6 66/68/6 80/70/6
v -0.03743699938058853 -0.1123109981417656 0.20792199671268463
v 0.03743699938058853 -0.1123109981417656 0.20792199671268463
f 81/26/6 82/54/6 63/67/6
f 81/26/6 63/67/6 79/69/6
v 0.03743699938058853 0.1123109981417656 0.20792199671268463
f 80/70/6 66/68/6 83/32/6
v -0.03743699938058853 0.1123109981417656 0.20792199671268463
f 80/70/6 83/32/6 84/53/6
v -0.03743699938058853 0.1123109981417656 0.14467200636863708
f 76/56/5 70/17/5 85/18/5
v 0.03743699938058853 0.1123109981417656 0.14467200636863708
f 76/56/5 85/18/5 86/57/5
f 85/60/4 84/59/4 83/14/4
f 85/60/4 83/14/4 86/13/4
f 77/62/2 82/61/2 81/6/2
f 77/62/2 81/6/2 78/5/2
o lid_up_Plane.033##0#1#1#-1.0
g lid_up_Plane.033##0#1#1#-1.0
v 0.1123109981417656 -0.1123109981417656 0.20792199671268463
f 74/1/1 64/2/1 87/3/1
v 0.1123109981417656 -0.1123109981417656 0.14467200636863708
f 74/1/1 87/3/1 88/4/1
v -0.1123109981417656 -0.1123109981417656 0.20792199671268463
f 78/5/2 81/6/2 89/7/2
v -0.1123109981417656 -0.1123109981417656 0.14467200636863708
f 78/5/2 89/7/2 90/8/2
v -0.1123109981417656 0.1123109981417656 0.20792199671268463
f 69/9/3 72/10/3 91/11/3
v -0.1123109981417656 0.1123109981417656 0.14467200636863708
f 69/9/3 91/11/3 92/12/3
v 0.1123109981417656 0.1123109981417656 0.20792199671268463
f 86/13/4 83/14/4 93/15/4
v 0.1123109981417656 0.1123109981417656 0.14467200636863708
f 86/13/4 93/15/4 94/16/4
f 70/17/5 69/9/5 92/12/5
f 70/17/5 92/12/5 85/18/5
f 66/68/6 65/39/6 93/31/6
f 66/68/6 93/31/6 83/32/6
f 82/54/6 87/23/6 64/24/6
f 82/54/6 64/24/6 63/67/6
f 78/40/5 90/8/5 68/41/5
f 78/40/5 68/41/5 67/42/5
f 90/8/3 89/7/3 71/38/3
f 90/8/3 71/38/3 68/41/3
f 94/43/1 93/44/1 65/45/1
f 94/43/1 65/45/1 73/46/1
f 88/47/5 77/48/5 75/49/5
f 88/47/5 75/49/5 74/50/5
f 89/7/6 81/26/6 79/69/6
f 89/7/6 79/69/6 71/38/6
f 72/10/6 80/70/6 84/53/6
f 72/10/6 84/53/6 91/11/6
f 73/55/5 76/56/5 86/57/5
f 73/55/5 86/57/5 94/58/5
f 92/12/4 91/11/4 84/59/4
f 92/12/4 84/59/4 85/60/4
f 88/4/2 87/3/2 82/61/2
f 88/4/2 82/61/2 77/62/2
o gift.COLLIDER_Cube.001##0#0#0#-1.0
g gift.COLLIDER_Cube.001##0#0#0#-1.0
v 0.04595400020480156 0.04595400020480156 0.000770999991800636
v 0.04595400020480156 0.04595400020480156 0.209074005484581
v 0.04595400020480156 -0.04595400020480156 0.209074005484581
f 95/43/1 96/44/1 97/3/1
v 0.04595400020480156 -0.04595400020480156 0.000770999991800636
f 95/43/1 97/3/1 98/4/1
v -0.04595400020480156 -0.04595400020480156 0.209074005484581
f 98/4/2 97/3/2 99/7/2
v -0.04595400020480156 -0.04595400020480156 0.000770999991800636
f 98/4/2 99/7/2 100/8/2
v -0.04595400020480156 0.04595400020480156 0.209074005484581
f 100/8/3 99/7/3 101/11/3
v -0.04595400020480156 0.04595400020480156 0.000770999991800636
f 100/8/3 101/11/3 102/12/3
f 102/12/4 101/11/4 96/15/4
f 102/12/4 96/15/4 95/16/4
f 98/47/5 100/8/5 102/12/5
f 98/47/5 102/12/5 95/58/5
f 99/7/6 97/23/6 96/31/6
f 99/7/6 96/31/6 101/11/6
