# OBJ file
o __dotobj_group__##0#1#0#-1.0
g __dotobj_group__##0#1#0#-1.0
o Cube#gloves#99#1#0#-1.0
g Cube#gloves#99#1#0#-1.0
v -0.4204689860343933 0.10493099689483643 0.013593999668955803
vt 0.05865224202473958 0.4300880432128906
vn 0.353300005197525 0.7885000109672546 0.5034000277519226
v -0.3828499913215637 0.08897099643945694 0.0147280003875494
vt 0.1257781982421875 0.5883150100708008
v -0.3826749920845032 0.0966780036687851 0.0
vt 0.09336598714192708 0.5890509287516277
f 1/1/1 2/2/1 3/3/1
v -0.42184001207351685 0.11584299802780151 0.0
vt 0.01275634765625 0.42432212829589844
f 1/1/1 3/3/1 4/4/1
v -0.5006890296936035 0.06777200102806091 0.013365999795496464
vt 0.21494801839192706 0.09267711639404297
vn -0.5174000263214111 0.5855000019073486 0.6241000294685364
v -0.4867680072784424 0.08240599930286407 0.01129399985074997
vt 0.15339406331380206 0.1512298583984375
v -0.4880320131778717 0.09320499747991562 0.0
vt 0.10797119140625 0.14591089884440112
f 5/5/2 6/6/2 7/7/2
v -0.5017049908638 0.08124300092458725 0.0
vt 0.15828704833984375 0.08840115865071618
f 5/5/2 7/7/2 8/8/2
v -0.30529600381851196 -0.0630669966340065 0.017274999991059303
vt 0.7652638753255208 0.9145148595174154
vn 0.6104999780654907 0.01810000091791153 0.7918000221252441
v -0.29695600271224976 -0.06198899820446968 0.006283000111579895
vt 0.7607320149739583 0.9495930671691895
v -0.28499600291252136 0.007841999642550945 0.0
vt 0.46701812744140625 0.9999000231424967
f 9/9/3 10/10/3 11/11/3
v -0.3018369972705841 0.008076000027358532 0.008441000245511532
vt 0.466033935546875 0.9290650685628256
f 9/9/3 11/11/3 12/12/3
v -0.4875270128250122 -0.06305400282144547 0.021446000784635544
vt 0.7652130126953125 0.14803791046142578
vn -0.5382999777793884 0.0608999989926815 0.8406000137329102
v -0.46639400720596313 -0.046769000589847565 0.021446000784635544
vt 0.69671630859375 0.23692385355631518
v -0.47899898886680603 0.02088800072669983 0.020826000720262527
vt 0.39948527018229163 0.18005212148030603
f 13/13/4 14/14/4 15/15/4
v -0.49518099427223206 -0.00521499989554286 0.0
vt 0.5219345092773438 0.11584186553955078
f 13/13/4 15/15/4 16/16/4
v -0.41304200887680054 -0.03884800150990486 0.021446000784635544
vt 0.6633961995442708 0.461327870686849
vn 0.15230000019073486 0.06849999725818634 0.9860000014305115
v -0.37094101309776306 -0.06268899887800217 0.018355999141931534
vt 0.7636769612630208 0.6384089787801107
v -0.3826029896736145 0.037004001438617706 0.011474000290036201
vt 0.34435780843098956 0.5893570582071941
f 17/17/5 18/18/5 19/19/5
v -0.41304200887680054 0.033858999609947205 0.01815200038254261
vt 0.35758463541666663 0.461327870686849
f 17/17/5 19/19/5 20/20/5
v -0.31776100397109985 0.07325399667024612 0.014108999632298946
vt 0.19188690185546875 0.862087885538737
vn 0.34769999980926514 0.7232999801635742 0.5965999960899353
v -0.30973199009895325 0.07142800092697144 0.0071760001592338085
vt 0.19956715901692706 0.8958568572998047
v -0.3167569935321808 0.08440700173377991 0.0
vt 0.1449737548828125 0.8663110733032227
f 21/21/6 22/22/6 23/23/6
v -0.3353919982910156 0.08968199789524078 0.0
vt 0.12279001871744791 0.7879298528035482
f 21/21/6 23/23/6 24/24/6
vn 0.1347000002861023 0.798799991607666 0.5863000154495239
v -0.35385599732398987 0.08146300166845322 0.014108999632298946
vt 0.15736134847005206 0.7102689743041992
v -0.35373300313949585 0.09487300366163254 0.0
vt 0.10095723470052083 0.710784912109375
f 2/2/7 25/25/7 26/26/7
f 2/2/7 26/26/7 3/3/7
vn 0.13650000095367432 0.10520000010728836 0.9850000143051147
v -0.3462989926338196 -0.0683630034327507 0.01769999973475933
vt 0.7875417073567708 0.7420549392700195
v -0.3545210063457489 0.008808000013232231 0.008441000245511532
vt 0.46295166015625 0.7074689865112305
f 18/18/8 27/27/8 28/28/8
f 18/18/8 28/28/8 19/19/8
vn 0.01720000058412552 0.029400000348687172 0.9994000196456909
f 14/14/9 17/17/9 20/20/9
f 14/14/9 20/20/9 15/15/9
vn -0.2551000118255615 0.7150999903678894 0.6507999897003174
f 6/6/10 1/1/10 4/4/10
f 6/6/10 4/4/10 7/7/10
v -0.5461199879646301 -0.07607699930667877 0.022763999179005623
vt 0.8058929443359375 0.0136260986328125
vn 0.02410000003874302 0.28999999165534973 0.9567000269889832
f 29/29/11 13/13/11 16/16/11
v -0.5476539731025696 -0.019520999863743782 0.009758999571204185
vt 0.5680135091145833 0.007171948750813839
f 29/29/11 16/16/11 30/30/11
v -0.5387009978294373 0.07096000015735626 0.014661000110208988
vt 0.2131220499674479 0.001201947530110714
vn 0.09040000289678574 0.6935999989509583 0.7146999835968018
f 31/31/12 5/5/12 8/8/12
v -0.5389630198478699 0.08653300255537033 0.0
vt 0.14761861165364581 0.00010013580322265625
f 31/31/12 8/8/12 32/32/12
v -0.545287013053894 -0.10675899684429169 0.013914000242948532
vt 0.9349416097005208 0.017127037048339844
vn 0.07729999721050262 -0.2676999866962433 0.9603999853134155
v -0.4833739995956421 -0.09443199634552002 0.012594999745488167
vt 0.8971888224283854 0.16550413767496752
f 33/33/13 34/34/13 13/13/13
f 33/33/13 13/13/13 29/29/13
v -0.4555869996547699 -0.08043300360441208 0.013752000406384468
vt 0.8383076985677083 0.2823801040649414
vn 0.019300000742077827 -0.20100000500679016 0.9793999791145325
v -0.41304200887680054 -0.08477400243282318 0.012594999745488167
vt 0.8565673828125 0.461327870686849
f 35/35/14 36/36/14 17/17/14
f 35/35/14 17/17/14 14/14/14
v -0.36684900522232056 -0.09766899794340134 0.012180999852716923
vt 0.9108022054036458 0.6556199391682943
vn 0.029600000008940697 -0.20499999821186066 0.9782999753952026
v -0.3434160053730011 -0.09541500359773636 0.01066800020635128
vt 0.9013239542643229 0.7541790008544922
f 37/37/15 38/38/15 27/27/15
f 37/37/15 27/27/15 18/18/15
vn -0.037700001150369644 -0.1843000054359436 0.9821000099182129
f 36/36/16 37/37/16 18/18/16
f 36/36/16 18/18/16 17/17/16
vn 0.11349999904632568 -0.22030000388622284 0.9688000082969666
f 34/34/17 35/35/17 14/14/17
f 34/34/17 14/14/17 13/13/17
v -0.30614298582077026 -0.08448299765586853 0.011144000105559826
vt 0.8553415934244791 0.9109541575113932
vn 0.7603999972343445 -0.1754000037908554 0.6252999901771545
v -0.3003309965133667 -0.08277799934148788 0.005708000157028437
vt 0.8481699625651041 0.9353979428609213
f 39/39/18 40/40/18 10/10/18
f 39/39/18 10/10/18 9/9/18
v -0.5376729965209961 0.009848999790847301 0.012469000183045864
vt 0.4701588948567708 0.005525906880696652
vn -0.03400000184774399 -0.04879999905824661 0.998199999332428
v -0.4966999888420105 0.014910000376403332 0.015015999786555767
vt 0.4372889200846354 0.10945510864257812
v -0.49844300746917725 0.0380139984190464 0.015182999894022942
vt 0.34011077880859375 0.10212198893229174
f 41/41/19 42/42/19 43/43/19
v -0.5381219983100891 0.03655900061130524 0.014661000110208988
vt 0.35781606038411456 0.003636042277018303
f 41/41/19 43/43/19 44/44/19
v -0.4801900088787079 0.03362800180912018 0.02377299964427948
vt 0.33163197835286456 0.17210515340169275
vn -0.09030000120401382 0.13490000367164612 0.9866999983787537
v -0.41508999466896057 0.055723998695611954 0.02237600088119507
vt 0.26561991373697913 0.4527139663696289
v -0.4174410104751587 0.08082599937915802 0.02306400053203106
vt 0.16003926595052081 0.44282499949137377
f 45/45/20 46/46/20 47/47/20
v -0.48397400975227356 0.05855099856853485 0.01568399928510189
vt 0.2537282307942708 0.16298198699951172
f 45/45/20 47/47/20 48/48/20
v -0.3851650059223175 0.051003001630306244 0.018871000036597252
vt 0.25297292073567706 0.5854288736979167
vn 0.04430000111460686 -0.08940000087022781 0.9950000047683716
v -0.35177499055862427 0.03330700099468231 0.014681999571621418
vt 0.37869008382161456 0.7082411448160808
v -0.3541269898414612 0.05183999985456467 0.017565999180078506
vt 0.2819544474283854 0.7091271082560222
f 49/49/21 50/50/21 51/51/21
v -0.38323700428009033 0.07194799929857254 0.019554000347852707
vt 0.19738006591796875 0.5866909027099609
f 49/49/21 51/51/21 52/52/21
v -0.3175550103187561 0.036421999335289 0.015352999791502953
vt 0.35280609130859375 0.8595078786214193
vn 0.4456000030040741 -0.0421999990940094 0.8942000269889832
v -0.3061310052871704 0.03677700087428093 0.011334000155329704
vt 0.34823099772135413 0.9093268712361654
v -0.30079901218414307 0.045145999640226364 0.007414999883621931
vt 0.31011199951171875 0.9334309895833334
f 53/53/22 54/54/22 55/55/22
v -0.31764599680900574 0.04726099967956543 0.017565999180078506
vt 0.30121612548828125 0.8625720342000326
f 53/53/22 55/55/22 56/56/22
vn -0.40299999713897705 0.10360000282526016 0.9093000292778015
f 42/42/23 45/45/23 48/48/23
f 42/42/23 48/48/23 43/43/23
vn 0.10270000249147415 -0.028699999675154686 0.9943000078201294
f 46/46/24 49/49/24 52/52/24
f 46/46/24 52/52/24 47/47/24
vn 0.15209999680519104 -0.28690001368522644 0.9458000063896179
f 20/20/25 19/19/25 49/49/25
f 20/20/25 49/49/25 46/46/25
vn -0.12110000103712082 -0.4837999939918518 0.8668000102043152
f 16/16/26 15/15/26 45/45/26
f 16/16/26 45/45/26 42/42/26
vn 0.4032999873161316 -0.03180000185966492 0.9144999980926514
f 12/12/27 11/11/27 54/54/27
f 12/12/27 54/54/27 53/53/27
vn -0.13680000603199005 -0.3301999866962433 0.933899998664856
f 19/19/28 28/28/28 50/50/28
f 19/19/28 50/50/28 49/49/28
vn 0.08250000327825546 -0.19480000436306 0.977400004863739
f 15/15/29 20/20/29 46/46/29
f 15/15/29 46/46/29 45/45/29
v -0.536899983882904 -0.011451000347733498 0.008841999806463718
vn 0.12389999628067017 -0.40149998664855957 0.9074000120162964
f 57/30/30 16/16/30 42/42/30
f 57/30/30 42/42/30 41/41/30
vn 0.010599999688565731 0.02879999950528145 0.9994999766349792
f 44/44/31 43/43/31 5/5/31
f 44/44/31 5/5/31 31/31/31
vn -0.15610000491142273 0.2567000091075897 0.9538000226020813
f 48/48/32 47/47/32 1/1/32
f 48/48/32 1/1/32 6/6/32
vn 0.12549999356269836 0.17170000076293945 0.9771000146865845
f 52/52/33 51/51/33 25/25/33
f 52/52/33 25/25/33 2/2/33
vn 0.5759000182151794 0.15639999508857727 0.8023999929428101
f 56/56/34 55/55/34 22/22/34
f 56/56/34 22/22/34 21/21/34
vn -0.07819999754428864 0.10740000009536743 0.991100013256073
f 43/43/35 48/48/35 6/6/35
f 43/43/35 6/6/35 5/5/35
vn 0.1459999978542328 0.33320000767707825 0.9315000176429749
f 47/47/36 52/52/36 2/2/36
f 47/47/36 2/2/36 1/1/36
v -0.32210299372673035 -0.09819500148296356 0.0
vt 0.9130172729492188 0.8438231150309246
vn 0.3562999963760376 -0.7225000262260437 0.5924999713897705
v -0.3063569962978363 -0.09372799843549728 0.0
vt 0.89422607421875 0.9100548426310221
f 58/57/37 59/58/37 40/40/37
f 58/57/37 40/40/37 39/39/37
v -0.4814249873161316 -0.10916099697351456 0.0
vt 0.9591395060221354 0.17370192209879565
vn 0.33180001378059387 -0.6331999897956848 0.6992999911308289
v -0.45191800594329834 -0.09186100214719772 0.0
vt 0.8863754272460938 0.29781087239583337
f 60/59/38 61/60/38 35/35/38
f 60/59/38 35/35/38 34/34/38
v -0.4241679906845093 -0.1015859991312027 0.0
vt 0.9272816975911458 0.41452789306640625
vn -0.13979999721050262 -0.5382999777793884 0.8310999870300293
v -0.3646099865436554 -0.11680100113153458 0.0
vt 0.9912745157877604 0.6650339762369792
f 62/61/39 63/62/39 37/37/39
f 62/61/39 37/37/39 36/36/39
vn 0.22540000081062317 -0.6046000123023987 0.7639999985694885
v -0.34250301122665405 -0.10398299992084503 0.0
vt 0.9373626708984375 0.7580191294352214
f 63/62/40 64/63/40 38/38/40
f 63/62/40 38/38/40 37/37/40
vn -0.11990000307559967 -0.660099983215332 0.7415000200271606
f 61/60/41 62/61/41 36/36/41
f 61/60/41 36/36/41 35/35/41
v -0.5448960065841675 -0.12116000056266785 0.0
vt 0.9955164591471354 0.018769900004069084
vn 0.13600000739097595 -0.6607999801635742 0.738099992275238
f 65/64/42 60/59/42 34/34/42
f 65/64/42 34/34/42 33/33/42
vt 0.12172190348307291 0.723375956217448
vn -0.9993000030517578 -0.03620000183582306 -0.0
v -0.536899983882904 -0.011451000347733498 0.0
vt 0.07576751708984375 0.8094348907470703
vt 0.10693105061848958 0.8104050954182943
f 41/65/43 66/66/43 57/67/43
v -0.5381219983100891 0.03655900061130524 0.0
vt 0.08027903238932291 0.6124439239501953
vn -0.9997000098228455 -0.02199999988079071 -0.01119999960064888
f 67/68/44 66/66/44 41/65/44
vt 0.13195037841796875 0.6140419642130535
f 67/68/44 41/65/44 44/69/44
vt 0.0849609375 0.40742905934651696
vn -0.9998999834060669 -0.01679999940097332 -0.0
f 32/70/45 67/68/45 44/69/45
vt 0.13517252604166666 0.4729140599568685
f 32/70/45 44/69/45 31/71/45
vt 0.10003662109375 0.5599110921223959
vn -0.9972000122070312 -0.06379999965429306 0.03799999877810478
v -0.5487899780273438 -0.060256000608205795 0.0
vt 0.07791392008463541 0.7185211181640625
vt 0.04758961995442708 0.5199969609578451
f 33/72/46 68/73/46 65/74/46
vt 0.1442438761393229 0.6552788416544597
vn -0.9954000115394592 -0.050599999725818634 0.08169999718666077
f 29/75/47 68/73/47 33/72/47
vt 0.130859375 0.8458401362101238
vn -0.9932000041007996 -9.999999747378752e-05 0.11620000004768372
v -0.5487899780273438 -0.02159000001847744 0.0
vt 0.09785970052083333 0.8441839218139648
f 30/76/48 69/77/48 68/73/48
f 30/76/48 68/73/48 29/75/48
vn 0.1477999985218048 -0.9890000224113464 -0.0
f 57/67/49 66/66/49 16/16/49
vn -0.288100004196167 0.9430000185966492 -0.1664000004529953
f 30/76/50 16/16/50 69/77/50
vn 0.21320000290870667 -0.7531999945640564 0.6223000288009644
f 64/63/51 58/57/51 39/39/51
f 64/63/51 39/39/51 38/38/51
vn 0.021700000390410423 0.12330000102519989 0.9921000003814697
f 51/51/52 56/56/52 21/21/52
f 51/51/52 21/21/52 25/25/52
vn -0.0008999999845400453 -0.24169999361038208 0.970300018787384
f 28/28/53 12/12/53 53/53/53
f 28/28/53 53/53/53 50/50/53
vn -0.012900000438094139 -0.1720000058412552 0.9850000143051147
f 50/50/54 53/53/54 56/56/54
f 50/50/54 56/56/54 51/51/54
vn 0.053199999034404755 -0.2596000134944916 0.9642000198364258
f 38/38/55 39/39/55 9/9/55
f 38/38/55 9/9/55 27/27/55
vn 0.17960000038146973 0.7294999957084656 0.6600000262260437
f 25/25/56 21/21/56 24/24/56
f 25/25/56 24/24/56 26/26/56
vn -0.00139999995008111 0.12099999934434891 0.9926000237464905
f 27/27/57 9/9/57 12/12/57
f 27/27/57 12/12/57 28/28/57
