# OBJ file
o __dotobj_group__##0#1#0#-1.0
g __dotobj_group__##0#1#0#-1.0
o grass_03_.RFLIP.RSCALE[.6,1.5].RUSTLE[0.75].WINDY[0.75]_grass_0#bush_shrub_grass#99#1#0#-1.0
g grass_03_.RFLIP.RSCALE[.6,1.5].RUSTLE[0.75].WINDY[0.75]_grass_0#bush_shrub_grass#99#1#0#-1.0
v 0.002107999986037612 -0.00962700042873621 0.6218400001525879
vt 0.1493699997663498 0.9763360004872084
vn -0.027799999341368675 0.9993000030517578 0.026000000536441803
v 0.2713159918785095 0.004801000002771616 0.354748010635376
vt 0.08813799917697906 0.9379360005259514
v 0.2666949927806854 0.00901500042527914 0.18783600628376007
vt 0.08200599998235703 0.9067220017313957
f 1/1/1 2/2/1 3/3/1
v 0.13964200019836426 0.0121069997549057 -0.06674999743700027
vt 0.0949610024690628 0.8541010022163391
f 1/1/1 3/3/1 4/4/1
v -0.16028599441051483 0.004238000139594078 -0.08461800217628479
vt 0.1499669998884201 0.8382569998502731
v -0.2747749984264374 -0.005849000066518784 0.18083900213241577
vt 0.18236899375915527 0.8828129991889
f 1/1/1 5/5/1 6/6/1
v -0.2328139990568161 -0.012172999791800976 0.46874600648880005
vt 0.18662799894809723 0.9380740001797676
f 1/1/1 6/6/1 7/7/1
v 0.02554900012910366 0.009114000014960766 -0.07354699820280075
vt 0.11588499695062637 0.8480740040540695
f 1/1/1 4/4/1 8/8/1
f 1/1/1 8/8/1 5/5/1
o grass_03_.RFLIP.RSCALE[.6,1.5].RUSTLE[0.75].WINDY[0.75]_gra#bush_shrub_grass#99#1#0#-1.0
g grass_03_.RFLIP.RSCALE[.6,1.5].RUSTLE[0.75].WINDY[0.75]_gra#bush_shrub_grass#99#1#0#-1.0
v 0.009844999760389328 -0.000455000001238659 0.6218400001525879
vn -0.9724000096321106 0.23180000483989716 0.026000000536441803
v 0.06558399647474289 0.26331400871276855 0.354748010635376
v 0.0603180006146431 0.2599410116672516 0.18783600628376007
f 9/1/2 10/2/2 11/3/2
v 0.024447999894618988 0.13801699876785278 -0.06674999743700027
f 9/1/2 11/3/2 12/4/2
v -0.04557900130748749 -0.15372799336910248 -0.08461800217628479
v -0.0654670000076294 -0.26692599058151245 0.18083900213241577
f 9/1/2 13/5/2 14/6/2
v -0.0484980009496212 -0.22803199291229248 0.46874600648880005
f 9/1/2 14/6/2 15/7/2
v -0.0021909999195486307 0.0270370002835989 -0.07354699820280075
f 9/1/2 12/4/2 16/8/2
f 9/1/2 16/8/2 13/5/2
