# OBJ file
o __dotobj_group__##0#1#0#-1.0
g __dotobj_group__##0#1#0#-1.0
o grass_04.RFLIP.RSCALE[.6,1.5].RUSTLE[0.75].WINDY[0.75]_grass_04#bush_shrub_grass#99#1#0#-1.0
g grass_04.RFLIP.RSCALE[.6,1.5].RUSTLE[0.75].WINDY[0.75]_grass_04#bush_shrub_grass#99#1#0#-1.0
v -0.13635100424289703 -0.007437000051140785 0.0202029999345541
vt 0.10410299897193909 0.7184579968452454
vn -0.01899999938905239 0.9995999932289124 -0.02019999921321869
v 0.10594899952411652 0.002283999929204583 0.2734149992465973
vt 0.049814000725746155 0.7868939936161041
v 0.17341099679470062 0.002099999925121665 0.20108899474143982
vt 0.03140899911522865 0.7705069929361343
f 1/1/1 2/2/1 3/3/1
v 0.06842699646949768 -0.004848000127822161 -0.043731000274419785
vt 0.051819998770952225 0.7073290050029755
f 1/1/1 3/3/1 4/4/1
v -0.17919400334358215 -0.0025820001028478146 0.30013400316238403
vt 0.12118099629878998 0.7869299948215485
f 5/5/1 2/2/1 1/1/1
v -0.049518000334501266 0.005111999809741974 0.5587440133094788
vt 0.0949610024690628 0.8541010022163391
v 0.06031600013375282 0.007000000216066837 0.5490919947624207
vt 0.0674860030412674 0.8542460054159164
f 6/6/1 7/7/1 2/2/1
f 6/6/1 2/2/1 5/5/1
o grass_04.RFLIP.RSCALE[.6,1.5].RUSTLE[0.75].WINDY[0.75]_gras#bush_shrub_grass#99#1#0#-1.0
g grass_04.RFLIP.RSCALE[.6,1.5].RUSTLE[0.75].WINDY[0.75]_gras#bush_shrub_grass#99#1#0#-1.0
v -0.039645999670028687 -0.13067199289798737 0.0202029999345541
vn -0.9458000063896179 0.32409998774528503 -0.02019999921321869
v 0.03409000113606453 0.10034099966287613 0.2734149992465973
v 0.05733700096607208 0.16367100179195404 0.20108899474143982
f 8/1/2 9/2/2 10/3/2
v 0.027959000319242477 0.06264200061559677 -0.043731000274419785
f 8/1/2 10/3/2 11/4/2
v -0.058862000703811646 -0.16926999390125275 0.30013400316238403
f 12/5/2 9/2/2 8/1/2
v -0.021740000694990158 -0.04478299990296364 0.5587440133094788
v 0.014050999656319618 0.05907300114631653 0.5490919947624207
f 13/6/2 14/7/2 9/2/2
f 13/6/2 9/2/2 12/5/2
