# OBJ file
o __dotobj_group__##0#1#0#-1.0
g __dotobj_group__##0#1#0#-1.0
o grass_02_grass_02.RSCALE[.6,1.5].RFLIP.RUSTLE[0.75].WINDY[0.75]#bush_shrub_grass#99#1#0#-1.0
g grass_02_grass_02.RSCALE[.6,1.5].RFLIP.RUSTLE[0.75].WINDY[0.75]#bush_shrub_grass#99#1#0#-1.0
v -0.18126699328422546 0.004350999835878611 0.6004440188407898
vt 0.13547100126743317 0.537227988243103
vn 0.030899999663233757 0.9994999766349792 0.007600000128149986
v 0.12057500332593918 -0.004666000138968229 0.5603179931640625
vt 0.06030600145459175 0.5266849994659424
v 0.20822599530220032 -0.004922000225633383 0.23967799544334412
vt 0.03905399888753891 0.44663697481155396
f 1/1/1 2/2/1 3/3/1
v -0.26330700516700745 0.00875999964773655 0.3552739918231964
vt 0.15637800097465515 0.4762899875640869
f 1/1/1 3/3/1 4/4/1
v 0.06620100140571594 0.002125999890267849 -0.10829900205135345
vt 0.07510499656200409 0.3601920008659363
f 4/4/1 3/3/1 5/5/1
v -0.1347000002861023 0.007922999560832977 -0.054806001484394073
vt 0.12508399784564972 0.3738830089569092
f 4/4/1 5/5/1 6/6/1
o grass_02_grass_02.RSCALE[.6,1.5].RFLIP.RUSTLE[0.75].WINDY[0#bush_shrub_grass#99#1#0#-1.0
g grass_02_grass_02.RSCALE[.6,1.5].RFLIP.RUSTLE[0.75].WINDY[0#bush_shrub_grass#99#1#0#-1.0
v -0.06608600169420242 -0.168846994638443 0.6004440188407898
vn -0.9286999702453613 0.3709000051021576 0.007600000128149986
v 0.04562399908900261 0.11170800030231476 0.5603179931640625
v 0.07584299892187119 0.1939850002527237 0.23967799544334412
f 7/1/2 8/2/2 9/3/2
v -0.09828799962997437 -0.2444310039281845 0.3552739918231964
f 7/1/2 9/3/2 10/4/2
v 0.02064399980008602 0.06293600052595139 -0.10829900205135345
f 10/4/2 9/3/2 11/5/2
v -0.0535149984061718 -0.12386699765920639 -0.054806001484394073
f 10/4/2 11/5/2 12/6/2
