# OBJ file
o __dotobj_group__##0#1#0#-1.0
g __dotobj_group__##0#1#0#-1.0
o litter1##0#0#0#925196.0
g litter1##0#0#0#925196.0
v -0.008283999748528004 -0.01935500092804432 0.020894000306725502
vt 0.375 0.5242010056972504
vn -0.018200000748038292 -0.5824999809265137 -0.8126999735832214
v -0.007422000169754028 -0.029441000893712044 0.03134400025010109
vt 0.40625 0.5242010056972504
vn 0.06449999660253525 -0.9979000091552734 -0.0052999998442828655
v -0.05513399839401245 -0.037011001259088516 0.03527599945664406
vt 0.40625 0.6837039887905121
vn 0.13600000739097595 -0.9907000064849854 -0.01119999960064888
f 1/1/1 2/2/2 3/3/3
v -0.057022999972105026 -0.02617100067436695 0.012357999570667744
vt 0.375 0.6837039887905121
vn 0.13459999859333038 -0.553600013256073 -0.8217999935150146
f 1/1/1 3/3/3 4/4/4
v -0.006560999900102615 -0.01935500092804432 0.04179299995303154
vt 0.4375 0.5242010056972504
vn 0.11479999870061874 -0.5853000283241272 0.8026000261306763
v -0.05324599891901016 -0.02617100067436695 0.058194998651742935
vt 0.4375 0.6837039887905121
vn 0.2653999924659729 -0.5562999844551086 0.7875000238418579
f 2/2/2 5/5/5 6/6/6
f 2/2/2 6/6/6 3/3/3
v -0.007739999797195196 2.700000004551839e-05 0.0464010015130043
vt 0.46875 0.5242010056972504
vn 0.1761000007390976 -0.014999999664723873 0.9843000173568726
v -0.052462998777627945 0.0 0.0676880031824112
vt 0.46875 0.6837039887905121
vn 0.31349998712539673 -0.01860000006854534 0.949400007724762
f 5/5/5 7/7/7 8/8/8
f 5/5/5 8/8/8 6/6/6
v 0.0047889999113976955 0.02215000055730343 0.04085800051689148
vt 0.5 0.5242010056972504
vn 0.07450000196695328 0.5985999703407288 0.7975999712944031
v -0.05324599891901016 0.02617100067436695 0.058194998651742935
vt 0.5 0.6837039887905121
vn 0.23469999432563782 0.5400000214576721 0.8083000183105469
f 7/7/7 9/9/9 10/10/10
f 7/7/7 10/10/10 8/8/8
v 0.00392800010740757 0.02990799956023693 0.030408000573515892
vt 0.53125 0.5242010056972504
vn 0.05939999967813492 0.998199999332428 -0.004900000058114529
v -0.05513399839401245 0.037011001259088516 0.03527599945664406
vt 0.53125 0.6837039887905121
vn 0.07739999890327454 0.996999979019165 -0.006399999838322401
f 9/9/9 11/11/11 12/12/12
f 9/9/9 12/12/12 10/10/10
v 0.0030670000705868006 0.02215000055730343 0.019958000630140305
vt 0.5625 0.5242010056972504
vn -0.05779999867081642 0.5958999991416931 -0.8008999824523926
v -0.057022999972105026 0.02617100067436695 0.012357999570667744
vt 0.5625 0.6837039887905121
vn 0.10090000182390213 0.5370000004768372 -0.8375999927520752
f 11/11/11 13/13/13 14/14/14
f 11/11/11 14/14/14 12/12/12
v -0.01017600018531084 2.700000004551839e-05 0.016844000667333603
vt 0.59375 0.5242010056972504
vn 0.013100000098347664 -0.014999999664723873 -0.9998000264167786
v -0.057806000113487244 0.0 0.0028639999218285084
vt 0.59375 0.6837039887905121
vn 0.15620000660419464 -0.019300000742077827 -0.987500011920929
f 13/13/13 15/15/15 16/16/16
f 13/13/13 16/16/16 14/14/14
vt 0.625 0.5242010056972504
vt 0.625 0.6837039887905121
f 15/15/15 1/17/1 4/18/4
f 15/15/15 4/18/4 16/16/16
v 0.055904000997543335 -0.031015999615192413 0.026124000549316406
vt 0.5 0.0
vn 0.9965999722480774 -0.0 -0.08209999650716782
v 0.0542449988424778 -0.0219310000538826 0.005996000021696091
vt 0.6104850172996521 0.0457649827003479
vn 0.9965999722480774 0.0 -0.08219999819993973
v 0.055904000997543335 0.0 0.026124000549316406
vt 0.5 0.1499999761581421
f 17/19/17 18/20/18 19/21/17
v 0.05756299942731857 -0.0219310000538826 0.04625299945473671
vt 0.3895150125026703 0.0457649827003479
f 20/22/17 17/19/17 19/21/17
v 0.05824999883770943 0.0 0.05459100008010864
vt 0.34375 0.15625
f 21/23/17 20/22/17 19/21/17
v 0.05756299942731857 0.0219310000538826 0.04625299945473671
vt 0.3895150125026703 0.2667350172996521
f 22/24/17 21/23/17 19/21/17
v 0.055904000997543335 0.031015999615192413 0.026124000549316406
vt 0.5 0.3125
f 23/25/17 22/24/17 19/21/17
v 0.0542449988424778 0.0219310000538826 0.005996000021696091
vt 0.6104850172996521 0.2667350172996521
f 24/26/18 23/25/17 19/21/17
v 0.05355700105428696 -0.0 -0.0023419999051839113
vt 0.65625 0.15625
f 25/27/18 24/26/18 19/21/17
f 18/20/18 25/27/18 19/21/17
v 0.018741000443696976 -0.02029399946331978 0.018631000071763992
vt 0.6104850172996521 0.9542349986732006
vn -0.9965999722480774 -0.0 0.08209999650716782
v 0.019610999152064323 -0.028699999675154686 0.029183000326156616
vt 0.5 1.0
vn -0.9965999722480774 -0.0 0.08219999819993973
v 0.01960499957203865 0.0 0.02911599911749363
vt 0.5 0.8375000059604645
vn -0.98580002784729 0.16680000722408295 -0.017000000923871994
f 26/28/19 27/29/20 28/30/21
v 0.02048099972307682 -0.02029399946331978 0.03973599895834923
vt 0.3895150125026703 0.9542349986732006
f 27/29/20 29/31/20 28/30/21
v 0.020841000601649284 0.0 0.04410700127482414
vt 0.34375 0.84375
f 29/31/20 30/32/20 28/30/21
v 0.02048099972307682 0.02029399946331978 0.03973599895834923
vt 0.3895150125026703 0.7332650125026703
vn -0.8815000057220459 0.24819999933242798 -0.4016000032424927
f 30/32/20 31/33/22 28/30/21
v 0.03096199966967106 0.026500999927520752 0.028248000890016556
vt 0.5 0.6875
vn -0.847100019454956 0.3499000072479248 -0.4000000059604645
f 31/33/22 32/34/23 28/30/21
v 0.03009199909865856 0.018094999715685844 0.017695000395178795
vt 0.6104850172996521 0.7332650125026703
vn -0.8931000232696533 0.42579999566078186 -0.1454000025987625
f 32/34/23 33/35/24 28/30/21
v 0.01838099956512451 0.0 0.014259999617934227
vt 0.65625 0.84375
vn -0.9550999999046326 0.2854999899864197 0.0786999985575676
f 33/35/24 34/36/25 28/30/21
f 34/36/25 26/28/19 28/30/21
vt 0.375 0.3125
vn -0.20630000531673431 -0.5633000135421753 -0.8001000285148621
vt 0.40625 0.3125
vn -0.07989999651908875 -0.9968000054359436 0.006599999964237213
f 18/37/26 17/38/27 2/2/2
f 18/37/26 2/2/2 1/1/1
vt 0.4375 0.3125
vn -0.07109999656677246 -0.5662999749183655 0.8212000131607056
f 17/38/27 20/39/28 5/5/5
f 17/38/27 5/5/5 2/2/2
vt 0.46875 0.3125
vn -0.10790000110864639 0.011099999770522118 0.9940999746322632
f 20/39/28 21/40/29 7/7/7
f 20/39/28 7/7/7 5/5/5
vn -0.07779999822378159 0.5570999979972839 0.8267999887466431
f 21/40/29 22/25/30 9/9/9
f 21/40/29 9/9/9 7/7/7
vt 0.53125 0.3125
vn -0.059300001710653305 0.998199999332428 0.004900000058114529
f 22/25/30 23/41/31 11/11/11
f 22/25/30 11/11/11 9/9/9
vt 0.5625 0.3125
vn -0.21410000324249268 0.5541999936103821 -0.8043000102043152
f 23/41/31 24/42/32 13/13/13
f 23/41/31 13/13/13 11/11/11
vt 0.59375 0.3125
vn -0.27140000462532043 0.011699999682605267 -0.9624000191688538
f 24/42/32 25/43/33 15/15/15
f 24/42/32 15/15/15 13/13/13
vt 0.625 0.3125
f 25/43/33 18/44/26 1/17/1
f 25/43/33 1/17/1 15/15/15
v -0.05756299942731857 -0.022975999861955643 0.015219000168144703
vt 0.625 0.6862779855728149
vn -0.38510000705718994 0.47679999470710754 0.7900999784469604
f 16/16/16 4/18/4 35/45/34
v -0.05824999883770943 0.0 0.006885000038892031
vt 0.59375 0.6862779855728149
vn -0.367900013923645 0.027400000020861626 0.9294000267982483
f 16/16/16 35/45/34 36/46/35
f 14/14/14 16/16/16 36/46/35
v -0.05756299942731857 0.022975999861955643 0.015219000168144703
vt 0.5625 0.6862779855728149
vn -0.30640000104904175 -0.4530999958515167 0.8371000289916992
f 14/14/14 36/46/35 37/47/36
f 12/12/12 14/14/14 37/47/36
v -0.05590499937534332 0.032492998987436295 0.035339999943971634
vt 0.53125 0.6862779855728149
vn -0.30630001425743103 -0.9516000151634216 0.026200000196695328
f 12/12/12 37/47/36 38/48/37
f 10/10/10 12/12/12 38/48/37
v -0.054246000945568085 0.022975999861955643 0.05545999854803085
vt 0.5 0.6862779855728149
vn -0.4334000051021576 -0.4586000144481659 -0.7757999897003174
f 10/10/10 38/48/37 39/49/38
f 8/8/8 10/10/10 39/49/38
v -0.05355900153517723 0.0 0.06379400193691254
vt 0.46875 0.6862779855728149
vn -0.5091999769210815 0.026200000196695328 -0.8601999878883362
f 8/8/8 39/49/38 40/50/39
f 6/6/6 8/8/8 40/50/39
v -0.054246000945568085 -0.022975999861955643 0.05545999854803085
vt 0.4375 0.6862779855728149
vn -0.5034999847412109 0.48159998655319214 -0.7172999978065491
f 6/6/6 40/50/39 41/51/40
f 3/3/3 6/6/6 41/51/40
v -0.05590499937534332 -0.032492998987436295 0.035339999943971634
vt 0.40625 0.6862779855728149
vn -0.429500013589859 0.9023000001907349 0.0364999994635582
f 3/3/3 41/51/40 42/52/41
f 4/4/4 3/3/3 42/52/41
vt 0.375 0.6862779855728149
f 4/4/4 42/52/41 35/53/34
v -0.011707000434398651 -0.016390999779105186 0.024514999240636826
vt 0.625 0.6875599920749664
vn -0.06520000100135803 0.4968999922275543 0.8652999997138977
f 36/46/35 35/45/34 43/54/42
v -0.01349399983882904 2.700000004551839e-05 0.02174999937415123
vt 0.59375 0.6875599920749664
vn -0.12479999661445618 0.005799999926239252 0.9922000169754028
f 36/46/35 43/54/42 44/55/43
f 37/47/36 36/46/35 44/55/43
v -0.00035700001171790063 0.019185999408364296 0.023578999564051628
vt 0.5625 0.6875599920749664
vn -0.019600000232458115 -0.5271999835968018 0.8495000004768372
f 37/47/36 44/55/43 45/56/44
f 38/48/37 37/47/36 45/56/44
v 0.00024300000222865492 0.028044000267982483 0.030851000919938087
vt 0.53125 0.6875599920749664
vn -0.10450000315904617 -0.9936000108718872 0.04280000180006027
f 38/48/37 45/56/44 46/57/45
f 39/49/38 38/48/37 46/57/45
v 0.0008420000085607171 0.019185999408364296 0.0381230004131794
vt 0.5 0.6875599920749664
vn -0.15610000491142273 -0.5315999984741211 -0.8324999809265137
f 39/49/38 46/57/45 47/58/46
f 40/50/39 39/49/38 47/58/46
v -0.011799000203609467 2.700000004551839e-05 0.04231800138950348
vt 0.46875 0.6875599920749664
vn -0.2842000126838684 0.013399999588727951 -0.9587000012397766
f 40/50/39 47/58/46 48/59/47
f 41/51/40 40/50/39 48/59/47
v -0.010509000159800053 -0.016390999779105186 0.039058998227119446
vt 0.4375 0.6875599920749664
vn -0.20409999787807465 0.49970000982284546 -0.8417999744415283
f 41/51/40 48/59/47 49/60/48
f 42/52/41 41/51/40 49/60/48
v -0.011107999831438065 -0.025249000638723373 0.031787000596523285
vt 0.40625 0.6875599920749664
vn -0.12070000171661377 0.9926000237464905 0.008700000122189522
f 42/52/41 49/60/48 50/61/49
f 35/53/34 42/52/41 50/61/49
vt 0.375 0.6875599920749664
f 35/53/34 50/61/49 43/62/42
vt 0.625 0.6884399950504303
vn 0.2110999971628189 0.426800012588501 0.8794000148773193
f 44/55/43 43/54/42 26/63/50
vt 0.59375 0.6884399950504303
vn 0.21160000562667847 -0.0746999979019165 0.9745000004768372
f 44/55/43 26/63/50 34/64/51
f 45/56/44 44/55/43 34/64/51
vt 0.5625 0.6884399950504303
vn 0.14270000159740448 -0.48919999599456787 0.8604000210762024
f 45/56/44 34/64/51 33/65/52
f 46/57/45 45/56/44 33/65/52
vt 0.53125 0.6884399950504303
vn 0.05050000175833702 -0.9236000180244446 0.3799999952316284
f 46/57/45 33/65/52 32/66/53
f 47/58/46 46/57/45 32/66/53
vt 0.5 0.6884399950504303
vn 0.03060000017285347 -0.5013999938964844 -0.8647000193595886
f 47/58/46 32/66/53 31/67/54
f 48/59/47 47/58/46 31/67/54
vt 0.46875 0.6884399950504303
vn 0.060100000351667404 -0.0003000000142492354 -0.998199999332428
f 48/59/47 31/67/54 30/68/55
f 49/60/48 48/59/47 30/68/55
vt 0.4375 0.6884399950504303
vn 0.05820000171661377 0.43059998750686646 -0.9006999731063843
f 49/60/48 30/68/55 29/69/56
f 50/61/49 49/60/48 29/69/56
vt 0.40625 0.6884399950504303
vn 0.1678999960422516 0.9857000112533569 -0.012900000438094139
f 50/61/49 29/69/56 27/70/57
f 43/62/42 50/61/49 27/70/57
vt 0.375 0.6884399950504303
f 43/62/42 27/70/57 26/71/50
