# OBJ file
o __dotobj_group__##0#1#0#-1.0
g __dotobj_group__##0#1#0#-1.0
o leaves.LEAF.WINDY1.ISSHADOW_leaves.LEAF.WINDY1#tree_mangrove#99#2#0#-1.0
g leaves.LEAF.WINDY1.ISSHADOW_leaves.LEAF.WINDY1#tree_mangrove#99#2#0#-1.0
v -1.345744013786316 -0.020406000316143036 2.2780120372772217
vt 1.0 1.0
vn 0.040699999779462814 0.3237000107765198 0.9452999830245972
v -0.8976280093193054 -0.11129699647426605 2.289825916290283
vt 0.7119609713554382 1.0
vn -0.34209999442100525 0.37540000677108765 0.8614000082015991
v -0.807075023651123 0.31564199924468994 2.1397109031677246
vt 0.7119609713554382 0.6847170293331146
f 1/1/1 2/2/2 3/3/2
v -1.2551909685134888 0.40653300285339355 2.127897024154663
vt 1.0 0.6847170293331146
f 1/1/1 3/3/2 4/4/1
v 0.6152290105819702 0.282043993473053 2.1397109031677246
vn -0.04360000044107437 0.03970000147819519 0.9983000159263611
v 0.9902409911155701 0.01437199953943491 2.1667211055755615
v 1.182129979133606 0.30082398653030396 2.3412630558013916
vt 0.4773789942264557 1.0
vn -0.3052999973297119 -0.3379000127315521 0.8902999758720398
f 5/3/3 6/2/3 7/5/4
v 0.8071179986000061 0.5684959888458252 2.314253091812134
vt 0.4773789942264557 0.6847170293331146
f 5/3/3 7/5/4 8/6/4
v -0.18483500182628632 0.5069760084152222 2.1437129974365234
vt 0.8064360022544861 5.960464477539063e-08
vn 0.14309999346733093 -0.018300000578165054 0.9894999861717224
v -0.14871099591255188 1.1341919898986816 2.1500470638275146
vt 0.8064360022544861 0.3922880291938782
vn 0.14309999346733093 -0.018200000748038292 0.9894999861717224
v -0.353659987449646 1.1442049741744995 2.3273420333862305
vt 0.6637269854545593 0.3922880291938782
vn 0.6523000001907349 -0.04520000144839287 0.756600022315979
f 9/7/5 10/8/6 11/9/7
v -0.3897840082645416 0.5169900059700012 2.3210079669952393
vt 0.6637269854545593 5.960464477539063e-08
f 9/7/5 11/9/7 12/10/7
v 0.10346700251102448 0.4893069863319397 2.249178886413574
vt 0.9754289984703064 5.960464477539063e-08
vn -0.34299999475479126 0.010300000198185444 0.939300000667572
v 0.13958999514579773 1.116521954536438 2.2555129528045654
vt 0.9754289984703064 0.3922880291938782
f 13/11/8 14/12/8 10/8/6
f 13/11/8 10/8/6 9/7/5
v 0.7060049772262573 -0.08284600079059601 2.0413079261779785
vt 0.4773789942264557 0.5004450380802155
vn -0.34709998965263367 0.010900000110268593 0.9377999901771545
v 1.182412028312683 0.4452019929885864 2.211522102355957
v 0.8930119872093201 0.7419430017471313 2.1009480953216553
vt 0.22296300530433655 1.0
vn 0.033399999141693115 -0.33379998803138733 0.9420999884605408
f 15/13/9 16/5/9 17/14/10
v 0.41660499572753906 0.21389399468898773 1.9307340383529663
vt 0.22296300530433655 0.5004450380802155
vn 0.03350000083446503 -0.33390000462532043 0.9419999718666077
f 15/13/9 17/14/10 18/15/11
v -0.07244399935007095 -0.42182400822639465 1.9623910188674927
vt 0.2350970059633255 5.960464477539063e-08
vn 0.16850000619888306 -0.16210000216960907 0.9722999930381775
v -0.3767690062522888 -0.6531829833984375 1.9781550168991089
vt 0.24031299352645874 0.26131701469421387
vn 0.20069999992847443 -0.16760000586509705 0.9652000069618225
v -0.13593100011348724 -0.9415540099143982 2.0359199047088623
vt 0.0 0.25599706172943115
vn -0.08739999681711197 0.14659999310970306 0.9853000044822693
f 19/16/12 20/17/13 21/18/14
v 0.1577340066432953 -0.7091609835624695 2.0222129821777344
vt 0.0 5.960464477539063e-08
vn -0.06589999794960022 0.1476999968290329 0.9868000149726868
f 19/16/12 21/18/14 22/19/15
v -0.6157220005989075 -0.9157590270042419 1.9771950244903564
vt 0.19984200596809387 0.5004450380802155
vn 0.16619999706745148 -0.10369999706745148 0.9805999994277954
v -0.41634801030158997 -1.1634629964828491 2.0490078926086426
vt 0.0 0.5004450380802155
vn -0.11249999701976776 0.1451999992132187 0.9829999804496765
f 20/17/13 23/20/16 24/21/17
f 20/17/13 24/21/17 21/18/14
v -0.5452600121498108 -0.4389280080795288 2.1912989616394043
vt 0.4552440047264099 0.2660750150680542
vn 0.4429999887943268 -0.4505000114440918 0.7750999927520752
f 25/22/18 20/17/13 19/16/12
v -0.2314009964466095 -0.20849399268627167 2.1736910343170166
vt 0.44536298513412476 5.960464477539063e-08
vn 0.39730000495910645 -0.47510001063346863 0.785099983215332
f 25/22/18 19/16/12 26/23/19
v -0.7471290230751038 -0.7378749847412109 2.177772045135498
vt 0.37857699394226074 0.5004450380802155
vn 0.5034000277519226 -0.4147000014781952 0.7580000162124634
f 25/22/18 27/24/20 23/20/16
f 25/22/18 23/20/16 20/17/13
v -0.638746976852417 1.2586040496826172 2.1829419136047363
vn -0.2705000042915344 -0.29899999499320984 0.9150999784469604
v -0.890828013420105 0.9241080284118652 1.9991580247879028
vn -0.03579999879002571 0.007799999788403511 0.9993000030517578
v -0.526511013507843 0.6411730051040649 2.014409065246582
f 28/1/21 29/2/22 30/3/22
v -0.2744300067424774 0.9756690263748169 2.198193073272705
f 28/1/21 30/3/22 31/4/21
v -1.1076289415359497 0.6542029976844788 2.170883893966675
vn 0.2493000030517578 0.3693000078201294 0.8952000141143799
f 30/3/22 29/2/22 32/5/23
v -0.7433109879493713 0.37126898765563965 2.1861350536346436
f 30/3/22 32/5/23 33/6/23
v 0.22285500168800354 -0.06396699696779251 1.9075069427490234
vn -0.5164999961853027 0.22830000519752502 0.8252999782562256
v 0.6165549755096436 0.5474219918251038 1.9848029613494873
v 0.33091598749160767 0.7614449858665466 1.7468160390853882
vn -0.11800000071525574 -0.049400001764297485 0.9918000102043152
f 34/13/24 35/5/24 36/14/25
v -0.06278400123119354 0.15005600452423096 1.6695200204849243
f 34/13/24 36/14/25 37/15/25
v 0.03345600143074989 0.9292700290679932 1.9344580173492432
vt 0.0 1.0
vn 0.3571000099182129 -0.3398999869823456 0.8700000047683716
f 37/15/25 36/14/25 38/25/26
v -0.3602440059185028 0.3178800046443939 1.857161045074463
f 37/15/25 38/25/26 39/21/26
v 1.0922349691390991 0.2166150063276291 2.1397109031677246
vn 0.20640000700950623 0.07039999961853027 0.9758999943733215
v 1.430219054222107 -0.09381800144910812 2.090620994567871
v 1.689650058746338 0.17162099480628967 2.1982269287109375
vn -0.11420000344514847 -0.275299996137619 0.9545000195503235
f 40/3/27 41/2/27 42/5/28
v 1.3516650199890137 0.4820539951324463 2.24731707572937
f 40/3/27 42/5/28 43/6/28
v 0.3698819875717163 -0.10015200078487396 2.21743106842041
vn 0.5397999882698059 0.5511999726295471 0.6362000107765198
v 0.7844499945640564 -0.6828029751777649 2.3704769611358643
v 1.0513889789581299 -0.5765500068664551 2.051906108856201
vn 0.1598999947309494 0.3555999994277954 0.9208999872207642
f 44/13/29 45/5/29 46/14/30
v 0.6368209719657898 0.006101000122725964 1.8988590240478516
f 44/13/29 46/14/30 47/15/30
v 1.3491820096969604 -0.3413679897785187 2.1405930519104004
vn -0.3075999915599823 0.030899999663233757 0.9509999752044678
f 47/15/30 46/14/30 48/25/31
v 0.9346140027046204 0.24128299951553345 1.9875459671020508
f 47/15/30 48/25/31 49/21/31
v 1.155351996421814 -0.13816800713539124 2.113400936126709
vn -0.3222000002861023 0.2816999852657318 0.9038000106811523
v 1.6846669912338257 0.3654089868068695 2.1451449394226074
v 1.4229259490966797 0.6520419716835022 1.9624789953231812
vn 0.023099999874830246 -0.08699999749660492 0.9958999752998352
f 50/13/32 51/5/32 52/14/33
v 0.8936110138893127 0.14846499264240265 1.9307340383529663
f 50/13/32 52/14/33 53/15/33
v 1.2027579545974731 0.8684729933738708 2.200261116027832
vn 0.3961000144481659 -0.46619999408721924 0.791100025177002
f 53/15/33 52/14/33 54/25/34
v 0.6734439730644226 0.3648970127105713 2.168515920639038
f 53/15/33 54/25/34 55/21/34
v 0.47582799196243286 -0.31331300735473633 2.0258610248565674
vn -0.3012000024318695 -0.06449999660253525 0.9513999819755554
v 0.5481370091438293 -0.6890259981155396 2.0249199867248535
vn -0.28220000863075256 -0.03790000081062317 0.9585999846458435
v 0.8306030035018921 -0.6201990246772766 2.2698140144348145
vn -0.6403999924659729 -0.1468999981880188 0.7538999915122986
f 56/16/35 57/17/36 58/18/37
v 0.7528039813041687 -0.25362101197242737 2.268440008163452
vn -0.6347000002861023 -0.12790000438690186 0.7620999813079834
f 56/16/35 58/18/37 59/19/38
v 0.6759470105171204 -1.019677996635437 2.0444018840789795
vn -0.35249999165534973 -0.04050000011920929 0.9348999857902527
v 0.9048920273780823 -0.970238983631134 2.271127939224243
vn -0.6467000246047974 -0.16930000483989716 0.7437000274658203
f 57/17/36 60/20/39 61/21/40
f 57/17/36 61/21/40 58/18/37
v 0.21344199776649475 -0.7670270204544067 2.0651659965515137
vn 0.12060000002384186 0.06960000097751617 0.9902999997138977
f 62/22/41 57/17/36 56/16/35
v 0.14604300260543823 -0.38314399123191833 2.0681800842285156
vn 0.11959999799728394 0.01679999940097332 0.9926999807357788
f 62/22/41 56/16/35 63/23/42
v 0.3891189992427826 -1.080338954925537 2.100898027420044
vn 0.12139999866485596 0.14139999449253082 0.9825000166893005
f 62/22/41 64/24/43 60/20/39
f 62/22/41 60/20/39 57/17/36
v -0.11783500015735626 0.8928599953651428 2.1437129974365234
vn -0.15199999511241913 0.08380000293254852 0.9847999811172485
v -0.4084239900112152 1.4423179626464844 2.052074909210205
vn -0.15199999511241913 0.08389999717473984 0.9847999811172485
v -0.6302570104598999 1.345376968383789 2.1742639541625977
vn 0.3418999910354614 0.3276999890804291 0.8806999921798706
f 65/7/44 66/8/45 67/9/46
v -0.33966800570487976 0.7959190011024475 2.265902042388916
f 65/7/44 67/9/46 68/10/46
v 0.09639099985361099 1.0343780517578125 2.312927007675171
vn -0.5483999848365784 -0.15289999544620514 0.8220999836921692
v -0.19419799745082855 1.5838359594345093 2.2212889194488525
f 69/11/47 70/12/47 66/8/45
f 69/11/47 66/8/45 65/7/44
v 0.28978198766708374 0.5686159729957581 2.2808079719543457
vn -0.7422000169754028 0.17069999873638153 0.6480000019073486
v 0.34636199474334717 1.2870049476623535 2.1563589572906494
v 0.06079600006341934 1.2543280124664307 1.8378969430923462
vn -0.3140000104904175 0.1860000044107437 0.9309999942779541
f 71/13/48 72/5/48 73/14/49
v 0.004215999972075224 0.5359389781951904 1.9623459577560425
f 71/13/48 73/14/49 74/15/49
v -0.31490498781204224 1.3000019788742065 1.9307390451431274
vn 0.2540000081062317 0.14560000598430634 0.9562000036239624
f 74/15/49 73/14/49 75/25/50
v -0.37148499488830566 0.5816119909286499 2.055187940597534
f 74/15/49 75/25/50 76/21/50
v 0.7692220211029053 0.38674500584602356 2.169635057449341
vn -0.5392000079154968 0.195700004696846 0.819100022315979
v 1.1463819742202759 1.0051430463790894 2.270163059234619
v 0.8607649803161621 1.218176007270813 2.031261920928955
vn -0.13770000636577606 -0.07660000026226044 0.987500011920929
f 77/13/51 78/5/51 79/14/52
v 0.4836049973964691 0.5997779965400696 1.9307340383529663
f 77/13/51 79/14/52 80/15/52
v 0.5554590225219727 1.3742860555648804 2.2163960933685303
vn 0.3467000126838684 -0.35269999504089355 0.8690999746322632
f 80/15/52 79/14/52 81/25/53
v 0.17829999327659607 0.7558879852294922 2.115868091583252
f 80/15/52 81/25/53 82/21/53
v -0.013152999803423882 0.9331589937210083 2.1941840648651123
vn -0.44999998807907104 0.38269999623298645 0.8069000244140625
v 0.46558699011802673 1.3325740098953247 2.2717690467834473
v 0.2934739887714386 1.5416450500488281 2.2574760913848877
vn -0.12870000302791595 -0.03819999843835831 0.9908999800682068
f 83/7/54 84/8/54 85/9/55
v -0.18526600301265717 1.1422289609909058 2.1798911094665527
f 83/7/54 85/9/55 86/10/55
v -0.7001219987869263 0.3286319971084595 2.063754081726074
vn 0.37290000915527344 -0.19670000672340393 0.9067999720573425
v -0.563946008682251 -0.0831340029835701 1.9184470176696777
vn 0.22840000689029694 0.16760000586509705 0.9589999914169312
v -0.15834300220012665 0.09613899886608124 1.790544033050537
f 87/1/56 88/2/57 89/3/57
v -0.29451900720596313 0.5079050064086914 1.9358500242233276
f 87/1/56 89/3/57 90/4/56
v -0.379597008228302 -0.3645870089530945 2.1085550785064697
vn 0.01080000028014183 0.5644999742507935 0.8252999782562256
f 89/3/57 88/2/57 91/5/58
v 0.02600499987602234 -0.18531399965286255 1.9806510210037231
f 89/3/57 91/5/58 92/6/58
v -0.13861800730228424 -0.0832820013165474 1.935987949371338
vn 0.2922999858856201 0.647599995136261 0.7035999894142151
v 0.3412559926509857 -0.5740150213241577 2.1883230209350586
v 0.6396880149841309 -0.4192039966583252 1.921854019165039
vn -0.09149999916553497 0.3831999897956848 0.9190999865531921
f 93/13/59 94/5/59 95/14/60
v 0.1598140001296997 0.07152999937534332 1.6695200204849243
f 93/13/59 95/14/60 96/15/60
v 0.8646789789199829 -0.13046400249004364 2.0555150508880615
vn -0.48579999804496765 -0.02590000070631504 0.8737000226974487
f 96/15/60 95/14/60 97/25/61
v 0.38480499386787415 0.3602699935436249 1.8031810522079468
f 96/15/60 97/25/61 98/21/61
v 0.14101499319076538 -0.43309998512268066 2.025861978530884
vn -0.5015000104904175 0.06109999865293503 0.8629999756813049
v 0.2228430062532425 -0.7991970181465149 2.101138114929199
vn -0.4855000078678131 0.08959999680519104 0.8695999979972839
v 0.4421730041503906 -0.6760939955711365 2.386159896850586
vn -0.786300003528595 -0.07199999690055847 0.6136999726295471
f 99/16/62 100/17/63 101/18/64
v 0.3557739853858948 -0.31970998644828796 2.3089590072631836
vn -0.7831000089645386 -0.051500000059604645 0.6197999715805054
f 99/16/62 101/18/64 102/19/65
v 0.35294100642204285 -1.1141910552978516 2.2006309032440186
vn -0.5486999750137329 0.07890000194311142 0.8323000073432922
v 0.5246739983558655 -1.0163990259170532 2.4598779678344727
vn -0.7894999980926514 -0.09589999914169312 0.6061999797821045
f 100/17/63 103/20/66 104/21/67
f 100/17/63 104/21/67 101/18/64
v -0.11002500355243683 -0.8915349841117859 2.081218957901001
vn -0.10289999842643738 0.22630000114440918 0.9685999751091003
f 105/22/68 100/17/63 99/16/62
v -0.18776600062847137 -0.5167499780654907 2.0076639652252197
vn -0.10279999673366547 0.1746000051498413 0.9793000221252441
f 105/22/68 99/16/62 106/23/69
v 0.06264200061559677 -1.1838910579681396 2.203763961791992
vn -0.10260000079870224 0.296099990606308 0.9496999979019165
f 105/22/68 107/24/70 103/20/66
f 105/22/68 103/20/66 100/17/63
v -0.1756249964237213 0.131073996424675 1.9519389867782593
vt 0.7558140158653259 0.43602901697158813
vn -0.2703999876976013 0.656499981880188 0.704200029373169
v -0.03637399896979332 -0.08663299679756165 2.208343029022217
vt 0.7558140158653259 0.6847170293331146
v 0.20579999685287476 0.1333959996700287 2.2636399269104004
vt 0.5439140200614929 0.6847170293331146
vn -0.5666999816894531 0.450300008058548 0.6901000142097473
f 108/26/71 109/27/71 110/28/72
v 0.06654900312423706 0.3511030077934265 2.007236957550049
vt 0.5439140200614929 0.43602901697158813
f 108/26/71 110/28/72 111/29/72
v -0.45528098940849304 0.07950799912214279 2.0600359439849854
vt 0.9473950266838074 0.43602901697158813
vn 0.09309999644756317 0.7833999991416931 0.6146000027656555
v -0.31602901220321655 -0.13819800317287445 2.3164379596710205
vt 0.9473950266838074 0.6847170293331146
f 112/30/73 113/31/73 109/27/71
f 112/30/73 109/27/71 108/26/71
