# OBJ file
o __dotobj_group__##0#1#0#-1.0
g __dotobj_group__##0#1#0#-1.0
o mangrove_wall_vine_Cube.006##0#1#0#-1.0
g mangrove_wall_vine_Cube.006##0#1#0#-1.0
v -0.21465100347995758 0.05682399868965149 -0.3711619973182678
vt 0.574999988079071 0.125
vn 0.9180999994277954 0.37709999084472656 -0.12229999899864197
v -0.09992700070142746 0.05682399868965149 0.09021999686956406
vt 0.625 0.125
v -0.09992700070142746 -0.09277000278234482 0.02883799932897091
vt 0.625 0.25
f 1/1/1 2/2/1 3/3/1
v -0.09992700070142746 -0.09277000278234482 -0.3711619973182678
vt 0.574999988079071 0.25
f 1/1/1 3/3/1 4/4/1
vn -0.0 1.0 0.0
v 0.09992700070142746 -0.09277000278234482 0.02883799932897091
vt 0.625 0.5
f 4/4/2 3/3/2 5/5/2
v 0.09992700070142746 -0.09277000278234482 -0.3711619973182678
vt 0.574999988079071 0.5
f 4/4/2 5/5/2 6/6/2
v -0.06364499777555466 0.05682399868965149 -0.3711619973182678
vt 0.574999988079071 0.625
vn -0.9323999881744385 0.07259999960660934 0.35409998893737793
v 0.09992700070142746 0.05682399868965149 0.09021999686956406
vt 0.625 0.625
v 0.09992700070142746 0.2064179927110672 0.02883799932897091
vt 0.625 0.75
f 7/7/3 8/8/3 9/9/3
v -0.06364499777555466 0.2064179927110672 -0.3711619973182678
vt 0.574999988079071 0.75
f 7/7/3 9/9/3 10/10/3
vn -0.0 -1.0 0.0
v -0.09992700070142746 0.2064179927110672 0.02883799932897091
vt 0.625 1.0
f 10/10/4 9/9/4 11/11/4
v -0.26350000500679016 0.2064179927110672 -0.3711619973182678
vt 0.574999988079071 1.0
f 10/10/4 11/11/4 12/12/4
v -0.15189999341964722 0.05682399868965149 -1.971161961555481
vt 0.125 0.625
vn -0.0 0.0 1.0
v 0.0871099978685379 0.05682399868965149 -1.971161961555481
vt 0.375 0.625
v 0.057829998433589935 0.2064179927110672 -1.971161961555481
vt 0.375 0.75
f 13/13/5 14/14/5 15/15/5
v -0.1420239955186844 0.2064179927110672 -1.971161961555481
vt 0.125 0.75
f 13/13/5 15/15/5 16/16/5
vn -0.0 -0.37959998846054077 -0.9251000285148621
vt 0.875 0.625
vt 0.875 0.75
f 8/8/6 2/17/6 11/18/6
f 8/8/6 11/18/6 9/9/6
v 0.057829998433589935 0.2064179927110672 -1.5711619853973389
vt 0.42500001192092896 0.75
v -0.1420239955186844 0.2064179927110672 -1.5711619853973389
vt 0.42500001192092896 1.0
f 15/15/4 17/19/4 18/20/4
vt 0.375 1.0
f 15/15/4 18/20/4 16/21/4
v -0.004296999890357256 0.2064179927110672 -1.1711620092391968
vt 0.4749999940395355 0.75
v -0.20415200293064117 0.2064179927110672 -1.1711620092391968
vt 0.4749999940395355 1.0
f 17/19/4 19/22/4 20/23/4
f 17/19/4 20/23/4 18/20/4
v -0.0842059999704361 0.2064179927110672 -0.7711619734764099
vt 0.5249999761581421 0.75
v -0.284060001373291 0.2064179927110672 -0.7711619734764099
vt 0.5249999761581421 1.0
f 19/22/4 21/24/4 22/25/4
f 19/22/4 22/25/4 20/23/4
f 21/24/4 10/10/4 12/12/4
f 21/24/4 12/12/4 22/25/4
vn -0.9814000129699707 -0.19210000336170197 0.0
v 0.0871099978685379 0.05682399868965149 -1.5711619853973389
vt 0.42500001192092896 0.625
f 14/14/7 23/26/7 17/19/7
f 14/14/7 17/19/7 15/15/7
vn -0.9702000021934509 -0.1898999959230423 -0.15070000290870667
v 0.024981999769806862 0.05682399868965149 -1.1711620092391968
vt 0.4749999940395355 0.625
f 23/26/8 24/27/8 19/22/8
f 23/26/8 19/22/8 17/19/8
vn -0.9629999995231628 -0.18850000202655792 -0.1923999935388565
v -0.05492600053548813 0.05682399868965149 -0.7711619734764099
vt 0.5249999761581421 0.625
f 24/27/9 25/28/9 21/24/9
f 24/27/9 21/24/9 19/22/9
vn -0.9951000213623047 -0.09740000218153 0.014700000174343586
f 25/28/10 7/7/10 10/10/10
f 25/28/10 10/10/10 21/24/10
vt 0.5249999761581421 0.0
vn 0.9204000234603882 0.3905999958515167 -0.01360000018030405
vt 0.574999988079071 0.0
f 22/29/11 12/30/11 1/1/11
v -0.20593099296092987 0.05682399868965149 -0.7711619734764099
vt 0.5249999761581421 0.125
f 22/29/11 1/1/11 26/31/11
vt 0.4749999940395355 0.0
vn 0.9161999821662903 0.37400001287460327 0.14399999380111694
f 20/32/12 22/29/12 26/31/12
v -0.1601399928331375 0.05682399868965149 -1.1711620092391968
vt 0.4749999940395355 0.125
f 20/32/12 26/31/12 27/33/12
vt 0.42500001192092896 0.0
vn 0.989799976348877 0.11289999634027481 0.08709999918937683
f 18/34/13 20/32/13 27/33/13
v -0.15189999341964722 0.05682399868965149 -1.5711619853973389
vt 0.42500001192092896 0.125
f 18/34/13 27/33/13 28/35/13
vt 0.375 0.0
vn 0.9977999925613403 -0.06589999794960022 0.0
f 16/36/14 18/34/14 28/35/14
vt 0.375 0.125
f 16/36/14 28/35/14 13/37/14
vn -0.0 0.37959998846054077 -0.9251000285148621
vt 0.875 0.5
f 5/5/15 3/38/15 2/17/15
f 5/5/15 2/17/15 8/8/15
vn -0.8514999747276306 -0.49869999289512634 0.16169999539852142
f 6/6/16 5/5/16 8/8/16
f 6/6/16 8/8/16 7/7/16
vn 0.9474999904632568 0.09189999848604202 -0.3061000108718872
vt 0.625 0.0
f 12/30/17 11/39/17 2/2/17
f 12/30/17 2/2/17 1/1/17
