# OBJ file
o __dotobj_group__##0#1#0#-1.0
g __dotobj_group__##0#1#0#-1.0
o mangrove_wall_leaf.RAND_Cube.005##0#1#0#-1.0
g mangrove_wall_leaf.RAND_Cube.005##0#1#0#-1.0
v 1.047603964805603 0.3269740045070648 -0.7678430080413818
vt 0.5 0.0
vn 0.9314000010490417 0.0 0.36399999260902405
v 0.7532529830932617 0.3269740045070648 -0.014589999802410603
vt 0.625 0.0
v 0.7532529830932617 -0.13065099716186523 -0.014589999802410603
vt 0.625 0.25
f 1/1/1 2/2/1 3/3/1
v 1.047603964805603 -0.13065099716186523 -0.7678430080413818
vt 0.5 0.25
f 1/1/1 3/3/1 4/4/1
v -0.0 -0.13065099716186523 -0.7678430080413818
vt 0.5 0.375
vn -0.0 -1.0 0.0
v -0.0 -0.13065099716186523 0.07354199886322021
vt 0.625 0.375
v -0.7532529830932617 -0.13065099716186523 -0.014589999802410603
vt 0.625 0.5
f 5/5/2 6/6/2 7/7/2
v -1.047603964805603 -0.13065099716186523 -0.7678430080413818
vt 0.5 0.5
f 5/5/2 7/7/2 8/8/2
vn -0.9314000010490417 0.0 0.36399999260902405
v -0.7532529830932617 0.3269740045070648 -0.014589999802410603
vt 0.625 0.75
f 8/8/3 7/7/3 9/9/3
v -1.047603964805603 0.3269740045070648 -0.7678430080413818
vt 0.5 0.75
f 8/8/3 9/9/3 10/10/3
v -0.0 0.4545159935951233 -0.7678430080413818
vt 0.5 0.875
vn 0.07850000262260437 0.992900013923645 0.08959999680519104
v -0.0 0.3269740045070648 0.15017099678516388
vt 0.625 0.875
vt 0.625 1.0
f 11/11/4 12/12/4 2/13/4
vt 0.5 1.0
f 11/11/4 2/13/4 1/14/4
v -0.10055000334978104 -0.13065099716186523 -1.8975069522857666
vt 0.25 0.5
vn -0.49959999322891235 0.0 -0.8662999868392944
v -0.7532529830932617 -0.13065099716186523 -1.5210950374603271
vt 0.375 0.5
v -0.7532529830932617 0.3269740045070648 -1.5210950374603271
vt 0.375 0.75
f 13/15/5 14/16/5 15/17/5
v -0.10055000334978104 0.3269740045070648 -1.8975069522857666
vt 0.25 0.75
f 13/15/5 15/17/5 16/18/5
vt 0.75 0.5
vn 0.16500000655651093 -0.08229999989271164 0.9829000234603882
vt 0.875 0.5
vt 0.875 0.75
f 6/19/6 3/20/6 2/21/6
vt 0.75 0.75
f 6/19/6 2/21/6 12/22/6
vn -0.16500000655651093 -0.08229999989271164 0.9829000234603882
f 7/7/7 6/19/7 12/22/7
f 7/7/7 12/22/7 9/9/7
v 0.7532529830932617 -0.13065099716186523 -1.5210950374603271
vt 0.125 0.5
vn 0.4034000039100647 0.0 -0.9150000214576721
f 17/23/8 13/15/8 16/18/8
v 0.7532529830932617 0.3269740045070648 -1.5210950374603271
vt 0.125 0.75
f 17/23/8 16/18/8 18/24/8
vn -0.07850000262260437 0.992900013923645 0.08959999680519104
f 10/10/9 9/9/9 12/12/9
f 10/10/9 12/12/9 11/11/9
f 4/4/2 3/3/2 6/6/2
f 4/4/2 6/6/2 5/5/2
vt 0.375 0.25
f 17/25/2 4/4/2 5/5/2
vt 0.375 0.375
f 17/25/2 5/5/2 13/26/2
vn -0.09139999747276306 0.992900013923645 -0.07670000195503235
f 15/17/10 10/10/10 11/11/10
vt 0.375 0.875
f 15/17/10 11/11/10 16/27/10
vn 0.08340000361204147 0.992900013923645 -0.08470000326633453
f 16/27/11 11/11/11 1/14/11
vt 0.375 1.0
f 16/27/11 1/14/11 18/28/11
vn -0.9314000010490417 0.0 -0.36399999260902405
f 14/16/12 8/8/12 10/10/12
f 14/16/12 10/10/12 15/17/12
f 13/26/2 5/5/2 8/8/2
f 13/26/2 8/8/2 14/16/2
vt 0.375 0.0
vn 0.9314000010490417 0.0 -0.36399999260902405
f 18/29/13 1/1/13 4/4/13
f 18/29/13 4/4/13 17/25/13
