# OBJ file
o __dotobj_group__##0#1#0#-1.0
g __dotobj_group__##0#1#0#-1.0
o rail.COLLIDER_straight_OG_Cube.002##0#1#0#-1.0
g rail.COLLIDER_straight_OG_Cube.002##0#1#0#-1.0
v -0.06167199835181236 0.11123500019311905 1.1469229459762573
vt 0.625 0.75
vn -0.8550999760627747 0.5184999704360962 -0.0
v -0.1291230022907257 0.0 1.1469229459762573
vt 0.625 0.625
v -0.1291230022907257 0.0 2.426382064819336
f 1/1/1 2/2/1 3/2/1
v -0.06167199835181236 0.11123500019311905 2.426382064819336
f 1/1/1 3/2/1 4/1/1
v 0.1291230022907257 0.0 1.1469229459762573
vt 0.625 0.125
vn 0.8550999760627747 0.5184999704360962 -0.0
v 0.06167199835181236 0.11123500019311905 1.1469229459762573
vt 0.625 0.0
v 0.06167199835181236 0.11123500019311905 2.426382064819336
f 5/3/2 6/4/2 7/4/2
v 0.1291230022907257 0.0 2.426382064819336
f 5/3/2 7/4/2 8/3/2
v 0.06167199835181236 -0.11123500019311905 1.1469229459762573
vt 0.625 0.25
vn 0.8550999760627747 -0.5184999704360962 0.0
f 9/5/3 5/3/3 8/3/3
v 0.06167199835181236 -0.11123500019311905 2.426382064819336
f 9/5/3 8/3/3 10/5/3
vn -0.8550999760627747 -0.5184999704360962 0.0
v -0.06167199835181236 -0.11123500019311905 1.1469229459762573
vt 0.625 0.5
v -0.06167199835181236 -0.11123500019311905 2.426382064819336
f 2/2/4 11/6/4 12/6/4
f 2/2/4 12/6/4 3/2/4
vt 0.625 1.0
vn -0.0 1.0 -0.0
f 6/7/5 1/1/5 4/1/5
f 6/7/5 4/1/5 7/7/5
vn -0.0 -1.0 0.0
f 11/6/6 9/5/6 10/5/6
f 11/6/6 10/5/6 12/6/6
o rail.COLLIDER_straight_OG_Cube.002##0#2#1#-1.0
g rail.COLLIDER_straight_OG_Cube.002##0#2#1#-1.0
v 0.3968929946422577 -0.0 -0.19513200223445892
vt 0.375 0.125
v 0.3968929946422577 0.0 1.028309941291809
v 0.1895660012960434 -0.3419100046157837 1.028309941291809
f 13/8/3 14/3/3 15/5/3
v 0.1895660012960434 -0.3419100046157837 -0.19513200223445892
vt 0.375 0.25
f 13/8/3 15/5/3 16/9/3
v -0.1895660012960434 -0.3419100046157837 1.028309941291809
f 16/9/6 15/5/6 17/6/6
v -0.1895660012960434 -0.3419100046157837 -0.19513200223445892
vt 0.375 0.5
f 16/9/6 17/6/6 18/10/6
v -0.3968929946422577 -0.0 -0.19513200223445892
vt 0.375 0.625
v -0.3968929946422577 0.0 1.028309941291809
v -0.1895660012960434 0.3419100046157837 1.028309941291809
f 19/11/1 20/2/1 21/1/1
v -0.1895660012960434 0.3419100046157837 -0.19513200223445892
vt 0.375 0.75
f 19/11/1 21/1/1 22/12/1
v 0.1895660012960434 0.3419100046157837 1.028309941291809
f 22/12/5 21/1/5 23/7/5
v 0.1895660012960434 0.3419100046157837 -0.19513200223445892
vt 0.375 1.0
f 22/12/5 23/7/5 24/13/5
vt 0.125 0.625
vn -0.0 -0.0 -1.0
f 13/14/7 19/11/7 22/12/7
vt 0.125 0.75
f 13/14/7 22/12/7 24/15/7
vn 0.39329999685287476 0.23849999904632568 0.8878999948501587
f 14/3/8 23/4/8 6/4/8
f 14/3/8 6/4/8 5/3/8
vn -0.39329999685287476 -0.23849999904632568 0.8878999948501587
f 20/2/9 17/6/9 11/6/9
f 20/2/9 11/6/9 2/2/9
vt 0.125 0.5
f 16/16/7 18/10/7 19/11/7
f 16/16/7 19/11/7 13/14/7
f 18/10/4 17/6/4 20/2/4
f 18/10/4 20/2/4 19/11/4
vt 0.375 0.0
f 24/17/2 23/4/2 14/3/2
f 24/17/2 14/3/2 13/8/2
vn 0.39329999685287476 -0.23849999904632568 0.8878999948501587
f 15/5/10 14/3/10 5/3/10
f 15/5/10 5/3/10 9/5/10
vn -0.0 0.45730000734329224 0.8892999887466431
f 23/7/11 21/1/11 1/1/11
f 23/7/11 1/1/11 6/7/11
vn -0.0 -0.45730000734329224 0.8892999887466431
f 17/6/12 15/5/12 9/5/12
f 17/6/12 9/5/12 11/6/12
vn -0.39329999685287476 0.23849999904632568 0.8878999948501587
f 21/1/13 20/2/13 2/2/13
f 21/1/13 2/2/13 1/1/13
o top_rail001##0#1#0#-1.0
g top_rail001##0#1#0#-1.0
v -0.06167199835181236 0.11123500019311905 1.1408029794692993
v -0.1291230022907257 0.0 1.1408029794692993
v -0.1291230022907257 0.0 2.420262098312378
f 25/1/1 26/2/1 27/2/1
v -0.06167199835181236 0.11123500019311905 2.420262098312378
f 25/1/1 27/2/1 28/1/1
v 0.1291230022907257 0.0 1.1408029794692993
v 0.06167199835181236 0.11123500019311905 1.1408029794692993
v 0.06167199835181236 0.11123500019311905 2.420262098312378
f 29/3/2 30/4/2 31/4/2
v 0.1291230022907257 0.0 2.420262098312378
f 29/3/2 31/4/2 32/3/2
vn -0.0 0.5332000255584717 -0.8460000157356262
v -0.06167199835181236 0.9194279909133911 2.9295859336853027
f 31/7/14 28/1/14 33/1/14
v 0.06167199835181236 0.9194279909133911 2.9295859336853027
f 31/7/14 33/1/14 34/7/14
vn -0.6804999709129333 -0.3939000070095062 -0.617900013923645
v -0.06167199835181236 -0.11123500019311905 2.420262098312378
v -0.06167199835181236 -0.9164230227470398 2.9302780628204346
f 27/2/15 35/6/15 36/6/15
v -0.1291230022907257 -0.794638991355896 2.9302780628204346
f 27/2/15 36/6/15 37/2/15
v 0.06167199835181236 -0.11123500019311905 1.1408029794692993
f 38/5/3 29/3/3 32/3/3
v 0.06167199835181236 -0.11123500019311905 2.420262098312378
f 38/5/3 32/3/3 39/5/3
v -0.06167199835181236 -0.11123500019311905 1.1408029794692993
f 26/2/4 40/6/4 35/6/4
f 26/2/4 35/6/4 27/2/4
f 30/7/5 25/1/5 28/1/5
f 30/7/5 28/1/5 31/7/5
f 40/6/6 38/5/6 39/5/6
f 40/6/6 39/5/6 35/6/6
v 0.1291230022907257 -0.794638991355896 2.9302780628204346
vt 0.875 0.625
v -0.1291230022907257 -0.7946360111236572 4.021712779998779
f 41/18/5 37/2/5 42/2/5
v 0.1291230022907257 -0.7946360111236572 4.021712779998779
f 41/18/5 42/2/5 43/18/5
vn -0.0 -0.535099983215332 -0.8447999954223633
v 0.06167199835181236 -0.9164230227470398 2.9302780628204346
f 35/6/16 39/5/16 44/5/16
f 35/6/16 44/5/16 36/6/16
vn -0.0 0.5400999784469604 0.8416000008583069
f 32/18/17 27/2/17 37/2/17
f 32/18/17 37/2/17 41/18/17
vn 0.6804999709129333 -0.3939000070095062 -0.617900013923645
f 39/5/18 32/3/18 41/3/18
f 39/5/18 41/3/18 44/5/18
v -0.06167199835181236 0.9194309711456299 4.021020889282227
f 34/7/5 33/1/5 45/1/5
v 0.06167199835181236 0.9194309711456299 4.021020889282227
f 34/7/5 45/1/5 46/7/5
vn -0.0 -0.5346999764442444 0.8450000286102295
v 0.1291230022907257 0.8049629926681519 2.9295859336853027
f 27/2/19 32/18/19 47/18/19
v -0.1291230022907257 0.8049629926681519 2.9295859336853027
f 27/2/19 47/18/19 48/2/19
vn 0.6661999821662903 0.39820000529289246 -0.6305999755859375
f 32/3/20 31/4/20 34/4/20
f 32/3/20 34/4/20 47/3/20
vn -0.6661999821662903 0.39820000529289246 -0.6305999755859375
f 28/1/21 27/2/21 48/2/21
f 28/1/21 48/2/21 33/1/21
vn -0.6427000164985657 -0.37950000166893005 0.6654999852180481
v -0.06167199835181236 -0.9164199829101562 4.021712779998779
v -0.06167199835181236 -0.10259599983692169 4.481537818908691
f 42/2/22 49/6/22 50/6/22
v -0.1291230022907257 0.003464000066742301 4.481192111968994
f 42/2/22 50/6/22 51/2/22
vn -0.6276000142097473 0.38589999079704285 0.6761000156402588
v -0.1291230022907257 0.8049659729003906 4.021020889282227
f 45/1/23 52/2/23 51/2/23
v -0.06167199835181236 0.10900799930095673 4.480845928192139
f 45/1/23 51/2/23 53/1/23
v 0.06167199835181236 -0.9164199829101562 4.021712779998779
f 36/6/6 44/5/6 54/5/6
f 36/6/6 54/5/6 49/6/6
vn 0.8615000247955322 0.5077000260353088 -0.0
f 47/3/24 34/4/24 46/4/24
v 0.1291230022907257 0.8049659729003906 4.021020889282227
f 47/3/24 46/4/24 55/3/24
vn -0.8615000247955322 0.5077000260353088 -0.0
f 33/1/25 48/2/25 52/2/25
f 33/1/25 52/2/25 45/1/25
vn -0.8748000264167786 -0.484499990940094 0.0
f 37/2/26 36/6/26 49/6/26
f 37/2/26 49/6/26 42/2/26
f 48/2/6 47/18/6 55/18/6
f 48/2/6 55/18/6 52/2/6
vn 0.8748000264167786 -0.484499990940094 0.0
f 44/5/27 41/3/27 43/3/27
f 44/5/27 43/3/27 54/5/27
v 3.017488956451416 0.00405400013551116 5.112599849700928
vn -0.0957999974489212 0.0032999999821186066 0.9954000115394592
v 3.0005099773406982 -0.10200600326061249 5.111639976501465
vt 0.875 0.5
vn -0.11720000207424164 0.011800000444054604 0.9929999709129333
v 3.999044895172119 -0.10200600326061249 5.112380027770996
vn -9.999999747378752e-05 -0.002899999963119626 1.0
f 56/18/28 57/19/29 58/19/30
v 3.999229907989502 0.00405400013551116 5.112032890319824
vn -9.999999747378752e-05 0.0032999999821186066 1.0
f 56/18/28 58/19/30 59/18/31
v 3.0163021087646484 -0.10259599983692169 4.906405925750732
vn 0.11779999732971191 -0.012000000104308128 -0.9929999709129333
v 3.033281087875366 0.003464000066742301 4.907364845275879
vn 0.09619999676942825 -0.0032999999821186066 -0.9954000115394592
v 3.999229907989502 0.003464000066742301 4.906191825866699
vn -0.0005000000237487257 -0.0032999999821186066 -1.0
f 60/5/32 61/3/33 62/3/34
v 3.999044895172119 -0.10259599983692169 4.906538009643555
vn -0.0005000000237487257 0.002899999963119626 -1.0
f 60/5/32 62/3/34 63/5/35
vn 0.6427000164985657 -0.37950000166893005 0.6654999852180481
v 0.1291230022907257 0.003464000066742301 4.481192111968994
f 54/5/36 43/3/36 64/3/36
v 0.06167199835181236 -0.10259599983692169 4.481537818908691
f 54/5/36 64/3/36 65/5/36
vn -0.0 -0.49790000915527344 -0.8672000169754028
f 52/2/37 55/18/37 64/18/37
f 52/2/37 64/18/37 51/2/37
vn -0.0 0.4934999942779541 0.8697999715805054
f 46/7/38 45/1/38 53/1/38
v 0.06167199835181236 0.10900799930095673 4.480845928192139
f 46/7/38 53/1/38 66/7/38
vn -0.0 0.49889999628067017 -0.866599977016449
f 43/18/39 42/2/39 51/2/39
f 43/18/39 51/2/39 64/18/39
vn -0.0 -0.4918999969959259 0.8705999851226807
f 49/6/40 54/5/40 65/5/40
f 49/6/40 65/5/40 50/6/40
vn 0.6276000142097473 0.38589999079704285 0.6761000156402588
f 55/3/41 46/4/41 66/4/41
f 55/3/41 66/4/41 64/3/41
v -0.06167199835181236 -0.10200600326061249 4.687378883361816
vn -0.016599999740719795 -9.999999747378752e-05 0.9998999834060669
v 0.06167199835181236 -0.10200600326061249 4.687378883361816
vn -0.016699999570846558 0.0066999997943639755 0.9998000264167786
v 0.1291230022907257 0.00405400013551116 4.687033176422119
vn -0.03539999946951866 0.0031999999191612005 0.9994000196456909
f 67/6/42 68/19/43 69/18/44
v -0.1291230022907257 0.00405400013551116 4.687033176422119
vn -0.03530000150203705 0.0032999999821186066 0.9994000196456909
f 67/6/42 69/18/44 70/2/45
v 0.06167199835181236 0.10959800332784653 4.686686992645264
vt 0.875 0.75
f 70/2/45 69/18/44 71/20/42
v -0.06167199835181236 0.10959800332784653 4.686686992645264
vn -0.016499999910593033 0.0066999997943639755 0.9998000264167786
f 70/2/45 71/20/42 72/1/46
v -3.0163021087646484 0.10959800332784653 4.261818885803223
vn 0.0003000000142492354 1.0 -0.00279999990016222
v -3.0005099773406982 0.10900799930095673 4.05658483505249
v -3.999044895172119 0.10900799930095673 4.055846214294434
vn 0.0 1.0 -0.002899999963119626
f 73/1/47 74/1/47 75/1/48
v -3.999044895172119 0.10959800332784653 4.2616868019104
f 73/1/47 75/1/48 76/1/48
vn 9.999999747378752e-05 1.0 -0.002899999963119626
f 66/7/49 53/1/49 72/1/49
f 66/7/49 72/1/49 71/7/49
v -3.033281087875366 0.00405400013551116 4.260859966278076
vn -0.09619999676942825 0.0032999999821186066 0.9954000115394592
vn -0.11789999902248383 0.012000000104308128 0.9929999709129333
vn 0.0005000000237487257 -0.002899999963119626 1.0
f 77/2/50 73/1/51 76/1/52
v -3.999229907989502 0.00405400013551116 4.262032985687256
vn 0.0005000000237487257 0.0032999999821186066 1.0
f 77/2/50 76/1/52 78/2/53
vn -9.999999747378752e-05 -1.0 0.002899999963119626
f 50/6/54 65/5/54 68/5/54
f 50/6/54 68/5/54 67/6/54
vn 1.0 -0.0017000000225380063 0.0
vn 1.0 0.0 -0.0
f 63/5/55 62/3/56 59/3/56
f 63/5/55 59/3/56 58/5/55
v -3.999229907989502 0.003464000066742301 4.056191921234131
vn -1.0 0.0 -0.0
v -3.999044895172119 -0.10259599983692169 4.056538105010986
vn -1.0 -0.0017000000225380063 0.0
v -3.999044895172119 -0.10200600326061249 4.262379169464111
f 79/2/57 80/6/58 81/6/58
f 79/2/57 81/6/58 78/2/57
v 3.999044895172119 0.10900799930095673 4.905847072601318
vn 1.0 0.0017999999690800905 -0.0
v 3.999044895172119 0.10959800332784653 5.111687183380127
f 62/3/56 82/4/59 83/4/59
f 62/3/56 83/4/59 59/3/56
vn -1.0 0.0017999999690800905 -0.0
f 75/1/60 79/2/57 78/2/57
f 75/1/60 78/2/57 76/1/60
vn 0.11729999631643295 -0.011800000444054604 -0.9929999709129333
v -3.017488956451416 0.003464000066742301 4.055624961853027
vn 0.0957999974489212 -0.0032999999821186066 -0.9954000115394592
vn 9.999999747378752e-05 -0.0032999999821186066 -1.0
f 74/1/61 84/2/62 79/2/63
vn 9.999999747378752e-05 0.002899999963119626 -1.0
f 74/1/61 79/2/63 75/1/64
v 3.000562906265259 0.10959800332784653 5.110949993133545
vn -0.11729999631643295 -0.0052999998442828655 0.9930999875068665
f 85/20/65 56/18/28 59/18/31
vn -9.999999747378752e-05 0.009399999864399433 1.0
f 85/20/65 59/18/31 83/20/66
v -3.016355037689209 -0.10200600326061249 4.262509822845459
vn -0.11779999732971191 -0.005400000140070915 0.9929999709129333
f 86/6/67 77/2/50 78/2/53
vn 0.0005000000237487257 0.009499999694526196 1.0
f 86/6/67 78/2/53 81/6/68
vn -0.0003000000142492354 -1.0 0.00279999990016222
vn -0.0 -1.0 0.002899999963119626
f 57/5/69 60/5/69 63/5/70
f 57/5/69 63/5/70 58/5/70
v -3.000562906265259 -0.10259599983692169 4.05727481842041
f 87/6/69 86/6/69 81/6/70
f 87/6/69 81/6/70 80/6/70
vn 0.11729999631643295 0.005200000014156103 -0.9930999875068665
vn 9.999999747378752e-05 -0.009399999864399433 -1.0
f 84/2/62 87/6/71 80/6/72
f 84/2/62 80/6/72 79/2/63
v 3.016355037689209 0.10900799930095673 4.9057159423828125
f 88/7/47 85/7/47 83/7/48
f 88/7/47 83/7/48 82/7/48
vn 0.11789999902248383 0.005499999970197678 -0.9929999709129333
vn -0.0005000000237487257 -0.009499999694526196 -1.0
f 61/3/33 88/4/73 82/4/74
f 61/3/33 82/4/74 62/3/34
vn 0.05180000141263008 -0.0031999999191612005 -0.9987000226974487
vn 0.05180000141263008 0.007300000172108412 -0.9986000061035156
v 1.0518920421600342 0.10900799930095673 4.529856204986572
vn 0.09229999780654907 0.011800000444054604 -0.9957000017166138
f 64/3/75 66/4/76 89/4/77
v 1.1023520231246948 0.003464000066742301 4.534084796905518
vn 0.12430000305175781 -0.0031999999191612005 -0.9922000169754028
f 64/3/75 89/4/77 90/3/78
v 2.042117118835449 0.10900799930095673 4.692838191986084
vn 0.18410000205039978 0.01889999955892563 -0.982699990272522
f 90/3/78 89/4/77 91/4/79
v 2.0754830837249756 0.003464000066742301 4.69835901260376
vn 0.19370000064373016 -0.0031999999191612005 -0.9810000061988831
f 90/3/78 91/4/79 92/3/80
f 92/3/80 91/4/79 88/4/73
f 92/3/80 88/4/73 61/3/33
v 1.0361000299453735 0.10959800332784653 4.7350897789001465
f 66/7/49 71/7/49 93/7/47
f 66/7/49 93/7/47 89/7/47
v 2.0105910301208496 0.10959800332784653 4.896249771118164
vn 0.0005000000237487257 1.0 -0.00279999990016222
f 89/7/47 93/7/47 94/7/81
f 89/7/47 94/7/81 91/7/81
f 91/7/81 94/7/81 85/7/47
f 91/7/81 85/7/47 88/7/47
v 1.051838994026184 -0.10259599983692169 4.530546188354492
f 68/5/54 65/5/54 95/5/69
v 1.0360469818115234 -0.10200600326061249 4.735779762268066
f 68/5/54 95/5/69 96/5/69
v 2.042011022567749 -0.10259599983692169 4.693521976470947
vn -0.0005000000237487257 -1.0 0.00279999990016222
f 96/5/69 95/5/69 97/5/82
v 2.0104849338531494 -0.10200600326061249 4.896934986114502
f 96/5/69 97/5/82 98/5/82
f 98/5/82 97/5/82 60/5/69
f 98/5/82 60/5/69 57/5/69
v 1.0865600109100342 0.00405400013551116 4.739319801330566
vn -0.12489999830722809 0.0031999999191612005 0.9922000169754028
f 71/20/42 69/18/44 99/18/83
vn -0.09269999712705612 -0.012000000104308128 0.9955999851226807
f 71/20/42 99/18/83 93/20/84
v 2.043956995010376 0.00405400013551116 4.9017720222473145
vn -0.1931000053882599 0.0031999999191612005 0.9811999797821045
f 93/20/84 99/18/83 100/18/85
vn -0.18389999866485596 -0.01889999955892563 0.9828000068664551
f 93/20/84 100/18/85 94/20/86
f 94/20/86 100/18/85 56/18/28
f 94/20/86 56/18/28 85/20/65
vn 0.05180000141263008 -0.013799999840557575 -0.9986000061035156
f 65/5/87 64/3/75 90/3/78
vn 0.09229999780654907 -0.018200000748038292 -0.9955999851226807
f 65/5/87 90/3/78 95/5/88
f 95/5/88 90/3/78 92/3/80
vn 0.18410000205039978 -0.025299999862909317 -0.9825999736785889
f 95/5/88 92/3/80 97/5/89
f 97/5/89 92/3/80 61/3/33
f 97/5/89 61/3/33 60/5/32
vn -0.09279999881982803 0.018400000408291817 0.9955000281333923
f 69/18/44 68/19/43 96/19/90
f 69/18/44 96/19/90 99/18/83
vn -0.18389999866485596 0.025299999862909317 0.9825999736785889
f 99/18/83 96/19/90 98/19/91
f 99/18/83 98/19/91 100/18/85
f 100/18/85 98/19/91 57/19/29
f 100/18/85 57/19/29 56/18/28
vn 0.052000001072883606 -0.0032999999821186066 -0.9986000061035156
vn 0.052000001072883606 0.007400000002235174 -0.9986000061035156
v -1.0361000299453735 -0.10259599983692169 4.433135986328125
vn 0.09279999881982803 0.011900000274181366 -0.9955999851226807
f 51/2/92 50/6/93 101/6/94
v -1.0865600109100342 0.003464000066742301 4.428905010223389
vn 0.12489999830722809 -0.0032999999821186066 -0.9922000169754028
f 51/2/92 101/6/94 102/2/95
v -2.0105841159820557 -0.10259599983692169 4.271976947784424
vn 0.18389999866485596 0.018799999728798866 -0.9828000068664551
f 102/2/95 101/6/94 103/6/96
v -2.043950080871582 0.003464000066742301 4.266452789306641
vn 0.1931000053882599 -0.0032999999821186066 -0.9811999797821045
f 102/2/95 103/6/96 104/2/97
f 104/2/97 103/6/96 87/6/71
f 104/2/97 87/6/71 84/2/62
v -1.0518920421600342 -0.10200600326061249 4.638370037078857
f 50/6/54 67/6/54 105/6/69
f 50/6/54 105/6/69 101/6/69
v -2.042124032974243 -0.10200600326061249 4.475387096405029
f 101/6/69 105/6/69 106/6/82
f 101/6/69 106/6/82 103/6/82
f 103/6/82 106/6/82 86/6/69
f 103/6/82 86/6/69 87/6/69
v -1.1023509502410889 0.00405400013551116 4.6341400146484375
vn -0.12430000305175781 0.0032999999821186066 0.9922000169754028
f 67/6/42 70/2/45 107/2/98
vn -0.09229999780654907 -0.011699999682605267 0.9957000017166138
f 67/6/42 107/2/98 105/6/99
v -2.0754899978637695 0.00405400013551116 4.469862937927246
vn -0.19370000064373016 0.0032999999821186066 0.9810000061988831
f 105/6/99 107/2/98 108/2/100
vn -0.18410000205039978 -0.018799999728798866 0.982699990272522
f 105/6/99 108/2/100 106/6/101
f 106/6/101 108/2/100 77/2/50
f 106/6/101 77/2/50 86/6/67
vn 0.052000001072883606 -0.014000000432133675 -0.9984999895095825
f 53/1/102 51/2/92 102/2/95
v -1.0360469818115234 0.10900799930095673 4.432446002960205
vn 0.09269999712705612 -0.01850000023841858 -0.9955000281333923
f 53/1/102 102/2/95 109/1/103
f 109/1/103 102/2/95 104/2/97
v -2.0104780197143555 0.10900799930095673 4.2712931632995605
vn 0.18389999866485596 -0.02539999969303608 -0.9825999736785889
f 109/1/103 104/2/97 110/1/104
f 110/1/104 104/2/97 84/2/62
f 110/1/104 84/2/62 74/1/61
v -1.051838994026184 0.10959800332784653 4.6376800537109375
vn -0.09229999780654907 0.018300000578165054 0.9955999851226807
f 70/2/45 72/1/46 111/1/105
f 70/2/45 111/1/105 107/2/98
v -2.042017936706543 0.10959800332784653 4.474702835083008
vn -0.18410000205039978 0.02539999969303608 0.9825999736785889
f 107/2/98 111/1/105 112/1/106
f 107/2/98 112/1/106 108/2/100
f 108/2/100 112/1/106 73/1/51
f 108/2/100 73/1/51 77/2/50
f 72/1/49 53/1/49 109/1/47
f 72/1/49 109/1/47 111/1/47
f 111/1/47 109/1/47 110/1/81
f 111/1/47 110/1/81 112/1/81
f 112/1/81 110/1/81 74/1/47
f 112/1/81 74/1/47 73/1/47
o top_rail001##0#2#1#-1.0
g top_rail001##0#2#1#-1.0
v 0.3968929946422577 -0.0 -0.17173799872398376
v 0.3968929946422577 0.0 1.022189974784851
v 0.1895660012960434 -0.3419100046157837 1.022189974784851
f 113/8/3 114/3/3 115/5/3
v 0.1895660012960434 -0.3419100046157837 -0.17173799872398376
f 113/8/3 115/5/3 116/9/3
v -0.1895660012960434 -0.3419100046157837 1.022189974784851
f 116/9/6 115/5/6 117/6/6
v -0.1895660012960434 -0.3419100046157837 -0.17173799872398376
f 116/9/6 117/6/6 118/10/6
v -0.3968929946422577 -0.0 -0.17173799872398376
v -0.3968929946422577 0.0 1.022189974784851
v -0.1895660012960434 0.3419100046157837 1.022189974784851
f 119/11/1 120/2/1 121/1/1
v -0.1895660012960434 0.3419100046157837 -0.17173799872398376
f 119/11/1 121/1/1 122/12/1
v 0.1895660012960434 0.3419100046157837 1.022189974784851
f 122/12/5 121/1/5 123/7/5
v 0.1895660012960434 0.3419100046157837 -0.17173799872398376
f 122/12/5 123/7/5 124/13/5
f 113/14/7 119/11/7 122/12/7
f 113/14/7 122/12/7 124/15/7
f 114/3/8 123/4/8 30/4/8
f 114/3/8 30/4/8 29/3/8
f 120/2/9 117/6/9 40/6/9
f 120/2/9 40/6/9 26/2/9
f 116/16/7 118/10/7 119/11/7
f 116/16/7 119/11/7 113/14/7
f 118/10/4 117/6/4 120/2/4
f 118/10/4 120/2/4 119/11/4
f 124/17/2 123/4/2 114/3/2
f 124/17/2 114/3/2 113/8/2
f 115/5/10 114/3/10 29/3/10
f 115/5/10 29/3/10 38/5/10
f 123/7/11 121/1/11 25/1/11
f 123/7/11 25/1/11 30/7/11
f 117/6/12 115/5/12 38/5/12
f 117/6/12 38/5/12 40/6/12
f 121/1/13 120/2/13 26/2/13
f 121/1/13 26/2/13 25/1/13
