# OBJ file
o __dotobj_group__##0#1#0#-1.0
g __dotobj_group__##0#1#0#-1.0
o rail.COLLIDER_straight_OG_Cube.002##0#1#0#-1.0
g rail.COLLIDER_straight_OG_Cube.002##0#1#0#-1.0
v -1.2409950494766235 -1.0611369609832764 0.7158030271530151
vt 0.625 0.75
vn -0.9678999781608582 0.2513999938964844 -0.0
v -1.2736940383911133 -1.1870479583740234 0.7158030271530151
vt 0.625 0.625
v -1.2736940383911133 -1.1870479583740234 1.9952620267868042
f 1/1/1 2/2/1 3/2/1
v -1.2409950494766235 -1.0611369609832764 1.9952620267868042
f 1/1/1 3/2/1 4/1/1
v -1.0263060331344604 -1.1129519939422607 0.7158030271530151
vt 0.625 0.125
vn 0.6704000234603882 0.7419999837875366 -0.0
v -1.122836947441101 -1.0257469415664673 0.7158030271530151
vt 0.625 0.0
v -1.122836947441101 -1.0257469415664673 1.9952620267868042
f 5/3/2 6/4/2 7/4/2
v -1.0263060331344604 -1.1129510402679443 1.9952620267868042
f 5/3/2 7/4/2 8/3/2
v -1.0590050220489502 -1.2388629913330078 0.7158030271530151
vt 0.625 0.25
vn 0.9678999781608582 -0.2513999938964844 0.0
f 9/5/3 5/3/3 8/3/3
v -1.0590050220489502 -1.2388629913330078 1.9952620267868042
f 9/5/3 8/3/3 10/5/3
vn -0.6704000234603882 -0.7419999837875366 0.0
v -1.177163004875183 -1.274253010749817 0.7158030271530151
vt 0.625 0.5
v -1.177163004875183 -1.274253010749817 1.9952620267868042
f 2/2/4 11/6/4 12/6/4
f 2/2/4 12/6/4 3/2/4
vt 0.625 1.0
vn -0.28690001368522644 0.9580000042915344 -0.0
f 6/7/5 1/1/5 4/1/5
f 6/7/5 4/1/5 7/7/5
vn 0.28690001368522644 -0.9580000042915344 0.0
f 11/6/6 9/5/6 10/5/6
f 11/6/6 10/5/6 12/6/6
o rail.COLLIDER_straight_OG_Cube.002##0#2#1#-1.0
g rail.COLLIDER_straight_OG_Cube.002##0#2#1#-1.0
v -0.7697950005531311 -1.0361219644546509 -0.17173799872398376
vt 0.375 0.125
v -0.7697950005531311 -1.0361219644546509 0.5971900224685669
v -0.8703029751777649 -1.4231430292129517 0.5971900224685669
f 13/8/3 14/3/3 15/5/3
v -0.8703029751777649 -1.4231430292129517 -0.17173799872398376
vt 0.375 0.25
f 13/8/3 15/5/3 16/9/3
v -1.2334929704666138 -1.5319249629974365 0.5971900224685669
f 16/9/6 15/5/6 17/6/6
v -1.2334929704666138 -1.5319249629974365 -0.17173799872398376
vt 0.375 0.5
f 16/9/6 17/6/6 18/10/6
v -1.5302050113677979 -1.2638779878616333 -0.17173799872398376
vt 0.375 0.625
v -1.5302050113677979 -1.2638779878616333 0.5971900224685669
v -1.429697036743164 -0.8768569827079773 0.5971900224685669
f 19/11/1 20/2/1 21/1/1
v -1.429697036743164 -0.8768569827079773 -0.17173799872398376
vt 0.375 0.75
f 19/11/1 21/1/1 22/12/1
v -1.0665069818496704 -0.7680749893188477 0.5971900224685669
f 22/12/5 21/1/5 23/7/5
v -1.0665069818496704 -0.7680749893188477 -0.17173799872398376
vt 0.375 1.0
f 22/12/5 23/7/5 24/13/5
vt 0.125 0.625
vn 0.0 -0.0 -1.0
f 13/14/7 19/11/7 22/12/7
vt 0.125 0.75
f 13/14/7 22/12/7 24/15/7
vn 0.3084000051021576 0.34130001068115234 0.8878999948501587
f 14/3/8 23/4/8 6/4/8
f 14/3/8 6/4/8 5/3/8
vn -0.3084000051021576 -0.34130001068115234 0.8878999948501587
f 20/2/9 17/6/9 11/6/9
f 20/2/9 11/6/9 2/2/9
vt 0.125 0.5
f 16/16/7 18/10/7 19/11/7
f 16/16/7 19/11/7 13/14/7
f 18/10/4 17/6/4 20/2/4
f 18/10/4 20/2/4 19/11/4
vt 0.375 0.0
f 24/17/2 23/4/2 14/3/2
f 24/17/2 14/3/2 13/8/2
vn 0.44519999623298645 -0.11559999734163284 0.8878999948501587
f 15/5/10 14/3/10 5/3/10
f 15/5/10 5/3/10 9/5/10
vn -0.13120000064373016 0.43810001015663147 0.8892999887466431
f 23/7/11 21/1/11 1/1/11
f 23/7/11 1/1/11 6/7/11
vn 0.13120000064373016 -0.43810001015663147 0.8892999887466431
f 17/6/12 15/5/12 9/5/12
f 17/6/12 9/5/12 11/6/12
vn -0.44519999623298645 0.11559999734163284 0.8878999948501587
f 21/1/13 20/2/13 2/2/13
f 21/1/13 2/2/13 1/1/13
o curve_Cube.001##0#1#0#-1.0
g curve_Cube.001##0#1#0#-1.0
v -1.1262489557266235 -1.0390310287475586 0.7158030271530151
vn -0.23800000548362732 0.9713000059127808 -0.0
v -1.2525990009307861 -1.0699909925460815 0.7158030271530151
v -1.2525990009307861 -1.0699909925460815 1.9952620267868042
f 25/1/14 26/2/14 27/2/14
v -1.1262489557266235 -1.0390310287475586 1.9952620267868042
f 25/1/14 27/2/14 28/1/14
v -1.0699909925460815 -1.2525990009307861 0.7158030271530151
vn 0.9713000059127808 -0.23800000548362732 0.0
v -1.0390310287475586 -1.1262489557266235 0.7158030271530151
v -1.0390310287475586 -1.1262489557266235 1.9952620267868042
f 29/3/15 30/4/15 31/4/15
v -1.0699909925460815 -1.2525990009307861 1.9952620267868042
f 29/3/15 31/4/15 32/3/15
vn 0.37700000405311584 0.37700000405311584 -0.8460000157356262
v -0.5547699928283691 -0.4675520062446594 2.5045859813690186
f 31/7/16 28/1/16 33/1/16
v -0.4675520062446594 -0.5547699928283691 2.5045859813690186
f 31/7/16 33/1/16 34/7/16
vn -0.7597000002861023 0.20260000228881836 -0.617900013923645
v -1.283558964729309 -1.1963410377502441 1.9952620267868042
v -1.8529130220413208 -1.7656949758529663 2.5052781105041504
f 27/2/17 35/6/17 36/6/17
v -1.81449294090271 -1.631885051727295 2.5052781105041504
f 27/2/17 36/6/17 37/2/17
v -1.1963410377502441 -1.283558964729309 0.7158030271530151
vn 0.23800000548362732 -0.9713000059127808 0.0
f 38/5/18 29/3/18 32/3/18
v -1.1963410377502441 -1.283558964729309 1.9952620267868042
f 38/5/18 32/3/18 39/5/18
vn -0.9713000059127808 0.23800000548362732 -0.0
v -1.283558964729309 -1.1963410377502441 0.7158030271530151
f 26/2/19 40/6/19 35/6/19
f 26/2/19 35/6/19 27/2/19
vn 0.707099974155426 0.707099974155426 -0.0
f 30/7/20 25/1/20 28/1/20
f 30/7/20 28/1/20 31/7/20
vn -0.707099974155426 -0.707099974155426 0.0
f 40/6/21 38/5/21 39/5/21
f 40/6/21 39/5/21 35/6/21
v -1.631885051727295 -1.81449294090271 2.5052781105041504
vt 0.875 0.625
v -1.81449294090271 -1.631883978843689 3.596713066101074
f 41/18/20 37/2/20 42/2/20
v -1.631885051727295 -1.8144919872283936 3.596713066101074
f 41/18/20 42/2/20 43/18/20
vn -0.3783999979496002 -0.3783999979496002 -0.8447999954223633
v -1.7656949758529663 -1.8529130220413208 2.5052781105041504
f 35/6/22 39/5/22 44/5/22
f 35/6/22 44/5/22 36/6/22
vn 0.38190001249313354 0.38190001249313354 0.8416000008583069
f 32/18/23 27/2/23 37/2/23
f 32/18/23 37/2/23 41/18/23
vn 0.20260000228881836 -0.7597000002861023 -0.617900013923645
f 39/5/24 32/3/24 41/3/24
f 39/5/24 41/3/24 44/5/24
v -0.5547699928283691 -0.46755099296569824 3.5960209369659424
f 34/7/20 33/1/20 45/1/20
v -0.4675520062446594 -0.554768979549408 3.5960209369659424
f 34/7/20 45/1/20 46/7/20
vn -0.3781000077724457 -0.3781000077724457 0.8450000286102295
v -0.5007960200309753 -0.6834040284156799 2.5045859813690186
f 27/2/25 32/18/25 47/18/25
v -0.6834040284156799 -0.5007960200309753 2.5045859813690186
f 27/2/25 47/18/25 48/2/25
vn 0.7526000142097473 -0.18950000405311584 -0.6305999755859375
f 32/3/26 31/4/26 34/4/26
f 32/3/26 34/4/26 47/3/26
vn -0.18950000405311584 0.7526000142097473 -0.6305999755859375
f 28/1/27 27/2/27 48/2/27
f 28/1/27 48/2/27 33/1/27
vn -0.7228000164031982 0.18610000610351562 0.6654999852180481
v -1.8529130220413208 -1.76569402217865 3.596713066101074
v -1.277451992034912 -1.1902329921722412 4.056538105010986
f 42/2/28 49/6/28 50/6/28
v -1.2501510381698608 -1.0675430297851562 4.056191921234131
f 42/2/28 50/6/28 51/2/28
vn -0.17090000212192535 0.71670001745224 0.6761000156402588
v -0.6834040284156799 -0.5007950067520142 3.5960209369659424
f 45/1/29 52/2/29 51/2/29
v -1.1278250217437744 -1.0406060218811035 4.055846214294434
f 45/1/29 51/2/29 53/1/29
v -1.7656949758529663 -1.8529119491577148 3.596713066101074
f 36/6/21 44/5/21 54/5/21
f 36/6/21 54/5/21 49/6/21
vn 0.9682000279426575 -0.2502000033855438 0.0
f 47/3/30 34/4/30 46/4/30
v -0.5007960200309753 -0.6834030151367188 3.5960209369659424
f 47/3/30 46/4/30 55/3/30
vn -0.2502000033855438 0.9682000279426575 -0.0
f 33/1/31 48/2/31 52/2/31
f 33/1/31 52/2/31 45/1/31
vn -0.9611999988555908 0.2759999930858612 -0.0
f 37/2/32 36/6/32 49/6/32
f 37/2/32 49/6/32 42/2/32
f 48/2/21 47/18/21 55/18/21
f 48/2/21 55/18/21 52/2/21
vn 0.2759999930858612 -0.9611999988555908 0.0
f 44/5/33 41/3/33 43/3/33
f 44/5/33 43/3/33 54/5/33
vn 0.18610000610351562 -0.7228999733924866 0.6654000282287598
v -1.067499041557312 -1.2501939535140991 4.056191921234131
f 54/5/34 43/3/34 56/3/34
v -1.1901899576187134 -1.2774959802627563 4.056538105010986
f 54/5/34 56/3/34 57/5/34
vn -0.3521000146865845 -0.3521000146865845 -0.8672000169754028
f 52/2/35 55/18/35 56/18/35
f 52/2/35 56/18/35 51/2/35
vn 0.3488999903202057 0.3488999903202057 0.8697999715805054
f 46/7/36 45/1/36 53/1/36
v -1.0405629873275757 -1.1278690099716187 4.055846214294434
f 46/7/36 53/1/36 58/7/36
vn 0.35280001163482666 0.35280001163482666 -0.866599977016449
f 43/18/37 42/2/37 51/2/37
f 43/18/37 51/2/37 56/18/37
vn -0.34779998660087585 -0.34779998660087585 0.8705999851226807
f 49/6/38 54/5/38 57/5/38
f 49/6/38 57/5/38 50/6/38
vn 0.71670001745224 -0.17090000212192535 0.6761000156402588
f 55/3/39 46/4/39 58/4/39
f 55/3/39 58/4/39 56/3/39
v -1.2770349979400635 -1.1898159980773926 4.262379169464111
vn 0.002199999988079071 0.002400000113993883 1.0
v -1.1897729635238647 -1.2770789861679077 4.262379169464111
vt 0.875 0.5
vn 0.002300000051036477 0.002300000051036477 1.0
v -1.0670830011367798 -1.2497780323028564 4.262032985687256
f 59/6/40 60/19/41 61/18/41
v -1.2497340440750122 -1.0671260356903076 4.262032985687256
vn 0.002099999925121665 0.0024999999441206455 1.0
f 59/6/40 61/18/41 62/2/42
v -1.040145993232727 -1.12745201587677 4.2616868019104
vt 0.875 0.75
f 62/2/42 61/18/41 63/20/41
v -1.1274089813232422 -1.0401899814605713 4.2616868019104
f 62/2/42 63/20/41 64/1/40
v -3.1531190872192383 0.05113599821925163 4.2616868019104
vn 0.06849999725818634 0.9976000189781189 -0.00279999990016222
v -3.1532340049743652 0.050558000802993774 4.055846214294434
v -4.000017166137695 0.1086760014295578 4.055846214294434
f 65/1/43 66/1/43 67/1/43
v -4.000017166137695 0.10926499962806702 4.2616868019104
f 65/1/43 67/1/43 68/1/43
vn 0.707099974155426 0.707099974155426 -0.002899999963119626
f 58/7/44 53/1/44 64/1/44
f 58/7/44 64/1/44 63/7/44
v -3.1903839111328125 -0.04906399920582771 4.262032985687256
vn 0.0006000000284984708 0.0031999999191612005 1.0
vn 0.000699999975040555 0.0031999999191612005 1.0
vn 0.00019999999494757503 0.0032999999821186066 1.0
f 69/2/45 65/1/46 68/1/47
v -4.000202178955078 0.003720999928191304 4.262032985687256
f 69/2/45 68/1/47 70/2/47
vn -0.707099974155426 -0.707099974155426 0.002899999963119626
f 50/6/48 57/5/48 60/5/48
f 50/6/48 60/5/48 59/6/48
v -4.000202178955078 0.0031320000998675823 4.056191921234131
vn -1.0 0.0 -0.0
v -4.000017166137695 -0.10292799770832062 4.056538105010986
vn -1.0 -0.0017000000225380063 0.0
v -4.000017166137695 -0.1023389995098114 4.262379169464111
f 71/2/49 72/6/50 73/6/50
f 71/2/49 73/6/50 70/2/49
vn -1.0 0.0017999999690800905 -0.0
f 67/1/51 71/2/49 70/2/49
f 67/1/51 70/2/49 68/1/51
vn -0.000699999975040555 -0.0031999999191612005 -1.0
v -3.1904990673065186 -0.04964200034737587 4.056191921234131
vn -0.0006000000284984708 -0.0031999999191612005 -1.0
vn -0.00019999999494757503 -0.0032999999821186066 -1.0
f 66/1/52 74/2/53 71/2/54
f 66/1/52 71/2/54 67/1/54
v -3.1944010257720947 -0.15640300512313843 4.262379169464111
f 75/6/46 69/2/45 70/2/47
vn 0.00019999999494757503 0.0031999999191612005 1.0
f 75/6/46 70/2/47 73/6/55
v -3.1945159435272217 -0.15698100626468658 4.056538105010986
vn -0.06700000166893005 -0.9977999925613403 0.00279999990016222
f 76/6/56 75/6/56 73/6/56
f 76/6/56 73/6/56 72/6/56
vn -0.00019999999494757503 -0.0031999999191612005 -1.0
f 74/2/53 76/6/52 72/6/57
f 74/2/53 72/6/57 71/2/54
vn -0.0020000000949949026 -0.0026000000070780516 -1.0
vn -0.0019000000320374966 -0.0024999999441206455 -1.0
v -1.7767280340194702 -0.7997099757194519 4.056538105010986
vn -0.0017999999690800905 -0.0027000000700354576 -1.0
f 51/2/58 50/6/59 77/6/60
v -1.7599049806594849 -0.6833930015563965 4.056191921234131
vn -0.0017000000225380063 -0.00279999990016222 -1.0
f 51/2/58 77/6/60 78/2/61
v -2.495671033859253 -0.41550499200820923 4.056538105010986
vn -0.00139999995008111 -0.003000000026077032 -1.0
f 78/2/61 77/6/60 79/6/62
v -2.486327886581421 -0.30457600951194763 4.056191921234131
vn -0.0013000000035390258 -0.003000000026077032 -1.0
f 78/2/61 79/6/62 80/2/63
f 80/2/63 79/6/62 76/6/52
f 80/2/63 76/6/52 74/2/53
vn -0.616100013256073 -0.7876999974250793 0.002899999963119626
v -1.7763999700546265 -0.7992200255393982 4.262379169464111
f 50/6/64 59/6/64 81/6/64
f 50/6/64 81/6/64 77/6/64
vn -0.47130000591278076 -0.8820000290870667 0.002899999963119626
v -2.495445966720581 -0.41495999693870544 4.262379169464111
f 77/6/65 81/6/65 82/6/65
f 77/6/65 82/6/65 79/6/65
vn -0.34689998626708984 -0.9379000067710876 0.00279999990016222
f 79/6/66 82/6/66 75/6/66
f 79/6/66 75/6/66 76/6/66
v -1.7595770359039307 -0.682902991771698 4.262032985687256
vn 0.0017000000225380063 0.00279999990016222 1.0
f 59/6/40 62/2/42 83/2/67
vn 0.0017999999690800905 0.0027000000700354576 1.0
f 59/6/40 83/2/67 81/6/68
v -2.4861021041870117 -0.30403199791908264 4.262032985687256
vn 0.0013000000035390258 0.003000000026077032 1.0
f 81/6/68 83/2/67 84/2/69
vn 0.00139999995008111 0.003000000026077032 1.0
f 81/6/68 84/2/69 82/6/70
f 82/6/70 84/2/69 69/2/45
f 82/6/70 69/2/45 75/6/46
vn -0.002099999925121665 -0.0027000000700354576 -1.0
f 53/1/71 51/2/58 78/2/61
v -1.6591670513153076 -0.6237670183181763 4.055846214294434
vn -0.0019000000320374966 -0.00279999990016222 -1.0
f 53/1/71 78/2/61 85/1/72
f 85/1/72 78/2/61 80/2/63
v -2.41469407081604 -0.2200080007314682 4.055846214294434
f 85/1/72 80/2/63 86/1/62
f 86/1/62 80/2/63 74/2/53
f 86/1/62 74/2/53 66/1/52
v -1.6588389873504639 -0.6232770085334778 4.2616868019104
vn 0.0019000000320374966 0.00279999990016222 1.0
f 62/2/42 64/1/40 87/1/73
f 62/2/42 87/1/73 83/2/67
v -2.4144680500030518 -0.21946300566196442 4.2616868019104
f 83/2/67 87/1/73 88/1/70
f 83/2/67 88/1/70 84/2/69
f 84/2/69 88/1/70 65/1/46
f 84/2/69 65/1/46 69/2/45
vn 0.6172000169754028 0.7868000268936157 -0.00279999990016222
f 64/1/74 53/1/74 85/1/74
f 64/1/74 85/1/74 87/1/74
vn 0.47130000591278076 0.8820000290870667 -0.002899999963119626
f 87/1/75 85/1/75 86/1/75
f 87/1/75 86/1/75 88/1/75
vn 0.3440000116825104 0.9390000104904175 -0.00279999990016222
f 88/1/76 86/1/76 66/1/76
f 88/1/76 66/1/76 65/1/76
v 0.05122299864888191 -3.1532070636749268 4.2616868019104
vn -0.9976000189781189 -0.06849999725818634 0.00279999990016222
v 0.050645001232624054 -3.1533219814300537 4.05584716796875
v 0.10876400023698807 -4.000104904174805 4.05584716796875
f 89/1/77 90/1/77 91/1/77
v 0.10935299843549728 -4.000104904174805 4.2616868019104
f 89/1/77 91/1/77 92/1/77
v -0.048976000398397446 -3.1904730796813965 4.262032985687256
vn -0.0031999999191612005 -0.0006000000284984708 -1.0
vn -0.0031999999191612005 -0.000699999975040555 -1.0
vn -0.0032999999821186066 -0.00019999999494757503 -1.0
f 93/2/78 89/1/79 92/1/80
v 0.00380899989977479 -4.0002899169921875 4.262032985687256
f 93/2/78 92/1/80 94/2/80
vn 0.0031999999191612005 0.000699999975040555 1.0
v -0.0495540015399456 -3.190587043762207 4.056191921234131
vn 0.0031999999191612005 0.0006000000284984708 1.0
v 0.0032190000638365746 -4.0002899169921875 4.056191921234131
vn 0.0032999999821186066 0.00019999999494757503 1.0
f 90/1/81 95/2/82 96/2/83
f 90/1/81 96/2/83 91/1/83
v -0.15631499886512756 -3.194488048553467 4.262380123138428
f 97/6/79 93/2/78 94/2/80
v -0.10225100070238113 -4.000104904174805 4.262380123138428
vn -0.0031999999191612005 -0.00019999999494757503 -1.0
f 97/6/79 94/2/80 98/6/84
v -0.15689300000667572 -3.19460391998291 4.056539058685303
vn 0.9977999925613403 0.06700000166893005 -0.00279999990016222
f 99/6/85 97/6/85 98/6/85
v -0.10284099727869034 -4.000104904174805 4.056539058685303
f 99/6/85 98/6/85 100/6/85
vn 0.0031999999191612005 0.00019999999494757503 1.0
f 95/2/82 99/6/81 100/6/86
f 95/2/82 100/6/86 96/2/83
vn 0.0026000000070780516 0.0020000000949949026 1.0
vn 0.0024999999441206455 0.0019000000320374966 1.0
v -0.7996219992637634 -1.7768160104751587 4.056539058685303
vn 0.0027000000700354576 0.0017999999690800905 1.0
f 56/2/87 57/6/88 101/6/89
v -0.683305025100708 -1.7599929571151733 4.056191921234131
vn 0.00279999990016222 0.0017000000225380063 1.0
f 56/2/87 101/6/89 102/2/90
v -0.41541698575019836 -2.4957590103149414 4.056539058685303
vn 0.003000000026077032 0.00139999995008111 1.0
f 102/2/90 101/6/89 103/6/91
v -0.30448898673057556 -2.4864161014556885 4.056191921234131
vn 0.003000000026077032 0.0013000000035390258 1.0
f 102/2/90 103/6/91 104/2/92
f 104/2/92 103/6/91 99/6/81
f 104/2/92 99/6/81 95/2/82
vn 0.7876999974250793 0.616100013256073 -0.00279999990016222
v -0.7991319894790649 -1.776487946510315 4.262380123138428
f 57/6/93 60/6/93 105/6/93
f 57/6/93 105/6/93 101/6/93
vn 0.8820000290870667 0.47130000591278076 -0.002899999963119626
v -0.4148719906806946 -2.4955339431762695 4.262380123138428
f 101/6/94 105/6/94 106/6/94
f 101/6/94 106/6/94 103/6/94
vn 0.9379000067710876 0.34689998626708984 -0.00279999990016222
f 103/6/95 106/6/95 97/6/95
f 103/6/95 97/6/95 99/6/95
vn -0.0024999999441206455 -0.0019000000320374966 -1.0
vn -0.0026000000070780516 -0.0020000000949949026 -1.0
v -0.6828150153160095 -1.7596650123596191 4.262032985687256
vn -0.00279999990016222 -0.0017000000225380063 -1.0
f 60/6/96 61/2/97 107/2/98
vn -0.0027000000700354576 -0.0017999999690800905 -1.0
f 60/6/96 107/2/98 105/6/99
v -0.3039439916610718 -2.4861900806427 4.262032985687256
vn -0.003000000026077032 -0.0013000000035390258 -1.0
f 105/6/99 107/2/98 108/2/100
vn -0.003000000026077032 -0.00139999995008111 -1.0
f 105/6/99 108/2/100 106/6/101
f 106/6/101 108/2/100 93/2/78
f 106/6/101 93/2/78 97/6/79
vn 0.0027000000700354576 0.002099999925121665 1.0
f 58/1/102 56/2/87 102/2/90
v -0.6236799955368042 -1.659255027770996 4.05584716796875
vn 0.00279999990016222 0.0019000000320374966 1.0
f 58/1/102 102/2/90 109/1/103
f 109/1/103 102/2/90 104/2/92
v -0.21991999447345734 -2.4147820472717285 4.05584716796875
f 109/1/103 104/2/92 110/1/91
f 110/1/91 104/2/92 95/2/82
f 110/1/91 95/2/82 90/1/81
vn -0.0027000000700354576 -0.002099999925121665 -1.0
v -0.6231899857521057 -1.6589269638061523 4.2616868019104
vn -0.00279999990016222 -0.0019000000320374966 -1.0
f 61/2/97 63/1/104 111/1/105
f 61/2/97 111/1/105 107/2/98
v -0.21937599778175354 -2.4145560264587402 4.2616868019104
f 107/2/98 111/1/105 112/1/101
f 107/2/98 112/1/101 108/2/100
f 108/2/100 112/1/101 89/1/79
f 108/2/100 89/1/79 93/2/78
vn -0.7868000268936157 -0.6172000169754028 0.002899999963119626
f 63/1/106 58/1/106 109/1/106
f 63/1/106 109/1/106 111/1/106
vn -0.8820000290870667 -0.47130000591278076 0.00279999990016222
f 111/1/107 109/1/107 110/1/107
f 111/1/107 110/1/107 112/1/107
vn -0.9390000104904175 -0.3440000116825104 0.00279999990016222
f 112/1/108 110/1/108 90/1/108
f 112/1/108 90/1/108 89/1/108
o curve_Cube.001##0#2#1#-1.0
g curve_Cube.001##0#2#1#-1.0
v -0.8806489706039429 -1.4419399499893188 -0.17173799872398376
v -0.8806489706039429 -1.4419399499893188 0.5971900224685669
v -1.2690190076828003 -1.5371060371398926 0.5971900224685669
f 113/8/18 114/3/18 115/5/18
v -1.2690190076828003 -1.5371060371398926 -0.17173799872398376
f 113/8/18 115/5/18 116/9/18
v -1.5371060371398926 -1.2690190076828003 0.5971900224685669
f 116/9/21 115/5/21 117/6/21
v -1.5371060371398926 -1.2690190076828003 -0.17173799872398376
f 116/9/21 117/6/21 118/10/21
v -1.4419399499893188 -0.8806489706039429 -0.17173799872398376
v -1.4419399499893188 -0.8806489706039429 0.5971900224685669
v -1.0535709857940674 -0.7854840159416199 0.5971900224685669
f 119/11/14 120/2/14 121/1/14
v -1.0535709857940674 -0.7854840159416199 -0.17173799872398376
f 119/11/14 121/1/14 122/12/14
v -0.7854840159416199 -1.0535709857940674 0.5971900224685669
f 122/12/20 121/1/20 123/7/20
v -0.7854840159416199 -1.0535709857940674 -0.17173799872398376
f 122/12/20 123/7/20 124/13/20
f 113/14/7 119/11/7 122/12/7
f 113/14/7 122/12/7 124/15/7
vn 0.44679999351501465 -0.10949999839067459 0.8878999948501587
f 114/3/109 123/4/109 30/4/109
f 114/3/109 30/4/109 29/3/109
vn -0.44679999351501465 0.10949999839067459 0.8878999948501587
f 120/2/110 117/6/110 40/6/110
f 120/2/110 40/6/110 26/2/110
f 116/16/7 118/10/7 119/11/7
f 116/16/7 119/11/7 113/14/7
f 118/10/19 117/6/19 120/2/19
f 118/10/19 120/2/19 119/11/19
f 124/17/15 123/4/15 114/3/15
f 124/17/15 114/3/15 113/8/15
vn 0.10949999839067459 -0.44679999351501465 0.8878999948501587
f 115/5/111 114/3/111 29/3/111
f 115/5/111 29/3/111 38/5/111
vn 0.32339999079704285 0.32339999079704285 0.8892999887466431
f 123/7/112 121/1/112 25/1/112
f 123/7/112 25/1/112 30/7/112
vn -0.32339999079704285 -0.32330000400543213 0.8892999887466431
f 117/6/113 115/5/113 38/5/113
f 117/6/113 38/5/113 40/6/113
vn -0.10949999839067459 0.44679999351501465 0.8878999948501587
f 121/1/114 120/2/114 26/2/114
f 121/1/114 26/2/114 25/1/114
