# OBJ file
o __dotobj_group__##0#1#0#-1.0
g __dotobj_group__##0#1#0#-1.0
o mine_hammer.002.RAND_mine_hammer.002##0#0#0#1791114.0
g mine_hammer.002.RAND_mine_hammer.002##0#0#0#1791114.0
v -0.0026579999830573797 -0.055626001209020615 0.044130001217126846
vt 0.375 0.44152897596359253
vn -0.7070000171661377 -0.010999999940395355 0.707099974155426
v 0.011899000033736229 -0.055626001209020615 0.05015899986028671
vt 0.40625 0.44152897596359253
vn 0.0 -0.010999999940395355 0.9998999834060669
v 0.011899000033736229 0.1773969978094101 0.05271799862384796
vt 0.40625 0.6884399950504303
f 1/1/1 2/2/2 3/3/2
v -0.004468000028282404 0.1773969978094101 0.04593899846076965
vt 0.375 0.6884399950504303
vn -0.707099974155426 -0.010999999940395355 0.707099974155426
f 1/1/1 3/3/2 4/4/3
v 0.026455000042915344 -0.055626001209020615 0.044130001217126846
vt 0.4375 0.44152897596359253
vn 0.707099974155426 -0.010999999940395355 0.707099974155426
v 0.028264999389648438 0.1773969978094101 0.04593899846076965
vt 0.4375 0.6884399950504303
f 2/2/2 5/5/4 6/6/4
f 2/2/2 6/6/4 3/3/2
v 0.0324850007891655 -0.055626001209020615 0.029572999104857445
vt 0.46875 0.44152897596359253
vn 0.9998999834060669 -0.010999999940395355 -0.0
v 0.035043999552726746 0.1773969978094101 0.029572999104857445
vt 0.46875 0.6884399950504303
f 5/5/4 7/7/5 8/8/5
f 5/5/4 8/8/5 6/6/4
v 0.026455000042915344 -0.055626001209020615 0.015015999786555767
vt 0.5 0.44152897596359253
vn 0.707099974155426 -0.010999999940395355 -0.707099974155426
v 0.028264999389648438 0.1773969978094101 0.013206999748945236
vt 0.5 0.6884399950504303
f 7/7/5 9/9/6 10/10/6
f 7/7/5 10/10/6 8/8/5
v 0.011899000033736229 -0.055626001209020615 0.008985999971628189
vt 0.53125 0.44152897596359253
vn 0.0 -0.010999999940395355 -0.9998999834060669
v 0.011899000033736229 0.1773969978094101 0.006428000051528215
vt 0.53125 0.6884399950504303
f 9/9/6 11/11/7 12/12/7
f 9/9/6 12/12/7 10/10/6
v -0.0026579999830573797 -0.055626001209020615 0.015015999786555767
vt 0.5625 0.44152897596359253
vn -0.707099974155426 -0.010999999940395355 -0.707099974155426
v -0.004468000028282404 0.1773969978094101 0.013206999748945236
vt 0.5625 0.6884399950504303
f 11/11/7 13/13/8 14/14/8
f 11/11/7 14/14/8 12/12/7
v -0.008688000030815601 -0.055626001209020615 0.029572999104857445
vt 0.59375 0.44152897596359253
vn -0.9998999834060669 -0.010999999940395355 0.0
v -0.011246999725699425 0.1773969978094101 0.029572999104857445
vt 0.59375 0.6884399950504303
f 13/13/8 15/15/9 16/16/9
f 13/13/8 16/16/9 14/14/8
vt 0.625 0.44152897596359253
vt 0.625 0.6884399950504303
f 15/15/9 1/17/1 4/18/3
f 15/15/9 4/18/3 16/16/9
v 0.011899000033736229 -0.1773969978094101 0.04882200062274933
vt 0.5 0.0
vn -0.0 -1.0 0.0
v -0.0017130000051110983 -0.1773969978094101 0.04318400099873543
vt 0.6104850172996521 0.0457649827003479
v 0.011899000033736229 -0.1773969978094101 0.029572999104857445
vt 0.5 0.1499999761581421
f 17/19/10 18/20/10 19/21/10
v 0.025510000064969063 -0.1773969978094101 0.04318400099873543
vt 0.3895150125026703 0.0457649827003479
f 20/22/10 17/19/10 19/21/10
v 0.031147999688982964 -0.1773969978094101 0.029572999104857445
vt 0.34375 0.15625
f 21/23/10 20/22/10 19/21/10
v 0.025510000064969063 -0.1773969978094101 0.01596199907362461
vt 0.3895150125026703 0.2667350172996521
f 22/24/10 21/23/10 19/21/10
v 0.011899000033736229 -0.1773969978094101 0.010324000380933285
vt 0.5 0.3125
f 23/25/10 22/24/10 19/21/10
v -0.0017130000051110983 -0.1773969978094101 0.01596199907362461
vt 0.6104850172996521 0.2667350172996521
f 24/26/10 23/25/10 19/21/10
v -0.007350999861955643 -0.1773969978094101 0.029572999104857445
vt 0.65625 0.15625
f 25/27/10 24/26/10 19/21/10
f 18/20/10 25/27/10 19/21/10
vt 0.6104850172996521 0.9542349986732006
vn -0.0 1.0 -0.0
vt 0.5 1.0
v 0.011899000033736229 0.1773969978094101 0.029572999104857445
vt 0.5 0.8375000059604645
f 4/28/11 3/29/11 26/30/11
vt 0.3895150125026703 0.9542349986732006
f 3/29/11 6/31/11 26/30/11
vt 0.34375 0.84375
f 6/31/11 8/32/11 26/30/11
vt 0.3895150125026703 0.7332650125026703
f 8/32/11 10/33/11 26/30/11
vt 0.5 0.6875
f 10/33/11 12/34/11 26/30/11
vt 0.6104850172996521 0.7332650125026703
f 12/34/11 14/35/11 26/30/11
vt 0.65625 0.84375
f 14/35/11 16/36/11 26/30/11
f 16/36/11 4/28/11 26/30/11
vt 0.375 0.3125
vt 0.40625 0.3125
f 18/37/3 17/38/2 2/2/2
f 18/37/3 2/2/2 1/1/1
vt 0.4375 0.3125
f 17/38/2 20/39/4 5/5/4
f 17/38/2 5/5/4 2/2/2
vt 0.46875 0.3125
f 20/39/4 21/40/5 7/7/5
f 20/39/4 7/7/5 5/5/4
f 21/40/5 22/25/6 9/9/6
f 21/40/5 9/9/6 7/7/5
vt 0.53125 0.3125
f 22/25/6 23/41/7 11/11/7
f 22/25/6 11/11/7 9/9/6
vt 0.5625 0.3125
f 23/41/7 24/42/8 13/13/8
f 23/41/7 13/13/8 11/11/7
vt 0.59375 0.3125
f 24/42/8 25/43/9 15/15/9
f 24/42/8 15/15/9 13/13/8
vt 0.625 0.3125
f 25/43/9 18/44/3 1/17/1
f 25/43/9 1/17/1 15/15/9
o mine_hammer.002.RAND_mine_hammer.002##0#0#1#1776411.0
g mine_hammer.002.RAND_mine_hammer.002##0#0#1#1776411.0
v -0.006899999920278788 0.10639999806880951 0.04837099835276604
vn -0.70660001039505 -0.03909999877214432 0.70660001039505
v 0.011899000033736229 0.10639999806880951 0.056157998740673065
vn 0.0 -0.03909999877214432 0.9991999864578247
v 0.011899000033736229 0.1612509936094284 0.05830200016498566
f 27/37/12 28/38/13 29/3/13
v -0.008415999822318554 0.1612509936094284 0.049887001514434814
f 27/37/12 29/3/13 30/4/12
v 0.03069699928164482 0.10639999806880951 0.04837099835276604
vn 0.70660001039505 -0.03909999877214432 0.70660001039505
v 0.0322129987180233 0.1612509936094284 0.049887001514434814
f 28/38/13 31/39/14 32/6/14
f 28/38/13 32/6/14 29/3/13
v 0.03848300129175186 0.10639999806880951 0.029572999104857445
vn 0.9991999864578247 -0.03909999877214432 -0.0
v 0.040626998990774155 0.1612509936094284 0.029572999104857445
f 31/39/14 33/40/15 34/8/15
f 31/39/14 34/8/15 32/6/14
v 0.03069699928164482 0.10639999806880951 0.010774999856948853
vn 0.70660001039505 -0.03909999877214432 -0.70660001039505
v 0.0322129987180233 0.1612509936094284 0.009259000420570374
f 33/40/15 35/25/16 36/10/16
f 33/40/15 36/10/16 34/8/15
v 0.011899000033736229 0.10639999806880951 0.0029879999347031116
vn 0.0 -0.03909999877214432 -0.9991999864578247
v 0.011899000033736229 0.1612509936094284 0.0008440000237897038
f 35/25/16 37/41/17 38/12/17
f 35/25/16 38/12/17 36/10/16
v -0.006899999920278788 0.10639999806880951 0.010774999856948853
vn -0.70660001039505 -0.03909999877214432 -0.70660001039505
v -0.008415999822318554 0.1612509936094284 0.009259000420570374
f 37/41/17 39/42/18 40/14/18
f 37/41/17 40/14/18 38/12/17
v -0.014685999602079391 0.10639999806880951 0.029572999104857445
vn -0.9991999864578247 -0.03909999877214432 -0.0
v -0.016829999163746834 0.1612509936094284 0.029572999104857445
f 39/42/18 41/43/19 42/16/19
f 39/42/18 42/16/19 40/14/18
f 41/43/19 27/44/12 30/18/12
f 41/43/19 30/18/12 42/16/19
v 0.011899000033736229 0.10639999806880951 0.029572999104857445
f 28/19/10 27/20/10 43/21/10
f 31/22/10 28/19/10 43/21/10
f 33/23/10 31/22/10 43/21/10
f 35/24/10 33/23/10 43/21/10
f 37/25/10 35/24/10 43/21/10
f 39/26/10 37/25/10 43/21/10
f 41/27/10 39/26/10 43/21/10
f 27/20/10 41/27/10 43/21/10
v 0.011899000033736229 0.1612509936094284 0.029572999104857445
f 30/28/11 29/29/11 44/30/11
f 29/29/11 32/31/11 44/30/11
f 32/31/11 34/32/11 44/30/11
f 34/32/11 36/33/11 44/30/11
f 36/33/11 38/34/11 44/30/11
f 38/34/11 40/35/11 44/30/11
f 40/35/11 42/36/11 44/30/11
f 42/36/11 30/28/11 44/30/11
v -0.18493400514125824 0.1082720011472702 0.024685999378561974
vt 0.625 0.125
vn -1.0 0.0 0.0
v -0.18493400514125824 0.1082720011472702 0.03445899859070778
vt 0.875 0.125
v -0.18493400514125824 0.11419499665498734 0.03335599973797798
vt 0.875 0.25
f 45/45/20 46/46/20 47/47/20
v -0.18493400514125824 0.11419499665498734 0.025790000334382057
vt 0.625 0.25
f 45/45/20 47/47/20 48/48/20
v 0.18493400514125824 0.10049399733543396 0.03458699956536293
vt 0.125 0.125
vn 1.0 0.0 0.0
v 0.18493400514125824 0.10049399733543396 0.02455900050699711
vt 0.375 0.125
v 0.18493400514125824 0.10657099634408951 0.025691000744700432
vt 0.375 0.25
f 49/49/21 50/50/21 51/51/21
v 0.18493400514125824 0.10657099634408951 0.03345499932765961
vt 0.125 0.25
f 49/49/21 51/51/21 52/52/21
v -0.18493400514125824 0.10234899818897247 0.025790000334382057
vt 0.625 0.0
v -0.18493400514125824 0.10234899818897247 0.03335599973797798
vt 0.875 0.0
f 53/53/20 54/54/20 46/46/20
f 53/53/20 46/46/20 45/45/20
v 0.18493400514125824 0.09441599994897842 0.03345400094985962
vt 0.125 0.0
v 0.18493400514125824 0.09441599994897842 0.025691000744700432
vt 0.375 0.0
f 55/55/21 56/56/21 50/50/21
f 55/55/21 50/50/21 49/49/21
v -0.1274379938840866 0.11040200293064117 0.019166000187397003
vt 0.5757219791412354 1.0
vn 0.08370000123977661 -0.9965000152587891 0.0
v -0.057551998645067215 0.11440800130367279 0.01752999983727932
vt 0.5241439938545227 1.0
vn 0.04270000010728836 -0.9991000294685364 0.0
v -0.057551998645067215 0.11440800130367279 0.04161600023508072
vt 0.5241439938545227 0.75
f 57/57/22 58/58/23 59/59/23
v -0.1274379938840866 0.11040200293064117 0.039980001747608185
vt 0.5757219791412354 0.75
f 57/57/22 59/59/23 60/60/22
vt 0.550000011920929 0.00480198860168457
vn -0.002300000051036477 -0.1868000030517578 -0.9824000000953674
vt 0.5757219791412354 0.0
vn -0.038100000470876694 -0.1923000067472458 -0.9805999994277954
v -0.12752699851989746 0.12524700164794922 0.016134999692440033
vt 0.575776994228363 0.125
vn -0.0737999975681305 0.0026000000070780516 -0.9973000288009644
f 58/61/24 57/62/25 61/63/26
v -0.05754400044679642 0.1332630068063736 0.014018000103533268
vt 0.5241379737854004 0.125
vn -0.016200000420212746 0.004699999932199717 -0.9998999834060669
f 58/61/24 61/63/26 62/64/27
vn -0.038100000470876694 -0.1923999935388565 0.9805999994277954
vn -0.0026000000070780516 -0.18700000643730164 0.9824000000953674
v -0.05754400044679642 0.1332630068063736 0.045127999037504196
vt 0.5241379737854004 0.625
vn -0.016200000420212746 0.004699999932199717 0.9998999834060669
f 60/60/28 59/59/29 63/65/30
v -0.12752699851989746 0.12524700164794922 0.04301099851727486
vt 0.575776994228363 0.625
vn -0.0737999975681305 0.0026000000070780516 0.9973000288009644
f 60/60/28 63/65/30 64/66/31
v -0.05727899819612503 0.15213100612163544 0.04161600023508072
vt 0.5239750146865845 0.5
vn -0.027000000700354576 0.18629999458789825 0.9821000099182129
f 64/66/31 63/65/30 65/67/32
v -0.12684500217437744 0.14024800062179565 0.04000300168991089
vt 0.5753570199012756 0.5
vn -0.08980000019073486 0.19179999828338623 0.9772999882698059
f 64/66/31 65/67/32 66/68/33
vn -0.2531000077724457 0.9674000144004822 0.0
vn -0.09719999879598618 0.9952999949455261 0.0
v -0.05727899819612503 0.15213100612163544 0.01752999983727932
vt 0.5239750146865845 0.25
vn -0.09700000286102295 0.9952999949455261 -0.0
f 66/68/34 65/67/35 67/69/36
v -0.12684500217437744 0.14024800062179565 0.019142000004649162
vt 0.5753570199012756 0.25
f 66/68/34 67/69/36 68/70/34
vn -0.08980000019073486 0.19179999828338623 -0.9772999882698059
vn -0.026599999517202377 0.18629999458789825 -0.9821000099182129
f 68/70/37 67/69/38 62/64/27
f 68/70/37 62/64/27 61/63/26
v 0.12583699822425842 0.105772003531456 0.01978999935090542
vt 0.40087199211120605 0.0
vn 0.034299999475479126 -0.18320000171661377 -0.9825000166893005
v 0.059220001101493835 0.11225099861621857 0.01752999983727932
vt 0.45232099294662476 0.0
vn 0.0024999999441206455 -0.18310000002384186 -0.9830999970436096
v 0.059202998876571655 0.13110600411891937 0.014018000103533268
vt 0.4523319900035858 0.125
vn 0.025200000032782555 0.004999999888241291 -0.9997000098228455
f 69/71/39 70/72/40 71/73/41
v 0.1260800063610077 0.12102299928665161 0.016953999176621437
vt 0.40072301030158997 0.125
vn 0.07840000092983246 0.002400000113993883 -0.9969000220298767
f 69/71/39 71/73/41 72/74/42
vt 0.45232099294662476 1.0
vn -0.09019999951124191 -0.9958999752998352 0.0
vt 0.4264410138130188 0.9863849999383092
vn -0.1281999945640564 -0.9918000102043152 0.0
v 0.12583699822425842 0.105772003531456 0.039354998618364334
vt 0.40087199211120605 0.75
f 70/75/43 69/76/44 73/77/44
v 0.059220001101493835 0.11225099861621857 0.04161600023508072
vt 0.45232099294662476 0.75
f 70/75/43 73/77/44 74/78/43
vn 0.0024999999441206455 -0.18310000002384186 0.9830999970436096
vn 0.034299999475479126 -0.18320000171661377 0.9825000166893005
v 0.1260800063610077 0.12102299928665161 0.042190998792648315
vt 0.40072301030158997 0.625
vn 0.07840000092983246 0.002400000113993883 0.9969000220298767
f 74/78/45 73/77/46 75/79/47
v 0.059202998876571655 0.13110600411891937 0.045127999037504196
vt 0.4523319900035858 0.625
vn 0.025200000032782555 0.004999999888241291 0.9997000098228455
f 74/78/45 75/79/47 76/80/48
v 0.12465199828147888 0.13681499660015106 0.039420001208782196
vt 0.40160199999809265 0.5
vn 0.09860000014305115 0.18250000476837158 0.9782000184059143
f 76/80/48 75/79/47 77/81/49
v 0.05868399888277054 0.15000399947166443 0.04161600023508072
vt 0.4526509940624237 0.5
vn 0.042500000447034836 0.18240000307559967 0.9822999835014343
f 76/80/48 77/81/49 78/82/50
vn 0.14550000429153442 0.9894000291824341 -0.0
vn 0.2912999987602234 0.95660001039505 0.0
v 0.12465199828147888 0.13681499660015106 0.019726000726222992
vt 0.40160199999809265 0.25
f 78/82/51 77/81/52 79/83/52
v 0.05868399888277054 0.15000399947166443 0.01752999983727932
vt 0.4526509940624237 0.25
f 78/82/51 79/83/52 80/84/51
vn 0.04259999841451645 0.18240000307559967 -0.9822999835014343
vn 0.09860000014305115 0.18250000476837158 -0.9782000184059143
f 80/84/53 79/83/54 72/74/42
f 80/84/53 72/74/42 71/73/41
vn -0.13619999587535858 -0.03310000151395798 -0.9901000261306763
f 68/70/37 61/63/26 45/45/55
vn -0.19910000264644623 0.19519999623298645 -0.9603000283241272
f 68/70/37 45/45/55 48/48/56
vn -0.4092000126838684 0.9124000072479248 0.0
f 66/68/34 68/70/34 48/48/57
vt 0.625 0.5
f 66/68/34 48/48/57 47/85/57
vn -0.19910000264644623 0.19519999623298645 0.9603000283241272
f 64/66/31 66/68/33 47/85/58
vt 0.625 0.625
vn -0.13619999587535858 -0.032999999821186066 0.9901000261306763
f 64/66/31 47/85/58 46/86/59
vt 0.625 0.75
vn 0.1386999934911728 -0.9902999997138977 0.0
f 57/57/22 60/60/22 54/87/60
vt 0.625 1.0
f 57/57/22 54/87/60 53/88/60
vn -0.08659999817609787 -0.1949000060558319 -0.9769999980926514
f 61/63/26 57/62/25 53/53/61
f 61/63/26 53/53/61 45/45/55
f 60/60/28 64/66/31 46/86/59
vn -0.08659999817609787 -0.19480000436306 0.9769999980926514
f 60/60/28 46/86/59 54/87/62
v 0.010161000303924084 0.1163249984383583 0.01752999983727932
vt 0.4824959933757782 1.0
vn -0.01850000023841858 -0.9998000264167786 0.0
v 0.010161000303924084 0.1163249984383583 0.04161600023508072
vt 0.4824959933757782 0.75
f 81/89/63 82/90/63 59/59/23
f 81/89/63 59/59/23 58/58/23
vn -0.003800000064074993 -0.18310000002384186 0.9830999970436096
v 0.010161000303924084 0.13517899811267853 0.045127999037504196
vt 0.4824959933757782 0.625
vn 0.0003000000142492354 0.00559999980032444 1.0
f 82/90/64 83/91/65 63/65/30
f 82/90/64 63/65/30 59/59/29
v 0.010161000303924084 0.15403400361537933 0.04161600023508072
vt 0.4824959933757782 0.5
vn 0.0031999999191612005 0.18310000002384186 0.9830999970436096
f 83/91/65 84/92/66 65/67/32
f 83/91/65 65/67/32 63/65/30
vn 0.018300000578165054 0.9998000264167786 -0.0
v 0.010161000303924084 0.15403400361537933 0.01752999983727932
vt 0.4824959933757782 0.25
f 84/92/67 85/93/67 67/69/36
f 84/92/67 67/69/36 65/67/35
vn 0.0031999999191612005 0.18310000002384186 -0.9830999970436096
v 0.010161000303924084 0.13517899811267853 0.014018000103533268
vt 0.4824959933757782 0.125
vn 0.0003000000142492354 0.00559999980032444 -1.0
f 85/93/68 86/94/69 62/64/27
f 85/93/68 62/64/27 67/69/38
vt 0.4824959933757782 0.0
vn -0.003800000064074993 -0.18310000002384186 -0.9830999970436096
vt 0.5241439938545227 0.0
f 86/94/69 81/95/70 58/96/24
f 86/94/69 58/96/24 62/64/27
f 70/75/43 74/78/43 82/90/63
f 70/75/43 82/90/63 81/89/63
f 74/78/45 76/80/48 83/91/65
f 74/78/45 83/91/65 82/90/64
f 76/80/48 78/82/50 84/92/66
f 76/80/48 84/92/66 83/91/65
f 78/82/51 80/84/51 85/93/67
f 78/82/51 85/93/67 84/92/67
f 80/84/53 71/73/41 86/94/69
f 80/84/53 86/94/69 85/93/68
f 71/73/41 70/72/40 81/95/70
f 71/73/41 81/95/70 86/94/69
vt 0.375 0.75
vn -0.18870000541210175 -0.9819999933242798 0.0
vt 0.40087199211120605 1.0
f 55/97/71 73/77/44 69/98/44
vt 0.375 1.0
f 55/97/71 69/98/44 56/99/71
vt 0.375 0.625
vn 0.11550000309944153 -0.035999998450279236 0.9926999807357788
f 49/100/72 75/79/47 73/77/46
vn 0.06279999762773514 -0.18330000340938568 0.9811000227928162
f 49/100/72 73/77/46 55/97/73
vt 0.375 0.5
vn 0.18850000202655792 0.18449999392032623 0.9646000266075134
f 52/101/74 77/81/49 75/79/47
f 52/101/74 75/79/47 49/100/72
vn 0.44839999079704285 0.8938000202178955 0.0
f 51/51/75 79/83/52 77/81/52
f 51/51/75 77/81/52 52/101/75
vn 0.11550000309944153 -0.035999998450279236 -0.9926999807357788
f 50/50/76 72/74/42 79/83/54
vn 0.18850000202655792 0.18449999392032623 -0.9646000266075134
f 50/50/76 79/83/54 51/51/77
vn 0.06279999762773514 -0.18320000171661377 -0.9811000227928162
f 56/56/78 69/71/39 72/74/42
f 56/56/78 72/74/42 50/50/76
