# OBJ file
o __dotobj_group__##0#1#0#-1.0
g __dotobj_group__##0#1#0#-1.0
o mine_track_straight.001##0#0#0#1791114.0
g mine_track_straight.001##0#0#0#1791114.0
v 0.3503139913082123 0.21832600235939026 -0.023090999573469162
vt 0.375 0.0
vn -0.10809999704360962 0.9926999807357788 -0.05389999970793724
v 0.257286012172699 0.2079949975013733 -0.02674500085413456
vt 0.625 0.0
v 0.2560949921607971 0.20930999517440796 -0.00013800000306218863
vt 0.625 0.25
f 1/1/1 2/2/1 3/3/1
v 0.3491230010986328 0.21964100003242493 0.003515999997034669
vt 0.375 0.25
f 1/1/1 3/3/1 4/4/1
vn -0.04470000043511391 0.049300000071525574 0.9977999925613403
v 0.30267399549484253 -0.21832600235939026 0.023090999573469162
vt 0.625 0.5
f 4/4/2 3/3/2 5/5/2
v 0.39570099115371704 -0.2079949975013733 0.02674500085413456
vt 0.375 0.5
f 4/4/2 5/5/2 6/6/2
vn 0.10809999704360962 -0.9926999807357788 0.05389999970793724
v 0.303864985704422 -0.21964100003242493 -0.003515999997034669
vt 0.625 0.75
f 6/6/3 5/5/3 7/7/3
v 0.3968920111656189 -0.20930999517440796 0.00013800000306218863
vt 0.375 0.75
f 6/6/3 7/7/3 8/8/3
vn 0.04470000043511391 -0.049300000071525574 -0.9977999925613403
vt 0.625 1.0
f 8/8/4 7/7/4 2/9/4
vt 0.375 1.0
f 8/8/4 2/9/4 1/10/4
vn -0.9930999875068665 -0.11029999703168869 -0.039000000804662704
vt 0.875 0.0
vt 0.875 0.25
f 2/2/5 7/11/5 5/12/5
f 2/2/5 5/12/5 3/3/5
vt 0.125 0.0
vn 0.9930999875068665 0.11029999703168869 0.039000000804662704
f 8/13/6 1/1/6 4/4/6
vt 0.125 0.25
f 8/13/6 4/4/6 6/14/6
v 0.09399700164794922 0.2153960019350052 -0.013333000242710114
vn -0.0 1.0 0.0
v 0.0003260000084992498 0.2153960019350052 -0.013333000242710114
v 0.0003260000084992498 0.2153960019350052 0.013333000242710114
f 9/1/7 10/2/7 11/3/7
v 0.09399700164794922 0.2153960019350052 0.013333000242710114
f 9/1/7 11/3/7 12/4/7
vn -0.0 0.0 1.0
v 0.0003260000084992498 -0.2153960019350052 0.013333000242710114
f 12/4/8 11/3/8 13/5/8
v 0.09399700164794922 -0.2153960019350052 0.013333000242710114
f 12/4/8 13/5/8 14/6/8
vn -0.0 -1.0 0.0
v 0.0003260000084992498 -0.2153960019350052 -0.013333000242710114
f 14/6/9 13/5/9 15/7/9
v 0.09399700164794922 -0.2153960019350052 -0.013333000242710114
f 14/6/9 15/7/9 16/8/9
vn -0.0 -0.0 -1.0
f 16/8/10 15/7/10 10/9/10
f 16/8/10 10/9/10 9/10/10
vn -1.0 0.0 0.0
f 10/2/11 15/11/11 13/12/11
f 10/2/11 13/12/11 11/3/11
vn 1.0 0.0 0.0
f 16/13/12 9/1/12 12/4/12
f 16/13/12 12/4/12 14/14/12
v -0.1321049928665161 0.2093839943408966 -0.0040710000321269035
vn 0.11270000040531158 0.9926000237464905 0.04450000077486038
v -0.22092899680137634 0.21943600475788116 -0.0034129999112337828
v -0.22086800634860992 0.21823599934577942 0.023226000368595123
f 17/1/13 18/2/13 19/3/13
v -0.1320430040359497 0.20818400382995605 0.022568000480532646
f 17/1/13 19/3/13 20/4/13
vn 0.002300000051036477 -0.04500000178813934 0.9990000128746033
v -0.26940199732780457 -0.2093839943408966 0.0040710000321269035
f 20/4/14 19/3/14 21/5/14
v -0.18057799339294434 -0.21943600475788116 0.0034129999112337828
f 20/4/14 21/5/14 22/6/14
vn -0.11270000040531158 -0.9926000237464905 -0.04450000077486038
v -0.2694630026817322 -0.20818400382995605 -0.022568000480532646
f 22/6/15 21/5/15 23/7/15
v -0.18063899874687195 -0.21823599934577942 -0.023226000368595123
f 22/6/15 23/7/15 24/8/15
vn -0.002300000051036477 0.04500000178813934 -0.9990000128746033
f 24/8/16 23/7/16 18/9/16
f 24/8/16 18/9/16 17/10/16
vn -0.9936000108718872 0.11240000277757645 0.007300000172108412
f 18/2/17 23/11/17 21/12/17
f 18/2/17 21/12/17 19/3/17
vn 0.9936000108718872 -0.11240000277757645 -0.007400000002235174
f 24/13/18 17/1/18 20/4/18
f 24/13/18 20/4/18 22/14/18
v -0.3293290138244629 0.2177319973707199 -0.013333000242710114
vn -0.0729999989271164 0.9973000288009644 0.0
v -0.40885499119758606 0.2119089961051941 -0.013333000242710114
v -0.40885499119758606 0.2119089961051941 0.013333000242710114
f 25/1/19 26/2/19 27/3/19
v -0.3293290138244629 0.2177319973707199 0.013333000242710114
f 25/1/19 27/3/19 28/4/19
v -0.37739700078964233 -0.2177319973707199 0.013333000242710114
f 28/4/8 27/3/8 29/5/8
v -0.297870010137558 -0.2119089961051941 0.013333000242710114
f 28/4/8 29/5/8 30/6/8
vn 0.0729999989271164 -0.9973000288009644 -0.0
v -0.37739700078964233 -0.2177319973707199 -0.013333000242710114
f 30/6/20 29/5/20 31/7/20
v -0.2978709936141968 -0.2119089961051941 -0.013333000242710114
f 30/6/20 31/7/20 32/8/20
f 32/8/10 31/7/10 26/9/10
f 32/8/10 26/9/10 25/10/10
vn -0.9973000288009644 -0.0729999989271164 0.0
f 26/2/21 31/11/21 29/12/21
f 26/2/21 29/12/21 27/3/21
vn 0.9973000288009644 0.0729999989271164 -0.0
f 32/13/22 25/1/22 28/4/22
f 32/13/22 28/4/22 30/14/22
o mine_track_straight.001##0#0#1#1776411.0
g mine_track_straight.001##0#0#1#1776411.0
v -0.5738490223884583 -0.1969580054283142 -0.030519999563694
v -0.5738490223884583 -0.1969580054283142 -0.011309999972581863
v -0.5738490223884583 -0.15492600202560425 -0.011309999972581863
f 33/2/11 34/3/11 35/12/11
v -0.5738499760627747 -0.15492600202560425 -0.030519999563694
f 33/2/11 35/12/11 36/11/11
v 0.5246899724006653 -0.15492600202560425 -0.010232999920845032
v 0.5246899724006653 -0.15492600202560425 0.008976999670267105
v 0.5246899724006653 -0.1969580054283142 0.008976999670267105
f 37/13/12 38/14/12 39/4/12
v 0.5246899724006653 -0.1969580054283142 -0.010232999920845032
f 37/13/12 39/4/12 40/1/12
v -0.4691140055656433 0.1923390030860901 0.02635600045323372
v -0.4691140055656433 0.15030699968338013 0.02635600045323372
v -0.4691140055656433 0.15030699968338013 0.045566000044345856
f 41/2/11 42/11/11 43/12/11
v -0.4691140055656433 0.1923390030860901 0.045566000044345856
f 41/2/11 43/12/11 44/3/11
v 0.4634769856929779 0.15030699968338013 0.010518000461161137
v 0.4634769856929779 0.1923390030860901 0.010518000461161137
v 0.4634769856929779 0.1923390030860901 0.02972700074315071
f 45/13/12 46/1/12 47/4/12
v 0.4634769856929779 0.15030699968338013 0.02972700074315071
f 45/13/12 47/4/12 48/14/12
v -0.27288299798965454 -0.1969580054283142 0.02635600045323372
vt 0.5723959803581238 0.0
vn 0.010499999858438969 -0.9998999834060669 0.0
v -0.27288299798965454 -0.1969580054283142 0.045566000044345856
vt 0.5723959803581238 0.25
vn 0.01140000019222498 -0.9998999834060669 0.0
f 49/15/23 50/16/24 34/3/9
f 49/15/23 34/3/9 33/2/9
vn -0.062300000339746475 -0.0 0.9980999827384949
v -0.27288299798965454 -0.15492600202560425 0.045566000044345856
vt 0.5723959803581238 0.5
vn -0.061000000685453415 -0.0 0.9980999827384949
vn -0.18569999933242798 0.0 0.9825999736785889
f 50/16/25 51/17/26 35/5/27
f 50/16/25 35/5/27 34/3/27
vn -0.01140000019222498 0.9998999834060669 -0.0
v -0.27288299798965454 -0.15492600202560425 0.02635600045323372
vt 0.5723959803581238 0.75
vn -0.010499999858438969 0.9998999834060669 -0.0
f 51/17/28 52/18/29 36/7/7
f 51/17/28 36/7/7 35/5/7
vn 0.061000000685453415 -0.0 -0.9980999827384949
vt 0.5723959803581238 1.0
vn 0.062300000339746475 0.0 -0.9980999827384949
vn 0.18569999933242798 0.0 -0.9825999736785889
f 52/18/30 49/19/31 33/9/32
f 52/18/30 33/9/32 36/7/32
v 0.16745500266551971 -0.1887730062007904 0.015266000293195248
vt 0.45435500144958496 0.0
vn -0.00019999999494757503 -1.0 -9.999999747378752e-05
v 0.16745500266551971 -0.1887730062007904 0.03447600081562996
vt 0.45435500144958496 0.25
vn 0.00019999999494757503 -1.0 -0.0
f 53/20/33 54/21/34 50/16/24
f 53/20/33 50/16/24 49/15/23
vn 0.01889999955892563 0.0 0.9998000264167786
v 0.16745500266551971 -0.14674100279808044 0.03447600081562996
vt 0.45435500144958496 0.5
vn 0.01899999938905239 0.0 0.9998000264167786
f 54/21/35 55/22/36 51/17/26
f 54/21/35 51/17/26 50/16/25
vn -0.00019999999494757503 1.0 0.0
v 0.16745500266551971 -0.14674100279808044 0.015266000293195248
vt 0.45435500144958496 0.75
vn 0.00019999999494757503 1.0 0.0
f 55/22/37 56/23/38 52/18/29
f 55/22/37 52/18/29 51/17/28
vn -0.01889999955892563 -0.0 -0.9998000264167786
vt 0.45435500144958496 1.0
vn -0.019099999219179153 -0.0 -0.9998000264167786
f 56/23/39 53/24/40 49/19/31
f 56/23/39 49/19/31 52/18/30
v 0.3739430010318756 -0.1969580054283142 0.014119000174105167
vt 0.408486008644104 0.0
vn -0.021900000050663948 -0.9998000264167786 -0.0
v 0.3739430010318756 -0.1969580054283142 0.03332899883389473
vt 0.408486008644104 0.25
vn -0.024000000208616257 -0.9997000098228455 0.0
f 57/25/41 58/26/42 54/21/34
f 57/25/41 54/21/34 53/20/33
vn 0.07209999859333038 0.0 0.9973999857902527
v 0.3739430010318756 -0.15492600202560425 0.03332899883389473
vt 0.408486008644104 0.5
vn 0.07020000368356705 0.0 0.9975000023841858
f 58/26/43 59/27/44 55/22/36
f 58/26/43 55/22/36 54/21/35
vn 0.023900000378489494 0.9997000098228455 -0.0
v 0.3739430010318756 -0.15492600202560425 0.014119000174105167
vt 0.408486008644104 0.75
vn 0.021900000050663948 0.9998000264167786 0.0
f 59/27/45 60/28/46 56/23/38
f 59/27/45 56/23/38 55/22/37
vn -0.07020000368356705 -0.0 -0.9975000023841858
vt 0.408486008644104 1.0
vn -0.07209999859333038 -0.0 -0.9973999857902527
f 60/28/47 57/29/48 53/24/40
f 60/28/47 53/24/40 56/23/39
f 40/1/9 39/4/9 58/26/42
f 40/1/9 58/26/42 57/25/41
vn 0.15950000286102295 0.0 0.9872000217437744
f 39/4/49 38/6/49 59/27/44
f 39/4/49 59/27/44 58/26/43
f 38/6/7 37/8/7 60/28/46
f 38/6/7 60/28/46 59/27/45
vn -0.15950000286102295 -0.0 -0.9872000217437744
f 37/8/50 40/10/50 57/29/48
f 37/8/50 57/29/48 60/28/47
v 0.27085500955581665 0.1923390030860901 0.045566000044345856
vt 0.4266360104084015 0.25
v 0.27085500955581665 0.1923390030860901 0.02635600045323372
vt 0.4266360104084015 0.0
v 0.031567998230457306 0.1923390030860901 0.04217800125479698
vt 0.4907819926738739 0.0
vn 0.03060000017285347 0.9994999766349792 -0.0
f 61/30/7 62/31/7 63/32/51
v 0.031567998230457306 0.1923390030860901 0.06138800084590912
vt 0.4907819926738739 0.25
vn 0.030899999663233757 0.9994999766349792 -0.0
f 61/30/7 63/32/51 64/33/52
v 0.27085500955581665 0.15030699968338013 0.04556500166654587
vt 0.4266360104084015 0.5
vn 0.0731000006198883 0.0 0.9973000288009644
vn 0.07360000163316727 -0.0 0.9973000288009644
vn -0.0010999999940395355 0.0 1.0
f 65/34/53 61/30/54 64/33/55
v 0.031567998230457306 0.15030699968338013 0.06138800084590912
vt 0.4907819926738739 0.5
vn 0.0010999999940395355 -0.0 1.0
f 65/34/53 64/33/55 66/35/56
v 0.27085500955581665 0.15030699968338013 0.02635600045323372
vt 0.4266360104084015 0.75
vn -0.03099999949336052 -0.9994999766349792 0.0
f 67/36/9 65/34/9 66/35/57
v 0.031567998230457306 0.15030699968338013 0.04217800125479698
vt 0.4907819926738739 0.75
vn -0.030700000002980232 -0.9994999766349792 0.0
f 67/36/9 66/35/57 68/37/58
vt 0.4266360104084015 1.0
vn -0.07349999994039536 -0.0 -0.9973000288009644
vn -0.0010999999940395355 -0.0 -1.0
f 62/38/59 67/36/59 68/37/60
vt 0.4907819926738739 1.0
vn 0.0010999999940395355 -0.0 -1.0
f 62/38/59 68/37/60 63/39/61
vn -0.08190000057220459 -0.0 -0.9965999722480774
f 45/8/62 67/36/59 62/38/59
f 45/8/62 62/38/59 46/10/62
f 48/6/9 65/34/9 67/36/9
f 48/6/9 67/36/9 45/8/9
vn 0.08190000057220459 -0.0 0.9965999722480774
f 47/4/63 61/30/54 65/34/53
f 47/4/63 65/34/53 48/6/63
f 46/1/7 62/31/7 61/30/7
f 46/1/7 61/30/7 47/4/7
v -0.2574169933795929 0.2086469978094101 0.02635600045323372
vt 0.5682500004768372 0.0
vn -0.0010999999940395355 1.0 -0.0
f 64/33/52 63/32/51 69/40/64
v -0.2574169933795929 0.2086469978094101 0.045566000044345856
vt 0.5682500004768372 0.25
vn 0.0010999999940395355 1.0 -0.0
f 64/33/52 69/40/64 70/41/65
vn -0.031700000166893005 0.0 0.9994999766349792
f 66/35/56 64/33/55 70/41/66
v -0.2574169933795929 0.16661499440670013 0.04556500166654587
vt 0.5682500004768372 0.5
vn -0.03139999881386757 0.0 0.9994999766349792
f 66/35/56 70/41/66 71/42/67
vn -0.0010999999940395355 -1.0 0.0
f 68/37/58 66/35/57 71/42/68
v -0.2574169933795929 0.16661499440670013 0.02635600045323372
vt 0.5682500004768372 0.75
vn 0.0010999999940395355 -1.0 0.0
f 68/37/58 71/42/68 72/43/69
vn 0.03139999881386757 -0.0 -0.9994999766349792
f 63/39/61 68/37/60 72/43/70
vt 0.5682500004768372 1.0
vn 0.031700000166893005 -0.0 -0.9994999766349792
f 63/39/61 72/43/70 69/44/71
vn -0.07680000364780426 0.996999979019165 0.0
f 70/41/65 69/40/64 41/2/72
f 70/41/65 41/2/72 44/3/72
f 71/42/67 70/41/66 44/3/8
f 71/42/67 44/3/8 43/5/8
vn 0.07680000364780426 -0.996999979019165 0.0
f 72/43/69 71/42/68 43/5/73
f 72/43/69 43/5/73 42/7/73
f 69/44/71 72/43/70 42/7/10
f 69/44/71 42/7/10 41/9/10
o COLLIDER_Cube.004##0#0#0#-1.0
g COLLIDER_Cube.004##0#0#0#-1.0
v 0.542244017124176 0.22837600111961365 -0.03661400079727173
v 0.542244017124176 0.22837600111961365 0.03661400079727173
v 0.542244017124176 -0.22837600111961365 0.03661400079727173
f 73/1/12 74/2/12 75/3/12
v 0.542244017124176 -0.22837600111961365 -0.03661400079727173
f 73/1/12 75/3/12 76/4/12
v -0.542244017124176 -0.22837600111961365 0.03661400079727173
f 76/4/9 75/3/9 77/5/9
v -0.542244017124176 -0.22837600111961365 -0.03661400079727173
f 76/4/9 77/5/9 78/6/9
v -0.542244017124176 0.22837600111961365 0.03661400079727173
f 78/6/11 77/5/11 79/7/11
v -0.542244017124176 0.22837600111961365 -0.03661400079727173
f 78/6/11 79/7/11 80/8/11
f 80/8/7 79/7/7 74/9/7
f 80/8/7 74/9/7 73/10/7
vt 0.125 0.5
f 76/45/10 78/6/10 80/8/10
vt 0.125 0.75
f 76/45/10 80/8/10 73/46/10
vt 0.875 0.5
vt 0.875 0.75
f 77/5/8 75/47/8 74/48/8
f 77/5/8 74/48/8 79/7/8
