# OBJ file
o __dotobj_group__##0#1#0#-1.0
g __dotobj_group__##0#1#0#-1.0
o transformer##0#1#0#-1.0
g transformer##0#1#0#-1.0
v -0.2640109956264496 -0.19495999813079834 0.3565869927406311
vt 0.625 0.2894219756126404
vn 0.0 -0.0 1.0
v 0.2640109956264496 -0.19495999813079834 0.3565869927406311
vt 0.625 0.9605779983103275
v 0.2640109956264496 0.19495999813079834 0.3565869927406311
vt 0.625 0.736858993768692
f 1/1/1 2/2/1 3/3/1
v -0.2640109956264496 0.19495999813079834 0.3565869927406311
vt 0.625 0.513141006231308
f 1/1/1 3/3/1 4/4/1
v -0.2865709960460663 0.18528500199317932 0.09012900292873383
vt 0.41495901346206665 0.5
vn 0.0 0.9993000030517578 -0.03629999980330467
v -0.2940419912338257 0.19383500516414642 0.3255879878997803
vt 0.6005640029907227 0.5
f 5/5/2 6/6/2 4/4/2
f 5/5/2 4/4/2 3/3/2
v 0.2940419912338257 0.19383500516414642 0.3255879878997803
vt 0.6005640029907227 0.75
f 5/5/2 3/3/2 7/7/2
v 0.2865709960460663 0.18528500199317932 0.09012900292873383
vt 0.41495901346206665 0.75
f 5/5/2 7/7/2 8/8/2
v 0.006779999937862158 0.2120569944381714 0.3494180142879486
vt 0.625 0.6248359978199005
vn 9.999999747378752e-05 -0.05689999833703041 -0.9983999729156494
v 0.2489430010318756 0.2039249986410141 0.3499020040035248
vt 0.625 0.7357920110225677
v 0.2487819939851761 0.17716999351978302 0.35142800211906433
vt 0.625 0.7357830107212067
f 9/9/3 10/10/3 11/11/3
v 0.006779999937862158 0.18432800471782684 0.35099899768829346
f 9/9/3 11/11/3 12/9/3
v 0.2865709960460663 -0.18528500199317932 0.09012900292873383
vt 0.41495901346206665 0.0
vn 0.0 -0.9993000030517578 -0.03629999980330467
v 0.2940419912338257 -0.19383500516414642 0.3255879878997803
vt 0.6005640029907227 0.0
vt 0.625 0.013140976428985596
f 13/12/4 14/13/4 2/14/4
vt 0.625 0.2368590235710144
f 13/12/4 2/14/4 1/15/4
v -0.2940419912338257 -0.19383500516414642 0.3255879878997803
vt 0.6005640029907227 0.25
f 13/12/4 1/15/4 15/16/4
v -0.2865709960460663 -0.18528500199317932 0.09012900292873383
vt 0.41495901346206665 0.25
f 13/12/4 15/16/4 16/17/4
vn -0.9994999766349792 -0.0 -0.031700000166893005
f 16/17/5 15/16/5 6/6/5
f 16/17/5 6/6/5 5/5/5
v -0.27167800068855286 0.194349005818367 0.09704700112342834
vn 0.017000000923871994 -0.9984999895095825 0.052299998700618744
v -0.007521000225096941 0.194349005818367 0.09704700112342834
vt 0.41495901346206665 0.6248359978199005
v -0.007548999972641468 0.2120569944381714 0.3494180142879486
f 17/5/6 18/18/6 19/9/6
v -0.2489430010318756 0.20392799377441406 0.3499020040035248
vt 0.625 0.5142109990119934
f 17/5/6 19/9/6 20/19/6
v -0.2789379954338074 0.20183800160884857 0.3189750015735626
vt 0.5992649793624878 0.5
f 17/5/6 20/19/6 21/20/6
v 0.006806999910622835 0.194349005818367 0.09704700112342834
vn -0.017000000923871994 -0.9984999895095825 0.052299998700618744
v 0.27167800068855286 0.194349005818367 0.09704700112342834
v 0.2789379954338074 0.20183800160884857 0.3189750015735626
vt 0.5992649793624878 0.75
f 22/18/7 23/8/7 24/21/7
f 22/18/7 24/21/7 10/10/7
f 22/18/7 10/10/7 9/9/7
vn -9.999999747378752e-05 -0.05689999833703041 -0.9983999729156494
v -0.007548999972641468 0.18432800471782684 0.35099899768829346
f 20/19/8 19/9/8 25/9/8
v -0.2487819939851761 0.17717300355434418 0.35142800211906433
vt 0.625 0.5142189860343933
f 20/19/8 25/9/8 26/22/8
v -0.03579699993133545 0.22030599415302277 0.2890999913215637
vt 0.41495901346206665 0.6346080005168915
vn -0.003000000026077032 0.9779999852180481 -0.20880000293254852
v -0.03550399839878082 0.2300959974527359 0.3349260091781616
vt 0.625 0.6346080005168915
v 0.08795099705457687 0.22986799478530884 0.3320780098438263
vt 0.625 0.75
f 27/23/9 28/24/9 29/25/9
v 0.08415000140666962 0.22007699310779572 0.2862519919872284
f 27/23/9 29/25/9 30/8/9
vn 0.022600000724196434 0.06769999861717224 0.9975000023841858
v -0.040867000818252563 0.20411300659179688 0.33674898743629456
f 29/25/10 28/24/10 31/9/10
v 0.08795099705457687 0.2038850039243698 0.33390098810195923
f 29/25/10 31/9/10 32/25/10
vn -0.7182000279426575 -0.0 0.6958000063896179
f 1/1/11 4/4/11 6/6/11
f 1/1/11 6/6/11 15/16/11
vn 0.7182000279426575 -0.0 0.6958000063896179
vt 0.6005640029907227 1.0
f 3/3/12 2/2/12 14/26/12
f 3/3/12 14/26/12 7/7/12
vn -0.718500018119812 -0.03550000116229057 -0.6947000026702881
f 11/11/13 10/10/13 24/21/13
v 0.2787970006465912 0.17507299780845642 0.3205009996891022
vt 0.5992640256881714 0.75
f 11/11/13 24/21/13 33/27/13
vn 0.9994999766349792 -0.0 -0.031700000166893005
f 8/8/14 7/7/14 14/26/14
vt 0.41495901346206665 1.0
f 8/8/14 14/26/14 13/28/14
o transformer##0#0#1#2105376.0
g transformer##0#0#1#2105376.0
vn -0.9994999766349792 0.004399999976158142 0.03220000118017197
v 0.27167800068855286 0.16662000119686127 0.09862799942493439
f 24/21/15 23/8/15 34/8/15
f 24/21/15 34/8/15 33/27/15
vn 0.9994999766349792 0.004399999976158142 0.03220000118017197
v -0.2787970006465912 0.17507299780845642 0.3205009996891022
vt 0.5992640256881714 0.5
f 17/5/16 21/20/16 35/29/16
v -0.27167800068855286 0.16662000119686127 0.09862799942493439
f 17/5/16 35/29/16 36/5/16
v -0.007521000225096941 0.16662000119686127 0.09862799942493439
vn -1.0 -0.0 -9.999999747378752e-05
f 37/18/17 25/9/17 19/9/17
f 37/18/17 19/9/17 18/18/17
vn 1.0 -0.0 9.999999747378752e-05
v 0.006806999910622835 0.16662000119686127 0.09862799942493439
f 12/9/18 38/18/18 22/18/18
f 12/9/18 22/18/18 9/9/18
vn -0.9746999740600586 0.22169999778270721 -0.0284000001847744
v -0.04086200147867203 0.20089800655841827 0.29092299938201904
f 28/24/19 27/23/19 39/18/19
f 28/24/19 39/18/19 31/9/19
vn 0.9965999722480774 -0.006599999964237213 -0.08169999718666077
f 30/8/20 29/25/20 32/25/20
v 0.08415000140666962 0.20066900551319122 0.2880760133266449
f 30/8/20 32/25/20 40/8/20
vn 0.718500018119812 -0.03550000116229057 -0.6947000026702881
f 35/29/21 21/20/21 20/19/21
f 35/29/21 20/19/21 26/22/21
o transformer##0#2#2#-1.0
g transformer##0#2#2#-1.0
vn 0.0 0.22499999403953552 0.974399983882904
v 0.30001598596572876 0.20107600092887878 0.08648300170898438
f 5/5/22 8/8/22 41/8/22
v -0.30001598596572876 0.20107600092887878 0.08648300170898438
f 5/5/22 41/8/22 42/5/22
vn 0.0 -0.22499999403953552 0.974399983882904
v -0.30001598596572876 -0.20107600092887878 0.08648300170898438
f 13/12/23 16/17/23 43/17/23
v 0.30001598596572876 -0.20107600092887878 0.08648300170898438
f 13/12/23 43/17/23 44/12/23
v 0.2984130084514618 0.19530299305915833 -0.00164899998344481
vt 0.375 0.75
vn 0.9998000264167786 -0.0 -0.018200000748038292
f 45/30/24 41/8/24 44/28/24
v 0.2984130084514618 -0.19530299305915833 -0.00164899998344481
vt 0.375 1.0
f 45/30/24 44/28/24 46/31/24
v -0.2984130084514618 0.19530299305915833 -0.00164899998344481
vt 0.375 0.5
vn 0.0 0.9979000091552734 -0.06539999693632126
f 47/32/25 42/5/25 41/8/25
f 47/32/25 41/8/25 45/30/25
v -0.2984130084514618 -0.19530299305915833 -0.00164899998344481
vt 0.375 0.25
vn -0.9998000264167786 -0.0 -0.018200000748038292
f 48/33/26 43/17/26 42/5/26
f 48/33/26 42/5/26 47/32/26
vt 0.375 0.0
vn 0.0 -0.9979000091552734 -0.06539999693632126
f 46/34/27 44/12/27 43/17/27
f 46/34/27 43/17/27 48/33/27
vn -0.26179999113082886 -0.0 0.9650999903678894
f 16/17/28 5/5/28 42/5/28
f 16/17/28 42/5/28 43/17/28
vn 0.26179999113082886 -0.0 0.9650999903678894
f 8/8/29 13/28/29 44/28/29
f 8/8/29 44/28/29 41/8/29
vn 1.0 -0.0 -0.0
v 0.2984130084514618 -0.19530099630355835 -0.2403080016374588
f 45/30/30 46/31/30 49/31/30
v 0.2984130084514618 0.1953040063381195 -0.2403080016374588
f 45/30/30 49/31/30 50/30/30
vn 0.0 1.0 -0.0
f 47/32/31 45/30/31 50/30/31
v -0.2984130084514618 0.1953040063381195 -0.2403080016374588
f 47/32/31 50/30/31 51/32/31
vn -1.0 -0.0 -0.0
f 48/33/32 47/32/32 51/32/32
v -0.2984130084514618 -0.19530099630355835 -0.2403080016374588
f 48/33/32 51/32/32 52/33/32
vn 0.0 -1.0 -0.0
f 46/34/33 48/33/33 52/33/33
f 46/34/33 52/33/33 49/34/33
o transformer#minitransformer#100#0#3#-1.0
g transformer#minitransformer#100#0#3#-1.0
v 0.1719370037317276 0.1992429941892624 0.11030299961566925
vt 1.0087579488754272 0.004173994064331055
vn -0.031700000166893005 -0.9983000159263611 0.04879999905824661
v 0.26341700553894043 0.19629499316215515 0.10508300364017487
vt -0.010734000243246555 0.004173994064331055
v 0.2653219997882843 0.20031599700450897 0.1928579956293106
vt 0.025779999792575836 0.9809649996459484
f 53/35/34 54/36/34 55/37/34
v 0.17949800193309784 0.20349900424480438 0.19783399999141693
vt 0.9814239740371704 0.9810370001941919
f 53/35/34 55/37/34 56/38/34
o transformer.COLLIDER##0#1#0#-1.0
g transformer.COLLIDER##0#1#0#-1.0
v 0.3039360046386719 0.20700499415397644 -0.20700499415397644
v 0.3039360046386719 0.20700499415397644 0.35901498794555664
vt 0.625 0.0
v 0.3039360046386719 -0.20700499415397644 0.35901498794555664
vt 0.625 0.25
f 57/34/30 58/39/30 59/40/30
v 0.3039360046386719 -0.20700499415397644 -0.20700499415397644
f 57/34/30 59/40/30 60/33/30
v -0.3039360046386719 -0.20700499415397644 0.35901498794555664
vt 0.625 0.5
f 60/33/33 59/40/33 61/41/33
v -0.3039360046386719 -0.20700499415397644 -0.20700499415397644
f 60/33/33 61/41/33 62/32/33
v -0.3039360046386719 0.20700499415397644 0.35901498794555664
f 62/32/32 61/41/32 63/25/32
v -0.3039360046386719 0.20700499415397644 -0.20700499415397644
f 62/32/32 63/25/32 64/30/32
vt 0.625 1.0
f 64/30/31 63/25/31 58/42/31
f 64/30/31 58/42/31 57/31/31
vt 0.125 0.5
vn 0.0 -0.0 -1.0
f 60/43/35 62/32/35 64/30/35
vt 0.125 0.75
f 60/43/35 64/30/35 57/44/35
vt 0.875 0.5
vt 0.875 0.75
f 61/41/1 59/45/1 58/46/1
f 61/41/1 58/46/1 63/25/1
