# OBJ file
o __dotobj_group__##0#1#0#-1.0
g __dotobj_group__##0#1#0#-1.0
o Net_Cube##1#0#0#-1.0
g Net_Cube##1#0#0#-1.0
v -0.012118999846279621 1.0 0.2344059944152832
vt 0.75 0.9460269995033741
vn -0.0 1.0 -0.0
v -0.012118999846279621 1.0 0.5404520034790039
vt 0.75 0.954619999974966
v 0.012118999846279621 1.0 0.5404520034790039
vt 1.0 0.954619999974966
f 1/1/1 2/2/1 3/3/1
v 0.012118999846279621 1.0 0.2344059944152832
vt 1.0 0.9460269995033741
f 1/1/1 3/3/1 4/4/1
v 0.012118999846279621 -0.9742019772529602 0.2344059944152832
vt 0.1875 0.9460269995033741
vn 1.0 0.0 0.0
v 0.012118999846279621 -0.9742019772529602 0.5404520034790039
vt 0.1875 0.954619999974966
v 0.012118999846279621 -1.0 0.5404520034790039
vt 0.25 0.954619999974966
f 5/5/2 6/6/2 7/7/2
v 0.012118999846279621 -1.0 0.2344059944152832
vt 0.25 0.9460269995033741
f 5/5/2 7/7/2 8/8/2
vn -0.0 -1.0 0.0
v -0.012118999846279621 -1.0 0.2344059944152832
vt 0.5 0.9460269995033741
v -0.012118999846279621 -1.0 -0.17499099671840668
f 8/8/3 9/9/3 10/9/3
v 0.012118999846279621 -1.0 -0.17499099671840668
f 8/8/3 10/9/3 11/8/3
v -0.012118999846279621 0.9712430238723755 0.2344059944152832
vt 0.625 0.9460269995033741
vn -1.0 0.0 0.0
v -0.012118999846279621 0.9712430238723755 0.5404520034790039
vt 0.625 0.954619999974966
f 12/10/4 13/11/4 2/2/4
f 12/10/4 2/2/4 1/1/4
v -0.012118999846279621 -1.0 0.5404520034790039
vt 0.5 0.954619999974966
f 8/8/3 7/7/3 14/12/3
f 8/8/3 14/12/3 9/9/3
v -0.0040779998525977135 0.9710869789123535 0.23193900287151337
vt 0.375 0.9602859988808632
vn -0.019300000742077827 -0.9998000264167786 0.0
v -0.0040779998525977135 0.9710879921913147 0.5379850268363953
vt 0.625 0.9602859988808632
vt 0.625 0.9605120010674
f 15/13/5 16/14/5 13/15/5
vt 0.375 0.9605120010674
f 15/13/5 13/15/5 12/16/5
v 0.0040779998525977135 0.9710879921913147 0.23193900287151337
vt 0.125 0.6171880066394806
vn -0.0 0.9980000257492065 -0.06289999932050705
vt 0.375 0.6171869933605194
vt 0.375 0.625
f 17/17/6 15/18/6 12/19/6
v 0.012118999846279621 0.9712430238723755 0.2344059944152832
vt 0.125 0.625
f 17/17/6 12/19/6 18/20/6
vt 0.0 0.9460269995033741
vt 0.0 0.954619999974966
v 0.012118999846279621 0.9712430238723755 0.5404520034790039
vt 0.125 0.954619999974966
f 4/21/2 3/22/2 19/23/2
vt 0.125 0.9460269995033741
f 4/21/2 19/23/2 18/24/2
vt 0.625 0.6171880066394806
vn -0.0 -0.9980000257492065 0.06289999932050705
v 0.0040779998525977135 0.9710869789123535 0.5379850268363953
vt 0.875 0.6171880066394806
vt 0.875 0.625
f 16/25/7 20/26/7 19/27/7
vt 0.625 0.625
f 16/25/7 19/27/7 13/28/7
vt 0.875 0.9605120010674
v 0.012118999846279621 0.9712430238723755 0.55069899559021
f 13/15/3 19/29/3 21/29/3
v -0.012118999846279621 0.9712430238723755 0.55069899559021
f 13/15/3 21/29/3 22/15/3
v -0.012118999846279621 -0.9742019772529602 0.2344059944152832
vt 0.5625 0.9460269995033741
vt 0.5625 0.9374340027570724
v 0.012118999846279621 -0.9742019772529602 -0.17499099671840668
f 23/30/1 5/31/1 24/31/1
v -0.012118999846279621 -0.9742019772529602 -0.17499099671840668
f 23/30/1 24/31/1 25/30/1
v -0.012118999846279621 -0.9742019772529602 0.5404520034790039
vt 0.5625 0.954619999974966
f 9/9/4 14/12/4 26/32/4
f 9/9/4 26/32/4 23/30/4
v 0.0040779998525977135 -0.9740470051765442 0.23193900287151337
vt 0.375 0.9476369991898537
vn 0.019300000742077827 0.9998000264167786 -0.0
v 0.0040779998525977135 -0.9740470051765442 0.5379850268363953
vt 0.625 0.9476369991898537
vt 0.625 0.9478630013763905
f 27/33/8 28/34/8 6/35/8
vt 0.375 0.9478630013763905
f 27/33/8 6/35/8 5/36/8
f 2/2/4 13/11/4 22/11/4
v -0.012118999846279621 1.0 0.55069899559021
f 2/2/4 22/11/4 29/2/4
vt 0.875 0.5625
vt 0.625 0.5625
v -0.012118999846279621 -0.9742019772529602 0.55069899559021
f 6/37/1 26/38/1 30/38/1
v 0.012118999846279621 -0.9742019772529602 0.55069899559021
f 6/37/1 30/38/1 31/37/1
v -0.012118999846279621 -1.0 0.55069899559021
f 26/32/4 14/12/4 32/12/4
f 26/32/4 32/12/4 30/32/4
f 7/7/2 6/6/2 31/6/2
v 0.012118999846279621 -1.0 0.55069899559021
f 7/7/2 31/6/2 33/7/2
v -0.007278000004589558 0.9798309803009033 0.5735260248184204
vt 0.6623299717903137 0.956335999071598
vn -0.0 0.0 1.0
v 0.007278000004589558 0.9798309803009033 0.5735260248184204
vt 0.6623299717903137 0.961497001349926
v 0.007278000004589558 0.9914119839668274 0.5735260248184204
vt 0.7126700282096863 0.961497001349926
f 34/39/9 35/40/9 36/41/9
v -0.007278000004589558 0.9914119839668274 0.5735260248184204
vt 0.7126700282096863 0.956335999071598
f 34/39/9 36/41/9 37/42/9
f 14/12/3 7/7/3 33/7/3
f 14/12/3 33/7/3 32/12/3
v -0.007278000004589558 -0.9914119839668274 0.5735260248184204
vt 0.5208060145378113 0.956335999071598
v 0.007278000004589558 -0.9914119839668274 0.5735260248184204
vt 0.5208060145378113 0.961497001349926
v 0.007278000004589558 -0.9827899932861328 0.5735260248184204
vt 0.5416939854621887 0.961497001349926
f 38/43/9 39/44/9 40/45/9
v -0.007278000004589558 -0.9827899932861328 0.5735260248184204
vt 0.5416939854621887 0.956335999071598
f 38/43/9 40/45/9 41/46/9
v 0.012118999846279621 1.0 0.55069899559021
f 19/23/2 3/22/2 42/22/2
f 19/23/2 42/22/2 21/23/2
v 0.012118999846279621 0.9712430238723755 -0.17499099671840668
vt 0.625 0.9374340027570724
vn -0.0 0.0 -1.0
v -0.012118999846279621 0.9712430238723755 -0.17499099671840668
v -0.012118999846279621 1.0 -0.17499099671840668
f 43/47/10 44/10/10 45/1/10
v 0.012118999846279621 1.0 -0.17499099671840668
vt 0.75 0.9374340027570724
f 43/47/10 45/1/10 46/48/10
vt 0.5 0.9374340027570724
f 11/49/10 10/9/10 25/30/10
f 11/49/10 25/30/10 24/31/10
f 1/1/1 4/4/1 46/4/1
f 1/1/1 46/4/1 45/1/1
f 18/47/3 12/10/3 44/10/3
f 18/47/3 44/10/3 43/47/3
f 12/10/4 1/1/4 45/1/4
f 12/10/4 45/1/4 44/10/4
f 5/5/2 8/8/2 11/8/2
f 5/5/2 11/8/2 24/5/2
f 4/21/2 18/24/2 43/24/2
f 4/21/2 43/24/2 46/21/2
f 9/9/4 23/30/4 25/30/4
f 9/9/4 25/30/4 10/9/4
v 0.0040779998525977135 0.4848819971084595 0.22947199642658234
vt 2.3941619396209717 0.025756001472473145
v 0.0040779998525977135 0.4848819971084595 0.5355179905891418
vt 2.3887460231781006 1.007695000153035
v 0.0040779998525977135 -0.0014799999771639705 0.5332180261611938
vt 0.496535986661911 0.9913630001246929
f 47/50/2 48/51/2 49/52/2
v 0.0040779998525977135 -0.0014799999771639705 0.22717200219631195
vt 0.5034649968147278 0.009423971176147461
f 47/50/2 49/52/2 50/53/2
vt 4.131947040557861 0.03392297029495239
vt 4.125019073486328 1.0158619992434978
f 17/54/2 20/55/2 48/51/2
f 17/54/2 48/51/2 47/50/2
v 0.0040779998525977135 -0.48784101009368896 0.5355179905891418
vt -1.3941609859466553 0.9750309996306896
f 50/53/2 49/52/2 51/56/2
v 0.0040779998525977135 -0.48784101009368896 0.22947199642658234
vt -1.3887449502944946 -0.006908059120178223
f 50/53/2 51/56/2 52/57/2
vn -0.0 0.9359999895095825 0.3521000146865845
vt 0.75 0.963213000446558
f 37/42/11 36/41/11 42/58/11
f 37/42/11 42/58/11 29/2/11
vn -0.9782000184059143 0.0 0.20749999582767487
f 34/39/12 37/42/12 29/2/12
f 34/39/12 29/2/12 22/11/12
vn 0.9782000184059143 0.0 0.20749999582767487
vt 0.5 0.963213000446558
f 40/45/13 39/44/13 33/59/13
vt 0.5625 0.963213000446558
f 40/45/13 33/59/13 31/60/13
vn -0.0 -0.9359999895095825 0.3521000146865845
f 39/44/14 38/43/14 32/12/14
f 39/44/14 32/12/14 33/59/14
vt 0.625 0.963213000446558
f 36/41/13 35/40/13 21/61/13
f 36/41/13 21/61/13 42/58/13
f 35/40/14 34/39/14 22/11/14
f 35/40/14 22/11/14 21/61/14
f 38/43/12 41/46/12 30/32/12
f 38/43/12 30/32/12 32/12/12
f 31/60/11 30/32/11 41/46/11
f 31/60/11 41/46/11 40/45/11
f 3/3/1 2/2/1 29/2/1
f 3/3/1 29/2/1 42/3/1
vt 0.375 0.9460560008883476
vn 0.019300000742077827 -0.9998000264167786 -0.0
vt 0.625 0.9460560008883476
vt 0.625 0.9462819993495941
f 18/62/15 19/63/15 20/64/15
vt 0.375 0.9462819993495941
f 18/62/15 20/64/15 17/65/15
vn -0.0 0.9980000257492065 0.06270000338554382
vt 0.875 0.5703119933605194
f 26/38/16 6/37/16 28/66/16
v -0.0040779998525977135 -0.9740470051765442 0.5379850268363953
vt 0.625 0.5703119933605194
f 26/38/16 28/66/16 53/67/16
vt 0.125 0.5625
vn -0.0 -0.9980000257492065 -0.06270000338554382
vt 0.375 0.5625
v -0.0040779998525977135 -0.9740470051765442 0.23193900287151337
vt 0.375 0.5703119933605194
f 5/68/17 23/69/17 54/70/17
vt 0.125 0.5703119933605194
f 5/68/17 54/70/17 27/71/17
vt 0.375 0.9587050005793571
vn -0.019300000742077827 0.9998000264167786 -0.0
vt 0.625 0.9587050005793571
vt 0.625 0.9589309990406036
f 23/72/18 26/73/18 53/74/18
vt 0.375 0.9589309990406036
f 23/72/18 53/74/18 54/75/18
vt -3.1319470405578613 0.966864999383688
f 52/57/2 51/56/2 28/76/2
vt -3.1250200271606445 -0.015074968338012695
f 52/57/2 28/76/2 27/77/2
