# OBJ file
o __dotobj_group__##0#1#0#-1.0
g __dotobj_group__##0#1#0#-1.0
o park_plaque.001##0#1#0#-1.0
g park_plaque.001##0#1#0#-1.0
v -0.3134160041809082 -0.13510900735855103 0.41325798630714417
vt 0.625 0.5269159972667694
vn -0.5001000165939331 -0.35120001435279846 0.7914999723434448
v -0.30793699622154236 -0.14097699522972107 0.4141159951686859
vt 0.6228150129318237 0.5436219871044159
v -0.3056670129299164 -0.13981500267982483 0.4160659909248352
vt 0.6219090223312378 0.5308449864387512
f 1/1/1 2/2/1 3/3/1
v -0.30793699622154236 -0.13230299949645996 0.41796499490737915
vt 0.6228150129318237 0.49645501375198364
f 1/1/1 3/3/1 4/4/1
vt 0.875 0.20637500286102295
vn -0.707099974155426 -0.6072999835014343 0.362199991941452
vt 0.8714320063591003 0.21915501356124878
v -0.3134160041809082 -0.1522420048713684 0.3845269978046417
vt 0.871291995048523 0.03084498643875122
f 2/5/2 1/6/2 5/7/2
v -0.30793699622154236 -0.1557849943637848 0.3892819881439209
vt 0.875 0.043627023696899414
f 2/5/2 5/7/2 6/8/2
vt 0.6228150129318237 0.7063780128955841
vn -0.5 -0.8633999824523926 -0.06719999760389328
vt 0.625 0.7233439981937408
v -0.30793699622154236 -0.15504899621009827 0.37981998920440674
vt 0.6228150129318237 0.7537479996681213
f 6/9/3 5/10/3 7/11/3
v -0.3056670129299164 -0.1569480001926422 0.3873319923877716
vt 0.6219090223312378 0.7191590070724487
f 6/9/3 7/11/3 8/12/3
vn -0.0 -0.2451000064611435 0.9695000052452087
v -0.28460100293159485 -0.13981500267982483 0.4160659909248352
vt 0.6135069727897644 0.5308459997177124
f 4/4/4 3/3/4 9/13/4
v -0.2823309898376465 -0.13230299949645996 0.41796499490737915
vt 0.6126019954681396 0.49645501375198364
f 4/4/4 9/13/4 10/14/4
vn -0.0 -0.9695000052452087 -0.24500000476837158
v -0.2823309898376465 -0.15504999458789825 0.37981900572776794
vt 0.6126019954681396 0.7537470012903214
f 8/12/5 7/11/5 11/15/5
v -0.28459998965263367 -0.1569480001926422 0.3873319923877716
vt 0.6135069727897644 0.7191610038280487
f 8/12/5 11/15/5 12/16/5
v -0.27685099840164185 -0.15224400162696838 0.38452500104904175
vt 0.6104170083999634 0.7233499884605408
vn 0.4997999966144562 -0.8634999990463257 -0.06729999929666519
v -0.2823289930820465 -0.15578599274158478 0.3892819881439209
vt 0.6104230284690857 0.7199369966983795
f 13/17/6 14/18/6 12/16/6
f 13/17/6 12/16/6 11/15/6
vt 0.6126019954681396 0.7063800096511841
vn 0.707099974155426 -0.6072999835014343 0.362199991941452
vt 0.6104170083999634 0.7089099884033203
v -0.27685099840164185 -0.135110005736351 0.41325798630714417
vt 0.6104170083999634 0.5263980031013489
f 14/19/7 13/20/7 15/21/7
v -0.2823300063610077 -0.14097699522972107 0.4141159951686859
vt 0.6126019954681396 0.5436210036277771
f 14/19/7 15/21/7 16/22/7
vn 0.5 -0.35120001435279846 0.7915999889373779
f 16/22/8 15/21/8 10/14/8
f 16/22/8 10/14/8 9/13/8
v -0.3056679964065552 0.24985599517822266 -0.013079999946057796
vt 0.6219090223312378 0.2191619873046875
vn 0.0 0.8090000152587891 -0.5878000259399414
v -0.30793699622154236 0.2544110119342804 -0.006810999941080809
vt 0.6228150129318237 0.25354301929473877
v -0.2823309898376465 0.2544110119342804 -0.006810000166296959
vt 0.6126019954681396 0.25354301929473877
f 17/23/9 18/24/9 19/25/9
v -0.28459998965263367 0.24985599517822266 -0.01307899970561266
vt 0.6135069727897644 0.21916097402572632
f 17/23/9 19/25/9 20/26/9
vn -0.5001000165939331 0.6043000221252441 -0.620199978351593
v -0.30793699622154236 0.24761299788951874 -0.013434999622404575
vt 0.6228150129318237 0.2063789963722229
f 18/24/10 17/23/10 21/27/10
v -0.3134160041809082 0.2489980012178421 -0.007668000180274248
vt 0.6285560131072998 0.21915501356124878
f 18/24/10 21/27/10 22/28/10
vn -0.707099974155426 0.11069999635219574 -0.6984000205993652
v -0.30793699622154236 0.21905599534511566 -0.017961999401450157
vt 0.6228150129318237 0.0436210036277771
f 22/28/11 21/27/11 23/29/11
v -0.3134160041809082 0.21595700085163116 -0.012906000018119812
vt 0.6286320090293884 0.03084498643875122
f 22/28/11 23/29/11 24/30/11
v -0.28459998965263367 0.21681399643421173 -0.018317999318242073
vt 0.6135069727897644 0.9840050004422665
vn -0.0 -0.5877000093460083 -0.8090999722480774
v -0.2823309898376465 0.21054500341415405 -0.013763999566435814
vt 0.6126019954681396 0.9961560000665486
v -0.30793699622154236 0.21054500341415405 -0.013763999566435814
vt 0.6228150129318237 0.9963199999183416
f 25/31/12 26/32/12 27/33/12
v -0.3056670129299164 0.21681399643421173 -0.018317999318242073
vt 0.6219090223312378 0.9840050004422665
f 25/31/12 27/33/12 28/34/12
vn 0.5 -0.3831000030040741 -0.7766000032424927
vt 0.6104570031166077 0.9838609993457794
v -0.2823300063610077 0.21905599534511566 -0.017961999401450157
vt 0.6104180216789246 0.9836609996855259
f 26/32/13 25/35/13 29/36/13
v -0.27685099840164185 0.21595700085163116 -0.012906000018119812
vt 0.6104170083999634 0.9802449997514486
f 26/32/13 29/36/13 30/37/13
vt 0.6249600052833557 0.9848300004377961
vn -0.5001000165939331 -0.3831000030040741 -0.7767000198364258
vt 0.625 0.981436999514699
f 28/38/14 27/33/14 24/39/14
vt 0.6249979734420776 0.9846440004184842
f 28/38/14 24/39/14 23/40/14
vt 0.6104170083999634 0.040970027446746826
vn 0.707099974155426 0.11069999635219574 -0.6984000205993652
vt 0.6126019954681396 0.0436210036277771
v -0.2823300063610077 0.24761299788951874 -0.013434999622404575
vt 0.6126019954681396 0.2063789963722229
f 30/41/15 29/42/15 31/43/15
v -0.27685099840164185 0.2489989995956421 -0.007668000180274248
vt 0.6104170083999634 0.22358500957489014
f 30/41/15 31/43/15 32/44/15
vn 0.4999000132083893 0.6044999957084656 -0.620199978351593
f 32/44/16 31/43/16 20/26/16
f 32/44/16 20/26/16 19/25/16
v -0.3134160041809082 0.18984900414943695 0.21939800679683685
vt 0.625 0.48360198736190796
vn -0.7135000228881836 0.6782000064849854 0.17630000412464142
v -0.30793699622154236 0.19485999643802643 0.222789004445076
vt 0.6228150129318237 0.5
f 33/45/17 34/46/17 18/24/17
vt 0.625 0.222927987575531
f 33/45/17 18/24/17 22/47/17
vt 0.6228139996528625 0.25
vn -0.707099974155426 0.362199991941452 0.607200026512146
vt 0.625 0.2555149793624878
f 34/48/18 33/49/18 1/1/18
f 34/48/18 1/1/18 4/4/18
v -0.3079409897327423 0.1541150063276291 0.1954140067100525
vt 0.6228160262107849 0.7542420029640198
vn -0.7139999866485596 -0.6761000156402588 -0.1818999946117401
v -0.3134160041809082 0.15912200510501862 0.1988299936056137
vt 0.625 0.7565679997205734
f 35/50/19 36/51/19 24/39/19
f 35/50/19 24/39/19 27/33/19
vt 0.625 1.0
vn -0.7078999876976013 -0.3617999851703644 -0.6065999865531921
vt 0.6228160262107849 1.0
f 36/52/20 35/53/20 7/11/20
f 36/52/20 7/11/20 5/10/20
v -0.27685099840164185 0.1591469943523407 0.19867199659347534
vt 0.6104170083999634 0.7410379946231842
vn 0.7135999798774719 -0.6765000224113464 -0.18209999799728394
v -0.2823350131511688 0.15413199365139008 0.1953050047159195
vt 0.612604022026062 0.7433669865131378
f 37/54/21 38/55/21 26/32/21
f 37/54/21 26/32/21 30/37/21
vt 0.612604022026062 1.0
vn 0.7063000202178955 -0.3628000020980835 -0.6078000068664551
vt 0.6104580163955688 1.0
f 38/56/22 37/57/22 13/17/22
f 38/56/22 13/17/22 11/15/22
vn 0.707099974155426 0.36230000853538513 0.6072999835014343
v -0.27685099840164185 0.18984900414943695 0.21939800679683685
vt 0.6104170083999634 0.21920698881149292
f 10/14/23 15/21/23 39/58/23
v -0.2823309898376465 0.19485999643802643 0.222789004445076
vt 0.6126019954681396 0.25
f 10/14/23 39/58/23 40/59/23
vt 0.6126019954681396 0.5
vn 0.7134000062942505 0.6783000230789185 0.17630000412464142
vt 0.6104170083999634 0.5296629965305328
f 40/60/24 39/61/24 32/44/24
f 40/60/24 32/44/24 19/25/24
vn -0.0 0.5123000144958496 0.8587999939918518
f 10/14/25 40/59/25 34/48/25
f 10/14/25 34/48/25 4/4/25
vn -0.0017000000225380063 -0.5123999714851379 -0.8587999939918518
f 38/56/26 11/15/26 7/11/26
f 38/56/26 7/11/26 35/53/26
vn -0.0 0.9679999947547913 0.25110000371932983
f 40/60/27 19/25/27 18/24/27
f 40/60/27 18/24/27 34/46/27
vn -0.00019999999494757503 -0.965499997138977 -0.2605000138282776
f 26/32/28 38/55/28 35/50/28
f 26/32/28 35/50/28 27/33/28
v 0.3134160041809082 -0.13510900735855103 0.41325798630714417
vn 0.5001000165939331 -0.35120001435279846 0.7914999723434448
v 0.30793699622154236 -0.13230299949645996 0.41796499490737915
v 0.3056670129299164 -0.13981500267982483 0.4160659909248352
f 41/1/29 42/4/29 43/3/29
v 0.30793699622154236 -0.14097699522972107 0.4141159951686859
f 41/1/29 43/3/29 44/2/29
v 0.30793699622154236 -0.1557849943637848 0.3892819881439209
v 0.3134160041809082 -0.1522420048713684 0.3845269978046417
f 44/5/7 45/8/7 46/7/7
f 44/5/7 46/7/7 41/6/7
vn 0.5 -0.8633999824523926 -0.06719999760389328
v 0.3056670129299164 -0.1569480001926422 0.3873319923877716
v 0.30793699622154236 -0.15504899621009827 0.37981998920440674
f 45/9/30 47/12/30 48/11/30
f 45/9/30 48/11/30 46/10/30
v 0.2823309898376465 -0.13230299949645996 0.41796499490737915
v 0.28460100293159485 -0.13981500267982483 0.4160659909248352
f 42/4/4 49/14/4 50/13/4
f 42/4/4 50/13/4 43/3/4
v 0.28459998965263367 -0.1569480001926422 0.3873319923877716
v 0.2823309898376465 -0.15504999458789825 0.37981900572776794
f 47/12/5 51/16/5 52/15/5
f 47/12/5 52/15/5 48/11/5
v 0.27685099840164185 -0.15224400162696838 0.38452500104904175
vn -0.4997999966144562 -0.8634999990463257 -0.06729999929666519
f 53/17/31 52/15/31 51/16/31
v 0.2823289930820465 -0.15578599274158478 0.3892819881439209
f 53/17/31 51/16/31 54/18/31
v 0.2823300063610077 -0.14097699522972107 0.4141159951686859
v 0.27685099840164185 -0.135110005736351 0.41325798630714417
f 54/19/2 55/22/2 56/21/2
f 54/19/2 56/21/2 53/20/2
vn -0.5 -0.35120001435279846 0.7915999889373779
f 55/22/32 50/13/32 49/14/32
f 55/22/32 49/14/32 56/21/32
v 0.3056679964065552 0.24985599517822266 -0.013079999946057796
v 0.28459998965263367 0.24985599517822266 -0.01307899970561266
v 0.2823309898376465 0.2544110119342804 -0.006810000166296959
f 57/23/9 58/26/9 59/25/9
v 0.30793699622154236 0.2544110119342804 -0.006810999941080809
f 57/23/9 59/25/9 60/24/9
vn 0.5001000165939331 0.6043000221252441 -0.620199978351593
v 0.3134160041809082 0.2489980012178421 -0.007668000180274248
v 0.30793699622154236 0.24761299788951874 -0.013434999622404575
f 60/24/33 61/28/33 62/27/33
f 60/24/33 62/27/33 57/23/33
v 0.3134160041809082 0.21595700085163116 -0.012906000018119812
v 0.30793699622154236 0.21905599534511566 -0.017961999401450157
f 61/28/15 63/30/15 64/29/15
f 61/28/15 64/29/15 62/27/15
v 0.28459998965263367 0.21681399643421173 -0.018317999318242073
v 0.3056670129299164 0.21681399643421173 -0.018317999318242073
v 0.30793699622154236 0.21054500341415405 -0.013763999566435814
f 65/31/12 66/34/12 67/33/12
v 0.2823309898376465 0.21054500341415405 -0.013763999566435814
f 65/31/12 67/33/12 68/32/12
vn -0.5 -0.3831000030040741 -0.7766000032424927
v 0.27685099840164185 0.21595700085163116 -0.012906000018119812
v 0.2823300063610077 0.21905599534511566 -0.017961999401450157
f 68/32/34 69/37/34 70/36/34
f 68/32/34 70/36/34 65/35/34
vn 0.5001000165939331 -0.3831000030040741 -0.7767000198364258
f 66/38/35 64/40/35 63/39/35
f 66/38/35 63/39/35 67/33/35
v 0.27685099840164185 0.2489989995956421 -0.007668000180274248
v 0.2823300063610077 0.24761299788951874 -0.013434999622404575
f 69/41/11 71/44/11 72/43/11
f 69/41/11 72/43/11 70/42/11
vn -0.4999000132083893 0.6044999957084656 -0.620199978351593
f 71/44/36 59/25/36 58/26/36
f 71/44/36 58/26/36 72/43/36
v 0.3134160041809082 0.18984900414943695 0.21939800679683685
vn 0.7135000228881836 0.6782000064849854 0.17630000412464142
f 73/45/37 61/47/37 60/24/37
v 0.30793699622154236 0.19485999643802643 0.222789004445076
f 73/45/37 60/24/37 74/46/37
vn 0.707099974155426 0.362199991941452 0.607200026512146
f 74/48/38 42/4/38 41/1/38
f 74/48/38 41/1/38 73/49/38
v 0.3079409897327423 0.1541150063276291 0.1954140067100525
vn 0.7139999866485596 -0.6761000156402588 -0.1818999946117401
f 75/50/39 67/33/39 63/39/39
v 0.3134160041809082 0.15912200510501862 0.1988299936056137
f 75/50/39 63/39/39 76/51/39
vn 0.7078999876976013 -0.3617999851703644 -0.6065999865531921
f 76/52/40 46/10/40 48/11/40
f 76/52/40 48/11/40 75/53/40
v 0.27685099840164185 0.1591469943523407 0.19867199659347534
vn -0.7135999798774719 -0.6765000224113464 -0.18209999799728394
f 77/54/41 69/37/41 68/32/41
v 0.2823350131511688 0.15413199365139008 0.1953050047159195
f 77/54/41 68/32/41 78/55/41
vn -0.7063000202178955 -0.3628000020980835 -0.6078000068664551
f 78/56/42 52/15/42 53/17/42
f 78/56/42 53/17/42 77/57/42
vn -0.707099974155426 0.36230000853538513 0.6072999835014343
v 0.2823309898376465 0.19485999643802643 0.222789004445076
v 0.27685099840164185 0.18984900414943695 0.21939800679683685
f 49/14/43 79/59/43 80/58/43
f 49/14/43 80/58/43 56/21/43
vn -0.7134000062942505 0.6783000230789185 0.17630000412464142
f 79/60/44 59/25/44 71/44/44
f 79/60/44 71/44/44 80/61/44
f 49/14/25 42/4/25 74/48/25
f 49/14/25 74/48/25 79/59/25
vn 0.0017000000225380063 -0.5123999714851379 -0.8587999939918518
f 78/56/45 75/53/45 48/11/45
f 78/56/45 48/11/45 52/15/45
f 79/60/27 74/46/27 60/24/27
f 79/60/27 60/24/27 59/25/27
vn 0.00019999999494757503 -0.965499997138977 -0.2605000138282776
f 68/32/46 67/33/46 75/50/46
f 68/32/46 75/50/46 78/55/46
vn -0.0 -0.8589000105857849 0.5120999813079834
vn -0.0 -0.859000027179718 0.511900007724762
f 2/2/47 16/22/47 9/13/48
f 2/2/47 9/13/48 3/3/48
vn 0.0 0.15649999678134918 -0.9876999855041504
vn 0.0 0.1565999984741211 -0.9876999855041504
f 20/26/49 31/43/50 21/27/50
f 20/26/49 21/27/50 17/23/49
vt 0.625016987323761 0.03087902069091797
vn -1.0 0.0 0.0
f 36/62/51 5/7/51 1/6/51
vt 0.625 0.21912401914596558
f 36/62/51 1/6/51 33/63/51
vn 1.0 0.0 0.0
vt 0.6104170083999634 0.03079402446746826
f 13/20/52 37/64/52 39/58/52
f 13/20/52 39/58/52 15/21/52
vt 0.6104170083999634 0.7113730013370514
f 39/61/52 37/65/52 30/41/52
f 39/61/52 30/41/52 32/44/52
vt 0.8692409992218018 0.030780017375946045
vt 0.8741750121116638 0.2192310094833374
f 24/30/51 36/66/51 33/67/51
f 24/30/51 33/67/51 22/28/51
f 6/9/47 14/19/47 16/22/47
f 6/9/47 16/22/47 2/2/47
f 12/16/47 14/19/47 6/9/47
f 12/16/47 6/9/47 8/12/47
vn -0.0 0.156700000166893 -0.9876999855041504
f 21/27/50 31/43/50 29/42/53
f 21/27/50 29/42/53 23/29/53
vt 0.6135069727897644 0.030843019485473633
f 23/29/53 29/42/53 25/68/49
vt 0.6219090223312378 0.03084200620651245
f 23/29/53 25/68/49 28/69/49
f 44/2/47 43/3/48 50/13/48
f 44/2/47 50/13/48 55/22/47
f 58/26/49 57/23/49 62/27/50
f 58/26/49 62/27/50 72/43/50
f 76/62/52 73/63/52 41/6/52
f 76/62/52 41/6/52 46/7/52
f 53/20/51 56/21/51 80/58/51
f 53/20/51 80/58/51 77/64/51
f 80/61/51 71/44/51 69/41/51
f 80/61/51 69/41/51 77/65/51
f 63/30/52 61/28/52 73/67/52
f 63/30/52 73/67/52 76/66/52
f 45/9/47 44/2/47 55/22/47
f 45/9/47 55/22/47 54/19/47
f 51/16/47 47/12/47 45/9/47
f 51/16/47 45/9/47 54/19/47
f 62/27/50 64/29/53 70/42/53
f 62/27/50 70/42/53 72/43/50
vn -0.0 0.15680000185966492 -0.9876000285148621
f 64/29/53 66/69/54 65/68/54
f 64/29/53 65/68/54 70/42/53
o park_plaque.001##0#2#1#-1.0
g park_plaque.001##0#2#1#-1.0
v 0.27685099840164185 0.16837899386882782 0.19989199936389923
vt 0.3895829916000366 0.06967401504516602
vn 0.707099974155426 0.6072999835014343 -0.3621000051498413
v 0.2657490074634552 0.17222900688648224 0.18467000126838684
vt 0.394010990858078 0.0
v 0.2657490074634552 0.19497500360012054 0.22281600534915924
vt 0.394010990858078 0.25
f 81/70/55 82/71/55 83/72/55
v 0.27685099840164185 0.17975300550460815 0.21896600723266602
vt 0.3895829916000366 0.19468700885772705
f 81/70/55 83/72/55 84/73/55
vt 0.394010990858078 1.0
vn 0.707099974155426 -0.3621000051498413 -0.6072999835014343
vt 0.3895829916000366 0.9928190000355244
v 0.27685099840164185 -0.14453299343585968 0.3864760100841522
vt 0.3895829916000366 0.7571810036897659
f 82/74/56 81/75/56 85/76/56
v 0.2657490074634552 -0.15975399315357208 0.382627010345459
vt 0.394010990858078 0.75
f 82/74/56 85/76/56 86/77/56
vn 0.707099974155426 -0.6072999835014343 0.3621000051498413
vt 0.3895829916000366 0.6659640073776245
v 0.27685099840164185 -0.13315899670124054 0.4055509865283966
vt 0.3895829916000366 0.5409519970417023
f 86/77/57 85/78/57 87/79/57
v 0.2657490074634552 -0.13700899481773376 0.420771986246109
vt 0.394010990858078 0.5
f 86/77/57 87/79/57 88/80/57
vn 0.707099974155426 0.3621000051498413 0.6072999835014343
f 88/80/58 87/79/58 84/73/58
f 88/80/58 84/73/58 83/72/58
v -0.2657490074634552 0.17222900688648224 0.18467000126838684
vt 0.6059889793395996 0.0
vn -0.707099974155426 0.6072999835014343 -0.3621000051498413
v -0.27685099840164185 0.16837899386882782 0.19989199936389923
vt 0.6104170083999634 0.062493979930877686
v -0.27685099840164185 0.17975300550460815 0.21896600723266602
vt 0.6104170083999634 0.18750602006912231
f 89/81/59 90/82/59 91/83/59
v -0.2657490074634552 0.19497500360012054 0.22281600534915924
vt 0.6059889793395996 0.25
f 89/81/59 91/83/59 92/84/59
vt 0.6104170083999634 0.8196990042924881
vn -0.707099974155426 -0.3621000051498413 -0.6072999835014343
vt 0.6059889793395996 1.0
v -0.2657490074634552 -0.15975399315357208 0.382627010345459
vt 0.6059889793395996 0.75
f 90/85/60 89/86/60 93/87/60
v -0.27685099840164185 -0.14453299343585968 0.3864760100841522
vt 0.6104170083999634 0.694687008857727
f 90/85/60 93/87/60 94/88/60
vn -0.707099974155426 -0.6072999835014343 0.3621000051498413
v -0.2657490074634552 -0.13700899481773376 0.420771986246109
vt 0.6059889793395996 0.5
f 94/88/61 93/87/61 95/89/61
v -0.27685099840164185 -0.13315899670124054 0.4055509865283966
vt 0.6104170083999634 0.5696739852428436
f 94/88/61 95/89/61 96/90/61
vn -0.707099974155426 0.3621000051498413 0.6072999835014343
f 96/90/62 95/89/62 92/84/62
vt 0.6104170083999634 0.4446619749069214
f 96/90/62 92/84/62 91/91/62
vn -0.0 -0.5120999813079834 -0.8589000105857849
f 82/74/63 86/77/63 93/87/63
f 82/74/63 93/87/63 89/86/63
f 86/77/47 88/80/47 95/89/47
f 86/77/47 95/89/47 93/87/47
vn -0.0 0.8589000105857849 -0.5120999813079834
f 83/72/64 82/71/64 89/81/64
f 83/72/64 89/81/64 92/84/64
f 85/78/52 81/70/52 84/73/52
f 85/78/52 84/73/52 87/79/52
f 94/88/51 96/90/51 91/91/51
f 94/88/51 91/91/51 90/85/51
v 0.24694399535655975 -0.12085700035095215 0.4111410081386566
vn -0.8274999856948853 0.2874999940395355 0.4821999967098236
v 0.24694399535655975 0.17882299423217773 0.23244699835777283
v 0.2316260039806366 0.1579660028219223 0.21859799325466156
f 97/80/65 98/72/65 99/72/65
v 0.2316260039806366 -0.12312500178813934 0.3862079977989197
f 97/80/65 99/72/65 100/80/65
vn -0.0 -0.5532000064849854 0.8331000208854675
v -0.24694399535655975 0.17882299423217773 0.23244699835777283
v -0.2316260039806366 0.1579660028219223 0.21859799325466156
f 98/72/66 101/84/66 102/84/66
f 98/72/66 102/84/66 99/72/66
vn 0.8274999856948853 0.2874999940395355 0.4821999967098236
v -0.24694399535655975 -0.12085700035095215 0.4111410081386566
v -0.2316260039806366 -0.12312500178813934 0.3862079977989197
f 101/84/67 103/89/67 104/89/67
f 101/84/67 104/89/67 102/84/67
vn -0.0 0.9958999752998352 -0.09059999883174896
f 103/89/68 97/80/68 100/80/68
f 103/89/68 100/80/68 104/89/68
vn 0.0 0.5120999813079834 0.8589000105857849
f 88/80/69 83/72/69 98/72/69
f 88/80/69 98/72/69 97/80/69
f 83/72/69 92/84/69 101/84/69
f 83/72/69 101/84/69 98/72/69
f 92/84/69 95/89/69 103/89/69
f 92/84/69 103/89/69 101/84/69
f 95/89/69 88/80/69 97/80/69
f 95/89/69 97/80/69 103/89/69
o park_plaque.001#sprreserveplaque#99#0#2#16777215.0
g park_plaque.001#sprreserveplaque#99#0#2#16777215.0
vt 0.003385999949291499 0.998046999948996
vt 0.005339000200984454 0.005859035915798616
vt 0.9966140284682765 0.003906023943865744
f 100/92/69 99/93/69 102/94/69
vt 0.9946610267716225 0.998046999948996
f 100/92/69 102/94/69 104/95/69
o plaque.COLLIDER_plaque.collider_Cube.001##0#0#0#-1.0
g plaque.COLLIDER_plaque.collider_Cube.001##0#0#0#-1.0
v 0.30818501114845276 0.24401900172233582 -0.0019340000580996275
vt 0.375 0.0
v 0.30818501114845276 0.24401900172233582 0.234607994556427
vt 0.625 0.0
v 0.30818501114845276 -0.15383100509643555 0.421085000038147
vt 0.625 0.25
f 105/96/52 106/97/52 107/98/52
v 0.30818501114845276 -0.15383100509643555 -0.0019340000580996275
vt 0.375 0.25
f 105/96/52 107/98/52 108/99/52
vn -0.0 -1.0 0.0
v -0.30818501114845276 -0.15383100509643555 0.421085000038147
vt 0.625 0.5
f 108/99/70 107/98/70 109/100/70
v -0.30818501114845276 -0.15383100509643555 -0.0019340000580996275
vt 0.375 0.5
f 108/99/70 109/100/70 110/101/70
v -0.30818501114845276 0.24401900172233582 0.234607994556427
vt 0.625 0.75
f 110/101/51 109/100/51 111/102/51
v -0.30818501114845276 0.24401900172233582 -0.0019340000580996275
vt 0.375 0.75
f 110/101/51 111/102/51 112/103/51
vn -0.0 1.0 -0.0
f 112/103/71 111/102/71 106/52/71
vt 0.375 1.0
f 112/103/71 106/52/71 105/104/71
vt 0.125 0.5
vn -0.0 -0.0 -1.0
f 108/105/72 110/101/72 112/103/72
vt 0.125 0.75
f 108/105/72 112/103/72 105/106/72
vn -0.0 0.4244000017642975 0.9054999947547913
vt 0.875 0.5
vt 0.875 0.75
f 109/100/73 107/107/73 106/108/73
f 109/100/73 106/108/73 111/102/73
