# OBJ file
o __dotobj_group__##0#1#0#-1.0
g __dotobj_group__##0#1#0#-1.0
o rail.COLLIDER_Cube.320##0#0#0#-1.0
g rail.COLLIDER_Cube.320##0#0#0#-1.0
v 0.03413400053977966 0.271696001291275 -0.2417600005865097
vt 0.375 0.0
vn 1.0 0.0 0.0
v 0.03413400053977966 0.271696001291275 0.379940003156662
vt 0.625 0.0
v 0.03413400053977966 0.15386399626731873 0.379940003156662
vt 0.625 0.25
f 1/1/1 2/2/1 3/3/1
v 0.03413400053977966 0.15386399626731873 -0.2417600005865097
vt 0.375 0.25
f 1/1/1 3/3/1 4/4/1
vn -0.0 -1.0 0.0
v -0.03413400053977966 0.15386399626731873 0.379940003156662
vt 0.625 0.5
f 4/4/2 3/3/2 5/5/2
v -0.03413400053977966 0.15386399626731873 -0.2417600005865097
vt 0.375 0.5
f 4/4/2 5/5/2 6/6/2
vn -1.0 0.0 -0.0
v -0.03413400053977966 0.271696001291275 0.379940003156662
vt 0.625 0.75
f 6/6/3 5/5/3 7/7/3
v -0.03413400053977966 0.271696001291275 -0.2417600005865097
vt 0.375 0.75
f 6/6/3 7/7/3 8/8/3
vn -0.0 1.0 -0.0
vt 0.625 1.0
f 8/8/4 7/7/4 2/9/4
vt 0.375 1.0
f 8/8/4 2/9/4 1/10/4
vt 0.125 0.5
vn -0.0 -0.0 -1.0
f 4/11/5 6/6/5 8/8/5
vt 0.125 0.75
f 4/11/5 8/8/5 1/12/5
vn -0.0 0.0 1.0
vt 0.875 0.5
vt 0.875 0.75
f 5/5/6 3/13/6 2/14/6
f 5/5/6 2/14/6 7/7/6
o Cube.102_Cube.322##0#1#0#-1.0
g Cube.102_Cube.322##0#1#0#-1.0
v -0.033504001796245575 0.19910800457000732 0.3786430060863495
v -0.033504001796245575 0.19910800457000732 0.30379199981689453
vt 0.5 0.5
v -0.033504001796245575 0.14247100055217743 0.30379199981689453
vt 0.5 0.75
f 9/5/3 10/15/3 11/16/3
v -0.033504001796245575 0.16631600260734558 0.3786430060863495
f 9/5/3 11/16/3 12/7/3
v 0.033504001796245575 0.2661150097846985 0.30379199981689453
vt 0.5 0.0
vn 0.9980000257492065 0.04729999974370003 0.042399998754262924
v 0.029385000467300415 0.24637000262737274 0.3479909896850586
v 0.033504001796245575 0.19910800457000732 0.3786430060863495
f 13/17/7 14/2/7 15/3/7
v 0.033504001796245575 0.19910800457000732 0.30379199981689453
vt 0.5 0.25
f 13/17/7 15/3/7 16/18/7
f 15/13/6 9/5/6 12/7/6
v 0.033504001796245575 0.12138400226831436 0.3786430060863495
f 15/13/6 12/7/6 17/14/6
vn -0.9980000257492065 0.04729999974370003 0.042399998754262924
v -0.029385000467300415 0.24637000262737274 0.3479909896850586
f 10/15/8 9/5/8 18/7/8
v -0.033504001796245575 0.2661150097846985 0.30379199981689453
f 10/15/8 18/7/8 19/16/8
vn -0.0 0.9129999876022339 0.40790000557899475
f 19/16/9 18/7/9 14/9/9
vt 0.5 1.0
f 19/16/9 14/9/9 13/19/9
v 0.033504001796245575 0.19910800457000732 -0.260329008102417
v -0.033504001796245575 0.19910800457000732 -0.260329008102417
v -0.033504001796245575 0.2661150097846985 -0.260329008102417
f 20/11/5 21/6/5 22/8/5
v 0.033504001796245575 0.2661150097846985 -0.260329008102417
f 20/11/5 22/8/5 23/12/5
vn -0.0 0.5440999865531921 0.8389999866485596
f 9/5/10 15/13/10 14/14/10
f 9/5/10 14/14/10 18/7/10
f 22/8/4 19/16/4 13/19/4
f 22/8/4 13/19/4 23/10/4
f 21/6/3 10/15/3 19/16/3
f 21/6/3 19/16/3 22/8/3
v 0.020232999697327614 0.19910800457000732 0.16876600682735443
vt 0.4057370126247406 0.29951101541519165
v 0.020232999697327614 0.19910800457000732 0.21189799904823303
vt 0.4692629873752594 0.29951101541519165
v 0.020232999697327614 0.07854200154542923 0.21189799904823303
vt 0.4692629873752594 0.9504889994859695
f 24/20/1 25/21/1 26/22/1
v 0.020232999697327614 0.09264899790287018 0.16876600682735443
vt 0.4057370126247406 0.9504889994859695
f 24/20/1 26/22/1 27/23/1
f 23/1/1 13/17/1 16/18/1
f 23/1/1 16/18/1 20/4/1
v -0.020232999697327614 0.19910800457000732 0.16876600682735443
vt 0.4057370126247406 0.45048898458480835
f 28/24/5 24/20/5 27/23/5
v -0.020232999697327614 0.07854200154542923 0.16876600682735443
vt 0.4057370126247406 0.7995110005140305
f 28/24/5 27/23/5 29/25/5
v 0.033504001796245575 0.14703300595283508 0.30379199981689453
f 10/15/5 16/18/5 30/19/5
f 10/15/5 30/19/5 11/16/5
f 16/18/1 15/3/1 17/2/1
f 16/18/1 17/2/1 30/17/1
f 25/21/2 24/20/2 20/4/2
f 25/21/2 20/4/2 16/18/2
f 24/20/2 28/24/2 21/6/2
f 24/20/2 21/6/2 20/4/2
v -0.020232999697327614 0.19910800457000732 0.21189799904823303
vt 0.4692629873752594 0.45048898458480835
f 28/24/2 31/26/2 10/15/2
f 28/24/2 10/15/2 21/6/2
f 31/26/2 25/21/2 16/18/2
f 31/26/2 16/18/2 10/15/2
v -0.020232999697327614 0.09636799991130829 0.21189799904823303
vt 0.4692629873752594 0.7995110005140305
f 25/21/6 31/26/6 32/27/6
f 25/21/6 32/27/6 26/22/6
f 31/26/3 28/24/3 29/25/3
f 31/26/3 29/25/3 32/27/3
o Cube.102_Cube.001##0#1#0#-1.0
g Cube.102_Cube.001##0#1#0#-1.0
v 0.033504001796245575 -0.2661150097846985 -0.260329008102417
v -0.033504001796245575 -0.2661150097846985 -0.260329008102417
v -0.033504001796245575 -0.19910800457000732 -0.260329008102417
f 33/11/5 34/6/5 35/8/5
v 0.033504001796245575 -0.19910800457000732 -0.260329008102417
f 33/11/5 35/8/5 36/12/5
v -0.033504001796245575 -0.2661150097846985 0.06805700063705444
v -0.033504001796245575 -0.19910800457000732 0.087506003677845
f 34/6/3 37/15/3 38/16/3
f 34/6/3 38/16/3 35/8/3
v 0.033504001796245575 -0.2661150097846985 0.11200100183486938
f 33/4/2 39/18/2 37/15/2
f 33/4/2 37/15/2 34/6/2
v 0.033504001796245575 -0.19910800457000732 0.05703999847173691
f 36/1/1 40/17/1 39/18/1
f 36/1/1 39/18/1 33/4/1
f 36/12/4 35/8/4 38/16/4
f 36/12/4 38/16/4 40/17/4
