# OBJ file
o __dotobj_group__##0#1#0#-1.0
g __dotobj_group__##0#1#0#-1.0
o Cube.001##0#1#0#-1.0
g Cube.001##0#1#0#-1.0
v -0.2603839933872223 -0.2622329890727997 -0.03448300063610077
vt 0.625 0.5
vn -0.1185000017285347 0.0 0.992900013923645
v 0.2603839933872223 -0.2622329890727997 0.027689000591635704
vt 0.875 0.5
v 0.2603839933872223 0.2622329890727997 0.027689000591635704
vt 0.875 0.75
f 1/1/1 2/2/1 3/3/1
v -0.2603839933872223 0.2622329890727997 -0.03448300063610077
vt 0.625 0.75
f 1/1/1 3/3/1 4/4/1
o Cube.001##0#2#1#-1.0
g Cube.001##0#2#1#-1.0
v 0.2622329890727997 0.2622329890727997 -0.4170509874820709
vt 0.375 0.0
vn 1.0 0.0 0.00419999985024333
vt 0.625 0.0
vt 0.625 0.25
f 5/5/2 3/6/2 2/7/2
v 0.2622329890727997 -0.2622329890727997 -0.4170509874820709
vt 0.375 0.25
f 5/5/2 2/7/2 6/8/2
vn -0.0 -1.0 -0.0
f 6/8/3 2/7/3 1/1/3
v -0.2622329890727997 -0.2622329890727997 -0.4170509874820709
vt 0.375 0.5
f 6/8/3 1/1/3 7/9/3
vn -1.0 0.0 0.004800000227987766
f 7/9/4 1/1/4 4/4/4
v -0.2622329890727997 0.2622329890727997 -0.4170509874820709
vt 0.375 0.75
f 7/9/4 4/4/4 8/10/4
vn -0.0 1.0 -0.0
vt 0.625 1.0
f 8/10/5 4/4/5 3/11/5
vt 0.375 1.0
f 8/10/5 3/11/5 5/12/5
vt 0.125 0.5
vn -0.0 0.0 -1.0
f 6/13/6 7/9/6 8/10/6
vt 0.125 0.75
f 6/13/6 8/10/6 5/14/6
