# OBJ file
o __dotobj_group__##0#1#0#-1.0
g __dotobj_group__##0#1#0#-1.0
o Cube.106_Cube.273##0#1#0#-1.0
g Cube.106_Cube.273##0#1#0#-1.0
v 0.2032880038022995 -0.04703500121831894 0.01334800012409687
vt 0.5 0.16666698455810547
vn 0.9695000052452087 0.0 0.2451999932527542
v 0.1425269991159439 -0.04703500121831894 0.25359800457954407
vt 0.625 0.16666698455810547
v 0.1425269991159439 -0.11872600018978119 0.25359800457954407
vt 0.625 0.25
f 1/1/1 2/2/1 3/3/1
v 0.2032880038022995 -0.11872600018978119 0.01334800012409687
vt 0.5 0.25
f 1/1/1 3/3/1 4/4/1
vn -0.0 -1.0 -0.0
v -0.1425269991159439 -0.11872600018978119 0.25359800457954407
vt 0.625 0.5
f 4/4/2 3/3/2 5/5/2
v -0.2032880038022995 -0.11872600018978119 0.01334800012409687
vt 0.5 0.5
f 4/4/2 5/5/2 6/6/2
v -0.2032880038022995 0.04703500121831894 0.01334800012409687
vt 0.5 0.6666670143604279
vn -0.9695000052452087 -0.0 0.2451999932527542
v -0.1425269991159439 0.04703500121831894 0.25359800457954407
vt 0.625 0.6666670143604279
v -0.1425269991159439 0.11872600018978119 0.25359800457954407
vt 0.625 0.75
f 7/7/3 8/8/3 9/9/3
v -0.2032880038022995 0.11872600018978119 0.01334800012409687
vt 0.5 0.75
f 7/7/3 9/9/3 10/10/3
vn -0.0 1.0 -0.0
v 0.1425269991159439 0.11872600018978119 0.25359800457954407
vt 0.625 1.0
f 10/10/4 9/9/4 11/11/4
v 0.2032880038022995 0.11872600018978119 0.01334800012409687
vt 0.5 1.0
f 10/10/4 11/11/4 12/12/4
v 0.1425269991159439 0.0395749993622303 -0.023887999355793
vt 0.125 0.6666670143604279
vn -0.0 0.0 -1.0
v -0.1425269991159439 0.0395749993622303 -0.023887999355793
vt 0.375 0.6666670143604279
v -0.1425269991159439 0.11872600018978119 -0.023887999355793
vt 0.375 0.75
f 13/13/5 14/14/5 15/15/5
v 0.1425269991159439 0.11872600018978119 -0.023887999355793
vt 0.125 0.75
f 13/13/5 15/15/5 16/16/5
vn -0.0 0.0 1.0
v 0.1425269991159439 0.04703500121831894 0.25359800457954407
vt 0.875 0.6666670143604279
vt 0.875 0.75
f 8/8/6 17/17/6 11/18/6
f 8/8/6 11/18/6 9/9/6
vt 0.875 0.5
vt 0.875 0.5833329856395721
f 5/5/6 3/19/6 2/20/6
v -0.1425269991159439 -0.04703500121831894 0.25359800457954407
vt 0.625 0.5833329856395721
f 5/5/6 2/20/6 18/21/6
v 0.2032880038022995 0.04703500121831894 0.01334800012409687
vt 0.5 0.08333301544189453
f 1/1/6 19/22/6 7/7/6
v -0.2032880038022995 -0.04703500121831894 0.01334800012409687
vt 0.5 0.5833329856395721
f 1/1/6 7/7/6 20/23/6
v 0.1425269991159439 -0.11872600018978119 -0.023887999355793
vt 0.125 0.5
v -0.1425269991159439 -0.11872600018978119 -0.023887999355793
vt 0.375 0.5
v -0.1425269991159439 -0.0395749993622303 -0.023887999355793
vt 0.375 0.5833329856395721
f 21/24/5 22/25/5 23/26/5
v 0.1425269991159439 -0.0395749993622303 -0.023887999355793
vt 0.125 0.5833329856395721
f 21/24/5 23/26/5 24/27/5
f 24/27/5 23/26/5 14/14/5
f 24/27/5 14/14/5 13/13/5
f 6/6/3 5/5/3 18/21/3
f 6/6/3 18/21/3 20/23/3
f 20/23/4 18/21/4 2/20/4
f 20/23/4 2/20/4 1/1/4
vt 0.5 0.0
vt 0.625 0.0
vt 0.625 0.08333301544189453
f 12/28/1 11/29/1 17/30/1
f 12/28/1 17/30/1 19/22/1
f 7/7/2 19/22/2 17/17/2
f 7/7/2 17/17/2 8/8/2
vt 0.375 0.25
v 0.2802860140800476 -0.11872600018978119 -0.023887999355793
f 4/4/2 21/31/2 25/31/2
v 0.2802860140800476 -0.11872600018978119 0.01334800012409687
f 4/4/2 25/31/2 26/4/2
v -0.2802860140800476 -0.0395749993622303 -0.023887999355793
f 14/14/5 23/26/5 27/26/5
v -0.2802860140800476 0.0395749993622303 -0.023887999355793
f 14/14/5 27/26/5 28/14/5
v -0.2802860140800476 -0.06341800093650818 0.01334800012409687
f 6/6/6 20/23/6 29/23/6
v -0.2802860140800476 -0.11872600018978119 0.01334800012409687
f 6/6/6 29/23/6 30/6/6
v -0.2802860140800476 0.11872600018978119 -0.023887999355793
f 10/10/4 15/15/4 31/15/4
v -0.2802860140800476 0.11872600018978119 0.01334800012409687
f 10/10/4 31/15/4 32/10/4
f 15/15/4 10/10/4 12/12/4
vt 0.375 1.0
f 15/15/4 12/12/4 16/32/4
f 15/15/5 14/14/5 28/14/5
f 15/15/5 28/14/5 31/15/5
f 21/31/2 4/4/2 6/6/2
f 21/31/2 6/6/2 22/25/2
v -0.2802860140800476 0.06341800093650818 0.01334800012409687
f 20/23/6 7/7/6 33/7/6
f 20/23/6 33/7/6 29/23/6
v 0.2802860140800476 0.0395749993622303 -0.023887999355793
vt 0.375 0.08333301544189453
vn 1.0 0.0 0.0
v 0.2802860140800476 0.06341800093650818 0.01334800012409687
v 0.2802860140800476 -0.06341800093650818 0.01334800012409687
f 34/33/7 35/22/7 36/1/7
v 0.2802860140800476 -0.0395749993622303 -0.023887999355793
vt 0.375 0.16666698455810547
f 34/33/7 36/1/7 37/34/7
v 0.2802860140800476 0.11872600018978119 -0.023887999355793
vt 0.375 0.0
v 0.2802860140800476 0.11872600018978119 0.01334800012409687
f 38/35/7 39/28/7 35/22/7
f 38/35/7 35/22/7 34/33/7
vn -1.0 0.0 0.0
f 27/26/8 29/23/8 33/7/8
f 27/26/8 33/7/8 28/14/8
v -0.2802860140800476 -0.11872600018978119 -0.023887999355793
f 40/25/8 30/6/8 29/23/8
f 40/25/8 29/23/8 27/26/8
f 28/14/8 33/7/8 32/10/8
f 28/14/8 32/10/8 31/15/8
f 37/34/7 36/1/7 26/4/7
f 37/34/7 26/4/7 25/31/7
f 7/7/6 10/10/6 32/10/6
f 7/7/6 32/10/6 33/7/6
f 21/24/5 24/27/5 37/27/5
f 21/24/5 37/27/5 25/24/5
f 24/27/5 13/13/5 34/13/5
f 24/27/5 34/13/5 37/27/5
f 16/32/4 12/12/4 39/12/4
f 16/32/4 39/12/4 38/32/4
f 1/1/6 4/4/6 26/4/6
f 1/1/6 26/4/6 36/1/6
f 22/25/2 6/6/2 30/6/2
f 22/25/2 30/6/2 40/25/2
f 19/22/6 1/1/6 36/1/6
f 19/22/6 36/1/6 35/22/6
f 23/26/5 22/25/5 40/25/5
f 23/26/5 40/25/5 27/26/5
f 12/28/6 19/22/6 35/22/6
f 12/28/6 35/22/6 39/28/6
f 13/13/5 16/16/5 38/16/5
f 13/13/5 38/16/5 34/13/5
o Cube.115_Cube.275##0#1#0#-1.0
g Cube.115_Cube.275##0#1#0#-1.0
v 0.3783940076828003 0.03139699995517731 0.16032099723815918
vn -0.11900000274181366 0.0 0.992900013923645
v -0.015941999852657318 0.03139699995517731 0.1130710020661354
v -0.015941999852657318 -0.03139699995517731 0.1130710020661354
f 41/35/9 42/29/9 43/3/9
v 0.3783940076828003 -0.03139699995517731 0.16032099723815918
f 41/35/9 43/3/9 44/31/9
v -0.005311000160872936 -0.03139699995517731 0.024343999102711678
f 44/31/2 43/3/2 45/5/2
v 0.3890250027179718 -0.03139699995517731 0.07159499824047089
f 44/31/2 45/5/2 46/25/2
vn 0.11900000274181366 0.0 -0.992900013923645
v -0.005311000160872936 0.03139699995517731 0.024343999102711678
f 46/25/10 45/5/10 47/9/10
v 0.3890250027179718 0.03139699995517731 0.07159499824047089
f 46/25/10 47/9/10 48/15/10
f 48/15/4 47/9/4 42/11/4
f 48/15/4 42/11/4 41/32/4
vn -0.992900013923645 0.0 -0.11900000274181366
f 45/5/11 43/19/11 42/18/11
f 45/5/11 42/18/11 47/9/11
o Cube.115_Cube.275##0#0#1#4593895.0
g Cube.115_Cube.275##0#0#1#4593895.0
v 0.45113900303840637 -0.022512000054121017 0.0255769994109869
vt 0.375 0.5353749990463257
v 0.45113900303840637 0.022512000054121017 0.0255769994109869
vt 0.375 0.7146250009536743
v 0.5183010101318359 0.022512000054121017 0.03362499922513962
f 49/36/10 50/37/10 51/37/10
v 0.5183010101318359 -0.022512000054121017 0.03362499922513962
f 49/36/10 51/37/10 52/36/10
v 0.5571529865264893 -0.03139699995517731 0.18174099922180176
vn 0.992900013923645 0.0 0.11900000274181366
v 0.5677850246429443 -0.03139699995517731 0.09301400184631348
v 0.5677850246429443 0.03139699995517731 0.09301400184631348
f 53/24/12 54/25/12 55/15/12
v 0.5571529865264893 0.03139699995517731 0.18174099922180176
f 53/24/12 55/15/12 56/16/12
f 48/15/4 41/32/4 56/32/4
f 48/15/4 56/32/4 55/15/4
f 44/31/2 46/25/2 54/25/2
f 44/31/2 54/25/2 53/31/2
v 0.4278770089149475 0.022512000054121017 0.21971000730991364
vt 0.375 0.035374999046325684
v 0.4278770089149475 -0.022512000054121017 0.21971000730991364
vt 0.375 0.21462500095367432
v 0.49503999948501587 -0.022512000054121017 0.2277580052614212
f 57/38/9 58/39/9 59/39/9
v 0.49503999948501587 0.022512000054121017 0.2277580052614212
f 57/38/9 59/39/9 60/38/9
vn -0.7682999968528748 0.0 0.6401000022888184
f 58/39/13 57/38/13 41/35/13
f 58/39/13 41/35/13 44/31/13
vn -0.595300018787384 0.0 -0.8034999966621399
f 50/37/14 49/36/14 46/25/14
f 50/37/14 46/25/14 48/15/14
vn 0.595300018787384 0.0 0.8034999966621399
f 60/38/15 59/39/15 53/31/15
f 60/38/15 53/31/15 56/35/15
vn 0.7682999968528748 0.0 -0.6401000022888184
f 52/36/16 51/37/16 55/15/16
f 52/36/16 55/15/16 54/25/16
vn 0.019600000232458115 0.986299991607666 -0.1639000028371811
f 51/37/17 50/37/17 48/15/17
f 51/37/17 48/15/17 55/15/17
vn 0.019600000232458115 -0.986299991607666 -0.1639000028371811
f 49/36/18 52/36/18 54/25/18
f 49/36/18 54/25/18 46/25/18
vn -0.019600000232458115 0.986299991607666 0.1639000028371811
f 57/38/19 60/38/19 56/35/19
f 57/38/19 56/35/19 41/35/19
vn -0.019600000232458115 -0.986299991607666 0.1639000028371811
f 59/39/20 58/39/20 44/31/20
f 59/39/20 44/31/20 53/31/20
