# OBJ file
o __dotobj_group__##0#1#0#-1.0
g __dotobj_group__##0#1#0#-1.0
o Cube.001##0#0#0#2700618.0
g Cube.001##0#0#0#2700618.0
v 0.1956229954957962 0.0186769999563694 0.16569900512695312
vt 0.6269019842147827 0.6255579888820648
vn 0.4528999924659729 -0.0934000015258789 0.8866000175476074
v 0.1712229996919632 -0.07534000277519226 0.23838700354099274
vt 0.7222959995269775 0.5402890145778656
vn 0.7196000218391418 0.505299985408783 0.47620001435279846
v 0.18614499270915985 -0.08274800330400467 0.22248899936676025
vt 0.7207040190696716 0.5795640051364899
vn 0.07199999690055847 0.7825999855995178 0.618399977684021
f 1/1/1 2/2/2 3/3/3
v 0.21575899422168732 -0.007230999879539013 0.166826993227005
vt 0.6340029835700989 0.6936540007591248
vn -0.018799999728798866 0.41819998621940613 0.9082000255584717
f 1/1/1 3/3/3 4/4/4
v 0.17591099441051483 0.02874699980020523 0.18945200741291046
vt 0.6262969970703125 0.5639710128307343
vn 0.7253999710083008 -0.15760000050067902 0.6700999736785889
v 0.15224599838256836 -0.058591000735759735 0.2410700023174286
vt 0.7239260077476501 0.5
vn 0.8485000133514404 0.3082999885082245 0.4300999939441681
f 5/5/5 6/6/6 2/2/2
f 5/5/5 2/2/2 1/1/1
o Cube.001##0#0#1#13816530.0
g Cube.001##0#0#1#13816530.0
v 0.029961999505758286 -0.025770999491214752 -0.0148930000141263
vt 0.21932999789714813 0.5
vn -0.6456999778747559 0.04690000042319298 -0.7620999813079834
v 0.036357998847961426 0.04807699844241142 -0.0148930000141263
vt 0.31582099199295044 0.5
vn -0.6313999891281128 0.23430000245571136 -0.7391999959945679
v 0.07554300129413605 0.09416700154542923 -0.0148930000141263
vt 0.375 0.5674920082092285
vn -0.2587999999523163 0.5701000094413757 -0.7797999978065491
f 7/7/7 8/8/8 9/9/9
v 0.10418900102376938 0.08889400213956833 -0.0148930000141263
vt 0.37499600648880005 0.6256279945373535
vn 0.08889999985694885 0.49219998717308044 -0.8659999966621399
f 7/7/7 9/9/9 10/10/10
v 0.028925999999046326 -0.06446699798107147 0.05971100181341171
vt 0.4335879981517792 0.343766987323761
vn -0.9573000073432922 0.0778999999165535 0.2782999873161316
v 0.0650779977440834 -0.06813900172710419 0.1405559927225113
vt 0.5 0.3431299924850464
vn -0.9050999879837036 0.07569999992847443 0.41830000281333923
v 0.07355000078678131 0.03849399834871292 0.1203019991517067
vt 0.5 0.4383929967880249
vn -0.670799970626831 0.4903999865055084 0.5564000010490417
f 11/11/11 12/12/12 13/13/13
v 0.03431899845600128 0.05459199845790863 0.054568998515605927
vt 0.4335870146751404 0.4396830201148987
vn -0.82669997215271 0.4115000069141388 0.38370001316070557
f 11/11/11 13/13/13 14/14/14
v 0.1717499941587448 -0.15801799297332764 0.2289469987154007
vt 0.5863639712333679 0.06749200820922852
vn 0.2849999964237213 -0.7383000254631042 0.611299991607666
v 0.16868999600410461 -0.0901309996843338 0.27054300904273987
vt 0.625 0.12870198488235474
vn 0.25099998712539673 0.16769999265670776 0.9532999992370605
v 0.11562100052833557 -0.15744400024414062 0.22943100333213806
vt 0.5863639712333679 0.16619402170181274
vn -0.4821999967098236 -0.49050000309944153 0.7258999943733215
f 15/15/15 16/16/16 17/17/17
v 0.25769999623298645 -0.07406800240278244 0.08528800308704376
vt 0.4335870146751404 0.8574279993772507
vn 0.9922000169754028 -0.08089999854564667 -0.09529999643564224
v 0.24022400379180908 -0.07954899966716766 0.14593300223350525
vt 0.5 0.856670007109642
vn 0.9735000133514404 -0.1704999953508377 0.1526000052690506
v 0.19750800728797913 -0.16787900030612946 0.16196000576019287
vt 0.5 0.9677099995315075
vn 0.6212999820709229 -0.7310000061988831 0.2822999954223633
f 18/18/18 19/19/19 20/20/20
v 0.21262399852275848 -0.19964200258255005 0.081106998026371
vt 0.4335870146751404 0.9677099995315075
vn 0.5755000114440918 -0.8174999952316284 -0.02239999920129776
f 18/18/18 20/20/20 21/21/21
v 0.15198099613189697 0.08615999668836594 0.059445999562740326
vt 0.4335879981517792 0.640410989522934
vn 0.3720000088214874 0.9067999720573425 0.19830000400543213
v 0.19762900471687317 0.06041700020432472 0.09426800161600113
vt 0.5 0.6056709885597229
vn 0.2818000018596649 0.9445000290870667 0.16899999976158142
v 0.2409210056066513 0.058139998465776443 0.09578700363636017
vt 0.5 0.6825079917907715
vn 0.777999997138977 0.6244999766349792 0.06809999793767929
f 22/22/22 23/23/23 24/24/24
v 0.19917699694633484 0.059039998799562454 0.058295998722314835
vt 0.4335879981517792 0.7116970121860504
vn 0.6725999712944031 0.7390999794006348 0.036400001496076584
f 22/22/22 24/24/24 25/25/25
v 0.22519099712371826 -0.0682860016822815 0.19929200410842896
vt 0.5871949791908264 0.8877929970622063
vn 0.9447000026702881 -0.18979999423027039 0.26759999990463257
v 0.21877999603748322 -0.0580269992351532 0.22532500326633453
vt 0.625 0.8467230051755905
vn 0.4099000096321106 0.3880999982357025 0.8255000114440918
v 0.19188299775123596 -0.08754400163888931 0.24876800179481506
vt 0.625 0.9677099995315075
vn 0.5509999990463257 0.43160000443458557 0.7142000198364258
f 26/26/26 27/27/27 28/28/28
v 0.19625499844551086 -0.13584400713443756 0.2219650000333786
vt 0.5885559916496277 0.9995669999916572
vn 0.732200026512146 -0.49129998683929443 0.4717000126838684
f 26/26/26 28/28/28 29/29/29
v 0.19684800505638123 0.04712900146842003 0.15028199553489685
vt 0.5863639712333679 0.6256510019302368
vn 0.3125999867916107 0.9330000281333923 0.17829999327659607
v 0.20569899678230286 0.03966600075364113 0.1824759989976883
vt 0.625 0.6256510019302368
vn 0.5324000120162964 0.38260000944137573 0.7551000118255615
v 0.23956499993801117 0.02529500052332878 0.16117900609970093
vt 0.625 0.6825079917907715
vn 0.7432000041007996 0.3723999857902527 0.555899977684021
f 30/30/30 31/31/31 32/32/32
v 0.24090200662612915 0.03268500044941902 0.13770900666713715
vt 0.5863639712333679 0.6825079917907715
vn 0.8174999952316284 0.5117999911308289 0.26409998536109924
f 30/30/30 32/32/32 33/33/33
v 0.10271500051021576 -0.09339900314807892 0.2169169932603836
vt 0.5863639712333679 0.2880060076713562
vn -0.7860000133514404 0.008100000210106373 0.6180999875068665
v 0.15607599914073944 -0.07615300267934799 0.2711929976940155
vt 0.625 0.26334601640701294
vn -0.02710000053048134 0.4104999899864197 0.9114999771118164
v 0.14619900286197662 -0.04735499992966652 0.2615950107574463
vt 0.625 0.40107399225234985
vn 0.06310000270605087 0.3898000121116638 0.9186999797821045
f 34/34/34 35/35/35 36/36/36
v 0.09094700217247009 -0.028839999809861183 0.20500700175762177
vt 0.5863639712333679 0.4126089811325073
vn -0.7924000024795532 0.30300000309944153 0.5295000076293945
f 34/34/34 36/36/36 37/37/37
v 0.14559799432754517 0.09625899791717529 0.010596999898552895
vt 0.375 0.6825079917907715
vn 0.4602000117301941 0.8640999794006348 -0.20389999449253082
v 0.24449199438095093 0.013450000435113907 0.01013800036162138
vt 0.375 0.7822899967432022
vn 0.8939999938011169 0.35850000381469727 -0.26899999380111694
v 0.22411200404167175 0.010745000094175339 -0.01534700021147728
vn 0.49779999256134033 0.21220000088214874 -0.8409000039100647
f 38/38/38 39/39/39 40/39/40
v 0.132192000746727 0.08373899757862091 -0.014932000078260899
vn 0.20659999549388885 0.49619999527931213 -0.8432999849319458
f 38/38/38 40/39/40 41/38/41
vt 0.586663007736206 0.04967600107192993
vt 0.625 0.0
vt 0.625 0.06749200820922852
f 29/40/29 28/41/28 16/42/16
f 29/40/29 16/42/16 15/15/15
f 26/26/26 19/19/19 24/24/24
f 26/26/26 24/24/24 33/33/33
v 0.1028209999203682 0.11447300016880035 0.06478399783372879
vt 0.4335879981517792 0.5674920082092285
vn -0.09210000187158585 0.9383999705314636 0.3330000042915344
v 0.07433599978685379 0.11099299788475037 0.013766000047326088
vn -0.35440000891685486 0.9180999994277954 -0.17730000615119934
v 0.03033299930393696 0.05281500145792961 0.013766000047326088
vt 0.375 0.44082099199295044
vn -0.9266999959945679 0.37299999594688416 -0.04650000110268593
f 42/43/42 43/9/43 44/44/44
f 42/43/42 44/44/44 14/14/14
vt 0.4318679869174957 0.0
vt 0.49633100628852844 0.0
v 0.12360800057649612 -0.18853500485420227 0.1796949952840805
vt 0.5 0.06749200820922852
vn -0.03620000183582306 -0.9455999732017517 0.32339999079704285
f 21/45/21 20/46/20 45/47/45
v 0.12258700281381607 -0.1936040073633194 0.065310999751091
vt 0.4335879981517792 0.06749200820922852
vn -0.09759999811649323 -0.989300012588501 -0.10819999873638153
f 21/45/21 45/47/45 46/48/46
v 0.1515740007162094 0.06167899817228317 0.1644050031900406
vt 0.5863639712333679 0.5674920082092285
vn -0.17110000550746918 0.9164999723434448 0.36160001158714294
v 0.15286999940872192 0.06633900105953217 0.09839200228452682
vt 0.5 0.5270729959011078
vn 0.035100001841783524 0.8956000208854675 0.44350001215934753
f 47/49/47 48/50/48 13/13/13
f 47/49/47 13/13/13 37/37/37
v 0.05788600072264671 -0.17031100392341614 0.15708400309085846
vt 0.5 0.25
vn -0.7203999757766724 -0.5425000190734863 0.43209999799728394
f 46/48/46 45/47/45 49/51/49
v 0.023654000833630562 -0.1808599978685379 0.06469599902629852
vt 0.4335879981517792 0.25
vn -0.7508999705314636 -0.6604999899864197 -0.00019999999494757503
f 46/48/46 49/51/49 50/52/50
f 26/26/26 33/33/33 32/32/32
f 26/26/26 32/32/32 27/27/27
f 16/42/16 28/41/28 3/41/3
v 0.17105700075626373 0.05436599999666214 0.20426000654697418
vt 0.625 0.5674920082092285
vn 0.22419999539852142 0.6500999927520752 0.7261000275611877
f 31/31/31 51/53/51 5/5/5
f 31/31/31 5/5/5 1/1/1
f 51/53/51 36/36/36 6/36/6
f 51/53/51 6/36/6 5/5/5
vt 0.625 0.9677110016345978
f 28/28/28 27/27/27 3/54/3
v 0.2093210071325302 -0.18490499258041382 0.013766000047326088
vt 0.375 0.0
vn 0.4982999861240387 -0.6703000068664551 -0.5498999953269958
v 0.10304699838161469 -0.17532500624656677 0.013766000047326088
vt 0.375 0.06749200820922852
vn -0.16609999537467957 -0.7820000052452087 -0.6007999777793884
v 0.09928400069475174 -0.13391700387001038 -0.0148930000141263
vn -0.10599999874830246 -0.33070001006126404 -0.9377999901771545
f 52/55/52 53/56/53 54/56/54
v 0.19690999388694763 -0.1494629979133606 -0.0148930000141263
vn 0.3441999852657318 -0.303600013256073 -0.8884999752044678
f 52/55/52 54/56/54 55/55/55
f 44/44/44 43/9/43 9/9/9
f 44/44/44 9/9/9 8/44/8
v 0.024306999519467354 -0.043191999197006226 0.013766000047326088
vt 0.375 0.3443300127983093
vn -0.9979000091552734 0.06440000236034393 -0.00930000003427267
f 56/57/56 44/44/44 8/44/8
f 56/57/56 8/44/8 7/57/7
f 18/18/18 39/39/39 38/38/38
f 18/18/18 38/38/38 25/25/25
v 0.11030799895524979 0.10425599664449692 0.01307899970561266
vt 0.375 0.6256510019302368
vn 0.2773999869823456 0.917900025844574 -0.28380000591278076
f 57/58/57 38/38/38 41/38/41
f 57/58/57 41/38/41 10/10/10
v 0.01841600053012371 -0.13704900443553925 0.013766000047326088
vt 0.375 0.25
vn -0.8159999847412109 -0.42320001125335693 -0.3937999904155731
v 0.02370999939739704 -0.09796500205993652 -0.0148930000141263
vn -0.6496000289916992 -0.1273999959230423 -0.7494999766349792
f 53/56/53 58/59/58 59/59/59
f 53/56/53 59/59/59 54/56/54
vt 0.375 0.9677099995315075
vt 0.375 0.9677110016345978
f 39/39/39 52/60/52 55/61/55
f 39/39/39 55/61/55 40/39/40
f 42/43/42 14/14/14 13/13/13
f 42/43/42 13/13/13 48/50/48
f 53/56/53 46/48/46 50/52/50
f 53/56/53 50/52/50 58/59/58
f 52/55/52 21/45/21 46/48/46
f 52/55/52 46/48/46 53/56/53
f 57/58/57 22/22/22 25/25/25
f 57/58/57 25/25/25 38/38/38
f 39/39/39 18/18/18 21/21/21
f 39/39/39 21/21/21 52/60/52
f 56/57/56 11/11/11 14/14/14
f 56/57/56 14/14/14 44/44/44
f 18/18/18 25/25/25 24/24/24
f 18/18/18 24/24/24 19/19/19
f 47/49/47 37/37/37 36/36/36
f 47/49/47 36/36/36 51/53/51
vt 0.503669023513794 0.0
f 20/62/20 29/40/29 15/15/15
f 20/62/20 15/15/15 45/47/45
f 12/12/12 34/34/34 37/37/37
f 12/12/12 37/37/37 13/13/13
f 23/23/23 30/30/30 33/33/33
f 23/23/23 33/33/33 24/24/24
f 19/19/19 26/26/26 29/29/29
f 19/19/19 29/29/29 20/20/20
f 45/47/45 15/15/15 17/17/17
f 45/47/45 17/17/17 49/51/49
f 27/27/27 32/32/32 4/4/4
vt 0.625 0.8528299927711487
f 27/27/27 4/4/4 3/63/3
vt 0.6733620166778564 0.49122798442840576
f 2/64/2 6/36/6 36/36/36
vt 0.751416027545929 0.5433849990367889
f 2/64/2 36/36/36 35/65/35
f 3/3/3 2/64/2 35/65/35
vt 0.875 0.6825079917907715
f 3/3/3 35/65/35 16/66/16
f 48/50/48 47/49/47 30/30/30
f 48/50/48 30/30/30 23/23/23
f 49/51/49 17/17/17 34/34/34
f 49/51/49 34/34/34 12/12/12
f 58/59/58 50/52/50 11/11/11
f 58/59/58 11/11/11 56/57/56
f 43/9/43 42/43/42 22/22/22
f 43/9/43 22/22/22 57/58/57
f 43/9/43 57/58/57 10/10/10
f 43/9/43 10/10/10 9/9/9
f 58/59/58 56/57/56 7/57/7
f 58/59/58 7/57/7 59/59/59
f 32/32/32 31/31/31 1/1/1
f 32/32/32 1/1/1 4/4/4
f 17/17/17 16/16/16 35/35/35
f 17/17/17 35/35/35 34/34/34
f 47/49/47 51/53/51 31/31/31
f 47/49/47 31/31/31 30/30/30
f 42/43/42 48/50/48 23/23/23
f 42/43/42 23/23/23 22/22/22
f 50/52/50 49/51/49 12/12/12
f 50/52/50 12/12/12 11/11/11
vt 0.125 0.5
f 59/67/59 7/7/7 10/10/10
f 59/67/59 10/10/10 41/38/41
vt 0.3427110016345978 0.75
f 59/67/59 41/38/41 40/68/40
vt 0.15728899836540222 0.75
f 59/67/59 40/68/40 55/69/55
vt 0.125 0.6825079917907715
f 59/67/59 55/69/55 54/70/54
o Box.COLLIDER##0#1#0#-1.0
g Box.COLLIDER##0#1#0#-1.0
v -0.020762000232934952 0.15921099483966827 0.0
vn 0.9753000140190125 0.22100000083446503 -0.0
v -0.020762000232934952 0.15921099483966827 0.18486499786376953
v 0.03215700015425682 -0.07431100308895111 0.18486499786376953
vt 0.625 0.25
f 60/55/60 61/41/60 62/71/60
v 0.03215700015425682 -0.07431100308895111 0.0
f 60/55/60 62/71/60 63/59/60
vn 0.22100000083446503 -0.9753000140190125 -0.0
v -0.20136499404907227 -0.1272290050983429 0.18486499786376953
vt 0.625 0.5
f 63/59/61 62/71/61 64/72/61
v -0.20136499404907227 -0.1272290050983429 0.0
vt 0.375 0.5
f 63/59/61 64/72/61 65/73/61
vn -0.9753000140190125 -0.22100000083446503 -0.0
v -0.25428301095962524 0.10629300028085709 0.18486499786376953
vt 0.625 0.75
f 65/73/62 64/72/62 66/74/62
v -0.25428301095962524 0.10629300028085709 0.0
vt 0.375 0.75
f 65/73/62 66/74/62 67/75/62
vn -0.22100000083446503 0.9753000140190125 -0.0
vt 0.625 1.0
f 67/75/63 66/74/63 61/76/63
vt 0.375 1.0
f 67/75/63 61/76/63 60/77/63
vn 0.0 -0.0 -1.0
f 63/67/64 65/73/64 67/75/64
vt 0.125 0.75
f 63/67/64 67/75/64 60/78/64
vn 0.0 -0.0 1.0
vt 0.875 0.5
vt 0.875 0.75
f 64/72/65 62/79/65 61/80/65
f 64/72/65 61/80/65 66/74/65
o Bag.COLLIDER.001##0#1#0#-1.0
g Bag.COLLIDER.001##0#1#0#-1.0
v 0.2896119952201843 0.03725099936127663 0.0
vn 0.9596999883651733 -0.2809000015258789 -0.0
v 0.2896119952201843 0.03725099936127663 0.18486499786376953
v 0.22236000001430511 -0.19255299866199493 0.18486499786376953
vt 0.625 0.2503330111503601
f 68/55/66 69/41/66 70/81/66
v 0.22236000001430511 -0.19255299866199493 0.0
vt 0.375 0.2503330111503601
f 68/55/66 70/81/66 71/82/66
vn -0.2809000015258789 -0.9596999883651733 -0.0
v 0.009739999659359455 -0.13032999634742737 0.18486499786376953
vt 0.6341800093650818 0.4908199906349182
f 71/82/67 70/81/67 72/83/67
v 0.009739999659359455 -0.13032999634742737 0.0
vt 0.3658199906349182 0.4908199906349182
f 71/82/67 72/83/67 73/84/67
vn -0.9596999883651733 0.2809000015258789 -0.0
v 0.07699199765920639 0.0994739979505539 0.18486499786376953
vt 0.6341800093650818 0.7591799944639206
f 73/84/68 72/83/68 74/85/68
v 0.07699199765920639 0.0994739979505539 0.0
vt 0.3658199906349182 0.7591799944639206
f 73/84/68 74/85/68 75/86/68
vn 0.2809000015258789 0.9596999883651733 -0.0
vt 0.625 0.999666999996407
f 75/86/69 74/85/69 69/87/69
vt 0.375 0.999666999996407
f 75/86/69 69/87/69 68/88/69
vt 0.1253329962491989 0.5
f 71/89/64 73/84/64 75/86/64
vt 0.1253329962491989 0.75
f 71/89/64 75/86/64 68/90/64
vt 0.8746669888496399 0.5
vt 0.8746669888496399 0.75
f 72/83/65 70/91/65 69/92/65
f 72/83/65 69/92/65 74/85/65
o Box##0#4#0#-1.0
g Box##0#4#0#-1.0
v -0.0317550003528595 0.14156299829483032 0.08344800025224686
vt 0.4874739944934845 0.0
vn 0.9707000255584717 0.2150000035762787 -0.10760000348091125
v -0.023365000262856483 0.1547279953956604 0.18548299372196198
v 0.02785700000822544 -0.07649999856948853 0.18548299372196198
f 76/93/70 77/41/70 78/71/70
v 0.014692000113427639 -0.06810999661684036 0.08344800025224686
vt 0.4874739944934845 0.25
f 76/93/70 78/71/70 79/94/70
vn 0.2150000035762787 -0.9707000255584717 -0.10760000348091125
v -0.20337100327014923 -0.12772199511528015 0.18548299372196198
f 79/94/71 78/71/71 80/72/71
v -0.19498099386692047 -0.11455699801445007 0.08344800025224686
vt 0.4874739944934845 0.5
f 79/94/71 80/72/71 81/95/71
vn -0.9707000255584717 -0.2150000035762787 -0.10760000348091125
v -0.25459301471710205 0.10350599884986877 0.18548299372196198
f 81/95/72 80/72/72 82/74/72
v -0.24142800271511078 0.09511599689722061 0.08344800025224686
vt 0.4874739944934845 0.75
f 81/95/72 82/74/72 83/96/72
vn -0.2150000035762787 0.9707000255584717 -0.10760000348091125
f 83/96/73 82/74/73 77/76/73
vt 0.4874739944934845 1.0
f 83/96/73 77/76/73 76/97/73
v 0.01990099996328354 -0.07142899930477142 0.0
v -0.19830000400543213 -0.11976499855518341 0.0
v -0.2466370016336441 0.09843499958515167 0.0
f 84/67/64 85/73/64 86/75/64
v -0.028435999527573586 0.14677199721336365 0.0
f 84/67/64 86/75/64 87/78/64
vn 0.9110000133514404 0.20180000364780426 0.3596999943256378
v -0.20115000009536743 -0.12423700094223022 0.1779019981622696
f 82/74/74 80/72/74 88/72/74
v -0.25110799074172974 0.10128500312566757 0.1779019981622696
f 82/74/74 88/72/74 89/74/74
vn -0.9110000133514404 -0.20180000364780426 0.3596999943256378
v -0.025585999712347984 0.15124300122261047 0.1779019981622696
f 78/71/75 77/41/75 90/41/75
v 0.024372000247240067 -0.07427900284528732 0.1779019981622696
f 78/71/75 90/41/75 91/71/75
vn 0.20180000364780426 -0.9110000133514404 0.3596999943256378
f 77/76/76 82/74/76 89/74/76
f 77/76/76 89/74/76 90/76/76
vn -0.20180000364780426 0.9110000133514404 0.3596999943256378
f 80/72/77 78/71/77 91/71/77
f 80/72/77 91/71/77 88/72/77
v -0.08018399775028229 -0.10043299943208694 0.20101399719715118
vt 0.0 0.0
vn -0.21629999577999115 0.9763000011444092 -0.0
v -0.20408600568771362 -0.1278800070285797 0.191429004073143
f 92/98/78 80/98/78 93/98/78
v -0.08089900016784668 -0.1005920022726059 0.20695899426937103
f 92/98/78 93/98/78 94/98/78
vn 0.614300012588501 0.13609999418258667 0.7771999835968018
v 0.030209999531507492 -0.07597900182008743 0.1835319995880127
f 77/41/79 78/71/79 95/71/79
v -0.021012000739574432 0.15524999797344208 0.1835319995880127
f 77/41/79 95/71/79 96/41/79
vn 0.1193000003695488 0.026399999856948853 -0.9925000071525574
v -0.25530800223350525 0.10334800183773041 0.191429004073143
v -0.1321209967136383 0.13063600659370422 0.20695899426937103
f 93/72/80 97/74/80 98/74/80
f 93/72/80 98/74/80 94/72/80
vn 0.21629999577999115 -0.9763000011444092 -0.0
v -0.1314059942960739 0.13079500198364258 0.20101399719715118
f 82/98/81 99/98/81 98/98/81
f 82/98/81 98/98/81 97/98/81
vn -0.968999981880188 -0.21469999849796295 -0.12219999730587006
f 99/98/82 92/98/82 94/98/82
f 99/98/82 94/98/82 98/98/82
vn 0.968999981880188 0.21469999849796295 0.12219999730587006
f 80/72/83 82/74/83 97/74/83
f 80/72/83 97/74/83 93/72/83
vn -0.7588000297546387 -0.1680999994277954 0.6291999816894531
v 0.10011500120162964 -0.060492999851703644 0.2719709873199463
f 96/41/84 95/71/84 100/71/84
v 0.048893000930547714 0.17073500156402588 0.2719709873199463
f 96/41/84 100/71/84 101/41/84
v 0.046539999544620514 0.1702139973640442 0.27392199635505676
f 102/98/81 77/98/81 96/98/81
f 102/98/81 96/98/81 101/98/81
v 0.09776200354099274 -0.061014000326395035 0.27392199635505676
vn -0.614300012588501 -0.13609999418258667 -0.7771999835968018
f 103/98/85 102/98/85 101/98/85
f 103/98/85 101/98/85 100/98/85
f 78/98/78 103/98/78 100/98/78
f 78/98/78 100/98/78 95/98/78
vn -0.2160000056028366 0.9750000238418579 0.052299998700618744
f 86/75/86 83/96/86 76/97/86
f 86/75/86 76/97/86 87/77/86
vn -0.9750000238418579 -0.2160000056028366 0.052299998700618744
f 85/73/87 81/95/87 83/96/87
f 85/73/87 83/96/87 86/75/87
vn 0.2160000056028366 -0.9750000238418579 0.052299998700618744
f 84/59/88 79/94/88 81/95/88
f 84/59/88 81/95/88 85/73/88
vn 0.9750000238418579 0.2160000056028366 0.052299998700618744
f 87/55/89 76/93/89 79/94/89
f 87/55/89 79/94/89 84/59/89
o Box##0#2#1#-1.0
g Box##0#2#1#-1.0
vn 0.9456999897956848 0.2094999998807907 0.24860000610351562
v -0.1778700053691864 -0.0877079963684082 0.05855099856853485
f 89/74/90 88/72/90 104/72/90
v -0.2145790010690689 0.07800500094890594 0.05855099856853485
f 89/74/90 104/72/90 105/74/90
v -0.012156999669969082 -0.050999000668525696 0.05855099856853485
v -0.04886600002646446 0.11471399664878845 0.05855099856853485
f 104/72/65 106/79/65 107/80/65
f 104/72/65 107/80/65 105/74/65
vn -0.9456999897956848 -0.2094999998807907 0.24860000610351562
f 91/71/91 90/41/91 107/41/91
f 91/71/91 107/41/91 106/71/91
vn 0.2094999998807907 -0.9456999897956848 0.24860000610351562
f 90/76/92 89/74/92 105/74/92
f 90/76/92 105/74/92 107/76/92
vn -0.2094999998807907 0.9456999897956848 0.24860000610351562
f 88/72/93 91/71/93 106/71/93
f 88/72/93 106/71/93 104/72/93
