# OBJ file
o __dotobj_group__##0#1#0#-1.0
g __dotobj_group__##0#1#0#-1.0
o rock3.COLLIDER_rock3##0#0#0#-1.0
g rock3.COLLIDER_rock3##0#0#0#-1.0
v -0.09596399962902069 0.0637739971280098 0.4159500002861023
vt 0.5 0.5
vn 0.25049999356269836 -0.30730000138282776 0.9180999994277954
v 0.007449999917298555 -0.2673160135746002 0.27691200375556946
vt 0.5 1.0
v 0.2105640023946762 -0.10177099704742432 0.27691200375556946
vt 0.06698700040578842 0.75
f 1/1/1 2/2/1 3/3/1
vn 0.413100004196167 0.0 0.9107000231742859
v 0.2105640023946762 0.2293190062046051 0.27691200375556946
vt 0.06698700040578842 0.25
f 1/1/2 3/3/2 4/4/2
vn 0.25049999356269836 0.30730000138282776 0.9180999994277954
v 0.007449999917298555 0.3948630094528198 0.27691200375556946
vt 0.5 0.0
f 1/1/3 4/4/3 5/5/3
vn -0.37139999866485596 0.45570001006126404 0.808899998664856
v -0.19566300511360168 0.2293190062046051 0.27691200375556946
vt 0.9330130219459534 0.25
f 1/1/4 5/5/4 6/6/4
vn -0.8126999735832214 0.0 0.5827000141143799
v -0.19566300511360168 -0.10177099704742432 0.27691200375556946
vt 0.9330130219459534 0.75
f 1/1/5 6/6/5 7/7/5
vn -0.37139999866485596 -0.45570001006126404 0.808899998664856
f 1/1/6 7/7/6 2/2/6
v -0.19566300511360168 0.2293190062046051 -0.037735000252723694
vn -1.0 0.0 0.0
v -0.19566300511360168 -0.10177099704742432 -0.037735000252723694
f 8/6/7 9/7/7 7/7/7
f 8/6/7 7/7/7 6/6/7
v 0.007449999917298555 0.3948630094528198 -0.037735000252723694
vn -0.6317999958992004 0.7752000093460083 -0.0
f 10/5/8 8/6/8 6/6/8
f 10/5/8 6/6/8 5/5/8
v 0.2105640023946762 0.2293190062046051 -0.037735000252723694
vn 0.6317999958992004 0.7752000093460083 -0.0
f 11/4/9 10/5/9 5/5/9
f 11/4/9 5/5/9 4/4/9
v 0.2105640023946762 -0.10177099704742432 -0.037735000252723694
vn 1.0 0.0 0.0
f 12/3/10 11/4/10 4/4/10
f 12/3/10 4/4/10 3/3/10
vn -0.6317999958992004 -0.7750999927520752 0.0
v 0.007449999917298555 -0.2673160135746002 -0.037735000252723694
f 9/7/11 13/2/11 2/2/11
f 9/7/11 2/2/11 7/7/11
vn 0.6317999958992004 -0.7752000093460083 0.0
f 13/2/12 12/3/12 3/3/12
f 13/2/12 3/3/12 2/2/12
o rock3redux.RAND_Cube.328##0#1#0#-1.0
g rock3redux.RAND_Cube.328##0#1#0#-1.0
v 0.21542100608348846 0.05789899826049805 0.14207300543785095
vt 0.5 0.125
vn 0.9973000288009644 -0.002300000051036477 0.0738999992609024
v 0.12740099430084229 0.030314000323414803 0.31742000579833984
vt 0.625 0.125
vn 0.6496000289916992 -0.01510000042617321 0.7601000070571899
v 0.2318360060453415 -0.10754799842834473 0.27397599816322327
vt 0.625 0.25
vn 0.789900004863739 -0.2071000039577484 0.5771999955177307
f 14/8/13 15/9/14 16/10/15
v 0.21794000267982483 -0.20971499383449554 0.14207300543785095
vt 0.5 0.25
vn 0.7990000247955322 -0.5920000076293945 0.10530000180006027
f 14/8/13 16/10/15 17/11/16
v 0.07643800228834152 -0.28953298926353455 0.11219999939203262
vt 0.5 0.375
vn 0.0689999982714653 -0.9962999820709229 -0.05079999938607216
v -0.0 -0.1604509949684143 0.35161200165748596
vt 0.625 0.375
vn 0.037700001150369644 -0.6046000123023987 0.7957000136375427
v -0.12078999727964401 -0.14922599494457245 0.3301590085029602
vt 0.625 0.5
vn -0.6801999807357788 -0.5414999723434448 0.49410000443458557
f 18/12/17 19/13/18 20/14/19
v -0.1417039930820465 -0.22051000595092773 0.14207300543785095
vn -0.6915000081062317 -0.7200999855995178 -0.05779999867081642
f 18/12/17 20/14/19 21/1/20
v -0.18010200560092926 0.1173119992017746 0.14207300543785095
vt 0.5 0.625
vn -0.996999979019165 -0.04729999974370003 0.06210000067949295
v -0.17413100600242615 0.07229399681091309 0.3388020098209381
vt 0.625 0.625
vn -0.8781999945640564 0.04659999907016754 0.47600001096725464
v -0.09675700217485428 0.25887298583984375 0.28052499890327454
vt 0.625 0.75
vn -0.754800021648407 0.47130000591278076 0.4562000036239624
f 22/15/21 23/16/22 24/17/23
v -0.20624299347400665 0.279092013835907 0.14207300543785095
vt 0.5 0.75
vn -0.904699981212616 0.42489999532699585 0.030700000002980232
f 22/15/21 24/17/23 25/18/24
v -0.003567999927327037 0.43827900290489197 0.10440400242805481
vt 0.5 0.875
vn -0.1436000019311905 0.9861999750137329 -0.08229999989271164
v -0.0 0.34618300199508667 0.36256301403045654
vt 0.625 0.875
vn -0.09160000085830688 0.6553999781608582 0.7497000098228455
v 0.13545900583267212 0.3084909915924072 0.3483160138130188
vt 0.625 1.0
vn 0.6003999710083008 0.39800000190734863 0.6935999989509583
f 26/19/25 27/20/26 28/21/27
v 0.2541080117225647 0.32144099473953247 0.14207300543785095
vn 0.8748000264167786 0.4821999967098236 0.04659999907016754
f 26/19/25 28/21/27 29/2/28
v 0.021903999149799347 -0.01743200048804283 -0.13832899928092957
vt 0.25 0.625
vn -0.027799999341368675 -0.04100000113248825 -0.9987999796867371
v -0.1220880001783371 0.07284899801015854 -0.04483199864625931
vt 0.375 0.625
vn -0.7554000020027161 -0.05959999933838844 -0.6525999903678894
v -0.17842400074005127 0.21378499269485474 -0.01975799910724163
vt 0.375 0.75
vn -0.8173999786376953 0.17630000412464142 -0.5483999848365784
f 30/22/29 31/23/30 32/24/31
v -0.0 0.32553398609161377 -0.08070900291204453
vt 0.25 0.75
vn -0.07209999859333038 0.5806000232696533 -0.8109999895095825
f 30/22/29 32/24/31 33/25/32
v -0.1019660010933876 0.03967300057411194 0.42434099316596985
vt 0.75 0.625
vn -0.2572000026702881 -0.041099999099969864 0.965499997138977
vt 0.875 0.625
vt 0.875 0.75
f 34/26/33 15/27/14 28/28/27
vt 0.75 0.75
f 34/26/33 28/28/27 27/29/26
vt 0.375 0.875
f 33/30/32 26/19/25 29/2/28
v 0.22295600175857544 0.279092013835907 -0.0028150000143796206
vt 0.375 1.0
vn 0.7462999820709229 0.3287000060081482 -0.5788000226020813
f 33/30/32 29/2/28 35/31/34
f 31/23/30 22/15/21 25/18/24
f 31/23/30 25/18/24 32/24/31
v 0.09165400266647339 -0.13834400475025177 -0.09922800213098526
vt 0.375 0.375
vn 0.17900000512599945 -0.4323999881744385 -0.8837000131607056
f 36/32/35 18/12/17 21/1/20
v -0.178630992770195 -0.12643800675868988 -0.008024999871850014
vt 0.375 0.5
vn -0.7742000222206116 -0.37130001187324524 -0.5126000046730042
f 36/32/35 21/1/20 37/33/36
v 0.16280600428581238 0.03665800020098686 -0.03737200051546097
vt 0.375 0.125
vn 0.7741000056266785 0.043800000101327896 -0.6315000057220459
f 38/34/37 14/8/13 17/11/16
v 0.20624299347400665 -0.17308500409126282 -0.02450699917972088
vt 0.375 0.25
vn 0.7542999982833862 -0.3977000117301941 -0.5224000215530396
f 38/34/37 17/11/16 39/35/38
f 39/35/38 17/11/16 18/12/17
f 39/35/38 18/12/17 36/32/35
f 32/24/31 25/18/24 26/19/25
f 32/24/31 26/19/25 33/30/32
f 23/16/22 34/26/33 27/29/26
f 23/16/22 27/29/26 24/17/23
vt 0.125 0.625
f 38/36/37 30/22/29 33/25/32
vt 0.125 0.75
f 38/36/37 33/25/32 35/37/34
f 25/18/24 24/17/23 27/20/26
f 25/18/24 27/20/26 26/19/25
f 17/11/16 16/10/15 19/13/18
f 17/11/16 19/13/18 18/12/17
vt 0.125 0.5
vt 0.25 0.5
f 39/38/38 36/39/35 30/22/29
f 39/38/38 30/22/29 38/36/37
vt 0.75 0.5
f 20/14/19 19/40/18 34/26/33
f 20/14/19 34/26/33 23/16/22
vt 0.375 0.0
f 35/41/34 29/5/28 14/8/13
f 35/41/34 14/8/13 38/34/37
f 37/33/36 21/1/20 22/15/21
f 37/33/36 22/15/21 31/23/30
vt 0.875 0.5
f 19/40/18 16/42/15 15/27/14
f 19/40/18 15/27/14 34/26/33
f 36/39/35 37/33/36 31/23/30
f 36/39/35 31/23/30 30/22/29
f 21/1/20 20/14/19 23/16/22
f 21/1/20 23/16/22 22/15/21
vt 0.625 0.0
f 29/5/28 28/43/27 15/9/14
f 29/5/28 15/9/14 14/8/13
