# OBJ file
o __dotobj_group__##0#1#0#-1.0
g __dotobj_group__##0#1#0#-1.0
o Cube_Cube.001##0#0#0#-1.0
g Cube_Cube.001##0#0#0#-1.0
v -0.43134599924087524 -0.32635900378227234 -0.07709699869155884
vt 0.375 0.7403849959373474
vn -1.0 0.0 -0.0
v -0.43134599924087524 -0.32635799050331116 -0.0005039999959990382
vt 0.625 0.7403849959373474
v -0.43134599924087524 0.005142999812960625 0.00939400028437376
vt 0.625 0.75
f 1/1/1 2/2/1 3/3/1
v -0.43134599924087524 0.005142999812960625 -0.06719899922609329
vt 0.375 0.75
f 1/1/1 3/3/1 4/4/1
vn -0.0 1.0 0.0
v 0.43134599924087524 0.005142999812960625 0.00939400028437376
vt 0.625 1.0
f 4/4/2 3/3/2 5/5/2
v 0.43134599924087524 0.005142999812960625 -0.06719899922609329
vt 0.375 1.0
f 4/4/2 5/5/2 6/6/2
v 0.43134599924087524 -0.32635799050331116 -0.07709699869155884
vt 0.125 0.7403849959373474
vn -0.0 0.02979999966919422 -0.9995999932289124
f 7/7/3 1/1/3 4/4/3
vt 0.125 0.75
f 7/7/3 4/4/3 6/8/3
vn -0.0 -0.02979999966919422 0.9995999932289124
v 0.43134599924087524 -0.32635900378227234 -0.0005039999959990382
vt 0.875 0.7403849959373474
vt 0.875 0.75
f 2/2/4 8/9/4 5/10/4
f 2/2/4 5/10/4 3/3/4
v 0.43134599924087524 -4.3043718338012695 -0.4347909986972809
vt 0.625 0.125
vn -0.0 -1.0 0.0
v -0.43134599924087524 -4.3043718338012695 -0.4347909986972809
vt 0.625 0.625
v -0.43134599924087524 -4.3043718338012695 -0.5113840103149414
vt 0.375 0.625
f 9/11/5 10/12/5 11/13/5
v 0.43134599924087524 -4.3043718338012695 -0.5113840103149414
vt 0.375 0.125
f 9/11/5 11/13/5 12/14/5
v 0.43134599924087524 -3.972870111465454 -0.49613499641418457
vt 0.375 0.11538499593734741
vn 1.0 0.0 0.0
v 0.43134599924087524 -3.972870111465454 -0.41954201459884644
vt 0.625 0.11538499593734741
f 13/15/6 14/16/6 9/11/6
f 13/15/6 9/11/6 12/14/6
vt 0.375 0.0
vt 0.625 0.0
vt 0.625 0.009615004062652588
f 6/17/6 5/18/6 8/19/6
vt 0.375 0.009615004062652588
f 6/17/6 8/19/6 7/20/6
v 0.43134599924087524 -0.6578599810600281 -0.0841900035738945
vt 0.625 0.019231021404266357
f 7/20/6 8/19/6 15/21/6
v 0.43134599924087524 -0.6578599810600281 -0.16078299283981323
vt 0.375 0.019231021404266357
f 7/20/6 15/21/6 16/22/6
v 0.43134599924087524 -0.9893609881401062 -0.20117700099945068
vt 0.625 0.028846025466918945
f 16/22/6 15/21/6 17/23/6
v 0.43134599924087524 -0.9893609881401062 -0.2777700126171112
vt 0.375 0.028846025466918945
f 16/22/6 17/23/6 18/24/6
v 0.43134599924087524 -1.320862054824829 -0.3106270134449005
vt 0.625 0.03846198320388794
f 18/24/6 17/23/6 19/25/6
v 0.43134599924087524 -1.320862054824829 -0.38721999526023865
vt 0.375 0.03846198320388794
f 18/24/6 19/25/6 20/26/6
v 0.43134599924087524 -1.6523629426956177 -0.4028339982032776
vt 0.625 0.04807698726654053
f 20/26/6 19/25/6 21/27/6
v 0.43134599924087524 -1.6523629426956177 -0.4794270098209381
vt 0.375 0.04807698726654053
f 20/26/6 21/27/6 22/28/6
v 0.43134599924087524 -1.9838639497756958 -0.4778749942779541
vt 0.625 0.057691991329193115
f 22/28/6 21/27/6 23/29/6
v 0.43134599924087524 -1.9838639497756958 -0.5544670224189758
vt 0.375 0.057691991329193115
f 22/28/6 23/29/6 24/30/6
v 0.43134599924087524 -2.3153650760650635 -0.5067160129547119
vt 0.625 0.06730800867080688
f 24/30/6 23/29/6 25/31/6
v 0.43134599924087524 -2.3153650760650635 -0.5833079814910889
vt 0.375 0.06730800867080688
f 24/30/6 25/31/6 26/32/6
v 0.43134599924087524 -2.6468660831451416 -0.5207129716873169
vt 0.625 0.07692301273345947
f 26/32/6 25/31/6 27/33/6
v 0.43134599924087524 -2.6468660831451416 -0.5973060131072998
vt 0.375 0.07692301273345947
f 26/32/6 27/33/6 28/34/6
v 0.43134599924087524 -2.9783670902252197 -0.49782899022102356
vt 0.625 0.08653801679611206
f 28/34/6 27/33/6 29/35/6
v 0.43134599924087524 -2.9783670902252197 -0.5744220018386841
vt 0.375 0.08653801679611206
f 28/34/6 29/35/6 30/36/6
v 0.43134599924087524 -3.3098690509796143 -0.46761301159858704
vt 0.625 0.09615397453308105
f 30/36/6 29/35/6 31/37/6
v 0.43134599924087524 -3.309868097305298 -0.5442060232162476
vt 0.375 0.09615397453308105
f 30/36/6 31/37/6 32/38/6
v 0.43134599924087524 -3.6413700580596924 -0.436273992061615
vt 0.625 0.10576897859573364
f 32/38/6 31/37/6 33/39/6
v 0.43134599924087524 -3.641369104385376 -0.5128669738769531
vt 0.375 0.10576897859573364
f 32/38/6 33/39/6 34/40/6
f 34/40/6 33/39/6 14/16/6
f 34/40/6 14/16/6 13/15/6
vn -0.0 -0.045899998396635056 0.9988999962806702
vt 0.875 0.625
vt 0.875 0.6346150040626526
f 10/12/7 9/41/7 14/42/7
v -0.43134599924087524 -3.972870111465454 -0.41954201459884644
vt 0.625 0.6346150040626526
f 10/12/7 14/42/7 35/43/7
vn -0.0 0.05040000006556511 0.9987000226974487
vt 0.875 0.644230991601944
f 35/43/8 14/42/8 33/44/8
v -0.43134599924087524 -3.641369104385376 -0.436273992061615
vt 0.625 0.644230991601944
f 35/43/8 33/44/8 36/45/8
vn 0.0 0.0940999984741211 0.9955999851226807
vt 0.875 0.6538459956645966
f 36/45/9 33/44/9 31/46/9
v -0.43134599924087524 -3.309868097305298 -0.46761301159858704
vt 0.625 0.6538459956645966
f 36/45/9 31/46/9 37/47/9
vn 0.0 0.09080000221729279 0.9958999752998352
vt 0.875 0.6634620130062103
f 37/47/10 31/46/10 29/48/10
v -0.43134599924087524 -2.9783670902252197 -0.49782899022102356
vt 0.625 0.6634620130062103
f 37/47/10 29/48/10 38/49/10
vn 0.0 0.06889999657869339 0.9976000189781189
vt 0.875 0.6730769872665405
f 38/49/11 29/48/11 27/50/11
v -0.43134599924087524 -2.6468660831451416 -0.5207129716873169
vt 0.625 0.6730769872665405
f 38/49/11 27/50/11 39/51/11
vn -0.0 -0.0421999990940094 0.9991000294685364
vt 0.875 0.6826919913291931
f 39/51/12 27/50/12 25/52/12
v -0.43134599924087524 -2.3153650760650635 -0.5067160129547119
vt 0.625 0.6826919913291931
f 39/51/12 25/52/12 40/53/12
vn -0.0 -0.08669999986886978 0.9962000250816345
vt 0.875 0.6923080086708069
f 40/53/13 25/52/13 23/54/13
v -0.43134599924087524 -1.9838639497756958 -0.4778749942779541
vt 0.625 0.6923080086708069
f 40/53/13 23/54/13 41/55/13
vn -0.0 -0.2207999974489212 0.9753000140190125
vt 0.875 0.7019230127334595
f 41/55/14 23/54/14 21/56/14
v -0.43134599924087524 -1.6523629426956177 -0.4028339982032776
vt 0.625 0.7019230127334595
f 41/55/14 21/56/14 42/57/14
vn -0.0 -0.2680000066757202 0.9634000062942505
vt 0.875 0.7115379869937897
f 42/57/15 21/56/15 19/58/15
v -0.43134599924087524 -1.320862054824829 -0.3106270134449005
vt 0.625 0.7115379869937897
f 42/57/15 19/58/15 43/59/15
vn -0.0 -0.31349998712539673 0.9495999813079834
vt 0.875 0.7211540043354034
f 43/59/16 19/58/16 17/60/16
v -0.43134599924087524 -0.9893609881401062 -0.20117700099945068
vt 0.625 0.7211540043354034
f 43/59/16 17/60/16 44/61/16
vn -0.0 -0.3328000009059906 0.9430000185966492
vt 0.875 0.730769008398056
f 44/61/17 17/60/17 15/62/17
v -0.43134599924087524 -0.6578599810600281 -0.0841900035738945
vt 0.625 0.730769008398056
f 44/61/17 15/62/17 45/63/17
vn -0.0 -0.24480000138282776 0.9696000218391418
f 45/63/18 15/62/18 8/9/18
f 45/63/18 8/9/18 2/2/18
vt 0.125 0.625
vn -0.0 0.045899998396635056 -0.9988999962806702
v -0.43134599924087524 -3.972870111465454 -0.49613499641418457
vt 0.375 0.6346150040626526
f 12/64/19 11/13/19 46/65/19
vt 0.125 0.6346150040626526
f 12/64/19 46/65/19 13/66/19
vn -0.0 -0.05040000006556511 -0.9987000226974487
v -0.43134599924087524 -3.6413700580596924 -0.5128669738769531
vt 0.375 0.644230991601944
f 13/66/20 46/65/20 47/67/20
vt 0.125 0.644230991601944
f 13/66/20 47/67/20 34/68/20
vn 0.0 -0.0940999984741211 -0.9955999851226807
v -0.43134599924087524 -3.3098690509796143 -0.5442060232162476
vt 0.375 0.6538459956645966
f 34/68/21 47/67/21 48/69/21
vt 0.125 0.6538459956645966
f 34/68/21 48/69/21 32/70/21
vn 0.0 -0.09080000221729279 -0.9958999752998352
v -0.43134599924087524 -2.9783670902252197 -0.5744220018386841
vt 0.375 0.6634620130062103
f 32/70/22 48/69/22 49/71/22
vt 0.125 0.6634620130062103
f 32/70/22 49/71/22 30/72/22
vn 0.0 -0.06889999657869339 -0.9976000189781189
v -0.43134599924087524 -2.6468660831451416 -0.5973060131072998
vt 0.375 0.6730769872665405
f 30/72/23 49/71/23 50/73/23
vt 0.125 0.6730769872665405
f 30/72/23 50/73/23 28/74/23
vn -0.0 0.0421999990940094 -0.9991000294685364
v -0.43134599924087524 -2.3153650760650635 -0.5833079814910889
vt 0.375 0.6826919913291931
f 28/74/24 50/73/24 51/75/24
vt 0.125 0.6826919913291931
f 28/74/24 51/75/24 26/76/24
vn -0.0 0.08669999986886978 -0.9962000250816345
v -0.43134599924087524 -1.9838639497756958 -0.5544670224189758
vt 0.375 0.6923080086708069
f 26/76/25 51/75/25 52/77/25
vt 0.125 0.6923080086708069
f 26/76/25 52/77/25 24/78/25
vn -0.0 0.2207999974489212 -0.9753000140190125
v -0.43134599924087524 -1.6523629426956177 -0.4794270098209381
vt 0.375 0.7019230127334595
f 24/78/26 52/77/26 53/79/26
vt 0.125 0.7019230127334595
f 24/78/26 53/79/26 22/80/26
vn -0.0 0.2680000066757202 -0.9634000062942505
v -0.43134599924087524 -1.320862054824829 -0.38721999526023865
vt 0.375 0.7115379869937897
f 22/80/27 53/79/27 54/81/27
vt 0.125 0.7115379869937897
f 22/80/27 54/81/27 20/82/27
vn -0.0 0.31349998712539673 -0.9495999813079834
v -0.43134599924087524 -0.9893609881401062 -0.2777700126171112
vt 0.375 0.7211540043354034
f 20/82/28 54/81/28 55/83/28
vt 0.125 0.7211540043354034
f 20/82/28 55/83/28 18/84/28
vn -0.0 0.3328000009059906 -0.9430000185966492
v -0.43134599924087524 -0.6578599810600281 -0.16078199446201324
vt 0.375 0.730769008398056
f 18/84/29 55/83/29 56/85/29
vt 0.125 0.730769008398056
f 18/84/29 56/85/29 16/86/29
vn -0.0 0.24480000138282776 -0.9696000218391418
f 16/86/30 56/85/30 1/1/30
f 16/86/30 1/1/30 7/7/30
f 11/13/1 10/12/1 35/43/1
f 11/13/1 35/43/1 46/65/1
f 46/65/1 35/43/1 36/45/1
f 46/65/1 36/45/1 47/67/1
f 47/67/1 36/45/1 37/47/1
f 47/67/1 37/47/1 48/69/1
f 48/69/1 37/47/1 38/49/1
f 48/69/1 38/49/1 49/71/1
f 49/71/1 38/49/1 39/51/1
f 49/71/1 39/51/1 50/73/1
f 50/73/1 39/51/1 40/53/1
f 50/73/1 40/53/1 51/75/1
f 51/75/1 40/53/1 41/55/1
f 51/75/1 41/55/1 52/77/1
f 52/77/1 41/55/1 42/57/1
f 52/77/1 42/57/1 53/79/1
f 53/79/1 42/57/1 43/59/1
f 53/79/1 43/59/1 54/81/1
f 54/81/1 43/59/1 44/61/1
f 54/81/1 44/61/1 55/83/1
f 55/83/1 44/61/1 45/63/1
f 55/83/1 45/63/1 56/85/1
f 56/85/1 45/63/1 2/2/1
f 56/85/1 2/2/1 1/1/1
o Cube.001_Cube.002##0#0#0#-1.0
g Cube.001_Cube.002##0#0#0#-1.0
v -0.44167500734329224 -0.05093099921941757 -0.06362099945545197
v -0.44167500734329224 -0.05093099921941757 0.4719949960708618
v -0.44167500734329224 -0.10856100171804428 0.4719949960708618
vt 0.625 0.25
f 57/17/6 58/18/6 59/87/6
v -0.44167500734329224 -0.10856100171804428 -0.06362099945545197
vt 0.375 0.25
f 57/17/6 59/87/6 60/88/6
v -0.505295991897583 -0.151637002825737 -0.06362099945545197
vt 0.375 0.375
vn -0.560699999332428 -0.828000009059906 0.0
v -0.505295991897583 -0.151637002825737 0.4719949960708618
vt 0.625 0.375
v -0.5689169764518738 -0.10856100171804428 0.4719949960708618
vt 0.625 0.5
f 61/89/31 62/90/31 63/91/31
v -0.5689169764518738 -0.10856100171804428 -0.06362099945545197
vt 0.375 0.5
f 61/89/31 63/91/31 64/92/31
v -0.5689169764518738 -0.05093099921941757 0.4719949960708618
f 64/92/1 63/91/1 65/3/1
v -0.5689169764518738 -0.05093099921941757 -0.06362099945545197
f 64/92/1 65/3/1 66/4/1
v -0.505295991897583 -0.007853999733924866 -0.06362099945545197
vt 0.375 0.875
vn 0.560699999332428 0.828000009059906 0.0
v -0.505295991897583 -0.007853999733924866 0.4719949960708618
vt 0.625 0.875
f 67/93/32 68/94/32 58/5/32
f 67/93/32 58/5/32 57/6/32
vt 0.25 0.5
vn -0.0 0.0 -1.0
f 61/95/33 64/92/33 66/4/33
vt 0.25 0.75
f 61/95/33 66/4/33 67/96/33
vt 0.75 0.5
vn -0.0 0.0 1.0
vt 0.875 0.5
f 62/97/34 59/98/34 58/10/34
vt 0.75 0.75
f 62/97/34 58/10/34 68/99/34
f 63/91/34 62/97/34 68/99/34
f 63/91/34 68/99/34 65/3/34
vt 0.125 0.5
f 60/100/33 61/95/33 67/96/33
f 60/100/33 67/96/33 57/8/33
vn -0.560699999332428 0.828000009059906 0.0
f 66/4/35 65/3/35 68/94/35
f 66/4/35 68/94/35 67/93/35
vn 0.560699999332428 -0.828000009059906 0.0
f 60/88/36 59/87/36 62/90/36
f 60/88/36 62/90/36 61/89/36
o Cube.002_Cube.003##0#0#0#-1.0
g Cube.002_Cube.003##0#0#0#-1.0
v 0.5795279741287231 -0.05093099921941757 -0.06362099945545197
v 0.5795279741287231 -0.05093099921941757 0.4719949960708618
v 0.5795279741287231 -0.10856100171804428 0.4719949960708618
f 69/17/6 70/18/6 71/87/6
v 0.5795279741287231 -0.10856100171804428 -0.06362099945545197
f 69/17/6 71/87/6 72/88/6
v 0.5159069895744324 -0.151637002825737 -0.06362099945545197
v 0.5159069895744324 -0.151637002825737 0.4719949960708618
v 0.4522860050201416 -0.10856100171804428 0.4719949960708618
f 73/89/31 74/90/31 75/91/31
v 0.4522860050201416 -0.10856100171804428 -0.06362099945545197
f 73/89/31 75/91/31 76/92/31
v 0.4522860050201416 -0.05093099921941757 0.4719949960708618
f 76/92/1 75/91/1 77/3/1
v 0.4522860050201416 -0.05093099921941757 -0.06362099945545197
f 76/92/1 77/3/1 78/4/1
v 0.5159069895744324 -0.007853999733924866 -0.06362099945545197
v 0.5159069895744324 -0.007853999733924866 0.4719949960708618
f 79/93/32 80/94/32 70/5/32
f 79/93/32 70/5/32 69/6/32
f 73/95/33 76/92/33 78/4/33
f 73/95/33 78/4/33 79/96/33
f 74/97/34 71/98/34 70/10/34
f 74/97/34 70/10/34 80/99/34
f 75/91/34 74/97/34 80/99/34
f 75/91/34 80/99/34 77/3/34
f 72/100/33 73/95/33 79/96/33
f 72/100/33 79/96/33 69/8/33
f 78/4/35 77/3/35 80/94/35
f 78/4/35 80/94/35 79/93/35
f 72/88/36 71/87/36 74/90/36
f 72/88/36 74/90/36 73/89/36
o Cube.003_Cube.004##0#0#0#-1.0
g Cube.003_Cube.004##0#0#0#-1.0
v -0.44167500734329224 -4.2013630867004395 -0.5270580053329468
v -0.44167500734329224 -4.2013630867004395 0.008557000197470188
v -0.44167500734329224 -4.258993148803711 0.008557000197470188
f 81/17/6 82/18/6 83/87/6
v -0.44167500734329224 -4.258993148803711 -0.5270580053329468
f 81/17/6 83/87/6 84/88/6
v -0.505295991897583 -4.302069187164307 -0.5270580053329468
vn -0.560699999332428 -0.8281000256538391 0.0
v -0.505295991897583 -4.302069187164307 0.008557000197470188
v -0.5689169764518738 -4.258993148803711 0.008557000197470188
f 85/89/37 86/90/37 87/91/37
v -0.5689169764518738 -4.258993148803711 -0.5270580053329468
f 85/89/37 87/91/37 88/92/37
v -0.5689169764518738 -4.2013630867004395 0.008557000197470188
f 88/92/1 87/91/1 89/3/1
v -0.5689169764518738 -4.2013630867004395 -0.5270580053329468
f 88/92/1 89/3/1 90/4/1
v -0.505295991897583 -4.158287048339844 -0.5270580053329468
v -0.505295991897583 -4.158287048339844 0.008557000197470188
f 91/93/32 92/94/32 82/5/32
f 91/93/32 82/5/32 81/6/32
f 85/95/33 88/92/33 90/4/33
f 85/95/33 90/4/33 91/96/33
f 86/97/34 83/98/34 82/10/34
f 86/97/34 82/10/34 92/99/34
f 87/91/34 86/97/34 92/99/34
f 87/91/34 92/99/34 89/3/34
f 84/100/33 85/95/33 91/96/33
f 84/100/33 91/96/33 81/8/33
f 90/4/35 89/3/35 92/94/35
f 90/4/35 92/94/35 91/93/35
vn 0.560699999332428 -0.8281000256538391 0.0
f 84/88/38 83/87/38 86/90/38
f 84/88/38 86/90/38 85/89/38
o Cube.004_Cube.005##0#0#0#-1.0
g Cube.004_Cube.005##0#0#0#-1.0
v 0.5795279741287231 -4.2013630867004395 -0.5270580053329468
v 0.5795279741287231 -4.2013630867004395 0.008557000197470188
v 0.5795279741287231 -4.258993148803711 0.008557000197470188
f 93/17/6 94/18/6 95/87/6
v 0.5795279741287231 -4.258993148803711 -0.5270580053329468
f 93/17/6 95/87/6 96/88/6
v 0.5159069895744324 -4.302069187164307 -0.5270580053329468
v 0.5159069895744324 -4.302069187164307 0.008557000197470188
v 0.4522860050201416 -4.258993148803711 0.008557000197470188
f 97/89/37 98/90/37 99/91/37
v 0.4522860050201416 -4.258993148803711 -0.5270580053329468
f 97/89/37 99/91/37 100/92/37
v 0.4522860050201416 -4.2013630867004395 0.008557000197470188
f 100/92/1 99/91/1 101/3/1
v 0.4522860050201416 -4.2013630867004395 -0.5270580053329468
f 100/92/1 101/3/1 102/4/1
v 0.5159069895744324 -4.158287048339844 -0.5270580053329468
v 0.5159069895744324 -4.158287048339844 0.008557000197470188
f 103/93/32 104/94/32 94/5/32
f 103/93/32 94/5/32 93/6/32
f 97/95/33 100/92/33 102/4/33
f 97/95/33 102/4/33 103/96/33
f 98/97/34 95/98/34 94/10/34
f 98/97/34 94/10/34 104/99/34
f 99/91/34 98/97/34 104/99/34
f 99/91/34 104/99/34 101/3/34
f 96/100/33 97/95/33 103/96/33
f 96/100/33 103/96/33 93/8/33
f 102/4/35 101/3/35 104/94/35
f 102/4/35 104/94/35 103/93/35
f 96/88/38 95/87/38 98/90/38
f 96/88/38 98/90/38 97/89/38
o bridge.COLLIDER_Cube.006##0#0#0#-1.0
g bridge.COLLIDER_Cube.006##0#0#0#-1.0
f 1/1/1 2/2/1 3/3/1
f 1/1/1 3/3/1 4/4/1
f 4/4/2 3/3/2 5/5/2
f 4/4/2 5/5/2 6/6/2
f 7/7/3 1/1/3 4/4/3
f 7/7/3 4/4/3 6/8/3
f 2/2/4 8/9/4 5/10/4
f 2/2/4 5/10/4 3/3/4
f 9/11/5 10/12/5 11/13/5
f 9/11/5 11/13/5 12/14/5
f 13/15/6 14/16/6 9/11/6
f 13/15/6 9/11/6 12/14/6
f 6/17/6 5/18/6 8/19/6
f 6/17/6 8/19/6 7/20/6
f 7/20/6 8/19/6 15/21/6
f 7/20/6 15/21/6 16/22/6
f 16/22/6 15/21/6 17/23/6
f 16/22/6 17/23/6 18/24/6
f 18/24/6 17/23/6 19/25/6
f 18/24/6 19/25/6 20/26/6
f 20/26/6 19/25/6 21/27/6
f 20/26/6 21/27/6 22/28/6
f 22/28/6 21/27/6 23/29/6
f 22/28/6 23/29/6 24/30/6
f 24/30/6 23/29/6 25/31/6
f 24/30/6 25/31/6 26/32/6
f 26/32/6 25/31/6 27/33/6
f 26/32/6 27/33/6 28/34/6
f 28/34/6 27/33/6 29/35/6
f 28/34/6 29/35/6 30/36/6
f 30/36/6 29/35/6 31/37/6
f 30/36/6 31/37/6 32/38/6
f 32/38/6 31/37/6 33/39/6
f 32/38/6 33/39/6 34/40/6
f 34/40/6 33/39/6 14/16/6
f 34/40/6 14/16/6 13/15/6
f 10/12/7 9/41/7 14/42/7
f 10/12/7 14/42/7 35/43/7
f 35/43/8 14/42/8 33/44/8
f 35/43/8 33/44/8 36/45/8
f 36/45/9 33/44/9 31/46/9
f 36/45/9 31/46/9 37/47/9
f 37/47/10 31/46/10 29/48/10
f 37/47/10 29/48/10 38/49/10
f 38/49/11 29/48/11 27/50/11
f 38/49/11 27/50/11 39/51/11
f 39/51/12 27/50/12 25/52/12
f 39/51/12 25/52/12 40/53/12
f 40/53/13 25/52/13 23/54/13
f 40/53/13 23/54/13 41/55/13
f 41/55/14 23/54/14 21/56/14
f 41/55/14 21/56/14 42/57/14
f 42/57/15 21/56/15 19/58/15
f 42/57/15 19/58/15 43/59/15
f 43/59/16 19/58/16 17/60/16
f 43/59/16 17/60/16 44/61/16
f 44/61/17 17/60/17 15/62/17
f 44/61/17 15/62/17 45/63/17
f 45/63/18 15/62/18 8/9/18
f 45/63/18 8/9/18 2/2/18
f 12/64/19 11/13/19 46/65/19
f 12/64/19 46/65/19 13/66/19
f 13/66/20 46/65/20 47/67/20
f 13/66/20 47/67/20 34/68/20
f 34/68/21 47/67/21 48/69/21
f 34/68/21 48/69/21 32/70/21
f 32/70/22 48/69/22 49/71/22
f 32/70/22 49/71/22 30/72/22
f 30/72/23 49/71/23 50/73/23
f 30/72/23 50/73/23 28/74/23
f 28/74/24 50/73/24 51/75/24
f 28/74/24 51/75/24 26/76/24
f 26/76/25 51/75/25 52/77/25
f 26/76/25 52/77/25 24/78/25
f 24/78/26 52/77/26 53/79/26
f 24/78/26 53/79/26 22/80/26
f 22/80/27 53/79/27 54/81/27
f 22/80/27 54/81/27 20/82/27
f 20/82/28 54/81/28 55/83/28
f 20/82/28 55/83/28 18/84/28
f 18/84/29 55/83/29 56/85/29
f 18/84/29 56/85/29 16/86/29
f 16/86/30 56/85/30 1/1/30
f 16/86/30 1/1/30 7/7/30
f 11/13/1 10/12/1 35/43/1
f 11/13/1 35/43/1 46/65/1
f 46/65/1 35/43/1 36/45/1
f 46/65/1 36/45/1 47/67/1
f 47/67/1 36/45/1 37/47/1
f 47/67/1 37/47/1 48/69/1
f 48/69/1 37/47/1 38/49/1
f 48/69/1 38/49/1 49/71/1
f 49/71/1 38/49/1 39/51/1
f 49/71/1 39/51/1 50/73/1
f 50/73/1 39/51/1 40/53/1
f 50/73/1 40/53/1 51/75/1
f 51/75/1 40/53/1 41/55/1
f 51/75/1 41/55/1 52/77/1
f 52/77/1 41/55/1 42/57/1
f 52/77/1 42/57/1 53/79/1
f 53/79/1 42/57/1 43/59/1
f 53/79/1 43/59/1 54/81/1
f 54/81/1 43/59/1 44/61/1
f 54/81/1 44/61/1 55/83/1
f 55/83/1 44/61/1 45/63/1
f 55/83/1 45/63/1 56/85/1
f 56/85/1 45/63/1 2/2/1
f 56/85/1 2/2/1 1/1/1
f 57/17/6 58/18/6 59/87/6
f 57/17/6 59/87/6 60/88/6
f 61/89/31 62/90/31 63/91/31
f 61/89/31 63/91/31 64/92/31
f 64/92/1 63/91/1 65/3/1
f 64/92/1 65/3/1 66/4/1
f 67/93/32 68/94/32 58/5/32
f 67/93/32 58/5/32 57/6/32
f 61/95/33 64/92/33 66/4/33
f 61/95/33 66/4/33 67/96/33
f 62/97/34 59/98/34 58/10/34
f 62/97/34 58/10/34 68/99/34
f 63/91/34 62/97/34 68/99/34
f 63/91/34 68/99/34 65/3/34
f 60/100/33 61/95/33 67/96/33
f 60/100/33 67/96/33 57/8/33
f 66/4/35 65/3/35 68/94/35
f 66/4/35 68/94/35 67/93/35
f 60/88/36 59/87/36 62/90/36
f 60/88/36 62/90/36 61/89/36
f 69/17/6 70/18/6 71/87/6
f 69/17/6 71/87/6 72/88/6
f 73/89/31 74/90/31 75/91/31
f 73/89/31 75/91/31 76/92/31
f 76/92/1 75/91/1 77/3/1
f 76/92/1 77/3/1 78/4/1
f 79/93/32 80/94/32 70/5/32
f 79/93/32 70/5/32 69/6/32
f 73/95/33 76/92/33 78/4/33
f 73/95/33 78/4/33 79/96/33
f 74/97/34 71/98/34 70/10/34
f 74/97/34 70/10/34 80/99/34
f 75/91/34 74/97/34 80/99/34
f 75/91/34 80/99/34 77/3/34
f 72/100/33 73/95/33 79/96/33
f 72/100/33 79/96/33 69/8/33
f 78/4/35 77/3/35 80/94/35
f 78/4/35 80/94/35 79/93/35
f 72/88/36 71/87/36 74/90/36
f 72/88/36 74/90/36 73/89/36
f 81/17/6 82/18/6 83/87/6
f 81/17/6 83/87/6 84/88/6
vn -0.5605999827384949 -0.8281000256538391 0.0
f 85/89/39 86/90/39 87/91/39
f 85/89/39 87/91/39 88/92/39
f 88/92/1 87/91/1 89/3/1
f 88/92/1 89/3/1 90/4/1
v -0.505295991897583 -4.158286094665527 -0.5270580053329468
v -0.505295991897583 -4.158286094665527 0.008557000197470188
f 105/93/32 106/94/32 82/5/32
f 105/93/32 82/5/32 81/6/32
f 85/95/33 88/92/33 90/4/33
f 85/95/33 90/4/33 105/96/33
f 86/97/34 83/98/34 82/10/34
f 86/97/34 82/10/34 106/99/34
f 87/91/34 86/97/34 106/99/34
f 87/91/34 106/99/34 89/3/34
f 84/100/33 85/95/33 105/96/33
f 84/100/33 105/96/33 81/8/33
f 90/4/35 89/3/35 106/94/35
f 90/4/35 106/94/35 105/93/35
vn 0.5605999827384949 -0.8281000256538391 0.0
f 84/88/40 83/87/40 86/90/40
f 84/88/40 86/90/40 85/89/40
f 93/17/6 94/18/6 95/87/6
f 93/17/6 95/87/6 96/88/6
f 97/89/39 98/90/39 99/91/39
f 97/89/39 99/91/39 100/92/39
f 100/92/1 99/91/1 101/3/1
f 100/92/1 101/3/1 102/4/1
v 0.5159069895744324 -4.158286094665527 -0.5270580053329468
v 0.5159069895744324 -4.158286094665527 0.008557000197470188
f 107/93/32 108/94/32 94/5/32
f 107/93/32 94/5/32 93/6/32
f 97/95/33 100/92/33 102/4/33
f 97/95/33 102/4/33 107/96/33
f 98/97/34 95/98/34 94/10/34
f 98/97/34 94/10/34 108/99/34
f 99/91/34 98/97/34 108/99/34
f 99/91/34 108/99/34 101/3/34
f 96/100/33 97/95/33 107/96/33
f 96/100/33 107/96/33 93/8/33
f 102/4/35 101/3/35 108/94/35
f 102/4/35 108/94/35 107/93/35
f 96/88/40 95/87/40 98/90/40
f 96/88/40 98/90/40 97/89/40
