# OBJ file
o __dotobj_group__##0#1#0#-1.0
g __dotobj_group__##0#1#0#-1.0
o sail_Plane.063##0#1#0#-1.0
g sail_Plane.063##0#1#0#-1.0
v 0.6573280096054077 0.06874299794435501 0.6920940279960632
vt 0.5 0.0
vn -0.09309999644756317 0.9358999729156494 -0.33959999680519104
v 0.025770999491214752 0.021112000569701195 0.6358659863471985
vt 1.0 0.0
v 0.05865300074219704 0.16624599695205688 1.1249710321426392
vt 1.0 0.343733012676239
f 1/1/1 2/2/1 3/3/1
v 0.4639439880847931 0.2615230083465576 1.1782300472259521
vt 0.5 0.44414299726486206
f 1/1/1 3/3/1 4/4/1
v 0.9021170139312744 0.16624599695205688 1.2314889430999756
vt 0.0 0.5445519983768463
vn 0.1340000033378601 0.8906000256538391 0.43459999561309814
v 0.3022029995918274 0.06874299794435501 1.6162610054016113
vt 0.5 0.8377069979906082
f 5/5/2 4/4/2 6/6/2
v 0.5786340236663818 0.021112000569701195 1.6355960369110107
vt 0.0 1.0
f 5/5/2 6/6/2 7/7/2
vn -0.1834000051021576 0.9571999907493591 -0.2240000069141388
v 0.055741000920534134 0.021112000569701195 1.596925973892212
vt 1.0 0.6754130125045776
v 0.06715899705886841 0.06823399662971497 1.8065739870071411
vt 1.0 0.8227500021457672
f 6/6/3 8/8/3 9/9/3
v 0.15671700239181519 0.09556499868631363 1.8324480056762695
vt 0.7631499767303467 0.9113750010728836
f 6/6/3 9/9/3 10/10/3
vn -0.2361000031232834 0.9240999817848206 0.3003999888896942
f 4/4/4 3/3/4 8/8/4
f 4/4/4 8/8/4 6/6/4
v 0.28766199946403503 0.06823399662971497 1.858320951461792
vt 0.5263000130653381 1.0
vn 0.12319999933242798 0.9266999959945679 0.35510000586509705
v 0.06430500000715256 0.021112000569701195 2.0587871074676514
vt 1.0 1.0
f 11/11/5 10/10/5 12/12/5
vn 0.17960000038146973 0.9836999773979187 0.012900000438094139
f 7/7/6 6/6/6 10/10/6
f 7/7/6 10/10/6 11/11/6
v 1.2888849973678589 0.021112000569701195 0.7483220100402832
vt 0.0 0.0
vn 0.15279999375343323 0.9580000042915344 -0.24250000715255737
f 13/13/7 1/1/7 4/4/7
f 13/13/7 4/4/7 5/5/7
vn -0.3321000039577484 0.9279000163078308 0.1695999950170517
f 12/12/8 10/10/8 9/9/8
