# OBJ file
o __dotobj_group__##0#1#0#-1.0
g __dotobj_group__##0#1#0#-1.0
o hull_Cube.302##0#1#0#-1.0
g hull_Cube.302##0#1#0#-1.0
v -0.3549180030822754 0.0 0.28824999928474426
vt 0.625 0.5
vn -0.013199999928474426 0.023600000888109207 0.9995999932289124
v -0.08051099628210068 0.15378600358963013 0.28824999928474426
vt 0.6615089774131775 0.648173987865448
v 0.10806199908256531 0.2594679892063141 0.28824999928474426
vt 0.6865990161895752 0.75
f 1/1/1 2/2/1 3/3/1
v 0.016248000785708427 0.28173598647117615 0.28650999069213867
f 1/1/1 3/3/1 4/3/1
v 1.2832319736480713 -0.3078779876232147 0.24404700100421906
vt 0.5880029797554016 0.25
vn 0.4544000029563904 0.0 -0.8907999992370605
v 1.2832319736480713 0.3078779876232147 0.24404700100421906
vt 0.5880029797554016 0.0
v 1.2851289510726929 0.3343009948730469 0.2450139969587326
f 5/4/2 6/5/2 7/5/2
v 1.2851289510726929 -0.3343009948730469 0.2450139969587326
f 5/4/2 7/5/2 8/4/2
v 1.2974330186843872 -0.3078779876232147 0.28824999928474426
vt 0.875 0.5
vn 0.009499999694526196 -0.05290000140666962 0.9986000061035156
v 0.7053620219230652 -0.40872499346733093 0.28824999928474426
vt 0.7854200005531311 0.5
v 0.7254539728164673 -0.443803995847702 0.28650999069213867
f 9/6/3 10/7/3 11/7/3
v 1.300549030303955 -0.3343009948730469 0.28650999069213867
f 9/6/3 11/7/3 12/6/3
v 0.13701200485229492 -0.2594679892063141 -0.03592199832201004
vt 0.3134010136127472 0.5
vn -0.35190001130104065 0.0 -0.9359999895095825
v -0.1963459998369217 0.0 0.08940000087022781
vt 0.375 0.75
v 0.13701200485229492 0.2594679892063141 -0.03592199832201004
vt 0.3134010136127472 0.75
f 13/8/4 14/9/4 15/10/4
v 0.1607770025730133 0.22511500120162964 0.28824999928474426
vt 0.7030240297317505 0.726377010345459
vn 0.7626000046730042 0.0 0.6468999981880188
v 0.1607770025730133 -0.22511500120162964 0.28824999928474426
vt 0.7030249834060669 0.523622989654541
v 0.28995001316070557 -0.16854700446128845 0.13597899675369263
f 16/11/5 17/12/5 18/12/5
v 0.28995001316070557 0.16854700446128845 0.13597899675369263
f 16/11/5 18/12/5 19/11/5
v 1.1888680458068848 -0.26956599950790405 0.28824999928474426
vt 0.8585739731788635 0.5205680131912231
vn -0.7626000046730042 0.0 0.6468999981880188
v 1.1888680458068848 0.26956599950790405 0.28824999928474426
vt 0.8585739731788635 0.7294319868087769
v 1.0596959590911865 0.2018280029296875 0.13597899675369263
f 20/13/6 21/14/6 22/14/6
v 1.0596959590911865 -0.2018280029296875 0.13597899675369263
f 20/13/6 22/14/6 23/13/6
v 1.201475977897644 -0.27214500308036804 -0.008520999923348427
vt 0.125 0.5
vn 0.05209999904036522 0.0 -0.9986000061035156
v 0.6591079831123352 -0.3277139961719513 -0.03683499991893768
vt 0.2145799994468689 0.5
v 0.6591079831123352 0.3277139961719513 -0.03683499991893768
vt 0.2145799994468689 0.75
f 24/15/7 25/16/7 26/17/7
v 1.201475977897644 0.27214500308036804 -0.008520999923348427
vt 0.125 0.75
f 24/15/7 26/17/7 27/18/7
vn -0.011099999770522118 -0.04670000076293945 0.9987999796867371
v 0.10806199908256531 -0.2594679892063141 0.28824999928474426
vt 0.6865990161895752 0.5
v 0.016248000785708427 -0.28173598647117615 0.28650999069213867
f 10/7/8 28/19/8 29/19/8
f 10/7/8 29/19/8 11/7/8
v 1.2974330186843872 0.3078779876232147 0.28824999928474426
vt 0.875 0.75
vn 0.4875999987125397 0.0 0.8730999827384949
f 30/20/9 9/6/9 12/6/9
v 1.300549030303955 0.3343009948730469 0.28650999069213867
f 30/20/9 12/6/9 31/20/9
v -0.3314509987831116 0.0 0.25853800773620605
vt 0.5880029797554016 0.5
vn -0.019300000742077827 0.03660000115633011 -0.9991000294685364
v 0.06476200371980667 -0.2594679892063141 0.23999199271202087
vt 0.5880029797554016 0.4384009838104248
v 0.029874999076128006 -0.28173598647117615 0.24124999344348907
f 32/21/10 33/22/10 34/22/10
v -0.40034300088882446 0.0 0.2584649920463562
f 32/21/10 34/22/10 35/21/10
v -0.06360000371932983 -0.00015500000154133886 0.28824999928474426
vt 0.6511859893798828 0.5531379878520966
vn 0.9056000113487244 0.4235999882221222 0.022600000724196434
v -0.04175199940800667 -0.05338500067591667 0.28824999928474426
vt 0.6587439775466919 0.5531379878520966
v -0.03348600119352341 -0.058017998933792114 0.16591699421405792
vt 0.6593970060348511 0.5531379878520966
f 36/23/11 37/24/11 38/25/11
v -0.06360000371932983 -0.00015500000154133886 0.16591699421405792
f 36/23/11 38/25/11 39/23/11
vn -0.0017000000225380063 0.0 -1.0
f 25/16/12 13/8/12 15/10/12
f 25/16/12 15/10/12 26/17/12
vn -0.013199999928474426 -0.023600000888109207 0.9995999932289124
v -0.08598300069570541 -0.15071900188922882 0.28824999928474426
vt 0.6607810258865356 0.5
f 28/19/13 40/26/13 1/1/13
f 28/19/13 1/1/13 29/19/13
vn -0.0 0.0 1.0
f 21/14/14 20/13/14 9/6/14
f 21/14/14 9/6/14 30/20/14
v 0.7112759947776794 0.35091400146484375 0.28824999928474426
vt 0.7863150238990784 0.7320420145988464
f 41/27/14 21/14/14 30/20/14
v 0.7053620219230652 0.40872499346733093 0.28824999928474426
vt 0.7854200005531311 0.75
f 41/27/14 30/20/14 42/28/14
v 0.7112759947776794 -0.35091400146484375 0.28824999928474426
vt 0.7863150238990784 0.5179579854011536
f 20/13/14 43/29/14 10/7/14
f 20/13/14 10/7/14 9/6/14
f 16/11/14 41/27/14 42/28/14
f 16/11/14 42/28/14 3/3/14
f 43/29/14 17/12/14 28/19/14
f 43/29/14 28/19/14 10/7/14
f 17/12/14 16/11/14 28/19/14
v 0.7021160125732422 -0.26273399591445923 0.08493500202894211
vn -0.1412999927997589 0.0 0.9900000095367432
f 44/29/15 23/13/15 22/14/15
v 0.7021160125732422 0.26273399591445923 0.08493500202894211
f 44/29/15 22/14/15 45/27/15
vn 0.12290000170469284 0.0 0.9923999905586243
f 18/12/16 44/29/16 45/27/16
f 18/12/16 45/27/16 19/11/16
vn 0.22269999980926514 -0.8744000196456909 0.4311000108718872
f 41/27/17 16/11/17 19/11/17
f 41/27/17 19/11/17 45/27/17
vn -0.17659999430179596 -0.8743000030517578 0.45210000872612
f 21/14/18 41/27/18 45/27/18
f 21/14/18 45/27/18 22/14/18
vn 0.22269999980926514 0.8744000196456909 0.4311000108718872
f 17/12/19 43/29/19 44/29/19
f 17/12/19 44/29/19 18/12/19
vn -0.17659999430179596 0.8743000030517578 0.45210000872612
f 43/29/20 20/13/20 23/13/20
f 43/29/20 23/13/20 44/29/20
vt 0.375 0.3395799994468689
vn -0.18369999527931213 -0.9707000255584717 -0.1551000028848648
v 0.6985170245170593 -0.40872499346733093 0.2332870066165924
vt 0.5880029797554016 0.3395799994468689
f 25/30/21 46/31/21 33/22/21
vt 0.375 0.4384009838104248
f 25/30/21 33/22/21 13/32/21
vn -0.5925999879837036 0.7566999793052673 -0.2761000096797943
vt 0.5880029797554016 0.75
v 0.06476200371980667 0.2594679892063141 0.23999199271202087
vt 0.5880029797554016 0.811599001288414
f 14/9/22 32/33/22 47/34/22
vt 0.375 0.811599001288414
f 14/9/22 47/34/22 15/35/22
vt 0.375 0.25
vn 0.14159999787807465 -0.9585999846458435 -0.24690000712871552
f 24/36/23 5/4/23 46/31/23
f 24/36/23 46/31/23 25/30/23
vn -0.18369999527931213 0.9707000255584717 -0.1551000028848648
v 0.6985170245170593 0.40872499346733093 0.2332870066165924
vt 0.5880029797554016 0.9104200005531311
f 15/35/24 47/34/24 48/37/24
vt 0.375 0.9104200005531311
f 15/35/24 48/37/24 26/38/24
vn 0.14159999787807465 0.9585999846458435 -0.24690000712871552
vt 0.5880029797554016 1.0
f 26/38/25 48/37/25 6/39/25
vt 0.375 1.0
f 26/38/25 6/39/25 27/40/25
vn -0.5925999879837036 -0.7566999793052673 -0.2761000096797943
f 13/32/26 33/22/26 32/21/26
vt 0.375 0.5
f 13/32/26 32/21/26 14/41/26
vt 0.375 0.0
vn 0.9513999819755554 0.0 -0.30799999833106995
f 27/42/27 6/5/27 5/4/27
f 27/42/27 5/4/27 24/36/27
vn 0.9373999834060669 0.0 -0.3483000099658966
vt 0.625 0.0
vt 0.625 0.25
f 7/5/28 31/43/28 12/44/28
f 7/5/28 12/44/28 8/4/28
vn -0.5248000025749207 -0.8039000034332275 -0.2800000011920929
vt 0.625 0.4384009838104248
v -0.42582398653030396 0.0 0.28650999069213867
f 34/22/29 29/45/29 49/1/29
f 34/22/29 49/1/29 35/21/29
v 0.7180209755897522 0.443803995847702 0.2350270003080368
vn 0.18850000202655792 0.9810000061988831 -0.046300001442432404
v 0.7254539728164673 0.443803995847702 0.28650999069213867
vt 0.625 0.9104200005531311
vt 0.625 1.0
f 50/37/30 51/46/30 31/47/30
f 50/37/30 31/47/30 7/39/30
v 0.029874999076128006 0.28173598647117615 0.24124999344348907
vn -0.22599999606609344 0.9739999771118164 -0.014499999582767487
vt 0.625 0.811599001288414
f 52/34/31 4/48/31 51/46/31
f 52/34/31 51/46/31 50/37/31
vn 0.18850000202655792 -0.9810000061988831 -0.046300001442432404
vt 0.625 0.3395799994468689
f 8/4/32 12/44/32 11/49/32
v 0.7180209755897522 -0.443803995847702 0.2350270003080368
f 8/4/32 11/49/32 53/31/32
vn -0.5248000025749207 0.8039000034332275 -0.2800000011920929
vt 0.625 0.75
f 35/33/33 49/50/33 4/48/33
f 35/33/33 4/48/33 52/34/33
vn -0.22599999606609344 -0.9739999771118164 -0.014499999582767487
f 53/31/34 11/49/34 29/45/34
f 53/31/34 29/45/34 34/22/34
vn -0.020800000056624413 -0.04670000076293945 -0.9987000226974487
f 33/22/35 46/31/35 53/31/35
f 33/22/35 53/31/35 34/22/35
vn -0.011099999770522118 0.04670000076293945 0.9987999796867371
f 3/3/36 42/28/36 51/28/36
f 3/3/36 51/28/36 4/3/36
vn -0.019300000742077827 -0.03660000115633011 -0.9991000294685364
f 47/34/37 32/33/37 35/33/37
f 47/34/37 35/33/37 52/34/37
vn 0.02449999935925007 -0.03550000116229057 -0.9991000294685364
f 46/31/38 5/4/38 8/4/38
f 46/31/38 8/4/38 53/31/38
vn -0.020800000056624413 0.04670000076293945 -0.9987000226974487
f 48/37/39 47/34/39 52/34/39
f 48/37/39 52/34/39 50/37/39
vn 0.009499999694526196 0.05290000140666962 0.9986000061035156
f 42/28/40 30/20/40 31/20/40
f 42/28/40 31/20/40 51/28/40
vn 0.02449999935925007 0.03550000116229057 -0.9991000294685364
f 6/39/41 48/37/41 50/37/41
f 6/39/41 50/37/41 7/39/41
v -0.03681100159883499 0.05677499994635582 0.28824999928474426
vt 0.6591339707374573 0.5853970050811768
f 36/23/14 54/51/14 2/2/14
f 36/23/14 2/2/14 1/1/14
v 0.036421000957489014 0.0558990016579628 0.28824999928474426
vt 0.66696697473526 0.6171869933605194
v 0.062477998435497284 0.00046499999007210135 0.28824999928474426
vt 0.66696697473526 0.5855239927768707
v 0.10806199908256531 0.00010299999848939478 0.28824999928474426
vt 0.6865990161895752 0.6254070103168488
f 55/52/14 56/53/14 57/54/14
f 55/52/14 57/54/14 3/3/14
v 0.036421000957489014 -0.056210000067949295 0.28824999928474426
vt 0.66696697473526 0.5531379878520966
f 58/55/14 37/24/14 40/26/14
f 58/55/14 40/26/14 28/19/14
v -0.03827299922704697 0.055955998599529266 0.16591699421405792
vt 0.6590189933776855 0.5849289894104004
f 39/23/14 38/25/14 59/56/14
vn -0.9082000255584717 0.41850000619888306 -0.00039999998989515007
v 0.062477998435497284 0.0002099999983329326 0.16591699421405792
vt 0.66696697473526 0.5851339995861053
f 58/55/42 56/53/42 60/57/42
v 0.036421000957489014 -0.056210000067949295 0.16591699421405792
f 58/55/42 60/57/42 61/55/42
vn -0.006300000008195639 -1.0 0.0034000000450760126
f 55/52/43 54/51/43 59/56/43
v 0.036421000957489014 0.0558990016579628 0.16591699421405792
f 55/52/43 59/56/43 62/52/43
vn -0.02449999935925007 -0.03849999979138374 0.9990000128746033
f 29/19/44 1/1/44 49/1/44
vn -0.02449999935925007 0.03849999979138374 0.9990000128746033
f 4/3/45 49/1/45 1/1/45
f 28/19/14 16/11/14 57/54/14
f 40/26/14 37/24/14 36/23/14
f 40/26/14 36/23/14 1/1/14
f 2/2/14 54/51/14 55/52/14
f 2/2/14 55/52/14 3/3/14
vt 0.6868829727172852 0.6252839863300323
f 57/58/14 16/11/14 3/3/14
f 57/54/14 56/53/14 58/55/14
f 57/54/14 58/55/14 28/19/14
vn -0.9053999781608582 -0.4246000051498413 0.00039999998989515007
f 60/57/46 56/53/46 55/52/46
f 60/57/46 55/52/46 62/52/46
vn 0.006899999920278788 0.9998000264167786 -0.018699999898672104
f 38/25/47 37/24/47 58/55/47
f 38/25/47 58/55/47 61/55/47
vn 0.9081000089645386 -0.4187000095844269 -0.004000000189989805
f 59/56/48 54/51/48 36/23/48
f 59/56/48 36/23/48 39/23/48
f 59/56/14 60/57/14 62/52/14
f 60/57/14 38/25/14 61/55/14
f 60/57/14 59/56/14 38/25/14
o steer_Cube.300##0#1#0#-1.0
g steer_Cube.300##0#1#0#-1.0
v 1.418848991394043 0.026312999427318573 0.08261200040578842
vt 0.5 0.0
vn 0.9316999912261963 0.0 0.36329999566078186
v 1.3601020574569702 0.026312999427318573 0.23325900733470917
v 1.3601020574569702 -0.026312999427318573 0.23325900733470917
f 63/59/49 64/43/49 65/44/49
v 1.418848991394043 -0.026312999427318573 0.08261200040578842
vt 0.5 0.25
f 63/59/49 65/44/49 66/60/49
v 1.4182239770889282 -0.026312999427318573 0.04765300080180168
vt 0.5 0.375
vn -0.0 -1.0 0.0
v 1.3257100582122803 -0.026312999427318573 0.23325900733470917
vt 0.625 0.375
v 1.2984809875488281 -0.026312999427318573 0.23325900733470917
f 67/61/50 68/62/50 69/1/50
v 1.229509949684143 -0.026312999427318573 0.04765300080180168
vt 0.5 0.5
f 67/61/50 69/1/50 70/63/50
vn -0.9373999834060669 0.0 0.3483000099658966
v 1.2984809875488281 0.026312999427318573 0.23325900733470917
f 70/63/51 69/1/51 71/50/51
v 1.229509949684143 0.026312999427318573 0.04765300080180168
vt 0.5 0.75
f 70/63/51 71/50/51 72/64/51
v 1.4182239770889282 0.026312999427318573 0.04765300080180168
vt 0.5 0.875
vn -0.0 1.0 0.0
v 1.3257100582122803 0.026312999427318573 0.23325900733470917
vt 0.625 0.875
f 73/65/52 74/66/52 64/47/52
vt 0.5 1.0
f 73/65/52 64/47/52 63/67/52
v 1.4657649993896484 -0.026312999427318573 -0.14257100224494934
vt 0.25 0.5
vn -0.23440000414848328 0.0 -0.972100019454956
v 1.2634880542755127 -0.026312999427318573 -0.09379199892282486
v 1.2634880542755127 0.026312999427318573 -0.09379199892282486
f 75/68/53 76/41/53 77/9/53
v 1.4657649993896484 0.026312999427318573 -0.14257100224494934
vt 0.25 0.75
f 75/68/53 77/9/53 78/69/53
vt 0.75 0.5
f 68/70/14 65/6/14 64/20/14
vt 0.75 0.75
f 68/70/14 64/20/14 74/71/14
v 1.3726040124893188 -0.026312999427318573 0.349249005317688
f 69/1/50 68/62/50 79/62/50
v 1.3453760147094727 -0.026312999427318573 0.349249005317688
f 69/1/50 79/62/50 80/1/50
v 1.5453790426254272 -0.026312999427318573 0.002506999997422099
vn 0.8766999840736389 0.0 -0.4810999929904938
f 81/15/54 75/68/54 78/69/54
v 1.5453790426254272 0.026312999427318573 0.002506999997422099
f 81/15/54 78/69/54 82/18/54
f 72/64/52 71/50/52 74/66/52
f 72/64/52 74/66/52 73/65/52
f 66/60/50 65/44/50 68/62/50
f 66/60/50 68/62/50 67/61/50
f 81/36/50 66/60/50 67/61/50
vt 0.375 0.375
f 81/36/50 67/61/50 75/72/50
f 77/9/52 72/64/52 73/65/52
vt 0.375 0.875
f 77/9/52 73/65/52 78/73/52
f 78/73/52 73/65/52 63/67/52
f 78/73/52 63/67/52 82/40/52
vn -0.9722999930381775 0.0 -0.23360000550746918
f 76/41/55 70/63/55 72/64/55
f 76/41/55 72/64/55 77/9/55
f 75/72/50 67/61/50 70/63/50
f 75/72/50 70/63/50 76/41/50
vn 0.5349000096321106 0.0 0.8449000120162964
f 82/42/56 63/59/56 66/60/56
f 82/42/56 66/60/56 81/36/56
v 1.3726040124893188 0.026312999427318573 0.349249005317688
f 80/1/14 79/70/14 83/71/14
v 1.3453760147094727 0.026312999427318573 0.349249005317688
f 80/1/14 83/71/14 84/50/14
vn 0.9271000027656555 0.0 -0.3747999966144562
f 68/70/57 74/71/57 83/71/57
f 68/70/57 83/71/57 79/70/57
vn -0.9271000027656555 0.0 0.3747999966144562
f 71/50/58 69/1/58 80/1/58
f 71/50/58 80/1/58 84/50/58
f 74/66/52 71/50/52 84/50/52
f 74/66/52 84/50/52 83/66/52
o steer_Cube.300##0#2#1#-1.0
g steer_Cube.300##0#2#1#-1.0
v 1.3713409900665283 0.012054000049829483 0.3249239921569824
vn 1.0 0.0 0.0
v 1.3713409900665283 0.0 0.3369770050048828
v 1.3713409900665283 -0.012054000049829483 0.3249239921569824
f 85/42/59 86/43/59 87/44/59
v 1.3713409900665283 0.0 0.31286999583244324
f 85/42/59 87/44/59 88/36/59
v 1.1431909799575806 0.0 0.3211889863014221
vn -0.021199999377131462 -0.6227999925613403 -0.7821000218391418
v 1.1431909799575806 -0.012054000049829483 0.3291130065917969
v 0.9382410049438477 -0.00822100043296814 0.33330199122428894
f 89/72/60 90/62/60 91/1/60
v 0.9382410049438477 0.0 0.325082004070282
f 89/72/60 91/1/60 92/41/60
v 0.9382410049438477 0.0 0.3415229916572571
vn 0.9305999875068665 0.2587999999523163 0.2587999999523163
v 0.9382410049438477 0.00822100043296814 0.33330199122428894
v 0.9355769753456116 0.017799999564886093 0.33330199122428894
f 93/50/61 94/9/61 95/9/61
v 0.9355769753456116 -0.0 0.3511030077934265
f 93/50/61 95/9/61 96/50/61
v 1.1431909799575806 0.012054000049829483 0.3291130065917969
vn 0.013000000268220901 0.7070000171661377 0.7070000171661377
v 1.1431909799575806 0.0 0.34116700291633606
f 97/73/62 98/66/62 86/47/62
f 97/73/62 86/47/62 85/40/62
vn -0.021199999377131462 0.6227999925613403 -0.7821000218391418
f 89/68/63 92/41/63 94/9/63
f 89/68/63 94/9/63 97/69/63
vn 0.013000000268220901 -0.7070000171661377 0.7070000171661377
f 90/70/64 87/6/64 86/20/64
f 90/70/64 86/20/64 98/71/64
vn 0.0012000000569969416 -0.707099974155426 0.707099974155426
f 91/1/65 90/70/65 98/71/65
f 91/1/65 98/71/65 93/50/65
vn -0.0210999995470047 0.6378999948501587 -0.7698000073432922
f 88/15/66 89/68/66 97/69/66
f 88/15/66 97/69/66 85/18/66
vn 0.0012000000569969416 0.707099974155426 0.707099974155426
f 94/9/67 93/50/67 98/66/67
f 94/9/67 98/66/67 97/73/67
vn -0.0210999995470047 -0.6378999948501587 -0.7698000073432922
f 88/36/68 87/44/68 90/62/68
f 88/36/68 90/62/68 89/72/68
v 0.9355769753456116 -0.0 0.31550198793411255
vn -0.10760000348091125 -0.703000009059906 -0.703000009059906
v 0.9355769753456116 -0.017799999564886093 0.33330199122428894
v 0.9026979804039001 -0.012767000123858452 0.33330199122428894
f 99/41/69 100/1/69 101/1/69
v 0.9026979804039001 0.0 0.32053500413894653
f 99/41/69 101/1/69 102/41/69
vn 0.9305999875068665 0.2587999999523163 -0.2587999999523163
f 94/9/70 92/41/70 99/41/70
f 94/9/70 99/41/70 95/9/70
vn 0.9305999875068665 -0.2587999999523163 0.2587999999523163
f 91/1/71 93/50/71 96/50/71
f 91/1/71 96/50/71 100/1/71
vn 0.9305999875068665 -0.2587999999523163 -0.2587999999523163
f 92/41/72 91/1/72 100/1/72
f 92/41/72 100/1/72 99/41/72
vn -1.0 0.0 -0.0
v 0.9026979804039001 -0.0 0.34606999158859253
f 102/41/73 101/1/73 103/50/73
v 0.9026979804039001 0.012767000123858452 0.33330199122428894
f 102/41/73 103/50/73 104/9/73
vn -0.10760000348091125 0.703000009059906 0.703000009059906
f 96/50/74 95/9/74 104/9/74
f 96/50/74 104/9/74 103/50/74
vn -0.10760000348091125 0.703000009059906 -0.703000009059906
f 95/9/75 99/41/75 102/41/75
f 95/9/75 102/41/75 104/9/75
vn -0.10760000348091125 -0.703000009059906 0.703000009059906
f 100/1/76 96/50/76 103/50/76
f 100/1/76 103/50/76 101/1/76
v 1.2424089908599854 0.01233499962836504 0.2475769966840744
vn 0.707099974155426 0.707099974155426 0.0
v 1.2424089908599854 0.01233499962836504 0.3284800052642822
v 1.254744052886963 0.0 0.3284800052642822
f 105/42/77 106/43/77 107/44/77
v 1.254744052886963 0.0 0.2475769966840744
f 105/42/77 107/44/77 108/36/77
vn 0.707099974155426 -0.707099974155426 0.0
v 1.2424089908599854 -0.01233499962836504 0.3284800052642822
f 108/36/78 107/44/78 109/1/78
v 1.2424089908599854 -0.01233499962836504 0.2475769966840744
f 108/36/78 109/1/78 110/41/78
vn -0.707099974155426 -0.707099974155426 0.0
v 1.2300729751586914 0.0 0.3284800052642822
f 110/41/79 109/1/79 111/50/79
v 1.2300729751586914 0.0 0.2475769966840744
f 110/41/79 111/50/79 112/9/79
vn -0.707099974155426 0.707099974155426 0.0
f 112/9/80 111/50/80 106/47/80
f 112/9/80 106/47/80 105/40/80
vn -0.0 0.0 -1.0
f 108/15/81 110/41/81 112/9/81
f 108/15/81 112/9/81 105/18/81
f 109/1/14 107/6/14 106/20/14
f 109/1/14 106/20/14 111/50/14
