# OBJ file
o __dotobj_group__##0#1#0#-1.0
g __dotobj_group__##0#1#0#-1.0
o mast_Cube.303##0#1#0#-1.0
g mast_Cube.303##0#1#0#-1.0
v 0.02356399968266487 0.0 0.3371720016002655
vt 0.3845439851284027 0.125
vn 0.894599974155426 -0.4465000033378601 -0.019200000911951065
v 0.060906000435352325 0.0 2.0771520137786865
vt 0.625 0.125
v 0.053582001477479935 -0.014693999662995338 2.0771520137786865
vt 0.625 0.25
f 1/1/1 2/2/1 3/3/1
v 0.012657999992370605 -0.02183300070464611 0.3371720016002655
vt 0.3845439851284027 0.25
f 1/1/1 3/3/1 4/4/1
vn -0.0 -1.0 0.004100000020116568
v 0.03684300184249878 -0.014693999662995338 2.0771520137786865
vt 0.625 0.5
f 4/4/2 3/3/2 5/5/2
v -0.012657999992370605 -0.02183300070464611 0.3371720016002655
vt 0.3845439851284027 0.5
f 4/4/2 5/5/2 6/6/2
v -0.02356399968266487 0.0 0.3371720016002655
vt 0.3845439851284027 0.625
vn -0.894599974155426 0.44589999318122864 0.027300000190734863
v 0.02951899915933609 0.0 2.0771520137786865
vt 0.625 0.625
v 0.03684300184249878 0.014693999662995338 2.0771520137786865
vt 0.625 0.75
f 7/7/3 8/8/3 9/9/3
v -0.012567000463604927 0.02206300012767315 0.3371720016002655
vt 0.3845439851284027 0.75
f 7/7/3 9/9/3 10/10/3
vn -0.0 1.0 0.00419999985024333
v 0.053582001477479935 0.014693999662995338 2.0771520137786865
vt 0.625 1.0
f 10/10/4 9/9/4 11/11/4
v 0.012567000463604927 0.02206300012767315 0.3371720016002655
vt 0.3845439851284027 1.0
f 10/10/4 11/11/4 12/12/4
v 0.03927300125360489 0.0 0.26776599884033203
vt 0.125 0.625
vn -0.0 0.0 -1.0
v -0.03927300125360489 0.0 0.26776599884033203
vt 0.375 0.625
v -0.02094399929046631 0.03677099943161011 0.26776599884033203
vt 0.375 0.75
f 13/13/5 14/14/5 15/15/5
v 0.02094399929046631 0.03677099943161011 0.26776599884033203
vt 0.125 0.75
f 13/13/5 15/15/5 16/16/5
vn -0.0 0.0 1.0
vt 0.875 0.625
vt 0.875 0.75
f 8/8/6 2/17/6 11/18/6
f 8/8/6 11/18/6 9/9/6
vt 0.875 0.5
f 5/5/6 3/19/6 2/17/6
f 5/5/6 2/17/6 8/8/6
v 0.02094399929046631 -0.03677099943161011 0.26776599884033203
vt 0.125 0.5
v -0.02094399929046631 -0.03677099943161011 0.26776599884033203
vt 0.375 0.5
f 17/20/5 18/21/5 14/14/5
f 17/20/5 14/14/5 13/13/5
vn -0.8944000005722046 -0.446399986743927 0.027300000190734863
f 6/6/7 5/5/7 8/8/7
f 6/6/7 8/8/7 7/7/7
vt 0.3845439851284027 0.0
vn 0.8948000073432922 0.44600000977516174 -0.019200000911951065
vt 0.625 0.0
f 12/22/8 11/23/8 2/2/8
f 12/22/8 2/2/8 1/1/8
vn -0.0 -0.013299999758601189 0.9998999834060669
v 0.03528900071978569 0.061955999583005905 0.33770298957824707
f 10/10/9 12/12/9 19/12/9
v -0.03528900071978569 0.061955999583005905 0.33770298957824707
f 10/10/9 19/12/9 20/10/9
vn -0.0 0.0210999995470047 -0.9998000264167786
v 0.03528900071978569 -0.061955999583005905 0.26723501086235046
f 18/21/10 17/20/10 21/20/10
v -0.03528900071978569 -0.061955999583005905 0.26723501086235046
f 18/21/10 21/20/10 22/21/10
vn 0.01979999989271164 -0.009800000116229057 -0.9998000264167786
v -0.06617099791765213 0.0 0.26723501086235046
f 15/15/11 14/14/11 23/14/11
v -0.03528900071978569 0.061955999583005905 0.26723501086235046
f 15/15/11 23/14/11 24/15/11
vn -0.012500000186264515 0.006200000178068876 0.9998999834060669
v 0.03528900071978569 -0.061955999583005905 0.33770298957824707
f 1/1/12 4/4/12 25/4/12
v 0.06617099791765213 0.0 0.33770298957824707
f 1/1/12 25/4/12 26/1/12
vn 0.01979999989271164 0.009800000116229057 -0.9998000264167786
f 14/14/13 18/21/13 22/21/13
f 14/14/13 22/21/13 23/14/13
vn -0.01979999989271164 -0.009800000116229057 -0.9998000264167786
v 0.03528900071978569 0.061955999583005905 0.26723501086235046
f 13/13/14 16/16/14 27/16/14
v 0.06617099791765213 0.0 0.26723501086235046
f 13/13/14 27/16/14 28/13/14
vt 0.375 0.0
vn 0.8949999809265137 0.44609999656677246 0.0
f 27/24/15 19/22/15 26/1/15
vt 0.375 0.125
f 27/24/15 26/1/15 28/25/15
vn -0.8949999809265137 -0.44609999656677246 0.0
v -0.03528900071978569 -0.061955999583005905 0.33770298957824707
v -0.06617099791765213 0.0 0.33770298957824707
f 22/21/16 29/6/16 30/7/16
f 22/21/16 30/7/16 23/14/16
vn -0.0 1.0 0.0
f 24/15/17 20/10/17 19/12/17
vt 0.375 1.0
f 24/15/17 19/12/17 27/26/17
vn -0.8949999809265137 0.44609999656677246 0.0
f 23/14/18 30/7/18 20/10/18
f 23/14/18 20/10/18 24/15/18
vt 0.375 0.25
vn -0.0 -1.0 0.0
f 21/27/19 25/4/19 29/6/19
f 21/27/19 29/6/19 22/21/19
vn 0.8949999809265137 -0.44609999656677246 0.0
f 28/25/20 26/1/20 25/4/20
f 28/25/20 25/4/20 21/27/20
vn 0.012500000186264515 -0.006200000178068876 0.9998999834060669
f 7/7/21 10/10/21 20/10/21
f 7/7/21 20/10/21 30/7/21
vn -0.01979999989271164 0.009800000116229057 -0.9998000264167786
f 17/20/22 13/13/22 28/13/22
f 17/20/22 28/13/22 21/20/22
vn -0.012500000186264515 -0.006200000178068876 0.9998999834060669
f 12/22/23 1/1/23 26/1/23
f 12/22/23 26/1/23 19/22/23
vn -0.0 0.013199999928474426 0.9998999834060669
f 4/4/24 6/6/24 29/6/24
f 4/4/24 29/6/24 25/4/24
vn -0.0 -0.0210999995470047 -0.9998000264167786
f 16/16/25 15/15/25 24/15/25
f 16/16/25 24/15/25 27/16/25
vn 0.012500000186264515 0.006200000178068876 0.9998999834060669
f 6/6/26 7/7/26 30/7/26
f 6/6/26 30/7/26 29/6/26
v -0.0013259999686852098 0.0 0.6066160202026367
vn 0.08219999819993973 -0.4465999901294708 -0.890999972820282
v 1.306799054145813 0.0 0.7272449731826782
v 1.3062000274658203 -0.013938000425696373 0.7341660261154175
f 31/1/27 32/2/27 33/3/27
v -0.0022169998846948147 -0.02071099914610386 0.6169229745864868
f 31/1/27 33/3/27 34/4/27
vn 0.005100000184029341 -1.0 0.00039999998989515007
v 1.3048319816589355 -0.013938000425696373 0.7499849796295166
f 34/4/28 33/3/28 35/5/28
v -0.0042860000394284725 -0.02071099914610386 0.6408470273017883
f 34/4/28 35/5/28 36/6/28
v -0.005177999846637249 0.0 0.6511539816856384
vn -0.07199999690055847 0.44609999656677246 0.8920999765396118
v 1.3042329549789429 0.0 0.7569069862365723
v 1.3048319816589355 0.013938000425696373 0.7499849796295166
f 37/7/29 38/8/29 39/9/29
v -0.004279000218957663 0.02092899940907955 0.6407610177993774
f 37/7/29 39/9/29 40/10/29
vn 0.0052999998442828655 1.0 0.0005000000237487257
v 1.3062000274658203 0.013938000425696373 0.7341660261154175
f 40/10/30 39/9/30 41/11/30
v -0.0022249999456107616 0.02092899940907955 0.6170089840888977
f 40/10/30 41/11/30 42/12/30
vn 0.9962999820709229 0.0 0.08619999885559082
f 38/8/31 32/17/31 41/18/31
f 38/8/31 41/18/31 39/9/31
f 35/5/31 33/19/31 32/17/31
f 35/5/31 32/17/31 38/8/31
vn -0.07199999690055847 -0.4465999901294708 0.8919000029563904
f 36/6/32 35/5/32 38/8/32
f 36/6/32 38/8/32 37/7/32
vn 0.08219999819993973 0.44609999656677246 -0.8912000060081482
f 42/22/33 41/23/33 32/2/33
f 42/22/33 32/2/33 31/1/33
vt 0.0 0.0
vn -0.9962999820709229 0.0 -0.08619999885559082
f 37/28/34 34/28/34 36/28/34
f 40/28/34 42/28/34 31/28/34
f 40/28/34 31/28/34 37/28/34
f 37/28/34 31/28/34 34/28/34
