# OBJ file
o __dotobj_group__##0#1#0#-1.0
g __dotobj_group__##0#1#0#-1.0
o seesaw_sensor.COLLIDER##0#0#0#16053492.0
g seesaw_sensor.COLLIDER##0#0#0#16053492.0
v 1.0083789825439453 -0.15710699558258057 0.6776520013809204
vt 0.625 0.5
vn 0.0 -0.0 -1.0
v 0.6948469877243042 -0.15710699558258057 0.6776520013809204
vt 0.875 0.5
v 0.6948469877243042 0.15710699558258057 0.6776520013809204
vt 0.875 0.75
f 1/1/1 2/2/1 3/3/1
v 1.0083789825439453 0.15710699558258057 0.6776520013809204
vt 0.625 0.75
f 1/1/1 3/3/1 4/4/1
v 0.7060920000076294 0.10133299976587296 0.3993310034275055
vt 0.375 0.2643899917602539
vn -0.13249999284744263 -0.34130001068115234 0.9305999875068665
v 0.39331498742103577 0.10133299976587296 0.3548080027103424
vt 0.4300850033760071 0.2643899917602539
vn -0.09290000051259995 -0.2150000035762787 0.9721999764442444
v 0.39331498742103577 -0.10133299976587296 0.3548080027103424
vt 0.4300850033760071 0.4856100082397461
vn -0.09290000051259995 0.21490000188350677 0.9721999764442444
f 5/5/2 6/6/3 7/7/4
v 0.7060920000076294 -0.10133299976587296 0.3993310034275055
vt 0.375 0.4856100082397461
vn -0.13249999284744263 0.34130001068115234 0.9305999875068665
f 5/5/2 7/7/4 8/8/5
