# OBJ file
o __dotobj_group__##0#1#0#-1.0
g __dotobj_group__##0#1#0#-1.0
o shrooms.simpler.RAND.RSCALE[.75,1.25]_Icosphere.027##0#0#0#1644052.0
g shrooms.simpler.RAND.RSCALE[.75,1.25]_Icosphere.027##0#0#0#1644052.0
v -0.09945099800825119 0.18832099437713623 0.04247400164604187
vt 0.5454549789428711 0.0
vn -0.6748999953269958 0.7376999855041504 -0.015599999576807022
v -0.11239399760961533 0.13040700554847717 0.0643400028347969
vt 0.6363639831542969 0.1574609875679016
vn -0.8716999888420105 -0.1898999959230423 0.45179998874664307
v -0.06880100071430206 0.17078299820423126 0.08607599884271622
vt 0.4545460045337677 0.1574609875679016
vn -0.17000000178813934 0.4260999858379364 0.8885999917984009
f 1/1/1 2/2/2 3/3/3
v -0.058483000844717026 0.17814600467681885 0.002894999925047159
vt 0.09091000258922577 0.1574609875679016
vn -0.015699999406933784 0.5421000123023987 -0.8402000069618225
v -0.03548299893736839 0.20028699934482574 0.04810100048780441
vt 0.27272799611091614 0.1574609875679016
vn 0.353300005197525 0.9296000003814697 0.10520000010728836
v -0.0025140000507235527 0.15432000160217285 0.022035999223589897
vt 0.18181900680065155 0.3149210214614868
vn 0.8716999888420105 0.1898999959230423 -0.45179998874664307
f 4/4/4 5/5/5 6/6/6
v -0.07942599803209305 0.0844390019774437 0.03827499970793724
vt 0.7272729873657227 0.3149210214614868
vn -0.353300005197525 -0.9296000003814697 -0.10520000010728836
v -0.04610700160264969 0.11394400149583817 0.0003000000142492354
vt 0.9090909957885742 0.3149210214614868
vn 0.17000000178813934 -0.4259999990463257 -0.8885999917984009
v -0.015456999652087688 0.0964059978723526 0.04390199854969978
vt 0.8181819915771484 0.4723820090293884
vn 0.6748999953269958 -0.7376999855041504 0.015599999576807022
f 7/7/7 8/8/8 9/9/9
v -0.008891000412404537 0.14976899325847626 0.07344499975442886
vt 0.3636370003223419 0.3149210214614868
vn 0.7580999732017517 0.11550000309944153 0.6417999863624573
v -0.056425001472234726 0.10657999664545059 0.08348099887371063
vt 0.5454549789428711 0.3149210214614868
vn 0.015699999406933784 -0.5421000123023987 0.8402000069618225
vt 0.4545460045337677 0.4723820090293884
f 10/10/10 11/11/11 9/12/9
v 0.14524799585342407 0.04533600062131882 0.03209200128912926
vt 0.18181900680065155 0.0
vn -0.7224000096321106 0.6366999745368958 0.26989999413490295
v 0.143544003367424 0.07616300135850906 0.08267000317573547
vn -0.6747000217437744 0.17520000040531158 -0.7170000076293945
v 0.15731999278068542 0.11504100263118744 0.036952000111341476
vn -0.9028000235557556 -0.39329999685287476 0.1738000065088272
f 12/13/12 13/5/13 14/4/14
vt 0.3636370003223419 0.0
v 0.09469400346279144 0.027628999203443527 0.06896299868822098
vn 0.022199999541044235 0.8899000287055969 -0.45559999346733093
f 13/5/13 12/14/12 15/3/15
vt 0.7272729873657227 0.0
v 0.11698299646377563 0.0905349999666214 -0.0050119999796152115
vt 0.8181819915771484 0.1574609875679016
vn -0.28130000829696655 -0.02810000069439411 0.9592000246047974
v 0.07827799767255783 0.036511000245809555 0.014773000031709671
vn 0.26030001044273376 0.7505000233650208 0.6074000000953674
f 12/15/12 16/16/16 17/2/17
f 12/1/12 17/2/17 15/3/15
v 0.07552199810743332 0.08639000356197357 0.09661199897527695
vn 0.28130000829696655 0.02810000069439411 -0.9592000246047974
f 13/5/13 15/3/15 18/10/18
v 0.11422599852085114 0.14041399955749512 0.07682699710130692
vn -0.26030001044273376 -0.7505000233650208 -0.6074000000953674
f 14/4/14 13/5/13 19/6/19
vt 1.0 0.1574609875679016
v 0.09781000018119812 0.14929600059986115 0.022637000307440758
vn -0.022199999541044235 -0.8899000287055969 0.45559999346733093
f 16/16/16 14/17/14 20/8/20
v 0.04896000027656555 0.10076200217008591 0.00892999954521656
vn 0.6747000217437744 -0.17520000040531158 0.7170000076293945
f 17/2/17 16/16/16 21/7/21
vt 0.0 0.3149210214614868
f 14/4/14 19/6/19 20/18/20
v 0.03518500179052353 0.06188400089740753 0.05464800074696541
vn 0.9028000235557556 0.39329999685287476 -0.1738000065088272
f 17/2/17 21/7/21 22/11/22
v 0.047256000339984894 0.13158899545669556 0.05950799956917763
vt 0.27272799611091614 0.4723820090293884
vn 0.7224000096321106 -0.6366999745368958 -0.26989999413490295
f 19/6/19 18/10/18 23/19/23
vt 0.09091000258922577 0.4723820090293884
f 20/18/20 19/6/19 23/20/23
f 21/7/21 20/8/20 23/9/23
vt 0.6363639831542969 0.4723820090293884
f 22/11/22 21/7/21 23/21/23
f 18/10/18 22/11/22 23/12/23
v -0.014229999855160713 -0.0302520003169775 0.029541000723838806
vn 0.40849998593330383 -0.7811999917030334 0.47209998965263367
v 0.055073998868465424 -0.06981000304222107 0.0036810000892728567
vn -0.4041999876499176 -0.29019999504089355 0.8673999905586243
v 0.06167000159621239 -0.024814000353217125 0.06163499876856804
vn -0.5108000040054321 -0.858299970626831 -0.04839999973773956
f 24/13/24 25/5/25 26/4/26
v -0.021355999633669853 -0.10975000262260437 0.0037150001153349876
vn 0.4697999954223633 0.16660000383853912 0.8669000267982483
f 25/5/25 24/14/24 27/3/27
v -0.010684000328183174 -0.036945000290870667 0.09748800098896027
vn 0.3610000014305115 -0.6915000081062317 -0.6256999969482422
v -0.06199700012803078 -0.08943799883127213 0.06169100105762482
vn 0.9962999820709229 -0.07079999893903732 -0.049300000071525574
f 24/15/24 28/16/28 29/2/29
f 24/1/24 29/2/29 27/3/27
v 0.05014000087976456 -0.15344500541687012 0.01984800025820732
vn -0.3610000014305115 0.6915000081062317 0.6256999969482422
f 25/5/25 27/3/27 30/10/30
v 0.10145299881696701 -0.10095199942588806 0.05564500018954277
vn -0.9962999820709229 0.07079999893903732 0.049300000071525574
f 26/4/26 25/5/25 31/6/31
v 0.060812000185251236 -0.08064000308513641 0.11362099647521973
vn -0.4697999954223633 -0.16660000383853912 -0.8669000267982483
f 28/16/28 26/17/26 32/8/32
v -0.01561800017952919 -0.12058000266551971 0.11365500092506409
vn 0.4041999876499176 0.29019999504089355 -0.8673999905586243
f 29/2/29 28/16/28 33/7/33
v -0.022213999181985855 -0.1655759960412979 0.05570099875330925
vn 0.5108000040054321 0.858299970626831 0.04839999973773956
f 27/3/27 29/2/29 34/11/34
f 26/4/26 31/6/31 32/18/32
f 28/16/28 32/8/32 33/7/33
f 29/2/29 33/7/33 34/11/34
v 0.053686000406742096 -0.16013799607753754 0.08779499679803848
vn -0.40849998593330383 0.7811999917030334 -0.47209998965263367
f 31/6/31 30/10/30 35/19/35
f 32/18/32 31/6/31 35/20/35
f 34/11/34 33/7/33 35/21/35
f 30/10/30 34/11/34 35/12/35
v -0.15598100423812866 -0.023660000413656235 0.03167999908328056
vn 0.8335000276565552 -0.14550000429153442 0.5331000089645386
v -0.09018299728631973 -0.05907600000500679 0.004131999798119068
vn 0.008500000461935997 0.27880001068115234 0.9603000283241272
v -0.08823200315237045 0.02089500054717064 0.019903000444173813
vn -0.014999999664723873 -0.6887000203132629 0.7249000072479248
f 36/13/36 37/5/37 38/4/38
v -0.1322450041770935 -0.09893500059843063 0.05051400139927864
vn 0.5449000000953674 0.8105000257492065 0.2150000035762787
f 37/5/37 36/14/36 39/3/39
v -0.12908899784088135 0.03046100027859211 0.07603400200605392
vn 0.5047000050544739 -0.8355000019073486 -0.21729999780654907
v -0.1562899947166443 -0.043598998337984085 0.09495200216770172
vn 0.8371000289916992 0.1054999977350235 -0.5368000268936157
f 36/15/36 40/16/40 41/2/41
f 36/1/36 41/2/41 39/3/39
v -0.04982500150799751 -0.1009029969573021 0.05037799850106239
vn -0.5047000050544739 0.8355000019073486 0.21729999780654907
f 37/5/37 39/3/39 42/10/42
v -0.0906819999217987 -0.09133700281381607 0.1065090000629425
vn 0.014999999664723873 0.6887000203132629 -0.7249000072479248
f 39/3/39 41/2/41 43/11/43
v -0.04666899889707565 0.02849300019443035 0.07589799910783768
vn -0.5449000000953674 -0.8105000257492065 -0.2150000035762787
v -0.08873099833726883 -0.011366000398993492 0.12228000164031982
vn -0.008500000461935997 -0.27880001068115234 -0.9603000283241272
f 40/16/40 44/8/44 45/7/45
f 41/2/41 45/7/45 43/11/43
v -0.022624000906944275 -0.026843000203371048 0.0314599983394146
vn -0.8371000289916992 -0.1054999977350235 0.5368000268936157
v -0.022933000698685646 -0.0467820018529892 0.09473200142383575
vn -0.8335000276565552 0.14550000429153442 -0.5331000089645386
f 46/6/46 42/10/42 47/19/47
f 44/18/44 46/6/46 47/20/47
f 43/11/43 45/7/45 47/21/47
f 42/10/42 43/11/43 47/12/47
vt 0.9090909957885742 0.0
f 36/22/36 38/17/38 40/16/40
f 37/5/37 42/10/42 46/6/46
f 38/4/38 46/6/46 44/18/44
f 45/7/45 44/8/44 47/9/47
o shrooms.simpler.RAND.RSCALE[.75,1.25]_Icosphere.027##0#0#1#14805998.0
g shrooms.simpler.RAND.RSCALE[.75,1.25]_Icosphere.027##0#0#1#14805998.0
f 38/4/38 37/5/37 46/6/46
f 40/16/40 38/17/38 44/8/44
f 41/2/41 40/16/40 45/7/45
v 0.0311879999935627 0.1567869931459427 0.00520299980416894
vn 0.0 -0.0 -1.0
v 0.004288999829441309 0.17633000016212463 0.021455999463796616
vn -0.7145000100135803 0.51910001039505 -0.4690999984741211
v 0.0414620004594326 0.1884090006351471 0.021455999463796616
vn 0.2728999853134155 0.839900016784668 -0.4690999984741211
f 48/13/48 49/5/49 50/4/50
v 0.004288999829441309 0.13724400103092194 0.021455999463796616
vn -0.7145000100135803 -0.51910001039505 -0.4690999984741211
f 49/5/49 48/14/48 51/3/51
v 0.06443700194358826 0.1567869931459427 0.021455999463796616
vn 0.8830999732017517 -0.0 -0.4690999984741211
f 48/22/48 50/17/50 52/16/52
v 0.0414620004594326 0.12516599893569946 0.021455999463796616
vn 0.2728999853134155 -0.839900016784668 -0.4690999984741211
f 48/15/48 52/16/52 53/2/53
f 48/1/48 53/2/53 51/3/51
v -0.002061000093817711 0.1567869931459427 0.04775499925017357
vn -0.8830999732017517 -0.0 0.4690999984741211
f 49/5/49 51/3/51 54/10/54
v 0.020913999527692795 0.1884090006351471 0.04775499925017357
vn -0.2728999853134155 0.839900016784668 0.4690999984741211
f 50/4/50 49/5/49 55/6/55
v 0.058086998760700226 0.17633000016212463 0.04775499925017357
vn 0.7145000100135803 0.51910001039505 0.4690999984741211
f 52/16/52 50/17/50 56/8/56
v 0.058086998760700226 0.13724400103092194 0.04775499925017357
vn 0.7145000100135803 -0.51910001039505 0.4690999984741211
f 53/2/53 52/16/52 57/7/57
v 0.020913999527692795 0.12516599893569946 0.04775499925017357
vn -0.2728999853134155 -0.839900016784668 0.4690999984741211
f 51/3/51 53/2/53 58/11/58
f 49/5/49 54/10/54 55/6/55
f 50/4/50 55/6/55 56/18/56
f 52/16/52 56/8/56 57/7/57
f 53/2/53 57/7/57 58/11/58
f 51/3/51 58/11/58 54/10/54
v 0.0311879999935627 0.1567869931459427 0.06400900334119797
vn -0.0 -0.0 1.0
f 55/6/55 54/10/54 59/19/59
f 56/18/56 55/6/55 59/20/59
f 57/7/57 56/8/56 59/9/59
f 58/11/58 57/7/57 59/21/59
f 54/10/54 58/11/58 59/12/59
f 1/13/1 5/5/5 4/4/4
f 5/5/5 1/14/1 3/3/3
v -0.10601799935102463 0.13495700061321259 0.01293100044131279
vn -0.7580999732017517 -0.11550000309944153 -0.6417999863624573
f 1/22/1 4/17/4 60/16/60
f 1/15/1 60/16/60 2/2/2
f 5/5/5 3/3/3 10/10/10
f 60/16/60 4/17/4 8/8/8
f 2/2/2 60/16/60 7/7/7
f 3/3/3 2/2/2 11/11/11
f 5/5/5 10/10/10 6/6/6
f 4/4/4 6/6/6 8/18/8
f 60/16/60 8/8/8 7/7/7
f 2/2/2 7/7/7 11/11/11
f 3/3/3 11/11/11 10/10/10
f 6/6/6 10/10/10 9/19/9
f 8/18/8 6/6/6 9/20/9
f 11/11/11 7/7/7 9/21/9
v -0.13061200082302094 0.047449998557567596 0.013287000358104706
vn -0.2888000011444092 -0.5108000040054321 -0.8097000122070312
v -0.11267899721860886 0.08529999852180481 0.009588000364601612
vn 0.13259999454021454 0.3765000104904175 -0.9168999791145325
v -0.08972600102424622 0.052629001438617706 0.020253000780940056
vn 0.6991000175476074 -0.39989998936653137 -0.5928000211715698
f 61/13/61 62/5/62 63/4/63
v -0.1510930061340332 0.08214399963617325 0.023067999631166458
vn -0.8030999898910522 0.32199999690055847 -0.5013999938964844
f 62/5/62 61/14/61 64/3/64
v -0.11395400017499924 0.029280999675393105 0.040323998779058456
vn 0.11169999837875366 -0.9912999868392944 0.07020000368356705
f 61/22/61 63/17/63 65/16/65
v -0.15188099443912506 0.04752200096845627 0.04206399992108345
vn -0.8348000049591064 -0.5353999733924866 0.1281999945640564
f 61/15/61 65/16/65 66/2/66
f 61/1/61 66/2/66 64/3/64
v -0.12286499887704849 0.10876499861478806 0.03607900068163872
vn -0.11169999837875366 0.9912999868392944 -0.07020000368356705
f 62/5/62 64/3/64 67/10/67
v -0.08493799716234207 0.09052299708127975 0.03434000164270401
vn 0.8348000049591064 0.5353999733924866 -0.1281999945640564
f 63/4/63 62/5/62 68/6/68
v -0.08572600036859512 0.05590200051665306 0.053335998207330704
vn 0.8030999898910522 -0.32199999690055847 0.5013999938964844
f 65/16/65 63/17/63 69/8/69
v -0.12414000183343887 0.05274499952793121 0.06681499630212784
vn -0.13259999454021454 -0.3765000104904175 0.9168999791145325
f 66/2/66 65/16/65 70/7/70
v -0.1470939964056015 0.08541599661111832 0.056150998920202255
vn -0.6991000175476074 0.39989998936653137 0.5928000211715698
f 64/3/64 66/2/66 71/11/71
f 62/5/62 67/10/67 68/6/68
f 63/4/63 68/6/68 69/18/69
f 65/16/65 69/8/69 70/7/70
f 66/2/66 70/7/70 71/11/71
f 64/3/64 71/11/71 67/10/67
v -0.10620799660682678 0.09059499949216843 0.06311699748039246
vn 0.2888000011444092 0.5108000040054321 0.8098000288009644
f 68/6/68 67/10/67 72/19/72
f 69/18/69 68/6/68 72/20/72
f 70/7/70 69/8/69 72/9/72
f 71/11/71 70/7/70 72/21/72
f 67/10/67 71/11/71 72/12/72
v 0.048843998461961746 -0.02585900016129017 0.031060999259352684
vn -0.9243999719619751 -0.3172000050544739 -0.21170000731945038
v 0.06414999812841415 0.016395000740885735 0.019842000678181648
vn -0.5735999941825867 0.6133000254631042 -0.5429999828338623
v 0.0818210020661354 -0.022778000682592392 0.0045449999161064625
vn -0.17470000684261322 -0.2289000004529953 -0.9575999975204468
f 73/13/73 74/5/74 75/4/75
v 0.05704199895262718 0.008077999576926231 0.05609799921512604
vn -0.73089998960495 0.43070000410079956 0.5295000076293945
f 74/5/74 73/14/73 76/3/76
v 0.0856349989771843 -0.05530700087547302 0.03134699910879135
vn -0.1046999990940094 -0.9735000133514404 -0.20309999585151672
f 73/22/73 75/17/75 77/16/77
v 0.0703200027346611 -0.03623700141906738 0.06320899724960327
vn -0.42980000376701355 -0.5286999940872192 0.7318999767303467
f 73/15/73 77/16/77 78/2/78
f 73/1/73 78/2/78 76/3/76
v 0.09508699923753738 0.03213199973106384 0.04505699872970581
vn 0.1046999990940094 0.9735000133514404 0.20309999585151672
f 74/5/74 76/3/76 79/10/79
v 0.11040200293064117 0.013062000274658203 0.013194999657571316
vn 0.42980000376701355 0.5286999940872192 -0.7318999767303467
f 75/4/75 74/5/74 80/6/80
v 0.1236800029873848 -0.031252000480890274 0.020305000245571136
vn 0.73089998960495 -0.43070000410079956 -0.5295000076293945
f 77/16/77 75/17/75 81/8/81
v 0.11657100170850754 -0.039570000022649765 0.056561000645160675
vn 0.5735999941825867 -0.6133000254631042 0.5429999828338623
f 78/2/78 77/16/77 82/7/82
v 0.09889999777078629 -0.0003969999961555004 0.07185900211334229
vn 0.17470000684261322 0.2289000004529953 0.9575999975204468
f 76/3/76 78/2/78 83/11/83
f 74/5/74 79/10/79 80/6/80
f 75/4/75 80/6/80 81/18/81
f 77/16/77 81/8/81 82/7/82
f 78/2/78 82/7/82 83/11/83
f 76/3/76 83/11/83 79/10/79
v 0.13187800347805023 0.0026839999482035637 0.04534199833869934
vn 0.9243999719619751 0.3172000050544739 0.21160000562667847
f 80/6/80 79/10/79 84/19/84
f 81/18/81 80/6/80 84/20/84
f 82/7/82 81/8/81 84/9/84
f 83/11/83 82/7/82 84/21/84
f 79/10/79 83/11/83 84/12/84
f 12/22/12 14/17/14 16/16/16
f 15/3/15 17/2/17 22/11/22
f 13/5/13 18/10/18 19/6/19
f 16/16/16 20/8/20 21/7/21
f 15/3/15 22/11/22 18/10/18
f 24/22/24 26/17/26 28/16/28
f 25/5/25 30/10/30 31/6/31
f 27/3/27 34/11/34 30/10/30
f 33/7/33 32/8/32 35/9/35
f 39/3/39 43/11/43 42/10/42
o shrooms.simpler.RAND.RSCALE[.75,1.25]_Icosphere.027##0#0#2#255.0
g shrooms.simpler.RAND.RSCALE[.75,1.25]_Icosphere.027##0#0#2#255.0
v 0.08466999977827072 0.043953001499176025 0.09394299983978271
vn 0.8504999876022339 -0.003800000064074993 -0.5260000228881836
v 0.06514699757099152 0.09128399938344955 0.08651000261306763
vt 0.9090909957885742 0.1574609875679016
vn 0.6517999768257141 0.47360000014305115 -0.5924000144004822
v 0.09003099799156189 0.07320500165224075 0.13627800345420837
vt 0.8636360168457031 0.23619097471237183
vn 0.9510999917984009 0.3089999854564667 -0.0
f 85/16/85 86/23/86 87/24/87
v 0.09003099799156189 0.014700000174343586 0.13627800345420837
vt 0.7727270126342773 0.23619097471237183
vn 0.9510999917984009 -0.3089999854564667 -0.0
f 85/16/85 87/24/87 88/25/88
v 0.04026300087571144 0.014700000174343586 0.21680499613285065
vt 0.7727270126342773 0.39365100860595703
vn 0.4253000020980835 -0.3089999854564667 0.8507000207901001
v 0.04026300087571144 0.07320500165224075 0.21680499613285065
vt 0.8636360168457031 0.39365100860595703
vn 0.4253000020980835 0.3089999854564667 0.8507000207901001
v -0.0 0.043953001499176025 0.2309429943561554
f 89/26/89 90/27/90 91/9/59
v 0.08052600175142288 0.043953001499176025 0.1860470026731491
vt 0.8181819915771484 0.3149210214614868
vn 0.8507000207901001 0.0 0.5256999731063843
f 89/26/89 92/28/91 90/27/90
v 0.06849999725818634 0.09371999651193619 0.17861400544643402
vn 0.7235999703407288 0.5256999731063843 0.4472000002861023
f 92/28/91 93/8/92 90/27/90
f 88/25/88 87/24/87 92/28/91
f 87/24/87 93/8/92 92/28/91
v 0.05564200133085251 -0.032632000744342804 0.13627800345420837
vt 0.6818180084228516 0.23619097471237183
vn 0.5878000259399414 -0.8090000152587891 -0.0
v 0.06514699757099152 -0.003378999885171652 0.08651000261306763
vt 0.7272729873657227 0.1574609875679016
vn 0.6247000098228455 -0.4625999927520752 -0.6291000247001648
f 94/29/93 95/30/94 88/25/88
f 95/30/94 85/16/85 88/25/88
v 0.06849999725818634 -0.005814999807626009 0.17861400544643402
vn 0.7235999703407288 -0.5256999731063843 0.4472000002861023
f 96/7/95 92/28/91 89/26/89
f 88/25/88 92/28/91 96/7/95
f 94/29/93 88/25/88 96/7/95
v -0.016589000821113586 -0.007104000076651573 0.06600400060415268
vt 0.6818180084228516 0.0787310004234314
vn -0.16140000522136688 -0.5339999794960022 -0.8299000263214111
v 0.021716000512242317 0.05973000079393387 0.05103899911046028
vt 0.7727270126342773 0.0787310004234314
vn 0.22599999606609344 0.11029999703168869 -0.9678999781608582
f 97/31/96 98/32/97 95/30/94
f 98/32/97 85/16/85 95/30/94
vt 0.8636360168457031 0.0787310004234314
f 98/33/97 86/23/86 85/16/85
o shrooms.simpler.RAND.RSCALE[.75,1.25]_Icosphere.027##0#0#3#65535.0
g shrooms.simpler.RAND.RSCALE[.75,1.25]_Icosphere.027##0#0#3#65535.0
v 0.024884000420570374 0.12053699791431427 0.1860470026731491
vt 0.09091000258922577 0.3149210214614868
vn 0.2628999948501587 0.8090000152587891 0.5256999731063843
vt 0.045455001294612885 0.39365100860595703
f 93/18/92 99/34/98 90/35/90
v -0.015379000455141068 0.09128399938344955 0.21680499613285065
vt 0.13636499643325806 0.39365100860595703
vn -0.16249999403953552 0.5 0.8507000207901001
f 90/35/90 100/36/99 91/20/59
f 90/35/90 99/34/98 100/36/99
v -0.02616400085389614 0.12447900325059891 0.17861400544643402
vn -0.27639999985694885 0.850600004196167 0.4472000002861023
f 99/34/98 101/6/100 100/36/99
v 0.05564200133085251 0.12053799629211426 0.13627800345420837
vt 0.045455001294612885 0.23619097471237183
vn 0.5878000259399414 0.8090000152587891 -0.0
f 102/37/101 99/34/98 93/18/92
vt 0.9545450210571289 0.23619097471237183
f 87/24/87 102/38/101 93/8/92
f 87/24/87 86/23/86 102/38/101
v 0.02616400085389614 0.12447900325059891 0.09394299983978271
vn 0.25920000672340393 0.8100000023841858 -0.5260000228881836
f 86/23/86 103/17/102 102/38/101
vt 0.9545450210571289 0.0787310004234314
f 98/39/97 103/17/102 86/23/86
v -0.04026300087571144 0.07320500165224075 0.05575200170278549
vt 0.31818199157714844 0.0787310004234314
vn -0.3411000072956085 0.22779999673366547 -0.9120000004768372
vt 0.4090920090675354 0.0787310004234314
f 104/40/103 98/14/97 97/41/96
vt 0.13636499643325806 0.0787310004234314
v -0.024884000420570374 0.12053699791431427 0.08651000261306763
vt 0.18181900680065155 0.1574609875679016
vn -0.21770000457763672 0.7872999906539917 -0.5769000053405762
f 98/42/97 105/43/104 103/4/102
vt 0.22727300226688385 0.0787310004234314
f 98/42/97 104/44/103 105/43/104
v -0.0 0.13861699402332306 0.13627800345420837
vt 0.13636499643325806 0.23619097471237183
vn 0.0 1.0 -0.0
f 103/4/102 105/43/104 106/45/105
f 103/4/102 106/45/105 102/37/101
f 102/37/101 106/45/105 99/34/98
f 106/45/105 101/6/100 99/34/98
o shrooms.simpler.RAND.RSCALE[.75,1.25]_Icosphere.027##0#0#4#16777052.0
g shrooms.simpler.RAND.RSCALE[.75,1.25]_Icosphere.027##0#0#4#16777052.0
v -0.06849999725818634 0.09371999651193619 0.09394299983978271
vn -0.7235999703407288 0.5256999731063843 -0.4472000002861023
v -0.08052600175142288 0.043953001499176025 0.08651000261306763
vt 0.3636370003223419 0.1574609875679016
vn -0.810699999332428 -0.041099999099969864 -0.5839999914169312
f 107/5/106 104/40/103 108/46/107
v -0.09003099799156189 0.07320500165224075 0.13627800345420837
vt 0.31818199157714844 0.23619097471237183
vn -0.9510999917984009 0.3089999854564667 -0.0
f 107/5/106 108/46/107 109/47/108
v -0.05564200133085251 0.12053799629211426 0.13627800345420837
vt 0.22727300226688385 0.23619097471237183
vn -0.5878000259399414 0.8090000152587891 -0.0
f 107/5/106 109/47/108 110/48/109
v -0.06514699757099152 0.09128399938344955 0.1860470026731491
vt 0.27272799611091614 0.3149210214614868
vn -0.6881999969482422 0.5 0.5256999731063843
vt 0.22727300226688385 0.39365100860595703
f 101/6/100 111/49/110 100/50/99
f 110/48/109 111/49/110 101/6/100
f 110/48/109 109/47/108 111/49/110
v -0.08466999977827072 0.043953001499176025 0.17861400544643402
vn -0.8944000005722046 0.0 0.4472000002861023
f 109/47/108 112/10/111 111/49/110
f 105/43/104 107/5/106 110/48/109
f 108/46/107 104/40/103 97/41/96
f 104/44/103 107/5/106 105/43/104
v -0.04976800084114075 0.043953001499176025 0.21680499613285065
vt 0.31818199157714844 0.39365100860595703
vn -0.5256999731063843 0.0 0.8507000207901001
f 100/50/99 113/51/112 91/19/59
f 100/50/99 111/49/110 113/51/112
f 111/49/110 112/10/111 113/51/112
f 106/45/105 110/48/109 101/6/100
f 106/45/105 105/43/104 110/48/109
o shrooms.simpler.RAND.RSCALE[.75,1.25]_Icosphere.027##0#0#5#16711808.0
g shrooms.simpler.RAND.RSCALE[.75,1.25]_Icosphere.027##0#0#5#16711808.0
v -0.06514699757099152 -0.003378999885171652 0.1860470026731491
vt 0.4545460045337677 0.3149210214614868
vn -0.6881999969482422 -0.5 0.5256999731063843
v -0.02616400085389614 -0.03657300025224686 0.17861400544643402
vn -0.27639999985694885 -0.850600004196167 0.4472000002861023
v -0.015379000455141068 -0.003378999885171652 0.21680499613285065
vt 0.5 0.39365100860595703
vn -0.16249999403953552 -0.5 0.8507000207901001
f 114/52/113 115/11/114 116/53/115
v -0.09003099799156189 0.014700000174343586 0.13627800345420837
vt 0.4090920090675354 0.23619097471237183
vn -0.9510999917984009 -0.3089999854564667 0.0
f 117/54/116 114/52/113 112/10/111
v -0.05564200133085251 -0.032632000744342804 0.13627800345420837
vt 0.5 0.23619097471237183
vn -0.5547999739646912 -0.8288999795913696 -0.07199999690055847
f 117/54/116 118/55/117 114/52/113
f 118/55/117 115/11/114 114/52/113
f 109/47/108 117/54/116 112/10/111
f 109/47/108 108/46/107 117/54/116
v -0.06849999725818634 -0.005814999807626009 0.09394299983978271
vn -0.6344000101089478 -0.5554999709129333 -0.5375999808311462
vt 0.5454549789428711 0.1574609875679016
f 119/3/118 97/56/96 118/55/117
f 119/3/118 118/55/117 117/54/116
vt 0.4090920090675354 0.39365100860595703
f 112/10/111 114/52/113 113/57/112
f 113/57/112 116/53/115 91/12/59
f 113/57/112 114/52/113 116/53/115
f 108/46/107 119/3/118 117/54/116
f 108/46/107 97/41/96 119/3/118
o shrooms.simpler.RAND.RSCALE[.75,1.25]_Icosphere.027##0#0#6#65280.0
g shrooms.simpler.RAND.RSCALE[.75,1.25]_Icosphere.027##0#0#6#65280.0
v 0.02616400085389614 -0.03657300025224686 0.09394299983978271
vn 0.1867000013589859 -0.8223000168800354 -0.5375999808311462
f 120/2/119 95/30/94 94/29/93
v -0.0 -0.05071200057864189 0.13627800345420837
vt 0.5909090042114258 0.23619097471237183
vn -0.03840000182390213 -0.9966999888420105 -0.07209999859333038
f 120/2/119 94/29/93 121/58/120
v 0.024884000420570374 -0.032632000744342804 0.1860470026731491
vt 0.6363639831542969 0.3149210214614868
vn 0.2628999948501587 -0.8090000152587891 0.5256999731063843
vt 0.5909090042114258 0.39365100860595703
f 115/11/114 122/59/121 116/60/115
vt 0.6818180084228516 0.39365100860595703
f 116/60/115 89/61/89 91/21/59
f 116/60/115 122/59/121 89/61/89
f 121/58/120 122/59/121 115/11/114
f 121/58/120 94/29/93 122/59/121
f 118/55/117 121/58/120 115/11/114
f 118/55/117 97/56/96 121/58/120
f 97/56/96 120/2/119 121/58/120
f 97/31/96 95/30/94 120/2/119
f 122/59/121 96/7/95 89/61/89
f 94/29/93 96/7/95 122/59/121
