# OBJ file
o __dotobj_group__##0#1#0#-1.0
g __dotobj_group__##0#1#0#-1.0
o shrooms.simpler.RAND.RSCALE[.75,1.25]_Icosphere.027##0#0#0#1644052.0
g shrooms.simpler.RAND.RSCALE[.75,1.25]_Icosphere.027##0#0#0#1644052.0
v -0.06849999725818634 0.09371999651193619 0.09394299983978271
vt 0.27272799611091614 0.1574609875679016
vn -0.7235999703407288 0.5256999731063843 -0.4472000002861023
v -0.04026300087571144 0.07320500165224075 0.05575200170278549
vt 0.31818199157714844 0.0787310004234314
vn -0.3409999907016754 0.22779999673366547 -0.9120000004768372
v -0.08052600175142288 0.043953001499176025 0.08651000261306763
vt 0.3636370003223419 0.1574609875679016
vn -0.810699999332428 -0.041099999099969864 -0.5839999914169312
f 1/1/1 2/2/2 3/3/3
v -0.09003099799156189 0.07320500165224075 0.13627800345420837
vt 0.31818199157714844 0.23619097471237183
vn -0.9509999752044678 0.3089999854564667 0.0
f 1/1/1 3/3/3 4/4/4
v 0.08466999977827072 0.043953001499176025 0.09394299983978271
vt 0.8181819915771484 0.1574609875679016
vn 0.8504999876022339 -0.003800000064074993 -0.5259000062942505
v 0.06514699757099152 0.09128399938344955 0.08651000261306763
vt 0.9090909957885742 0.1574609875679016
vn 0.6517999768257141 0.47360000014305115 -0.5922999978065491
v 0.09003099799156189 0.07320500165224075 0.13627800345420837
vt 0.8636360168457031 0.23619097471237183
vn 0.9509999752044678 0.3089999854564667 0.0
f 5/5/5 6/6/6 7/7/7
v 0.02616400085389614 -0.03657300025224686 0.09394299983978271
vt 0.6363639831542969 0.1574609875679016
vn 0.1867000013589859 -0.8222000002861023 -0.5375999808311462
v 0.06514699757099152 -0.003378999885171652 0.08651000261306763
vt 0.7272729873657227 0.1574609875679016
vn 0.6247000098228455 -0.4625999927520752 -0.6291000247001648
v 0.05564200133085251 -0.032632000744342804 0.13627800345420837
vt 0.6818180084228516 0.23619097471237183
vn 0.5878000259399414 -0.8090000152587891 0.0
f 8/8/8 9/9/9 10/10/10
v -0.05564200133085251 0.12053799629211426 0.13627800345420837
vt 0.22727300226688385 0.23619097471237183
vn -0.5878000259399414 0.8090000152587891 0.0
f 1/1/1 4/4/4 11/11/11
v 0.09003099799156189 0.014700000174343586 0.13627800345420837
vt 0.7727270126342773 0.23619097471237183
vn 0.9509999752044678 -0.3089999854564667 0.0
f 5/5/5 7/7/7 12/12/12
v -0.0 -0.05071200057864189 0.13627800345420837
vt 0.5909090042114258 0.23619097471237183
vn -0.03840000182390213 -0.9965999722480774 -0.07199999690055847
f 8/8/8 10/10/10 13/13/13
v -0.02616400085389614 0.12447900325059891 0.17861400544643402
vt 0.18181900680065155 0.3149210214614868
vn -0.27639999985694885 0.850600004196167 0.4472000002861023
v -0.06514699757099152 0.09128399938344955 0.1860470026731491
vt 0.27272799611091614 0.3149210214614868
vn -0.6881999969482422 0.5 0.5256999731063843
v -0.015379000455141068 0.09128399938344955 0.21680499613285065
vt 0.22727300226688385 0.39365100860595703
vn -0.16249999403953552 0.5 0.850600004196167
f 14/14/14 15/15/15 16/16/16
v 0.06849999725818634 0.09371999651193619 0.17861400544643402
vt 0.0 0.3149210214614868
vn 0.7235999703407288 0.5256999731063843 0.4472000002861023
v 0.024884000420570374 0.12053699791431427 0.1860470026731491
vt 0.09091000258922577 0.3149210214614868
vn 0.2628999948501587 0.8090000152587891 0.5256999731063843
v 0.04026300087571144 0.07320500165224075 0.21680499613285065
vt 0.045455001294612885 0.39365100860595703
vn 0.4253000020980835 0.3089999854564667 0.850600004196167
f 17/17/17 18/18/18 19/19/19
v -0.02616400085389614 -0.03657300025224686 0.17861400544643402
vt 0.5454549789428711 0.3149210214614868
vn -0.27639999985694885 -0.850600004196167 0.4472000002861023
v 0.024884000420570374 -0.032632000744342804 0.1860470026731491
vt 0.6363639831542969 0.3149210214614868
vn 0.2628999948501587 -0.8090000152587891 0.5256999731063843
v -0.015379000455141068 -0.003378999885171652 0.21680499613285065
vt 0.5909090042114258 0.39365100860595703
vn -0.16249999403953552 -0.5 0.850600004196167
f 20/20/20 21/21/21 22/22/22
v -0.06514699757099152 -0.003378999885171652 0.1860470026731491
vt 0.4545460045337677 0.3149210214614868
vn -0.6881999969482422 -0.5 0.5256999731063843
vt 0.5 0.39365100860595703
f 23/23/23 20/20/20 22/24/22
v 0.04026300087571144 0.014700000174343586 0.21680499613285065
vt 0.6818180084228516 0.39365100860595703
vn 0.4253000020980835 -0.3089999854564667 0.850600004196167
v -0.0 0.043953001499176025 0.2309429943561554
vt 0.6363639831542969 0.4723820090293884
vn -0.0 0.0 1.0
f 22/22/22 24/25/24 25/26/25
f 22/22/22 21/21/21 24/25/24
vt 0.7727270126342773 0.39365100860595703
vt 0.8636360168457031 0.39365100860595703
vt 0.8181819915771484 0.4723820090293884
f 24/27/24 19/28/19 25/29/25
v 0.08052600175142288 0.043953001499176025 0.1860470026731491
vt 0.8181819915771484 0.3149210214614868
vn 0.850600004196167 0.0 0.5256999731063843
f 24/27/24 26/30/26 19/28/19
vt 0.9090909957885742 0.3149210214614868
f 26/30/26 17/31/17 19/28/19
vt 0.13636499643325806 0.39365100860595703
vt 0.09091000258922577 0.4723820090293884
f 19/19/19 16/32/16 25/33/25
f 19/19/19 18/18/18 16/32/16
f 18/18/18 14/14/14 16/32/16
v -0.09003099799156189 0.014700000174343586 0.13627800345420837
vt 0.4090920090675354 0.23619097471237183
vn -0.9509999752044678 -0.3089999854564667 0.0
v -0.08466999977827072 0.043953001499176025 0.17861400544643402
vt 0.3636370003223419 0.3149210214614868
vn -0.8944000005722046 0.0 0.4472000002861023
f 27/34/27 23/23/23 28/35/28
v -0.05564200133085251 -0.032632000744342804 0.13627800345420837
vt 0.5 0.23619097471237183
vn -0.5547999739646912 -0.8288999795913696 -0.07199999690055847
f 27/34/27 29/36/29 23/23/23
f 29/36/29 20/20/20 23/23/23
f 13/13/13 21/21/21 20/20/20
f 13/13/13 10/10/10 21/21/21
f 12/12/12 7/7/7 26/30/26
f 7/7/7 17/31/17 26/30/26
v 0.05564200133085251 0.12053799629211426 0.13627800345420837
vt 0.045455001294612885 0.23619097471237183
vn 0.5878000259399414 0.8090000152587891 0.0
f 30/37/30 18/18/18 17/17/17
f 11/11/11 15/15/15 14/14/14
f 11/11/11 4/4/4 15/15/15
f 4/4/4 28/35/28 15/15/15
f 29/36/29 13/13/13 20/20/20
v -0.016589000821113586 -0.007104000076651573 0.06600400060415268
vt 0.5454549789428711 0.1574609875679016
vn -0.16140000522136688 -0.5339999794960022 -0.8299000263214111
f 29/36/29 31/38/31 13/13/13
f 31/38/31 8/8/8 13/13/13
f 10/10/10 9/9/9 12/12/12
f 9/9/9 5/5/5 12/12/12
vt 0.9545450210571289 0.23619097471237183
f 7/7/7 30/39/30 17/31/17
f 7/7/7 6/6/6 30/39/30
v 0.02616400085389614 0.12447900325059891 0.09394299983978271
vt 1.0 0.1574609875679016
vn 0.25920000672340393 0.8100000023841858 -0.5260000228881836
f 6/6/6 32/40/32 30/39/30
v -0.024884000420570374 0.12053699791431427 0.08651000261306763
vt 0.18181900680065155 0.1574609875679016
vn -0.21770000457763672 0.7872999906539917 -0.5767999887466431
f 33/41/33 1/1/1 11/11/11
f 4/4/4 27/34/27 28/35/28
f 4/4/4 3/3/3 27/34/27
vt 0.6818180084228516 0.0787310004234314
f 31/42/31 9/9/9 8/8/8
v 0.021716000512242317 0.05973000079393387 0.05103899911046028
vt 0.9545450210571289 0.0787310004234314
vn 0.22599999606609344 0.11029999703168869 -0.9678000211715698
f 34/43/34 32/40/32 6/6/6
vt 0.4090920090675354 0.0787310004234314
f 3/3/3 2/2/2 31/44/31
vt 0.3636370003223419 0.0
f 2/2/2 34/45/34 31/44/31
vt 0.13636499643325806 0.0787310004234314
vt 0.09091000258922577 0.1574609875679016
f 34/46/34 33/41/33 32/47/32
vt 0.22727300226688385 0.0787310004234314
f 34/46/34 2/48/2 33/41/33
f 2/48/2 1/1/1 33/41/33
v -0.09945099800825119 0.18832099437713623 0.04247400164604187
vt 0.5454549789428711 0.0
vn -0.6748999953269958 0.7376999855041504 -0.015599999576807022
v -0.11239399760961533 0.13040700554847717 0.0643400028347969
vn -0.8716999888420105 -0.1898999959230423 0.45179998874664307
v -0.06880100071430206 0.17078299820423126 0.08607599884271622
vt 0.4545460045337677 0.1574609875679016
vn -0.17000000178813934 0.4259999990463257 0.8885999917984009
f 35/49/35 36/8/36 37/50/37
v -0.058483000844717026 0.17814600467681885 0.002894999925047159
vn -0.015699999406933784 0.5421000123023987 -0.8400999903678894
v -0.03548299893736839 0.20028699934482574 0.04810100048780441
vn 0.353300005197525 0.9296000003814697 0.10520000010728836
v -0.0025140000507235527 0.15432000160217285 0.022035999223589897
vn 0.8716999888420105 0.1898999959230423 -0.45179998874664307
f 38/47/38 39/1/39 40/14/40
v -0.07942599803209305 0.0844390019774437 0.03827499970793724
vt 0.7272729873657227 0.3149210214614868
vn -0.353300005197525 -0.9296000003814697 -0.10520000010728836
v -0.04610700160264969 0.11394400149583817 0.0003000000142492354
vn 0.17000000178813934 -0.4259999990463257 -0.8885999917984009
v -0.015456999652087688 0.0964059978723526 0.04390199854969978
vn 0.6748999953269958 -0.7376999855041504 0.015599999576807022
f 41/51/41 42/31/42 43/29/43
v -0.008891000412404537 0.14976899325847626 0.07344499975442886
vn 0.7580999732017517 0.11550000309944153 0.6417999863624573
v -0.056425001472234726 0.10657999664545059 0.08348099887371063
vn 0.015699999406933784 -0.5421000123023987 0.8400999903678894
vt 0.4545460045337677 0.4723820090293884
f 44/35/44 45/20/45 43/52/43
v 0.14524799585342407 0.04533600062131882 0.03209200128912926
vt 0.18181900680065155 0.0
vn -0.7222999930381775 0.6366999745368958 0.26989999413490295
v 0.143544003367424 0.07616300135850906 0.08267000317573547
vn -0.6746000051498413 0.17520000040531158 -0.7170000076293945
v 0.15731999278068542 0.11504100263118744 0.036952000111341476
vn -0.9028000235557556 -0.39329999685287476 0.1738000065088272
f 46/53/46 47/1/47 48/47/48
v 0.09469400346279144 0.027628999203443527 0.06896299868822098
vn 0.022099999710917473 0.8899000287055969 -0.45559999346733093
f 47/1/47 46/45/46 49/50/49
vt 0.7272729873657227 0.0
v 0.11698299646377563 0.0905349999666214 -0.0050119999796152115
vn -0.28130000829696655 -0.02810000069439411 0.9592000246047974
v 0.07827799767255783 0.036511000245809555 0.014773000031709671
vn 0.26019999384880066 0.7505000233650208 0.6074000000953674
f 46/54/46 50/5/50 51/8/51
f 46/49/46 51/8/51 49/50/49
v 0.07552199810743332 0.08639000356197357 0.09661199897527695
vn 0.28130000829696655 0.02810000069439411 -0.9592000246047974
f 47/1/47 49/50/49 52/35/52
v 0.11422599852085114 0.14041399955749512 0.07682699710130692
vn -0.26019999384880066 -0.7505000233650208 -0.6074000000953674
f 48/47/48 47/1/47 53/14/53
v 0.09781000018119812 0.14929600059986115 0.022637000307440758
vn -0.022099999710917473 -0.8899000287055969 0.45559999346733093
f 50/5/50 48/40/48 54/31/54
v 0.04896000027656555 0.10076200217008591 0.00892999954521656
vn 0.6746000051498413 -0.17520000040531158 0.7170000076293945
f 51/8/51 50/5/50 55/51/55
f 48/47/48 53/14/53 54/17/54
v 0.03518500179052353 0.06188400089740753 0.05464800074696541
vn 0.9028000235557556 0.39329999685287476 -0.1738000065088272
f 51/8/51 55/51/55 56/20/56
v 0.047256000339984894 0.13158899545669556 0.05950799956917763
vt 0.27272799611091614 0.4723820090293884
vn 0.7222999930381775 -0.6366999745368958 -0.26989999413490295
f 53/14/53 52/35/52 57/55/57
f 54/17/54 53/14/53 57/33/57
f 55/51/55 54/31/54 57/29/57
f 56/20/56 55/51/55 57/26/57
f 52/35/52 56/20/56 57/52/57
v -0.014229999855160713 -0.0302520003169775 0.029541000723838806
vn 0.40849998593330383 -0.7811999917030334 0.47209998965263367
v 0.055073998868465424 -0.06981000304222107 0.0036810000892728567
vn -0.4041999876499176 -0.29019999504089355 0.8673999905586243
v 0.06167000159621239 -0.024814000353217125 0.06163499876856804
vn -0.5108000040054321 -0.858299970626831 -0.04839999973773956
f 58/53/58 59/1/59 60/47/60
v -0.021355999633669853 -0.10975000262260437 0.0037150001153349876
vn 0.4697999954223633 0.1665000021457672 0.8669000267982483
f 59/1/59 58/45/58 61/50/61
v -0.010684000328183174 -0.036945000290870667 0.09748800098896027
vn 0.3610000014305115 -0.6915000081062317 -0.6256999969482422
v -0.06199700012803078 -0.08943799883127213 0.06169100105762482
vn 0.9962000250816345 -0.07079999893903732 -0.049300000071525574
f 58/54/58 62/5/62 63/8/63
f 58/49/58 63/8/63 61/50/61
v 0.05014000087976456 -0.15344500541687012 0.01984800025820732
vn -0.3610000014305115 0.6915000081062317 0.6256999969482422
f 59/1/59 61/50/61 64/35/64
v 0.10145299881696701 -0.10095199942588806 0.05564500018954277
vn -0.9962000250816345 0.07079999893903732 0.049300000071525574
f 60/47/60 59/1/59 65/14/65
v 0.060812000185251236 -0.08064000308513641 0.11362099647521973
vn -0.4697999954223633 -0.1665000021457672 -0.8669000267982483
f 62/5/62 60/40/60 66/31/66
v -0.01561800017952919 -0.12058000266551971 0.11365500092506409
vn 0.4041999876499176 0.29019999504089355 -0.8673999905586243
f 63/8/63 62/5/62 67/51/67
v -0.022213999181985855 -0.1655759960412979 0.05570099875330925
vn 0.5108000040054321 0.858299970626831 0.04839999973773956
f 61/50/61 63/8/63 68/20/68
f 60/47/60 65/14/65 66/17/66
f 62/5/62 66/31/66 67/51/67
f 63/8/63 67/51/67 68/20/68
v 0.053686000406742096 -0.16013799607753754 0.08779499679803848
vn -0.40849998593330383 0.7811999917030334 -0.47209998965263367
f 65/14/65 64/35/64 69/55/69
f 66/17/66 65/14/65 69/33/69
f 68/20/68 67/51/67 69/26/69
f 64/35/64 68/20/68 69/52/69
v -0.15598100423812866 -0.023660000413656235 0.03167999908328056
vn 0.8334000110626221 -0.14550000429153442 0.5331000089645386
v -0.09018299728631973 -0.05907600000500679 0.004131999798119068
vn 0.008500000461935997 0.27869999408721924 0.9603000283241272
v -0.08823200315237045 0.02089500054717064 0.019903000444173813
vn -0.014999999664723873 -0.6887000203132629 0.7247999906539917
f 70/53/70 71/1/71 72/47/72
v -0.1322450041770935 -0.09893500059843063 0.05051400139927864
vn 0.5449000000953674 0.8104000091552734 0.2150000035762787
f 71/1/71 70/45/70 73/50/73
v -0.12908899784088135 0.03046100027859211 0.07603400200605392
vn 0.5047000050544739 -0.8353999853134155 -0.21729999780654907
v -0.1562899947166443 -0.043598998337984085 0.09495200216770172
vn 0.8371000289916992 0.1054999977350235 -0.5368000268936157
f 70/54/70 74/5/74 75/8/75
f 70/49/70 75/8/75 73/50/73
v -0.04982500150799751 -0.1009029969573021 0.05037799850106239
vn -0.5047000050544739 0.8353999853134155 0.21729999780654907
f 71/1/71 73/50/73 76/35/76
v -0.022624000906944275 -0.026843000203371048 0.0314599983394146
vn -0.8371000289916992 -0.1054999977350235 0.5368000268936157
f 72/47/72 71/1/71 77/14/77
v -0.04666899889707565 0.02849300019443035 0.07589799910783768
vn -0.5449000000953674 -0.8104000091552734 -0.2150000035762787
f 74/5/74 72/40/72 78/31/78
v -0.08873099833726883 -0.011366000398993492 0.12228000164031982
vn -0.008500000461935997 -0.27869999408721924 -0.9603000283241272
f 75/8/75 74/5/74 79/51/79
v -0.0906819999217987 -0.09133700281381607 0.1065090000629425
vn 0.014999999664723873 0.6887000203132629 -0.7247999906539917
f 73/50/73 75/8/75 80/20/80
f 74/5/74 78/31/78 79/51/79
f 75/8/75 79/51/79 80/20/80
v -0.022933000698685646 -0.0467820018529892 0.09473200142383575
vn -0.8334000110626221 0.14550000429153442 -0.5331000089645386
f 77/14/77 76/35/76 81/55/81
f 78/17/78 77/14/77 81/33/81
f 80/20/80 79/51/79 81/26/81
f 76/35/76 80/20/80 81/52/81
o shrooms.simpler.RAND.RSCALE[.75,1.25]_Icosphere.027##0#0#1#14805998.0
g shrooms.simpler.RAND.RSCALE[.75,1.25]_Icosphere.027##0#0#1#14805998.0
v -0.0 0.13861699402332306 0.13627800345420837
vt 0.13636499643325806 0.23619097471237183
vn -0.0 1.0 0.0
f 32/47/32 33/41/33 82/56/82
v -0.06849999725818634 -0.005814999807626009 0.09394299983978271
vn -0.6342999935150146 -0.5554999709129333 -0.5375999808311462
f 83/50/83 31/38/31 29/36/29
f 32/47/32 82/56/82 30/37/30
f 83/50/83 29/36/29 27/34/27
v 0.06849999725818634 -0.005814999807626009 0.17861400544643402
vn 0.7235999703407288 -0.5256999731063843 0.4472000002861023
f 84/51/84 26/30/26 24/27/24
v -0.04976800084114075 0.043953001499176025 0.21680499613285065
vt 0.4090920090675354 0.39365100860595703
vn -0.5256999731063843 0.0 0.850600004196167
f 28/35/28 23/23/23 85/57/85
f 85/57/85 22/24/22 25/52/25
f 85/57/85 23/23/23 22/24/22
f 21/21/21 84/51/84 24/25/24
vt 0.31818199157714844 0.39365100860595703
f 16/16/16 85/58/85 25/55/25
f 16/16/16 15/15/15 85/58/85
f 15/15/15 28/35/28 85/58/85
f 10/10/10 84/51/84 21/21/21
f 12/12/12 26/30/26 84/51/84
f 30/37/30 82/56/82 18/18/18
f 82/56/82 14/14/14 18/18/18
f 10/10/10 12/12/12 84/51/84
f 82/56/82 11/11/11 14/14/14
f 82/56/82 33/41/33 11/11/11
f 3/3/3 83/50/83 27/34/27
vt 0.7727270126342773 0.0787310004234314
f 31/42/31 34/59/34 9/9/9
f 34/59/34 5/5/5 9/9/9
vt 0.8636360168457031 0.0787310004234314
f 34/60/34 6/6/6 5/5/5
f 3/3/3 31/44/31 83/50/83
v 0.0311879999935627 0.1567869931459427 0.00520299980416894
vn -0.0 0.0 -1.0
v 0.004288999829441309 0.17633000016212463 0.021455999463796616
vn -0.7145000100135803 0.51910001039505 -0.4690999984741211
v 0.0414620004594326 0.1884090006351471 0.021455999463796616
vn 0.2728999853134155 0.839900016784668 -0.4690999984741211
f 86/53/86 87/1/87 88/47/88
v 0.004288999829441309 0.13724400103092194 0.021455999463796616
vn -0.7145000100135803 -0.51910001039505 -0.4690999984741211
f 87/1/87 86/45/86 89/50/89
vt 0.9090909957885742 0.0
v 0.06443700194358826 0.1567869931459427 0.021455999463796616
vn 0.8830999732017517 0.0 -0.4690999984741211
f 86/61/86 88/40/88 90/5/90
v 0.0414620004594326 0.12516599893569946 0.021455999463796616
vn 0.2728999853134155 -0.839900016784668 -0.4690999984741211
f 86/54/86 90/5/90 91/8/91
f 86/49/86 91/8/91 89/50/89
v -0.002061000093817711 0.1567869931459427 0.04775499925017357
vn -0.8830999732017517 0.0 0.4690999984741211
f 87/1/87 89/50/89 92/35/92
v 0.020913999527692795 0.1884090006351471 0.04775499925017357
vn -0.2728999853134155 0.839900016784668 0.4690999984741211
f 88/47/88 87/1/87 93/14/93
v 0.058086998760700226 0.17633000016212463 0.04775499925017357
vn 0.7145000100135803 0.51910001039505 0.4690999984741211
f 90/5/90 88/40/88 94/31/94
v 0.058086998760700226 0.13724400103092194 0.04775499925017357
vn 0.7145000100135803 -0.51910001039505 0.4690999984741211
f 91/8/91 90/5/90 95/51/95
v 0.020913999527692795 0.12516599893569946 0.04775499925017357
vn -0.2728999853134155 -0.839900016784668 0.4690999984741211
f 89/50/89 91/8/91 96/20/96
f 87/1/87 92/35/92 93/14/93
f 88/47/88 93/14/93 94/17/94
f 90/5/90 94/31/94 95/51/95
f 91/8/91 95/51/95 96/20/96
f 89/50/89 96/20/96 92/35/92
v 0.0311879999935627 0.1567869931459427 0.06400900334119797
f 93/14/93 92/35/92 97/55/25
f 94/17/94 93/14/93 97/33/25
f 95/51/95 94/31/94 97/29/25
f 96/20/96 95/51/95 97/26/25
f 92/35/92 96/20/96 97/52/25
f 35/53/35 39/1/39 38/47/38
f 39/1/39 35/45/35 37/50/37
v -0.10601799935102463 0.13495700061321259 0.01293100044131279
vn -0.7580999732017517 -0.11550000309944153 -0.6417999863624573
f 35/61/35 38/40/38 98/5/97
f 35/54/35 98/5/97 36/8/36
f 39/1/39 37/50/37 44/35/44
f 98/5/97 38/40/38 42/31/42
f 36/8/36 98/5/97 41/51/41
f 37/50/37 36/8/36 45/20/45
f 39/1/39 44/35/44 40/14/40
f 38/47/38 40/14/40 42/17/42
f 98/5/97 42/31/42 41/51/41
f 36/8/36 41/51/41 45/20/45
f 37/50/37 45/20/45 44/35/44
f 40/14/40 44/35/44 43/55/43
f 42/17/42 40/14/40 43/33/43
f 45/20/45 41/51/41 43/26/43
v -0.13061200082302094 0.047449998557567596 0.013287000358104706
vn -0.2888000011444092 -0.5108000040054321 -0.8097000122070312
v -0.11267899721860886 0.08529999852180481 0.009588000364601612
vn 0.13259999454021454 0.3763999938964844 -0.9168999791145325
v -0.08972600102424622 0.052629001438617706 0.020253000780940056
vn 0.6990000009536743 -0.39989998936653137 -0.5928000211715698
f 99/53/98 100/1/99 101/47/100
v -0.1510930061340332 0.08214399963617325 0.023067999631166458
vn -0.8029999732971191 0.32199999690055847 -0.5013999938964844
f 100/1/99 99/45/98 102/50/101
v -0.11395400017499924 0.029280999675393105 0.040323998779058456
vn 0.11169999837875366 -0.9911999702453613 0.07020000368356705
f 99/61/98 101/40/100 103/5/102
v -0.15188099443912506 0.04752200096845627 0.04206399992108345
vn -0.8348000049591064 -0.5353999733924866 0.1281999945640564
f 99/54/98 103/5/102 104/8/103
f 99/49/98 104/8/103 102/50/101
v -0.12286499887704849 0.10876499861478806 0.03607900068163872
vn -0.11169999837875366 0.9911999702453613 -0.07020000368356705
f 100/1/99 102/50/101 105/35/104
v -0.08493799716234207 0.09052299708127975 0.03434000164270401
vn 0.8348000049591064 0.5353999733924866 -0.1281999945640564
f 101/47/100 100/1/99 106/14/105
v -0.08572600036859512 0.05590200051665306 0.053335998207330704
vn 0.8029999732971191 -0.32199999690055847 0.5013999938964844
f 103/5/102 101/40/100 107/31/106
v -0.12414000183343887 0.05274499952793121 0.06681499630212784
vn -0.13259999454021454 -0.3763999938964844 0.9168999791145325
f 104/8/103 103/5/102 108/51/107
v -0.1470939964056015 0.08541599661111832 0.056150998920202255
vn -0.6990000009536743 0.39989998936653137 0.5928000211715698
f 102/50/101 104/8/103 109/20/108
f 100/1/99 105/35/104 106/14/105
f 101/47/100 106/14/105 107/17/106
f 103/5/102 107/31/106 108/51/107
f 104/8/103 108/51/107 109/20/108
f 102/50/101 109/20/108 105/35/104
v -0.10620799660682678 0.09059499949216843 0.06311699748039246
vn 0.2888000011444092 0.5108000040054321 0.8097000122070312
f 106/14/105 105/35/104 110/55/109
f 107/17/106 106/14/105 110/33/109
f 108/51/107 107/31/106 110/29/109
f 109/20/108 108/51/107 110/26/109
f 105/35/104 109/20/108 110/52/109
v 0.048843998461961746 -0.02585900016129017 0.031060999259352684
vn -0.9243999719619751 -0.3172000050544739 -0.21160000562667847
v 0.06414999812841415 0.016395000740885735 0.019842000678181648
vn -0.5735999941825867 0.6133000254631042 -0.5429999828338623
v 0.0818210020661354 -0.022778000682592392 0.0045449999161064625
vn -0.17470000684261322 -0.2289000004529953 -0.9575999975204468
f 111/53/110 112/1/111 113/47/112
v 0.05704199895262718 0.008077999576926231 0.05609799921512604
vn -0.7307999730110168 0.43059998750686646 0.5295000076293945
f 112/1/111 111/45/110 114/50/113
v 0.0856349989771843 -0.05530700087547302 0.03134699910879135
vn -0.1046999990940094 -0.9735000133514404 -0.20309999585151672
f 111/61/110 113/40/112 115/5/114
v 0.0703200027346611 -0.03623700141906738 0.06320899724960327
vn -0.42980000376701355 -0.5286999940872192 0.7318999767303467
f 111/54/110 115/5/114 116/8/115
f 111/49/110 116/8/115 114/50/113
v 0.09508699923753738 0.03213199973106384 0.04505699872970581
vn 0.1046999990940094 0.9735000133514404 0.20309999585151672
f 112/1/111 114/50/113 117/35/116
v 0.11040200293064117 0.013062000274658203 0.013194999657571316
vn 0.42980000376701355 0.5286999940872192 -0.7318999767303467
f 113/47/112 112/1/111 118/14/117
v 0.1236800029873848 -0.031252000480890274 0.020305000245571136
vn 0.7307999730110168 -0.43059998750686646 -0.5295000076293945
f 115/5/114 113/40/112 119/31/118
v 0.11657100170850754 -0.039570000022649765 0.056561000645160675
vn 0.5735999941825867 -0.6133000254631042 0.5429999828338623
f 116/8/115 115/5/114 120/51/119
v 0.09889999777078629 -0.0003969999961555004 0.07185900211334229
vn 0.17470000684261322 0.2289000004529953 0.9575999975204468
f 114/50/113 116/8/115 121/20/120
f 112/1/111 117/35/116 118/14/117
f 113/47/112 118/14/117 119/17/118
f 115/5/114 119/31/118 120/51/119
f 116/8/115 120/51/119 121/20/120
f 114/50/113 121/20/120 117/35/116
v 0.13187800347805023 0.0026839999482035637 0.04534199833869934
vn 0.9243999719619751 0.3172000050544739 0.21160000562667847
f 118/14/117 117/35/116 122/55/121
f 119/17/118 118/14/117 122/33/121
f 120/51/119 119/31/118 122/29/121
f 121/20/120 120/51/119 122/26/121
f 117/35/116 121/20/120 122/52/121
f 46/61/46 48/40/48 50/5/50
f 49/50/49 51/8/51 56/20/56
f 47/1/47 52/35/52 53/14/53
f 50/5/50 54/31/54 55/51/55
f 49/50/49 56/20/56 52/35/52
f 58/61/58 60/40/60 62/5/62
f 59/1/59 64/35/64 65/14/65
f 61/50/61 68/20/68 64/35/64
f 67/51/67 66/31/66 69/29/69
f 70/61/70 72/40/72 74/5/74
f 71/1/71 76/35/76 77/14/77
f 72/47/72 77/14/77 78/17/78
f 73/50/73 80/20/80 76/35/76
f 79/51/79 78/31/78 81/29/81
