# OBJ file
o __dotobj_group__##0#1#0#-1.0
g __dotobj_group__##0#1#0#-1.0
o Cube##0#1#0#-1.0
g Cube##0#1#0#-1.0
v 0.01394800003618002 -0.007544999942183495 0.18375499546527863
vt 0.4493280053138733 0.0
vn 0.7990999817848206 -0.6011000275611877 -0.0034000000450760126
v 0.015494000166654587 -0.007914000190794468 0.6180580258369446
vt 0.625 0.0
v 0.012246999889612198 -0.012230999767780304 0.6180580258369446
vt 0.625 0.25
f 1/1/1 2/2/1 3/3/1
v 0.011025000363588333 -0.01143100019544363 0.18375499546527863
vt 0.4493280053138733 0.25
f 1/1/1 3/3/1 4/4/1
v -0.005504999775439501 -0.01143100019544363 0.18375499546527863
vt 0.4493280053138733 0.4374139904975891
vn 0.0 -1.0 -0.0017999999690800905
v -0.006115000229328871 -0.012230999767780304 0.6180580258369446
vt 0.625 0.4374139904975891
v -0.012246999889612198 -0.012230999767780304 0.6180580258369446
vt 0.625 0.5
f 5/5/2 6/6/2 7/7/2
v -0.011025000363588333 -0.01143100019544363 0.18375499546527863
vt 0.4493280053138733 0.5
f 5/5/2 7/7/2 8/8/2
vn -0.7990999817848206 -0.6011999845504761 -0.0034000000450760126
v -0.015494000166654587 -0.007914000190794468 0.6180580258369446
vt 0.625 0.75
f 8/8/3 7/7/3 9/9/3
v -0.01394800003618002 -0.007544999942183495 0.18375499546527863
vt 0.4493280053138733 0.75
f 8/8/3 9/9/3 10/10/3
vn -0.9797999858856201 -0.19990000128746033 -0.003700000001117587
v -0.01788399927318096 0.0038040000945329666 0.6180580258369446
f 10/10/4 9/9/4 11/9/4
v -0.016100000590085983 0.0030040000565350056 0.18375499546527863
f 10/10/4 11/9/4 12/10/4
v -0.006115000229328871 -0.012230999767780304 -0.016468999907374382
vt 0.3124139904975891 0.5
vn 0.0 -0.0 -1.0
v -0.012246999889612198 -0.012230999767780304 -0.016468999907374382
vt 0.375 0.5
v -0.015494000166654587 -0.007914000190794468 -0.016468999907374382
vt 0.375 0.75
f 13/11/5 14/12/5 15/13/5
v -0.005826999898999929 -0.007914000190794468 -0.016468999907374382
vt 0.3124139904975891 0.75
f 13/11/5 15/13/5 16/14/5
v 0.006132000125944614 -0.012230999767780304 0.6180580258369446
vt 0.8125860095024109 0.5
vn 0.0 -0.0 1.0
vt 0.875 0.5
vt 0.875 0.75
f 17/15/6 3/16/6 2/17/6
v 0.00585199985653162 -0.007914000190794468 0.6180580258369446
vt 0.8125860095024109 0.75
f 17/15/6 2/17/6 18/18/6
v 0.01788399927318096 0.0038040000945329666 0.6180580258369446
f 18/18/6 2/17/6 19/17/6
v 0.008953999727964401 0.0038040000945329666 0.6180580258369446
f 18/18/6 19/17/6 20/18/6
vt 0.6875860095024109 0.5
v -0.005826999898999929 -0.007914000190794468 0.6180580258369446
vt 0.6875860095024109 0.75
f 7/7/6 6/19/6 21/20/6
f 7/7/6 21/20/6 9/9/6
v -0.005245999898761511 -0.007544999942183495 0.18375499546527863
vt 0.4493280053138733 0.8125859946012497
vn 0.0 1.0 0.0008999999845400453
vt 0.625 0.8125859946012497
vt 0.625 0.93758599832654
f 22/21/7 21/22/7 18/23/7
v 0.005268000066280365 -0.007544999942183495 0.18375499546527863
vt 0.4493280053138733 0.93758599832654
f 22/21/7 18/23/7 23/24/7
vt 0.625 0.3124139904975891
f 4/4/2 3/3/2 17/25/2
v 0.005520000122487545 -0.01143100019544363 0.18375499546527863
vt 0.4493280053138733 0.3124139904975891
f 4/4/2 17/25/2 24/26/2
v 0.012246999889612198 -0.012230999767780304 -0.016468999907374382
vt 0.125 0.5
v 0.006132000125944614 -0.012230999767780304 -0.016468999907374382
vt 0.1874140053987503 0.5
v 0.00585199985653162 -0.007914000190794468 -0.016468999907374382
vt 0.1874140053987503 0.75
f 25/27/5 26/28/5 27/29/5
v 0.015494000166654587 -0.007914000190794468 -0.016468999907374382
vt 0.125 0.75
f 25/27/5 27/29/5 28/30/5
f 26/28/5 13/11/5 16/14/5
f 26/28/5 16/14/5 27/29/5
f 24/26/2 17/25/2 6/6/2
f 24/26/2 6/6/2 5/5/2
f 6/19/6 17/15/6 18/18/6
f 6/19/6 18/18/6 21/20/6
v 0.008061000145971775 0.0030040000565350056 0.18375499546527863
vn 0.0 1.0 -0.0017999999690800905
vt 0.625 1.0
f 29/24/8 20/23/8 19/31/8
v 0.016100000590085983 0.0030040000565350056 0.18375499546527863
vt 0.4493280053138733 1.0
f 29/24/8 19/31/8 30/32/8
v -0.00892999954521656 0.0038040000945329666 0.6180580258369446
f 12/10/8 11/9/8 31/22/8
v -0.008039000444114208 0.0030040000565350056 0.18375499546527863
f 12/10/8 31/22/8 32/21/8
vn -0.96670001745224 0.25589999556541443 0.001500000013038516
f 23/24/9 18/23/9 20/23/9
f 23/24/9 20/23/9 29/24/9
vn 0.96670001745224 0.25589999556541443 -0.0032999999821186066
vt 0.375 0.8125859946012497
v -0.00892999954521656 0.0038040000945329666 -0.016468999907374382
f 22/21/10 16/33/10 33/33/10
f 22/21/10 33/33/10 32/21/10
v 0.008953999727964401 0.0038040000945329666 -0.016468999907374382
f 28/30/5 27/29/5 34/29/5
v 0.01788399927318096 0.0038040000945329666 -0.016468999907374382
f 28/30/5 34/29/5 35/30/5
vn 0.9797999858856201 -0.19979999959468842 0.007899999618530273
vt 0.375 0.0
f 1/1/11 28/34/11 35/34/11
f 1/1/11 35/34/11 30/1/11
v -0.01788399927318096 0.0038040000945329666 -0.016468999907374382
f 16/14/5 15/13/5 36/13/5
f 16/14/5 36/13/5 33/14/5
f 9/9/6 21/20/6 31/20/6
f 9/9/6 31/20/6 11/9/6
vn 0.9797999858856201 -0.19990000128746033 -0.003700000001117587
f 2/2/12 1/1/12 30/1/12
f 2/2/12 30/1/12 19/2/12
vn 0.96670001745224 0.25589999556541443 0.001500000013038516
f 21/22/13 22/21/13 32/21/13
f 21/22/13 32/21/13 31/22/13
vt 0.375 0.93758599832654
vn -0.96670001745224 0.25589999556541443 -0.0032999999821186066
f 27/35/14 23/24/14 29/24/14
f 27/35/14 29/24/14 34/35/14
vn 0.0 1.0 0.004000000189989805
f 36/13/15 12/10/15 32/21/15
f 36/13/15 32/21/15 33/33/15
f 34/35/15 29/24/15 30/32/15
vt 0.375 1.0
f 34/35/15 30/32/15 35/36/15
vt 0.375 0.3124139904975891
vn 0.0 -1.0 0.004000000189989805
f 26/37/16 24/26/16 5/5/16
vt 0.375 0.4374139904975891
f 26/37/16 5/5/16 13/38/16
vt 0.375 0.25
f 25/39/16 4/4/16 24/26/16
f 25/39/16 24/26/16 26/37/16
f 16/33/8 22/21/8 23/24/8
f 16/33/8 23/24/8 27/35/8
vn -0.9797999858856201 -0.19979999959468842 0.007899999618530273
f 15/13/17 10/10/17 12/10/17
f 15/13/17 12/10/17 36/13/17
vn -0.7990999817848206 -0.6011000275611877 0.007300000172108412
f 14/12/18 8/8/18 10/10/18
f 14/12/18 10/10/18 15/13/18
f 13/38/16 5/5/16 8/8/16
f 13/38/16 8/8/16 14/12/16
vn 0.7990999817848206 -0.6011000275611877 0.007300000172108412
f 28/34/19 1/1/19 4/4/19
f 28/34/19 4/4/19 25/39/19
v 0.06316500157117844 0.0032770000398159027 0.4241099953651428
vt 0.04770800098776817 0.07014197111129761
vn 0.0 -1.0 -0.0
v 0.06316500157117844 0.0032770000398159027 0.591750979423523
vt 0.04770800098776817 0.9303200021386147
v 0.053651999682188034 0.0032770000398159027 0.6012639999389648
vt 0.11558400094509125 0.9791299998760223
f 37/40/20 38/41/20 39/42/20
v -0.055764999240636826 0.0032770000398159027 0.6012639999389648
vt 0.8963189721107483 0.9791299998760223
f 37/40/20 39/42/20 40/43/20
v -0.06527800112962723 0.0032770000398159027 0.591750979423523
vt 0.9641950130462646 0.9303200021386147
f 37/40/20 40/43/20 41/44/20
v -0.06527800112962723 0.0032770000398159027 0.4241099953651428
vt 0.9641950130462646 0.07014197111129761
f 37/40/20 41/44/20 42/45/20
v -0.055764999240636826 0.0032770000398159027 0.4145979881286621
vt 0.8963189721107483 0.0213320255279541
f 37/40/20 42/45/20 43/46/20
v 0.053651999682188034 0.0032770000398159027 0.4145979881286621
vt 0.11558300256729126 0.021332979202270508
f 37/40/20 43/46/20 44/47/20
v 0.05753900110721588 0.022431999444961548 0.40796801447868347
vn 0.0 -0.32710000872612 -0.9449999928474426
f 45/47/21 44/47/21 43/46/21
v -0.05965099856257439 0.022431999444961548 0.40796801447868347
f 45/47/21 43/46/21 46/46/21
v 0.0677269995212555 0.022431999444961548 0.5977060198783875
vn 0.9728000164031982 -0.23170000314712524 -0.0
f 47/41/22 38/41/22 37/40/22
v 0.0677269995212555 0.022431999444961548 0.4181559979915619
f 47/41/22 37/40/22 48/40/22
v 0.05753900110721588 0.022431999444961548 0.6078940033912659
vn 0.6592000126838684 -0.3619000017642975 0.6592000126838684
f 49/42/23 39/42/23 38/41/23
f 49/42/23 38/41/23 47/41/23
v -0.06983999907970428 0.022431999444961548 0.5977060198783875
vn -0.6592000126838684 -0.3619000017642975 0.6592000126838684
f 50/44/24 41/44/24 40/43/24
v -0.05965099856257439 0.022431999444961548 0.6078940033912659
f 50/44/24 40/43/24 51/43/24
vn -0.6592000126838684 -0.3619000017642975 -0.6592000126838684
f 46/46/25 43/46/25 42/45/25
v -0.06983999907970428 0.022431999444961548 0.4181559979915619
f 46/46/25 42/45/25 52/45/25
vn 0.6592000126838684 -0.3619000017642975 -0.6592000126838684
f 48/40/26 37/40/26 44/47/26
f 48/40/26 44/47/26 45/47/26
vn 0.0 -0.32710000872612 0.9449999928474426
f 51/43/27 40/43/27 39/42/27
f 51/43/27 39/42/27 49/42/27
vn -0.9728000164031982 -0.23170000314712524 -0.0
f 52/45/28 42/45/28 41/44/28
f 52/45/28 41/44/28 50/44/28
v 0.007654000073671341 0.008648999966681004 0.596651017665863
vt 0.0 0.0
v 0.0004780000017490238 0.008648999966681004 0.605866014957428
v -0.008736999705433846 0.008648999966681004 0.5986700057983398
f 53/48/20 54/48/20 55/48/20
v -0.0015620000194758177 0.008648999966681004 0.5894550085067749
f 53/48/20 55/48/20 56/48/20
v 0.005853999871760607 0.012192999944090843 0.5968729853630066
vn 0.0 1.0 -0.0
v -0.0013379999436438084 0.012192999944090843 0.5912560224533081
v -0.006938000209629536 0.012192999944090843 0.5984479784965515
f 57/48/29 58/48/29 59/48/29
v 0.00025400001322850585 0.012192999944090843 0.6040650010108948
f 57/48/29 59/48/29 60/48/29
vn 0.7419000267982483 0.34060001373291016 0.5776000022888184
f 53/48/30 57/48/30 60/48/30
f 53/48/30 60/48/30 54/48/30
vn -0.5788000226020813 0.3402000069618225 0.741100013256073
f 54/48/31 60/48/31 59/48/31
f 54/48/31 59/48/31 55/48/31
vn -0.7419000267982483 0.34060001373291016 -0.5776000022888184
f 55/48/32 59/48/32 58/48/32
f 55/48/32 58/48/32 56/48/32
vn 0.5788000226020813 0.3402000069618225 -0.741100013256073
f 56/48/33 58/48/33 57/48/33
f 56/48/33 57/48/33 53/48/33
v 0.0001610000035725534 0.008648999966681004 0.42712700366973877
v -0.007848000153899193 0.008648999966681004 0.41958901286125183
v 7.000000186963007e-05 0.008648999966681004 0.41098499298095703
f 61/48/20 62/48/20 63/48/20
v 0.008077999576926231 0.008648999966681004 0.41852301359176636
f 61/48/20 63/48/20 64/48/20
v 8.499999967170879e-05 0.012192999944090843 0.4253160059452057
v 0.006264000199735165 0.012192999944090843 0.4185999929904938
v 0.0001449999981559813 0.012192999944090843 0.4127959907054901
f 65/48/29 66/48/29 67/48/29
v -0.0060339998453855515 0.012192999944090843 0.419512003660202
f 65/48/29 67/48/29 68/48/29
vn -0.6456000208854675 0.34049999713897705 0.6836000084877014
f 61/48/34 65/48/34 68/48/34
f 61/48/34 68/48/34 62/48/34
vn -0.6919999718666077 0.3402000069618225 -0.6366999745368958
f 62/48/35 68/48/35 67/48/35
f 62/48/35 67/48/35 63/48/35
vn 0.6456000208854675 0.34049999713897705 -0.6836000084877014
f 63/48/36 67/48/36 66/48/36
f 63/48/36 66/48/36 64/48/36
vn 0.6919999718666077 0.3402000069618225 0.6366999745368958
f 64/48/37 66/48/37 65/48/37
f 64/48/37 65/48/37 61/48/37
o Cube#sign_scrubbub#100#0#1#-1.0
g Cube#sign_scrubbub#100#0#1#-1.0
vt 0.04770851135253906 0.070142424508427
vt 0.11558341979980469 0.021333501580056202
vt 0.8963184356689453 0.021332130003511307
f 48/49/29 45/50/29 46/51/29
vt 0.9641952514648438 0.070142424508427
f 48/49/29 46/51/29 52/52/29
vt 0.9641952514648438 0.9303197967872191
f 48/49/29 52/52/29 50/53/29
vt 0.8963184356689453 0.9791300912921348
f 48/49/29 50/53/29 51/54/29
vt 0.11558341979980469 0.9791300912921348
f 48/49/29 51/54/29 49/55/29
vt 0.04770851135253906 0.9303197967872191
f 48/49/29 49/55/29 47/56/29
o Sign.COLLIDER##0#1#0#-1.0
g Sign.COLLIDER##0#1#0#-1.0
v 0.02992900088429451 0.02992900088429451 0.0
vn 1.0 -0.0 -0.0
v 0.02992900088429451 0.02992900088429451 0.6219580173492432
v 0.02992900088429451 -0.02992900088429451 0.6219580173492432
f 69/34/38 70/2/38 71/3/38
v 0.02992900088429451 -0.02992900088429451 0.0
f 69/34/38 71/3/38 72/39/38
v -0.02992900088429451 -0.02992900088429451 0.6219580173492432
f 72/39/20 71/3/20 73/7/20
v -0.02992900088429451 -0.02992900088429451 0.0
f 72/39/20 73/7/20 74/12/20
vn -1.0 -0.0 -0.0
v -0.02992900088429451 0.02992900088429451 0.6219580173492432
f 74/12/39 73/7/39 75/9/39
v -0.02992900088429451 0.02992900088429451 0.0
f 74/12/39 75/9/39 76/13/39
f 76/13/29 75/9/29 70/31/29
f 76/13/29 70/31/29 69/36/29
f 72/27/5 74/12/5 76/13/5
f 72/27/5 76/13/5 69/30/5
f 73/7/6 71/16/6 70/17/6
f 73/7/6 70/17/6 75/9/6
