# OBJ file
o __dotobj_group__##0#1#0#-1.0
g __dotobj_group__##0#1#0#-1.0
o smallbarrel##0#0#0#6316142.0
g smallbarrel##0#0#0#6316142.0
v 0.2558009922504425 0.19994699954986572 0.41791900992393494
vt 0.625 0.18166202306747437
vn 0.9822999835014343 0.18729999661445618 -0.0
v 0.22809599339962006 0.34521999955177307 0.41791900992393494
vt 0.625 0.0
v 0.22809599339962006 0.34521999955177307 0.43871599435806274
f 1/1/1 2/2/1 3/2/1
v 0.2558009922504425 0.19994699954986572 0.43871599435806274
f 1/1/1 3/2/1 4/1/1
v -0.08900000154972076 0.20540599524974823 0.010881000198423862
vt 0.375 0.5
vn -0.9686999917030334 0.2483000010251999 -0.0
v -0.0486299991607666 0.36289799213409424 0.010881000198423862
vt 0.375 0.681661993265152
v -0.0486299991607666 0.36289799213409424 -0.0067449999041855335
f 5/3/2 6/4/2 7/4/2
v -0.08900000154972076 0.20540599524974823 -0.0067449999041855335
f 5/3/2 7/4/2 8/3/2
v 0.1676959991455078 0.0775270015001297 0.3689669966697693
vt 0.5949339866638184 0.31833797693252563
vn 0.7821000218391418 -0.611299991607666 0.12110000103712082
v 0.1706549972295761 0.07161799818277359 0.3200159966945648
vt 0.5648689866065979 0.31833797693252563
v 0.2684589922428131 0.1967490017414093 0.3200159966945648
vt 0.5648679733276367 0.18166202306747437
f 9/5/3 10/6/3 11/7/3
v 0.2621299922466278 0.1983480006456375 0.3689669966697693
vt 0.5949339866638184 0.18166202306747437
f 9/5/3 11/7/3 12/8/3
v 0.09180700033903122 0.43055200576782227 0.3689669966697693
vt 0.5949339866638184 0.818338006734848
vn -0.39579999446868896 0.910099983215332 0.12229999899864197
v 0.09205900132656097 0.43723800778388977 0.3200159966945648
vt 0.5648689866065979 0.818338006734848
v -0.058501001447439194 0.3717600107192993 0.3200159966945648
vt 0.5648679733276367 0.681661993265152
f 13/9/4 14/10/4 15/11/4
v -0.053564999252557755 0.3673290014266968 0.3689669966697693
vt 0.5949339866638184 0.681661993265152
f 13/9/4 15/11/4 16/12/4
v -0.012876000255346298 0.07508700340986252 0.06181100010871887
vt 0.4062809944152832 0.4091690182685852
vn -0.8346999883651733 -0.5364000201225281 -0.12489999830722809
v -0.016495000571012497 0.06885699927806854 0.11274100095033646
vt 0.4375619888305664 0.4091690182685852
v -0.1023780032992363 0.20250000059604645 0.11274100095033646
vt 0.4375619888305664 0.5
f 17/13/5 18/14/5 19/15/5
v -0.09568899869918823 0.20395299792289734 0.06181100010871887
vt 0.4062809944152832 0.5
f 17/13/5 19/15/5 20/16/5
v 0.09181699901819229 0.4308220148086548 0.06181100010871887
vt 0.4062809944152832 0.818338006734848
vn 0.49549999833106995 0.8603000044822693 -0.1200999990105629
v 0.09207899868488312 0.4377779960632324 0.11274100095033646
vt 0.4375619888305664 0.818338006734848
v 0.23913200199604034 0.3530789911746979 0.11274100095033646
vt 0.4375619888305664 1.0
f 21/17/6 22/18/6 23/19/6
v 0.2336139976978302 0.3491489887237549 0.06181100010871887
vt 0.4062809944152832 1.0
f 21/17/6 23/19/6 24/20/6
vt 0.4062809944152832 0.0
vn 0.9751999974250793 0.1860000044107437 -0.11999999731779099
vt 0.4375619888305664 0.0
v 0.2689700126647949 0.19662000238895416 0.11274100095033646
vt 0.4375619888305664 0.18166202306747437
f 24/21/7 23/22/7 25/23/7
v 0.2623859941959381 0.19828300178050995 0.06181100010871887
vt 0.4062809944152832 0.18166202306747437
f 24/21/7 25/23/7 26/24/7
vn -0.9617999792098999 0.24650000035762787 -0.1193000003695488
v -0.05889999866485596 0.3721179962158203 0.11274100095033646
vt 0.4375619888305664 0.681661993265152
f 20/16/8 19/15/8 27/25/8
v -0.05376499891281128 0.3675079941749573 0.06181100010871887
vt 0.4062809944152832 0.681661993265152
f 20/16/8 27/25/8 28/26/8
v 0.16781599819660187 0.07728900015354156 0.06181100010871887
vt 0.4062809944152832 0.31833797693252563
vn 0.01209999993443489 -0.9926000237464905 -0.12060000002384186
v 0.17089499533176422 0.07113999873399734 0.11274100095033646
vt 0.4375619888305664 0.31833797693252563
f 29/27/9 30/28/9 18/14/9
f 29/27/9 18/14/9 17/13/9
vn 0.01209999993443489 -0.9926000237464905 0.12060000002384186
v -0.012734999880194664 0.0753289982676506 0.3689669966697693
vt 0.5949339866638184 0.4091690182685852
f 10/6/10 9/5/10 31/29/10
v -0.016214000061154366 0.06934099644422531 0.3200159966945648
vt 0.5648689866065979 0.4091690182685852
f 10/6/10 31/29/10 32/30/10
v -0.1018579974770546 0.2026119977235794 0.3200159966945648
vt 0.5648689866065979 0.5
vn -0.9617999792098999 0.24650000035762787 0.1193000003695488
v -0.09542900323867798 0.20400899648666382 0.3689669966697693
vt 0.5949339866638184 0.5
f 33/31/11 34/32/11 16/12/11
f 33/31/11 16/12/11 15/11/11
v 0.23870299756526947 0.3527730107307434 0.3200159966945648
vt 0.5648679733276367 0.0
vn 0.9751999974250793 0.1860000044107437 0.11999999731779099
v 0.23339900374412537 0.34899699687957764 0.3689669966697693
vt 0.5949339866638184 0.0
f 35/33/12 36/34/12 12/8/12
f 35/33/12 12/8/12 11/7/12
vn 0.49549999833106995 0.8603000044822693 0.1200999990105629
vt 0.5949339866638184 1.0
f 14/10/13 13/9/13 36/35/13
vt 0.5648689866065979 1.0
f 14/10/13 36/35/13 35/36/13
vn -0.8346999883651733 -0.5364000201225281 0.12489999830722809
f 32/30/14 31/29/14 34/32/14
f 32/30/14 34/32/14 33/31/14
vn -0.39579999446868896 0.910099983215332 -0.12229999899864197
f 22/18/15 21/17/15 28/26/15
f 22/18/15 28/26/15 27/25/15
vn 0.7821000218391418 -0.611299991607666 -0.12110000103712082
f 30/28/16 29/27/16 26/24/16
f 30/28/16 26/24/16 25/23/16
v 0.22809599339962006 0.34521999955177307 0.010881000198423862
vt 0.375 0.0
v 0.2558009922504425 0.19994699954986572 0.010881000198423862
vt 0.375 0.18166202306747437
v 0.2558009922504425 0.19994699954986572 -0.0067449999041855335
f 37/37/1 38/38/1 39/38/1
v 0.22809599339962006 0.34521999955177307 -0.0067449999041855335
f 37/37/1 39/38/1 40/37/1
vn -0.39879998564720154 0.9169999957084656 -0.0
v 0.09155599772930145 0.4238649904727936 0.010881000198423862
vt 0.375 0.818338006734848
v 0.09155599772930145 0.4238649904727936 -0.0067449999041855335
f 6/4/17 41/39/17 42/39/17
f 6/4/17 42/39/17 7/4/17
vn 0.7878999710083008 -0.6158000230789185 -0.0
v 0.16473700106143951 0.0834370031952858 0.010881000198423862
vt 0.375 0.31833797693252563
v 0.16473700106143951 0.0834370031952858 -0.0067449999041855335
f 38/38/18 43/40/18 44/40/18
f 38/38/18 44/40/18 39/38/18
vn 0.499099999666214 0.8665000200271606 -0.0
vt 0.375 1.0
f 41/39/19 37/41/19 40/41/19
f 41/39/19 40/41/19 42/39/19
v -0.009255999699234962 0.0813170000910759 0.010881000198423862
vt 0.375 0.4091690182685852
vn -0.8413000106811523 -0.5406000018119812 -0.0
f 45/42/20 5/3/20 8/3/20
v -0.009255999699234962 0.0813170000910759 -0.0067449999041855335
f 45/42/20 8/3/20 46/42/20
vn 0.012199999764561653 -0.9998999834060669 -0.0
f 43/40/21 45/42/21 46/42/21
f 43/40/21 46/42/21 44/40/21
v -0.009255999699234962 0.0813170000910759 0.41791900992393494
vt 0.625 0.4091690182685852
v 0.16473700106143951 0.0834370031952858 0.41791900992393494
vt 0.625 0.31833797693252563
v 0.16473700106143951 0.0834370031952858 0.43871599435806274
f 47/43/21 48/44/21 49/44/21
v -0.009255999699234962 0.0813170000910759 0.43871599435806274
f 47/43/21 49/44/21 50/43/21
vt 0.625 1.0
v 0.09155599772930145 0.4238649904727936 0.41791900992393494
vt 0.625 0.818338006734848
v 0.09155599772930145 0.4238649904727936 0.43871599435806274
f 2/45/19 51/46/19 52/46/19
f 2/45/19 52/46/19 3/45/19
v -0.0486299991607666 0.36289799213409424 0.41791900992393494
vt 0.625 0.681661993265152
v -0.0486299991607666 0.36289799213409424 0.43871599435806274
f 51/46/17 53/47/17 54/47/17
f 51/46/17 54/47/17 52/46/17
v -0.08900000154972076 0.20540599524974823 0.41791900992393494
vt 0.625 0.5
f 55/48/20 47/43/20 50/43/20
v -0.08900000154972076 0.20540599524974823 0.43871599435806274
f 55/48/20 50/43/20 56/48/20
f 48/44/18 1/1/18 4/1/18
f 48/44/18 4/1/18 49/44/18
f 53/47/2 55/48/2 56/48/2
f 53/47/2 56/48/2 54/47/2
v 0.22969000041484833 0.20617200434207916 0.42472100257873535
vt 0.8507630228996277 0.5843450129032135
vn -0.3919000029563904 0.30630001425743103 0.8675000071525574
v 0.15276999771595 0.10775800049304962 0.42472100257873535
vt 0.7979829907417297 0.5207349956035614
vt 0.8066620230674744 0.5
f 57/49/22 58/50/22 49/51/22
vt 0.875 0.568338006734848
f 57/49/22 49/51/22 4/52/22
v -0.027728000655770302 0.34548598527908325 0.42472100257873535
vt 0.6475759744644165 0.6632980108261108
vn 0.19900000095367432 -0.4575999975204468 0.866599977016449
v 0.08983000367879868 0.3966119885444641 0.42472100257873535
vt 0.7097839713096619 0.724700003862381
vt 0.6933379769325256 0.75
f 59/53/23 60/54/23 52/55/23
f 59/53/23 52/55/23 54/47/23
v 0.20614799857139587 0.3296149969100952 0.42472100257873535
vt 0.841044008731842 0.7134970128536224
vn -0.48750001192092896 -0.09300000220537186 0.8682000041007996
f 61/56/24 57/49/24 4/52/24
vt 0.875 0.75
f 61/56/24 4/52/24 3/57/24
v 0.0035780000034719706 0.10594099760055542 0.42472100257873535
vt 0.7174270153045654 0.5128909945487976
vn 0.4223000109195709 0.27140000462532043 0.8648999929428101
v -0.06269499659538269 0.20906800031661987 0.42472100257873535
vt 0.6500219702720642 0.5294199883937836
f 62/58/25 63/59/25 56/48/25
vt 0.7158309817314148 0.5
f 62/58/25 56/48/25 50/60/25
vn 0.47940000891685486 -0.12290000170469284 0.8689000010490417
f 63/59/26 59/53/26 54/47/26
f 63/59/26 54/47/26 56/48/26
vn -0.24770000576972961 -0.4300999939441681 0.8680999875068665
f 60/54/27 61/56/27 3/57/27
f 60/54/27 3/57/27 52/55/27
vn -0.006000000052154064 0.4964999854564667 0.8679999709129333
f 58/50/28 62/58/28 50/60/28
f 58/50/28 50/60/28 49/51/28
o smallbarrel##0#1#1#-1.0
g smallbarrel##0#1#1#-1.0
f 31/29/14 47/43/14 55/48/14
f 31/29/14 55/48/14 34/32/14
f 13/9/13 51/46/13 2/45/13
f 13/9/13 2/45/13 36/35/13
f 36/34/12 2/2/12 1/1/12
f 36/34/12 1/1/12 12/8/12
f 34/32/11 55/48/11 53/47/11
f 34/32/11 53/47/11 16/12/11
f 29/27/16 43/40/16 38/38/16
f 29/27/16 38/38/16 26/24/16
f 21/17/15 41/39/15 6/4/15
f 21/17/15 6/4/15 28/26/15
f 9/5/10 48/44/10 47/43/10
f 9/5/10 47/43/10 31/29/10
v 0.1770399957895279 0.05886700004339218 0.21439999341964722
vt 0.5 0.31833797693252563
v -0.023718999698758125 0.05642100051045418 0.21439999341964722
vt 0.5 0.4091690182685852
f 30/28/9 64/61/9 65/62/9
f 30/28/9 65/62/9 18/14/9
v 0.0926010012626648 0.451664000749588 0.21439999341964722
vt 0.5 0.818338006734848
v -0.06914900243282318 0.38131898641586304 0.21439999341964722
vt 0.5 0.681661993265152
f 14/10/4 66/63/4 67/64/4
f 14/10/4 67/64/4 15/11/4
v 0.2821129858493805 0.19329999387264252 0.21439999341964722
vt 0.5 0.18166202306747437
f 10/6/3 64/61/3 68/65/3
f 10/6/3 68/65/3 11/7/3
v -0.11572899669408798 0.1995989978313446 0.21439999341964722
vt 0.5 0.5
f 19/15/8 69/66/8 67/64/8
f 19/15/8 67/64/8 27/25/8
v 0.2501460015773773 0.3609209954738617 0.21439999341964722
vt 0.5 0.0
f 23/22/7 70/67/7 68/65/7
f 23/22/7 68/65/7 25/23/7
vt 0.5 1.0
f 22/18/6 66/63/6 70/68/6
f 22/18/6 70/68/6 23/19/6
f 18/14/5 65/62/5 69/66/5
f 18/14/5 69/66/5 19/15/5
f 64/61/10 10/6/10 32/30/10
f 64/61/10 32/30/10 65/62/10
f 69/66/11 33/31/11 15/11/11
f 69/66/11 15/11/11 67/64/11
f 70/67/12 35/33/12 11/7/12
f 70/67/12 11/7/12 68/65/12
f 66/63/13 14/10/13 35/36/13
f 66/63/13 35/36/13 70/68/13
f 65/62/14 32/30/14 33/31/14
f 65/62/14 33/31/14 69/66/14
f 66/63/15 22/18/15 27/25/15
f 66/63/15 27/25/15 67/64/15
f 64/61/16 30/28/16 25/23/16
f 64/61/16 25/23/16 68/65/16
f 51/46/4 13/9/4 16/12/4
f 51/46/4 16/12/4 53/47/4
f 48/44/3 9/5/3 12/8/3
f 48/44/3 12/8/3 1/1/3
f 43/40/9 29/27/9 17/13/9
f 43/40/9 17/13/9 45/42/9
f 5/3/8 20/16/8 28/26/8
f 5/3/8 28/26/8 6/4/8
f 37/37/7 24/21/7 26/24/7
f 37/37/7 26/24/7 38/38/7
f 41/39/6 21/17/6 24/20/6
f 41/39/6 24/20/6 37/41/6
f 45/42/5 17/13/5 20/16/5
f 45/42/5 20/16/5 5/3/5
vn 0.0 -0.0 1.0
f 63/59/29 62/58/29 58/50/29
f 63/59/29 58/50/29 57/49/29
f 63/59/29 57/49/29 61/56/29
f 63/59/29 61/56/29 60/54/29
f 63/59/29 60/54/29 59/53/29
o smallbarrel.COLLIDER##0#1#0#-1.0
g smallbarrel.COLLIDER##0#1#0#-1.0
v -0.11425500363111496 0.19629499316215515 -0.0002789999998640269
vt 0.375 0.8251329958438873
vn -0.9782000184059143 0.20749999582767487 -0.0
v -0.11425500363111496 0.19629499316215515 0.4332849979400635
vt 0.625 0.8251329958438873
v -0.07575900107622147 0.37779501080513 0.4332849979400635
vt 0.625 0.9248669967055321
f 71/69/30 72/70/30 73/71/30
v -0.07575900107622147 0.37779501080513 -0.0002789999998640269
vt 0.375 0.9248669967055321
f 71/69/30 73/71/30 74/72/30
v 0.18814800679683685 0.055716000497341156 -0.0002789999998640269
vt 0.375 0.5751329958438873
vn 0.0003000000142492354 -1.0 -0.0
v 0.18814800679683685 0.055716000497341156 0.4332849979400635
vt 0.625 0.5751329958438873
v -0.024297000840306282 0.05564400181174278 0.4332849979400635
vt 0.625 0.6748670041561127
f 75/73/31 76/74/31 77/75/31
v -0.024297000840306282 0.05564400181174278 -0.0002789999998640269
vt 0.375 0.6748670041561127
f 75/73/31 77/75/31 78/76/31
v 0.288536012172699 0.20486299693584442 0.4332849979400635
vt 0.7001330256462097 0.5
v 0.2505429983139038 0.36400800943374634 0.4332849979400635
vt 0.7998669743537903 0.5
f 76/74/29 79/77/29 80/78/29
v 0.10403600335121155 0.4586179852485657 0.4332849979400635
vt 0.875 0.5751329958438873
f 76/74/29 80/78/29 81/79/29
vt 0.7998669743537903 0.75
f 76/74/29 81/79/29 73/80/29
vt 0.7001330256462097 0.75
f 76/74/29 73/80/29 72/81/29
f 76/74/29 72/81/29 77/75/29
v 0.2505429983139038 0.36400800943374634 -0.0002789999998640269
vt 0.375 0.3251330256462097
vn 0.9726999998092651 0.2321999967098236 -0.0
vt 0.625 0.3251330256462097
vt 0.625 0.4248669743537903
f 82/82/32 80/83/32 79/84/32
v 0.288536012172699 0.20486299693584442 -0.0002789999998640269
vt 0.375 0.4248669743537903
f 82/82/32 79/84/32 83/85/32
vn 0.5425000190734863 0.8400999903678894 -0.0
v 0.10403600335121155 0.4586179852485657 -0.0002789999998640269
vt 0.375 0.17486697435379028
f 80/83/33 82/82/33 84/86/33
vt 0.625 0.17486697435379028
f 80/83/33 84/86/33 81/87/33
vn 0.8295999765396118 -0.5583999752998352 -0.0
f 76/74/34 75/73/34 83/85/34
f 76/74/34 83/85/34 79/84/34
vn -0.8424000144004822 -0.5388000011444092 -0.0
f 72/70/35 71/69/35 78/76/35
f 72/70/35 78/76/35 77/75/35
vt 0.125 0.5751329958438873
vn 0.0 -0.0 -1.0
vt 0.20013299584388733 0.5
vt 0.29986700415611267 0.5
f 84/88/36 82/89/36 83/90/36
f 84/88/36 83/90/36 75/73/36
f 84/88/36 75/73/36 78/76/36
vt 0.29986700415611267 0.75
f 84/88/36 78/76/36 71/91/36
vt 0.20013299584388733 0.75
f 84/88/36 71/91/36 74/92/36
vn -0.4099999964237213 0.9121000170707703 -0.0
f 74/37/37 73/2/37 81/87/37
f 74/37/37 81/87/37 84/86/37
