# OBJ file
o __dotobj_group__##0#1#0#-1.0
g __dotobj_group__##0#1#0#-1.0
o BASE_Cube##0#4#0#-1.0
g BASE_Cube##0#4#0#-1.0
v -0.0 -0.02281299978494644 0.32165300846099854
vt 0.75 0.5
vn -0.0 0.0 1.0
v 0.0194690003991127 -0.011548999696969986 0.32165300846099854
vt 0.875 0.5
v 0.0194690003991127 0.011548999696969986 0.32165300846099854
vt 0.875 0.75
f 1/1/1 2/2/1 3/3/1
v -0.0 0.02281299978494644 0.32165300846099854
vt 0.75 0.75
f 1/1/1 3/3/1 4/4/1
v -0.0 0.02281299978494644 0.03531000018119812
vt 0.375 0.875
vn 0.5008000135421753 0.8655999898910522 -0.0
vt 0.625 0.875
vt 0.625 1.0
f 5/5/2 4/6/2 3/7/2
v 0.0194690003991127 0.011548999696969986 0.03531000018119812
vt 0.375 1.0
f 5/5/2 3/7/2 6/8/2
vt 0.375 0.0
vn 1.0 0.0 -0.0
vt 0.625 0.0
vt 0.625 0.25
f 6/9/3 3/10/3 2/11/3
v 0.0194690003991127 -0.011548999696969986 0.03531000018119812
vt 0.375 0.25
f 6/9/3 2/11/3 7/12/3
vn 0.09109999984502792 -0.1574999988079071 0.983299970626831
v -0.0 -0.02281299978494644 0.03531000018119812
vt 0.375 0.375
v -0.0 -0.061583999544382095 0.029100999236106873
f 7/12/4 8/13/4 9/13/4
v 0.052556999027729034 -0.031176000833511353 0.029100999236106873
f 7/12/4 9/13/4 10/12/4
v -0.0194690003991127 -0.011548999696969986 0.03531000018119812
vt 0.375 0.5
vn -1.0 0.0 0.0
v -0.0194690003991127 -0.011548999696969986 0.32165300846099854
vt 0.625 0.5
v -0.0194690003991127 0.011548999696969986 0.32165300846099854
vt 0.625 0.75
f 11/14/5 12/15/5 13/16/5
v -0.0194690003991127 0.011548999696969986 0.03531000018119812
vt 0.375 0.75
f 11/14/5 13/16/5 14/17/5
vn -0.5008000135421753 -0.8655999898910522 0.0
vt 0.625 0.375
f 8/13/6 1/18/6 12/15/6
f 8/13/6 12/15/6 11/14/6
vn 0.5008000135421753 -0.8655999898910522 0.0
f 7/12/7 2/11/7 1/18/7
f 7/12/7 1/18/7 8/13/7
vn -0.09109999984502792 -0.1574999988079071 0.983299970626831
v -0.052556999027729034 -0.031176000833511353 0.029100999236106873
f 8/13/8 11/14/8 15/14/8
f 8/13/8 15/14/8 9/13/8
vn -0.5008000135421753 0.8655999898910522 -0.0
f 14/17/9 13/16/9 4/6/9
f 14/17/9 4/6/9 5/5/9
f 12/15/1 1/1/1 4/4/1
f 12/15/1 4/4/1 13/16/1
v -0.0 -0.061583999544382095 -0.013623000122606754
f 10/12/7 9/13/7 16/13/7
v 0.052556999027729034 -0.031176000833511353 -0.013623000122606754
f 10/12/7 16/13/7 17/12/7
v -0.052556999027729034 0.031176000833511353 0.029100999236106873
v -0.052556999027729034 0.031176000833511353 -0.013623000122606754
f 15/14/5 18/17/5 19/17/5
v -0.052556999027729034 -0.031176000833511353 -0.013623000122606754
f 15/14/5 19/17/5 20/14/5
vn -0.09109999984502792 0.1574999988079071 0.983299970626831
v -0.0 0.061583999544382095 0.029100999236106873
f 14/17/10 5/5/10 21/5/10
f 14/17/10 21/5/10 18/17/10
vn 0.18440000712871552 0.0 0.9828000068664551
f 6/9/11 7/12/11 10/12/11
v 0.052556999027729034 0.031176000833511353 0.029100999236106873
f 6/9/11 10/12/11 22/9/11
vn -0.18440000712871552 0.0 0.9828000068664551
f 11/14/12 14/17/12 18/17/12
f 11/14/12 18/17/12 15/14/12
vn 0.09109999984502792 0.1574999988079071 0.983299970626831
f 5/5/13 6/8/13 22/8/13
f 5/5/13 22/8/13 21/5/13
vt 0.25 0.5
vn -0.0 -0.0 -1.0
f 16/19/14 20/14/14 19/17/14
v -0.0 0.061583999544382095 -0.013623000122606754
vt 0.25 0.75
f 16/19/14 19/17/14 23/20/14
vt 0.125 0.5
f 17/21/14 16/19/14 23/20/14
v 0.052556999027729034 0.031176000833511353 -0.013623000122606754
vt 0.125 0.75
f 17/21/14 23/20/14 24/22/14
f 9/13/6 15/14/6 20/14/6
f 9/13/6 20/14/6 16/13/6
f 18/17/9 21/5/9 23/5/9
f 18/17/9 23/5/9 19/17/9
f 22/9/3 10/12/3 17/12/3
f 22/9/3 17/12/3 24/9/3
f 21/5/2 22/8/2 24/8/2
f 21/5/2 24/8/2 23/5/2
o spinner_Cube.001##0#1#0#-1.0
g spinner_Cube.001##0#1#0#-1.0
v -0.0 -0.03291900083422661 0.36116498708724976
v -0.0 0.03291900083422661 0.36116498708724976
v 0.02809399925172329 0.016665000468492508 0.36116498708724976
f 25/1/14 26/4/14 27/3/14
v 0.02809399925172329 -0.016665000468492508 0.36116498708724976
f 25/1/14 27/3/14 28/2/14
v -0.02809399925172329 -0.016665000468492508 0.36116498708724976
v -0.02809399925172329 0.016665000468492508 0.36116498708724976
f 29/15/14 30/16/14 26/4/14
f 29/15/14 26/4/14 25/1/14
v -0.0 -0.03291900083422661 0.298911988735199
v 0.02809399925172329 -0.016665000468492508 0.298911988735199
v 0.02809399925172329 0.016665000468492508 0.298911988735199
f 31/1/1 32/2/1 33/3/1
v -0.0 0.03291900083422661 0.298911988735199
f 31/1/1 33/3/1 34/4/1
v -0.02809399925172329 -0.016665000468492508 0.298911988735199
f 35/15/1 31/1/1 34/4/1
v -0.02809399925172329 0.016665000468492508 0.298911988735199
f 35/15/1 34/4/1 36/16/1
f 27/3/6 26/4/6 34/4/6
f 27/3/6 34/4/6 33/3/6
f 25/1/9 28/2/9 32/2/9
f 25/1/9 32/2/9 31/1/9
f 29/15/2 25/1/2 31/1/2
f 29/15/2 31/1/2 35/15/2
v -0.02809399925172329 -0.015037000179290771 0.3449459969997406
vt 0.625 0.5122129917144775
vn -0.004000000189989805 1.0 -0.0
v -0.02809399925172329 -0.015037000179290771 0.3151319921016693
vt 0.625 0.5122140049934387
v -0.24544300138950348 -0.01590600050985813 0.307217001914978
vn 0.00139999995008111 1.0 -9.999999747378752e-05
f 37/23/15 38/24/15 39/24/16
v -0.24544300138950348 -0.01590600050985813 0.3528600037097931
vn 0.00139999995008111 1.0 9.999999747378752e-05
f 37/23/15 39/24/16 40/23/17
f 26/4/7 30/16/7 36/16/7
f 26/4/7 36/16/7 34/4/7
f 28/2/5 27/3/5 33/3/5
f 28/2/5 33/3/5 32/2/5
v -0.02809399925172329 0.015037000179290771 0.3449459969997406
vt 0.625 0.7377859950065613
f 37/23/3 41/25/3 30/16/3
f 37/23/3 30/16/3 29/15/3
v -0.02809399925172329 0.015037000179290771 0.3151319921016693
f 42/25/3 38/24/3 35/15/3
f 42/25/3 35/15/3 36/16/3
f 38/24/3 37/23/3 29/15/3
f 38/24/3 29/15/3 35/15/3
f 41/25/3 42/25/3 36/16/3
f 41/25/3 36/16/3 30/16/3
v -0.24544300138950348 0.01590600050985813 0.307217001914978
vn 0.00139999995008111 -1.0 -9.999999747378752e-05
v -0.24544300138950348 0.01590600050985813 0.3528600037097931
vn 0.00139999995008111 -1.0 9.999999747378752e-05
v -0.5076550245285034 0.01590600050985813 0.3528600037097931
vn -0.0 -1.0 0.0
f 43/25/18 44/25/19 45/25/20
v -0.5076550245285034 0.01590600050985813 0.307217001914978
f 43/25/18 45/25/20 46/25/20
vn -0.036400001496076584 0.0 -0.9993000030517578
f 41/25/21 37/23/21 40/23/21
f 41/25/21 40/23/21 44/25/21
vn -0.004000000189989805 -1.0 0.0
f 42/25/22 41/25/22 44/25/19
f 42/25/22 44/25/19 43/25/18
vn -0.036400001496076584 0.0 0.9993000030517578
f 38/24/23 42/25/23 43/25/23
f 38/24/23 43/25/23 39/24/23
v -0.5076550245285034 -0.01590600050985813 0.3528600037097931
v -0.5076550245285034 -0.01590600050985813 0.307217001914978
f 45/25/3 47/23/3 48/24/3
f 45/25/3 48/24/3 46/25/3
vn -0.7985000014305115 0.0 0.6019999980926514
v -0.3197590112686157 0.01590600050985813 0.20864300429821014
f 39/24/24 43/25/24 49/25/24
v -0.3197590112686157 -0.01590600050985813 0.20864300429821014
f 39/24/24 49/25/24 50/24/24
vn -0.0 1.0 -0.0
f 40/23/17 39/24/16 48/24/25
f 40/23/17 48/24/25 47/23/25
v -0.3197590112686157 0.01590600050985813 0.4514339864253998
f 45/25/20 44/25/19 51/25/20
v -0.43333899974823 0.01590600050985813 0.4514339864253998
f 45/25/20 51/25/20 52/25/20
v -0.43333899974823 0.01590600050985813 0.20864300429821014
f 50/24/1 49/25/1 53/25/1
v -0.43333899974823 -0.01590600050985813 0.20864300429821014
f 50/24/1 53/25/1 54/24/1
v -0.3197590112686157 -0.01590600050985813 0.4514339864253998
v -0.43333899974823 -0.01590600050985813 0.4514339864253998
f 51/25/14 55/23/14 56/23/14
f 51/25/14 56/23/14 52/25/14
vn 0.7985000014305115 0.0 -0.6019999980926514
f 47/23/26 45/25/26 52/25/26
f 47/23/26 52/25/26 56/23/26
f 40/23/17 47/23/25 56/23/25
f 40/23/17 56/23/25 55/23/25
f 43/25/18 46/25/20 53/25/20
f 43/25/18 53/25/20 49/25/20
vn -0.7985000014305115 0.0 -0.6019999980926514
f 44/25/27 40/23/27 55/23/27
f 44/25/27 55/23/27 51/25/27
vn 0.7985000014305115 0.0 0.6019999980926514
f 46/25/28 48/24/28 54/24/28
f 46/25/28 54/24/28 53/25/28
f 48/24/25 39/24/16 50/24/25
f 48/24/25 50/24/25 54/24/25
o burst_Circle##0#2#0#-1.0
g burst_Circle##0#2#0#-1.0
v -0.37793898582458496 -0.0196359995752573 0.3298659920692444
vt 0.5 0.5
v -0.35420700907707214 -0.0196359995752573 0.387160986661911
vt 0.30865800380706787 0.9619400016963482
v -0.37793898582458496 -0.019634999334812164 0.4422990083694458
vt 0.5 1.0
f 57/26/20 58/27/20 59/28/20
v -0.2984359860420227 -0.0196359995752573 0.40936800837516785
vt 0.14644700288772583 0.8535529971122742
f 57/26/20 60/29/20 58/27/20
v -0.32064300775527954 -0.0196359995752573 0.35359901189804077
vt 0.03805999830365181 0.6913419961929321
f 57/26/20 61/30/20 60/29/20
v -0.26550599932670593 -0.0196359995752573 0.3298659920692444
vt 0.0 0.5
f 57/26/20 62/31/20 61/30/20
v -0.32064300775527954 -0.0196359995752573 0.3061339855194092
vt 0.03805999830365181 0.30865800380706787
f 57/26/20 63/32/20 62/31/20
v -0.2984359860420227 -0.0196359995752573 0.2503649890422821
vt 0.14644700288772583 0.14644700288772583
f 57/26/20 64/33/20 63/32/20
v -0.35420700907707214 -0.0196359995752573 0.27257201075553894
vt 0.30865800380706787 0.038060009479522705
f 57/26/20 65/34/20 64/33/20
v -0.37793898582458496 -0.0196359995752573 0.21743400394916534
vt 0.5 0.0
f 57/26/20 66/35/20 65/34/20
v -0.40167099237442017 -0.0196359995752573 0.27257201075553894
vt 0.6913419961929321 0.038060009479522705
f 57/26/20 67/36/20 66/35/20
v -0.45743998885154724 -0.0196359995752573 0.2503649890422821
vt 0.8535529971122742 0.14644700288772583
f 57/26/20 68/37/20 67/36/20
v -0.4352329969406128 -0.0196359995752573 0.3061339855194092
vt 0.9619399905204773 0.30865800380706787
f 57/26/20 69/38/20 68/37/20
v -0.4903709888458252 -0.0196359995752573 0.3298659920692444
vt 1.0 0.5
f 57/26/20 70/39/20 69/38/20
v -0.4352329969406128 -0.0196359995752573 0.35359901189804077
vt 0.9619399905204773 0.6913419961929321
f 57/26/20 71/40/20 70/39/20
v -0.45743998885154724 -0.0196359995752573 0.40936800837516785
vt 0.8535529971122742 0.8535529971122742
f 57/26/20 72/41/20 71/40/20
v -0.40167099237442017 -0.0196359995752573 0.387160986661911
vt 0.6913419961929321 0.9619400016963482
f 57/26/20 73/42/20 72/41/20
f 57/26/20 59/28/20 73/42/20
v -0.37793898582458496 0.020641999319195747 0.3298659920692444
v -0.37793898582458496 0.020641999319195747 0.4422990083694458
v -0.35420700907707214 0.020641999319195747 0.387160986661911
f 74/26/25 75/28/25 76/27/25
v -0.2984359860420227 0.020641999319195747 0.40936800837516785
f 74/26/25 76/27/25 77/29/25
v -0.32064300775527954 0.020641999319195747 0.35359901189804077
f 74/26/25 77/29/25 78/30/25
v -0.26550599932670593 0.020641999319195747 0.3298659920692444
f 74/26/25 78/30/25 79/31/25
v -0.32064300775527954 0.020641999319195747 0.3061339855194092
f 74/26/25 79/31/25 80/32/25
v -0.2984359860420227 0.020641999319195747 0.2503649890422821
f 74/26/25 80/32/25 81/33/25
v -0.35420700907707214 0.020641999319195747 0.27257201075553894
f 74/26/25 81/33/25 82/34/25
v -0.37793898582458496 0.020641999319195747 0.21743400394916534
f 74/26/25 82/34/25 83/35/25
v -0.40167099237442017 0.020641999319195747 0.27257201075553894
f 74/26/25 83/35/25 84/36/25
v -0.45743998885154724 0.020641999319195747 0.2503649890422821
f 74/26/25 84/36/25 85/37/25
v -0.4352329969406128 0.020641999319195747 0.3061339855194092
f 74/26/25 85/37/25 86/38/25
v -0.4903709888458252 0.020641999319195747 0.3298659920692444
f 74/26/25 86/38/25 87/39/25
v -0.4352329969406128 0.020641999319195747 0.35359901189804077
f 74/26/25 87/39/25 88/40/25
v -0.45743998885154724 0.020641999319195747 0.40936800837516785
f 74/26/25 88/40/25 89/41/25
v -0.40167099237442017 0.020641999319195747 0.387160986661911
f 74/26/25 89/41/25 90/42/25
f 74/26/25 90/42/25 75/28/25
vn -0.3953999876976013 0.0 0.9185000061988831
f 70/39/29 71/40/29 88/40/29
f 70/39/29 88/40/29 87/39/29
vn -0.3698999881744385 0.0 0.929099977016449
f 58/27/30 60/29/30 77/29/30
f 58/27/30 77/29/30 76/27/30
vn 0.929099977016449 0.0 0.3698999881744385
f 63/32/31 64/33/31 81/33/31
f 63/32/31 81/33/31 80/32/31
vn 0.3698999881744385 0.0 -0.929099977016449
f 67/36/32 68/37/32 85/37/32
f 67/36/32 85/37/32 84/36/32
vn -0.929099977016449 0.0 -0.3698999881744385
f 71/40/33 72/41/33 89/41/33
f 71/40/33 89/41/33 88/40/33
vn 0.929099977016449 0.0 -0.3698999881744385
f 60/29/34 61/30/34 78/30/34
f 60/29/34 78/30/34 77/29/34
vn -0.3698999881744385 0.0 -0.929099977016449
f 64/33/35 65/34/35 82/34/35
f 64/33/35 82/34/35 81/33/35
vn -0.929099977016449 0.0 0.3698999881744385
f 68/37/36 69/38/36 86/38/36
f 68/37/36 86/38/36 85/37/36
vn 0.3698999881744385 0.0 0.929099977016449
f 72/41/37 73/42/37 90/42/37
f 72/41/37 90/42/37 89/41/37
vn 0.3953999876976013 0.0 0.9185000061988831
f 61/30/38 62/31/38 79/31/38
f 61/30/38 79/31/38 78/30/38
vn 0.9185000061988831 0.0 0.3953000009059906
f 59/28/39 58/27/39 76/27/39
f 59/28/39 76/27/39 75/28/39
vn 0.9185000061988831 0.0 -0.3953000009059906
f 65/34/40 66/35/40 83/35/40
f 65/34/40 83/35/40 82/34/40
vn -0.3953000009059906 0.0 -0.9185000061988831
f 69/38/41 70/39/41 87/39/41
f 69/38/41 87/39/41 86/38/41
vn -0.9185000061988831 0.0 0.3953000009059906
f 73/42/42 59/28/42 75/28/42
f 73/42/42 75/28/42 90/42/42
vn 0.3953000009059906 0.0 -0.9185000061988831
f 62/31/43 63/32/43 80/32/43
f 62/31/43 80/32/43 79/31/43
vn -0.9185000061988831 0.0 -0.3953000009059906
f 66/35/44 67/36/44 84/36/44
f 66/35/44 84/36/44 83/35/44
o bird_Cube.002##0#3#0#-1.0
g bird_Cube.002##0#3#0#-1.0
v -0.0017770000267773867 0.029839999973773956 0.4932689964771271
vn 0.6699000000953674 0.0 0.7423999905586243
v -0.04608500003814697 0.029839999973773956 0.533249020576477
v -0.04608500003814697 -0.029839999973773956 0.533249020576477
f 91/9/45 92/10/45 93/11/45
v -0.0017770000267773867 -0.029839999973773956 0.4932689964771271
f 91/9/45 93/11/45 94/12/45
v -0.08606500178575516 -0.029839999973773956 0.4889410138130188
f 94/12/20 93/11/20 95/15/20
v -0.041756998747587204 -0.029839999973773956 0.4489609897136688
f 94/12/20 95/15/20 96/14/20
vn -0.6699000000953674 0.0 -0.7423999905586243
v -0.08606500178575516 0.029839999973773956 0.4889410138130188
f 96/14/46 95/15/46 97/16/46
v -0.041756998747587204 0.029839999973773956 0.4489609897136688
f 96/14/46 97/16/46 98/17/46
f 98/17/25 97/16/25 92/7/25
f 98/17/25 92/7/25 91/8/25
vn -0.2822999954223633 -0.9248999953269958 0.2547000050544739
v 0.0005039999959990382 -0.06703899800777435 0.36072400212287903
f 94/12/47 96/14/47 99/14/47
v 0.0903249979019165 -0.06703899800777435 0.4602690041065216
f 94/12/47 99/14/47 100/12/47
vn -0.7423999905586243 0.0 0.6699000000953674
f 95/15/48 93/2/48 92/3/48
f 95/15/48 92/3/48 97/16/48
vn 0.7423999905586243 0.0 -0.6699000000953674
v 0.0005039999959990382 0.06703899800777435 0.36072400212287903
f 100/21/49 99/14/49 101/17/49
v 0.0903249979019165 0.06703899800777435 0.4602690041065216
f 100/21/49 101/17/49 102/22/49
vn 0.33730000257492065 0.0 0.9413999915122986
f 91/9/50 94/12/50 100/12/50
f 91/9/50 100/12/50 102/9/50
vn -0.9018999934196472 0.0 -0.4320000112056732
f 96/14/51 98/17/51 101/17/51
f 96/14/51 101/17/51 99/14/51
vn -0.2822999954223633 0.9248999953269958 0.2547000050544739
f 98/17/52 91/8/52 102/8/52
f 98/17/52 102/8/52 101/17/52
vn -0.7276999950408936 0.6628000140190125 -0.17630000412464142
v 0.07968199998140335 0.07407400012016296 0.5306329727172852
v 0.17178399860858917 0.16641899943351746 0.49763399362564087
f 102/9/53 103/9/53 104/9/53
vn 0.7276999950408936 0.6628000140190125 0.17630000412464142
v 0.07968199998140335 -0.07407400012016296 0.5306329727172852
v 0.17178399860858917 -0.16641899943351746 0.49763399362564087
f 100/12/54 105/12/54 106/12/54
vn -0.41659998893737793 0.8962000012397766 -0.1526000052690506
f 103/9/55 102/9/55 91/9/55
vn 0.41659998893737793 0.8962000012397766 0.1526000052690506
f 105/12/56 100/12/56 94/12/56
o spin.COLLIDER.ya_Cube.003##0#0#0#-1.0
g spin.COLLIDER.ya_Cube.003##0#0#0#-1.0
v -0.17114199697971344 0.017165999859571457 0.2012529969215393
v -0.17114199697971344 0.017165999859571457 0.45723098516464233
v -0.17114199697971344 -0.017165999859571457 0.45723098516464233
f 107/9/3 108/10/3 109/11/3
v -0.17114199697971344 -0.017165999859571457 0.2012529969215393
f 107/9/3 109/11/3 110/12/3
v -0.5182049870491028 -0.017165999859571457 0.45723098516464233
f 110/12/20 109/11/20 111/15/20
v -0.5182049870491028 -0.017165999859571457 0.2012529969215393
f 110/12/20 111/15/20 112/14/20
v -0.5182049870491028 0.017165999859571457 0.45723098516464233
f 112/14/5 111/15/5 113/16/5
v -0.5182049870491028 0.017165999859571457 0.2012529969215393
f 112/14/5 113/16/5 114/17/5
f 114/17/25 113/16/25 108/7/25
f 114/17/25 108/7/25 107/8/25
f 110/21/14 112/14/14 114/17/14
f 110/21/14 114/17/14 107/22/14
f 111/15/1 109/2/1 108/3/1
f 111/15/1 108/3/1 113/16/1
