# OBJ file
o __dotobj_group__##0#1#0#-1.0
g __dotobj_group__##0#1#0#-1.0
o Cube.190.RAND.NOSHADOW_Cube.407##0#1#0#-1.0
g Cube.190.RAND.NOSHADOW_Cube.407##0#1#0#-1.0
v 0.1808519959449768 0.0 0.37466999888420105
vt 0.5336380004882812 0.125
vn 0.8472999930381775 0.0 0.5311999917030334
v 0.0792590007185936 0.0 0.47508201003074646
vt 0.625 0.125
vn 0.4699000120162964 -0.0 0.8827000260353088
v 0.042183998972177505 -0.07113099843263626 0.47508201003074646
vt 0.625 0.25
vn 0.24490000307559967 -0.4004000127315521 0.8830000162124634
f 1/1/1 2/2/2 3/3/3
v 0.09625600278377533 -0.16230599582195282 0.37466999888420105
vt 0.5336380004882812 0.25
vn 0.4359999895095825 -0.7182000279426575 0.5422999858856201
f 1/1/1 3/3/3 4/4/4
v -0.042183998972177505 -0.07113099843263626 0.47508201003074646
vt 0.625 0.5
vn -0.24490000307559967 -0.4004000127315521 0.8830000162124634
f 4/4/4 3/3/3 5/5/5
v -0.09625600278377533 -0.16230599582195282 0.37466999888420105
vt 0.5336380004882812 0.5
vn -0.4359999895095825 -0.7182000279426575 0.5422999858856201
f 4/4/4 5/5/5 6/6/6
v -0.1808519959449768 0.0 0.37466999888420105
vt 0.5336380004882812 0.625
vn -0.8472999930381775 0.0 0.5311999917030334
v -0.0792590007185936 0.0 0.47508201003074646
vt 0.625 0.625
vn -0.4699000120162964 0.0 0.8827000260353088
v -0.042183998972177505 0.07113099843263626 0.47508201003074646
vt 0.625 0.75
vn -0.24490000307559967 0.4004000127315521 0.8830000162124634
f 7/7/7 8/8/8 9/9/9
v -0.09625600278377533 0.16230599582195282 0.37466999888420105
vt 0.5336380004882812 0.75
vn -0.4359999895095825 0.7182000279426575 0.5422999858856201
f 7/7/7 9/9/9 10/10/10
v 0.042183998972177505 0.07113099843263626 0.47508201003074646
vt 0.625 1.0
vn 0.24490000307559967 0.4004000127315521 0.8830000162124634
f 10/10/10 9/9/9 11/11/11
v 0.09625600278377533 0.16230599582195282 0.37466999888420105
vt 0.5336380004882812 1.0
vn 0.4359999895095825 0.7182000279426575 0.5422999858856201
f 10/10/10 11/11/11 12/12/12
v 0.44050300121307373 -0.0 -0.039806000888347626
vt 0.125 0.625
vn 0.9449999928474426 -0.0 -0.3269999921321869
v -0.44050300121307373 -0.0 -0.039806000888347626
vt 0.375 0.625
vn -0.9449999928474426 -0.0 -0.3269999921321869
v -0.23445099592208862 0.3953309953212738 -0.039806999266147614
vt 0.375 0.75
vn -0.49129998683929443 0.8130999803543091 -0.31220000982284546
f 13/13/13 14/14/14 15/15/15
v 0.23445099592208862 0.3953309953212738 -0.039806999266147614
vt 0.125 0.75
vn 0.49129998683929443 0.8130999803543091 -0.31220000982284546
f 13/13/13 15/15/15 16/16/16
vt 0.875 0.625
vt 0.875 0.75
f 8/8/8 2/17/2 11/18/11
f 8/8/8 11/18/11 9/9/9
v -0.14887599647045135 0.25103500485420227 0.13430799543857574
vt 0.4422770142555237 0.75
vn -0.42239999771118164 0.6942999958992004 0.5827000141143799
v 0.14887599647045135 0.25103500485420227 0.13430799543857574
vt 0.4422770142555237 1.0
vn 0.42239999771118164 0.6942999958992004 0.5827000141143799
f 15/15/15 17/19/17 18/20/18
vt 0.375 1.0
f 15/15/15 18/20/18 16/21/16
v -0.2797189950942993 0.0 0.13430799543857574
vt 0.4422770142555237 0.625
vn -0.8263999819755554 0.0 0.5630999803543091
f 14/14/14 19/22/19 17/19/17
f 14/14/14 17/19/17 15/15/15
v 0.23445099592208862 -0.3953309953212738 -0.039806000888347626
vt 0.375 0.25
vn 0.49129998683929443 -0.8130999803543091 -0.31220000982284546
v 0.14887599647045135 -0.25103500485420227 0.13430899381637573
vt 0.4422770142555237 0.25
vn 0.42239999771118164 -0.6942999958992004 0.5827000141143799
v -0.14887599647045135 -0.25103500485420227 0.13430899381637573
vt 0.4422770142555237 0.5
vn -0.42239999771118164 -0.6942999958992004 0.5827000141143799
f 20/23/20 21/24/21 22/25/22
v -0.23445099592208862 -0.3953309953212738 -0.039806000888347626
vt 0.375 0.5
vn -0.49129998683929443 -0.8130999803543091 -0.31220000982284546
f 20/23/20 22/25/22 23/26/23
vt 0.375 0.125
v 0.2797189950942993 0.0 0.13430799543857574
vt 0.4422770142555237 0.125
vn 0.8263999819755554 0.0 0.5630999803543091
f 13/27/13 24/28/24 21/24/21
f 13/27/13 21/24/21 20/23/20
f 17/19/17 10/10/10 12/12/12
f 17/19/17 12/12/12 18/20/18
f 19/22/19 7/7/7 10/10/10
f 19/22/19 10/10/10 17/19/17
f 21/24/21 4/4/4 6/6/6
f 21/24/21 6/6/6 22/25/22
f 24/28/24 1/1/1 4/4/4
f 24/28/24 4/4/4 21/24/21
vt 0.4422770142555237 0.0
vt 0.5336380004882812 0.0
f 18/29/18 12/30/12 1/1/1
f 18/29/18 1/1/1 24/28/24
f 22/25/22 6/6/6 7/7/7
f 22/25/22 7/7/7 19/22/19
vt 0.375 0.0
f 16/31/16 18/29/18 24/28/24
f 16/31/16 24/28/24 13/27/13
f 23/26/23 22/25/22 19/22/19
f 23/26/23 19/22/19 14/14/14
vt 0.875 0.5
f 5/5/5 3/32/3 2/17/2
f 5/5/5 2/17/2 8/8/8
vt 0.125 0.5
f 20/33/20 23/26/23 14/14/14
f 20/33/20 14/14/14 13/13/13
f 6/6/6 5/5/5 8/8/8
f 6/6/6 8/8/8 7/7/7
vt 0.625 0.0
f 12/30/12 11/34/11 2/2/2
f 12/30/12 2/2/2 1/1/1
