# OBJ file
o __dotobj_group__##0#1#0#-1.0
g __dotobj_group__##0#1#0#-1.0
o Cube_Cube.001##0#1#0#-1.0
g Cube_Cube.001##0#1#0#-1.0
v 0.1515830010175705 0.0 -0.016465000808238983
vt 0.375 0.125
vn 1.0 0.0 0.0
v 0.1515830010175705 0.0 0.36194199323654175
vt 0.625 0.125
v 0.1515830010175705 -0.1302880048751831 0.4483320116996765
vt 0.625 0.25
f 1/1/1 2/2/1 3/3/1
v 0.1515830010175705 -0.1302880048751831 -0.016465000808238983
vt 0.375 0.25
f 1/1/1 3/3/1 4/4/1
v -0.05528699979186058 -0.1302880048751831 -0.016465000808238983
vt 0.375 0.4205920100212097
vn -0.0 -1.0 0.0
v -0.05528699979186058 -0.1302880048751831 0.4483320116996765
vt 0.625 0.4205920100212097
v -0.1515830010175705 -0.1302880048751831 0.4483320116996765
vt 0.625 0.5
f 5/5/2 6/6/2 7/7/2
v -0.1515830010175705 -0.1302880048751831 -0.016465000808238983
vt 0.375 0.5
f 5/5/2 7/7/2 8/8/2
v -0.1515830010175705 0.06514400243759155 -0.016465000808238983
vt 0.375 0.6875
vn -1.0 0.0 0.0
v -0.1515830010175705 0.06514400243759155 0.31874600052833557
vt 0.625 0.6875
v -0.1515830010175705 0.1302880048751831 0.2755509912967682
vt 0.625 0.75
f 9/9/3 10/10/3 11/11/3
v -0.1515830010175705 0.1302880048751831 -0.016465000808238983
vt 0.375 0.75
f 9/9/3 11/11/3 12/12/3
v 0.041009001433849335 0.1302880048751831 -0.016465000808238983
vt 0.375 0.9088170006871223
vn -0.0 1.0 0.0
v 0.041009001433849335 0.1302880048751831 0.2755509912967682
vt 0.625 0.9088170006871223
v 0.1515830010175705 0.1302880048751831 0.2755509912967682
vt 0.625 1.0
f 13/13/4 14/14/4 15/15/4
v 0.1515830010175705 0.1302880048751831 -0.016465000808238983
vt 0.375 1.0
f 13/13/4 15/15/4 16/16/4
v -0.05528699979186058 0.06514400243759155 -0.016465000808238983
vt 0.2955920100212097 0.6875
vn -0.0 -0.0 -1.0
f 17/17/5 9/9/5 12/12/5
v -0.05528699979186058 0.1302880048751831 -0.016465000808238983
vt 0.2955920100212097 0.75
f 17/17/5 12/12/5 18/18/5
v 0.1515830010175705 0.06514400243759155 -0.016465000808238983
vt 0.125 0.6875
v 0.041009001433849335 0.06514400243759155 -0.016465000808238983
vt 0.21618300676345825 0.6875
vt 0.21618300676345825 0.75
f 19/19/5 20/20/5 13/21/5
vt 0.125 0.75
f 19/19/5 13/21/5 16/22/5
vt 0.375 0.8294080048799515
v -0.05528699979186058 0.1302880048751831 0.2755509912967682
vt 0.625 0.8294080048799515
f 18/23/4 21/24/4 14/14/4
f 18/23/4 14/14/4 13/13/4
v 0.041009001433849335 -0.1302880048751831 0.4483320116996765
vt 0.625 0.34118300676345825
f 4/4/2 3/3/2 22/25/2
v 0.041009001433849335 -0.1302880048751831 -0.016465000808238983
vt 0.375 0.34118300676345825
f 4/4/2 22/25/2 23/26/2
vt 0.125 0.5
vt 0.21618300676345825 0.5
v 0.041009001433849335 0.0 -0.016465000808238983
vt 0.21618300676345825 0.625
f 4/27/5 23/28/5 24/29/5
vt 0.125 0.625
f 4/27/5 24/29/5 1/30/5
v -0.06877999752759933 -0.009736999869346619 0.3683980107307434
vt 0.6932820081710815 0.6156579852104187
vn -0.0 -0.8334000110626221 0.5526000261306763
v -0.13809099793434143 -0.009736999869346619 0.3683980107307434
vt 0.6361259818077087 0.6156579852104187
v -0.13809099793434143 -0.013806000351905823 0.3622620105743408
f 25/31/6 26/32/6 27/32/6
v -0.06877999752759933 -0.013806000351905823 0.3622620105743408
f 25/31/6 27/32/6 28/31/6
vt 0.2955920100212097 0.5
v -0.1515830010175705 0.0 -0.016465000808238983
vt 0.375 0.625
f 5/33/5 8/8/5 29/34/5
v -0.05528699979186058 0.0 -0.016465000808238983
vt 0.2955920100212097 0.625
f 5/33/5 29/34/5 30/35/5
v -0.1515830010175705 0.0 0.36194199323654175
vt 0.625 0.625
f 8/8/3 7/7/3 31/36/3
f 8/8/3 31/36/3 29/34/3
vt 0.375 0.0625
v 0.1515830010175705 0.06514400243759155 0.31874600052833557
vt 0.625 0.0625
f 19/37/1 32/38/1 2/2/1
f 19/37/1 2/2/1 1/1/1
v 0.041009001433849335 0.0 0.36194199323654175
vt 0.7838169932365417 0.625
vn 0.0 0.5526000261306763 0.8334000110626221
vt 0.875 0.625
v 0.12190300226211548 0.02142000012099743 0.34773799777030945
vt 0.8505250215530396 0.6455509960651398
f 33/39/7 2/40/7 34/41/7
v 0.07068900018930435 0.02142000012099743 0.34773799777030945
vt 0.8082919716835022 0.6455509960651398
f 33/39/7 34/41/7 35/42/7
vt 0.875 0.6875
vt 0.875 0.75
v 0.12190300226211548 0.10886800289154053 0.2897540032863617
vt 0.8505250215530396 0.7294490039348602
f 32/43/7 15/44/7 36/45/7
v 0.12190300226211548 0.06514400243759155 0.31874600052833557
vt 0.8505250215530396 0.6875
f 32/43/7 36/45/7 37/46/7
vt 0.7838169932365417 0.75
v 0.07068900018930435 0.10886800289154053 0.2897540032863617
vt 0.8082919716835022 0.7294490039348602
f 15/44/7 14/47/7 38/48/7
f 15/44/7 38/48/7 36/45/7
v 0.041009001433849335 0.06514400243759155 0.31874600052833557
vt 0.7838169932365417 0.6875
f 39/49/7 33/39/7 35/42/7
v 0.07068900018930435 0.06514400243759155 0.31874600052833557
vt 0.8082919716835022 0.6875
f 39/49/7 35/42/7 40/50/7
vt 0.7838169932365417 0.5
vt 0.875 0.5
v 0.12190300226211548 -0.10886800289154053 0.434128999710083
vt 0.8505250215530396 0.5205509960651398
f 22/51/7 3/52/7 41/53/7
v 0.07068900018930435 -0.10886800289154053 0.434128999710083
vt 0.8082919716835022 0.5205509960651398
f 22/51/7 41/53/7 42/54/7
v 0.12190300226211548 -0.02142000012099743 0.37614500522613525
vt 0.8505250215530396 0.6044490039348602
f 3/52/7 2/40/7 43/55/7
f 3/52/7 43/55/7 41/53/7
v 0.07068900018930435 -0.02142000012099743 0.37614500522613525
vt 0.8082919716835022 0.6044490039348602
f 2/40/7 33/39/7 44/56/7
f 2/40/7 44/56/7 43/55/7
f 33/39/7 22/51/7 42/54/7
f 33/39/7 42/54/7 44/56/7
f 14/47/7 39/49/7 40/50/7
f 14/47/7 40/50/7 38/48/7
f 2/40/7 32/43/7 37/46/7
f 2/40/7 37/46/7 34/41/7
vt 0.375 0.0
vt 0.625 0.0
f 16/57/1 15/58/1 32/38/1
f 16/57/1 32/38/1 19/37/1
f 1/30/5 24/29/5 20/20/5
f 1/30/5 20/20/5 19/19/5
f 30/35/5 29/34/5 9/9/5
f 30/35/5 9/9/5 17/17/5
f 29/34/3 31/36/3 10/10/3
f 29/34/3 10/10/3 9/9/3
f 24/29/5 30/35/5 17/17/5
f 24/29/5 17/17/5 20/20/5
f 23/28/5 5/33/5 30/35/5
f 23/28/5 30/35/5 24/29/5
v 0.027515999972820282 -0.12055099755525589 0.44187599420547485
vt 0.772691011428833 0.5093420147895813
v 0.027515999972820282 -0.009736999869346619 0.3683980107307434
vt 0.772691011428833 0.6156579852104187
v 0.027515999972820282 -0.013806000351905823 0.3622620105743408
f 45/59/3 46/60/3 47/60/3
v 0.027515999972820282 -0.1246189996600151 0.43573901057243347
f 45/59/3 47/60/3 48/59/3
f 12/12/4 11/11/4 21/24/4
f 12/12/4 21/24/4 18/23/4
f 20/20/5 17/17/5 18/18/5
f 20/20/5 18/18/5 13/21/5
f 23/26/2 22/25/2 6/6/2
f 23/26/2 6/6/2 5/5/2
v -0.05528699979186058 0.06514400243759155 0.31874600052833557
vt 0.7044079899787903 0.6875
v 0.02251099981367588 0.07849299907684326 0.30989399552345276
vt 0.7685629725456238 0.7003079950809479
f 49/61/7 39/49/7 50/62/7
v -0.03678999841213226 0.07849299907684326 0.30989399552345276
vt 0.7196620106697083 0.7003079950809479
f 49/61/7 50/62/7 51/63/7
v 0.02251099981367588 0.11693800240755081 0.2844020128250122
vt 0.7685629725456238 0.7371920049190521
f 39/49/7 14/47/7 52/64/7
f 39/49/7 52/64/7 50/62/7
vt 0.7044079899787903 0.75
v -0.03678999841213226 0.11693800240755081 0.2844020128250122
vt 0.7196620106697083 0.7371920049190521
f 14/47/7 21/65/7 53/66/7
f 14/47/7 53/66/7 52/64/7
f 21/65/7 49/61/7 51/63/7
f 21/65/7 51/63/7 53/66/7
v -0.05528699979186058 0.0 0.36194199323654175
vt 0.7044079899787903 0.625
v 0.02251099981367588 0.013349000364542007 0.35308998823165894
vt 0.7685629725456238 0.6378079950809479
f 54/67/7 33/39/7 55/68/7
v -0.03678999841213226 0.013349000364542007 0.35308998823165894
vt 0.7196620106697083 0.6378079950809479
f 54/67/7 55/68/7 56/69/7
v 0.02251099981367588 0.05179499834775925 0.3275980055332184
vt 0.7685629725456238 0.6746920049190521
f 33/39/7 39/49/7 57/70/7
f 33/39/7 57/70/7 55/68/7
v -0.03678999841213226 0.05179499834775925 0.3275980055332184
vt 0.7196620106697083 0.6746920049190521
f 39/49/7 49/61/7 58/71/7
f 39/49/7 58/71/7 57/70/7
f 49/61/7 54/67/7 56/69/7
f 49/61/7 56/69/7 58/71/7
v -0.07378499954938889 0.013349000364542007 0.35308998823165894
vt 0.6891549825668335 0.6378079950809479
f 31/36/7 54/67/7 59/72/7
v -0.13308599591255188 0.013349000364542007 0.35308998823165894
vt 0.6402530074119568 0.6378079950809479
f 31/36/7 59/72/7 60/73/7
v -0.07378499954938889 0.05179499834775925 0.3275980055332184
vt 0.6891549825668335 0.6746920049190521
f 54/67/7 49/61/7 61/74/7
f 54/67/7 61/74/7 59/72/7
v -0.13308599591255188 0.05179499834775925 0.3275980055332184
vt 0.640254020690918 0.6746920049190521
f 49/61/7 10/10/7 62/75/7
f 49/61/7 62/75/7 61/74/7
f 10/10/7 31/36/7 60/73/7
f 10/10/7 60/73/7 62/75/7
v -0.07378499954938889 0.07849299907684326 0.30989399552345276
vt 0.6891549825668335 0.7003079950809479
f 10/10/7 49/61/7 63/76/7
v -0.13308599591255188 0.07849299907684326 0.30989399552345276
vt 0.6402530074119568 0.7003079950809479
f 10/10/7 63/76/7 64/77/7
v -0.07378499954938889 0.11693800240755081 0.2844020128250122
vt 0.6891549825668335 0.7371920049190521
f 49/61/7 21/65/7 65/78/7
f 49/61/7 65/78/7 63/76/7
v -0.13308599591255188 0.11693800240755081 0.2844020128250122
vt 0.6402530074119568 0.7371920049190521
f 21/65/7 11/11/7 66/79/7
f 21/65/7 66/79/7 65/78/7
f 11/11/7 10/10/7 64/77/7
f 11/11/7 64/77/7 66/79/7
vt 0.7044079899787903 0.5
f 6/80/7 22/51/7 45/59/7
v -0.041795000433921814 -0.12055099755525589 0.44187599420547485
vt 0.7155349850654602 0.5093420147895813
f 6/80/7 45/59/7 67/81/7
f 22/51/7 33/39/7 46/60/7
f 22/51/7 46/60/7 45/59/7
v -0.041795000433921814 -0.009736999869346619 0.3683980107307434
vt 0.7155349850654602 0.6156579852104187
f 33/39/7 54/67/7 68/82/7
f 33/39/7 68/82/7 46/60/7
f 54/67/7 6/80/7 67/81/7
f 54/67/7 67/81/7 68/82/7
v -0.06877999752759933 -0.12055099755525589 0.44187599420547485
vt 0.6932820081710815 0.5093420147895813
f 7/7/7 6/80/7 69/83/7
v -0.13809099793434143 -0.12055099755525589 0.44187599420547485
vt 0.6361259818077087 0.5093420147895813
f 7/7/7 69/83/7 70/84/7
f 6/80/7 54/67/7 25/31/7
f 6/80/7 25/31/7 69/83/7
f 54/67/7 31/36/7 26/32/7
f 54/67/7 26/32/7 25/31/7
f 31/36/7 7/7/7 70/84/7
f 31/36/7 70/84/7 26/32/7
vn -0.0 0.8334000110626221 -0.5526000261306763
f 67/81/8 45/59/8 48/59/8
v -0.041795000433921814 -0.1246189996600151 0.43573901057243347
f 67/81/8 48/59/8 71/81/8
v -0.13809099793434143 -0.1246189996600151 0.43573901057243347
f 26/32/1 70/84/1 72/84/1
f 26/32/1 72/84/1 27/32/1
v -0.041795000433921814 -0.013806000351905823 0.3622620105743408
f 46/60/6 68/82/6 73/82/6
f 46/60/6 73/82/6 47/60/6
f 68/82/1 67/81/1 71/81/1
f 68/82/1 71/81/1 73/82/1
f 69/83/3 25/31/3 28/31/3
v -0.06877999752759933 -0.1246189996600151 0.43573901057243347
f 69/83/3 28/31/3 74/83/3
f 70/84/8 69/83/8 74/83/8
f 70/84/8 74/83/8 72/84/8
o Cube_Cube.001##0#0#1#5263615.0
g Cube_Cube.001##0#0#1#5263615.0
v 0.07068900018930435 0.029745999723672867 0.36029401421546936
f 40/50/3 35/42/3 75/42/3
v 0.07068900018930435 0.07346999645233154 0.3313019871711731
f 40/50/3 75/42/3 76/50/3
v 0.12190300226211548 0.11719299852848053 0.3023099899291992
f 37/46/1 36/45/1 77/45/1
v 0.12190300226211548 0.07346999645233154 0.3313019871711731
f 37/46/1 77/45/1 78/46/1
v 0.07068900018930435 0.11719299852848053 0.3023099899291992
f 36/45/8 38/48/8 79/48/8
f 36/45/8 79/48/8 77/45/8
v 0.12190300226211548 0.029745999723672867 0.36029401421546936
f 35/42/6 34/41/6 80/41/6
f 35/42/6 80/41/6 75/42/6
v 0.11278700083494186 0.04072999954223633 0.3625760078430176
vt 0.8430079817771912 0.6518630087375641
vn -0.0 -0.20329999923706055 0.9790999889373779
v 0.07980500161647797 0.04072999954223633 0.3625760078430176
vt 0.8158090114593506 0.6518630087375641
f 81/85/9 82/86/9 75/42/9
f 81/85/9 75/42/9 80/41/9
v 0.07980500161647797 0.07787500321865082 0.33794599771499634
vt 0.8158090114593506 0.6875
vn -0.65829998254776 0.41600000858306885 0.6273999810218811
v 0.07980500161647797 0.11501999944448471 0.3133159875869751
vt 0.8158090114593506 0.7231369912624359
f 83/87/10 84/88/10 79/48/10
f 83/87/10 79/48/10 76/50/10
v 0.11278700083494186 0.07787500321865082 0.33794599771499634
vt 0.8430070281028748 0.6875
vn 0.65829998254776 0.41600000858306885 0.6273999810218811
f 85/89/11 81/85/11 80/41/11
f 85/89/11 80/41/11 78/46/11
vn -0.0 0.9810000061988831 0.19380000233650208
v 0.11278700083494186 0.11501999944448471 0.3133159875869751
vt 0.8430070281028748 0.7231369912624359
f 84/88/12 86/90/12 77/45/12
f 84/88/12 77/45/12 79/48/12
f 83/87/7 85/89/7 86/90/7
f 83/87/7 86/90/7 84/88/7
f 82/86/7 81/85/7 85/89/7
f 82/86/7 85/89/7 83/87/7
f 86/90/11 85/89/11 78/46/11
f 86/90/11 78/46/11 77/45/11
f 82/86/10 83/87/10 76/50/10
f 82/86/10 76/50/10 75/42/10
f 34/41/1 37/46/1 78/46/1
f 34/41/1 78/46/1 80/41/1
f 38/48/3 40/50/3 76/50/3
f 38/48/3 76/50/3 79/48/3
o Cube_Cube.001##0#0#2#5308240.0
g Cube_Cube.001##0#0#2#5308240.0
v 0.12190300226211548 -0.013094999827444553 0.3887009918689728
f 41/53/1 43/55/1 87/55/1
v 0.12190300226211548 -0.10054200142621994 0.44668498635292053
f 41/53/1 87/55/1 88/53/1
v 0.07068900018930435 -0.013094999827444553 0.3887009918689728
f 43/55/8 44/56/8 89/56/8
f 43/55/8 89/56/8 87/55/8
f 42/54/6 41/53/6 88/53/6
v 0.07068900018930435 -0.10054200142621994 0.44668498635292053
f 42/54/6 88/53/6 90/54/6
f 44/56/3 42/54/3 90/54/3
f 44/56/3 90/54/3 89/56/3
v 0.07980500161647797 -0.08955799788236618 0.44896599650382996
vt 0.8158090114593506 0.5268630087375641
v 0.11278700083494186 -0.08955799788236618 0.44896599650382996
vt 0.8430079817771912 0.5268630087375641
v 0.11278700083494186 -0.015267999842762947 0.39970698952674866
vt 0.8430079817771912 0.5981369912624359
f 91/91/7 92/92/7 93/93/7
v 0.07980500161647797 -0.015267999842762947 0.39970698952674866
vt 0.8158090114593506 0.5981369912624359
f 91/91/7 93/93/7 94/94/7
f 92/92/9 91/91/9 90/54/9
f 92/92/9 90/54/9 88/53/9
f 91/91/10 94/94/10 89/56/10
f 91/91/10 89/56/10 90/54/10
f 93/93/11 92/92/11 88/53/11
f 93/93/11 88/53/11 87/55/11
f 87/55/12 89/56/12 94/94/12
f 87/55/12 94/94/12 93/93/12
o Cube_Cube.001##0#0#3#3289650.0
g Cube_Cube.001##0#0#3#3289650.0
f 71/81/7 48/59/7 47/60/7
f 71/81/7 47/60/7 73/82/7
f 72/84/7 74/83/7 28/31/7
f 72/84/7 28/31/7 27/32/7
o Cube_Cube.001##0#0#4#5308320.0
g Cube_Cube.001##0#0#4#5308320.0
v -0.13308599591255188 0.018418999388813972 0.36073601245880127
f 62/75/3 60/73/3 95/73/3
v -0.13308599591255188 0.05686499923467636 0.33524399995803833
f 62/75/3 95/73/3 96/75/3
v -0.03678999841213226 0.12200900167226791 0.29204899072647095
f 52/64/8 53/66/8 97/66/8
v 0.02251099981367588 0.12200900167226791 0.29204899072647095
f 52/64/8 97/66/8 98/64/8
v -0.03678999841213226 0.018418999388813972 0.36073601245880127
f 58/71/3 56/69/3 99/69/3
v -0.03678999841213226 0.05686499923467636 0.33524399995803833
f 58/71/3 99/69/3 100/71/3
v -0.03678999841213226 0.08356299996376038 0.3175410032272339
f 53/66/3 51/63/3 101/63/3
f 53/66/3 101/63/3 97/66/3
f 50/62/1 52/64/1 98/64/1
v 0.02251099981367588 0.08356299996376038 0.3175410032272339
f 50/62/1 98/64/1 102/62/1
v 0.02251099981367588 0.05686499923467636 0.33524399995803833
f 55/68/1 57/70/1 103/70/1
v 0.02251099981367588 0.018418999388813972 0.36073601245880127
vt 0.768563985824585 0.6378079950809479
f 55/68/1 103/70/1 104/95/1
v -0.07378499954938889 0.05686499923467636 0.33524399995803833
f 59/72/1 61/74/1 105/74/1
v -0.07378499954938889 0.018418999388813972 0.36073601245880127
f 59/72/1 105/74/1 106/72/1
v -0.07378499954938889 0.12200900167226791 0.29204899072647095
f 63/76/1 65/78/1 107/78/1
v -0.07378499954938889 0.08356299996376038 0.3175410032272339
f 63/76/1 107/78/1 108/76/1
f 57/70/8 58/71/8 100/71/8
f 57/70/8 100/71/8 103/70/8
v -0.12545399367809296 0.09275899827480316 0.3194510042667389
vt 0.6465470194816589 0.705592006444931
v -0.08141600340604782 0.09275899827480316 0.3194510042667389
vt 0.6828619837760925 0.705592006444931
v -0.08141600340604782 0.12018900364637375 0.3012630045413971
vt 0.6828619837760925 0.731907993555069
f 109/96/7 110/97/7 111/98/7
v -0.12545399367809296 0.12018900364637375 0.3012630045413971
vt 0.6465470194816589 0.731907993555069
f 109/96/7 111/98/7 112/99/7
f 51/63/6 50/62/6 102/62/6
f 51/63/6 102/62/6 101/63/6
f 61/74/8 62/75/8 96/75/8
f 61/74/8 96/75/8 105/74/8
f 56/69/6 55/68/6 104/95/6
f 56/69/6 104/95/6 99/69/6
v -0.13308599591255188 0.12200900167226791 0.29204899072647095
f 65/78/8 66/79/8 113/79/8
f 65/78/8 113/79/8 107/78/8
v -0.02915799990296364 0.027614999562501907 0.3626460134983063
vt 0.7259550094604492 0.643092006444931
v 0.014879000373184681 0.027614999562501907 0.3626460134983063
vt 0.7622699737548828 0.643092006444931
v 0.014879000373184681 0.055045001208782196 0.3444580137729645
vt 0.7622699737548828 0.669407993555069
f 114/100/7 115/101/7 116/102/7
v -0.02915799990296364 0.055045001208782196 0.3444580137729645
vt 0.7259550094604492 0.669407993555069
f 114/100/7 116/102/7 117/103/7
f 60/73/6 59/72/6 106/72/6
f 60/73/6 106/72/6 95/73/6
v -0.12545399367809296 0.027614999562501907 0.3626460134983063
vt 0.6465470194816589 0.643092006444931
v -0.08141600340604782 0.027614999562501907 0.3626460134983063
vt 0.6828619837760925 0.643092006444931
v -0.08141600340604782 0.055045001208782196 0.3444580137729645
vt 0.6828619837760925 0.669407993555069
f 118/104/7 119/105/7 120/106/7
v -0.12545399367809296 0.055045001208782196 0.3444580137729645
vt 0.6465470194816589 0.669407993555069
f 118/104/7 120/106/7 121/107/7
v -0.13308599591255188 0.08356299996376038 0.3175410032272339
f 66/79/3 64/77/3 122/77/3
f 66/79/3 122/77/3 113/79/3
f 64/77/6 63/76/6 108/76/6
f 64/77/6 108/76/6 122/77/6
v 0.014879000373184681 0.09275899827480316 0.3194510042667389
vt 0.7622699737548828 0.705592006444931
v -0.02915799990296364 0.09275899827480316 0.3194510042667389
vt 0.7259550094604492 0.705592006444931
f 123/108/9 124/109/9 101/63/9
f 123/108/9 101/63/9 102/62/9
v -0.02915799990296364 0.12018900364637375 0.3012630045413971
vt 0.7259550094604492 0.731907993555069
f 124/109/10 125/110/10 97/66/10
f 124/109/10 97/66/10 101/63/10
v 0.014879000373184681 0.12018900364637375 0.3012630045413971
vt 0.7622699737548828 0.731907993555069
f 102/62/11 98/64/11 126/111/11
f 102/62/11 126/111/11 123/108/11
f 125/110/12 126/111/12 98/64/12
f 125/110/12 98/64/12 97/66/12
vn -0.0 -0.20340000092983246 0.9790999889373779
f 115/101/13 114/100/13 99/69/13
f 115/101/13 99/69/13 104/95/13
f 114/100/10 117/103/10 100/71/10
f 114/100/10 100/71/10 99/69/10
f 104/95/11 103/70/11 116/102/11
f 104/95/11 116/102/11 115/101/11
f 103/70/12 100/71/12 117/103/12
f 103/70/12 117/103/12 116/102/12
f 119/105/9 118/104/9 95/73/9
f 119/105/9 95/73/9 106/72/9
f 118/104/10 121/107/10 96/75/10
f 118/104/10 96/75/10 95/73/10
f 106/72/11 105/74/11 120/106/11
f 106/72/11 120/106/11 119/105/11
f 105/74/12 96/75/12 121/107/12
f 105/74/12 121/107/12 120/106/12
f 110/97/9 109/96/9 122/77/9
f 110/97/9 122/77/9 108/76/9
f 109/96/10 112/99/10 113/79/10
f 109/96/10 113/79/10 122/77/10
f 108/76/11 107/78/11 111/98/11
f 108/76/11 111/98/11 110/97/11
f 112/99/12 111/98/12 107/78/12
f 112/99/12 107/78/12 113/79/12
f 124/109/7 123/108/7 126/111/7
f 124/109/7 126/111/7 125/110/7
o cube.COLLIDER_Cube.002##0#0#0#-1.0
g cube.COLLIDER_Cube.002##0#0#0#-1.0
v 0.1613679975271225 0.1317799985408783 -0.010444999672472477
v 0.1613679975271225 0.1317799985408783 0.639339029788971
v 0.1613679975271225 -0.1317799985408783 0.639339029788971
f 127/57/1 128/58/1 129/3/1
v 0.1613679975271225 -0.1317799985408783 -0.010444999672472477
f 127/57/1 129/3/1 130/4/1
v -0.1613679975271225 -0.1317799985408783 0.639339029788971
f 130/4/2 129/3/2 131/7/2
v -0.1613679975271225 -0.1317799985408783 -0.010444999672472477
f 130/4/2 131/7/2 132/8/2
v -0.1613679975271225 0.1317799985408783 0.639339029788971
f 132/8/3 131/7/3 133/11/3
v -0.1613679975271225 0.1317799985408783 -0.010444999672472477
f 132/8/3 133/11/3 134/12/3
f 134/12/4 133/11/4 128/15/4
f 134/12/4 128/15/4 127/16/4
f 130/27/5 132/8/5 134/12/5
f 130/27/5 134/12/5 127/22/5
vn -0.0 0.0 1.0
f 131/7/14 129/52/14 128/44/14
f 131/7/14 128/44/14 133/11/14
