# OBJ file
o __dotobj_group__##0#1#0#-1.0
g __dotobj_group__##0#1#0#-1.0
o Cube_Cube.002##0#1#0#-1.0
g Cube_Cube.002##0#1#0#-1.0
v 2.1296889781951904 0.30166199803352356 1.7185499668121338
vt 0.5 0.0
vn 0.9546999931335449 0.2915000021457672 -0.06040000170469284
v 2.1296889781951904 0.6776160001754761 3.533674955368042
vt 0.625 0.0
v 2.2510321140289307 0.3221740126609802 3.7361490726470947
vt 0.625 0.25
f 1/1/1 2/2/1 3/3/1
v 2.2510321140289307 -0.07520099729299545 1.8176039457321167
vt 0.5 0.25
f 1/1/1 3/3/1 4/4/1
v -2.2510321140289307 -0.07520099729299545 1.8176039457321167
vt 0.5 0.5
vn -0.9546999931335449 0.2915000021457672 -0.06040000170469284
v -2.2510321140289307 0.3221740126609802 3.7361490726470947
vt 0.625 0.5
v -2.1296889781951904 0.6776160001754761 3.533674955368042
vt 0.625 0.75
f 5/5/2 6/6/2 7/7/2
v -2.1296889781951904 0.30166199803352356 1.7185499668121338
vt 0.5 0.75
f 5/5/2 7/7/2 8/8/2
v 2.2510321140289307 -0.47257599234580994 -0.10093999654054642
vt 0.125 0.5
vn -0.0 0.010999999940395355 -0.9998999834060669
v -2.2510321140289307 -0.47257599234580994 -0.10093999654054642
vt 0.375 0.5
v -2.1296889781951904 -0.07429199665784836 -0.09657599776983261
vt 0.375 0.75
f 9/9/3 10/10/3 11/11/3
v 2.1296889781951904 -0.07429199665784836 -0.09657599776983261
vt 0.125 0.75
f 9/9/3 11/11/3 12/12/3
vn -0.0 0.4950000047683716 0.8689000010490417
vt 0.875 0.5
vt 0.875 0.75
f 6/6/4 3/13/4 2/14/4
f 6/6/4 2/14/4 7/7/4
v 1.857064962387085 0.108644999563694 0.7866550087928772
vt 0.5 0.9710540007799864
vn -0.0 0.979200005531311 -0.20280000567436218
v 1.4413419961929321 0.22147299349308014 1.3313920497894287
vt 0.6016889810562134 0.9710540007799864
vt 0.625 1.0
f 13/15/5 14/16/5 2/17/5
vt 0.5 1.0
f 13/15/5 2/17/5 1/18/5
v 1.9628740549087524 -0.279215008020401 0.832614004611969
vt 0.5 0.2789459824562073
vn 0.0 -0.979200005531311 0.20280000567436218
v 1.5234639644622803 -0.39847099781036377 0.2568410038948059
vt 0.39831098914146423 0.2789459824562073
vt 0.375 0.25
f 15/19/6 16/20/6 9/21/6
f 15/19/6 9/21/6 4/4/6
v -1.5234639644622803 -0.39847099781036377 0.2568410038948059
vt 0.39831098914146423 0.4710540175437927
f 16/20/6 17/22/6 10/10/6
f 16/20/6 10/10/6 9/21/6
v -1.5234639644622803 -0.15995900332927704 1.4083880186080933
vt 0.6016889810562134 0.4710540175437927
v 1.5234639644622803 -0.15995900332927704 1.4083880186080933
vt 0.6016889810562134 0.2789459824562073
f 18/23/6 19/24/6 3/3/6
f 18/23/6 3/3/6 6/6/6
v -1.9628740549087524 -0.279215008020401 0.832614004611969
vt 0.5 0.4710540175437927
f 20/25/6 18/23/6 6/6/6
f 20/25/6 6/6/6 5/5/6
v -1.857064962387085 0.108644999563694 0.7866550087928772
vt 0.5 0.7789459973573685
v -1.4413419961929321 -0.004182000178843737 0.24191899597644806
vt 0.39831098914146423 0.7789459973573685
f 21/26/5 22/27/5 11/11/5
f 21/26/5 11/11/5 8/8/5
v 1.4413419961929321 -0.004182000178843737 0.24191899597644806
vt 0.39831098914146423 0.9710540007799864
vt 0.375 1.0
f 22/27/5 23/28/5 12/29/5
f 22/27/5 12/29/5 11/11/5
v -1.4413419961929321 0.22147299349308014 1.3313920497894287
vt 0.6016889810562134 0.7789459973573685
f 14/16/5 24/30/5 7/7/5
f 14/16/5 7/7/5 2/17/5
f 24/30/5 21/26/5 8/8/5
f 24/30/5 8/8/5 7/7/5
f 17/22/6 20/25/6 5/5/6
f 17/22/6 5/5/6 10/10/6
f 19/24/6 15/19/6 4/4/6
f 19/24/6 4/4/6 3/3/6
f 23/28/5 13/15/5 1/18/5
f 23/28/5 1/18/5 12/29/5
f 10/10/2 5/5/2 8/8/2
f 10/10/2 8/8/2 11/11/2
vt 0.375 0.0
f 12/31/1 1/1/1 4/4/1
f 12/31/1 4/4/1 9/21/1
o Cube_Cube.002##0#2#1#-1.0
g Cube_Cube.002##0#2#1#-1.0
vn -0.0 0.03779999911785126 0.9993000030517578
f 17/22/7 16/20/7 23/28/7
f 17/22/7 23/28/7 22/27/7
vn -0.7734000086784363 -0.13770000636577606 0.6187999844551086
f 15/19/8 13/15/8 23/28/8
f 15/19/8 23/28/8 16/20/8
vn -0.7901999950408936 -0.2802000045776367 -0.5450000166893005
f 13/15/9 15/19/9 19/24/9
f 13/15/9 19/24/9 14/16/9
vn -0.0 -0.19789999723434448 -0.9801999926567078
f 19/24/10 18/23/10 24/30/10
f 19/24/10 24/30/10 14/16/10
vn 0.7734000086784363 -0.13770000636577606 0.6187999844551086
f 17/22/11 22/27/11 21/26/11
f 17/22/11 21/26/11 20/25/11
vn 0.7901999950408936 -0.2802000045776367 -0.5450000166893005
f 20/25/12 21/26/12 24/30/12
f 20/25/12 24/30/12 18/23/12
o stadium_wall.COLLIDER_Cube.003##0#0#0#-1.0
g stadium_wall.COLLIDER_Cube.003##0#0#0#-1.0
v 2.3138370513916016 0.1359580010175705 -0.18461599946022034
vn 1.0 0.0 0.0
v 2.3138370513916016 0.1359580010175705 2.8859870433807373
v 2.3138370513916016 -0.14357000589370728 2.8859870433807373
f 25/31/13 26/2/13 27/3/13
v 2.3138370513916016 -0.14357000589370728 -0.18461599946022034
f 25/31/13 27/3/13 28/21/13
vn -0.0 -1.0 0.0
v -2.3138370513916016 -0.14357000589370728 2.8859870433807373
f 28/21/14 27/3/14 29/6/14
v -2.3138370513916016 -0.14357000589370728 -0.18461599946022034
f 28/21/14 29/6/14 30/10/14
vn -1.0 0.0 0.0
v -2.3138370513916016 0.1359580010175705 2.8859870433807373
f 30/10/15 29/6/15 31/7/15
v -2.3138370513916016 0.1359580010175705 -0.18461599946022034
f 30/10/15 31/7/15 32/11/15
vn -0.0 1.0 0.0
f 32/11/16 31/7/16 26/17/16
f 32/11/16 26/17/16 25/29/16
vn -0.0 0.0 -1.0
f 28/9/17 30/10/17 32/11/17
f 28/9/17 32/11/17 25/12/17
vn -0.0 0.0 1.0
f 29/6/18 27/13/18 26/14/18
f 29/6/18 26/14/18 31/7/18
