# OBJ file
o __dotobj_group__##0#1#0#-1.0
g __dotobj_group__##0#1#0#-1.0
o Cube.001_Cube.008##0#1#0#-1.0
g Cube.001_Cube.008##0#1#0#-1.0
v 0.09435100108385086 0.0 0.9733089804649353
vt 0.4950000047683716 0.880000002682209
vn 1.0 0.0 0.0
v 0.09435100108385086 0.0 1.0547529458999634
vt 0.5049999952316284 0.880000002682209
v 0.09435100108385086 -1.0 1.0547529458999634
f 1/1/1 2/2/1 3/2/1
v 0.09435100108385086 -1.0 0.9733089804649353
f 1/1/1 3/2/1 4/1/1
v -0.4717560112476349 0.0 1.299085021018982
vt 0.5350000262260437 0.8499999940395355
vn -0.0 0.0 1.0
v -0.6604589819908142 0.0 1.299085021018982
vt 0.5350000262260437 0.8400000035762787
v -0.6604589819908142 -1.0 1.299085021018982
f 5/3/2 6/4/2 7/4/2
v -0.4717560112476349 -1.0 1.299085021018982
f 5/3/2 7/4/2 8/3/2
v -0.09435100108385086 0.0 1.0547529458999634
vt 0.5049999952316284 0.8700000047683716
v -0.09435100108385086 0.0 1.1361969709396362
vt 0.5149999856948853 0.8700000047683716
v -0.09435100108385086 -1.0 1.1361969709396362
f 9/5/1 10/6/1 11/6/1
v -0.09435100108385086 -1.0 1.0547529458999634
f 9/5/1 11/6/1 12/5/1
v 0.283053994178772 0.0 0.8918650150299072
vt 0.48500001430511475 0.8900000005960464
v 0.283053994178772 0.0 0.9733089804649353
vt 0.4950000047683716 0.8900000005960464
v 0.283053994178772 -1.0 0.9733089804649353
f 13/7/1 14/8/1 15/8/1
v 0.283053994178772 -1.0 0.8918650150299072
f 13/7/1 15/8/1 16/7/1
v 1.7926729917526245 0.0 0.24031400680541992
vt 0.4050000011920929 0.9700000006705523
v 1.7926729917526245 0.0 0.3217580020427704
vt 0.41499999165534973 0.9700000006705523
v 1.7926729917526245 -1.0 0.3217580020427704
f 17/9/1 18/10/1 19/10/1
v 1.7926729917526245 -1.0 0.24031400680541992
f 17/9/1 19/10/1 20/9/1
v 1.6039700508117676 0.0 0.3217580020427704
vt 0.41499999165534973 0.9600000008940697
v 1.6039700508117676 -1.0 0.3217580020427704
f 18/10/2 21/11/2 22/11/2
f 18/10/2 22/11/2 19/10/2
v -0.283053994178772 0.0 1.1361969709396362
vt 0.5149999856948853 0.8599999994039536
v -0.283053994178772 0.0 1.217640995979309
vt 0.5249999761581421 0.8599999994039536
v -0.283053994178772 -1.0 1.217640995979309
f 23/12/1 24/13/1 25/13/1
v -0.283053994178772 -1.0 1.1361969709396362
f 23/12/1 25/13/1 26/12/1
v -1.7926729917526245 0.0 1.8691920042037964
vt 0.6050000190734863 0.7800000011920929
v -1.981374979019165 0.0 1.8691920042037964
vt 0.6050000190734863 0.7699999958276749
v -1.981374979019165 -1.0 1.8691920042037964
f 27/14/2 28/15/2 29/15/2
v -1.7926729917526245 -1.0 1.8691920042037964
f 27/14/2 29/15/2 30/14/2
v 0.4717560112476349 0.0 0.8104209899902344
vt 0.4749999940395355 0.8999999985098839
v 0.4717560112476349 0.0 0.8918650150299072
vt 0.48500001430511475 0.8999999985098839
v 0.4717560112476349 -1.0 0.8918650150299072
f 31/16/1 32/17/1 33/17/1
v 0.4717560112476349 -1.0 0.8104209899902344
f 31/16/1 33/17/1 34/16/1
v 1.4152679443359375 0.0 0.4846459925174713
vt 0.4350000023841858 0.9499999992549419
v 1.2265650033950806 0.0 0.4846459925174713
vt 0.4350000023841858 0.9400000013411045
v 1.2265650033950806 -1.0 0.4846459925174713
f 35/18/2 36/19/2 37/19/2
v 1.4152679443359375 -1.0 0.4846459925174713
f 35/18/2 37/19/2 38/18/2
v -2.1700780391693115 0.0 2.0320799350738525
vt 0.625 0.760000005364418
v -2.3587799072265625 0.0 2.0320799350738525
vt 0.625 0.75
v -2.3587799072265625 -1.0 2.0320799350738525
f 39/20/2 40/21/2 41/21/2
v -2.1700780391693115 -1.0 2.0320799350738525
f 39/20/2 41/21/2 42/20/2
v 0.8491610288619995 0.0 0.7289779782295227
vt 0.4650000035762787 0.9200000017881393
v 0.6604580283164978 0.0 0.7289779782295227
vt 0.4650000035762787 0.9099999964237213
v 0.6604580283164978 -1.0 0.7289779782295227
f 43/22/2 44/23/2 45/23/2
v 0.8491610288619995 -1.0 0.7289779782295227
f 43/22/2 45/23/2 46/22/2
v -1.226565957069397 0.0 1.6248610019683838
vt 0.574999988079071 0.8100000023841858
v -1.4152679443359375 0.0 1.6248610019683838
vt 0.574999988079071 0.7999999970197678
v -1.4152679443359375 -1.0 1.6248610019683838
f 47/24/2 48/25/2 49/25/2
v -1.226565957069397 -1.0 1.6248610019683838
f 47/24/2 49/25/2 50/24/2
v -0.4717560112476349 0.0 1.217640995979309
vt 0.5249999761581421 0.8499999940395355
v -0.4717560112476349 -1.0 1.217640995979309
f 24/13/2 51/26/2 52/26/2
f 24/13/2 52/26/2 25/13/2
v -0.8491610288619995 0.0 1.461972951889038
vt 0.5550000071525574 0.8299999982118607
v -1.03786301612854 0.0 1.461972951889038
vt 0.5550000071525574 0.8199999928474426
v -1.03786301612854 -1.0 1.461972951889038
f 53/27/2 54/28/2 55/28/2
v -0.8491610288619995 -1.0 1.461972951889038
f 53/27/2 55/28/2 56/27/2
v -1.981374979019165 0.0 1.9506360292434692
vt 0.6150000095367432 0.7699999958276749
v -2.1700780391693115 0.0 1.9506360292434692
vt 0.6150000095367432 0.760000005364418
v -2.1700780391693115 -1.0 1.9506360292434692
f 57/29/2 58/30/2 59/30/2
v -1.981374979019165 -1.0 1.9506360292434692
f 57/29/2 59/30/2 60/29/2
v -1.03786301612854 0.0 1.543416976928711
vt 0.5649999976158142 0.8199999928474426
v -1.03786301612854 -1.0 1.543416976928711
f 54/28/1 61/31/1 62/31/1
f 54/28/1 62/31/1 55/28/1
f 51/26/1 5/3/1 8/3/1
f 51/26/1 8/3/1 52/26/1
v 2.3587799072265625 0.0 0.0774260014295578
vt 0.38499999046325684 1.0
v 2.170077085494995 0.0 0.0774260014295578
vt 0.38499999046325684 0.9900000002235174
v 2.170077085494995 -1.0 0.0774260014295578
f 63/32/2 64/33/2 65/33/2
v 2.3587799072265625 -1.0 0.0774260014295578
f 63/32/2 65/33/2 66/32/2
v -1.4152679443359375 0.0 1.7063050270080566
vt 0.5849999785423279 0.7999999970197678
v -1.4152679443359375 -1.0 1.7063050270080566
f 48/25/1 67/34/1 68/34/1
f 48/25/1 68/34/1 49/25/1
v 0.6604580283164978 0.0 0.8104209899902344
vt 0.4749999940395355 0.9099999964237213
v 0.6604580283164978 -1.0 0.8104209899902344
f 44/23/1 69/35/1 70/35/1
f 44/23/1 70/35/1 45/23/1
v 1.2265650033950806 0.0 0.5660899877548218
vt 0.4449999928474426 0.9400000013411045
v 1.2265650033950806 -1.0 0.5660899877548218
f 36/19/1 71/36/1 72/36/1
f 36/19/1 72/36/1 37/19/1
f 69/35/2 31/16/2 34/16/2
f 69/35/2 34/16/2 70/35/2
f 28/15/1 57/29/1 60/29/1
f 28/15/1 60/29/1 29/15/1
f 10/6/2 23/12/2 26/12/2
f 10/6/2 26/12/2 11/6/2
v 1.6039700508117676 0.0 0.40320199728012085
vt 0.42500001192092896 0.9600000008940697
v 1.6039700508117676 -1.0 0.40320199728012085
f 21/11/1 73/37/1 74/37/1
f 21/11/1 74/37/1 22/11/1
v 2.3587799072265625 0.0 -0.004017999861389399
vt 0.375 1.0
f 75/38/1 63/32/1 66/32/1
v 2.3587799072265625 -1.0 -0.004017999861389399
f 75/38/1 66/32/1 76/38/1
f 58/30/1 39/20/1 42/20/1
f 58/30/1 42/20/1 59/30/1
v 1.981374979019165 0.0 0.24031400680541992
vt 0.4050000011920929 0.9800000004470348
f 77/39/2 17/9/2 20/9/2
v 1.981374979019165 -1.0 0.24031400680541992
f 77/39/2 20/9/2 78/39/2
f 32/17/2 13/7/2 16/7/2
f 32/17/2 16/7/2 33/17/2
f 2/2/2 9/5/2 12/5/2
f 2/2/2 12/5/2 3/2/2
v -0.6604589819908142 0.0 1.3805290460586548
vt 0.5450000166893005 0.8400000035762787
v -0.6604589819908142 -1.0 1.3805290460586548
f 6/4/1 79/40/1 80/40/1
f 6/4/1 80/40/1 7/4/1
f 14/8/2 1/1/2 4/1/2
f 14/8/2 4/1/2 15/8/2
v 2.170077085494995 0.0 0.15886999666690826
vt 0.39500001072883606 0.9900000002235174
v 2.170077085494995 -1.0 0.15886999666690826
f 64/33/1 81/41/1 82/41/1
f 64/33/1 82/41/1 65/33/1
v 1.03786301612854 0.0 0.5660899877548218
vt 0.4449999928474426 0.9299999997019768
v 1.03786301612854 -1.0 0.5660899877548218
f 71/36/2 83/42/2 84/42/2
f 71/36/2 84/42/2 72/36/2
v -1.603971004486084 0.0 1.7063050270080566
vt 0.5849999785423279 0.7900000065565109
v -1.603971004486084 -1.0 1.7063050270080566
f 67/34/2 85/43/2 86/43/2
f 67/34/2 86/43/2 68/34/2
v 0.8491610288619995 0.0 0.6475340127944946
vt 0.45500001311302185 0.9200000017881393
f 87/44/1 43/22/1 46/22/1
v 0.8491610288619995 -1.0 0.6475340127944946
f 87/44/1 46/22/1 88/44/1
v -1.7926729917526245 0.0 1.7877479791641235
vt 0.5950000286102295 0.7800000011920929
f 89/45/1 27/14/1 30/14/1
v -1.7926729917526245 -1.0 1.7877479791641235
f 89/45/1 30/14/1 90/45/1
v -0.8491610288619995 0.0 1.3805290460586548
vt 0.5450000166893005 0.8299999982118607
v -0.8491610288619995 -1.0 1.3805290460586548
f 79/40/2 91/46/2 92/46/2
f 79/40/2 92/46/2 80/40/2
v 1.4152679443359375 0.0 0.40320199728012085
vt 0.42500001192092896 0.9499999992549419
v 1.4152679443359375 -1.0 0.40320199728012085
f 73/37/2 93/47/2 94/47/2
f 73/37/2 94/47/2 74/37/2
v 1.981374979019165 0.0 0.15886999666690826
vt 0.39500001072883606 0.9800000004470348
v 1.981374979019165 -1.0 0.15886999666690826
f 81/41/2 95/48/2 96/48/2
f 81/41/2 96/48/2 82/41/2
v -1.226565957069397 0.0 1.543416976928711
vt 0.5649999976158142 0.8100000023841858
f 97/49/1 47/24/1 50/24/1
v -1.226565957069397 -1.0 1.543416976928711
f 97/49/1 50/24/1 98/49/1
f 61/31/2 97/49/2 98/49/2
f 61/31/2 98/49/2 62/31/2
f 95/48/1 77/39/1 78/39/1
f 95/48/1 78/39/1 96/48/1
f 93/47/1 35/18/1 38/18/1
f 93/47/1 38/18/1 94/47/1
f 91/46/1 53/27/1 56/27/1
f 91/46/1 56/27/1 92/46/1
v -1.603971004486084 0.0 1.7877479791641235
vt 0.5950000286102295 0.7900000065565109
f 99/50/2 89/45/2 90/45/2
v -1.603971004486084 -1.0 1.7877479791641235
f 99/50/2 90/45/2 100/50/2
v 1.03786301612854 0.0 0.6475340127944946
vt 0.45500001311302185 0.9299999997019768
f 101/51/2 87/44/2 88/44/2
v 1.03786301612854 -1.0 0.6475340127944946
f 101/51/2 88/44/2 102/51/2
f 85/43/1 99/50/1 100/50/1
f 85/43/1 100/50/1 86/43/1
f 83/42/1 101/51/1 102/51/1
f 83/42/1 102/51/1 84/42/1
v -0.09435100108385086 1.0 1.0547529458999634
vn -0.0 1.0 0.0
v 0.09435100108385086 1.0 1.0547529458999634
v 0.09435100108385086 1.0 -0.9681329727172852
f 103/5/3 104/2/3 105/2/3
v -0.09435100108385086 1.0 -0.9681329727172852
f 103/5/3 105/2/3 106/5/3
vn -0.0 -1.0 0.0
v -0.6604589819908142 -1.0 -0.7238010168075562
f 8/3/4 7/4/4 107/4/4
v -0.4717560112476349 -1.0 -0.7238010168075562
f 8/3/4 107/4/4 108/3/4
v -0.283053994178772 1.0 1.1361969709396362
v -0.09435100108385086 1.0 1.1361969709396362
v -0.09435100108385086 1.0 -0.8866890072822571
f 109/12/3 110/6/3 111/6/3
v -0.283053994178772 1.0 -0.8866890072822571
f 109/12/3 111/6/3 112/12/3
v -0.8491610288619995 -1.0 -0.6423569917678833
f 80/40/4 92/46/4 113/46/4
v -0.6604589819908142 -1.0 -0.6423569917678833
f 80/40/4 113/46/4 114/40/4
v -0.4717560112476349 1.0 1.217640995979309
v -0.283053994178772 1.0 1.217640995979309
v -0.283053994178772 1.0 -0.8052449822425842
f 115/26/3 116/13/3 117/13/3
v -0.4717560112476349 1.0 -0.8052449822425842
f 115/26/3 117/13/3 118/26/3
v -1.03786301612854 -1.0 -0.5609130263328552
f 56/27/4 55/28/4 119/28/4
v -0.8491610288619995 -1.0 -0.5609130263328552
f 56/27/4 119/28/4 120/27/4
v -0.6604589819908142 1.0 1.299085021018982
v -0.4717560112476349 1.0 1.299085021018982
v -0.4717560112476349 1.0 -0.7238010168075562
f 121/4/3 122/3/3 123/3/3
v -0.6604589819908142 1.0 -0.7238010168075562
f 121/4/3 123/3/3 124/4/3
v -1.226565957069397 -1.0 -0.4794690012931824
f 62/31/4 98/49/4 125/49/4
v -1.03786301612854 -1.0 -0.4794690012931824
f 62/31/4 125/49/4 126/31/4
v -0.8491610288619995 1.0 1.3805290460586548
v -0.6604589819908142 1.0 1.3805290460586548
v -0.6604589819908142 1.0 -0.6423569917678833
f 127/46/3 128/40/3 129/40/3
v -0.8491610288619995 1.0 -0.6423569917678833
f 127/46/3 129/40/3 130/46/3
v -1.4152679443359375 -1.0 -0.3980250060558319
f 50/24/4 49/25/4 131/25/4
v -1.226565957069397 -1.0 -0.3980250060558319
f 50/24/4 131/25/4 132/24/4
v -1.03786301612854 1.0 1.461972951889038
v -0.8491610288619995 1.0 1.461972951889038
v -0.8491610288619995 1.0 -0.5609130263328552
f 133/28/3 134/27/3 135/27/3
v -1.03786301612854 1.0 -0.5609130263328552
f 133/28/3 135/27/3 136/28/3
v -1.603971004486084 -1.0 -0.31658199429512024
f 68/34/4 86/43/4 137/43/4
v -1.4152679443359375 -1.0 -0.31658199429512024
f 68/34/4 137/43/4 138/34/4
v -1.226565957069397 1.0 1.543416976928711
v -1.03786301612854 1.0 1.543416976928711
v -1.03786301612854 1.0 -0.4794690012931824
f 139/49/3 140/31/3 141/31/3
v -1.226565957069397 1.0 -0.4794690012931824
f 139/49/3 141/31/3 142/49/3
v -1.7926729917526245 -1.0 -0.23513799905776978
f 100/50/4 90/45/4 143/45/4
v -1.603971004486084 -1.0 -0.23513799905776978
f 100/50/4 143/45/4 144/50/4
v -1.4152679443359375 1.0 1.6248610019683838
v -1.226565957069397 1.0 1.6248610019683838
v -1.226565957069397 1.0 -0.3980250060558319
f 145/25/3 146/24/3 147/24/3
v -1.4152679443359375 1.0 -0.3980250060558319
f 145/25/3 147/24/3 148/25/3
v -1.981374979019165 -1.0 -0.1536940038204193
f 30/14/4 29/15/4 149/15/4
v -1.7926729917526245 -1.0 -0.1536940038204193
f 30/14/4 149/15/4 150/14/4
v -1.603971004486084 1.0 1.7063050270080566
v -1.4152679443359375 1.0 1.7063050270080566
v -1.4152679443359375 1.0 -0.31658199429512024
f 151/43/3 152/34/3 153/34/3
v -1.603971004486084 1.0 -0.31658199429512024
f 151/43/3 153/34/3 154/43/3
v -2.1700780391693115 -1.0 -0.07225000113248825
f 60/29/4 59/30/4 155/30/4
v -1.981374979019165 -1.0 -0.07225000113248825
f 60/29/4 155/30/4 156/29/4
v -1.7926729917526245 1.0 1.7877479791641235
v -1.603971004486084 1.0 1.7877479791641235
v -1.603971004486084 1.0 -0.23513799905776978
f 157/45/3 158/50/3 159/50/3
v -1.7926729917526245 1.0 -0.23513799905776978
f 157/45/3 159/50/3 160/45/3
v -1.981374979019165 1.0 1.8691920042037964
v -1.7926729917526245 1.0 1.8691920042037964
v -1.7926729917526245 1.0 -0.1536940038204193
f 161/15/3 162/14/3 163/14/3
v -1.981374979019165 1.0 -0.1536940038204193
f 161/15/3 163/14/3 164/15/3
v 2.170077085494995 -1.0 -1.9454599618911743
f 66/32/4 65/33/4 165/33/4
v 2.3587799072265625 -1.0 -1.9454599618911743
f 66/32/4 165/33/4 166/32/4
v -2.1700780391693115 1.0 1.9506360292434692
v -1.981374979019165 1.0 1.9506360292434692
v -1.981374979019165 1.0 -0.07225000113248825
f 167/30/3 168/29/3 169/29/3
v -2.1700780391693115 1.0 -0.07225000113248825
f 167/30/3 169/29/3 170/30/3
v -2.3587799072265625 -1.0 0.00919399969279766
f 42/20/4 41/21/4 171/21/4
v -2.1700780391693115 -1.0 0.00919399969279766
f 42/20/4 171/21/4 172/20/4
v 1.981374979019165 -1.0 -1.864016056060791
f 82/41/4 96/48/4 173/48/4
v 2.170077085494995 -1.0 -1.864016056060791
f 82/41/4 173/48/4 174/41/4
v 2.170077085494995 1.0 0.0774260014295578
v 2.3587799072265625 1.0 0.0774260014295578
v 2.3587799072265625 1.0 -1.9454599618911743
f 175/33/3 176/32/3 177/32/3
v 2.170077085494995 1.0 -1.9454599618911743
f 175/33/3 177/32/3 178/33/3
v 1.7926729917526245 -1.0 -1.7825720310211182
f 78/39/4 20/9/4 179/9/4
v 1.981374979019165 -1.0 -1.7825720310211182
f 78/39/4 179/9/4 180/39/4
v -2.3587799072265625 1.0 2.0320799350738525
v -2.1700780391693115 1.0 2.0320799350738525
v -2.1700780391693115 1.0 0.00919399969279766
f 181/21/3 182/20/3 183/20/3
v -2.3587799072265625 1.0 0.00919399969279766
f 181/21/3 183/20/3 184/21/3
v 1.6039700508117676 -1.0 -1.7011280059814453
f 19/10/4 22/11/4 185/11/4
v 1.7926729917526245 -1.0 -1.7011280059814453
f 19/10/4 185/11/4 186/10/4
v 1.981374979019165 1.0 0.15886999666690826
v 2.170077085494995 1.0 0.15886999666690826
v 2.170077085494995 1.0 -1.864016056060791
f 187/48/3 188/41/3 189/41/3
v 1.981374979019165 1.0 -1.864016056060791
f 187/48/3 189/41/3 190/48/3
v 1.4152679443359375 -1.0 -1.6196839809417725
f 74/37/4 94/47/4 191/47/4
v 1.6039700508117676 -1.0 -1.6196839809417725
f 74/37/4 191/47/4 192/37/4
v 1.7926729917526245 1.0 0.24031400680541992
v 1.981374979019165 1.0 0.24031400680541992
v 1.981374979019165 1.0 -1.7825720310211182
f 193/9/3 194/39/3 195/39/3
v 1.7926729917526245 1.0 -1.7825720310211182
f 193/9/3 195/39/3 196/9/3
v 1.2265650033950806 -1.0 -1.5382399559020996
f 38/18/4 37/19/4 197/19/4
v 1.4152679443359375 -1.0 -1.5382399559020996
f 38/18/4 197/19/4 198/18/4
v 1.6039700508117676 1.0 0.3217580020427704
v 1.7926729917526245 1.0 0.3217580020427704
v 1.7926729917526245 1.0 -1.7011280059814453
f 199/11/3 200/10/3 201/10/3
v 1.6039700508117676 1.0 -1.7011280059814453
f 199/11/3 201/10/3 202/11/3
v 1.03786301612854 -1.0 -1.4567960500717163
f 72/36/4 84/42/4 203/42/4
v 1.2265650033950806 -1.0 -1.4567960500717163
f 72/36/4 203/42/4 204/36/4
v 1.4152679443359375 1.0 0.40320199728012085
v 1.6039700508117676 1.0 0.40320199728012085
v 1.6039700508117676 1.0 -1.6196839809417725
f 205/47/3 206/37/3 207/37/3
v 1.4152679443359375 1.0 -1.6196839809417725
f 205/47/3 207/37/3 208/47/3
v 0.8491610288619995 -1.0 -1.3753520250320435
f 102/51/4 88/44/4 209/44/4
v 1.03786301612854 -1.0 -1.3753520250320435
f 102/51/4 209/44/4 210/51/4
v 1.2265650033950806 1.0 0.4846459925174713
v 1.4152679443359375 1.0 0.4846459925174713
v 1.4152679443359375 1.0 -1.5382399559020996
f 211/19/3 212/18/3 213/18/3
v 1.2265650033950806 1.0 -1.5382399559020996
f 211/19/3 213/18/3 214/19/3
v 0.6604580283164978 -1.0 -1.2939079999923706
f 46/22/4 45/23/4 215/23/4
v 0.8491610288619995 -1.0 -1.2939079999923706
f 46/22/4 215/23/4 216/22/4
v 1.03786301612854 1.0 0.5660899877548218
v 1.2265650033950806 1.0 0.5660899877548218
v 1.2265650033950806 1.0 -1.4567960500717163
f 217/42/3 218/36/3 219/36/3
v 1.03786301612854 1.0 -1.4567960500717163
f 217/42/3 219/36/3 220/42/3
v 0.4717560112476349 -1.0 -1.2124650478363037
f 70/35/4 34/16/4 221/16/4
v 0.6604580283164978 -1.0 -1.2124650478363037
f 70/35/4 221/16/4 222/35/4
v 0.8491610288619995 1.0 0.6475340127944946
v 1.03786301612854 1.0 0.6475340127944946
v 1.03786301612854 1.0 -1.3753520250320435
f 223/44/3 224/51/3 225/51/3
v 0.8491610288619995 1.0 -1.3753520250320435
f 223/44/3 225/51/3 226/44/3
v 0.283053994178772 -1.0 -1.1310210227966309
f 33/17/4 16/7/4 227/7/4
v 0.4717560112476349 -1.0 -1.1310210227966309
f 33/17/4 227/7/4 228/17/4
v 0.6604580283164978 1.0 0.7289779782295227
v 0.8491610288619995 1.0 0.7289779782295227
v 0.8491610288619995 1.0 -1.2939079999923706
f 229/23/3 230/22/3 231/22/3
v 0.6604580283164978 1.0 -1.2939079999923706
f 229/23/3 231/22/3 232/23/3
v 0.09435100108385086 -1.0 -1.049576997756958
f 15/8/4 4/1/4 233/1/4
v 0.283053994178772 -1.0 -1.049576997756958
f 15/8/4 233/1/4 234/8/4
v 0.4717560112476349 1.0 0.8104209899902344
v 0.6604580283164978 1.0 0.8104209899902344
v 0.6604580283164978 1.0 -1.2124650478363037
f 235/16/3 236/35/3 237/35/3
v 0.4717560112476349 1.0 -1.2124650478363037
f 235/16/3 237/35/3 238/16/3
v -0.09435100108385086 -1.0 -0.9681329727172852
f 3/2/4 12/5/4 239/5/4
v 0.09435100108385086 -1.0 -0.9681329727172852
f 3/2/4 239/5/4 240/2/4
v 0.283053994178772 1.0 0.8918650150299072
v 0.4717560112476349 1.0 0.8918650150299072
v 0.4717560112476349 1.0 -1.1310210227966309
f 241/7/3 242/17/3 243/17/3
v 0.283053994178772 1.0 -1.1310210227966309
f 241/7/3 243/17/3 244/7/3
v -0.283053994178772 -1.0 -0.8866890072822571
f 11/6/4 26/12/4 245/12/4
v -0.09435100108385086 -1.0 -0.8866890072822571
f 11/6/4 245/12/4 246/6/4
v 0.09435100108385086 1.0 0.9733089804649353
v 0.283053994178772 1.0 0.9733089804649353
v 0.283053994178772 1.0 -1.049576997756958
f 247/1/3 248/8/3 249/8/3
v 0.09435100108385086 1.0 -1.049576997756958
f 247/1/3 249/8/3 250/1/3
v -0.4717560112476349 -1.0 -0.8052449822425842
f 25/13/4 52/26/4 251/26/4
v -0.283053994178772 -1.0 -0.8052449822425842
f 25/13/4 251/26/4 252/13/4
f 217/42/1 224/51/1 101/51/1
f 217/42/1 101/51/1 83/42/1
f 151/43/1 158/50/1 99/50/1
f 151/43/1 99/50/1 85/43/1
f 224/51/2 223/44/2 87/44/2
f 224/51/2 87/44/2 101/51/2
f 158/50/2 157/45/2 89/45/2
f 158/50/2 89/45/2 99/50/2
f 127/46/1 134/27/1 53/27/1
f 127/46/1 53/27/1 91/46/1
f 205/47/1 212/18/1 35/18/1
f 205/47/1 35/18/1 93/47/1
f 187/48/1 194/39/1 77/39/1
f 187/48/1 77/39/1 95/48/1
f 140/31/2 139/49/2 97/49/2
f 140/31/2 97/49/2 61/31/2
f 139/49/1 146/24/1 47/24/1
f 139/49/1 47/24/1 97/49/1
f 188/41/2 187/48/2 95/48/2
f 188/41/2 95/48/2 81/41/2
f 206/37/2 205/47/2 93/47/2
f 206/37/2 93/47/2 73/37/2
f 128/40/2 127/46/2 91/46/2
f 128/40/2 91/46/2 79/40/2
f 157/45/1 162/14/1 27/14/1
f 157/45/1 27/14/1 89/45/1
f 223/44/1 230/22/1 43/22/1
f 223/44/1 43/22/1 87/44/1
f 152/34/2 151/43/2 85/43/2
f 152/34/2 85/43/2 67/34/2
f 218/36/2 217/42/2 83/42/2
f 218/36/2 83/42/2 71/36/2
f 175/33/1 188/41/1 81/41/1
f 175/33/1 81/41/1 64/33/1
f 248/8/2 247/1/2 1/1/2
f 248/8/2 1/1/2 14/8/2
f 121/4/1 128/40/1 79/40/1
f 121/4/1 79/40/1 6/4/1
f 104/2/2 103/5/2 9/5/2
f 104/2/2 9/5/2 2/2/2
f 242/17/2 241/7/2 13/7/2
f 242/17/2 13/7/2 32/17/2
f 194/39/2 193/9/2 17/9/2
f 194/39/2 17/9/2 77/39/2
f 167/30/1 182/20/1 39/20/1
f 167/30/1 39/20/1 58/30/1
v 2.3587799072265625 1.0 -0.004017999861389399
f 253/38/1 176/32/1 63/32/1
f 253/38/1 63/32/1 75/38/1
f 199/11/1 206/37/1 73/37/1
f 199/11/1 73/37/1 21/11/1
f 110/6/2 109/12/2 23/12/2
f 110/6/2 23/12/2 10/6/2
f 161/15/1 168/29/1 57/29/1
f 161/15/1 57/29/1 28/15/1
f 236/35/2 235/16/2 31/16/2
f 236/35/2 31/16/2 69/35/2
f 211/19/1 218/36/1 71/36/1
f 211/19/1 71/36/1 36/19/1
f 229/23/1 236/35/1 69/35/1
f 229/23/1 69/35/1 44/23/1
f 145/25/1 152/34/1 67/34/1
f 145/25/1 67/34/1 48/25/1
f 176/32/2 175/33/2 64/33/2
f 176/32/2 64/33/2 63/32/2
f 115/26/1 122/3/1 5/3/1
f 115/26/1 5/3/1 51/26/1
f 133/28/1 140/31/1 61/31/1
f 133/28/1 61/31/1 54/28/1
f 168/29/2 167/30/2 58/30/2
f 168/29/2 58/30/2 57/29/2
f 134/27/2 133/28/2 54/28/2
f 134/27/2 54/28/2 53/27/2
f 116/13/2 115/26/2 51/26/2
f 116/13/2 51/26/2 24/13/2
f 146/24/2 145/25/2 48/25/2
f 146/24/2 48/25/2 47/24/2
f 230/22/2 229/23/2 44/23/2
f 230/22/2 44/23/2 43/22/2
f 182/20/2 181/21/2 40/21/2
f 182/20/2 40/21/2 39/20/2
f 212/18/2 211/19/2 36/19/2
f 212/18/2 36/19/2 35/18/2
f 235/16/1 242/17/1 32/17/1
f 235/16/1 32/17/1 31/16/1
f 162/14/2 161/15/2 28/15/2
f 162/14/2 28/15/2 27/14/2
f 109/12/1 116/13/1 24/13/1
f 109/12/1 24/13/1 23/12/1
f 200/10/2 199/11/2 21/11/2
f 200/10/2 21/11/2 18/10/2
f 193/9/1 200/10/1 18/10/1
f 193/9/1 18/10/1 17/9/1
f 241/7/1 248/8/1 14/8/1
f 241/7/1 14/8/1 13/7/1
f 103/5/1 110/6/1 10/6/1
f 103/5/1 10/6/1 9/5/1
f 122/3/2 121/4/2 6/4/2
f 122/3/2 6/4/2 5/3/2
f 247/1/1 104/2/1 2/2/1
f 247/1/1 2/2/1 1/1/1
o stairs.COLLIDER.001_Cube.009##0#0#0#-1.0
g stairs.COLLIDER.001_Cube.009##0#0#0#-1.0
v -2.204775094985962 1.0 2.032291889190674
v 2.516010046005249 1.0 -0.03145600110292435
vt 0.125 0.75
v -2.204775094985962 1.0 -0.03145600110292435
vt 0.375 0.75
f 254/21/3 255/52/3 256/53/3
v -2.3550820350646973 1.0 -0.03145600110292435
f 254/21/3 256/53/3 257/53/3
v -2.3550820350646973 1.0 2.032291889190674
f 254/21/3 257/53/3 258/21/3
v -2.204775094985962 -1.0 -0.03145600110292435
vt 0.375 0.5
v 2.516010046005249 -1.0 -0.03145600110292435
vt 0.125 0.5
v -2.204775094985962 -1.0 2.032291889190674
vt 0.625 0.5
f 259/54/4 260/55/4 261/56/4
vn -0.0 0.0 -1.0
f 260/55/5 259/54/5 256/53/5
f 260/55/5 256/53/5 255/52/5
vn 0.40059998631477356 0.0 0.9162999987602234
f 255/52/6 254/21/6 261/56/6
f 255/52/6 261/56/6 260/55/6
v -2.3550820350646973 -1.0 -0.03145600110292435
vn -1.0 0.0 0.0
v -2.3550820350646973 -1.0 2.032291889190674
f 262/54/7 263/56/7 258/21/7
f 262/54/7 258/21/7 257/53/7
f 256/53/5 259/54/5 262/54/5
f 256/53/5 262/54/5 257/53/5
f 261/56/2 254/21/2 258/21/2
f 261/56/2 258/21/2 263/56/2
f 259/54/4 261/56/4 263/56/4
f 259/54/4 263/56/4 262/54/4
