# OBJ file
o __dotobj_group__##0#1#0#-1.0
g __dotobj_group__##0#1#0#-1.0
o tarp_1##0#1#0#-1.0
g tarp_1##0#1#0#-1.0
v 0.5 0.47801798582077026 0.028798000887036324
vt 0.25 0.2609909772872925
vn -0.005499999970197678 0.20250000059604645 0.9793000221252441
v -0.0 0.47801798582077026 0.014999999664723873
vt 0.5 0.2609909772872925
vn 0.0 0.14429999887943268 0.9894999861717224
v -0.0 0.0 0.014999999664723873
vt 0.5 0.5
vn 0.0 -0.0 1.0
f 1/1/1 2/2/2 3/3/3
v 0.5 0.0 0.014999999664723873
vt 0.25 0.5
vn -0.0031999999191612005 -0.0 1.0
f 1/1/1 3/3/3 4/4/4
v 1.0 0.47801798582077026 0.028798000887036324
vt 0.0 0.2609909772872925
vn 0.0 0.2468000054359436 0.9690999984741211
v 1.0 0.29805898666381836 0.017645999789237976
vt 0.0 0.350970983505249
vn 0.0044999998062849045 -0.03700000047683716 0.9993000030517578
f 5/5/5 1/1/1 6/6/6
v 0.9972370266914368 0.9965280294418335 0.030697999522089958
vt 0.0 0.0
vn -0.11869999766349792 -0.17229999601840973 0.9779000282287598
v 0.8769490122795105 0.9902740120887756 0.014999999664723873
vt 0.06152600049972534 0.0
vn 0.0015999999595806003 -0.021900000050663948 0.9998000264167786
v 1.0 0.9055179953575134 0.014999999664723873
vt 0.0 0.0472409725189209
vn -0.014399999752640724 -0.0421999990940094 0.9990000128746033
f 7/7/7 8/8/8 9/9/9
v 0.45679301023483276 0.8909689784049988 0.014999999664723873
vt 0.271602988243103 0.03711998462677002
vn -0.025100000202655792 -0.03920000046491623 0.9988999962806702
v -0.0 0.8789129853248596 0.014999999664723873
vt 0.5 0.03711998462677002
vn 0.0 -0.01979999989271164 0.9998000264167786
v -0.0 0.5 0.014999999664723873
vt 0.5 0.25
vn 0.0 0.15150000154972076 0.9884999990463257
f 10/10/10 11/11/11 12/12/12
v 0.5 0.5 0.014999999664723873
vt 0.25 0.25
vn -0.00430000014603138 0.2126999944448471 0.9771000146865845
f 10/10/10 12/12/12 13/13/13
v 0.8843969702720642 0.9372090101242065 0.017232000827789307
vn 0.03999999910593033 0.14159999787807465 0.9890999794006348
f 9/9/9 8/8/8 14/8/14
v 0.9414039850234985 0.8979430198669434 0.017232000827789307
vn 0.11779999732971191 0.05570000037550926 0.9915000200271606
f 9/9/9 14/8/14 15/9/15
v 1.0 0.5 0.014999999664723873
vt 0.0 0.25
vn 0.002400000113993883 0.2736000120639801 0.9617999792098999
v 0.92433100938797 0.8229020237922668 0.017232000827789307
vn 0.09279999881982803 -0.08060000091791153 0.9923999905586243
f 13/13/13 16/14/16 17/14/17
v 0.8535490036010742 0.8049100041389465 0.017232000827789307
vt 0.15529200434684753 0.25
vn -0.03180000185966492 -0.11060000211000443 0.993399977684021
f 13/13/13 17/14/17 18/15/18
v 0.5022280216217041 0.9805369973182678 0.030143000185489655
vn -0.035599999129772186 -0.1354999989271164 0.9901000261306763
v 0.8203949928283691 0.9186239838600159 0.017232000827789307
vn -0.06199999898672104 0.05730000138282776 0.996399998664856
f 8/7/8 19/7/19 20/7/20
f 8/7/8 20/7/20 14/7/14
f 16/7/16 9/7/9 15/7/15
f 16/7/16 15/7/15 17/7/17
v 0.8128089904785156 0.8456500172615051 0.017232000827789307
vt 0.25 0.147163987159729
vn -0.11670000106096268 -0.04179999977350235 0.9922999739646912
f 13/13/13 18/15/18 21/16/21
v 0.487949013710022 0.8917919993400574 0.014999999664723873
vt 0.2560259997844696 0.03711998462677002
vn -0.026900000870227814 -0.06939999759197235 0.9972000122070312
f 22/17/22 13/13/13 21/16/21
vt 0.25 0.0
f 22/17/22 21/16/21 20/18/20
f 22/17/22 10/10/10 13/13/13
f 16/14/16 13/13/13 1/1/1
f 16/14/16 1/1/1 5/5/5
v 0.45902198553085327 0.9791979789733887 0.022745000198483467
vt 0.271602988243103 0.0
vn -0.052799999713897705 -0.08079999685287476 0.9952999949455261
f 19/18/19 23/19/23 10/10/10
f 19/18/19 10/10/10 22/17/22
f 19/18/19 22/17/22 20/18/20
v -0.0 0.9828659892082214 0.014999999664723873
vt 0.5 0.0
vn 0.0 -0.04019999876618385 0.9991999864578247
f 23/19/23 24/20/24 11/11/11
f 23/19/23 11/11/11 10/10/10
f 13/13/13 12/12/12 2/2/2
f 13/13/13 2/2/2 1/1/1
f 6/6/6 1/1/1 4/4/4
v 1.0 0.0 0.014999999664723873
vt 0.0 0.5
vn 0.007300000172108412 -0.0 1.0
f 6/6/6 4/4/4 25/21/25
v -0.5 0.47801798582077026 0.028798000887036324
vn 0.005499999970197678 0.20250000059604645 0.9793000221252441
v -0.5 0.0 0.014999999664723873
vn 0.0031999999191612005 -0.0 1.0
f 26/1/26 27/4/27 3/3/3
f 26/1/26 3/3/3 2/2/2
v -1.0 0.47801798582077026 0.028798000887036324
v -1.0 0.29805898666381836 0.017645999789237976
vn -0.0044999998062849045 -0.03700000047683716 0.9993000030517578
f 28/5/5 29/6/28 26/1/26
v -0.9972370266914368 0.9965280294418335 0.030697999522089958
vn 0.11869999766349792 -0.17229999601840973 0.9779000282287598
v -1.0 0.9055179953575134 0.014999999664723873
vn 0.014399999752640724 -0.0421999990940094 0.9990000128746033
v -0.8769490122795105 0.9902740120887756 0.014999999664723873
vn -0.0015999999595806003 -0.021900000050663948 0.9998000264167786
f 30/7/29 31/9/30 32/8/31
v -0.45679301023483276 0.8909689784049988 0.014999999664723873
vn 0.025100000202655792 -0.03920000046491623 0.9988999962806702
v -0.5 0.5 0.014999999664723873
vn 0.00430000014603138 0.2126999944448471 0.9771000146865845
f 33/10/32 34/13/33 12/12/12
f 33/10/32 12/12/12 11/11/11
v -0.9414039850234985 0.8979430198669434 0.017232000827789307
vn -0.11779999732971191 0.05570000037550926 0.9915000200271606
v -0.8843969702720642 0.9372090101242065 0.017232000827789307
vn -0.03999999910593033 0.14159999787807465 0.9890999794006348
f 31/9/30 35/9/34 36/8/35
f 31/9/30 36/8/35 32/8/31
v -0.8535490036010742 0.8049100041389465 0.017232000827789307
vn 0.03180000185966492 -0.11060000211000443 0.993399977684021
v -0.92433100938797 0.8229020237922668 0.017232000827789307
vn -0.09279999881982803 -0.08060000091791153 0.9923999905586243
f 34/13/33 37/15/36 38/14/37
v -1.0 0.5 0.014999999664723873
vn -0.002400000113993883 0.2736000120639801 0.9617999792098999
f 34/13/33 38/14/37 39/14/38
v -0.8203949928283691 0.9186239838600159 0.017232000827789307
vn 0.06199999898672104 0.05730000138282776 0.996399998664856
f 32/7/31 36/7/35 40/7/39
v -0.5022280216217041 0.9805369973182678 0.030143000185489655
vn 0.035599999129772186 -0.1354999989271164 0.9901000261306763
f 32/7/31 40/7/39 41/7/40
f 39/7/38 38/7/37 35/7/34
f 39/7/38 35/7/34 31/7/30
v -0.8128089904785156 0.8456500172615051 0.017232000827789307
vn 0.11670000106096268 -0.04179999977350235 0.9922999739646912
f 34/13/33 42/16/41 37/15/36
v -0.487949013710022 0.8917919993400574 0.014999999664723873
vn 0.026900000870227814 -0.06939999759197235 0.9972000122070312
f 43/17/42 40/18/39 42/16/41
f 43/17/42 42/16/41 34/13/33
f 43/17/42 34/13/33 33/10/32
f 39/14/38 28/5/5 26/1/26
f 39/14/38 26/1/26 34/13/33
f 41/18/40 43/17/42 33/10/32
v -0.45902198553085327 0.9791979789733887 0.022745000198483467
vn 0.052799999713897705 -0.08079999685287476 0.9952999949455261
f 41/18/40 33/10/32 44/19/43
f 41/18/40 40/18/39 43/17/42
f 44/19/43 33/10/32 11/11/11
f 44/19/43 11/11/11 24/20/24
f 34/13/33 26/1/26 2/2/2
f 34/13/33 2/2/2 12/12/12
v -1.0 0.0 0.014999999664723873
vn -0.007300000172108412 -0.0 1.0
f 29/6/28 45/21/44 27/4/27
f 29/6/28 27/4/27 26/1/26
v 0.5 -0.47801798582077026 0.028798000887036324
vn -0.005499999970197678 -0.20250000059604645 0.9793000221252441
f 46/1/45 4/4/4 3/3/3
v -0.0 -0.47801798582077026 0.014999999664723873
vn 0.0 -0.14429999887943268 0.9894999861717224
f 46/1/45 3/3/3 47/2/46
v 1.0 -0.47801798582077026 0.028798000887036324
vn 0.0 -0.2468000054359436 0.9690999984741211
v 1.0 -0.29805898666381836 0.017645999789237976
vn 0.0044999998062849045 0.03700000047683716 0.9993000030517578
f 48/5/47 49/6/48 46/1/45
v 0.9972370266914368 -0.9965280294418335 0.030697999522089958
vn -0.11869999766349792 0.17229999601840973 0.9779000282287598
v 1.0 -0.9055179953575134 0.014999999664723873
vn -0.014399999752640724 0.0421999990940094 0.9990000128746033
v 0.8769490122795105 -0.9902740120887756 0.014999999664723873
vn 0.0015999999595806003 0.021900000050663948 0.9998000264167786
f 50/7/49 51/9/50 52/8/51
v 0.45679301023483276 -0.8909689784049988 0.014999999664723873
vn -0.025100000202655792 0.03920000046491623 0.9988999962806702
v 0.5 -0.5 0.014999999664723873
vn -0.00430000014603138 -0.2126999944448471 0.9771000146865845
v -0.0 -0.5 0.014999999664723873
vn 0.0 -0.15150000154972076 0.9884999990463257
f 53/10/52 54/13/53 55/12/54
v -0.0 -0.8789129853248596 0.014999999664723873
vn 0.0 0.01979999989271164 0.9998000264167786
f 53/10/52 55/12/54 56/11/55
v 0.9414039850234985 -0.8979430198669434 0.017232000827789307
vn 0.11779999732971191 -0.05570000037550926 0.9915000200271606
v 0.8843969702720642 -0.9372090101242065 0.017232000827789307
vn 0.03999999910593033 -0.14159999787807465 0.9890999794006348
f 51/9/50 57/9/56 58/8/57
f 51/9/50 58/8/57 52/8/51
v 0.8535490036010742 -0.8049100041389465 0.017232000827789307
vn -0.03180000185966492 0.11060000211000443 0.993399977684021
v 0.92433100938797 -0.8229020237922668 0.017232000827789307
vn 0.09279999881982803 0.08060000091791153 0.9923999905586243
f 54/13/53 59/15/58 60/14/59
v 1.0 -0.5 0.014999999664723873
vn 0.002400000113993883 -0.2736000120639801 0.9617999792098999
f 54/13/53 60/14/59 61/14/60
v 0.8203949928283691 -0.9186239838600159 0.017232000827789307
vn -0.06199999898672104 -0.05730000138282776 0.996399998664856
f 52/7/51 58/7/57 62/7/61
v 0.5022280216217041 -0.9805369973182678 0.030143000185489655
vn -0.035599999129772186 0.1354999989271164 0.9901000261306763
f 52/7/51 62/7/61 63/7/62
f 61/7/60 60/7/59 57/7/56
f 61/7/60 57/7/56 51/7/50
v 0.8128089904785156 -0.8456500172615051 0.017232000827789307
vn -0.11670000106096268 0.04179999977350235 0.9922999739646912
f 54/13/53 64/16/63 59/15/58
v 0.487949013710022 -0.8917919993400574 0.014999999664723873
vn -0.026900000870227814 0.06939999759197235 0.9972000122070312
f 65/17/64 62/18/61 64/16/63
f 65/17/64 64/16/63 54/13/53
f 65/17/64 54/13/53 53/10/52
f 61/14/60 48/5/47 46/1/45
f 61/14/60 46/1/45 54/13/53
f 63/18/62 65/17/64 53/10/52
v 0.45902198553085327 -0.9791979789733887 0.022745000198483467
vn -0.052799999713897705 0.08079999685287476 0.9952999949455261
f 63/18/62 53/10/52 66/19/65
f 63/18/62 62/18/61 65/17/64
f 66/19/65 53/10/52 56/11/55
v -0.0 -0.9828659892082214 0.014999999664723873
vn 0.0 0.04019999876618385 0.9991999864578247
f 66/19/65 56/11/55 67/20/66
f 54/13/53 46/1/45 47/2/46
f 54/13/53 47/2/46 55/12/54
f 49/6/48 25/21/25 4/4/4
f 49/6/48 4/4/4 46/1/45
v -0.5 -0.47801798582077026 0.028798000887036324
vn 0.005499999970197678 -0.20250000059604645 0.9793000221252441
f 68/1/67 47/2/46 3/3/3
f 68/1/67 3/3/3 27/4/27
v -1.0 -0.47801798582077026 0.028798000887036324
v -1.0 -0.29805898666381836 0.017645999789237976
vn -0.0044999998062849045 0.03700000047683716 0.9993000030517578
f 69/5/47 68/1/67 70/6/68
v -0.9972370266914368 -0.9965280294418335 0.030697999522089958
vn 0.11869999766349792 0.17229999601840973 0.9779000282287598
v -0.8769490122795105 -0.9902740120887756 0.014999999664723873
vn -0.0015999999595806003 0.021900000050663948 0.9998000264167786
v -1.0 -0.9055179953575134 0.014999999664723873
vn 0.014399999752640724 0.0421999990940094 0.9990000128746033
f 71/7/69 72/8/70 73/9/71
v -0.45679301023483276 -0.8909689784049988 0.014999999664723873
vn 0.025100000202655792 0.03920000046491623 0.9988999962806702
f 74/10/72 56/11/55 55/12/54
v -0.5 -0.5 0.014999999664723873
vn 0.00430000014603138 -0.2126999944448471 0.9771000146865845
f 74/10/72 55/12/54 75/13/73
v -0.8843969702720642 -0.9372090101242065 0.017232000827789307
vn -0.03999999910593033 -0.14159999787807465 0.9890999794006348
f 73/9/71 72/8/70 76/8/74
v -0.9414039850234985 -0.8979430198669434 0.017232000827789307
vn -0.11779999732971191 -0.05570000037550926 0.9915000200271606
f 73/9/71 76/8/74 77/9/75
v -1.0 -0.5 0.014999999664723873
vn -0.002400000113993883 -0.2736000120639801 0.9617999792098999
v -0.92433100938797 -0.8229020237922668 0.017232000827789307
vn -0.09279999881982803 0.08060000091791153 0.9923999905586243
f 75/13/73 78/14/76 79/14/77
v -0.8535490036010742 -0.8049100041389465 0.017232000827789307
vn 0.03180000185966492 0.11060000211000443 0.993399977684021
f 75/13/73 79/14/77 80/15/78
v -0.5022280216217041 -0.9805369973182678 0.030143000185489655
vn 0.035599999129772186 0.1354999989271164 0.9901000261306763
v -0.8203949928283691 -0.9186239838600159 0.017232000827789307
vn 0.06199999898672104 -0.05730000138282776 0.996399998664856
f 72/7/70 81/7/79 82/7/80
f 72/7/70 82/7/80 76/7/74
f 78/7/76 73/7/71 77/7/75
f 78/7/76 77/7/75 79/7/77
v -0.8128089904785156 -0.8456500172615051 0.017232000827789307
vn 0.11670000106096268 0.04179999977350235 0.9922999739646912
f 75/13/73 80/15/78 83/16/81
v -0.487949013710022 -0.8917919993400574 0.014999999664723873
vn 0.026900000870227814 0.06939999759197235 0.9972000122070312
f 84/17/82 75/13/73 83/16/81
f 84/17/82 83/16/81 82/18/80
f 84/17/82 74/10/72 75/13/73
f 78/14/76 75/13/73 68/1/67
f 78/14/76 68/1/67 69/5/47
v -0.45902198553085327 -0.9791979789733887 0.022745000198483467
vn 0.052799999713897705 0.08079999685287476 0.9952999949455261
f 81/18/79 85/19/83 74/10/72
f 81/18/79 74/10/72 84/17/82
f 81/18/79 84/17/82 82/18/80
f 85/19/83 67/20/66 56/11/55
f 85/19/83 56/11/55 74/10/72
f 75/13/73 55/12/54 47/2/46
f 75/13/73 47/2/46 68/1/67
f 70/6/68 68/1/67 27/4/27
f 70/6/68 27/4/27 45/21/44
o tarp_1##0#2#1#-1.0
g tarp_1##0#2#1#-1.0
v 0.8612329959869385 0.8264870047569275 0.025086000561714172
vn -0.0738999992609024 -0.31779998540878296 0.9452999830245972
f 21/16/21 18/15/18 86/15/84
v 0.8337820172309875 0.8539379835128784 0.025086000561714172
vn -0.31189998984336853 -0.1054999977350235 0.9441999793052673
f 21/16/21 86/15/84 87/16/85
v 0.9089270234107971 0.8386110067367554 0.025086000561714172
vn 0.24390000104904175 -0.23170000314712524 0.9416999816894531
f 18/15/18 17/14/17 88/14/86
f 18/15/18 88/14/86 86/15/84
v 0.8820189833641052 0.9156320095062256 0.025086000561714172
vn 0.061500001698732376 0.3353999853134155 0.9401000142097473
f 15/9/15 14/8/14 89/8/87
v 0.9204310178756714 0.8891739845275879 0.025086000561714172
vn 0.30640000104904175 0.1137000024318695 0.9451000094413757
f 15/9/15 89/8/87 90/9/88
v 0.8388940095901489 0.9031090140342712 0.025086000561714172
vn -0.23770000040531158 0.1979999989271164 0.9509000182151794
f 14/7/14 20/7/20 91/7/89
f 14/7/14 91/7/89 89/7/87
f 20/18/20 21/16/21 87/16/85
f 20/18/20 87/16/85 91/18/89
f 17/7/17 15/7/15 90/7/88
f 17/7/17 90/7/88 88/7/86
v -0.8337820172309875 0.8539379835128784 0.025086000561714172
vn 0.31189998984336853 -0.1054999977350235 0.9441999793052673
v -0.8612329959869385 0.8264870047569275 0.025086000561714172
vn 0.0738999992609024 -0.31779998540878296 0.9452999830245972
f 42/16/41 92/16/90 93/15/91
f 42/16/41 93/15/91 37/15/36
v -0.9089270234107971 0.8386110067367554 0.025086000561714172
vn -0.24390000104904175 -0.23170000314712524 0.9416999816894531
f 37/15/36 93/15/91 94/14/92
f 37/15/36 94/14/92 38/14/37
v -0.9204310178756714 0.8891739845275879 0.025086000561714172
vn -0.30640000104904175 0.1137000024318695 0.9451000094413757
v -0.8820189833641052 0.9156320095062256 0.025086000561714172
vn -0.061500001698732376 0.3353999853134155 0.9401000142097473
f 35/9/34 95/9/93 96/8/94
f 35/9/34 96/8/94 36/8/35
v -0.8388940095901489 0.9031090140342712 0.025086000561714172
vn 0.23770000040531158 0.1979999989271164 0.9509000182151794
f 36/7/35 96/7/94 97/7/95
f 36/7/35 97/7/95 40/7/39
f 40/18/39 97/18/95 92/16/90
f 40/18/39 92/16/90 42/16/41
f 38/7/37 94/7/92 95/7/93
f 38/7/37 95/7/93 35/7/34
v 0.8337820172309875 -0.8539379835128784 0.025086000561714172
vn -0.31189998984336853 0.1054999977350235 0.9441999793052673
v 0.8612329959869385 -0.8264870047569275 0.025086000561714172
vn -0.0738999992609024 0.31779998540878296 0.9452999830245972
f 64/16/63 98/16/96 99/15/97
f 64/16/63 99/15/97 59/15/58
v 0.9089270234107971 -0.8386110067367554 0.025086000561714172
vn 0.24390000104904175 0.23170000314712524 0.9416999816894531
f 59/15/58 99/15/97 100/14/98
f 59/15/58 100/14/98 60/14/59
v 0.9204310178756714 -0.8891739845275879 0.025086000561714172
vn 0.30640000104904175 -0.1137000024318695 0.9451000094413757
v 0.8820189833641052 -0.9156320095062256 0.025086000561714172
vn 0.061500001698732376 -0.3353999853134155 0.9401000142097473
f 57/9/56 101/9/99 102/8/100
f 57/9/56 102/8/100 58/8/57
v 0.8388940095901489 -0.9031090140342712 0.025086000561714172
vn -0.23770000040531158 -0.1979999989271164 0.9509000182151794
f 58/7/57 102/7/100 103/7/101
f 58/7/57 103/7/101 62/7/61
f 62/18/61 103/18/101 98/16/96
f 62/18/61 98/16/96 64/16/63
f 60/7/59 100/7/98 101/7/99
f 60/7/59 101/7/99 57/7/56
v -0.8612329959869385 -0.8264870047569275 0.025086000561714172
vn 0.0738999992609024 0.31779998540878296 0.9452999830245972
f 83/16/81 80/15/78 104/15/102
v -0.8337820172309875 -0.8539379835128784 0.025086000561714172
vn 0.31189998984336853 0.1054999977350235 0.9441999793052673
f 83/16/81 104/15/102 105/16/103
v -0.9089270234107971 -0.8386110067367554 0.025086000561714172
vn -0.24390000104904175 0.23170000314712524 0.9416999816894531
f 80/15/78 79/14/77 106/14/104
f 80/15/78 106/14/104 104/15/102
v -0.8820189833641052 -0.9156320095062256 0.025086000561714172
vn -0.061500001698732376 -0.3353999853134155 0.9401000142097473
f 77/9/75 76/8/74 107/8/105
v -0.9204310178756714 -0.8891739845275879 0.025086000561714172
vn -0.30640000104904175 -0.1137000024318695 0.9451000094413757
f 77/9/75 107/8/105 108/9/106
v -0.8388940095901489 -0.9031090140342712 0.025086000561714172
vn 0.23770000040531158 -0.1979999989271164 0.9509000182151794
f 76/7/74 82/7/80 109/7/107
f 76/7/74 109/7/107 107/7/105
f 82/18/80 83/16/81 105/16/103
f 82/18/80 105/16/103 109/18/107
f 79/7/77 77/7/75 108/7/106
f 79/7/77 108/7/106 106/7/104
