# OBJ file
o __dotobj_group__##0#1#0#-1.0
g __dotobj_group__##0#1#0#-1.0
o tarp_overhang##0#1#0#-1.0
g tarp_overhang##0#1#0#-1.0
v -1.246701955795288 -0.4009050130844116 0.014999999664723873
vt 0.0 0.25
vn -0.0003000000142492354 -0.013100000098347664 0.9998999834060669
v -0.7462180256843567 -0.4140320122241974 0.014999999664723873
vt 0.25 0.2609909772872925
vn 0.002199999988079071 -0.009200000204145908 1.0
v -1.2195489406585693 -0.015923000872135162 0.025373000651597977
vt 0.0 0.4430209994316101
vn 0.003800000064074993 -0.019099999219179153 0.9998000264167786
f 1/1/1 2/2/2 3/3/3
v -1.2785300016403198 -0.8958510160446167 0.014999999664723873
vt 0.0 0.0
vn 0.0 -0.0 1.0
v -1.158439040184021 -0.8985109925270081 0.014999999664723873
vt 0.06152600049972534 0.0
v -1.2752050161361694 -0.8052849769592285 0.014999999664723873
vt 0.0 0.0472409725189209
f 4/4/4 5/5/4 6/6/4
v -1.1620930433273315 -0.8450130224227905 0.014999999664723873
vn -0.02329999953508377 -0.1031000018119812 0.9944000244140625
f 6/6/4 5/5/4 7/5/5
v -1.2161879539489746 -0.8018239736557007 0.014999999664723873
vn -0.08340000361204147 -0.026599999517202377 0.9962000250816345
f 6/6/4 7/5/5 8/6/6
v -1.1938869953155518 -0.7282009720802307 0.014999999664723873
vn -0.06340000033378601 0.07150000333786011 0.9954000115394592
f 2/2/2 1/1/1 9/1/7
v -1.1220279932022095 -0.7152690291404724 0.014999999664723873
vt 0.15529200434684753 0.25
vn 0.03319999948143959 0.08990000188350677 0.9954000115394592
f 2/2/2 9/1/7 10/7/8
v -0.7837330102920532 -0.9149489998817444 0.014999999664723873
v -1.0969560146331787 -0.8310089707374573 0.014999999664723873
vn 0.05999999865889549 -0.05810000002384186 0.9965000152587891
f 5/4/4 11/4/4 12/4/9
f 5/4/4 12/4/9 7/4/5
f 1/4/1 6/4/4 8/4/6
f 1/4/1 8/4/6 9/4/7
v -1.0842620134353638 -0.7587779760360718 0.014999999664723873
vt 0.25 0.147163987159729
vn 0.09969999641180038 0.028200000524520874 0.9945999979972839
f 2/2/2 10/7/8 13/8/10
vt 0.25 0.0
v 0.007271000184118748 -0.9707610011100769 0.014999999664723873
vt 0.36297398805618286 0.0
vn 0.3190000057220459 0.020899999886751175 0.9474999904632568
v 0.0022460001055151224 -0.8759400248527527 0.014999999664723873
vt 0.36525800824165344 0.03711998462677002
vn 0.31049999594688416 0.009800000116229057 0.9505000114440918
f 11/9/4 14/10/11 15/11/12
f 11/9/4 15/11/12 12/9/9
v 0.009891999885439873 -0.4673140048980713 0.014999999664723873
vt 0.37691399455070496 0.2609909772872925
vn 0.399399995803833 -0.0658000037074089 0.9143999814987183
f 3/3/3 2/2/2 16/12/13
v 0.002750999992713332 0.01152500044554472 0.014999999664723873
vt 0.3912160098552704 0.5
vn 0.4117000102996826 0.0024999999441206455 0.911300003528595
f 3/3/3 16/12/13 17/13/14
v -1.2115600109100342 0.09769099950790405 0.03179299831390381
vt 0.0 0.5
vn 0.005900000222027302 0.0015999999595806003 1.0
f 3/3/3 17/13/14 18/14/15
v -1.1905570030212402 0.39497798681259155 0.014999999664723873
vt 0.0 0.350970983505249
vn 0.003700000001117587 0.011500000022351742 0.9998999834060669
f 19/15/16 18/14/15 17/13/14
v 0.008956000208854675 0.49028098583221436 0.014999999664723873
vt 0.40500199794769287 0.2609909772872925
vn 0.4779999852180481 0.07980000227689743 0.8747000098228455
f 19/15/16 17/13/14 20/16/17
v -0.6790220141410828 0.5393210053443909 0.014999999664723873
vn 0.0012000000569969416 -0.04569999873638153 0.9990000128746033
f 19/15/16 20/16/17 21/2/18
v 0.04917500168085098 -0.520156979560852 -0.7117670178413391
vt 0.0 0.2609909772872925
vn 0.9686999917030334 -0.24660000205039978 0.028599999845027924
v 0.03825899958610535 -0.34063398838043213 -0.7245020270347595
vn 0.9993000030517578 0.03610000014305115 0.004600000102072954
v 0.04338600113987923 -0.4851289987564087 -0.21302899718284607
vn 0.9703999757766724 -0.23919999599456787 0.03310000151395798
f 22/17/19 23/15/20 24/2/21
v 0.050363000482320786 -1.0371999740600586 -0.672668993473053
vn 0.9767000079154968 0.17970000207424164 0.1177000030875206
v 0.03481699898838997 -0.9466000199317932 -0.6819829940795898
vn 0.9987999796867371 0.04259999841451645 0.023099999874830246
v 0.03328099846839905 -1.0225269794464111 -0.553305983543396
vn 0.9997000098228455 0.021299999207258224 0.008500000461935997
f 25/4/22 26/6/23 27/5/24
v 0.03638000041246414 -0.934939980506897 -0.6240389943122864
vn 0.9926999807357788 -0.06430000066757202 -0.10209999978542328
v 0.0356689989566803 -0.9701150059700012 -0.5644260048866272
vn 0.989300012588501 -0.1445000022649765 -0.01850000023841858
f 26/6/23 28/6/25 29/5/26
f 26/6/23 29/5/26 27/5/24
v 0.029559999704360962 -0.5070499777793884 -0.21164999902248383
vt 0.25 0.25
vn 0.9672999978065491 -0.2515999972820282 0.032999999821186066
v 0.03548499941825867 -0.8359799981117249 -0.5429229736328125
vn 0.9930999875068665 0.11209999769926071 0.03550000116229057
v 0.036281000822782516 -0.8588870167732239 -0.6122660040855408
vn 0.9934999942779541 0.07339999824762344 -0.08669999986886978
f 30/18/27 31/7/28 32/1/29
v 0.03534900024533272 -0.5420780181884766 -0.7103880047798157
vn 0.9613999724388123 -0.2736000120639801 0.027899999171495438
f 30/18/27 32/1/29 33/1/30
v 0.03495199978351593 -0.9470909833908081 -0.5018879771232605
vn 0.9955999851226807 -0.053300000727176666 0.07750000059604645
f 27/4/24 29/4/26 34/4/31
v 0.04409800097346306 -0.9865700006484985 -0.1800370067358017
vn 0.989799976348877 0.1371999979019165 0.03759999945759773
f 27/4/24 34/4/31 35/4/32
f 33/4/30 32/4/29 28/4/25
f 33/4/30 28/4/25 26/4/23
v 0.034960001707077026 -0.8737660050392151 -0.4994319975376129
vn 0.9908999800682068 0.049400001764297485 0.125
f 30/18/27 36/8/33 31/7/28
v 0.02890699915587902 -0.8970350027084351 -0.1721860021352768
vt 0.2560259997844696 0.03711998462677002
vn 0.9969000220298767 0.0706000030040741 0.03350000083446503
f 37/19/34 34/9/31 36/8/33
f 37/19/34 36/8/33 30/18/27
v 0.028547000139951706 -0.8940320014953613 -0.14116699993610382
vt 0.271602988243103 0.03711998462677002
vn 0.9983000159263611 0.048700001090765 0.03319999948143959
f 37/19/34 30/18/27 38/20/35
f 33/1/30 22/17/19 24/2/21
f 33/1/30 24/2/21 30/18/27
f 35/9/32 37/19/34 38/20/35
v 0.036201998591423035 -0.9822030067443848 -0.13711999356746674
vt 0.271602988243103 0.0
vn 0.993399977684021 0.09929999709129333 0.05719999969005585
f 35/9/32 38/20/35 39/21/36
f 35/9/32 34/9/31 37/19/34
v 0.027187999337911606 -0.49269899725914 -0.007311999797821045
vt 0.35242798924446106 0.25
vn 0.8691999912261963 -0.1875 0.4575999975204468
f 38/20/35 30/18/27 40/22/37
v 0.026938999071717262 -0.8805990219116211 -0.002406999934464693
vt 0.3412880003452301 0.03711998462677002
vn 0.8870999813079834 0.03139999881386757 0.46050000190734863
f 38/20/35 40/22/37 41/23/38
v 0.030215000733733177 -0.008279000408947468 -0.24667200446128845
vt 0.25 0.5
vn 0.9998999834060669 -9.999999747378752e-05 0.014800000004470348
v 0.02751000039279461 0.00808900035917759 -0.013627000153064728
vt 0.36681801080703735 0.5
vn 0.9297999739646912 0.0027000000700354576 0.36800000071525574
f 24/2/21 42/24/39 43/25/40
v 0.035307999700307846 -0.47067999839782715 -0.007400999777019024
vt 0.3531070053577423 0.2609909772872925
vn 0.9004999995231628 -0.1696999967098236 0.400299996137619
f 24/2/21 43/25/40 44/26/41
v 0.036003999412059784 -0.04330600053071976 -0.7454109787940979
vn 1.0 -0.0010000000474974513 0.00430000014603138
f 23/15/20 45/14/42 42/24/39
f 23/15/20 42/24/39 24/2/21
v 0.0030449999030679464 0.5123469829559326 0.014999999664723873
vt 0.4059790074825287 0.25
vn 0.4348999857902527 0.0560000017285347 0.8986999988555908
v 0.0033420000690966845 0.8962560296058655 0.014999999664723873
vt 0.4173470139503479 0.03711998462677002
vn 0.47620001435279846 -0.006899999920278788 0.8792999982833862
v -0.6071839928627014 0.947717010974884 0.014999999664723873
f 46/27/43 47/28/44 48/20/4
v -0.6777549982070923 0.560903012752533 0.014999999664723873
vn 0.000699999975040555 -0.05249999836087227 0.9986000061035156
f 46/27/43 48/20/4 49/18/45
v -1.177685022354126 0.5747050046920776 0.014999999664723873
vn -0.003000000026077032 -0.1096000000834465 0.9940000176429749
f 50/17/46 19/15/16 21/2/18
v -1.1384470462799072 1.0916099548339844 0.014999999664723873
v -1.147915005683899 1.0006669759750366 0.014999999664723873
vn 0.01119999960064888 0.008899999782443047 0.9998999834060669
v -1.0192359685897827 1.07647705078125 0.014999999664723873
f 51/4/4 52/6/47 53/5/4
v 0.006585000082850456 0.9946990013122559 0.014999999664723873
vt 0.4204399883747101 0.0
vn 0.47099998593330383 -0.014800000004470348 0.8820000290870667
v -0.6030499935150146 1.036044955253601 0.014999999664723873
f 47/28/44 54/29/48 55/21/4
f 47/28/44 55/21/4 48/20/4
v -1.0899629592895508 0.9890220165252686 0.014999999664723873
vn -0.07209999859333038 0.04390000179409981 0.996399998664856
v -1.0303490161895752 1.0241429805755615 0.014999999664723873
vn -0.008799999952316284 0.10719999670982361 0.9941999912261963
f 52/6/47 56/6/49 57/5/50
f 52/6/47 57/5/50 53/5/4
v -1.0088820457458496 0.8900319933891296 0.014999999664723873
vn 0.02800000086426735 -0.08290000259876251 0.9962000250816345
v -1.0782109498977661 0.9129830002784729 0.014999999664723873
vn -0.0568000003695488 -0.04780000075697899 0.9972000122070312
f 49/18/45 58/7/51 59/1/52
v -1.1764169931411743 0.5962880253791809 0.024619000032544136
vn 0.0071000000461936 -0.09790000319480896 0.995199978351593
f 49/18/45 59/1/52 60/1/53
v -0.9678249955177307 1.00108003616333 0.014999999664723873
vn 0.06849999725818634 0.0494999997317791 0.996399998664856
f 53/4/4 57/4/50 61/4/54
v -0.6458979845046997 1.0406190156936646 0.014999999664723873
f 53/4/4 61/4/54 62/4/4
f 60/4/53 59/4/52 56/4/49
f 60/4/53 56/4/49 52/4/47
v -0.9653880000114441 0.9277740120887756 0.014999999664723873
vn 0.09399999678134918 -0.041999999433755875 0.994700014591217
f 49/18/45 63/8/55 58/7/51
v -0.6381980180740356 0.9507420063018799 0.014999999664723873
f 64/19/4 61/9/54 63/8/55
f 64/19/4 63/8/55 49/18/45
f 64/19/4 49/18/45 48/20/4
f 60/1/53 50/17/46 21/2/18
f 60/1/53 21/2/18 49/18/45
f 62/9/4 64/19/4 48/20/4
f 62/9/4 48/20/4 55/21/4
f 62/9/4 61/9/54 64/19/4
f 20/16/17 46/27/43 49/18/45
f 20/16/17 49/18/45 21/2/18
v 0.002463999902829528 -0.48928898572921753 0.014999999664723873
vt 0.37654098868370056 0.25
vn 0.3057999908924103 -0.05209999904036522 0.9506999850273132
f 12/9/9 15/11/12 65/30/56
f 12/9/9 65/30/56 2/2/2
f 12/9/9 2/2/2 13/8/10
v 0.05042799934744835 0.4335309863090515 -0.7787330150604248
vn 0.9692999720573425 0.24570000171661377 -0.006000000052154064
v 0.04463899880647659 0.46855801343917847 -0.27999499440193176
vn 0.9726999998092651 0.2320999950170517 0.0005000000237487257
v 0.03903999924659729 0.25401899218559265 -0.7662569880485535
vn 0.9991999864578247 -0.03779999911785126 0.009800000116229057
f 66/17/57 67/2/58 68/15/59
v 0.05297499895095825 0.9509590268135071 -0.8122730255126953
vn 0.9761999845504761 -0.164000004529953 0.14180000126361847
v 0.03587700054049492 0.953154981136322 -0.6920340061187744
vn 0.9997000098228455 -0.02250000089406967 0.011599999852478504
v 0.0371909998357296 0.8599870204925537 -0.8088380098342896
vn 0.9987000226974487 -0.04149999842047691 0.028999999165534973
f 69/4/60 70/5/61 71/6/62
v 0.03812500089406967 0.8996970057487488 -0.6957200169563293
vn 0.9897000193595886 0.1378999948501587 -0.03830000013113022
f 71/6/62 70/5/61 72/5/63
v 0.03873400017619133 0.856535017490387 -0.7498329877853394
vn 0.9927999973297119 0.046799998730421066 -0.10989999771118164
f 71/6/62 72/5/63 73/6/64
v 0.030869999900460243 0.4904929995536804 -0.28169500827789307
vn 0.9696999788284302 0.24420000612735748 -0.0017000000225380063
v 0.03665899857878685 0.4554649889469147 -0.7804329991340637
vn 0.9621999859809875 0.27230000495910645 -0.010400000028312206
v 0.03843799978494644 0.7828739881515503 -0.7275469899177551
vn 0.9933000206947327 -0.08739999681711197 -0.07540000230073929
f 74/18/65 75/1/66 76/1/67
v 0.0375950001180172 0.7698850035667419 -0.6556829810142517
vn 0.9927999973297119 -0.10859999805688858 0.050999999046325684
f 74/18/65 76/1/67 77/7/68
v 0.046668000519275665 0.9696850180625916 -0.3174009919166565
vn 0.9894999861717224 -0.1331000030040741 0.05660000070929527
v 0.03736000135540962 0.8856409788131714 -0.6305779814720154
vn 0.9957000017166138 0.061000000685453415 0.06939999759197235
f 70/4/61 78/4/69 79/4/70
f 70/4/61 79/4/70 72/4/63
f 75/4/66 71/4/62 73/4/64
f 75/4/66 73/4/64 76/4/67
v 0.03717600181698799 0.8133779764175415 -0.617900013923645
vn 0.9908000230789185 -0.03400000184774399 0.13089999556541443
f 74/18/65 77/7/68 80/8/71
v 0.031244000419974327 0.8821660280227661 -0.2971169948577881
vn 0.9968000054359436 -0.06780000030994415 0.043299999088048935
f 81/19/72 74/18/65 80/8/71
f 81/19/72 80/8/71 79/9/70
v 0.030882999300956726 0.8835279941558838 -0.265982985496521
vn 0.9983000159263611 -0.043299999088048935 0.03970000147819519
f 81/19/72 82/20/73 74/18/65
f 75/1/66 74/18/65 67/2/58
f 75/1/66 67/2/58 66/17/57
v 0.03876800090074539 0.9713799953460693 -0.27429598569869995
vn 0.9937000274658203 -0.08749999850988388 0.07050000131130219
f 78/9/69 83/21/74 82/20/73
f 78/9/69 82/20/73 81/19/72
f 78/9/69 81/19/72 79/9/70
f 65/30/56 16/12/13 2/2/2
f 68/15/59 67/2/58 42/24/39
f 68/15/59 42/24/39 45/14/42
v 0.027831999585032463 0.5088760256767273 -0.01994599960744381
vt 0.3812060058116913 0.25
vn 0.9372000098228455 0.17409999668598175 0.30219998955726624
v 0.03440700098872185 0.486860990524292 -0.01953200064599514
vt 0.38060298562049866 0.2609909772872925
vn 0.9348999857902527 0.16660000383853912 0.313400000333786
f 74/18/65 84/31/75 85/32/76
f 74/18/65 85/32/76 67/2/58
f 39/21/36 38/20/35 41/23/38
v 0.032322999089956284 -0.9737399816513062 -0.0011149999918416142
vt 0.33942198753356934 0.0
vn 0.8934999704360962 0.06260000169277191 0.444599986076355
f 39/21/36 41/23/38 86/33/77
v 0.031683001667261124 0.990822970867157 -0.025962000712752342
vt 0.39557400345802307 0.0
vn 0.9545000195503235 -0.04470000043511391 0.2946999967098236
v 0.02807999961078167 0.8940809965133667 -0.0248160008341074
vt 0.39226800203323364 0.03711998462677002
vn 0.95660001039505 -0.022299999371170998 0.2904999852180481
f 83/21/74 87/34/78 88/35/79
f 83/21/74 88/35/79 82/20/73
f 67/2/58 85/32/76 43/25/40
f 67/2/58 43/25/40 42/24/39
f 30/18/27 24/2/21 44/26/41
f 30/18/27 44/26/41 40/22/37
f 82/20/73 88/35/79 84/31/75
f 82/20/73 84/31/75 74/18/65
f 17/13/14 16/12/13 44/26/41
f 17/13/14 44/26/41 43/25/40
f 20/16/17 17/13/14 43/25/40
f 20/16/17 43/25/40 85/32/76
f 15/11/12 14/10/11 86/33/77
f 15/11/12 86/33/77 41/23/38
f 54/29/48 47/28/44 88/35/79
f 54/29/48 88/35/79 87/34/78
f 16/12/13 65/30/56 40/22/37
f 16/12/13 40/22/37 44/26/41
f 46/27/43 20/16/17 85/32/76
f 46/27/43 85/32/76 84/31/75
f 47/28/44 46/27/43 84/31/75
f 47/28/44 84/31/75 88/35/79
f 65/30/56 15/11/12 41/23/38
f 65/30/56 41/23/38 40/22/37
o tarp_overhang##0#2#1#-1.0
g tarp_overhang##0#2#1#-1.0
v -1.131050944328308 -0.736050009727478 0.021633999422192574
vn 0.08349999785423279 0.27000001072883606 0.9592000246047974
f 13/8/10 10/7/8 89/7/80
v -1.1056029796600342 -0.7653660178184509 0.021633999422192574
vn 0.27549999952316284 0.07270000129938126 0.9585000276565552
f 13/8/10 89/7/80 90/8/81
v -1.1794699430465698 -0.7447630167007446 0.021633999422192574
vn -0.19380000233650208 0.21469999849796295 0.9573000073432922
f 10/7/8 9/1/7 91/1/82
f 10/7/8 91/1/82 89/7/80
v -1.1580469608306885 -0.8234729766845703 0.021633999422192574
vn -0.07190000265836716 -0.28119999170303345 0.9569000005722046
f 8/6/6 7/5/5 92/5/83
v -1.194496989250183 -0.7943710088729858 0.021633999422192574
vn -0.267300009727478 -0.07699999958276749 0.9605000019073486
f 8/6/6 92/5/83 93/6/84
v -1.11415696144104 -0.814037024974823 0.021633999422192574
vn 0.1923000067472458 -0.18199999630451202 0.9642999768257141
f 7/4/5 12/4/9 94/4/85
f 7/4/5 94/4/85 92/4/83
f 12/9/9 13/8/10 90/8/81
f 12/9/9 90/8/81 94/9/85
f 9/4/7 8/4/6 93/4/84
f 9/4/7 93/4/84 91/4/82
v 0.043046001344919205 -0.8835070133209229 -0.5196800231933594
vn 0.9406999945640564 0.1265999972820282 0.3147999942302704
v 0.04339899867773056 -0.8580470085144043 -0.5489850044250488
vn 0.9448000192642212 0.32170000672340393 0.0625
f 36/8/33 95/8/86 96/7/87
f 36/8/33 96/7/87 31/7/28
v 0.043935999274253845 -0.8734809756278992 -0.5957099795341492
vn 0.9448000192642212 0.2134999930858612 -0.24860000610351562
f 31/7/28 96/7/87 97/1/88
f 31/7/28 97/1/88 32/1/29
v 0.044002000242471695 -0.9247270226478577 -0.6036419868469238
vn 0.9484000205993652 -0.13539999723434448 -0.2865999937057495
v 0.043522998690605164 -0.9484279751777649 -0.5634739995002747
vn 0.9402999877929688 -0.3393999934196472 -0.026900000870227814
f 28/6/25 98/6/89 99/5/90
f 28/6/25 99/5/90 29/5/26
v 0.04303999990224838 -0.9329149723052979 -0.5213350057601929
vn 0.9478999972343445 -0.18129999935626984 0.2619999945163727
f 29/4/26 99/4/90 100/4/91
f 29/4/26 100/4/91 34/4/31
f 34/9/31 100/9/91 95/8/86
f 34/9/31 95/8/86 36/8/33
f 32/4/29 97/4/88 98/4/89
f 32/4/29 98/4/89 28/4/25
v -0.9855639934539795 0.937716007232666 0.021633999422192574
vn 0.2619999945163727 -0.10809999704360962 0.9589999914169312
v -1.0148710012435913 0.9122849702835083 0.021633999422192574
vn 0.04470000043511391 -0.274399995803833 0.9606000185012817
f 63/8/55 101/8/92 102/7/93
f 63/8/55 102/7/93 58/7/51
v -1.0615860223770142 0.92774897813797 0.021633999422192574
vn -0.22110000252723694 -0.18160000443458557 0.9581999778747559
f 58/7/51 102/7/93 103/1/94
f 58/7/51 103/1/94 59/1/52
v -1.0695040225982666 0.9789850115776062 0.021633999422192574
vn -0.25380000472068787 0.11729999631643295 0.960099995136261
v -1.0293359756469727 1.0026500225067139 0.021633999422192574
vn -0.031700000166893005 0.29339998960494995 0.9555000066757202
f 56/6/49 104/6/95 105/5/96
f 56/6/49 105/5/96 57/5/50
v -0.987205982208252 0.9871100187301636 0.021633999422192574
vn 0.2168000042438507 0.156700000166893 0.9635000228881836
f 57/4/50 105/4/96 106/4/97
f 57/4/50 106/4/97 61/4/54
f 61/9/54 106/9/97 101/8/92
f 61/9/54 101/8/92 63/8/55
f 59/4/52 103/4/94 104/4/95
f 59/4/52 104/4/95 56/4/49
v 0.045566000044345856 0.7908660173416138 -0.6647679805755615
vn 0.9438999891281128 -0.3122999966144562 0.10700000077486038
f 80/8/71 77/7/68 107/7/98
v 0.04528399929404259 0.8201730251312256 -0.6393089890480042
vn 0.9404000043869019 -0.08380000293254852 0.3294999897480011
f 80/8/71 107/7/98 108/8/99
v 0.04613399878144264 0.7996190190315247 -0.7131909728050232
vn 0.9441999793052673 -0.24860000610351562 -0.21610000729560852
f 77/7/68 76/1/67 109/1/100
f 77/7/68 109/1/100 107/7/98
v 0.04592299833893776 0.8783360123634338 -0.6917449831962585
vn 0.941100001335144 0.329800009727478 -0.0738999992609024
f 73/6/64 72/5/63 110/5/101
v 0.04633300006389618 0.8492519855499268 -0.728206992149353
vn 0.9487000107765198 0.09149999916553497 -0.3025999963283539
f 73/6/64 110/5/101 111/6/102
v 0.0454070009291172 0.8688650131225586 -0.6478520035743713
vn 0.9484000205993652 0.21369999647140503 0.23430000245571136
f 72/4/63 79/4/70 112/4/103
f 72/4/63 112/4/103 110/4/101
f 79/9/70 80/8/71 108/8/99
f 79/9/70 108/8/99 112/9/103
f 76/4/67 73/4/64 111/4/102
f 76/4/67 111/4/102 109/4/100
