# OBJ file
o __dotobj_group__##0#1#0#-1.0
g __dotobj_group__##0#1#0#-1.0
o tarp_2##0#1#0#-1.0
g tarp_2##0#1#0#-1.0
v 0.5 0.5 0.014999999664723873
vt 0.25 0.25
vn -0.0008999999845400453 -0.0008999999845400453 1.0
v -0.0 0.5507299900054932 0.014999999664723873
vt 0.5 0.2609909772872925
vn 0.007899999618530273 0.17229999601840973 0.9850000143051147
v -0.0 0.0 0.014999999664723873
vt 0.5 0.5
vn 0.008799999952316284 0.026399999856948853 0.9995999932289124
f 1/1/1 2/2/2 3/3/3
v 0.5 0.0 0.014999999664723873
vt 0.25 0.5
vn 0.01140000019222498 0.02239999920129776 0.9997000098228455
f 1/1/1 3/3/3 4/4/4
v 0.9750540256500244 0.9646599888801575 0.030697999522089958
vt 0.0 0.0
vn -0.1728000044822693 -0.22050000727176666 0.9599999785423279
v 0.8691930174827576 0.9792870283126831 0.014999999664723873
vt 0.06152600049972534 0.0
vn -0.002099999925121665 -0.02319999970495701 0.9997000098228455
v 0.9869319796562195 0.8870059847831726 0.014999999664723873
vt 0.0 0.0472409725189209
vn -0.01679999940097332 -0.04479999840259552 0.9988999962806702
f 5/5/5 6/6/6 7/7/7
v 0.45679301023483276 0.8909689784049988 0.014999999664723873
vt 0.271602988243103 0.03711897134780884
vn -0.024700000882148743 -0.053199999034404755 0.9983000159263611
v -0.0 0.8789129853248596 0.014999999664723873
vt 0.5 0.03711998462677002
vn 0.003700000001117587 -0.026499999687075615 0.9995999932289124
v -0.0 0.5727120041847229 0.014999999664723873
vt 0.5 0.25
vn 0.0007999999797903001 0.1712000072002411 0.9851999878883362
f 8/8/8 9/9/9 10/10/10
f 8/8/8 10/10/10 1/1/1
v 0.8781160116195679 0.9283109903335571 0.017232000827789307
vn 0.05530000105500221 0.17059999704360962 0.9837999939918518
f 7/7/7 6/6/6 11/6/11
v 0.9327319860458374 0.8856580257415771 0.017232000827789307
vn 0.15330000221729279 0.06700000166893005 0.9858999848365784
f 7/7/7 11/6/11 12/7/12
v 1.0 0.5 0.014999999664723873
vt 0.0 0.25
vn 0.002300000051036477 -0.003100000089034438 1.0
v 0.9243059754371643 0.8228660225868225 0.017232000827789307
vn 0.09549999982118607 -0.07410000264644623 0.9926999807357788
f 1/1/1 13/11/13 14/11/14
v 0.8535490036010742 0.8049100041389465 0.017232000827789307
vt 0.15529200434684753 0.25
vn -0.03189999982714653 -0.11089999973773956 0.9933000206947327
f 1/1/1 14/11/14 15/12/15
v 0.5 0.9604809880256653 0.030143000185489655
vn -0.03240000084042549 -0.1784999966621399 0.9833999872207642
v 0.8203949928283691 0.9186239838600159 0.017232000827789307
vn -0.053700000047683716 0.05950000137090683 0.9968000054359436
f 6/5/6 16/5/16 17/5/17
f 6/5/6 17/5/17 11/5/11
f 13/5/13 7/5/7 12/5/12
f 13/5/13 12/5/12 14/5/14
v 0.8128089904785156 0.8456500172615051 0.017232000827789307
vt 0.25 0.147163987159729
vn -0.11680000275373459 -0.04190000146627426 0.9922999739646912
f 1/1/1 15/12/15 18/13/18
v 0.487949013710022 0.8917919993400574 0.014999999664723873
vt 0.2560259997844696 0.03711998462677002
vn -0.025800000876188278 -0.09009999781847 0.9955999851226807
f 19/14/19 1/1/1 18/13/18
vt 0.25 0.0
f 19/14/19 18/13/18 17/15/17
f 19/14/19 8/8/8 1/1/1
v 0.45679301023483276 0.9591420292854309 0.022745000198483467
vt 0.271602988243103 0.0
vn -0.05130000039935112 -0.10840000212192535 0.9927999973297119
f 16/15/16 20/16/20 8/8/8
f 16/15/16 8/8/8 19/14/19
f 16/15/16 19/14/19 17/15/17
v -0.0 0.9449830055236816 0.014999999664723873
vt 0.5 0.0
vn 0.0032999999821186066 -0.05719999969005585 0.9983999729156494
f 20/16/20 21/17/21 9/9/9
f 20/16/20 9/9/9 8/8/8
f 1/1/1 10/10/10 2/2/2
f 13/11/13 1/1/1 4/4/4
v 1.0 0.0 0.014999999664723873
vt 0.0 0.5
vn 0.003700000001117587 0.010599999688565731 0.9998999834060669
f 13/11/13 4/4/4 22/18/22
v -0.5014979839324951 0.5312420129776001 0.04945499822497368
vt 0.25 0.25499600172042847
vn -0.023900000378489494 0.38019999861717224 0.9246000051498413
v -0.5 0.0 0.014999999664723873
vn -0.007699999958276749 0.003100000089034438 1.0
f 23/19/23 24/4/24 3/3/3
f 23/19/23 3/3/3 2/2/2
v -1.0031440258026123 0.4151409864425659 0.08183299750089645
vt 0.0 0.2609909772872925
vn 0.04190000146627426 0.14630000293254852 0.9883999824523926
v -1.0009050369262695 0.2799679934978485 0.017645999789237976
vt 0.0 0.350970983505249
vn 0.043699998408555984 -0.18479999899864197 0.9818000197410583
f 25/20/25 26/21/26 23/19/23
v -1.0066920518875122 0.8661640286445618 0.030697999522089958
vn 0.11219999939203262 -0.16290000081062317 0.9801999926567078
v -1.0066920518875122 0.7716820240020752 0.014999999664723873
vn 0.017000000923871994 -0.03709999844431877 0.9991999864578247
v -0.8836399912834167 0.8564379811286926 0.014999999664723873
vn -0.003100000089034438 -0.02019999921321869 0.9998000264167786
f 27/5/27 28/7/28 29/6/29
v -0.45988398790359497 0.8291580080986023 0.014999999664723873
vt 0.271602988243103 0.03711998462677002
vn 0.043299999088048935 -0.048900000751018524 0.9979000091552734
v -0.5015950202941895 0.5392990112304688 0.02247299998998642
vn -0.03229999914765358 0.39809998869895935 0.9168000221252441
f 30/22/30 31/1/31 10/10/10
f 30/22/30 10/10/10 9/9/9
v -0.9480950236320496 0.7641069889068604 0.017232000827789307
vn -0.11540000140666962 0.05790000036358833 0.991599977016449
v -0.8910890221595764 0.8033729791641235 0.017232000827789307
vn -0.03999999910593033 0.14159999787807465 0.9890999794006348
f 28/7/28 32/7/32 33/6/33
f 28/7/28 33/6/33 29/6/29
v -0.8602399826049805 0.6710739731788635 0.017232000827789307
vn 0.024800000712275505 -0.10050000250339508 0.9945999979972839
v -0.9310230016708374 0.6890659928321838 0.017232000827789307
vn -0.09149999916553497 -0.07349999994039536 0.9930999875068665
f 31/1/31 34/12/34 35/11/35
v -1.0065759420394897 0.47939398884773254 0.017618000507354736
vn -0.07559999823570251 0.4562000036239624 0.8866999745368958
f 31/1/31 35/11/35 36/11/36
v -0.8270869851112366 0.7847869992256165 0.017232000827789307
vn 0.06239999830722809 0.06289999932050705 0.9961000084877014
f 29/5/29 33/5/33 37/5/37
v -0.5036119818687439 0.8882390260696411 0.030143000185489655
vn 0.0771000012755394 -0.1687999963760376 0.9825999736785889
f 29/5/29 37/5/37 38/5/38
f 36/5/36 35/5/35 32/5/32
f 36/5/36 32/5/32 28/5/28
v -0.8195009827613831 0.7118139863014221 0.017232000827789307
vn 0.10999999940395355 -0.030500000342726707 0.9934999942779541
f 31/1/31 39/13/39 34/12/34
v -0.4914909899234772 0.8209429979324341 0.014999999664723873
vn 0.037300001829862595 -0.07500000298023224 0.9965000152587891
f 40/14/40 37/15/37 39/13/39
f 40/14/40 39/13/39 31/1/31
f 40/14/40 31/1/31 30/22/30
f 36/11/36 25/20/25 23/19/23
f 36/11/36 23/19/23 31/1/31
f 38/15/38 40/14/40 30/22/30
v -0.45978400111198425 0.8993399739265442 0.022745000198483467
vn 0.0681999996304512 -0.09920000284910202 0.9926999807357788
f 38/15/38 30/22/30 41/16/41
f 38/15/38 37/15/37 40/14/40
f 41/16/41 30/22/30 9/9/9
f 41/16/41 9/9/9 21/17/21
f 31/1/31 23/19/23 2/2/2
f 31/1/31 2/2/2 10/10/10
v -1.0 0.0 0.014999999664723873
vn -0.013799999840557575 -0.012299999594688416 0.9998000264167786
f 26/21/26 42/18/42 24/4/24
f 26/21/26 24/4/24 23/19/23
v 0.5 -0.47801798582077026 0.028798000887036324
vt 0.25 0.2609909772872925
vn 0.03449999913573265 -0.17990000545978546 0.9830999970436096
f 43/23/43 4/4/4 3/3/3
v -0.0 -0.47801798582077026 0.0669580027461052
vn 0.0 -0.09880000352859497 0.9951000213623047
f 43/23/43 3/3/3 44/2/44
v 1.0 -0.47801798582077026 0.028798000887036324
vn 0.0 -0.2468000054359436 0.9690999984741211
v 1.0 -0.29805898666381836 0.017645999789237976
vn 0.0044999998062849045 0.03700000047683716 0.9993000030517578
f 45/20/45 46/21/46 43/23/43
v 0.9688180088996887 -0.9605029821395874 0.030697999522089958
vn -0.18780000507831573 0.23469999432563782 0.9537000060081482
v 0.9836660027503967 -0.8848279714584351 0.014999999664723873
vn -0.016499999910593033 0.04479999840259552 0.9988999962806702
v 0.8672540187835693 -0.977994978427887 0.014999999664723873
vn -0.002099999925121665 0.023399999365210533 0.9997000098228455
f 47/5/47 48/7/48 49/6/49
v 0.45679301023483276 -0.8909689784049988 0.014999999664723873
vn 0.02969999983906746 0.019300000742077827 0.9994000196456909
v 0.5 -0.5 0.014999999664723873
vn 0.04820000007748604 -0.20389999449253082 0.9778000116348267
v -0.0 -0.5 0.06880299746990204
vn 0.0 -0.13529999554157257 0.9908000230789185
f 50/8/50 51/1/51 52/10/52
v -0.0 -0.8789129853248596 0.06880299746990204
vn 0.0 -0.01979999989271164 0.9998000264167786
f 50/8/50 52/10/52 53/9/53
v 0.9305639863014221 -0.8842129707336426 0.017232000827789307
vn 0.1624000072479248 -0.0714000016450882 0.9840999841690063
v 0.8765460252761841 -0.9272639751434326 0.017232000827789307
vn 0.0575999990105629 -0.17520000040531158 0.9828000068664551
f 48/7/48 54/7/54 55/6/55
f 48/7/48 55/6/55 49/6/49
v 0.8535490036010742 -0.8049100041389465 0.017232000827789307
vn -0.03189999982714653 0.11100000143051147 0.9933000206947327
v 0.9243000149726868 -0.8228620290756226 0.017232000827789307
vn 0.09619999676942825 0.07180000096559525 0.9927999973297119
f 51/1/51 56/12/56 57/11/57
v 1.0 -0.5 0.014999999664723873
vn 0.002400000113993883 -0.2775000035762787 0.9606999754905701
f 51/1/51 57/11/57 58/11/58
v 0.8203949928283691 -0.9186239838600159 0.017232000827789307
vn -0.05290000140666962 -0.059700001031160355 0.9968000054359436
f 49/5/49 55/5/55 59/5/59
v 0.5 -0.9822810292243958 0.030143000185489655
vn -0.03739999979734421 0.13459999859333038 0.9901999831199646
f 49/5/49 59/5/59 60/5/60
f 58/5/58 57/5/57 54/5/54
f 58/5/58 54/5/54 48/5/48
v 0.8128089904785156 -0.8456500172615051 0.017232000827789307
vn -0.1168999969959259 0.04190000146627426 0.9922999739646912
f 51/1/51 61/13/61 56/12/56
v 0.487949013710022 -0.8917919993400574 0.014999999664723873
vn -0.026499999687075615 0.06889999657869339 0.9973000288009644
f 62/14/62 59/15/59 61/13/61
f 62/14/62 61/13/61 51/1/51
f 62/14/62 51/1/51 50/8/50
f 58/11/58 45/20/45 43/23/43
f 58/11/58 43/23/43 51/1/51
f 60/15/60 62/14/62 50/8/50
v 0.45679301023483276 -0.9809420108795166 0.022745000198483467
vn -0.0026000000070780516 0.04430000111460686 0.9990000128746033
f 60/15/60 50/8/50 63/16/63
f 60/15/60 59/15/59 62/14/62
f 63/16/63 50/8/50 53/9/53
v -0.0 -0.974049985408783 0.05480999872088432
vn 9.999999747378752e-05 -0.03400000184774399 0.9994000196456909
f 63/16/63 53/9/53 64/17/64
f 51/1/51 43/23/43 44/2/44
f 51/1/51 44/2/44 52/10/52
f 46/21/46 22/18/22 4/4/4
f 46/21/46 4/4/4 43/23/43
v -0.5 -0.47801798582077026 0.028798000887036324
vn -0.03449999913573265 -0.17990000545978546 0.9830999970436096
f 65/23/65 44/2/44 3/3/3
f 65/23/65 3/3/3 24/4/24
v -1.0 -0.47801798582077026 0.028798000887036324
v -1.0 -0.29805898666381836 0.017645999789237976
vn -0.0044999998062849045 0.03700000047683716 0.9993000030517578
f 66/20/45 65/23/65 67/21/66
v -1.0016820430755615 -0.9562659859657288 0.030697999522089958
vn 0.19550000131130219 0.2838999927043915 0.9387000203132629
v -0.8769490122795105 -0.9902740120887756 0.014999999664723873
vn -0.004900000058114529 0.019600000232458115 0.9998000264167786
v -1.0 -0.9055179953575134 0.014999999664723873
vn 0.042399998754262924 0.08240000158548355 0.9957000017166138
f 68/5/67 69/6/68 70/7/69
v -0.45679301023483276 -0.8909689784049988 0.014999999664723873
vn -0.02979999966919422 0.019899999722838402 0.9994000196456909
f 71/22/70 53/9/53 52/10/52
v -0.5 -0.5 0.014999999664723873
vn -0.04820000007748604 -0.20389999449253082 0.9778000116348267
f 71/22/70 52/10/52 72/1/71
v -0.8843969702720642 -0.9372090101242065 0.017232000827789307
vn -0.03999999910593033 -0.14159999787807465 0.9890999794006348
f 70/7/69 69/6/68 73/6/72
v -0.9414039850234985 -0.8979430198669434 0.017232000827789307
vn -0.11779999732971191 -0.05570000037550926 0.9915000200271606
f 70/7/69 73/6/72 74/7/73
v -1.0 -0.5 0.014999999664723873
vn -0.002400000113993883 -0.2736000120639801 0.9617999792098999
v -0.92433100938797 -0.8229020237922668 0.017232000827789307
vn -0.09279999881982803 0.08060000091791153 0.9923999905586243
f 72/1/71 75/11/74 76/11/75
v -0.8535490036010742 -0.8049100041389465 0.017232000827789307
vn 0.03180000185966492 0.11060000211000443 0.993399977684021
f 72/1/71 76/11/75 77/12/76
v -0.5 -0.9798589944839478 0.030143000185489655
vn 0.03629999980330467 0.1371999979019165 0.9898999929428101
v -0.8203949928283691 -0.9186239838600159 0.017232000827789307
vn 0.06210000067949295 -0.05739999935030937 0.996399998664856
f 69/5/68 78/5/77 79/5/78
f 69/5/68 79/5/78 73/5/72
f 75/5/74 70/5/69 74/5/73
f 75/5/74 74/5/73 76/5/75
v -0.8128089904785156 -0.8456500172615051 0.017232000827789307
vn 0.11670000106096268 0.04179999977350235 0.9922999739646912
f 72/1/71 77/12/76 80/13/79
v -0.487949013710022 -0.8917919993400574 0.014999999664723873
vn 0.026399999856948853 0.07069999724626541 0.9970999956130981
f 81/14/80 72/1/71 80/13/79
f 81/14/80 80/13/79 79/15/78
f 81/14/80 71/22/70 72/1/71
f 75/11/74 72/1/71 65/23/65
f 75/11/74 65/23/65 66/20/45
v -0.45679301023483276 -0.9785190224647522 0.022745000198483467
vn 0.002400000113993883 0.04569999873638153 0.9990000128746033
f 78/15/77 82/16/81 71/22/70
f 78/15/77 71/22/70 81/14/80
f 78/15/77 81/14/80 79/15/78
f 82/16/81 64/17/64 53/9/53
f 82/16/81 53/9/53 71/22/70
f 72/1/71 52/10/52 44/2/44
f 72/1/71 44/2/44 65/23/65
f 67/21/66 65/23/65 24/4/24
f 67/21/66 24/4/24 42/18/42
o tarp_2##0#2#1#-1.0
g tarp_2##0#2#1#-1.0
v 0.8612329959869385 0.8264870047569275 0.025086000561714172
vn -0.07429999858140945 -0.31869998574256897 0.9449999928474426
f 18/13/18 15/12/15 83/12/82
v 0.8337820172309875 0.8539379835128784 0.025086000561714172
vn -0.3122999966144562 -0.10559999942779541 0.944100022315979
f 18/13/18 83/12/82 84/13/83
v 0.9087259769439697 0.8383259773254395 0.025086000561714172
vn 0.2623000144958496 -0.21729999780654907 0.9401999711990356
f 15/12/15 14/11/14 85/11/84
f 15/12/15 85/11/84 83/12/82
v 0.8780720233917236 0.9100409746170044 0.025086000561714172
vn 0.13699999451637268 0.39309999346733093 0.9092000126838684
f 12/7/12 11/6/11 86/6/85
v 0.9152200222015381 0.8817920088768005 0.025086000561714172
vn 0.3596999943256378 0.18440000712871552 0.9146999716758728
f 12/7/12 86/6/85 87/7/86
v 0.8387839794158936 0.9029539823532104 0.025086000561714172
vn -0.21899999678134918 0.2222999930381775 0.9501000046730042
f 11/5/11 17/5/17 88/5/87
f 11/5/11 88/5/87 86/5/85
f 17/15/17 18/13/18 84/13/83
f 17/15/17 84/13/83 88/15/87
f 14/5/14 12/5/12 87/5/86
f 14/5/14 87/5/86 85/5/84
v -0.840474009513855 0.7201020121574402 0.025086000561714172
vn 0.31189998984336853 -0.1054999977350235 0.9441999793052673
v -0.8679249882698059 0.6926509737968445 0.025086000561714172
vn 0.0738999992609024 -0.31779998540878296 0.9452999830245972
f 39/13/39 89/13/88 90/12/89
f 39/13/39 90/12/89 34/12/34
v -0.9156190156936646 0.704774022102356 0.025086000561714172
vn -0.24390000104904175 -0.23170000314712524 0.9416999816894531
f 34/12/34 90/12/89 91/11/90
f 34/12/34 91/11/90 35/11/35
v -0.9271230101585388 0.7553380131721497 0.025086000561714172
vn -0.30640000104904175 0.1137000024318695 0.9451000094413757
v -0.8887109756469727 0.7817959785461426 0.025086000561714172
vn -0.061500001698732376 0.3353999853134155 0.9401000142097473
f 32/7/32 92/7/91 93/6/92
f 32/7/32 93/6/92 33/6/33
v -0.8455849885940552 0.7692729830741882 0.025086000561714172
vn 0.23770000040531158 0.1979999989271164 0.9509000182151794
f 33/5/33 93/5/92 94/5/93
f 33/5/33 94/5/93 37/5/37
f 37/15/37 94/15/93 89/13/88
f 37/15/37 89/13/88 39/13/39
f 35/5/35 91/5/90 92/5/91
f 35/5/35 92/5/91 32/5/32
v 0.8337820172309875 -0.8539379835128784 0.025086000561714172
vn -0.3124000132083893 0.10570000112056732 0.9440000057220459
v 0.8612329959869385 -0.8264870047569275 0.025086000561714172
vn -0.07429999858140945 0.31869998574256897 0.9448999762535095
f 61/13/61 95/13/94 96/12/95
f 61/13/61 96/12/95 56/12/56
v 0.908676028251648 -0.8382920026779175 0.025086000561714172
vn 0.2694000005722046 0.21130000054836273 0.9395999908447266
f 56/12/56 96/12/95 97/11/96
f 56/12/56 97/11/96 57/11/57
v 0.9139170050621033 -0.8809229731559753 0.025086000561714172
vn 0.37400001287460327 -0.20110000669956207 0.9053000211715698
v 0.8770849704742432 -0.9093829989433289 0.025086000561714172
vn 0.1526000052690506 -0.4043000042438507 0.9017999768257141
f 54/7/54 98/7/97 99/6/98
f 54/7/54 99/6/98 55/6/55
v 0.8387569785118103 -0.9029359817504883 0.025086000561714172
vn -0.2168000042438507 -0.22529999911785126 0.9498999714851379
f 55/5/55 99/5/98 100/5/99
f 55/5/55 100/5/99 59/5/59
f 59/15/59 100/15/99 95/13/94
f 59/15/59 95/13/94 61/13/61
f 57/5/57 97/5/96 98/5/97
f 57/5/57 98/5/97 54/5/54
v -0.8612329959869385 -0.8264870047569275 0.025086000561714172
vn 0.0738999992609024 0.31779998540878296 0.9452999830245972
f 80/13/79 77/12/76 101/12/100
v -0.8337820172309875 -0.8539379835128784 0.025086000561714172
vn 0.31189998984336853 0.1054999977350235 0.9441999793052673
f 80/13/79 101/12/100 102/13/101
v -0.9089270234107971 -0.8386110067367554 0.025086000561714172
vn -0.24390000104904175 0.23170000314712524 0.9416999816894531
f 77/12/76 76/11/75 103/11/102
f 77/12/76 103/11/102 101/12/100
v -0.8820189833641052 -0.9156320095062256 0.025086000561714172
vn -0.061500001698732376 -0.3353999853134155 0.9401000142097473
f 74/7/73 73/6/72 104/6/103
v -0.9204310178756714 -0.8891739845275879 0.025086000561714172
vn -0.30640000104904175 -0.1137000024318695 0.9451000094413757
f 74/7/73 104/6/103 105/7/104
v -0.8388940095901489 -0.9031090140342712 0.025086000561714172
vn 0.23770000040531158 -0.1979999989271164 0.9509000182151794
f 73/5/72 79/5/78 106/5/105
f 73/5/72 106/5/105 104/5/103
f 79/15/78 80/13/79 102/13/101
f 79/15/78 102/13/101 106/15/105
f 76/5/75 74/5/73 105/5/104
f 76/5/75 105/5/104 103/5/102
