# OBJ file
o __dotobj_group__##0#1#0#-1.0
g __dotobj_group__##0#1#0#-1.0
o tinybush.RSCALE[.7,1.2].RFLIP.WINDY[.1].RUSTLE[.1].NOSHADOW_grass_04.RSCALE[.7,1.2].RFLIP.WINDY[.1].RUSTLE[.1].NOSHADOW_gra#bush_shrub_grass#99#1#0#-1.0
g tinybush.RSCALE[.7,1.2].RFLIP.WINDY[.1].RUSTLE[.1].NOSHADOW_grass_04.RSCALE[.7,1.2].RFLIP.WINDY[.1].RUSTLE[.1].NOSHADOW_gra#bush_shrub_grass#99#1#0#-1.0
v -0.0397379994392395 -0.0017229999648407102 0.003441999899223447
vt 0.10410299897193909 0.7184579968452454
vn -0.01510000042617321 0.9994999766349792 -0.027499999850988388
v 0.030876999720931053 0.0005290000117383897 0.046581998467445374
vt 0.049814000725746155 0.7868939936161041
v 0.05053900182247162 0.0004870000120718032 0.03426000103354454
vt 0.03140899911522865 0.7705069929361343
f 1/1/1 2/2/1 3/3/1
v 0.01994200050830841 -0.0011230000527575612 -0.007451000157743692
vt 0.051819998770952225 0.7073290050029755
f 1/1/1 3/3/1 4/4/1
v -0.05222399905323982 -0.000598000013269484 0.05113400146365166
vt 0.12118099629878998 0.7869299948215485
f 5/5/1 2/2/1 1/1/1
v -0.014431999996304512 0.001184999942779541 0.09519299864768982
vt 0.0949610024690628 0.8541010022163391
v 0.01757900044322014 0.0016220000106841326 0.09354899823665619
vt 0.0674860030412674 0.8542460054159164
f 6/6/1 7/7/1 2/2/1
f 6/6/1 2/2/1 5/5/1
