# OBJ file
o __dotobj_group__##0#1#0#-1.0
g __dotobj_group__##0#1#0#-1.0
o TINYLEAF.RSCALE[.66,1.3].RFLIP.WINDY[.1].RUSTLE[.1].NOSHADOW_Plane.118#tinyleafy#99#1#0#-1.0
g TINYLEAF.RSCALE[.66,1.3].RFLIP.WINDY[.1].RUSTLE[.1].NOSHADOW_Plane.118#tinyleafy#99#1#0#-1.0
v 0.10426799952983856 0.09594500064849854 -0.003450999967753887
vt 0.0 0.0
vn 0.0017999999690800905 0.38530001044273376 0.9228000044822693
v -0.10426799952983856 0.09609100222587585 -0.003102000104263425
vt 1.0 0.0
v -0.10426799952983856 -0.09594500064849854 0.07709100097417831
vt 1.0 1.0
f 1/1/1 2/2/1 3/3/1
v 0.10426799952983856 -0.09609100222587585 0.07674200087785721
vt 0.0 1.0
f 1/1/1 3/3/1 4/4/1
