# OBJ file
o __dotobj_group__##0#1#0#-1.0
g __dotobj_group__##0#1#0#-1.0
o TINYFERN.RSCALE[.7,1.2].RFLIP.WINDY[.1].RUSTLE[.1].NOSHADOW_Plane.119#tinyfern#99#1#0#-1.0
g TINYFERN.RSCALE[.7,1.2].RFLIP.WINDY[.1].RUSTLE[.1].NOSHADOW_Plane.119#tinyfern#99#1#0#-1.0
v -0.11377699673175812 0.06893499940633774 -0.00041000000783242285
vt 0.015625 0.0
vn -0.0017999999690800905 -0.5648000240325928 -0.8252000212669373
v 0.11377699673175812 0.06870199739933014 -0.000750000006519258
vt 1.0 0.0
v 0.11377699673175812 -0.06893499940633774 0.09345400333404541
vt 1.0 1.0
f 1/1/1 2/2/1 3/3/1
v -0.11377699673175812 -0.06870199739933014 0.09379500150680542
vt 0.015625 1.0
f 1/1/1 3/3/1 4/4/1
