# OBJ file
o __dotobj_group__##0#1#0#-1.0
g __dotobj_group__##0#1#0#-1.0
o Cube.185_Cube.366##0#1#0#-1.0
g Cube.185_Cube.366##0#1#0#-1.0
v -0.032524000853300095 -0.5791969895362854 0.3831549882888794
vt 0.375 0.25
vn -0.0 -1.0 0.0
v 0.032524000853300095 -0.5791969895362854 0.3831549882888794
vt 0.375 0.5
v 0.032524000853300095 -0.5791969895362854 0.5599920153617859
vt 0.625 0.5
f 1/1/1 2/2/1 3/3/1
v -0.032524000853300095 -0.5791969895362854 0.5599920153617859
vt 0.625 0.25
f 1/1/1 3/3/1 4/4/1
vn 1.0 0.0 0.0
v 0.032524000853300095 0.5791969895362854 0.3831549882888794
vt 0.375 0.75
v 0.032524000853300095 0.5791969895362854 0.5599920153617859
vt 0.625 0.75
f 2/2/2 5/5/2 6/6/2
f 2/2/2 6/6/2 3/3/2
vn -0.0 1.0 -0.0
v -0.032524000853300095 0.5791969895362854 0.3831549882888794
vt 0.375 1.0
v -0.032524000853300095 0.5791969895362854 0.5599920153617859
vt 0.625 1.0
f 5/5/3 7/7/3 8/8/3
f 5/5/3 8/8/3 6/6/3
vt 0.125 0.5
vn -0.0 -0.0 -1.0
vt 0.125 0.75
f 1/9/4 7/10/4 5/5/4
f 1/9/4 5/5/4 2/2/4
vn -0.0 0.0 1.0
vt 0.875 0.75
f 3/3/5 6/6/5 8/11/5
vt 0.875 0.5
f 3/3/5 8/11/5 4/12/5
o Cube.185_Cube.366##0#2#1#-1.0
g Cube.185_Cube.366##0#2#1#-1.0
vt 0.375 0.0
vn -1.0 0.0 0.0
f 7/13/6 1/1/6 4/4/6
vt 0.625 0.0
f 7/13/6 4/4/6 8/14/6
o Cube.186_Cube.367##0#2#0#-1.0
g Cube.186_Cube.367##0#2#0#-1.0
v 0.1742819994688034 -0.33583301305770874 0.056053001433610916
vn 0.921500027179718 0.0 0.38830000162124634
v 0.018970999866724014 -0.33583301305770874 0.4246180057525635
v 0.018970999866724014 -0.45928698778152466 0.4246180057525635
f 9/13/7 10/14/7 11/4/7
v 0.1742819994688034 -0.45928698778152466 0.056053001433610916
f 9/13/7 11/4/7 12/1/7
v -0.01932400092482567 -0.45928698778152466 0.40848100185394287
f 12/1/1 11/4/1 13/3/1
v 0.13598699867725372 -0.45928698778152466 0.03991499915719032
f 12/1/1 13/3/1 14/2/1
vn -0.921500027179718 -0.0 -0.38830000162124634
v -0.01932400092482567 -0.33583301305770874 0.40848100185394287
f 14/2/8 13/3/8 15/6/8
v 0.13598699867725372 -0.33583301305770874 0.03991499915719032
f 14/2/8 15/6/8 16/5/8
f 16/5/3 15/6/3 10/8/3
f 16/5/3 10/8/3 9/7/3
vn 0.38830000162124634 -0.0 -0.921500027179718
f 12/9/9 14/2/9 16/5/9
f 12/9/9 16/5/9 9/10/9
vn -0.38830000162124634 0.0 0.921500027179718
f 13/3/10 11/12/10 10/11/10
f 13/3/10 10/11/10 15/6/10
v 0.1742819994688034 0.4614019989967346 0.056053001433610916
v 0.018970999866724014 0.4614019989967346 0.4246180057525635
v 0.018970999866724014 0.3379470109939575 0.4246180057525635
f 17/13/7 18/14/7 19/4/7
v 0.1742819994688034 0.3379470109939575 0.056053001433610916
f 17/13/7 19/4/7 20/1/7
v -0.01932400092482567 0.3379470109939575 0.40848100185394287
f 20/1/1 19/4/1 21/3/1
v 0.13598699867725372 0.3379470109939575 0.03991499915719032
f 20/1/1 21/3/1 22/2/1
v -0.01932400092482567 0.4614019989967346 0.40848100185394287
f 22/2/8 21/3/8 23/6/8
v 0.13598699867725372 0.4614019989967346 0.03991499915719032
f 22/2/8 23/6/8 24/5/8
f 24/5/3 23/6/3 18/8/3
f 24/5/3 18/8/3 17/7/3
f 20/9/9 22/2/9 24/5/9
f 20/9/9 24/5/9 17/10/9
f 21/3/10 19/12/10 18/11/10
f 21/3/10 18/11/10 23/6/10
v 0.17128300666809082 -0.44998300075531006 0.15708699822425842
v 0.17128300666809082 0.4542129933834076 0.15708699822425842
v 0.12334199994802475 0.4542129933834076 0.2708519995212555
f 25/13/7 26/14/7 27/4/7
v 0.12334199994802475 -0.44998300075531006 0.2708519995212555
f 25/13/7 27/4/7 28/1/7
v 0.08504699915647507 0.4542129933834076 0.2547149956226349
f 28/1/10 27/4/10 29/3/10
v 0.08504699915647507 -0.44998300075531006 0.2547149956226349
f 28/1/10 29/3/10 30/2/10
v 0.13298699259757996 0.4542129933834076 0.14094899594783783
f 30/2/8 29/3/8 31/6/8
v 0.13298699259757996 -0.44998300075531006 0.14094899594783783
f 30/2/8 31/6/8 32/5/8
f 32/5/9 31/6/9 26/8/9
f 32/5/9 26/8/9 25/7/9
f 28/9/1 30/2/1 32/5/1
f 28/9/1 32/5/1 25/10/1
f 29/3/3 27/12/3 26/11/3
f 29/3/3 26/11/3 31/6/3
o Cube.189_Cube.396##0#2#0#-1.0
g Cube.189_Cube.396##0#2#0#-1.0
v -0.5244010090827942 -0.33583301305770874 -0.02978700026869774
vn 0.6820999979972839 -0.0 -0.7311999797821045
v -0.0024349999148398638 -0.33583301305770874 0.4571489989757538
v -0.0024349999148398638 -0.45928698778152466 0.4571489989757538
f 33/13/11 34/14/11 35/4/11
v -0.5244010090827942 -0.45928698778152466 -0.02978700026869774
f 33/13/11 35/4/11 36/1/11
v -0.03230699896812439 -0.45928698778152466 0.4860379993915558
f 36/1/1 35/4/1 37/3/1
v -0.5542740225791931 -0.45928698778152466 -0.0008970000199042261
f 36/1/1 37/3/1 38/2/1
vn -0.6820999979972839 0.0 0.7311999797821045
v -0.03230699896812439 -0.33583301305770874 0.4860379993915558
f 38/2/12 37/3/12 39/6/12
v -0.5542740225791931 -0.33583301305770874 -0.0008970000199042261
f 38/2/12 39/6/12 40/5/12
f 40/5/3 39/6/3 34/8/3
f 40/5/3 34/8/3 33/7/3
vn -0.6952000260353088 -0.0 -0.7188000082969666
f 36/9/13 38/2/13 40/5/13
f 36/9/13 40/5/13 33/10/13
vn 0.6952000260353088 0.0 0.7188000082969666
f 37/3/14 35/12/14 34/11/14
f 37/3/14 34/11/14 39/6/14
v -0.5244010090827942 0.4614019989967346 -0.02978700026869774
v -0.0024349999148398638 0.4614019989967346 0.4571489989757538
v -0.0024349999148398638 0.3379470109939575 0.4571489989757538
f 41/13/11 42/14/11 43/4/11
v -0.5244010090827942 0.3379470109939575 -0.02978700026869774
f 41/13/11 43/4/11 44/1/11
v -0.03230699896812439 0.3379470109939575 0.4860379993915558
f 44/1/1 43/4/1 45/3/1
v -0.5542730093002319 0.3379470109939575 -0.0008970000199042261
f 44/1/1 45/3/1 46/2/1
v -0.03230699896812439 0.4614019989967346 0.4860379993915558
f 46/2/12 45/3/12 47/6/12
v -0.5542730093002319 0.4614019989967346 -0.0008970000199042261
f 46/2/12 47/6/12 48/5/12
f 48/5/3 47/6/3 42/8/3
f 48/5/3 42/8/3 41/7/3
f 44/9/13 46/2/13 48/5/13
f 44/9/13 48/5/13 41/10/13
f 45/3/14 43/12/14 42/11/14
f 45/3/14 42/11/14 47/6/14
o Cube.187_Cube.404##0#2#0#-1.0
g Cube.187_Cube.404##0#2#0#-1.0
v 0.04235700145363808 0.4013980031013489 0.5152180194854736
vt 0.5569009780883789 0.125
vn 0.8015999794006348 0.0 0.5978999733924866
v 0.04235700145363808 0.3695789873600006 0.5024049878120422
vt 0.5569000244140625 0.1819000244140625
vn 0.8098999857902527 -0.4196000099182129 0.4099000096321106
v 0.12425500154495239 0.3695789873600006 0.5024049878120422
vn -0.7526999711990356 -0.4717999994754791 0.45910000801086426
f 49/15/15 50/16/16 51/16/17
v 0.12425500154495239 0.4013980031013489 0.5152180194854736
vn -0.744700014591217 0.0 0.6674000024795532
f 49/15/15 51/16/17 52/15/18
v 0.04235700145363808 0.304313987493515 0.46945899724960327
vt 0.5 0.25
vn 0.707099974155426 -0.707099974155426 0.0
v 0.04235700145363808 0.304313987493515 0.5699819922447205
vn 0.5774000287055969 -0.5774000287055969 0.5774000287055969
v 0.002985999919474125 0.304313987493515 0.5699819922447205
vn -0.5774000287055969 -0.5774000287055969 0.5774000287055969
f 53/17/19 54/4/20 55/3/21
v 0.002985999919474125 0.304313987493515 0.46945899724960327
vt 0.5 0.5
vn -0.707099974155426 -0.707099974155426 0.0
f 53/17/19 55/3/21 56/18/22
v 0.002985999919474125 0.4013980031013489 0.46945899724960327
vt 0.5 0.625
v 0.002985999919474125 0.4013980031013489 0.5699819922447205
vt 0.625 0.625
vn -0.707099974155426 0.0 0.707099974155426
v 0.002985999919474125 0.49848100543022156 0.5699819922447205
vn -0.5774000287055969 0.5774000287055969 0.5774000287055969
f 57/19/6 58/20/23 59/6/24
v 0.002985999919474125 0.49848100543022156 0.46945899724960327
vt 0.5 0.75
vn -0.7070000171661377 0.7071999907493591 -9.999999747378752e-05
f 57/19/6 59/6/24 60/21/25
v 0.04235700145363808 0.49848100543022156 0.5699819922447205
vn 0.5774000287055969 0.5774000287055969 0.5774000287055969
f 60/21/25 59/6/24 61/8/26
v 0.04235700145363808 0.49848100543022156 0.46945899724960327
vt 0.5 1.0
vn 0.7071999907493591 0.707099974155426 -9.999999747378752e-05
f 60/21/25 61/8/26 62/22/27
v 0.04235700145363808 0.4013980031013489 0.3689349889755249
vt 0.125 0.625
vn 0.7070000171661377 -0.0003000000142492354 -0.7073000073432922
v 0.002985999919474125 0.4013980031013489 0.3689349889755249
vt 0.375 0.625
vn -0.7074000239372253 -0.0003000000142492354 -0.7067999839782715
v 0.002985999919474125 0.49848100543022156 0.3689349889755249
vn -0.5776000022888184 0.5777999758720398 -0.5766000151634216
f 63/23/28 64/24/29 65/5/30
v 0.04235700145363808 0.49843698740005493 0.3687970042228699
vn 0.5770000219345093 0.5763999819755554 -0.5785999894142151
f 63/23/28 65/5/30 66/10/31
v 0.04235700145363808 0.4013980031013489 0.5699819922447205
vt 0.875 0.625
vn 0.707099974155426 0.0 0.707099974155426
f 58/20/23 67/25/32 61/11/26
f 58/20/23 61/11/26 59/6/24
v 0.04235700145363808 0.4013980031013489 0.4237000048160553
vt 0.4430989921092987 0.125
vn 0.8015999794006348 0.0 -0.5978999733924866
v 0.04235700145363808 0.3695789873600006 0.4365130066871643
vt 0.4430989921092987 0.1819000244140625
vn 0.8098999857902527 -0.4196000099182129 -0.4099000096321106
v 0.04235700145363808 0.304313987493515 0.3689349889755249
vn 0.5774000287055969 -0.5774000287055969 -0.5774000287055969
f 68/26/33 69/27/34 70/1/35
vt 0.375 0.125
f 68/26/33 70/1/35 63/28/28
v 0.04235700145363808 0.44558998942375183 0.46945899724960327
vt 0.5 0.0680999755859375
vn 0.7954000234603882 0.6060000061988831 -0.0
v 0.04235700145363808 0.43321600556373596 0.4365130066871643
vt 0.4431000053882599 0.0680999755859375
vn 0.8098999857902527 0.4196000099182129 -0.4099000096321106
f 71/29/36 72/30/37 66/13/31
vt 0.5 0.0
f 71/29/36 66/13/31 62/31/27
v 0.04235700145363808 0.43321600556373596 0.5024049878120422
vt 0.5569009780883789 0.0680999755859375
vn 0.8098999857902527 0.4196000099182129 0.4099000096321106
f 49/15/15 73/32/38 61/14/26
vt 0.625 0.125
f 49/15/15 61/14/26 67/33/32
v 0.04235700145363808 0.35720500349998474 0.46945899724960327
vt 0.5 0.1819000244140625
vn 0.7954000234603882 -0.6060000061988831 0.0
f 74/34/39 50/16/16 54/4/20
f 74/34/39 54/4/20 53/17/19
v 0.12425500154495239 0.35720500349998474 0.46945899724960327
vn -0.7366999983787537 -0.6761999726295471 0.0
v 0.12425500154495239 0.3695789873600006 0.4365130066871643
vn -0.7526999711990356 -0.4717999994754791 -0.45910000801086426
v 0.13375400006771088 0.3225019872188568 0.3877680003643036
vn -0.8521999716758728 -0.37630000710487366 -0.3634999990463257
f 75/34/40 76/27/41 77/27/42
v 0.13375400006771088 0.2918210029602051 0.46945899724960327
vn -0.8507000207901001 -0.5256999731063843 0.0
f 75/34/40 77/27/42 78/34/43
v 0.12425500154495239 0.43321600556373596 0.4365130066871643
vn -0.7526999711990356 0.4717999994754791 -0.45910000801086426
f 68/26/33 72/30/37 79/30/44
v 0.12425500154495239 0.4013980031013489 0.4237000048160553
vn -0.744700014591217 0.0 -0.6674000024795532
f 68/26/33 79/30/44 80/26/45
f 74/34/39 69/27/34 76/27/41
f 74/34/39 76/27/41 75/34/40
v 0.12425500154495239 0.43321600556373596 0.5024049878120422
vn -0.7526999711990356 0.47189998626708984 0.45910000801086426
f 71/29/36 73/32/38 81/32/46
v 0.12425500154495239 0.44558998942375183 0.46945899724960327
vn -0.7366999983787537 0.6761999726295471 -0.0
f 71/29/36 81/32/46 82/29/47
v 0.13375400006771088 0.4013980031013489 0.5829179883003235
vn -0.8547999858856201 0.0 0.5189999938011169
v 0.13375400006771088 0.3225019872188568 0.5511490106582642
vn -0.8521999716758728 -0.37630000710487366 0.3634999990463257
v 0.1578100025653839 0.30679500102996826 0.5674139857292175
vn 0.19689999520778656 -0.6983000040054321 0.6881999969482422
f 83/15/48 84/16/49 85/16/50
v 0.1578100025653839 0.4013980031013489 0.6055070161819458
vn 0.19910000264644623 0.0 0.9800000190734863
f 83/15/48 85/16/50 86/15/51
v 0.13375400006771088 0.48029300570487976 0.5511490106582642
vn -0.8521999716758728 0.37630000710487366 0.3634999990463257
f 82/29/47 81/32/46 87/32/52
v 0.13375400006771088 0.5109739899635315 0.46945899724960327
vn -0.8507000207901001 0.5256999731063843 0.0
f 82/29/47 87/32/52 88/29/53
f 52/15/18 51/16/17 84/16/49
f 52/15/18 84/16/49 83/15/48
v 0.13375400006771088 0.48029300570487976 0.3877680003643036
vn -0.8521999716758728 0.37630000710487366 -0.3634999990463257
f 80/26/45 79/30/44 89/30/54
v 0.13375400006771088 0.4013980031013489 0.35600000619888306
vn -0.8547999858856201 0.0 -0.5189999938011169
f 80/26/45 89/30/54 90/26/55
v 0.1578100025653839 0.4013980031013489 0.33341100811958313
vt 0.4431000053882599 0.125
vn 0.19910000264644623 0.0 -0.9800000190734863
v 0.1578100025653839 0.4959999918937683 0.371504008769989
vn 0.19689999520778656 0.6983000040054321 -0.6881999969482422
v 0.18532699346542358 0.44244900345802307 0.426952987909317
vn 0.9768999814987183 0.15449999272823334 -0.147599995136261
f 91/35/56 92/30/57 93/30/58
v 0.18532699346542358 0.4013980031013489 0.41042301058769226
vn 0.9775999784469604 0.0 -0.21050000190734863
f 91/35/56 93/30/58 94/26/59
f 90/26/55 89/30/54 92/30/57
f 90/26/55 92/30/57 91/35/56
v 0.1578100025653839 0.30679500102996826 0.371504008769989
vn 0.19689999520778656 -0.6983000040054321 -0.6881999969482422
f 78/34/43 77/27/42 95/27/60
v 0.1578100025653839 0.2700049877166748 0.46945899724960327
vn 0.20360000431537628 -0.9790999889373779 0.0
f 78/34/43 95/27/60 96/34/61
v 0.1578100025653839 0.4959999918937683 0.5674139857292175
vn 0.19689999520778656 0.6983000040054321 0.6881999969482422
f 88/29/53 87/32/52 97/32/62
v 0.1578100025653839 0.5327900052070618 0.46945899724960327
vn 0.20360000431537628 0.9790999889373779 0.0
f 88/29/53 97/32/62 98/29/63
v 0.18532699346542358 0.4013980031013489 0.46945899724960327
vt 0.5 0.125
v 0.18532699346542358 0.4013980031013489 0.5284950137138367
vn 0.9775999784469604 0.0 0.21050000190734863
v 0.18532699346542358 0.3603459894657135 0.5119649767875671
vn 0.9768999814987183 -0.15449999272823334 0.147599995136261
f 99/36/2 100/15/64 101/16/65
v 0.18532699346542358 0.34438198804855347 0.46945899724960327
vn 0.9767000079154968 -0.21469999849796295 0.0
f 99/36/2 101/16/65 102/34/66
v 0.18532699346542358 0.3603459894657135 0.426952987909317
vn 0.9768999814987183 -0.15449999272823334 -0.147599995136261
f 96/34/61 95/27/60 103/27/67
f 96/34/61 103/27/67 102/34/66
v 0.18532699346542358 0.44244900345802307 0.5119649767875671
vn 0.9768999814987183 0.15449999272823334 0.147599995136261
f 98/29/63 97/32/62 104/32/68
v 0.18532699346542358 0.4584139883518219 0.46945899724960327
vn 0.9767000079154968 0.21469999849796295 -0.0
f 98/29/63 104/32/68 105/29/69
f 86/15/51 85/16/50 101/16/65
f 86/15/51 101/16/65 100/15/64
f 97/32/62 86/15/51 100/15/64
f 97/32/62 100/15/64 104/32/68
f 105/29/69 104/32/68 100/15/64
f 105/29/69 100/15/64 99/36/2
f 77/27/42 90/26/55 91/35/56
f 77/27/42 91/35/56 95/27/60
f 95/27/60 91/35/56 94/26/59
f 95/27/60 94/26/59 103/27/67
f 76/27/41 80/26/45 90/26/55
f 76/27/41 90/26/55 77/27/42
f 81/32/46 52/15/18 83/15/48
f 81/32/46 83/15/48 87/32/52
f 87/32/52 83/15/48 86/15/51
f 87/32/52 86/15/51 97/32/62
f 69/27/34 68/26/33 80/26/45
f 69/27/34 80/26/45 76/27/41
f 50/16/16 49/15/15 67/33/32
f 50/16/16 67/33/32 54/4/20
f 72/30/37 68/26/33 63/28/28
f 72/30/37 63/28/28 66/13/31
f 55/3/21 54/12/20 67/25/32
f 55/3/21 67/25/32 58/20/23
v 0.002985999919474125 0.304313987493515 0.3689349889755249
vn -0.5774000287055969 -0.5774000287055969 -0.5774000287055969
f 70/9/35 106/2/70 64/24/29
f 70/9/35 64/24/29 63/23/28
f 56/18/22 55/3/21 58/20/23
f 56/18/22 58/20/23 57/19/6
f 73/32/38 49/15/15 52/15/18
f 73/32/38 52/15/18 81/32/46
f 106/2/70 56/18/22 57/19/6
f 106/2/70 57/19/6 64/24/29
f 93/30/58 105/29/69 99/36/2
f 93/30/58 99/36/2 94/26/59
f 92/30/57 98/29/63 105/29/69
f 92/30/57 105/29/69 93/30/58
f 85/16/50 96/34/61 102/34/66
f 85/16/50 102/34/66 101/16/65
f 94/26/59 99/36/2 102/34/66
f 94/26/59 102/34/66 103/27/67
f 89/30/54 88/29/53 98/29/63
f 89/30/54 98/29/63 92/30/57
f 84/16/49 78/34/43 96/34/61
f 84/16/49 96/34/61 85/16/50
f 79/30/44 82/29/47 88/29/53
f 79/30/44 88/29/53 89/30/54
f 72/30/37 71/29/36 82/29/47
f 72/30/37 82/29/47 79/30/44
f 50/16/16 74/34/39 75/34/40
f 50/16/16 75/34/40 51/16/17
f 51/16/17 75/34/40 78/34/43
f 51/16/17 78/34/43 84/16/49
f 69/27/34 74/34/39 53/17/19
f 69/27/34 53/17/19 70/1/35
f 73/32/38 71/29/36 62/31/27
f 73/32/38 62/31/27 61/14/26
f 65/5/30 60/21/25 62/22/27
f 65/5/30 62/22/27 66/7/31
f 64/24/29 57/19/6 60/21/25
f 64/24/29 60/21/25 65/5/30
f 70/1/35 53/17/19 56/18/22
f 70/1/35 56/18/22 106/2/70
o Cube.188_Cube.405##0#2#0#-1.0
g Cube.188_Cube.405##0#2#0#-1.0
v 0.04235700145363808 -0.3986560106277466 0.5152180194854736
v 0.04235700145363808 -0.43047499656677246 0.5024049878120422
v 0.12425500154495239 -0.43047499656677246 0.5024049878120422
f 107/15/15 108/16/16 109/16/17
v 0.12425500154495239 -0.3986560106277466 0.5152180194854736
f 107/15/15 109/16/17 110/15/18
v 0.04235700145363808 -0.49573999643325806 0.46945899724960327
v 0.04235700145363808 -0.49573999643325806 0.5699819922447205
v 0.002985999919474125 -0.49573999643325806 0.5699819922447205
f 111/17/19 112/4/20 113/3/21
v 0.002985999919474125 -0.49573999643325806 0.46945899724960327
f 111/17/19 113/3/21 114/18/22
v 0.002985999919474125 -0.3986560106277466 0.46945899724960327
v 0.002985999919474125 -0.3986560106277466 0.5699819922447205
v 0.002985999919474125 -0.3015730082988739 0.5699819922447205
f 115/19/6 116/20/23 117/6/24
v 0.002985999919474125 -0.3015730082988739 0.46945899724960327
f 115/19/6 117/6/24 118/21/25
v 0.04235700145363808 -0.3015730082988739 0.5699819922447205
f 118/21/25 117/6/24 119/8/26
v 0.04235700145363808 -0.3015730082988739 0.46945899724960327
f 118/21/25 119/8/26 120/22/27
v 0.04235700145363808 -0.3986560106277466 0.3689349889755249
v 0.002985999919474125 -0.3986560106277466 0.3689349889755249
v 0.002985999919474125 -0.3015730082988739 0.3689349889755249
f 121/23/28 122/24/29 123/5/30
v 0.04235700145363808 -0.30161601305007935 0.3687970042228699
f 121/23/28 123/5/30 124/10/31
v 0.04235700145363808 -0.3986560106277466 0.5699819922447205
f 116/20/23 125/25/32 119/11/26
f 116/20/23 119/11/26 117/6/24
v 0.04235700145363808 -0.3986560106277466 0.4237000048160553
v 0.04235700145363808 -0.43047499656677246 0.4365130066871643
v 0.04235700145363808 -0.49573999643325806 0.3689349889755249
f 126/26/33 127/27/34 128/1/35
f 126/26/33 128/1/35 121/28/28
v 0.04235700145363808 -0.35446301102638245 0.46945899724960327
v 0.04235700145363808 -0.3668369948863983 0.4365130066871643
f 129/29/36 130/30/37 124/13/31
f 129/29/36 124/13/31 120/31/27
v 0.04235700145363808 -0.3668369948863983 0.5024049878120422
f 107/15/15 131/32/38 119/14/26
f 107/15/15 119/14/26 125/33/32
v 0.04235700145363808 -0.4428490102291107 0.46945899724960327
f 132/34/39 108/16/16 112/4/20
f 132/34/39 112/4/20 111/17/19
v 0.12425500154495239 -0.4428490102291107 0.46945899724960327
v 0.12425500154495239 -0.43047499656677246 0.4365130066871643
v 0.13375400006771088 -0.47755101323127747 0.3877680003643036
f 133/34/40 134/27/41 135/27/42
v 0.13375400006771088 -0.5082330107688904 0.46945899724960327
vn -0.8507000207901001 -0.525600016117096 0.0
f 133/34/40 135/27/42 136/34/71
v 0.12425500154495239 -0.3668369948863983 0.4365130066871643
f 126/26/33 130/30/37 137/30/44
v 0.12425500154495239 -0.3986560106277466 0.4237000048160553
f 126/26/33 137/30/44 138/26/45
f 132/34/39 127/27/34 134/27/41
f 132/34/39 134/27/41 133/34/40
v 0.12425500154495239 -0.3668369948863983 0.5024049878120422
vn -0.7526999711990356 0.4717999994754791 0.45910000801086426
f 129/29/36 131/32/38 139/32/72
v 0.12425500154495239 -0.35446301102638245 0.46945899724960327
f 129/29/36 139/32/72 140/29/47
v 0.13375400006771088 -0.3986560106277466 0.5829179883003235
v 0.13375400006771088 -0.47755101323127747 0.5511490106582642
v 0.1578100025653839 -0.4932590126991272 0.5674139857292175
f 141/15/48 142/16/49 143/16/50
v 0.1578100025653839 -0.3986560106277466 0.6055070161819458
f 141/15/48 143/16/50 144/15/51
v 0.13375400006771088 -0.3197610080242157 0.5511490106582642
f 140/29/47 139/32/72 145/32/52
v 0.13375400006771088 -0.2890799939632416 0.46945899724960327
f 140/29/47 145/32/52 146/29/53
f 110/15/18 109/16/17 142/16/49
f 110/15/18 142/16/49 141/15/48
v 0.13375400006771088 -0.3197610080242157 0.3877680003643036
f 138/26/45 137/30/44 147/30/54
v 0.13375400006771088 -0.3986560106277466 0.35600000619888306
f 138/26/45 147/30/54 148/26/55
v 0.1578100025653839 -0.3986560106277466 0.33341100811958313
v 0.1578100025653839 -0.30405399203300476 0.371504008769989
v 0.18532699346542358 -0.3576050102710724 0.426952987909317
f 149/35/56 150/30/57 151/30/58
v 0.18532699346542358 -0.3986560106277466 0.41042301058769226
f 149/35/56 151/30/58 152/26/59
f 148/26/55 147/30/54 150/30/57
f 148/26/55 150/30/57 149/35/56
v 0.1578100025653839 -0.4932590126991272 0.371504008769989
f 136/34/71 135/27/42 153/27/60
v 0.1578100025653839 -0.5300490260124207 0.46945899724960327
f 136/34/71 153/27/60 154/34/61
v 0.1578100025653839 -0.30405399203300476 0.5674139857292175
f 146/29/53 145/32/52 155/32/62
v 0.1578100025653839 -0.2672640085220337 0.46945899724960327
f 146/29/53 155/32/62 156/29/63
v 0.18532699346542358 -0.3986560106277466 0.46945899724960327
v 0.18532699346542358 -0.3986560106277466 0.5284950137138367
v 0.18532699346542358 -0.43970799446105957 0.5119649767875671
f 157/36/2 158/15/64 159/16/65
v 0.18532699346542358 -0.4556719958782196 0.46945899724960327
f 157/36/2 159/16/65 160/34/66
v 0.18532699346542358 -0.43970799446105957 0.426952987909317
f 154/34/61 153/27/60 161/27/67
f 154/34/61 161/27/67 160/34/66
v 0.18532699346542358 -0.3576050102710724 0.5119649767875671
f 156/29/63 155/32/62 162/32/68
v 0.18532699346542358 -0.34163999557495117 0.46945899724960327
f 156/29/63 162/32/68 163/29/69
f 144/15/51 143/16/50 159/16/65
f 144/15/51 159/16/65 158/15/64
f 155/32/62 144/15/51 158/15/64
f 155/32/62 158/15/64 162/32/68
f 163/29/69 162/32/68 158/15/64
f 163/29/69 158/15/64 157/36/2
f 135/27/42 148/26/55 149/35/56
f 135/27/42 149/35/56 153/27/60
f 153/27/60 149/35/56 152/26/59
f 153/27/60 152/26/59 161/27/67
f 134/27/41 138/26/45 148/26/55
f 134/27/41 148/26/55 135/27/42
f 139/32/72 110/15/18 141/15/48
f 139/32/72 141/15/48 145/32/52
f 145/32/52 141/15/48 144/15/51
f 145/32/52 144/15/51 155/32/62
f 127/27/34 126/26/33 138/26/45
f 127/27/34 138/26/45 134/27/41
f 108/16/16 107/15/15 125/33/32
f 108/16/16 125/33/32 112/4/20
f 130/30/37 126/26/33 121/28/28
f 130/30/37 121/28/28 124/13/31
f 113/3/21 112/12/20 125/25/32
f 113/3/21 125/25/32 116/20/23
v 0.002985999919474125 -0.49573999643325806 0.3689349889755249
f 128/9/35 164/2/70 122/24/29
f 128/9/35 122/24/29 121/23/28
f 114/18/22 113/3/21 116/20/23
f 114/18/22 116/20/23 115/19/6
f 131/32/38 107/15/15 110/15/18
f 131/32/38 110/15/18 139/32/72
f 164/2/70 114/18/22 115/19/6
f 164/2/70 115/19/6 122/24/29
f 151/30/58 163/29/69 157/36/2
f 151/30/58 157/36/2 152/26/59
f 150/30/57 156/29/63 163/29/69
f 150/30/57 163/29/69 151/30/58
f 143/16/50 154/34/61 160/34/66
f 143/16/50 160/34/66 159/16/65
f 152/26/59 157/36/2 160/34/66
f 152/26/59 160/34/66 161/27/67
f 147/30/54 146/29/53 156/29/63
f 147/30/54 156/29/63 150/30/57
f 142/16/49 136/34/71 154/34/61
f 142/16/49 154/34/61 143/16/50
f 137/30/44 140/29/47 146/29/53
f 137/30/44 146/29/53 147/30/54
f 130/30/37 129/29/36 140/29/47
f 130/30/37 140/29/47 137/30/44
f 108/16/16 132/34/39 133/34/40
f 108/16/16 133/34/40 109/16/17
f 109/16/17 133/34/40 136/34/71
f 109/16/17 136/34/71 142/16/49
f 127/27/34 132/34/39 111/17/19
f 127/27/34 111/17/19 128/1/35
f 131/32/38 129/29/36 120/31/27
f 131/32/38 120/31/27 119/14/26
f 123/5/30 118/21/25 120/22/27
f 123/5/30 120/22/27 124/7/31
f 122/24/29 115/19/6 118/21/25
f 122/24/29 118/21/25 123/5/30
f 128/1/35 111/17/19 114/18/22
f 128/1/35 114/18/22 164/2/70
o COLLIDER.SLIP_Cube.406##0#0#0#-1.0
g COLLIDER.SLIP_Cube.406##0#0#0#-1.0
v 0.059755999594926834 0.53370600938797 0.33876800537109375
vn 0.9998999834060669 0.0 0.016699999570846558
v 0.055879998952150345 0.53370600938797 0.5715280175209045
v 0.055879998952150345 -0.53370600938797 0.5715280175209045
f 165/13/73 166/14/73 167/4/73
v 0.059755999594926834 -0.53370600938797 0.33876800537109375
f 165/13/73 167/4/73 168/1/73
v -0.37502598762512207 -0.53370600938797 0.33876800537109375
f 168/1/1 167/3/1 169/2/1
vn -0.47530001401901245 0.0 0.879800021648407
f 169/2/74 167/3/74 166/6/74
v -0.37502598762512207 0.53370600938797 0.33876800537109375
f 169/2/74 166/6/74 170/5/74
f 170/5/3 166/8/3 165/7/3
v -0.37502598762512207 -0.53370600938797 -0.010173999704420567
f 168/1/1 169/2/1 171/2/1
v 0.059755999594926834 -0.53370600938797 -0.010173999704420567
f 168/1/1 171/2/1 172/1/1
v -0.37502598762512207 0.53370600938797 -0.010173999704420567
f 172/9/4 171/2/4 173/5/4
v 0.059755999594926834 0.53370600938797 -0.010173999704420567
f 172/9/4 173/5/4 174/10/4
f 165/13/2 168/1/2 172/1/2
f 165/13/2 172/1/2 174/13/2
f 169/2/6 170/5/6 173/5/6
f 169/2/6 173/5/6 171/2/6
f 170/5/3 165/7/3 174/7/3
f 170/5/3 174/7/3 173/5/3
