# OBJ file
o __dotobj_group__##0#1#0#-1.0
g __dotobj_group__##0#1#0#-1.0
o Mattress##0#1#0#-1.0
g Mattress##0#1#0#-1.0
v 0.00013699999544769526 0.09175299853086472 0.17009900510311127
vt 0.625 0.125
vn 0.009100000374019146 -0.972000002861023 -0.23499999940395355
v 0.23961199820041656 0.09175299853086472 0.17009900510311127
vt 0.625 0.0
v 0.22020000219345093 0.01867000013589859 0.48009100556373596
f 1/1/1 2/2/1 3/2/1
v 0.1770150065422058 0.007656999863684177 0.5232579708099365
vt 0.625 0.023396015167236328
f 1/1/1 3/2/1 4/3/1
v 0.00013699999544769526 0.0 0.5403259992599487
f 1/1/1 4/3/1 5/1/1
v 0.00013699999544769526 0.49719300866127014 0.021560000255703926
vt 0.5610470175743103 0.125
vn 0.0 0.25220000743865967 -0.9677000045776367
v 0.00013699999544769526 0.40403100848197937 -0.0027199999894946814
v -0.23933899402618408 0.40403100848197937 -0.0027199999894946814
vt 0.625 0.25
f 6/4/2 7/1/2 8/5/2
v -0.23933899402618408 0.49719300866127014 0.021560000255703926
vt 0.5610470175743103 0.25
f 6/4/2 8/5/2 9/6/2
v 0.00013699999544769526 0.5246970057487488 0.18278799951076508
vt 0.636709988117218 0.625
vn -0.031199999153614044 -0.5029000043869019 0.8637999892234802
v 0.00013699999544769526 0.4840629994869232 0.15913400053977966
vt 0.6695259809494019 0.625
v 0.19429899752140045 0.4840629994869232 0.16614800691604614
vt 0.6695259809494019 0.7624489963054657
f 10/7/3 11/8/3 12/9/3
v 0.19429899752140045 0.5246970057487488 0.18980300426483154
vt 0.636709988117218 0.7582979947328568
f 10/7/3 12/9/3 13/10/3
v 0.00013699999544769526 0.2289769947528839 0.29848599433898926
vn -0.012799999676644802 0.9642999768257141 0.26460000872612
v -0.19402599334716797 0.2289769947528839 0.29848599433898926
vt 0.6695259809494019 0.4875509738922119
v -0.15671999752521515 0.16805200278759003 0.5129140019416809
f 14/8/4 15/11/4 16/11/4
v 0.00013699999544769526 0.16805200278759003 0.5298900008201599
f 14/8/4 16/11/4 17/8/4
v -0.23933899402618408 0.2293889969587326 0.058246999979019165
vn 0.0 -0.6306999921798706 -0.7760000228881836
v 0.00013699999544769526 0.2293889969587326 0.058246999979019165
f 18/5/5 19/1/5 1/1/5
v -0.23933899402618408 0.09175299853086472 0.17009900510311127
f 18/5/5 1/1/5 20/5/5
v 0.23961299657821655 0.30657100677490234 0.16385099291801453
vt 0.0 0.0
vn 0.0 -0.8073999881744385 0.5900999903678894
v 0.19429899752140045 0.33801600337028503 0.2068749964237213
v 0.00013699999544769526 0.33801600337028503 0.2068749964237213
f 21/12/6 22/12/6 23/12/6
v -0.19402599334716797 0.33801600337028503 0.2068749964237213
f 21/12/6 23/12/6 24/12/6
v -0.23933899402618408 0.30657100677490234 0.16385099291801453
f 21/12/6 24/12/6 25/12/6
f 21/12/6 25/12/6 18/12/6
f 21/12/6 18/12/6 19/12/6
v 0.23961299657821655 0.2293889969587326 0.058246999979019165
f 21/12/6 19/12/6 26/12/6
vn 0.0 0.6432999968528748 0.7656000256538391
f 22/9/7 23/8/7 14/8/7
v 0.19429899752140045 0.2289769947528839 0.29848599433898926
f 22/9/7 14/8/7 27/9/7
vn 0.0 -0.3296000063419342 -0.944100022315979
f 8/5/8 7/1/8 19/1/8
f 8/5/8 19/1/8 18/5/8
vn -0.01730000041425228 0.2897999882698059 0.9569000005722046
f 12/9/9 11/8/9 23/8/9
f 12/9/9 23/8/9 22/9/9
vn 0.0 0.9670000076293945 0.25459998846054077
f 27/9/10 14/8/10 17/8/10
v 0.15262800455093384 0.16805200278759003 0.5298900008201599
vt 0.6695259809494019 0.7329489886760712
f 27/9/10 17/8/10 28/13/10
v 0.19429899752140045 0.17834900319576263 0.49077901244163513
f 27/9/10 28/13/10 29/9/10
v 0.00013699999544769526 0.7994109988212585 0.15145200490951538
vt 0.4148469865322113 0.625
vn -0.03610000014305115 0.024299999698996544 0.9991000294685364
v 0.00013699999544769526 0.5641549825668335 0.15718300640583038
vt 0.604843020439148 0.625
v 0.19429899752140045 0.5641549825668335 0.16419699788093567
vt 0.604843020439148 0.754267007112503
f 30/14/11 31/15/11 32/16/11
v 0.19429899752140045 0.7598789930343628 0.15942899882793427
vt 0.4467740058898926 0.7342720031738281
f 30/14/11 32/16/11 33/17/11
v 0.154339998960495 0.7994109988212585 0.15702299773693085
vt 0.4148469865322113 0.7085759937763214
f 30/14/11 33/17/11 34/18/11
v 0.19983699917793274 0.768215000629425 -0.004143999889492989
vt 0.375 0.02076202630996704
vn 0.0 -0.0038999998942017555 -1.0
v 0.23961299657821655 0.7282530069351196 -0.003988000098615885
vt 0.40243300795555115 0.0
v 0.23961299657821655 0.587660014629364 -0.003438000101596117
vt 0.4989449977874756 0.0
f 35/19/12 36/20/12 37/21/12
v 0.00013699999544769526 0.587660014629364 -0.003438000101596117
vt 0.4989449977874756 0.125
f 35/19/12 37/21/12 38/22/12
v 0.00013699999544769526 0.768215000629425 -0.004143999889492989
vt 0.375 0.125
f 35/19/12 38/22/12 39/23/12
v -0.19402599334716797 0.5246970057487488 0.18278799951076508
vt 0.636709988117218 0.49170202016830444
vn 0.0 -0.5030999779701233 0.8641999959945679
v -0.19402599334716797 0.4840629994869232 0.15913400053977966
f 40/24/13 41/11/13 11/8/13
f 40/24/13 11/8/13 10/7/13
v 0.23961299657821655 0.49719300866127014 0.021560000255703926
vt 0.5610470175743103 0.0
v 0.23961299657821655 0.40403100848197937 -0.0027199999894946814
f 42/25/2 43/2/2 7/1/2
f 42/25/2 7/1/2 6/4/2
vn 0.004999999888241291 -0.9678999781608582 -0.2513999938964844
f 20/5/14 1/1/14 5/1/14
v -0.1600400060415268 0.0 0.508072018623352
vt 0.625 0.1988149881362915
f 20/5/14 5/1/14 44/26/14
v -0.23933899402618408 0.025692999362945557 0.4366540014743805
f 20/5/14 44/26/14 45/5/14
vn 0.0 0.310699999332428 0.9505000114440918
f 23/8/15 11/8/15 41/11/15
f 23/8/15 41/11/15 24/11/15
f 14/8/7 23/8/7 24/11/7
f 14/8/7 24/11/7 15/11/7
f 1/1/5 19/1/5 26/2/5
f 1/1/5 26/2/5 2/2/5
f 19/1/8 7/1/8 43/2/8
f 19/1/8 43/2/8 26/2/8
v -0.15356899797916412 0.7994109988212585 0.15145200490951538
vt 0.4148469865322113 0.5416930019855499
vn 0.0 0.024399999529123306 0.9997000098228455
v -0.19402599334716797 0.7596520185470581 0.1524209976196289
vt 0.446956992149353 0.5157040059566498
v -0.19402599334716797 0.5641549825668335 0.15718300640583038
vt 0.604843020439148 0.49573302268981934
f 46/27/16 47/28/16 48/29/16
f 46/27/16 48/29/16 31/15/16
f 46/27/16 31/15/16 30/14/16
vn 0.0 -0.2662999927997589 -0.9639000296592712
f 37/21/17 42/25/17 6/4/17
f 37/21/17 6/4/17 38/22/17
vn 0.0 0.5443999767303467 0.8389000296592712
f 48/29/18 40/24/18 10/7/18
f 48/29/18 10/7/18 31/15/18
vn -0.030300000682473183 0.5440999865531921 0.8385000228881836
f 31/15/19 10/7/19 13/10/19
f 31/15/19 13/10/19 32/16/19
f 38/22/17 6/4/17 9/6/17
v -0.23933899402618408 0.587660014629364 -0.003438000101596117
vt 0.4989449977874756 0.25
f 38/22/17 9/6/17 49/30/17
f 39/23/12 38/22/12 49/30/12
v -0.23933899402618408 0.727977991104126 -0.003986000083386898
vt 0.4026220142841339 0.25
f 39/23/12 49/30/12 50/31/12
v -0.19930599629878998 0.768215000629425 -0.004143999889492989
vt 0.375 0.22910398244857788
f 39/23/12 50/31/12 51/32/12
o Mattress##0#2#1#-1.0
g Mattress##0#2#1#-1.0
vt 0.625 1.0
vn 1.0 -0.0 -0.0
v 0.23961299657821655 0.46233201026916504 0.12029500305652618
vt 0.6574360132217407 0.8503189980983734
vt 0.6566370129585266 0.8540060073137283
f 43/33/20 52/34/20 21/35/20
f 43/33/20 21/35/20 26/33/20
v 0.23961299657821655 0.5091750025749207 0.1437930017709732
vt 0.6210430264472961 0.8465449959039688
f 53/36/20 52/34/20 43/33/20
vt 0.5610470175743103 1.0
f 53/36/20 43/33/20 42/37/20
v -0.23933899402618408 0.46233201026916504 0.1132809966802597
vt 0.6574360132217407 0.3996809720993042
vn -1.0 -0.0 -0.0
f 54/38/21 8/5/21 18/5/21
vt 0.6566370129585266 0.39599400758743286
f 54/38/21 18/5/21 25/39/21
f 25/39/21 18/5/21 20/5/21
v -0.23933899402618408 0.18982400000095367 0.26185500621795654
vt 0.6568220257759094 0.39684802293777466
f 25/39/21 20/5/21 55/40/21
v -0.15672899782657623 0.16804000735282898 0.5129209756851196
vt 0.6695389747619629 0.48754698038101196
vn -0.13760000467300415 0.44279998540878296 0.8859999775886536
v -0.1600400060415268 0.10943199694156647 0.5343179702758789
vt 0.7303860187530518 0.5326800048351288
v 0.00013699999544769526 0.10943199694156647 0.5665720105171204
vt 0.7303860187530518 0.625
f 56/41/22 57/42/22 58/43/22
f 56/41/22 58/43/22 17/8/22
f 56/41/22 17/8/22 16/11/22
v 0.24227899312973022 0.12127000093460083 0.5229049921035767
vt 0.6564009785652161 0.8550949990749359
vn 0.7110000252723694 0.6811000108718872 0.17489999532699585
v 0.23961299657821655 0.18982400000095367 0.26185500621795654
vt 0.6568220257759094 0.8531520068645477
f 59/44/23 60/45/23 27/9/23
f 59/44/23 27/9/23 29/9/23
f 26/33/20 21/35/20 60/45/20
f 26/33/20 60/45/20 2/33/20
v 0.23961299657821655 0.7863240242004395 0.1123720034956932
vt 0.4057230055332184 0.8242170065641403
v 0.23961299657821655 0.5546630024909973 0.11803700029850006
vt 0.5857030153274536 0.8428809940814972
vt 0.4989449977874756 1.0
f 61/46/20 62/47/20 37/48/20
vt 0.40243300795555115 1.0
f 61/46/20 37/48/20 36/49/20
vn 0.05950000137090683 -0.30149999260902405 0.9516000151634216
vt 0.875 0.625
vt 0.875 0.7266040146350861
f 58/43/24 5/50/24 4/51/24
v 0.20163500308990479 0.11072999984025955 0.5628010034561157
vt 0.7303869724273682 0.7548830062150955
f 58/43/24 4/51/24 63/52/24
v 0.00013699999544769526 0.8258690237998962 0.10439100116491318
vt 0.30396899580955505 0.625
vn 0.0 0.8716999888420105 0.4900999963283539
v -0.1991489976644516 0.8258690237998962 0.10439100116491318
vt 0.30396899580955505 0.5209780037403107
f 64/53/25 65/54/25 46/27/25
f 64/53/25 46/27/25 30/14/25
v 0.19969399273395538 0.8258690237998962 0.11023599654436111
vt 0.30397000908851624 0.7291629910469055
vn -0.015699999406933784 0.8741999864578247 0.4853000044822693
f 66/55/26 64/53/26 30/14/26
f 66/55/26 30/14/26 34/18/26
vn -0.7441999912261963 0.2069000005722046 0.6351000070571899
f 24/11/27 41/11/27 54/38/27
f 24/11/27 54/38/27 25/39/27
vn 0.7613000273704529 0.4169999957084656 0.4966000020503998
f 22/9/28 27/9/28 60/45/28
f 22/9/28 60/45/28 21/35/28
vn -0.7613000273704529 0.4169999957084656 0.4966000020503998
f 15/11/29 24/11/29 25/39/29
f 15/11/29 25/39/29 55/40/29
vn 0.7407000064849854 0.18070000410079956 0.6470999717712402
f 12/9/30 22/9/30 21/35/30
f 12/9/30 21/35/30 52/34/30
f 9/6/21 8/5/21 54/38/21
v -0.23933899402618408 0.5091750025749207 0.13677899539470673
vt 0.6210430264472961 0.4034550189971924
f 9/6/21 54/38/21 67/56/21
vn -0.595300018787384 0.7597000002861023 0.26179999113082886
f 16/11/31 15/11/31 55/40/31
v -0.23933899402618408 0.13668499886989594 0.4632740020751953
vt 0.6565020084381104 0.3953710198402405
f 16/11/31 55/40/31 68/57/31
vt 0.6695240139961243 0.48753201961517334
f 16/11/31 68/57/31 56/58/31
f 55/40/21 20/5/21 45/5/21
f 55/40/21 45/5/21 68/57/21
vn 0.007199999876320362 0.5169000029563904 0.8560000061988831
vt 0.7303869724273682 0.7548819929361343
vt 0.669526994228363 0.7329500019550323
f 58/43/32 63/59/32 28/60/32
f 58/43/32 28/60/32 17/8/32
vn -0.5734000205993652 0.3093999922275543 0.7587000131607056
vt 0.6659700274467468 0.46248799562454224
f 68/57/33 57/61/33 56/58/33
vn -0.689300000667572 -0.16899999976158142 0.7045000195503235
vt 0.6563379764556885 0.39461302757263184
f 44/5/34 57/62/34 68/57/34
f 44/5/34 68/57/34 45/5/34
vn -0.19220000505447388 -0.2289000004529953 0.9542999863624573
vt 0.875 0.5511850118637085
f 57/42/35 44/63/35 5/50/35
f 57/42/35 5/50/35 58/43/35
vt 0.125 0.625
vn 0.0066999997943639755 0.8881999850273132 -0.4593999981880188
vt 0.30396899580955505 0.7291629910469055
f 39/64/36 64/53/36 66/65/36
vt 0.125 0.7292380034923553
f 39/64/36 66/65/36 35/66/36
vn -0.7153000235557556 0.017100000753998756 0.6985999941825867
v -0.23933899402618408 0.7860869765281677 0.10536299645900726
vt 0.40590700507164 0.4257640242576599
f 48/29/37 47/28/37 69/67/37
v -0.23933899402618408 0.5546630024909973 0.11102300137281418
vt 0.5857030153274536 0.4071189761161804
f 48/29/37 69/67/37 70/68/37
vt 0.125 0.5208959877490997
vn 0.0 0.8830999732017517 -0.4690999984741211
f 51/69/38 65/54/38 64/53/38
f 51/69/38 64/53/38 39/64/38
vn 0.7117000222206116 0.3634999990463257 0.6011000275611877
f 53/36/39 62/47/39 32/16/39
f 53/36/39 32/16/39 13/10/39
vn -0.7117000222206116 0.3634999990463257 0.6011000275611877
f 40/24/40 48/29/40 70/68/40
f 40/24/40 70/68/40 67/56/40
vn 0.7153000235557556 0.017100000753998756 0.6985999941825867
f 62/47/41 61/46/41 33/17/41
f 62/47/41 33/17/41 32/16/41
f 50/31/21 49/30/21 70/68/21
f 50/31/21 70/68/21 69/67/21
vn -0.5719000101089478 -0.38920000195503235 0.722100019454956
f 41/11/42 40/24/42 67/56/42
f 41/11/42 67/56/42 54/38/42
vn 0.5719000101089478 -0.38920000195503235 0.722100019454956
f 52/34/43 53/36/43 13/10/43
f 52/34/43 13/10/43 12/9/43
f 49/30/21 9/6/21 67/56/21
f 49/30/21 67/56/21 70/68/21
f 62/47/20 53/36/20 42/37/20
f 62/47/20 42/37/20 37/48/20
vn -0.4697999954223633 0.4941999912261963 0.7315000295639038
vt 0.328480988740921 0.5043700039386749
f 46/27/44 65/54/44 69/70/44
vt 0.4148469865322113 0.5197660028934479
f 46/27/44 69/70/44 47/71/44
vn 0.45969998836517334 0.5062999725341797 0.7296000123023987
vt 0.4148469865322113 0.7302339971065521
f 66/55/45 34/18/45 33/72/45
vt 0.3283360004425049 0.7456560134887695
f 66/55/45 33/72/45 61/73/45
vn -0.6639000177383423 0.6606000065803528 -0.3504999876022339
vt 0.125 0.5
f 65/54/46 51/69/46 50/74/46
vt 0.2780430018901825 0.5
f 65/54/46 50/74/46 69/75/46
vt 0.2806990146636963 0.75
vn 0.6710000038146973 0.6629999876022339 -0.3321000039577484
vt 0.125 0.75
f 61/76/47 36/77/47 35/66/47
f 61/76/47 35/66/47 66/65/47
vn 0.40540000796318054 0.6866999864578247 0.6033999919891357
f 59/44/48 29/9/48 28/9/48
vt 0.6602090001106262 0.8281069993972778
f 59/44/48 28/9/48 63/78/48
vt 0.6538400053977966 0.8669150024652481
vn 0.6953999996185303 -0.397599995136261 0.5985999703407288
f 63/79/49 4/33/49 3/33/49
f 63/79/49 3/33/49 59/44/49
vn 0.9939000010490417 -0.11050000041723251 0.0017000000225380063
f 2/33/50 60/45/50 59/44/50
f 2/33/50 59/44/50 3/33/50
o Mattress##0#3#2#-1.0
g Mattress##0#3#2#-1.0
v -0.18103499710559845 0.7994109988212585 0.15145200490951538
vt 0.4148469865322113 0.5268070101737976
vn 0.0 -0.12540000677108765 -0.9921000003814697
v -0.07475300133228302 0.7994109988212585 0.15145200490951538
vt 0.4148469865322113 0.5844100117683411
v -0.07475300133228302 0.7318159937858582 0.15999899804592133
f 71/80/51 72/81/51 73/81/51
v -0.18103499710559845 0.7318159937858582 0.15999899804592133
f 71/80/51 73/81/51 74/80/51
o Mattress.COLLIDER##0#1#0#-1.0
g Mattress.COLLIDER##0#1#0#-1.0
v 0.243477001786232 -0.010103000327944756 0.0
vt 0.375 0.25
vn 0.0 -1.0 -0.0
v 0.243477001786232 -0.010103000327944756 0.5631470084190369
v -0.243477001786232 -0.010103000327944756 0.5631470084190369
vt 0.625 0.5
f 75/82/52 76/5/52 77/83/52
v -0.243477001786232 -0.010103000327944756 0.0
vt 0.375 0.5
f 75/82/52 77/83/52 78/84/52
v -0.243477001786232 0.8267419934272766 0.0
vt 0.375 0.75
vn 0.0 1.0 -0.0
v -0.243477001786232 0.8267419934272766 0.1780419945716858
vt 0.625 0.75
v 0.243477001786232 0.8267419934272766 0.1780419945716858
f 79/85/53 80/86/53 81/33/53
v 0.243477001786232 0.8267419934272766 0.0
vt 0.375 1.0
f 79/85/53 81/33/53 82/87/53
v 0.243477001786232 0.2263839989900589 0.0
vt 0.125 0.6454359889030457
vn 0.0 -0.0 -1.0
v -0.243477001786232 0.2263839989900589 0.0
vt 0.375 0.6454359889030457
f 83/88/54 84/89/54 79/85/54
f 83/88/54 79/85/54 82/77/54
v -0.243477001786232 0.2263839989900589 0.24144500494003296
vt 0.625 0.6454359889030457
vn 0.0 0.10499999672174454 0.9944999814033508
v 0.243477001786232 0.2263839989900589 0.24144500494003296
vt 0.875 0.6454359889030457
vt 0.875 0.75
f 85/90/55 86/91/55 81/92/55
f 85/90/55 81/92/55 80/86/55
vn 0.0 -0.0 1.0
vt 0.875 0.5
v 0.243477001786232 0.2263839989900589 0.5631470084190369
vt 0.875 0.5408709943294525
f 77/83/56 76/93/56 87/94/56
v -0.243477001786232 0.2263839989900589 0.5631470084190369
vt 0.625 0.5408709943294525
f 77/83/56 87/94/56 88/95/56
vt 0.375 0.5408709943294525
f 75/74/54 78/84/54 84/96/54
vt 0.125 0.5408709943294525
f 75/74/54 84/96/54 83/97/54
f 88/95/53 87/94/53 86/91/53
f 88/95/53 86/91/53 85/90/53
f 87/94/20 76/5/20 75/82/20
f 87/94/20 75/82/20 86/91/20
f 75/82/20 83/97/20 86/91/20
f 83/97/20 82/87/20 81/92/20
f 83/97/20 81/92/20 86/91/20
f 78/84/21 77/83/21 88/95/21
f 78/84/21 88/95/21 85/90/21
f 78/84/21 85/90/21 84/96/21
f 85/90/21 80/86/21 79/85/21
f 85/90/21 79/85/21 84/96/21
