# OBJ file
o __dotobj_group__##0#1#0#-1.0
g __dotobj_group__##0#1#0#-1.0
o Microwave.002##0#1#0#-1.0
g Microwave.002##0#1#0#-1.0
v 0.1295890063047409 -0.046337999403476715 0.0258760005235672
vt 0.375 0.1992819905281067
vn 0.807699978351593 0.032600000500679016 -0.588699996471405
v 0.1295890063047409 -0.046337999403476715 0.1559540033340454
vt 0.625 0.1992819905281067
vn 0.70169997215271 0.1145000010728836 0.7031999826431274
v 0.1295890063047409 -0.0779770016670227 0.1559540033340454
vt 0.625 0.25
vn 0.5774000287055969 -0.5774000287055969 0.5774000287055969
f 1/1/1 2/2/2 3/3/3
v 0.1295890063047409 -0.0779770016670227 0.0258760005235672
vt 0.375 0.25
vn 0.608299970626831 -0.5841000080108643 -0.5374000072479248
f 1/1/1 3/3/3 4/4/4
v -0.07874300330877304 -0.0779770016670227 0.0
vt 0.375 0.44762200117111206
vn 0.04450000077486038 -0.6934999823570251 -0.7190999984741211
v -0.07874300330877304 -0.0779770016670227 0.1559540033340454
vt 0.625 0.44762200117111206
vn 0.0 -0.707099974155426 0.707099974155426
v -0.1295890063047409 -0.0779770016670227 0.1559540033340454
vt 0.625 0.5
vn -0.5774000287055969 -0.5774000287055969 0.5774000287055969
f 5/5/5 6/6/6 7/7/7
v -0.1295890063047409 -0.0779770016670227 0.0
vt 0.375 0.5
vn -0.5774000287055969 -0.5774000287055969 -0.5774000287055969
f 5/5/5 7/7/7 8/8/8
v -0.1295890063047409 0.03223700076341629 0.0
vt 0.375 0.6766780018806458
vn -0.707099974155426 -0.0 -0.707099974155426
v -0.1295890063047409 0.03223700076341629 0.1559540033340454
vt 0.625 0.6766780018806458
vn -0.707099974155426 -0.0 0.707099974155426
v -0.1295890063047409 0.0779770016670227 0.1559540033340454
vt 0.625 0.75
vn -0.5773000121116638 0.5774000287055969 0.5773000121116638
f 9/9/9 10/10/10 11/11/11
v -0.1295890063047409 0.0779770016670227 0.0
vt 0.375 0.75
vn -0.5773000121116638 0.5774000287055969 -0.5773000121116638
f 9/9/9 11/11/11 12/12/12
v -0.07874300330877304 0.03223700076341629 0.0
vt 0.32262200117111206 0.6766780018806458
vn 0.0 -0.0 -1.0
f 13/13/13 9/9/9 12/12/12
v -0.07874300330877304 0.0779770016670227 0.0
vt 0.32262200117111206 0.75
vn -0.12690000236034393 0.6191999912261963 -0.7749000191688538
f 13/13/13 12/12/12 14/14/14
v -0.07874300330877304 0.03223700076341629 0.1559540033340454
vt 0.6773779988288879 0.6766780018806458
vn 0.0066999997943639755 -0.05090000107884407 0.9987000226974487
v 0.1355780065059662 0.035693999379873276 0.15732300281524658
vt 0.875 0.6766780018806458
vn 0.7128000259399414 -0.17100000381469727 0.6801999807357788
v 0.1295890063047409 0.0779770016670227 0.1559540033340454
vt 0.875 0.75
vn 0.6276999711990356 0.43790000677108765 0.6435999870300293
f 15/15/15 16/16/16 17/17/17
v -0.07874300330877304 0.0779770016670227 0.1559540033340454
vt 0.6773779988288879 0.75
vn -0.12759999930858612 0.6222000122070312 0.7724000215530396
f 15/15/15 17/17/17 18/18/18
f 10/10/10 15/15/15 18/18/18
f 10/10/10 18/18/18 11/11/11
v 0.1295890063047409 0.03223700076341629 0.0
vt 0.125 0.6766780018806458
vn 0.7281000018119812 -0.14810000360012054 -0.6693000197410583
f 19/19/19 13/13/13 14/14/14
v 0.1295890063047409 0.0779770016670227 0.0
vt 0.125 0.75
vn 0.6344000101089478 0.43970000743865967 -0.6358000040054321
f 19/19/19 14/14/14 20/20/20
v -0.12657099962234497 0.0779770016670227 0.0040339999832212925
vn -0.30149999260902405 0.9045000076293945 -0.30149999260902405
f 14/14/14 12/12/12 21/12/21
v -0.08176200091838837 0.0779770016670227 0.0040339999832212925
vn 0.30149999260902405 0.9045000076293945 -0.30149999260902405
f 14/14/14 21/12/21 22/14/22
f 4/4/4 3/3/3 6/6/6
f 4/4/4 6/6/6 5/5/5
v -0.052055999636650085 0.0856039971113205 0.042256999760866165
vt 0.41778600215911865 0.8023779988288879
vn 0.5609999895095825 0.732699990272522 0.38519999384880066
v -0.048165999352931976 0.0856039971113205 0.022839000448584557
vt 0.375 0.8023779988288879
vn 0.33959999680519104 0.906499981880188 -0.25110000371932983
v -0.04828900098800659 0.09593400359153748 0.030395999550819397
vn 0.7527999877929688 0.5564000010490417 -0.3517000079154968
f 23/21/23 24/22/24 25/22/25
v -0.052055999636650085 0.09593400359153748 0.047228001058101654
vn 0.6541000008583069 -0.5871000289916992 0.47699999809265137
f 23/21/23 25/22/25 26/21/26
v -0.064969003200531 0.09593400359153748 0.11318500339984894
vt 0.5902330279350281 0.8023779988288879
vn -0.6553000211715698 -0.6097999811172485 -0.44589999318122864
v -0.06821899861097336 0.09593400359153748 0.12675100564956665
vt 0.625 0.8023779988288879
vn -0.7459999918937683 0.557200014591217 0.36469998955726624
v -0.064969003200531 0.10196000337600708 0.11392799764871597
vn -0.6245999932289124 0.7746999859809875 0.09870000183582306
f 27/23/27 28/24/28 29/24/29
v -0.064969003200531 0.10196000337600708 0.10392799973487854
vn -0.8355000019073486 0.49000000953674316 -0.24860000610351562
f 27/23/27 29/24/29 30/23/30
v -0.04826600104570389 0.0856039971113205 0.1339540034532547
vn 0.32679998874664307 0.9117000102996826 0.249099999666214
v -0.052055999636650085 0.0856039971113205 0.1188339963555336
vt 0.5913360118865967 0.8023779988288879
vn 0.5938000082969666 0.6996999979019165 -0.39719998836517334
v -0.052055999636650085 0.09593400359153748 0.1133119985461235
vn 0.6517999768257141 -0.6075999736785889 -0.453900009393692
f 31/24/31 32/25/32 33/25/33
v -0.04870599880814552 0.09593400359153748 0.1263969987630844
vn 0.751800000667572 0.5587000250816345 0.35030001401901245
f 31/24/31 33/25/33 34/24/34
f 33/25/33 27/23/27 30/23/30
v -0.052055999636650085 0.10196000337600708 0.10397700220346451
vn 0.8371999859809875 0.4862000048160553 -0.25049999356269836
f 33/25/33 30/23/30 35/25/35
v -0.064969003200531 0.0856039971113205 0.04024500027298927
vt 0.41870900988578796 0.8023779988288879
vn -0.6500999927520752 0.670799970626831 0.3569999933242798
f 36/26/36 23/21/23 26/21/26
v -0.064969003200531 0.09593400359153748 0.046257998794317245
vn -0.6973000168800354 -0.545799970626831 0.46459999680519104
f 36/26/36 26/21/26 37/26/37
v -0.064969003200531 0.0856039971113205 0.1198590025305748
vn -0.6409000158309937 0.6658999919891357 -0.38190001249313354
f 32/25/32 38/23/38 27/23/27
f 32/25/32 27/23/27 33/25/33
v -0.06885900348424911 0.0856039971113205 0.019958000630140305
vn -0.2662000060081482 0.9363999962806702 -0.2289000004529953
v -0.06861499696969986 0.09593400359153748 0.02920299954712391
vn -0.7321000099182129 0.5652999877929688 -0.38019999861717224
f 24/14/24 39/14/39 40/14/40
f 24/14/24 40/14/40 25/14/25
v -0.0688449963927269 0.0856039971113205 0.1359959989786148
vn -0.27480000257492065 0.9340999722480774 0.2280000001192093
f 38/23/38 41/24/41 28/24/28
f 38/23/38 28/24/28 27/23/27
f 39/22/39 36/26/36 37/26/37
f 39/22/39 37/26/37 40/22/40
f 41/18/41 31/18/31 34/18/34
f 41/18/41 34/18/34 28/18/28
v -0.064969003200531 0.10196000337600708 0.04202599823474884
vn -0.5903000235557556 0.7990000247955322 -0.1145000010728836
v -0.064969003200531 0.10196000337600708 0.054597001522779465
vn -0.8154000043869019 0.5138000249862671 0.2669000029563904
v -0.052055999636650085 0.10196000337600708 0.05412200093269348
vn 0.8134999871253967 0.5069000124931335 0.2851000130176544
f 42/22/42 43/26/43 44/21/44
v -0.052055999636650085 0.10196000337600708 0.04406299814581871
vn 0.6148999929428101 0.785099983215332 -0.0738999992609024
f 42/22/42 44/21/44 45/22/45
f 35/25/35 30/23/30 29/24/29
v -0.052055999636650085 0.10196000337600708 0.11356800049543381
vn 0.6305999755859375 0.7710999846458435 0.08820000290870667
f 35/25/35 29/24/29 46/24/46
f 28/18/28 34/18/34 46/18/46
f 28/18/28 46/18/46 29/18/29
f 26/21/26 25/22/25 45/22/45
f 26/21/26 45/22/45 44/21/44
f 34/24/34 33/25/33 35/25/35
f 34/24/34 35/25/35 46/24/46
f 37/26/37 26/21/26 44/21/44
f 37/26/37 44/21/44 43/26/43
f 25/14/25 40/14/40 42/14/42
f 25/14/25 42/14/42 45/14/45
f 40/22/40 37/26/37 43/26/43
f 40/22/40 43/26/43 42/22/42
f 43/26/43 30/23/30 35/25/35
f 43/26/43 35/25/35 44/21/44
f 37/26/37 27/23/27 30/23/30
f 37/26/37 30/23/30 43/26/43
f 27/23/27 37/26/37 26/21/26
f 27/23/27 26/21/26 33/25/33
f 33/25/33 26/21/26 44/21/44
f 33/25/33 44/21/44 35/25/35
v -0.12657099962234497 0.0779770016670227 0.12222500145435333
vn -0.30149999260902405 0.9045000076293945 0.30149999260902405
v -0.08176200091838837 0.0779770016670227 0.12222500145435333
vn 0.30149999260902405 0.9045000076293945 0.30149999260902405
v -0.08176200091838837 0.0833749994635582 0.12222500145435333
vn 0.5773000121116638 0.5774000287055969 0.5773000121116638
f 47/11/47 48/18/48 49/18/49
v -0.12657099962234497 0.0833749994635582 0.12222500145435333
f 47/11/47 49/18/49 50/11/11
f 11/11/11 18/18/18 48/18/48
f 11/11/11 48/18/48 47/11/47
f 12/12/12 11/11/11 47/11/47
f 12/12/12 47/11/47 21/12/21
f 18/24/18 14/22/14 22/22/22
f 18/24/18 22/22/22 48/24/48
v -0.08176200091838837 0.0833749994635582 0.0040339999832212925
vn 0.5773000121116638 0.5774000287055969 -0.5773000121116638
v -0.0839729979634285 0.0833749994635582 0.006787000223994255
vn 0.0 1.0 -0.0
f 49/24/49 51/22/50 52/22/51
v -0.0839729979634285 0.0833749994635582 0.11947199702262878
f 49/24/49 52/22/51 53/24/51
f 21/12/21 47/11/47 50/11/11
v -0.12657099962234497 0.0833749994635582 0.0040339999832212925
f 21/12/21 50/11/11 54/12/12
f 48/24/48 22/22/22 51/22/50
f 48/24/48 51/22/50 49/24/49
f 22/14/22 21/12/21 54/12/12
f 22/14/22 54/12/12 51/14/50
v -0.12435899674892426 0.0833749994635582 0.006787000223994255
f 51/14/50 54/12/12 55/12/51
f 51/14/50 55/12/51 52/14/51
f 50/11/11 49/18/49 53/18/51
v -0.12435899674892426 0.0833749994635582 0.11947199702262878
f 50/11/11 53/18/51 56/11/51
f 54/12/12 50/11/11 56/11/51
f 54/12/12 56/11/51 55/12/51
vt 0.125 0.5507180094718933
v -0.07874300330877304 -0.046337999403476715 0.0
vt 0.32262200117111206 0.5507180094718933
vn 0.046799998730421066 -0.06499999761581421 -0.9968000054359436
v -0.07874300330877304 0.0 0.0
vt 0.32262200117111206 0.625
vn 0.015699999406933784 -0.06499999761581421 -0.9977999925613403
f 1/27/1 57/28/52 58/29/53
v 0.11313699930906296 0.0 0.0
vt 0.125 0.625
vn 0.5343999862670898 -0.18790000677108765 -0.8241000175476074
f 1/27/1 58/29/53 59/30/54
v -0.1295890063047409 -0.046337999403476715 0.1559540033340454
vt 0.625 0.5507180094718933
v -0.07874300330877304 -0.046337999403476715 0.1559540033340454
vt 0.6773779988288879 0.5507180094718933
vn 0.006599999964237213 0.02979999966919422 0.9994999766349792
v -0.07874300330877304 0.0 0.1559540033340454
vt 0.6773779988288879 0.625
vn 0.014100000262260437 -0.02250000089406967 0.9995999932289124
f 60/31/10 61/32/55 62/33/56
v -0.1295890063047409 0.0 0.1559540033340454
vt 0.625 0.625
f 60/31/10 62/33/56 63/34/10
vt 0.875 0.5507180094718933
v 0.12141799926757812 0.006792000029236078 0.14424799382686615
vt 0.875 0.625
vn 0.7117999792098999 -0.1436000019311905 0.6875
f 61/32/55 2/35/2 64/36/57
f 61/32/55 64/36/57 62/33/56
v -0.1295890063047409 -0.046337999403476715 0.0
vt 0.375 0.5507180094718933
v -0.1295890063047409 -0.0 0.0
vt 0.375 0.625
f 57/28/52 65/37/9 66/38/9
f 57/28/52 66/38/9 58/29/53
f 65/37/9 60/31/10 63/34/10
f 65/37/9 63/34/10 66/38/9
vt 0.375 0.07332199811935425
vt 0.625 0.07332199811935425
vt 0.625 0.125
f 19/39/19 16/40/16 64/41/57
vt 0.375 0.125
f 19/39/19 64/41/57 59/42/54
vt 0.375 0.0
vt 0.625 0.0
f 20/43/20 17/44/17 16/40/16
f 20/43/20 16/40/16 19/39/19
f 59/30/54 58/29/53 13/13/13
f 59/30/54 13/13/13 19/19/19
f 63/34/10 62/33/56 15/15/15
f 63/34/10 15/15/15 10/10/10
f 62/33/56 64/36/57 16/16/16
f 62/33/56 16/16/16 15/15/15
f 58/29/53 66/38/9 9/9/9
f 58/29/53 9/9/9 13/13/13
f 66/38/9 63/34/10 10/10/10
f 66/38/9 10/10/10 9/9/9
f 8/8/8 7/7/7 60/31/10
f 8/8/8 60/31/10 65/37/9
vt 0.32262200117111206 0.5
f 5/45/5 8/8/8 65/37/9
f 5/45/5 65/37/9 57/28/52
vt 0.6773779988288879 0.5
vt 0.875 0.5
f 6/46/6 3/47/3 2/35/2
f 6/46/6 2/35/2 61/32/55
f 7/7/7 6/46/6 61/32/55
f 7/7/7 61/32/55 60/31/10
vt 0.125 0.5
f 4/48/4 5/45/5 57/28/52
f 4/48/4 57/28/52 1/27/1
f 59/42/54 64/41/57 2/2/2
f 59/42/54 2/2/2 1/1/1
o Microwave.002##0#2#1#-1.0
g Microwave.002##0#2#1#-1.0
v 0.12201400101184845 0.08381199836730957 0.1497959941625595
vn 0.24459999799728394 0.9233999848365784 0.29580000042915344
f 18/18/18 17/17/17 67/17/58
v -0.07116799801588058 0.08381199836730957 0.1497959941625595
vn -0.24169999361038208 0.9132000207901001 0.328000009059906
f 18/18/18 67/17/58 68/18/59
v 0.12201400101184845 0.08381199836730957 0.006157999858260155
vn 0.24459999799728394 0.9233999848365784 -0.29580000042915344
v -0.07116799801588058 0.08381199836730957 0.006157999858260155
vn -0.24160000681877136 0.9138000011444092 -0.3264999985694885
v -0.04585700109601021 0.08381199836730957 0.01927199959754944
vn 0.35740000009536743 0.9023000001907349 0.24089999496936798
f 69/20/60 70/14/61 71/14/62
v 0.10918299853801727 0.08381199836730957 0.01927199959754944
f 69/20/60 71/14/62 72/20/47
f 14/22/14 18/24/18 68/24/59
f 14/22/14 68/24/59 70/22/61
f 20/20/20 14/14/14 70/14/61
f 20/20/20 70/14/61 69/20/60
f 17/44/17 20/43/20 69/43/60
f 17/44/17 69/43/60 67/44/58
v 0.10918299853801727 0.08381199836730957 0.13668200373649597
v 0.10918299853801727 0.07942800223827362 0.01927199959754944
vn -0.6771000027656555 0.303600013256073 0.6703000068664551
f 73/44/21 72/43/47 74/43/63
v 0.10918299853801727 0.07942800223827362 0.13668200373649597
vn -0.6535999774932861 0.38280001282691956 -0.652999997138977
f 73/44/21 74/43/63 75/44/64
f 67/44/58 69/43/60 72/43/47
f 67/44/58 72/43/47 73/44/21
f 70/22/61 68/24/59 41/24/41
f 70/22/61 41/24/41 38/23/38
f 70/22/61 38/23/38 36/26/36
f 70/22/61 36/26/36 39/22/39
f 68/18/59 67/17/58 73/17/21
v -0.04585700109601021 0.08381199836730957 0.13668200373649597
vn 0.36250001192092896 0.8999000191688538 -0.24240000545978546
f 68/18/59 73/17/21 76/18/65
v -0.04585700109601021 0.07942800223827362 0.13668200373649597
vn 0.6535999774932861 0.38280001282691956 -0.652999997138977
f 71/22/62 76/24/65 77/24/66
v -0.04585700109601021 0.07942800223827362 0.01927199959754944
vn 0.6593000292778015 0.37310001254081726 0.6528000235557556
f 71/22/62 77/24/66 78/22/67
f 76/18/65 73/17/21 75/17/64
f 76/18/65 75/17/64 77/18/66
f 72/20/47 71/14/62 78/14/67
f 72/20/47 78/14/67 74/20/63
f 71/14/62 70/14/61 39/14/39
f 71/14/62 39/14/39 24/14/24
f 68/18/59 76/18/65 31/18/31
f 68/18/59 31/18/31 41/18/41
f 76/24/65 71/22/62 24/22/24
f 76/24/65 24/22/24 23/21/23
f 76/24/65 23/21/23 32/25/32
f 76/24/65 32/25/32 31/24/31
f 23/21/23 36/26/36 38/23/38
f 23/21/23 38/23/38 32/25/32
o Microwave.002##0#0#2#328965.0
g Microwave.002##0#0#2#328965.0
v -0.019737999886274338 0.07942800223827362 0.09866999834775925
vt 0.5440620183944702 0.835669994354248
f 78/22/67 77/24/66 79/49/51
v 0.004784999880939722 0.07942800223827362 0.06549199670553207
vt 0.47341498732566833 0.8669289946556091
f 78/22/67 79/49/51 80/50/51
vt 0.375 1.0
v 0.06529299914836884 0.07942800223827362 0.0745289996266365
vt 0.4926590025424957 0.9440549984574318
v 0.07492800056934357 0.07942800223827362 0.099031001329422
vt 0.5448300242424011 0.9563370011746883
f 74/51/63 81/52/51 82/53/51
v 0.0027099999133497477 0.07942800223827362 0.01927199959754944
vt 0.375 0.8642839938402176
v 0.055994998663663864 0.07942800223827362 0.05088600143790245
vt 0.442315012216568 0.9322040006518364
f 74/51/63 83/54/51 84/55/51
v 0.014702999964356422 0.07942800223827362 0.11760299652814865
vt 0.5843759775161743 0.8795699998736382
f 79/49/51 77/24/66 85/56/51
v 0.008572000078856945 0.07942800223827362 0.08514600247144699
vt 0.5152660012245178 0.8717550039291382
f 79/49/51 85/56/51 86/57/51
vt 0.625 1.0
f 85/56/51 77/24/66 75/58/64
v 0.06053899973630905 0.07942800223827362 0.12349999696016312
vt 0.5969319939613342 0.9379960000514984
f 85/56/51 75/58/64 87/59/51
v 0.04195699840784073 0.07942800223827362 0.10919900238513947
vt 0.5664799809455872 0.9143090024590492
f 85/56/51 87/59/51 88/60/51
f 87/59/51 75/58/64 82/53/51
f 80/50/51 83/54/51 78/22/67
v 0.020117999985814095 0.07942800223827362 0.06111900135874748
vt 0.4641039967536926 0.8864730000495911
f 84/55/51 83/54/51 89/61/51
f 82/53/51 75/58/64 74/51/63
f 55/12/51 56/11/51 53/24/51
f 55/12/51 53/24/51 52/22/51
o Microwave.002##0#3#3#-1.0
g Microwave.002##0#3#3#-1.0
v -0.036851998418569565 -0.03815799951553345 0.024277999997138977
vn 0.5547000169754028 0.6083999872207642 0.5676000118255615
f 74/20/63 78/14/67 90/14/68
v 0.10017900168895721 -0.03815799951553345 0.024277999997138977
vn -0.5547000169754028 0.6083999872207642 0.5676000118255615
f 74/20/63 90/14/68 91/20/69
f 75/44/64 74/43/63 91/43/69
v 0.10017900168895721 -0.03815799951553345 0.12804900109767914
vn -0.5561000108718872 0.6165000200271606 -0.5572999715805054
f 75/44/64 91/43/69 92/44/70
v -0.036851998418569565 -0.03815799951553345 0.12804900109767914
vn 0.5561000108718872 0.6165000200271606 -0.5572999715805054
f 78/22/67 77/24/66 93/24/71
f 78/22/67 93/24/71 90/22/68
f 77/18/66 75/17/64 92/17/70
f 77/18/66 92/17/70 93/18/71
f 91/20/69 90/14/68 93/24/71
f 91/20/69 93/24/71 92/17/70
o Microwave.COLLIDER##0#1#0#-1.0
g Microwave.COLLIDER##0#1#0#-1.0
v 0.13061299920082092 0.08834099769592285 0.0
vn 1.0 -0.0 -0.0
v 0.13061299920082092 0.08834099769592285 0.15916800498962402
v 0.13061299920082092 -0.07879699766635895 0.15916800498962402
f 94/43/72 95/44/72 96/3/72
v 0.13061299920082092 -0.07879699766635895 0.0
f 94/43/72 96/3/72 97/4/72
vn 0.0 -1.0 -0.0
v -0.13061299920082092 -0.07879699766635895 0.15916800498962402
f 97/4/73 96/3/73 98/7/73
v -0.13061299920082092 -0.07879699766635895 0.0
f 97/4/73 98/7/73 99/8/73
vn -1.0 -0.0 -0.0
v -0.13061299920082092 0.08834099769592285 0.15916800498962402
f 99/8/74 98/7/74 100/11/74
v -0.13061299920082092 0.08834099769592285 0.0
f 99/8/74 100/11/74 101/12/74
f 101/12/51 100/11/51 95/58/51
f 101/12/51 95/58/51 94/51/51
f 97/48/13 99/8/13 101/12/13
f 97/48/13 101/12/13 94/20/13
vn 0.0 -0.0 1.0
f 98/7/75 96/47/75 95/17/75
f 98/7/75 95/17/75 100/11/75
